<?xml version="1.0" encoding="UTF-8"?><svg id="Layer_1" xmlns="http://www.w3.org/2000/svg" width="1347.4716" height="131.7832" viewBox="0 0 1347.4716 131.7832"><defs><style>.cls-1{fill:none;stroke:#000;stroke-linecap:round;stroke-linejoin:round;stroke-width:5px;}</style></defs><g><path class="cls-1" d="M636.794,57.0037c-4.6666-3-9.3334-6-14-9l-27.9231,.1538v18.8462h-9.0769l9.0769,50.5993h82.9231V56.8573c-13.6666,.0488-27.3334,.0976-41,.1464Z"/><polyline class="cls-1" points="677.8709 117.603 668.794 67.0037 594.8709 67.0037"/></g><g><path d="M134.6992,27.8922l-8.1934,2.3018-.2451,2.2876,.8232-.231c.8115-.228,1.4336-.2344,1.8672-.0186,.4336,.2153,.7207,.5757,.8623,1.0801,.1387,.4937,.0801,.9453-.1777,1.355s-.793,.7285-1.6045,.9565l-4.541,1.2759c-.8115,.228-1.4336,.2339-1.8672,.0186s-.7207-.5757-.8633-1.0801c-.1416-.5044-.0762-.9668,.1963-1.3867,.2734-.4194,.8291-.7354,1.6689-.9478l1.5908-14.6836-2.2051,.6191c-.8115,.228-1.4336,.2344-1.8672,.019-.4336-.2158-.7207-.5757-.8623-1.0806-.1426-.5039-.084-.9614,.1738-1.3711s.792-.7285,1.6035-.9565l7.293-2.0312,11.3682,14.6821c.79-.2222,1.335-.2803,1.6367-.1758,.6064,.2202,.9922,.6265,1.1592,1.2188,.1387,.4932,.082,.9443-.1709,1.3525-.252,.4082-.7842,.7261-1.5957,.9541l-4.541,1.2759c-.8115,.228-1.4336,.2344-1.8672,.0186-.4336-.2153-.7207-.5752-.8623-1.0801-.1387-.4937-.0791-.9453,.1787-1.355,.2568-.4097,.792-.7285,1.6035-.9565l.8223-.231-1.3838-1.8301Zm-2.3457-2.98l-4.5918-5.917-.8545,7.4468,5.4463-1.5298Z"/><path d="M155.9385,14.338c.3535-.46,.75-.7246,1.1885-.7944,.4951-.0791,.9316,.0332,1.3086,.3369,.377,.3032,.6309,.8657,.7617,1.687l.3545,2.228c.1318,.8325,.0654,1.4487-.1992,1.8486-.2656,.3999-.6572,.6406-1.1738,.7231-.4727,.0752-.8936,.0039-1.2637-.2144-.2676-.165-.5195-.5488-.7539-1.1519s-.6348-1.0151-1.2002-1.2368c-.9971-.395-2.2051-.48-3.623-.2544-1.6309,.2598-2.8633,.9463-3.6953,2.0591-.833,1.1133-1.1318,2.4009-.8994,3.8638,.2148,1.3501,.8564,2.3408,1.9268,2.9727,1.0693,.6318,2.7012,.7729,4.8955,.4238,1.4395-.229,2.5928-.5625,3.457-1,.5117-.2661,.9746-.6538,1.3896-1.1646,.415-.5098,.8193-.7964,1.2129-.8589,.4727-.0752,.9082,.0342,1.3066,.3286,.3994,.2939,.6357,.6772,.7109,1.1499,.1221,.7651-.2861,1.5742-1.2227,2.4268-1.3906,1.271-3.582,2.1445-6.5742,2.6211-2.6895,.4277-4.8711,.2036-6.5449-.6724-2.2627-1.1738-3.6016-3.0605-4.0146-5.6597-.3926-2.4644,.1045-4.6343,1.4902-6.5103s3.4014-3.0244,6.0449-3.4453c.9561-.1519,1.8594-.2031,2.71-.1538,.8496,.0493,1.6523,.1982,2.4072,.4473Z"/><path d="M172.7891,15.9166l.2012,7.021c.0225,.752,.1904,1.2427,.5039,1.4731,.4893,.3623,1.3486,.5254,2.5791,.4902,1.7881-.0513,3.4287-.48,4.9209-1.2866,.5723-.3125,1.0234-.4736,1.3545-.4834,.4551-.0127,.8555,.1465,1.2012,.4785s.5264,.7432,.54,1.2329c.0127,.4556-.1582,.8535-.5127,1.1943-.543,.5513-1.6309,1.0752-3.2637,1.5723s-3.0127,.7617-4.1396,.7939c-2.1758,.0625-3.8203-.3604-4.9346-1.269-1.1152-.9082-1.6914-2.0459-1.7305-3.4121l-.2217-7.7046-1.2637,.0361c-.8428,.0244-1.4482-.1206-1.8164-.4351s-.5596-.7334-.5742-1.2573c-.0146-.5122,.1523-.936,.502-1.271s.9453-.5142,1.7881-.5386l1.2646-.0361-.0908-3.1602c-.0244-.8428,.1211-1.4482,.4346-1.8164,.3145-.3682,.7334-.5596,1.2578-.5747,.5127-.0146,.9355,.1528,1.2705,.5024,.335,.3491,.5146,.9453,.5391,1.7881l.0908,3.1602,6.4736-.1855c.8428-.0239,1.4482,.1211,1.8164,.4351,.3682,.3145,.5596,.7339,.5742,1.2573,.0156,.5127-.1523,.936-.502,1.271-.3486,.335-.9453,.5146-1.7881,.5386l-6.4746,.1855Z"/><path d="M198.5605,13.5074l-1.3105,11.9424,4.1797,.4585c.8379,.0918,1.418,.3188,1.7393,.6807s.4531,.8032,.3955,1.3242c-.0557,.5098-.2793,.9062-.6719,1.1899-.3916,.2837-1.0068,.3794-1.8447,.2876l-11.8408-1.2988c-.8389-.0918-1.418-.3188-1.7393-.6807s-.4531-.8032-.3965-1.3242c.0557-.5098,.2803-.9062,.6719-1.1899,.3926-.2837,1.0078-.3794,1.8457-.2876l4.1787,.4585,.9277-8.46-2.8027-.3076c-.8271-.0908-1.4033-.3174-1.7305-.6797-.3271-.3628-.4619-.8042-.4053-1.3252,.0566-.5098,.2803-.9062,.6729-1.1899,.3916-.2837,1.0068-.3799,1.8447-.2876l6.2861,.6895Zm.249-6.6606l-.4043,3.6865-4.1455-.4546,.4043-3.6865,4.1455,.4546Z"/><path d="M216.998,28.4307l5.6162-6.5513c-.9043-.2363-1.4629-.4648-1.6758-.6855-.4619-.4854-.6094-1.0483-.4424-1.6875,.1299-.4961,.4092-.856,.8389-1.0791,.4297-.2236,1.0518-.2285,1.8672-.0151l4.6465,1.2144c.8154,.2134,1.3564,.5225,1.6211,.9272s.3311,.8608,.1992,1.3682c-.1299,.4956-.4092,.8555-.8389,1.0791-.4297,.2231-1.0518,.228-1.8672,.0151l-.5625-.147-8.71,10.1411-3.5381-.9248-2.6328-13.1064-.4795-.125c-.8164-.2134-1.3564-.5225-1.6211-.9272-.2656-.4053-.332-.8608-.1992-1.3682,.1299-.4961,.4092-.8555,.8389-1.0791,.4297-.2231,1.0518-.2285,1.8672-.0151l4.5469,1.1885c.8047,.2104,1.3398,.5181,1.6045,.9229,.2656,.4048,.332,.8613,.1992,1.3682-.1641,.6279-.5537,1.0386-1.1699,1.231-.3076,.0962-.9189,.0244-1.834-.2144l1.7256,8.4702Z"/><path d="M243.5537,25.8555l-4.7559,11.0327,3.8604,1.6641c.7744,.334,1.2617,.7207,1.4629,1.1611s.1973,.9014-.0098,1.3823c-.2031,.4707-.5332,.7842-.9912,.9404s-1.0742,.0674-1.8486-.2666l-10.9385-4.7153c-.7744-.3335-1.2617-.7207-1.4629-1.1606-.2012-.4404-.1982-.9009,.0098-1.3823,.2021-.4707,.5332-.7842,.9912-.9404s1.0742-.0674,1.8486,.2666l3.8604,1.6641,3.3691-7.8154-2.5898-1.1162c-.7637-.3296-1.249-.7153-1.4551-1.1577-.2061-.4429-.2051-.9043,.002-1.3857,.2031-.4707,.5332-.7842,.9922-.9404,.458-.1562,1.0732-.0674,1.8477,.2666l5.8076,2.5029Zm2.1914-6.2944l-1.4678,3.4058-3.8291-1.6509,1.4678-3.4058,3.8291,1.6509Z"/><path d="M260.0645,38.2369l-3.5176,6.0801c-.376,.6509-.4912,1.1567-.3447,1.5181,.2256,.5649,.8711,1.1553,1.9365,1.7715,1.5479,.896,3.1689,1.3926,4.8633,1.4907,.6514,.0347,1.1191,.1348,1.4053,.3003,.3945,.228,.6523,.5742,.7715,1.0386,.1201,.4639,.0576,.9082-.1885,1.332-.2275,.3945-.582,.6436-1.0635,.7471-.751,.1841-1.9521,.0586-3.6025-.3765s-2.9639-.9346-3.9404-1.4995c-1.8838-1.0898-3.0605-2.314-3.5322-3.6724-.4707-1.3584-.3643-2.6294,.3203-3.8125l3.8604-6.6719-1.0947-.6333c-.7305-.4224-1.1689-.8638-1.3174-1.3242-.1475-.4609-.0908-.918,.1719-1.3716,.2568-.4438,.6221-.7163,1.0947-.8179,.4736-.1016,1.0752,.0591,1.8047,.4814l1.0947,.6333,1.583-2.7368c.4229-.73,.8643-1.1689,1.3252-1.3169,.46-.1479,.917-.0908,1.3711,.1719,.4434,.2563,.7168,.6216,.8174,1.0947,.1016,.4731-.0586,1.0747-.4805,1.8047l-1.584,2.7368,5.6064,3.2432c.7305,.4224,1.1689,.8638,1.3174,1.3247,.1475,.4604,.0908,.918-.1719,1.3716-.2568,.4438-.6221,.7163-1.0947,.8174-.4736,.1016-1.0752-.0591-1.8047-.481l-5.6064-3.2437Z"/><path d="M271.626,59.3414l1.3711-13.2817c-.4414-.3672-.6992-.7651-.7744-1.1938s.0107-.8345,.2588-1.2168c.2842-.4399,.666-.6987,1.1436-.7764s1.0703,.1128,1.7783,.5708l2.6826,1.7368c.707,.4585,1.124,.9214,1.249,1.3887,.124,.4678,.0439,.9219-.2402,1.3613-.2793,.4307-.6572,.6846-1.1348,.7622s-1.042-.0942-1.6924-.5151l-.9023,9.0044,7.8174-4.5278c-.6309-.4087-1.0088-.8472-1.1338-1.3145-.125-.4678-.0449-.9214,.2402-1.3613,.2783-.4307,.6562-.6846,1.1338-.7622,.4775-.0771,1.0703,.1128,1.7783,.5713l2.7686,1.7925c.6982,.4517,1.1104,.9116,1.2344,1.3794,.125,.4678,.0449,.9214-.2393,1.3613-.2539,.3921-.5986,.6406-1.0332,.7461s-.918,.0132-1.4492-.2769l-15.3428,8.9194c.7363,.4766,1.1729,.8608,1.3096,1.1533,.2666,.5933,.2236,1.1631-.1289,1.708-.2783,.4302-.6572,.6846-1.1348,.7617-.4775,.0776-1.0703-.1128-1.7783-.5708l-6.4121-4.1514c-.708-.4585-1.124-.9214-1.249-1.3892-.125-.4673-.0479-.9165,.2305-1.3467,.2852-.4399,.666-.6987,1.1445-.7764,.4775-.0776,1.0703,.1128,1.7773,.5713l2.9268,1.8945,3.8008-2.2222Z"/><path d="M329.1045,67.5592l-8.4131,16.6577,.5332,.27c.7422,.3745,1.2031,.7891,1.3828,1.2437,.1787,.4541,.1504,.915-.0859,1.3828-.2314,.4575-.5801,.7505-1.0469,.8784-.4668,.1284-1.0762,.002-1.8291-.3779l-3.6611-1.8491,.3857-.7627c-.9229,.0576-1.8271-.0034-2.7129-.1831-.8857-.1792-1.7461-.4795-2.5801-.9009-2.3486-1.1865-3.8975-2.8208-4.6455-4.9023-.748-2.082-.6113-4.1348,.4111-6.1587,1.0684-2.1152,2.7324-3.5405,4.9922-4.2749,2.2607-.7349,4.4736-.5552,6.6396,.5391,.8135,.4106,1.5488,.9385,2.2061,1.583,.6572,.645,1.2412,1.4092,1.7529,2.2925l1.9648-3.8896-.5342-.27c-.7529-.3799-1.2158-.7959-1.3896-1.2476s-.1455-.9062,.0859-1.3638c.2363-.4678,.5879-.7656,1.0547-.8936,.4658-.1284,1.0762-.0024,1.8281,.3779l3.6611,1.8491Zm-9.8301,11.6919c.6523-1.2915,.752-2.6133,.2988-3.9653s-1.3359-2.3594-2.6475-3.022c-1.3018-.6577-2.6309-.7676-3.9883-.3296-1.3574,.4375-2.3545,1.2871-2.9912,2.5479-.5801,1.1494-.6504,2.2979-.209,3.4463s1.4043,2.0972,2.8896,2.8472c1.4736,.7446,2.8096,.957,4.0059,.6353,1.1963-.3208,2.0762-1.041,2.6416-2.1597Z"/><path d="M340.5137,79.2135l-4.1855,11.2612,3.9404,1.4648c.79,.2939,1.2969,.6553,1.5205,1.085,.2227,.4292,.2432,.8896,.0605,1.3809-.1787,.4805-.4922,.8105-.9424,.9897-.4492,.1792-1.0693,.1221-1.8594-.1714l-11.165-4.1504c-.791-.2939-1.2969-.6553-1.5205-1.085-.2236-.4292-.2432-.8896-.0605-1.3809,.1787-.4805,.4922-.8105,.9424-.9897,.4492-.1797,1.0684-.1221,1.8594,.1714l3.9404,1.4648,2.9658-7.9775-2.6436-.9824c-.7793-.2896-1.2832-.6504-1.5117-1.0815-.2295-.4316-.252-.8926-.0693-1.3838,.1787-.481,.4922-.8105,.9424-.9902,.4492-.1792,1.0693-.1221,1.8594,.1719l5.9268,2.2031Zm1.8682-6.3979l-1.292,3.4761-3.9092-1.4531,1.293-3.4761,3.9082,1.4531Z"/><path d="M359.0205,100.8468l.1982-.7964c-.9648,.2427-1.9883,.3496-3.0732,.3208-1.085-.0283-2.0479-.1465-2.8877-.355-1.8242-.4526-3.1865-1.3042-4.085-2.5542-.8994-1.25-1.2031-2.4609-.9131-3.6333,.3545-1.4263,1.4092-2.5703,3.167-3.4316,1.7568-.8613,3.918-.9736,6.4834-.3374,1.0293,.2549,2.1904,.6606,3.4844,1.2163l.2012-.813c.127-.5083,.0107-.9771-.3457-1.4062-.3584-.4292-1.1504-.7959-2.3779-1.1006-1.0059-.2495-2.3604-.374-4.0625-.3735-.6328-.0044-1.1152-.0479-1.4463-.1299-.4541-.1128-.7979-.3706-1.0322-.7754-.2334-.4043-.2881-.8608-.1621-1.3696,.0713-.2871,.1885-.5225,.3516-.7051,.1621-.1826,.3594-.313,.5898-.3906s.6826-.127,1.3574-.1479c.8975-.0234,1.8008,.0039,2.709,.082,.9072,.0786,1.7148,.2056,2.4229,.3809,2.1123,.5239,3.6387,1.3867,4.5791,2.5884s1.2139,2.5933,.8223,4.1748l-1.7363,6.9995,.5801,.144c.8184,.2031,1.3633,.5054,1.6328,.9067,.2705,.4014,.3428,.8569,.2158,1.3652-.123,.4976-.3975,.8608-.8242,1.0898-.4268,.2285-1.0488,.2417-1.8672,.0386l-3.9814-.9873Zm1.5098-6.0874c-1.2939-.603-2.5166-1.0469-3.666-1.332-1.3828-.3428-2.6553-.3003-3.8174,.1274-.7266,.2773-1.1445,.6377-1.2539,1.0796-.0791,.3213,.0049,.6177,.2549,.8911,.4619,.502,1.1738,.8721,2.1367,1.1108,.8174,.2026,1.7832,.2725,2.8975,.208,1.1133-.064,2.1416-.2725,3.0869-.6255l.3613-1.4595Z"/><path d="M384.7891,90.6373l.1377-1.0332,4.0654,.5439c.8359,.1118,1.4102,.3525,1.7227,.7217,.3125,.3696,.4346,.8145,.3643,1.3335-.0674,.5083-.3008,.8994-.6992,1.1738-.3994,.2739-1.0166,.3555-1.8525,.2437l-.5928-.0796-1.6904,12.6367c-.1631,1.2192-.5625,2.2495-1.1973,3.0898-.6357,.8398-1.5283,1.5166-2.6777,2.0298-1.1484,.5127-2.3896,.6802-3.7217,.502l-3.9307-.5259c-.835-.1118-1.4092-.3521-1.7217-.7217-.3125-.3691-.4355-.8081-.3672-1.3164,.0693-.5195,.3037-.916,.7021-1.1904s1.0156-.3555,1.8516-.2437l3.8281,.5122c1.0615,.1421,1.9248-.0356,2.5889-.5332s1.0557-1.1865,1.1729-2.0674l.2266-1.6938c-.834,.3945-1.666,.6626-2.4951,.8042s-1.6621,.1572-2.498,.0454c-2.3604-.3159-4.2305-1.3682-5.6123-3.1562-1.3809-1.7886-1.917-3.8398-1.6074-6.1553,.3115-2.3262,1.3682-4.1704,3.1719-5.5327,1.8027-1.3623,3.8838-1.8857,6.2441-1.5698,.8809,.1177,1.7021,.3569,2.4648,.7178,.7617,.3604,1.4697,.8491,2.123,1.4648Zm-.9082,6.6548c.1709-1.2759-.1523-2.4453-.9697-3.5093-.8174-1.063-1.8867-1.6836-3.208-1.8604s-2.5166,.1406-3.585,.9517c-1.0684,.8115-1.6875,1.855-1.8584,3.1309-.1719,1.2876,.1504,2.46,.9697,3.5176,.8174,1.0581,1.8877,1.6753,3.209,1.8521s2.5156-.1377,3.583-.9429c1.0674-.8057,1.6875-1.8521,1.8594-3.1396Z"/><path d="M402.125,90.8258l-.0645,2.1865c1.501-1.0156,2.6797-1.6875,3.5391-2.0156,.8584-.3281,1.6582-.4814,2.3984-.4595,1.1387,.0332,2.2314,.4873,3.2773,1.3613,.7119,.5913,1.0586,1.1826,1.042,1.7749-.0156,.501-.2012,.9204-.5586,1.2573-.3584,.3374-.7812,.4985-1.2715,.4839-.4326-.0127-.8818-.2422-1.3477-.6895-.4648-.4468-.8857-.6758-1.2617-.6865-.4893-.0146-1.2305,.2715-2.2227,.8574-.9912,.5864-2.2344,1.4731-3.7285,2.6602l-.1553,5.2783,4.9883,.147c.8428,.0249,1.4385,.2051,1.7881,.54,.3486,.335,.5156,.7646,.5,1.2886-.0146,.5122-.2061,.9258-.5742,1.2397-.3691,.314-.9746,.4585-1.8174,.4336l-10.5732-.3115c-.8428-.0244-1.4395-.2046-1.7881-.5396-.3496-.3354-.5166-.7646-.501-1.2886,.0156-.5127,.207-.9258,.5752-1.2397s.9736-.4585,1.8164-.4341l2.084,.0615,.251-8.5068-1.2646-.0376c-.8428-.0244-1.4385-.2046-1.7871-.5396-.3496-.3354-.5166-.7646-.501-1.2886,.0146-.5127,.207-.9258,.5752-1.2397s.9736-.4585,1.8164-.4336l4.7656,.1401Z"/><path d="M428.7891,105.7276l-.0527-.8184c-.8457,.5229-1.7891,.9351-2.8311,1.2358-1.043,.3013-1.9961,.48-2.8594,.5361-1.876,.1211-3.4326-.2778-4.667-1.1973-1.2354-.9189-1.8926-1.981-1.9697-3.1865-.0947-1.4668,.5645-2.8765,1.9785-4.2295,1.4141-1.3525,3.4395-2.1143,6.0771-2.2847,1.0576-.0684,2.2871-.0337,3.6895,.104l-.0547-.8354c-.0332-.5229-.2861-.9346-.7559-1.2358-.4707-.3003-1.3369-.4102-2.5986-.3286-1.0352,.0669-2.3633,.3584-3.9854,.874-.6045,.1875-1.0771,.292-1.418,.3145-.4668,.0298-.8721-.1123-1.2178-.4268s-.5361-.7329-.5693-1.2563c-.0195-.2954,.0215-.5547,.1211-.7783,.0996-.2231,.2471-.4067,.4434-.5508s.6123-.3281,1.249-.5518c.8486-.2944,1.7178-.542,2.6064-.7422s1.6973-.3237,2.4248-.3706c2.1719-.1401,3.8877,.2197,5.1475,1.0801,1.2607,.8608,1.9434,2.104,2.0479,3.7295l.4648,7.1973,.5967-.0386c.8418-.0547,1.4521,.0688,1.8311,.3696s.5859,.7129,.6191,1.2358c.0332,.5117-.1191,.9409-.4561,1.2881s-.9268,.5483-1.7676,.6025l-4.0938,.2642Zm-.4043-6.2588c-1.416-.1826-2.7148-.2354-3.8975-.1592-1.4209,.0918-2.6211,.5176-3.5996,1.2773-.6084,.4844-.8975,.9541-.8682,1.4087,.0215,.3301,.1924,.5869,.5127,.772,.5928,.3384,1.3838,.4756,2.373,.4116,.8408-.0542,1.7822-.2803,2.8242-.6787s1.959-.9087,2.7529-1.5308l-.0977-1.501Z"/><path d="M441.0156,88.9068l.1465,.9805c.4805-.6362,.9336-1.0928,1.3594-1.3696,.4248-.2764,.9365-.4595,1.5332-.5488,.5078-.0757,1.0273-.0264,1.5605,.147,.5322,.1743,1.0723,.4736,1.6201,.8984,.5225-.585,1.0732-1.0439,1.6514-1.3784,.5781-.334,1.1885-.5488,1.8301-.645,1.2852-.1919,2.3779-.0034,3.2812,.564,1.1934,.7437,1.9004,1.8477,2.1191,3.312l1.1592,7.7583c.7207-.1074,1.2803-.0239,1.6787,.2505,.3975,.2744,.6348,.665,.7109,1.1724,.0752,.5068-.0371,.9473-.3389,1.3208-.3008,.373-.8691,.6221-1.7021,.7466l-3.2959,.4922-1.6338-10.9355c-.0791-.5298-.2305-.8813-.4521-1.0557s-.5293-.2319-.9238-.1729c-.3838,.0571-.7236,.2114-1.0195,.4634-.375,.3438-.8027,.9492-1.2842,1.8159l1.043,6.9805c.7207-.1074,1.2812-.0239,1.6787,.2505,.3984,.2749,.6357,.6655,.7109,1.1724,.0762,.5073-.0371,.9473-.3379,1.3208-.3018,.373-.8691,.6221-1.7031,.7466l-3.2959,.4922-1.6338-10.9355c-.0771-.5181-.2305-.8667-.458-1.0459-.2285-.1792-.54-.2393-.9346-.1802-.4053,.0605-.7871,.2471-1.1436,.5596s-.7539,.8877-1.1934,1.7246l1.043,6.981c.7207-.1079,1.2832-.0249,1.6875,.249,.4033,.2739,.6436,.6641,.7188,1.1709,.0762,.5073-.04,.9478-.3467,1.3223-.3066,.374-.8779,.6235-1.7109,.748l-3.127,.4668c-.834,.125-1.4521,.0527-1.8555-.2153s-.6426-.6611-.7207-1.1797c-.0752-.5068,.0371-.9473,.3389-1.3203,.3008-.3735,.8174-.6147,1.5508-.7241l-1.2578-8.4175c-.7324,.1094-1.2979,.0269-1.6963-.2476-.3975-.2749-.6348-.6655-.71-1.1729-.0762-.5068,.0391-.9473,.3467-1.3218,.3066-.374,.877-.6235,1.7109-.748l3.2959-.4922Z"/></g><g><path d="M847.7764,47.2164l-7.5,4.0225,.2568,2.2861,.7529-.4033c.7422-.3984,1.3486-.54,1.8184-.4229,.4707,.1162,.8291,.4053,1.0762,.8672,.2432,.4521,.2822,.9053,.1191,1.3613-.1621,.4561-.6152,.8828-1.3584,1.2812l-4.1572,2.2295c-.7432,.3984-1.3486,.5391-1.8184,.4229-.4697-.1172-.8291-.4062-1.0762-.8682-.248-.4619-.2842-.9268-.1094-1.3955,.1758-.4688,.6504-.8984,1.4238-1.2871l-1.627-14.6797-2.0186,1.082c-.7432,.3984-1.3496,.5391-1.8193,.4229s-.8281-.4053-1.0762-.8682c-.2471-.4609-.29-.9199-.127-1.376s.6152-.8828,1.3584-1.2812l6.6807-3.5625,14.2773,11.8711c.7236-.3877,1.2432-.5625,1.5605-.5264,.6387,.084,1.1045,.3965,1.3955,.9395,.2422,.4512,.2842,.9043,.126,1.3564-.1572,.4531-.6074,.8789-1.3506,1.2773l-4.1572,2.2295c-.7432,.3984-1.3496,.5391-1.8193,.4229-.4697-.1172-.8281-.4062-1.0762-.8682-.2422-.4512-.2812-.9053-.1191-1.3613,.1631-.4551,.6162-.8828,1.3594-1.2812l.7529-.4033-1.748-1.4873Zm-2.9355-2.4004l-5.7637-4.7822,.7783,7.4551,4.9854-2.6729Z"/><path d="M865.0479,29.0113c.2285-.5332,.5459-.8887,.9531-1.0654,.46-.2002,.9102-.2002,1.3516,0,.4404,.2002,.8262,.6816,1.1582,1.4443l.8984,2.0693c.335,.7734,.4248,1.3867,.2676,1.8398s-.4766,.7842-.957,.9932c-.4385,.1904-.8643,.2256-1.2764,.1064-.3008-.0928-.6406-.4014-1.0176-.9277-.377-.5254-.8672-.8242-1.4707-.8984-1.0645-.1338-2.2549,.085-3.5713,.6572-1.5156,.6572-2.5381,1.6289-3.0664,2.9141-.5293,1.2861-.498,2.6074,.0918,3.9658,.5439,1.2549,1.4131,2.0547,2.6064,2.3994,1.1934,.3457,2.8086,.0752,4.8467-.8096,1.3379-.5811,2.3711-1.1904,3.0996-1.8301,.4287-.3848,.7803-.876,1.0547-1.4736,.2754-.5977,.5957-.9756,.9609-1.1348,.4395-.1904,.8887-.1924,1.3477-.0068s.7842,.4971,.9746,.9365c.3086,.7109,.1162,1.5957-.5791,2.6553-1.0293,1.5771-2.9346,2.9688-5.7139,4.1758-2.498,1.085-4.667,1.4111-6.5059,.9805-2.4844-.5732-4.251-2.0674-5.2988-4.4814-.9941-2.2881-1.0537-4.5137-.1787-6.6758s2.54-3.7764,4.9961-4.8428c.8877-.3857,1.75-.6602,2.5859-.8242,.835-.1641,1.6494-.2197,2.4424-.167Z"/><path d="M881.4512,26.0836l2.165,6.6816c.2314,.7158,.5312,1.1396,.8975,1.2725,.5713,.21,1.4414,.126,2.6123-.2539,1.7012-.5508,3.1553-1.4229,4.3613-2.6172,.4619-.46,.8496-.7422,1.1641-.8438,.4336-.1406,.8623-.0996,1.2881,.1221,.4248,.2207,.7129,.5654,.8643,1.0312,.1406,.4336,.0879,.8633-.1572,1.29-.3662,.6816-1.2627,1.4902-2.6895,2.4258-1.4277,.9355-2.6777,1.5771-3.751,1.9248-2.0703,.6709-3.7676,.7275-5.0928,.168-1.3242-.5586-2.1973-1.4883-2.6191-2.7891l-2.376-7.332-1.2031,.3896c-.8018,.2607-1.4238,.291-1.8652,.0928s-.7432-.5469-.9043-1.0449c-.1582-.4883-.1162-.9414,.125-1.3613,.2412-.4189,.7627-.7588,1.5645-1.0186l1.2031-.3906-.9746-3.0068c-.2598-.8027-.291-1.4238-.0928-1.8662,.1982-.4414,.5469-.7422,1.0459-.9043,.4873-.1582,.9414-.1162,1.3604,.125,.4199,.2412,.7598,.7627,1.0195,1.5654l.9746,3.0068,6.1611-1.9961c.8027-.2598,1.4238-.291,1.8652-.0928,.4424,.1982,.7432,.5469,.9053,1.0459,.1582,.4873,.1162,.9404-.125,1.3604s-.7627,.7598-1.5654,1.0195l-6.1611,1.9961Z"/><path d="M905.1816,16.2281l2.416,11.7695,4.1182-.8457c.8252-.1699,1.4473-.1318,1.8643,.1143s.6777,.626,.7832,1.1396c.1025,.502,.0117,.9482-.2754,1.3379-.2861,.3906-.8418,.6709-1.668,.8398l-11.668,2.3955c-.8262,.1689-1.4473,.1309-1.8643-.1152-.417-.2451-.6777-.625-.7832-1.1387-.1035-.502-.0117-.9482,.2744-1.3389,.2861-.3896,.8428-.6699,1.668-.8389l4.1191-.8457-1.7119-8.3369-2.7617,.5674c-.8154,.167-1.4336,.1279-1.8564-.1172-.4219-.2441-.6855-.623-.791-1.1367-.1035-.502-.0117-.9482,.2744-1.3389s.8418-.6699,1.668-.8398l6.1943-1.2715Zm-1.8057-6.416l.7461,3.6328-4.085,.8389-.7461-3.6328,4.085-.8389Z"/><path d="M927.3193,24.5435l3.1621-8.0293c-.9316,.0732-1.5342,.04-1.8076-.0986-.5957-.3076-.9189-.791-.9697-1.4502-.04-.5107,.1064-.9424,.4385-1.2939,.333-.3516,.9189-.5605,1.7598-.626l4.7881-.373c.8398-.0654,1.4521,.0498,1.835,.3457s.5947,.7051,.6357,1.2275c.04,.5107-.1064,.9424-.4395,1.2939-.332,.3516-.9189,.5605-1.7588,.626l-.5801,.0449-4.9102,12.4336-3.6455,.2842-6.7783-11.5225-.4941,.0391c-.8408,.0654-1.4521-.0498-1.835-.3457-.3838-.2959-.5957-.7051-.6357-1.2275-.04-.5107,.1064-.9424,.4385-1.2939,.333-.3516,.9189-.5605,1.7598-.626l4.6855-.3652c.8291-.0645,1.4355,.0508,1.8184,.3467s.5947,.7051,.6357,1.2275c.0508,.6475-.1836,1.1631-.7021,1.5459-.2598,.1914-.8604,.3242-1.8037,.3975l4.4033,7.4395Z"/><path d="M951.4277,13.1676l-.6904,11.9941,4.1963,.2422c.8418,.0479,1.4326,.2451,1.7725,.5898s.4941,.7783,.4639,1.3018c-.0293,.5117-.2324,.9199-.6094,1.2227-.377,.3037-.9863,.4316-1.8281,.3828l-11.8916-.6846c-.8418-.0488-1.4326-.2461-1.7725-.5908-.3389-.3447-.4941-.7783-.4639-1.3018,.0293-.5117,.2324-.9199,.6094-1.2227,.377-.3037,.9863-.4316,1.8281-.3828l4.1973,.2422,.4893-8.4971-2.8145-.1621c-.8311-.0479-1.4189-.2441-1.7637-.5898-.3457-.3447-.5029-.7793-.4727-1.3027,.0293-.5117,.2324-.9189,.6094-1.2227s.9863-.4307,1.8281-.3828l6.3125,.3643Zm-.0947-6.665l-.2139,3.7031-4.1631-.2402,.2139-3.7021,4.1631,.2393Z"/><path d="M971.2861,19.3013l-1.3906,6.8848c-.1494,.7363-.0967,1.2529,.1572,1.5488,.3945,.4629,1.1953,.8164,2.4014,1.0605,1.7529,.3535,3.4482,.3066,5.084-.1416,.6289-.1748,1.1045-.2295,1.4287-.1641,.4463,.0898,.8008,.3359,1.0625,.7373s.3438,.8428,.2471,1.3232c-.0898,.4463-.3467,.7959-.7695,1.0469-.6533,.415-1.8311,.6797-3.5342,.7939-1.7031,.1152-3.1074,.0615-4.2129-.1621-2.1328-.4307-3.6396-1.2148-4.5195-2.3516-.8809-1.1367-1.1855-2.375-.915-3.7158l1.5273-7.5547-1.2402-.25c-.8262-.167-1.3828-.4453-1.6709-.835-.2871-.3896-.3789-.8408-.2754-1.3545,.1016-.5029,.3604-.877,.7764-1.125,.416-.2471,1.0371-.2871,1.8643-.1201l1.2393,.251,.626-3.0996c.167-.8262,.4453-1.3828,.835-1.6709,.3887-.2871,.8408-.3789,1.3545-.2754,.502,.1016,.877,.3604,1.124,.7764,.248,.416,.2881,1.0381,.1211,1.8643l-.627,3.0986,6.3496,1.2832c.8262,.167,1.3828,.4453,1.6709,.834,.2871,.3896,.3789,.8418,.2754,1.3545-.1016,.5029-.3604,.8779-.7764,1.125-.417,.2471-1.0381,.2871-1.8643,.1201l-6.3486-1.2822Z"/><path d="M988.2422,36.2008l-1.585-13.2578c-.5117-.2607-.8506-.5918-1.0186-.9941-.168-.4014-.1729-.8164-.0156-1.2441,.1807-.4912,.4961-.8281,.9453-1.0088s1.0684-.125,1.8604,.166l2.999,1.1035c.791,.291,1.2988,.6514,1.5234,1.0801s.2461,.8887,.0654,1.3809c-.1768,.4814-.4902,.8115-.9385,.9932-.4492,.1807-1.0371,.1367-1.7646-.1309l1.1006,8.9824,6.6299-6.1367c-.7061-.2598-1.1709-.6045-1.3955-1.0332s-.2461-.8887-.0654-1.3809c.1768-.4805,.4902-.8115,.9395-.9922,.4482-.1807,1.0684-.126,1.8604,.165l3.0947,1.1396c.7803,.2871,1.2832,.6455,1.5078,1.0742s.2461,.8887,.0654,1.3809c-.1611,.4385-.4424,.7568-.8428,.9551-.4014,.1982-.8926,.2148-1.4756,.0488l-13.0039,12.0771c.8232,.3027,1.334,.5811,1.5312,.8359,.3916,.5205,.4746,1.0859,.251,1.6953-.1777,.4805-.4902,.8115-.9395,.9922-.4492,.1816-1.0693,.126-1.8604-.165l-7.1689-2.6387c-.791-.291-1.2988-.6514-1.5234-1.0801s-.249-.8838-.0713-1.3643c.1807-.4922,.4961-.8281,.9443-1.0098,.4492-.1807,1.0693-.125,1.8604,.166l3.2715,1.2041,3.2188-3.0039Z"/><path d="M1046.5283,42.189l-9.9902,15.7627,.5059,.3203c.7021,.4453,1.1201,.9023,1.2549,1.3721,.1338,.4688,.0605,.9258-.2197,1.3682-.2744,.4326-.6504,.6904-1.127,.7725-.4775,.082-1.0723-.1025-1.7842-.5537l-3.4639-2.1953,.457-.7217c-.9238-.0322-1.8174-.1816-2.6816-.4453-.8643-.2646-1.6914-.6475-2.4805-1.1475-2.2227-1.4092-3.6055-3.1855-4.1484-5.3301s-.207-4.1748,1.0068-6.0898c1.2686-2.001,3.0635-3.2578,5.3838-3.7705,2.3203-.5117,4.5059-.1182,6.5557,1.1807,.7705,.4883,1.4502,1.085,2.042,1.79,.5918,.7061,1.0996,1.5225,1.5225,2.4521l2.333-3.6816-.5059-.3203c-.7119-.4512-1.1328-.9102-1.2617-1.376-.1299-.4668-.0566-.916,.2178-1.3496,.2803-.4424,.6592-.7051,1.1357-.7871,.4775-.082,1.0713,.1025,1.7842,.5537l3.4639,2.1963Zm-10.918,10.6826c.7744-1.2217,1.002-2.5283,.6816-3.918-.3193-1.3896-1.0996-2.4775-2.3418-3.2646-1.2314-.7803-2.5439-1.0186-3.9375-.7148-1.3926,.3037-2.4678,1.0527-3.2236,2.2461-.6895,1.0879-.8701,2.2236-.542,3.4092,.3271,1.1865,1.1934,2.2236,2.5986,3.1143,1.3955,.8848,2.7041,1.2246,3.9258,1.0215,1.2217-.2041,2.168-.835,2.8389-1.8936Z"/><path d="M1056.0244,56.2779l-6.459,10.1309,3.5449,2.2598c.7109,.4531,1.1299,.9131,1.2578,1.3799,.1289,.4668,.0518,.9209-.2305,1.3633-.2754,.4316-.6514,.6885-1.1289,.7695s-1.0713-.1055-1.7822-.5586l-10.0439-6.4043c-.7109-.4531-1.1299-.9131-1.2578-1.3799s-.0518-.9209,.2305-1.3623c.2754-.4326,.6514-.6895,1.1289-.7705,.4775-.0801,1.0713,.1055,1.7822,.5586l3.5449,2.2607,4.5752-7.1768-2.377-1.5156c-.7021-.4473-1.1191-.9053-1.252-1.375s-.0586-.9258,.2236-1.3682c.2754-.4316,.6523-.6885,1.1289-.7695,.4775-.0811,1.0713,.1055,1.7822,.5586l5.332,3.3994Zm3.1699-5.8623l-1.9932,3.127-3.5166-2.2422,1.9941-3.127,3.5156,2.2422Z"/><path d="M1068.5322,81.6763l.3965-.7188c-.9941-.0137-2.0117-.1748-3.0518-.4814-1.041-.3066-1.9404-.6689-2.6992-1.0869-1.6465-.9072-2.7432-2.0811-3.2891-3.5205-.5469-1.4395-.5293-2.6875,.0537-3.7451,.71-1.2871,2.0244-2.1211,3.9443-2.501,1.9189-.3789,4.0361,.0693,6.3516,1.3447,.9277,.5117,1.9453,1.2021,3.0537,2.0723l.4033-.7334c.2529-.459,.2627-.9414,.0273-1.4482-.2344-.5068-.9053-1.0645-2.0127-1.6748-.9082-.501-2.1846-.9697-3.8301-1.4082-.6104-.167-1.0645-.333-1.3643-.498-.4092-.2256-.6748-.5635-.7969-1.0146s-.0566-.9062,.1963-1.3652c.1426-.2598,.3164-.457,.5205-.5908,.2041-.1348,.4277-.21,.6709-.2256s.6924,.0527,1.3496,.207c.873,.208,1.7393,.4668,2.5957,.7764,.8574,.3096,1.6055,.6406,2.2441,.9922,1.9053,1.0508,3.1582,2.2773,3.7568,3.6807,.5996,1.4033,.5059,2.8184-.2803,4.2451l-3.4805,6.3164,.5234,.2891c.7383,.4072,1.1865,.8389,1.3438,1.2969,.1582,.457,.1104,.916-.1426,1.375-.2471,.4492-.6064,.7285-1.0781,.8398-.4707,.1113-1.0752-.0361-1.8135-.4434l-3.5928-1.9795Zm3.0273-5.4932c-1.0957-.916-2.1621-1.6602-3.2002-2.2314-1.2471-.6875-2.4873-.9736-3.7207-.8604-.7734,.0811-1.2705,.3213-1.4902,.7207-.1592,.2891-.1533,.5977,.0166,.9258,.3174,.6045,.9102,1.1455,1.7783,1.624,.7383,.4072,1.6543,.7227,2.7471,.9473,1.0918,.2256,2.1396,.2891,3.1436,.1914l.7256-1.3174Z"/><path d="M1096.0166,78.566l.4043-.96,3.7803,1.5908c.7764,.3271,1.2676,.71,1.4727,1.1484s.2051,.8994,.002,1.3828c-.1992,.4727-.5264,.7891-.9834,.9482-.457,.1602-1.0742,.0771-1.8506-.25l-.5518-.2324-4.9463,11.75c-.4775,1.1338-1.1338,2.0234-1.9668,2.668-.834,.6436-1.8721,1.0625-3.1162,1.2559-1.2432,.1934-2.4844,.0293-3.7236-.4922l-3.6543-1.5381c-.7764-.3271-1.2676-.71-1.4727-1.1484-.2041-.4385-.207-.8945-.0088-1.3672,.2041-.4824,.5342-.8047,.9902-.9639,.457-.1602,1.0742-.0771,1.8506,.25l3.5605,1.499c.9863,.415,1.8662,.4707,2.6377,.165,.7705-.3057,1.3291-.8682,1.6738-1.6875l.6631-1.5752c-.9082,.1621-1.7812,.2021-2.6191,.1211-.8369-.0801-1.6445-.2842-2.4219-.6113-2.1943-.9238-3.7236-2.4297-4.5879-4.5186-.8633-2.0879-.8428-4.208,.0645-6.3604,.9102-2.1631,2.4141-3.666,4.5117-4.5078,2.0967-.8408,4.2432-.7998,6.4375,.124,.8193,.3447,1.5488,.791,2.1895,1.3389,.6416,.5479,1.1963,1.2051,1.665,1.9707Zm-2.6221,6.1836c.499-1.1865,.4941-2.3994-.0156-3.6406-.5098-1.2402-1.3789-2.1191-2.6074-2.6367s-2.4648-.5244-3.709-.0225c-1.2432,.5029-2.1152,1.3467-2.6143,2.5332-.5039,1.1973-.5,2.4141,.0117,3.6494s1.3828,2.1113,2.6113,2.6289c1.2285,.5166,2.4629,.5273,3.7051,.0303,1.2412-.498,2.1143-1.3447,2.6182-2.542Z"/><path d="M1112.7246,83.1998l-.6133,2.0996c1.708-.6045,3.0186-.958,3.9326-1.0586,.9131-.1006,1.7256-.0479,2.4365,.1602,1.0938,.3193,2.0361,1.0342,2.8281,2.1436,.54,.751,.7275,1.4111,.5615,1.9795-.1406,.4814-.4268,.8398-.8574,1.0762-.4316,.2363-.8818,.2852-1.3525,.1484-.415-.1221-.792-.457-1.1299-1.0068s-.6875-.8779-1.0479-.9834c-.4707-.1367-1.2598-.0469-2.3672,.2705s-2.5342,.8623-4.2783,1.6348l-1.4814,5.0684,4.79,1.3994c.8096,.2363,1.3408,.5605,1.5947,.9727,.2529,.4131,.3066,.8711,.1592,1.373-.1436,.4922-.4336,.8438-.8691,1.0557-.4355,.2109-1.0576,.1982-1.8672-.0381l-10.1543-2.9668c-.8086-.2363-1.3398-.5605-1.5938-.9727-.2529-.4131-.3066-.8701-.1592-1.373,.1436-.4922,.4326-.8438,.8682-1.0557,.4355-.2109,1.0586-.1982,1.8672,.0381l2.002,.585,2.3867-8.1689-1.2139-.3545c-.8096-.2373-1.3408-.5615-1.5947-.9736-.2529-.4121-.3066-.8701-.1592-1.373,.1436-.4922,.4326-.8438,.8682-1.0547s1.0586-.1982,1.8682,.0381l4.5762,1.3369Z"/><path d="M1135.0273,104.1588l.1416-.8086c-.9453,.3096-1.959,.4873-3.043,.5352-1.084,.0469-2.0527-.0039-2.9053-.1533-1.8516-.3242-3.2695-1.0781-4.2539-2.2627-.9844-1.1836-1.3721-2.3711-1.1641-3.5605,.2539-1.4473,1.2266-2.6621,2.9199-3.6445,1.6924-.9814,3.8408-1.2451,6.4443-.7891,1.0439,.1826,2.2305,.5059,3.5605,.9697l.1445-.8242c.0898-.5166-.0576-.9756-.4443-1.3789s-1.2021-.7139-2.4482-.9316c-1.0215-.1787-2.3809-.209-4.0781-.0898-.6318,.04-1.1162,.0303-1.4531-.0283-.46-.0801-.8213-.3145-1.083-.7012s-.3477-.8389-.2568-1.3555c.0508-.291,.1514-.5342,.3008-.7275s.3369-.3369,.5615-.4307,.6719-.1748,1.3428-.2422c.8945-.0869,1.7969-.1221,2.708-.1074s1.7266,.085,2.4443,.2109c2.1436,.375,3.7266,1.1289,4.748,2.2627,1.0225,1.1328,1.3926,2.502,1.1123,4.1064l-1.2441,7.1035,.5898,.1035c.8301,.1455,1.3945,.4092,1.6914,.791,.2979,.3818,.4014,.8301,.3115,1.3467-.0889,.5049-.3379,.8867-.7471,1.1445s-1.0293,.3145-1.8604,.1689l-4.04-.707Zm1.0811-6.1787c-1.333-.5107-2.583-.8682-3.75-1.0723-1.4033-.2461-2.6699-.1143-3.7988,.3936-.7061,.3271-1.0977,.7158-1.1758,1.165-.0566,.3252,.0479,.6152,.3164,.8701,.4961,.4688,1.2324,.7881,2.209,.959,.8301,.1455,1.7979,.1475,2.9043,.0059s2.1182-.4219,3.0361-.8398l.2588-1.4814Z"/><path d="M1150.8398,90.566l-.0664,.9883c.6055-.5186,1.1455-.8682,1.6201-1.0479,.4746-.1787,1.0127-.249,1.6152-.208,.5117,.0342,1.0088,.1934,1.4932,.4766,.4834,.2832,.9463,.6914,1.3906,1.2236,.6357-.46,1.2715-.791,1.9082-.9941,.6357-.2031,1.2773-.2832,1.9258-.2393,1.2959,.0869,2.3242,.5039,3.085,1.251,1.0068,.9814,1.4619,2.2109,1.3633,3.6885l-.5244,7.8262c.7275,.0488,1.2568,.25,1.5869,.6035s.4785,.7852,.4443,1.2969-.2393,.918-.6133,1.2178c-.374,.3008-.9814,.4229-1.8223,.3662l-3.3252-.2227,.7383-11.0322c.0361-.5342-.0361-.9102-.2158-1.1279s-.4678-.3398-.8662-.3662c-.3857-.0254-.751,.0527-1.0947,.2354-.4395,.2559-.9863,.7559-1.6416,1.5l-.4717,7.042c.7275,.0488,1.2568,.25,1.5869,.6035s.4785,.7852,.4443,1.2969-.2383,.918-.6123,1.2178c-.375,.3008-.9824,.4229-1.8232,.3662l-3.3252-.2227,.7383-11.0322c.0352-.5225-.04-.8965-.2246-1.1201s-.4766-.3486-.874-.375c-.4092-.0273-.8213,.0732-1.2363,.3027-.415,.2285-.9268,.7061-1.5342,1.4297l-.4717,7.043c.7275,.0479,1.2598,.25,1.5957,.6035s.4863,.7861,.4521,1.2979c-.0342,.5107-.2412,.917-.6211,1.2168s-.9902,.4219-1.8311,.3652l-3.1553-.2109c-.8408-.0566-1.4297-.2588-1.7656-.6064-.3369-.3477-.4873-.7832-.4521-1.3057,.0342-.5117,.2383-.918,.6123-1.2188,.374-.2998,.9307-.4258,1.6689-.376l.5693-8.4922c-.7393-.0488-1.2744-.25-1.6045-.6035s-.4785-.7861-.4443-1.2969c.0352-.5117,.2422-.918,.6211-1.2178,.3799-.2998,.9902-.4219,1.832-.3652l3.3252,.2227Z"/></g></svg>