<?xml version="1.0" encoding="UTF-8"?><svg id="Layer_1" xmlns="http://www.w3.org/2000/svg" width="294" height="120.2625" viewBox="0 0 294 120.2625"><defs><style>.cls-1{fill:none;stroke:#000;stroke-linecap:round;stroke-linejoin:round;stroke-width:5px;}</style></defs><g><path class="cls-1" d="M163.5458,55.448c-4.6666-3-9.3334-6-14-9l-27.9231,.1538v18.8462h-9.0769l9.0769,50.5993h82.9231V55.3016c-13.6666,.0488-27.3334,.0976-41,.1464Z"/><polyline class="cls-1" points="204.6227 116.0473 195.5458 65.448 121.6227 65.448"/></g><g><path d="M125.2051,11.429l-3.7988,.8418-.1699,1.0376,.3818-.0845c.376-.083,.6602-.0703,.8525,.0391,.1924,.1099,.3145,.2812,.3662,.5151,.0508,.229,.0117,.4336-.1162,.6138-.1279,.1807-.3799,.3125-.7568,.396l-2.1045,.4663c-.377,.0835-.6611,.0703-.8535-.0391-.1914-.1094-.3135-.2812-.3662-.5151-.0518-.2339-.0098-.4429,.125-.6279,.1357-.1846,.3975-.3145,.7861-.3901l1.1006-6.6611-1.0225,.2266c-.376,.083-.6602,.0703-.8525-.0396-.1924-.1094-.3145-.2808-.3662-.5146s-.0137-.4414,.1143-.6216c.1279-.1807,.3809-.3125,.7568-.3955l3.3809-.7412,4.8135,6.9912c.3662-.0811,.6172-.0938,.752-.0386,.2705,.1162,.4365,.3115,.498,.5859,.0508,.229,.0127,.4331-.1123,.6133-.126,.1797-.377,.311-.7529,.3945l-2.1055,.4663c-.376,.0835-.6602,.0708-.8525-.0391-.1924-.1094-.3145-.2808-.3662-.5146-.0508-.229-.0117-.4336,.1162-.6138,.1279-.1807,.3799-.3125,.7568-.396l.3809-.0845-.585-.8706Zm-.9951-1.4199l-1.9443-2.8179-.5801,3.3774,2.5244-.5596Z"/><path d="M135.375,5.989c.1787-.1968,.3682-.3027,.5713-.3188,.2285-.0176,.4229,.0493,.584,.2012,.1602,.1519,.2559,.4175,.2852,.7964l.0811,1.0283c.0293,.3843-.0234,.6626-.1582,.835-.1357,.1729-.3223,.2686-.5615,.2871-.2178,.0171-.4072-.0308-.5674-.1436-.1162-.085-.2168-.269-.3018-.5522-.085-.2837-.2529-.4858-.502-.6074-.4404-.2163-.9873-.2988-1.6416-.2476-.7529,.0586-1.3398,.3267-1.7598,.8037s-.6025,1.0527-.5498,1.728c.0488,.623,.3047,1.0977,.7695,1.4248,.4648,.3267,1.2031,.4502,2.2158,.3711,.6641-.0522,1.2012-.1621,1.6113-.3301,.2432-.1025,.4678-.2627,.6758-.48s.4023-.333,.584-.3472c.2178-.0171,.4131,.0488,.584,.1973s.2646,.3315,.2822,.5498c.0273,.353-.1885,.707-.6465,1.0615-.6797,.5283-1.71,.8467-3.0908,.9551-1.2412,.0972-2.2266-.0845-2.958-.5444-.9883-.6172-1.5293-1.5259-1.624-2.7251-.0889-1.1372,.2168-2.1079,.917-2.9126,.6992-.8042,1.6592-1.2544,2.8799-1.3501,.4414-.0342,.8545-.0249,1.2402,.0283,.3857,.0537,.7451,.1509,1.0801,.2915Z"/><path d="M142.9268,7.2712l-.1084,3.209c-.0117,.3438,.0518,.5723,.1885,.6865,.2129,.1792,.5996,.2783,1.1621,.2974,.8174,.0273,1.5781-.1216,2.2822-.4468,.2695-.1265,.4805-.187,.6309-.1821,.209,.0073,.3867,.0913,.5352,.2529,.1484,.1611,.2188,.354,.2109,.5776-.0068,.208-.0967,.3848-.2676,.5303-.2637,.2358-.7744,.4443-1.5342,.6245-.7588,.1802-1.3965,.2612-1.9111,.2441-.9941-.0337-1.7334-.2734-2.2158-.7197s-.7129-.9819-.6924-1.6064l.1191-3.5215-.5781-.0195c-.3848-.0127-.6572-.0962-.8154-.25-.1592-.1543-.2344-.3506-.2266-.5903,.0078-.2339,.0967-.4229,.2656-.5654,.1689-.1431,.4453-.2075,.8311-.1948l.5781,.0195,.0479-1.4443c.0137-.3853,.0967-.6572,.251-.8164,.1533-.1587,.3506-.2344,.5898-.2261,.2344,.0078,.4229,.0962,.5654,.2651s.208,.4463,.1953,.8311l-.0488,1.4448,2.959,.0996c.3848,.0132,.6572,.0967,.8164,.2505,.1582,.1538,.2344,.3506,.2256,.5898-.0078,.2344-.0957,.4229-.2646,.5659-.1689,.1426-.4463,.2075-.832,.1948l-2.959-.1001Z"/><path d="M154.5605,6.6169l-.6768,5.4507,1.9072,.2368c.3828,.0474,.6465,.1548,.791,.3223s.2021,.3706,.1729,.6079c-.0293,.2329-.1348,.4126-.3154,.5396s-.4629,.167-.8457,.1196l-5.4033-.6714c-.3828-.0474-.6465-.1548-.791-.3223s-.2021-.3701-.1719-.6079c.0283-.2324,.1338-.4126,.3145-.5396,.1816-.127,.4629-.167,.8457-.1196l1.9072,.2373,.4795-3.8613-1.2793-.1587c-.377-.0469-.6396-.1543-.7871-.3223-.1465-.1675-.2051-.3706-.1758-.6084,.0283-.2324,.1338-.4121,.3145-.5396,.1816-.127,.4629-.1665,.8457-.1191l2.8682,.356Zm.1582-3.0425l-.209,1.6821-1.8916-.2349,.209-1.6821,1.8916,.2349Z"/><path d="M163.0107,13.2336l2.3857-3.1416c-.4189-.0835-.6797-.1724-.7832-.2671-.2236-.2095-.3066-.4619-.2471-.7583,.0449-.23,.1631-.4019,.3525-.5151,.1904-.1138,.4746-.1328,.8525-.0576l2.1533,.4282c.3779,.0757,.6328,.2017,.7646,.3794s.1738,.3843,.1279,.6191c-.0459,.2295-.1641,.4014-.3535,.5151-.1904,.1133-.4746,.1323-.8525,.0571l-.2598-.0518-3.7002,4.8638-1.6396-.3262-1.5566-5.9097-.2217-.0444c-.3789-.0752-.6338-.2017-.7656-.3794-.1318-.1772-.1738-.3838-.1279-.6187,.0459-.23,.1641-.4014,.3535-.5151,.1904-.1138,.4746-.1328,.8525-.0576l2.1064,.4194c.373,.0742,.626,.2002,.7578,.3779,.1318,.1772,.1738,.3838,.1279,.6187-.0586,.291-.2256,.4888-.501,.5933-.1377,.0522-.4189,.0361-.8428-.0479l1.0166,3.8184Z"/><path d="M174.8301,10.7112l-1.3936,5.3125,1.8584,.4878c.373,.0977,.6201,.2393,.7412,.4243,.1211,.1855,.1514,.394,.0898,.6255-.0596,.2271-.1875,.3911-.3838,.4932s-.4805,.104-.8535,.0063l-5.2666-1.3818c-.373-.0977-.6201-.2393-.7412-.4248-.1211-.1851-.1514-.3936-.0898-.625,.0586-.2271,.1865-.3911,.3838-.4932,.1963-.1021,.4805-.104,.8535-.0063l1.8584,.4878,.9873-3.7632-1.2471-.3271c-.3672-.0967-.6133-.2378-.7363-.4233-.124-.186-.1553-.395-.0947-.6265,.0596-.2271,.1875-.3911,.3838-.4932s.4814-.104,.8545-.0063l2.7959,.7334Zm.5596-2.9951l-.4307,1.6401-1.8438-.4839,.4307-1.6396,1.8438,.4834Z"/><path d="M183.0283,14.7668l-.9688,3.061c-.1035,.3281-.1045,.5649-.0039,.7119,.1572,.23,.5039,.4297,1.04,.5991,.7793,.2466,1.5518,.3081,2.3184,.1846,.2939-.0493,.5127-.0508,.6572-.0054,.1982,.063,.3467,.1919,.4463,.3872s.1152,.3999,.0479,.6133c-.0625,.1987-.1963,.3447-.4004,.4385-.3174,.1567-.8662,.2192-1.6455,.1885-.7803-.0308-1.415-.124-1.9072-.2798-.9482-.2998-1.5947-.7295-1.9395-1.2896-.3447-.5596-.4229-1.1372-.2344-1.7334l1.0635-3.3594-.5518-.1743c-.3672-.1162-.6064-.2695-.7188-.4609-.1113-.1909-.1309-.4004-.0586-.6289,.0703-.2236,.2061-.3813,.4072-.4731,.2012-.0923,.4854-.0801,.8535,.0361l.5508,.1743,.4365-1.3779c.1162-.3672,.2695-.6069,.4609-.7188,.1904-.1118,.4004-.1313,.6289-.0591,.2236,.0708,.3809,.2065,.4727,.4077,.0928,.2012,.0801,.4858-.0361,.853l-.4355,1.3779,2.8232,.8936c.3672,.1162,.6064,.2695,.7188,.4604,.1113,.1914,.1309,.4009,.0586,.6294-.0703,.2236-.207,.3813-.4082,.4731-.2012,.0923-.4854,.0801-.8525-.0361l-2.8232-.8931Z"/><path d="M190.3301,22.9626l-.7598-6.0566c-.2344-.1177-.3896-.2686-.4678-.4517s-.0811-.3726-.0107-.5684c.082-.2256,.2246-.3799,.4297-.4639s.4883-.0601,.8506,.0708l1.374,.4971c.3623,.1309,.5957,.2939,.6992,.4893,.1045,.1958,.1152,.4062,.0342,.6313-.0801,.2202-.2227,.3726-.4268,.4561-.2051,.084-.4736,.0654-.8066-.0547l.5264,4.103,3.0146-2.8228c-.3232-.1167-.5371-.2729-.6406-.4683s-.1152-.4058-.0332-.6309c.0791-.2207,.2217-.3726,.4268-.4565,.2041-.0835,.4883-.0601,.8506,.0708l1.418,.5127c.3574,.1294,.5879,.292,.6914,.4873,.1045,.1953,.1152,.4058,.0342,.6309-.0732,.2012-.2002,.3472-.3838,.439-.1826,.0918-.4072,.1006-.6738,.0264l-5.9131,5.5547c.377,.1362,.6113,.2622,.7021,.3784,.1807,.2368,.2197,.4946,.1191,.7739-.0801,.2202-.2217,.3726-.4268,.4565-.2051,.0835-.4883,.0601-.8506-.0713l-3.2842-1.1875c-.3623-.1309-.5957-.2939-.6992-.4897-.1045-.1953-.1162-.4028-.0361-.6235,.0811-.2251,.2246-.3799,.4287-.4634,.2051-.084,.4883-.0605,.8516,.0708l1.498,.542,1.4639-1.3818Z"/><path d="M217.1777,23.2439l-3.6885,7.6929,.2461,.1182c.3428,.1646,.5576,.3496,.6436,.5557,.0859,.2056,.0771,.4165-.0264,.6328-.1006,.2114-.2578,.3481-.4697,.4111s-.4922,.0112-.8398-.1553l-1.6904-.811,.1689-.3521c-.4209,.0352-.835,.0156-1.2412-.0581-.4072-.0737-.8027-.2026-1.1875-.3872-1.085-.5205-1.8086-1.2524-2.1699-2.1973-.3613-.9443-.3184-1.8838,.1299-2.8184,.4678-.9771,1.2158-1.644,2.2412-2.001,1.0264-.3569,2.04-.2959,3.04,.1836,.376,.1802,.7168,.4146,1.0234,.7031,.3057,.2886,.5801,.6323,.8223,1.0312l.8613-1.7964-.2461-.1182c-.3477-.167-.5635-.3525-.6475-.5571-.084-.2051-.0752-.4131,.0264-.6245,.1035-.2158,.2617-.3555,.4736-.4185,.2119-.0625,.4922-.0107,.8398,.1558l1.6904,.8105Zm-4.3828,5.4365c.2861-.5962,.3193-1.2017,.0996-1.8154-.2207-.6133-.6328-1.0654-1.2393-1.356-.6006-.2886-1.21-.3262-1.8252-.1133-.6162,.2129-1.0645,.6108-1.3438,1.1929-.2539,.5308-.2754,1.0566-.0625,1.5771,.2119,.5205,.6611,.9453,1.3467,1.2739,.6816,.3267,1.2939,.4111,1.8369,.2529,.5439-.1582,.9395-.4956,1.1875-1.0122Z"/><path d="M222.4053,29.5266l-2.6719,4.7988,1.6797,.9346c.3369,.1875,.541,.3862,.6123,.5957,.0703,.2095,.0479,.4189-.0684,.6284-.1143,.2046-.2793,.332-.4941,.3818-.2158,.0498-.4922-.019-.8291-.2065l-4.7578-2.6484c-.3369-.1875-.54-.3857-.6113-.5952s-.0488-.4189,.0674-.6284c.1143-.2046,.2793-.332,.4951-.3818,.2148-.0498,.4912,.0186,.8281,.2061l1.6797,.9351,1.8916-3.3994-1.126-.627c-.332-.1851-.5352-.3828-.6084-.5938s-.0518-.4209,.0645-.6299c.1143-.2051,.2793-.3325,.4941-.3823,.2158-.0498,.4922,.019,.8291,.2065l2.5254,1.4058Zm1.2871-2.7617l-.8252,1.4814-1.665-.9272,.8242-1.4814,1.666,.9272Z"/><path d="M227.9658,41.1628l.2002-.3164c-.4531-.0347-.9121-.1367-1.3789-.3062-.4658-.1694-.8662-.3604-1.2002-.5723-.7256-.4609-1.1924-1.0273-1.4014-1.6992-.209-.6724-.165-1.2417,.1309-1.7075,.3604-.5674,.9834-.9106,1.8701-1.0293s1.8398,.1455,2.8604,.793c.4092,.2598,.8535,.6035,1.334,1.0322l.2051-.3232c.1289-.2021,.1465-.4224,.0537-.6602s-.3828-.5117-.8711-.8213c-.4004-.2539-.9697-.5044-1.707-.7505-.2744-.0938-.4766-.1826-.6084-.2661-.1807-.1147-.292-.2764-.335-.4858-.043-.209-.001-.4146,.1279-.6172,.0723-.1143,.1572-.1992,.2539-.2549,.0977-.0557,.2012-.0835,.3125-.084,.1113,0,.3145,.0439,.6104,.1328,.3926,.1196,.7803,.2622,1.1621,.4277,.3828,.1655,.7139,.3379,.9961,.5166,.8398,.5327,1.376,1.1279,1.6104,1.7856,.2334,.6572,.1504,1.3003-.249,1.9287l-1.7666,2.7837,.2305,.1465c.3262,.2065,.5176,.4165,.5771,.6299,.0586,.2129,.0244,.4209-.1045,.623-.125,.1978-.2969,.3154-.5156,.353-.2178,.0371-.4893-.0474-.8145-.2539l-1.583-1.0049Zm1.5361-2.4204c-.4736-.4492-.9395-.8188-1.3965-1.1089-.5498-.3491-1.1074-.5146-1.6738-.498-.3555,.0151-.5889,.1108-.7002,.2866-.0811,.1279-.0869,.2686-.0186,.4233,.1279,.2847,.3828,.5483,.7656,.791,.3252,.2065,.7334,.377,1.2256,.5103s.9688,.1919,1.4297,.1758l.3682-.5801Z"/><path d="M240.2236,41.5696l.2773-.3872,1.5244,1.0928c.3125,.2246,.4932,.4448,.5391,.6611,.0469,.2163,.001,.4219-.1387,.6167-.1367,.1904-.3154,.2979-.5352,.3228-.2197,.0254-.4863-.0747-.7988-.2993l-.2227-.1592-3.3965,4.7358c-.3281,.457-.7109,.7866-1.1475,.9893-.4375,.2026-.9424,.2837-1.5166,.2441-.5732-.04-1.1104-.2393-1.6094-.5972l-1.4727-1.0566c-.3135-.2246-.4932-.4453-.54-.6611-.0469-.2163-.002-.4199,.1348-.6104,.1396-.1948,.3193-.3042,.5391-.3296,.2197-.0249,.4863,.0752,.7988,.2998l1.4355,1.0288c.3975,.2856,.7842,.3994,1.1582,.3413,.375-.0581,.6816-.252,.918-.582l.4551-.6348c-.4209-.0205-.8145-.0908-1.1797-.2119s-.7041-.2935-1.0176-.5181c-.8848-.6348-1.4131-1.4609-1.5859-2.4795-.1738-1.0186,.0508-1.9614,.6729-2.8291,.626-.8716,1.4482-1.3887,2.4688-1.5513,1.0205-.1621,1.9727,.0737,2.8574,.708,.3301,.2368,.6094,.5098,.8398,.8193,.2305,.3091,.4111,.6582,.542,1.0474Zm-1.7959,2.4902c.3428-.4785,.4639-1.02,.3623-1.6245-.1016-.605-.3994-1.085-.8945-1.4399s-1.0459-.4839-1.6514-.3862c-.6055,.0981-1.0791,.3857-1.4219,.8643-.3467,.4824-.4678,1.0249-.3652,1.6274s.4023,1.0815,.8975,1.437c.4951,.355,1.0449,.4849,1.6484,.3892s1.0791-.3848,1.4248-.8672Z"/><path d="M246.998,46.177l-.6279,.7783c.8271,.0449,1.4424,.126,1.8457,.2441s.7373,.2832,1.001,.4956c.4053,.3271,.6777,.7944,.8164,1.4019,.0957,.4121,.0586,.7231-.1113,.9341-.1436,.1782-.3271,.2793-.5508,.3032s-.4219-.0342-.5967-.1748c-.1543-.1245-.2539-.332-.2998-.6235s-.1357-.4912-.2695-.5991c-.1748-.1406-.5234-.2412-1.0469-.3018-.5225-.061-1.2207-.0815-2.0928-.0625l-1.5156,1.8789,1.7754,1.4326c.3008,.2417,.4678,.4722,.502,.6909,.0352,.2183-.0234,.4209-.1738,.6074-.1475,.1821-.3311,.2798-.5518,.2925-.2207,.0122-.4814-.1025-.7812-.3442l-3.7637-3.0366c-.3008-.2417-.4678-.4722-.502-.6909-.0352-.2183,.0234-.4209,.1738-.6074,.1475-.1821,.3311-.2798,.5518-.2925,.2207-.0122,.4814,.1025,.7812,.3442l.7422,.5986,2.4424-3.0283-.4492-.3628c-.3008-.2422-.4678-.4722-.502-.6909-.0352-.2183,.0234-.4209,.1738-.6074,.1475-.1826,.3311-.2798,.5518-.2925s.4814,.1021,.7812,.3442l1.6963,1.3687Z"/><path d="M251.3926,59.302l.251-.2783c-.4404-.1108-.876-.2891-1.3066-.5352s-.793-.5015-1.0859-.7671c-.6377-.5767-1.002-1.2144-1.0938-1.9121s.0479-1.2515,.418-1.6606c.4512-.498,1.123-.731,2.0176-.6978,.8936,.0332,1.7891,.4551,2.6846,1.2661,.3594,.3247,.7393,.7393,1.1406,1.2427l.2568-.2837c.1602-.1772,.2148-.3911,.1641-.6416-.0508-.25-.291-.5688-.7197-.957-.3516-.3179-.8701-.6611-1.5557-1.0288-.2539-.1382-.4385-.2603-.5547-.3652-.1582-.1431-.2402-.3213-.248-.5352-.0068-.2134,.0703-.4087,.2314-.5864,.0908-.1006,.1885-.1699,.2939-.2085,.1045-.0381,.2119-.0483,.3213-.0298,.1104,.0186,.3027,.0967,.5791,.2339,.3672,.1846,.7246,.3911,1.0732,.6187,.3486,.228,.6465,.4536,.8936,.6777,.7373,.6675,1.166,1.3447,1.2852,2.0322s-.0713,1.3071-.5713,1.8594l-2.2129,2.4438,.2031,.1836c.2852,.2588,.4395,.498,.4609,.7183,.0225,.2202-.0469,.4189-.208,.5967-.1572,.1738-.3467,.2607-.5674,.2603-.2217,0-.4746-.1294-.7607-.3877l-1.3896-1.2583Zm1.9238-2.126c-.3906-.5225-.7871-.9653-1.1885-1.3291-.4834-.437-1.0049-.6948-1.5654-.7739-.3525-.0454-.5986,.0098-.7383,.1641-.1016,.1118-.1318,.25-.0898,.4136,.0771,.3022,.2842,.6055,.6201,.9097,.2852,.2583,.6592,.4951,1.1221,.71,.4619,.2148,.9219,.3535,1.3789,.4155l.4609-.5098Z"/><path d="M260.7705,58.4285l-.3232,.3179c.3652,.0068,.6553,.0513,.8721,.1338s.4219,.2222,.6152,.4189c.165,.167,.2871,.3721,.3662,.6162,.0791,.2437,.1133,.5234,.1035,.8403,.3574,.0356,.6748,.1157,.9541,.2393s.5225,.291,.7314,.5024c.416,.4229,.6416,.8779,.6748,1.3643,.0469,.6411-.1709,1.1992-.6533,1.6743l-2.5547,2.5166c.2334,.2373,.3535,.4668,.3594,.688,.0059,.2207-.0752,.4136-.2422,.5781s-.3594,.2412-.5791,.2305c-.2188-.0107-.4639-.1538-.7344-.4282l-1.0684-1.0854,3.6006-3.5474c.1738-.1714,.2637-.3218,.2686-.4507s-.0576-.2583-.1846-.3882c-.125-.126-.2734-.21-.4463-.252-.2275-.0459-.5664-.041-1.0166,.0146l-2.2979,2.2642c.2334,.2373,.3535,.4668,.3594,.688,.0049,.2207-.0752,.4136-.2422,.5781s-.3604,.2412-.5791,.2305c-.2188-.0112-.4639-.1538-.7344-.4282l-1.0693-1.0854,3.6016-3.5474c.1699-.168,.2578-.3184,.2627-.4507,.0049-.1328-.0566-.2642-.1846-.3936-.1318-.1338-.3037-.2246-.5146-.272-.2119-.0479-.5312-.04-.959,.0229l-2.2988,2.2646c.2344,.2373,.3555,.4678,.3623,.6904,.0078,.2231-.0723,.4165-.2393,.5811s-.3604,.2402-.5811,.2275c-.2217-.0127-.4668-.1562-.7373-.4307l-1.0146-1.0298c-.2705-.2744-.4102-.5225-.4199-.7437-.0088-.2207,.0713-.4155,.2422-.5835,.167-.1646,.3604-.2412,.5791-.2305s.4473,.1367,.6846,.3779l2.7725-2.7305c-.2383-.2412-.3594-.4722-.3652-.6929-.0059-.2212,.0752-.4141,.2422-.5786s.3604-.2402,.5811-.2275c.2217,.0127,.4668,.1562,.7373,.4312l1.0693,1.085Z"/></g></svg>