<?xml version="1.0" encoding="utf-8"?>
<!-- Generator: Adobe Illustrator 26.3.1, SVG Export Plug-In . SVG Version: 6.00 Build 0)  -->
<svg version="1.1" id="Layer_1" xmlns="http://www.w3.org/2000/svg" xmlns:xlink="http://www.w3.org/1999/xlink" x="0px" y="0px"
	 viewBox="0 0 1347.5 130.9" style="enable-background:new 0 0 1347.5 130.9;" xml:space="preserve">
<style type="text/css">
	.st0{fill:none;stroke:#000000;stroke-width:5;stroke-linecap:round;stroke-linejoin:round;}
</style>
<g>
	<path class="st0" d="M636.8,56.5c-4.7-3-9.3-6-14-9l-27.9,0.2v18.8h-9.1l9.1,50.6h82.9V56.4C664.1,56.4,650.5,56.5,636.8,56.5z"/>
	<polyline class="st0" points="677.9,117.1 668.8,66.5 594.9,66.5 	"/>
</g>
<g>
	<path d="M304.8,78.6c-0.4,0.2-0.8,0.3-1,0.3c-0.2,0-0.4-0.1-0.7-0.2c-0.5-0.2-0.8-0.6-0.9-1.1s0-1.1,0.4-1.8l1.1-2.1
		c0.4-0.7,0.8-1.2,1.3-1.4c0.5-0.2,0.9-0.1,1.4,0.1c0.4,0.2,0.6,0.4,0.8,0.8c0.1,0.3,0.2,0.7,0.1,1.3c-0.1,0.5-0.1,0.9-0.1,1.1
		c0.1,0.5,0.5,1.1,1.1,1.8c0.6,0.7,1.3,1.3,2.2,1.8c1.4,0.7,2.7,1,3.9,0.8c0.8-0.1,1.3-0.4,1.6-1c0.2-0.4,0.3-0.8,0.2-1.3
		c-0.1-0.5-0.4-1-0.9-1.5c-0.3-0.4-1.1-1-2.4-2c-1.5-1.2-2.6-2.2-3.3-3.1s-1-1.9-1.1-3c-0.1-1.1,0.1-2.1,0.6-3
		c0.8-1.5,2.1-2.5,3.9-2.9c1.8-0.5,3.7-0.2,5.7,0.9c0.8,0.4,1.5,0.9,2.1,1.4s1.1,1.1,1.4,1.8c0.6-0.2,1.1-0.2,1.5,0
		c0.5,0.2,0.7,0.6,0.9,1.1s0,1.1-0.4,1.8l-1.2,2.3c-0.4,0.7-0.8,1.2-1.3,1.4c-0.5,0.2-0.9,0.1-1.4-0.1c-0.4-0.2-0.7-0.5-0.8-0.9
		c-0.1-0.3-0.1-0.7,0-1.3c0.2-0.6,0.2-1,0.2-1.3c-0.1-0.5-0.4-1.1-0.8-1.7c-0.4-0.6-1.1-1.1-1.8-1.5c-1.1-0.6-2.1-0.8-3.1-0.6
		s-1.5,0.6-1.8,1.1c-0.2,0.4-0.3,0.8-0.2,1.3c0.1,0.5,0.3,1,0.7,1.5c0.3,0.3,1.1,1.1,2.5,2.2c1.4,1.1,2.5,2.1,3.1,2.9
		c0.7,0.8,1.1,1.8,1.2,2.9c0.1,1.1-0.1,2.2-0.6,3.3c-0.8,1.5-2,2.5-3.5,2.8c-2.1,0.5-4.2,0.1-6.4-1.1c-0.9-0.4-1.6-1-2.3-1.6
		S305.4,79.4,304.8,78.6L304.8,78.6z"/>
	<path d="M341.5,87.8c-0.5,1.3-1.3,2.3-2.5,3.2s-2.6,1.4-4.2,1.6s-3.2-0.1-4.7-0.6c-1.5-0.6-2.8-1.5-3.9-2.7s-1.8-2.6-2-4
		c-0.3-1.5-0.1-2.8,0.4-4.1c0.5-1.3,1.4-2.4,2.6-3.4s2.6-1.6,4.3-1.8s3.2,0,4.7,0.6c1.5,0.6,2.8,1.5,3.9,2.8
		c1.1,1.3,1.7,2.7,1.9,4.2C342.2,85.1,342,86.5,341.5,87.8L341.5,87.8z M338.2,86.6c0.4-1,0.4-2.2,0-3.3c-0.6-1.6-1.7-2.7-3.4-3.4
		c-1.5-0.6-2.9-0.6-4.2,0c-1.4,0.6-2.3,1.5-2.8,2.7c-0.4,1-0.3,2.2,0.4,3.4c0.7,1.3,1.7,2.2,3.2,2.8c1.5,0.6,2.9,0.6,4.2,0.1
		C337,88.4,337.8,87.6,338.2,86.6L338.2,86.6z"/>
	<path d="M360.1,77.8l-4.8,18l4.1,1.1c0.8,0.2,1.4,0.5,1.6,0.9c0.3,0.4,0.3,0.9,0.2,1.4c-0.1,0.5-0.4,0.9-0.8,1.1
		c-0.4,0.2-1.1,0.2-1.9,0l-11.5-3.1c-0.8-0.2-1.4-0.5-1.6-0.9c-0.3-0.4-0.3-0.9-0.2-1.4c0.1-0.5,0.4-0.9,0.8-1.1
		c0.4-0.2,1.1-0.2,1.9,0l4.1,1.1l3.9-14.7l-2.7-0.7c-0.8-0.2-1.3-0.5-1.6-0.9s-0.3-0.9-0.2-1.4c0.1-0.5,0.4-0.9,0.8-1.1
		c0.4-0.2,1.1-0.2,1.9,0L360.1,77.8L360.1,77.8z"/>
	<path d="M385.4,89.3l-1.8,11.9c0.7,0.1,1.2,0.4,1.5,0.7c0.3,0.4,0.4,0.8,0.3,1.3s-0.3,0.9-0.7,1.2c-0.4,0.3-1,0.3-1.9,0.2l-3.3-0.5
		l0.1-0.8c-1.1,0.3-2.1,0.5-3,0.6c-0.9,0.1-1.8,0.1-2.6,0c-1.1-0.2-2.1-0.6-2.9-1.2s-1.3-1.4-1.7-2.3c-0.3-0.7-0.3-1.4-0.2-2.4
		l1.1-7.5l-0.6-0.1c-0.8-0.1-1.4-0.4-1.7-0.7s-0.4-0.8-0.3-1.3c0.1-0.5,0.3-0.9,0.7-1.2c0.4-0.3,1-0.3,1.9-0.2l4.1,0.6L372.9,98
		c-0.1,0.7,0,1.3,0.3,1.7s0.8,0.6,1.6,0.8c0.7,0.1,1.5,0.1,2.3-0.1c0.8-0.2,1.9-0.5,3.2-1l1.1-7.1l-1.3-0.2
		c-0.8-0.1-1.4-0.4-1.7-0.7c-0.3-0.4-0.4-0.8-0.3-1.3c0.1-0.5,0.3-0.9,0.7-1.2c0.4-0.3,1-0.3,1.9-0.2L385.4,89.3L385.4,89.3z"/>
	<path d="M398.7,93.7l-0.3,7c0,0.8,0.1,1.3,0.4,1.5c0.5,0.4,1.3,0.6,2.5,0.7c1.8,0.1,3.5-0.2,5-0.9c0.6-0.3,1.1-0.4,1.4-0.4
		c0.5,0,0.8,0.2,1.2,0.6c0.3,0.4,0.5,0.8,0.4,1.3c0,0.5-0.2,0.8-0.6,1.2c-0.6,0.5-1.7,1-3.4,1.3s-3.1,0.5-4.2,0.5
		c-2.2-0.1-3.8-0.6-4.8-1.6c-1-1-1.5-2.2-1.5-3.5l0.3-7.7l-1.3-0.1c-0.8,0-1.4-0.2-1.8-0.6c-0.3-0.3-0.5-0.8-0.5-1.3
		c0-0.5,0.2-0.9,0.6-1.2c0.4-0.3,1-0.4,1.8-0.4l1.3,0.1l0.1-3.2c0-0.8,0.2-1.4,0.6-1.8c0.3-0.3,0.8-0.5,1.3-0.5
		c0.5,0,0.9,0.2,1.2,0.6c0.3,0.4,0.4,1,0.4,1.8l-0.1,3.2l6.5,0.3c0.8,0,1.4,0.2,1.8,0.6c0.3,0.3,0.5,0.8,0.5,1.3
		c0,0.5-0.2,0.9-0.6,1.2s-1,0.4-1.8,0.4L398.7,93.7L398.7,93.7z"/>
	<path d="M423.2,90.1l0.6,12l4.2-0.2c0.8,0,1.5,0.1,1.8,0.4s0.6,0.7,0.6,1.2c0,0.5-0.1,0.9-0.5,1.3c-0.3,0.3-0.9,0.5-1.8,0.6
		l-11.9,0.6c-0.8,0-1.5-0.1-1.8-0.4s-0.6-0.7-0.6-1.2c0-0.5,0.1-0.9,0.5-1.3s0.9-0.5,1.8-0.6l4.2-0.2l-0.4-8.5l-2.8,0.1
		c-0.8,0-1.4-0.1-1.8-0.4s-0.6-0.7-0.6-1.2c0-0.5,0.1-0.9,0.5-1.3c0.3-0.3,0.9-0.5,1.8-0.6L423.2,90.1L423.2,90.1z M422.4,83.5
		l0.2,3.7l-4.2,0.2l-0.2-3.7L422.4,83.5z"/>
	<path d="M453.3,94.8c0.2,1.3,0,2.7-0.6,4c-0.6,1.3-1.5,2.5-2.9,3.4c-1.4,0.9-2.8,1.5-4.4,1.7c-1.6,0.2-3.1,0.1-4.7-0.5
		c-1.5-0.5-2.8-1.4-3.7-2.5c-0.9-1.1-1.5-2.4-1.7-3.8c-0.2-1.4,0-2.8,0.6-4.2c0.6-1.4,1.5-2.6,2.9-3.6c1.3-1,2.8-1.6,4.4-1.8
		c1.6-0.2,3.2,0,4.7,0.5c1.6,0.6,2.8,1.5,3.7,2.7C452.6,92.1,453.2,93.4,453.3,94.8L453.3,94.8z M449.9,95.3
		c-0.2-1.1-0.7-2.1-1.6-2.9c-1.3-1.1-2.8-1.5-4.6-1.3c-1.6,0.2-2.8,0.9-3.7,2c-0.9,1.1-1.3,2.4-1.1,3.7c0.1,1.1,0.8,2,2,2.8
		c1.2,0.8,2.6,1.1,4.1,0.9c1.6-0.2,2.8-0.9,3.7-2C449.6,97.5,450,96.4,449.9,95.3L449.9,95.3z"/>
	<path d="M461.3,85l0.2,1.2c0.5-0.7,1.1-1.2,1.8-1.6c0.7-0.4,1.5-0.7,2.4-0.9c2-0.4,3.8-0.2,5.2,0.9c1.2,0.8,1.9,2,2.3,3.6l1.4,6.4
		c0.7-0.2,1.3-0.1,1.7,0.1c0.4,0.2,0.7,0.6,0.8,1.1c0.1,0.5,0,0.9-0.3,1.3c-0.3,0.4-0.8,0.7-1.7,0.9l-3.1,0.7
		c-0.8,0.2-1.4,0.1-1.9-0.1s-0.7-0.6-0.8-1.1c-0.1-0.5,0-0.9,0.3-1.3c0.3-0.4,0.8-0.7,1.5-0.8l-1.4-6.5c-0.2-0.7-0.5-1.2-1-1.5
		c-0.6-0.3-1.5-0.4-2.5-0.2c-0.8,0.2-1.5,0.5-2,0.9c-0.5,0.4-1.1,1.2-1.8,2.4l1.4,6.4c0.9-0.2,1.5-0.2,1.8-0.1
		c0.6,0.2,1,0.6,1.1,1.3c0.1,0.5,0,0.9-0.3,1.3c-0.3,0.4-0.8,0.7-1.7,0.9l-3.9,0.8c-0.8,0.2-1.4,0.1-1.9-0.1
		c-0.4-0.2-0.7-0.6-0.8-1.1c-0.1-0.6,0-1.2,0.5-1.6c0.2-0.2,0.8-0.4,1.7-0.6l-1.8-8.3c-0.7,0.2-1.3,0.1-1.7-0.1
		c-0.4-0.2-0.7-0.6-0.8-1.1c-0.1-0.5,0-0.9,0.3-1.3c0.3-0.4,0.8-0.7,1.7-0.9L461.3,85L461.3,85z"/>
</g>
<g>
	<path d="M824.5,65.8c-0.1,0.5-0.2,0.8-0.3,1s-0.3,0.4-0.5,0.5c-0.5,0.3-0.9,0.4-1.4,0.2c-0.5-0.1-0.9-0.6-1.4-1.3l-1.2-2
		c-0.4-0.7-0.6-1.3-0.5-1.8c0.1-0.5,0.4-0.9,0.8-1.1c0.3-0.2,0.7-0.3,1-0.3c0.4,0,0.7,0.2,1.1,0.6s0.7,0.6,0.9,0.6
		c0.5,0.1,1.2,0.1,2.1,0s1.8-0.5,2.6-1c1.3-0.8,2.2-1.8,2.7-3c0.3-0.7,0.3-1.3-0.1-1.9c-0.2-0.4-0.6-0.6-1-0.8
		c-0.5-0.2-1.1-0.2-1.8,0c-0.5,0.1-1.5,0.4-3,1c-1.8,0.7-3.3,1.1-4.4,1.2c-1.1,0.1-2.1-0.1-3.1-0.6c-1-0.5-1.7-1.2-2.3-2.1
		c-0.9-1.4-1.1-3-0.5-4.8c0.5-1.8,1.7-3.3,3.6-4.5c0.8-0.5,1.5-0.8,2.3-1.1c0.8-0.2,1.5-0.4,2.3-0.3c0.2-0.6,0.4-1,0.8-1.3
		c0.4-0.3,0.9-0.3,1.4-0.2c0.5,0.1,0.9,0.6,1.4,1.3l1.4,2.2c0.4,0.7,0.6,1.3,0.5,1.8s-0.3,0.9-0.8,1.1c-0.4,0.2-0.8,0.3-1.2,0.3
		c-0.3,0-0.7-0.3-1.1-0.7c-0.4-0.4-0.8-0.7-1.1-0.8c-0.5-0.2-1.1-0.2-1.8-0.1c-0.7,0.1-1.4,0.4-2.2,0.8c-1.1,0.7-1.8,1.4-2.1,2.3
		c-0.3,0.9-0.3,1.6,0,2.1c0.2,0.4,0.6,0.6,1,0.8c0.5,0.2,1,0.2,1.6,0.1c0.4-0.1,1.5-0.4,3.2-1.1s3.1-1.1,4.1-1.2
		c1-0.2,2.1,0,3.1,0.4c1,0.4,1.9,1.2,2.5,2.2c0.9,1.5,1.1,3,0.7,4.5c-0.6,2-2,3.7-4.2,5c-0.8,0.5-1.7,0.9-2.6,1.2
		S825.5,65.7,824.5,65.8L824.5,65.8z"/>
	<path d="M852.5,42.2c0.6,1.2,0.9,2.5,0.8,4s-0.6,2.9-1.5,4.2c-1,1.3-2.1,2.4-3.6,3.2c-1.4,0.7-2.9,1.1-4.6,1.2s-3.1-0.3-4.3-1.1
		s-2.2-1.8-2.9-3c-0.7-1.2-1-2.6-0.9-4.2c0.1-1.6,0.5-3,1.5-4.4c0.9-1.4,2.1-2.4,3.5-3.2c1.4-0.7,3-1.1,4.6-1.1
		c1.7,0,3.2,0.4,4.4,1.3S851.8,41,852.5,42.2L852.5,42.2z M849.4,43.9c-0.5-1-1.4-1.7-2.5-2.2c-1.6-0.6-3.2-0.5-4.7,0.3
		c-1.4,0.7-2.3,1.8-2.8,3.2c-0.5,1.4-0.4,2.7,0.2,3.9c0.5,1,1.5,1.6,2.9,2s2.8,0.1,4.2-0.6c1.4-0.7,2.3-1.8,2.8-3.1
		C849.9,46,849.9,44.8,849.4,43.9L849.4,43.9z"/>
	<path d="M860.2,22.7l7.3,17.2l3.9-1.7c0.8-0.3,1.4-0.4,1.8-0.3c0.5,0.2,0.8,0.5,1,1c0.2,0.5,0.2,0.9,0,1.4
		c-0.2,0.4-0.7,0.8-1.5,1.2l-11,4.7c-0.8,0.3-1.4,0.4-1.8,0.3c-0.5-0.2-0.8-0.5-1-1c-0.2-0.5-0.2-0.9,0-1.4c0.2-0.4,0.7-0.8,1.5-1.2
		l3.9-1.6l-6-13.9l-2.6,1.1c-0.8,0.3-1.4,0.4-1.8,0.3s-0.8-0.5-1-1c-0.2-0.5-0.2-0.9,0-1.4c0.2-0.4,0.7-0.8,1.5-1.2L860.2,22.7
		L860.2,22.7z"/>
	<path d="M889.8,19.3l3.6,11.5c0.7-0.2,1.3-0.2,1.7,0s0.7,0.6,0.9,1c0.2,0.5,0.1,0.9-0.1,1.4c-0.2,0.4-0.8,0.8-1.6,1l-3.2,1
		l-0.2-0.8c-0.8,0.7-1.6,1.4-2.4,1.8c-0.8,0.5-1.6,0.9-2.4,1.1c-1.1,0.3-2.1,0.4-3.1,0.2c-1-0.2-1.8-0.6-2.5-1.3
		c-0.5-0.5-0.9-1.2-1.2-2L877,27l-0.6,0.2c-0.8,0.3-1.4,0.3-1.9,0.1c-0.4-0.2-0.7-0.6-0.9-1.1c-0.2-0.5-0.1-0.9,0.1-1.4
		c0.2-0.4,0.8-0.8,1.6-1l3.9-1.2l3.1,9.9c0.2,0.7,0.6,1.2,1,1.4c0.4,0.2,1,0.2,1.7,0c0.7-0.2,1.4-0.6,2-1.1s1.5-1.3,2.4-2.4
		l-2.2-6.8l-1.2,0.4c-0.8,0.3-1.4,0.3-1.9,0.1c-0.4-0.2-0.7-0.6-0.9-1.1c-0.2-0.5-0.1-0.9,0.1-1.4c0.2-0.4,0.8-0.8,1.6-1L889.8,19.3
		L889.8,19.3z"/>
	<path d="M904.9,19.4l1.4,6.9c0.1,0.7,0.4,1.2,0.7,1.4c0.5,0.3,1.4,0.3,2.6,0.1c1.8-0.3,3.3-1,4.6-2.1c0.5-0.4,0.9-0.6,1.3-0.7
		c0.4-0.1,0.9,0,1.3,0.3s0.6,0.6,0.7,1.1c0.1,0.4,0,0.9-0.3,1.3c-0.4,0.6-1.4,1.3-3,2.1c-1.5,0.8-2.8,1.2-4,1.5
		c-2.1,0.4-3.8,0.3-5.1-0.4c-1.2-0.7-2-1.7-2.3-3.1l-1.5-7.6l-1.2,0.2c-0.8,0.2-1.4,0.1-1.9-0.1c-0.4-0.2-0.7-0.6-0.8-1.1
		c-0.1-0.5,0-0.9,0.3-1.3c0.3-0.4,0.8-0.7,1.7-0.8l1.2-0.2l-0.6-3.1c-0.2-0.8-0.1-1.4,0.1-1.9c0.2-0.4,0.6-0.7,1.1-0.8
		c0.5-0.1,0.9,0,1.3,0.3c0.4,0.3,0.7,0.8,0.8,1.7l0.6,3.1l6.4-1.3c0.8-0.2,1.4-0.1,1.9,0.1s0.7,0.6,0.8,1.1c0.1,0.5,0,0.9-0.3,1.3
		c-0.3,0.4-0.8,0.7-1.7,0.8L904.9,19.4L904.9,19.4z"/>
	<path d="M929.7,12.6l0.8,12l4.2-0.3c0.8-0.1,1.5,0.1,1.8,0.4c0.4,0.3,0.6,0.7,0.6,1.2c0,0.5-0.1,0.9-0.5,1.3s-0.9,0.6-1.8,0.6
		l-11.9,0.8c-0.8,0.1-1.5-0.1-1.8-0.4c-0.4-0.3-0.6-0.7-0.6-1.2c0-0.5,0.1-0.9,0.5-1.3c0.3-0.3,0.9-0.6,1.8-0.6l4.2-0.3l-0.6-8.5
		l-2.8,0.2c-0.8,0.1-1.4-0.1-1.8-0.4c-0.4-0.3-0.6-0.7-0.6-1.2c0-0.5,0.1-0.9,0.5-1.3s0.9-0.6,1.8-0.6L929.7,12.6L929.7,12.6z
		 M928.8,6l0.3,3.7l-4.2,0.3l-0.3-3.7C924.7,6.3,928.8,6,928.8,6z"/>
	<path d="M959.8,21.3c-0.1,1.3-0.5,2.6-1.4,3.8c-0.8,1.2-2,2.1-3.5,2.8c-1.5,0.6-3.1,0.9-4.7,0.8c-1.6-0.1-3.1-0.6-4.5-1.4
		c-1.4-0.8-2.4-1.9-3.1-3.2c-0.7-1.3-1-2.7-0.9-4c0.1-1.4,0.6-2.7,1.4-4c0.9-1.3,2-2.3,3.5-3c1.5-0.7,3-1,4.6-0.9
		c1.6,0.1,3.1,0.6,4.5,1.5c1.4,0.9,2.5,2,3.1,3.4C959.6,18.5,959.9,19.9,959.8,21.3L959.8,21.3z M956.3,21.1c0.1-1.1-0.3-2.2-1-3.2
		c-1-1.3-2.4-2.1-4.2-2.2c-1.6-0.1-2.9,0.3-4.1,1.3c-1.1,0.9-1.7,2.1-1.8,3.4c-0.1,1.1,0.4,2.1,1.4,3.2s2.3,1.6,3.8,1.7
		c1.6,0.1,2.9-0.3,4.1-1.2C955.6,23.2,956.2,22.2,956.3,21.1L956.3,21.1z"/>
	<path d="M971,15.2l-0.2,1.2c0.7-0.4,1.5-0.7,2.3-0.8c0.8-0.1,1.7-0.1,2.5,0.1c2,0.4,3.5,1.4,4.4,2.9c0.7,1.2,0.9,2.6,0.6,4.2
		l-1.4,6.4c0.7,0.2,1.2,0.4,1.5,0.8c0.3,0.4,0.4,0.8,0.3,1.4c-0.1,0.5-0.4,0.9-0.8,1.1c-0.4,0.2-1,0.3-1.9,0.1l-3.1-0.7
		c-0.8-0.2-1.4-0.5-1.7-0.9c-0.3-0.4-0.4-0.8-0.3-1.4c0.1-0.5,0.4-0.9,0.8-1.1s1-0.3,1.7-0.1l1.4-6.5c0.2-0.7,0.1-1.3-0.3-1.8
		c-0.4-0.6-1.2-0.9-2.2-1.2c-0.8-0.2-1.5-0.2-2.2,0s-1.6,0.7-2.7,1.5l-1.4,6.4c0.9,0.2,1.4,0.4,1.7,0.6c0.5,0.5,0.6,1,0.5,1.6
		c-0.1,0.5-0.4,0.9-0.8,1.1c-0.4,0.2-1,0.3-1.9,0.1l-3.9-0.8c-0.8-0.2-1.4-0.5-1.7-0.9c-0.3-0.4-0.4-0.8-0.3-1.4
		c0.1-0.6,0.5-1.1,1.1-1.3c0.3-0.1,0.9-0.1,1.8,0.1l1.8-8.3c-0.7-0.2-1.2-0.4-1.5-0.8c-0.3-0.4-0.4-0.8-0.3-1.3
		c0.1-0.5,0.4-0.9,0.8-1.1c0.4-0.2,1-0.3,1.9-0.1L971,15.2L971,15.2z"/>
</g>
</svg>
