<?xml version="1.0" encoding="UTF-8"?><svg id="Layer_1" xmlns="http://www.w3.org/2000/svg" width="1362.7266" height="126.7407" viewBox="0 0 1362.7266 126.7407"><defs><style>.cls-1{fill:none;stroke:#000;stroke-linecap:round;stroke-linejoin:round;stroke-width:5px;}</style></defs><g><path class="cls-1" d="M652.0489,51.435c-4.6666-3-9.3334-6-14-9l-27.9231,.1538v18.8462h-9.0769l9.0769,50.5993h82.9231V51.2885c-13.6666,.0488-27.3334,.0976-41,.1464Z"/><polyline class="cls-1" points="693.1258 112.0343 684.0489 61.435 610.1258 61.435"/></g><g><path d="M20.8281,100.4522l-5.0117,4.6079,.6533,1.7207,.5029-.4624c.4961-.4565,.9385-.6865,1.3252-.6895,.3877-.0034,.7227,.1499,1.0068,.458,.2773,.3022,.3984,.646,.3633,1.0312-.0361,.3857-.3018,.8066-.7988,1.2632l-2.7773,2.5537c-.4971,.457-.9385,.6865-1.3252,.6895-.3877,.0034-.7227-.1494-1.0068-.458s-.4043-.6621-.3623-1.0605c.043-.3979,.3252-.8247,.8477-1.2803l-4.1807-11.0513-1.3486,1.2397c-.4961,.4565-.9385,.6865-1.3252,.6895s-.7227-.1494-1.0068-.4585c-.2832-.3086-.4072-.6558-.3721-1.041,.0361-.3857,.3018-.8066,.7979-1.2632l4.4688-4.0889,13.4238,6.3599c.4834-.4443,.8516-.6836,1.1045-.7183,.5117-.062,.9346,.0879,1.2676,.4502,.2783,.3018,.4004,.644,.3682,1.0264s-.2959,.8022-.793,1.2583l-2.7773,2.5542c-.4971,.4565-.9385,.686-1.3262,.6895-.3867,.0029-.7227-.1499-1.0059-.4585-.2783-.3022-.3994-.646-.3633-1.0312,.0352-.3857,.3018-.8066,.7979-1.2632l.5029-.4624-1.6494-.8047Zm-2.752-1.2769l-5.418-2.5596,2.0859,5.6221,3.332-3.0625Z"/><path d="M30.6982,85.6256c-.5293,.0835-1.0303,.2349-1.5029,.4546-.4717,.2197-.915,.5078-1.3301,.8643-.8223,.7075-1.3594,1.4038-1.6113,2.0894-.1133,.3022-.1104,.522,.0088,.6602,.1367,.1587,.416,.1895,.8369,.0918,.3154-.0796,.9023-.3975,1.7578-.9536,1.5762-1.019,2.7236-1.6694,3.4434-1.9517,.9453-.3687,1.832-.4697,2.6602-.3042,.8271,.1655,1.4824,.5283,1.9639,1.0879,.6533,.7603,.8652,1.6841,.6348,2.772-.3242,1.5659-1.2539,3.0083-2.7881,4.3276-.6143,.5293-1.2295,.9644-1.8428,1.3062-.6143,.3413-1.2275,.5957-1.8408,.7632-.0264,.1787-.0781,.3433-.1543,.4927-.0752,.1494-.1758,.2773-.2998,.3843-.332,.2856-.6895,.4038-1.0742,.356-.3838-.0483-.7959-.3281-1.2354-.8398l-.6152-.7148c-.4404-.5112-.6553-.9604-.6455-1.3477s.1738-.7173,.4912-.9907c.2559-.2197,.5312-.333,.8252-.3403,.2949-.0068,.6396,.1211,1.0332,.3828,.5625-.0024,1.1328-.1294,1.7109-.3804,.5771-.2505,1.1631-.6313,1.7578-1.1426,.9746-.8379,1.6006-1.6406,1.8779-2.4087,.125-.3716,.1162-.6406-.0273-.8066-.2373-.2764-.6162-.3467-1.1377-.2114-.5205,.1353-1.4082,.6343-2.6621,1.4966-1.8613,1.2886-3.2979,1.9238-4.3115,1.9058-1.0078-.0112-1.8291-.3862-2.4648-1.126-.6543-.7598-.877-1.6685-.668-2.7256,.2764-1.4399,1.1191-2.7661,2.5283-3.979,.4912-.4219,1.0029-.7808,1.5352-1.0771,.5332-.2959,1.0898-.5254,1.6709-.6885,.0479-.2095,.1084-.3877,.1807-.5342,.0732-.1465,.1572-.2612,.2539-.3447,.29-.2495,.626-.3486,1.0068-.2974,.3799,.0513,.791,.3325,1.2305,.8438l.4453,.5181c.3984,.4634,.6143,.8252,.6455,1.0859,.0527,.5083-.1113,.9258-.4912,1.2524-.2559,.2202-.5488,.334-.8789,.3413s-.6357-.0962-.917-.3115Z"/><path d="M44.4219,74.3946c-.5322,.0635-1.0381,.1958-1.5186,.3979-.4795,.2021-.9336,.4736-1.3613,.8145-.8477,.6768-1.4102,1.3525-1.6875,2.0283-.124,.2974-.1299,.5171-.0156,.6597,.1299,.1641,.4082,.2051,.832,.123,.3193-.0679,.917-.3638,1.793-.8877,1.6123-.96,2.7832-1.5674,3.5127-1.8223,.959-.333,1.8486-.4014,2.6699-.2056,.8203,.1963,1.4609,.583,1.9219,1.1602,.625,.7842,.8018,1.7153,.5312,2.7939-.3818,1.5522-1.3643,2.9595-2.9463,4.2212-.6348,.5059-1.2646,.918-1.8906,1.2363-.626,.3188-1.249,.5503-1.8682,.6943-.0332,.1777-.0898,.3403-.1719,.4868-.0811,.1465-.1855,.2705-.3145,.373-.3418,.2725-.7041,.3779-1.0859,.3154s-.7832-.3574-1.2041-.8848l-.5879-.7378c-.4209-.5269-.6191-.9839-.5947-1.3706,.0244-.3862,.2002-.71,.5273-.9717,.2637-.21,.543-.313,.8379-.3091s.6338,.144,1.0176,.4209c.5625,.0181,1.1367-.0874,1.7236-.3164s1.1865-.5879,1.7998-1.0767c1.0049-.8013,1.6602-1.5806,1.9658-2.3374,.1387-.3667,.1396-.6362,.0029-.8071-.2275-.2847-.6035-.3691-1.1289-.2534s-1.4307,.5815-2.7158,1.3965c-1.9082,1.2183-3.3682,1.7998-4.3799,1.7441-1.0068-.0483-1.8135-.4541-2.4219-1.2163-.625-.7842-.8135-1.7002-.5654-2.749,.3291-1.4287,1.2207-2.7227,2.6748-3.8818,.5059-.4038,1.0303-.7432,1.5742-1.0195,.543-.2759,1.1084-.4844,1.6953-.626,.0557-.208,.1221-.3838,.2002-.5273s.166-.2549,.2666-.335c.2988-.2383,.6377-.3252,1.0166-.2598,.3779,.0654,.7783,.3618,1.1982,.8892l.4268,.5342c.3809,.4775,.582,.8472,.6045,1.1094,.0332,.5098-.1465,.9204-.5381,1.2329-.2637,.2104-.5605,.3135-.8906,.3086s-.6318-.1196-.9053-.3452Z"/><path d="M64.4248,64.8399l-9.2812,6.7866c.666,.417,1.4307,.5859,2.2939,.5078,.8633-.0776,1.8066-.4907,2.8291-1.2388,.8389-.6133,1.8213-1.6084,2.9482-2.9858,.4668-.5669,.8096-.9307,1.0303-1.0923,.3018-.2207,.6338-.2993,.9961-.2368,.3613,.063,.6611,.2563,.8975,.5796,.2158,.2944,.2881,.6255,.2178,.9927-.0947,.4878-.623,1.2715-1.583,2.3516-.96,1.0806-1.9658,2.0054-3.0186,2.7749-1.8096,1.3232-3.6309,1.8706-5.4639,1.6416s-3.2959-1.0903-4.3877-2.584c-1.1621-1.5894-1.5215-3.3115-1.0762-5.1665,.4443-1.855,1.4316-3.3423,2.9619-4.4614,.9199-.6724,1.8818-1.1274,2.8877-1.3662,1.0059-.2383,1.833-.3071,2.4824-.2065,.9287,.1572,1.8584,.5103,2.791,1.0596,.6436,.3867,1.2354,.9482,1.7734,1.6841l.7012,.96Zm-4.1592-.4307c-.8193-.394-1.625-.5474-2.4189-.4585-.793,.0889-1.5752,.4155-2.3486,.9805-.7646,.5596-1.3096,1.2041-1.6348,1.9326-.3252,.729-.4277,1.5464-.3076,2.4521l6.71-4.9067Z"/><path d="M69.9209,55.3106l3.1006,4.687c.3311,.5015,.6533,.7646,.9639,.7886,.4854,.0396,1.1377-.2124,1.959-.7554,1.1934-.7891,2.1279-1.7729,2.8018-2.9512,.2568-.4541,.4961-.7539,.7158-.8999,.3047-.2012,.6445-.2617,1.0195-.1821,.375,.0801,.6709,.2832,.8867,.6099,.2012,.3042,.2529,.647,.1553,1.0283-.1357,.604-.6543,1.4189-1.5537,2.4458-.9004,1.0269-1.7266,1.7891-2.4795,2.2871-1.4512,.9604-2.748,1.3672-3.8887,1.2202s-2.0127-.6768-2.6162-1.5889l-3.4014-5.1431-.8447,.5581c-.5625,.3721-1.0352,.5288-1.418,.4707-.3818-.0581-.6895-.2622-.9209-.6118-.2256-.3423-.291-.7007-.1953-1.0757,.0967-.3755,.4258-.7485,.9883-1.1211l.8438-.5581-1.3945-2.1094c-.3721-.5625-.5293-1.0352-.4707-1.418,.0576-.3828,.2617-.6899,.6113-.9214,.3418-.2261,.7012-.291,1.0762-.1948s.748,.4253,1.1201,.9878l1.3955,2.1099,4.3223-2.8584c.5625-.3721,1.0352-.5293,1.418-.4707,.3828,.0581,.6895,.2622,.9209,.6118,.2266,.3418,.291,.7007,.1953,1.0757-.0967,.375-.4258,.7485-.9883,1.1206l-4.3223,2.8584Z"/><path d="M98.8604,29.0137l6.7734,13.3052,2.9971-1.5259c.6006-.3062,1.0879-.4082,1.4619-.3071s.6553,.3389,.8457,.7124c.1865,.3652,.21,.729,.0723,1.0908s-.5078,.6958-1.1084,1.0015l-8.4922,4.3232c-.6016,.3062-1.0889,.4082-1.4629,.3071-.373-.1011-.6553-.3384-.8457-.7124-.1855-.3652-.21-.729-.0723-1.0908,.1387-.3618,.5078-.6953,1.1094-1.0015l2.9971-1.5259-5.502-10.8071-2.0098,1.0234c-.5938,.3018-1.0791,.4033-1.4561,.3037-.3779-.0991-.6621-.3354-.8525-.709-.1855-.3657-.21-.729-.0723-1.0908,.1387-.3618,.5078-.6958,1.1094-1.002l4.5078-2.2949Z"/><path d="M117.7119,26.1719l3.7656,8.8428,3.0947-1.3174c.6201-.2642,1.1133-.333,1.4795-.2065s.6309,.3828,.7959,.7681c.1602,.3774,.1592,.7422-.0029,1.0933-.1621,.3516-.5537,.6597-1.1748,.9238l-8.7676,3.7334c-.6201,.2642-1.1133,.333-1.4795,.2065s-.6309-.3823-.7949-.7686c-.1611-.377-.1602-.7417,.002-1.0933,.1631-.3511,.5537-.6592,1.1748-.9233l3.0947-1.3179-2.668-6.2642-2.0752,.8838c-.6123,.2607-1.1035,.3286-1.4736,.2041-.3701-.125-.6377-.3799-.8018-.7661-.1602-.377-.1592-.7417,.0029-1.0933,.1621-.3511,.5537-.6592,1.1738-.9233l4.6543-1.9819Zm-2.4355-4.7432l1.1621,2.7295-3.0693,1.3071-1.1621-2.7295,3.0693-1.3071Z"/><path d="M137.3154,22.378c-.5225-.1216-1.043-.1694-1.5635-.1431-.5195,.0264-1.0391,.127-1.5576,.3018-1.0273,.3467-1.7871,.7905-2.2773,1.3315-.2188,.2373-.2979,.4419-.2402,.6147,.0674,.1987,.3145,.332,.7412,.3994,.3232,.0449,.9854-.0298,1.9883-.2236,1.8428-.3525,3.1504-.5244,3.9238-.5161,1.0146,.0137,1.874,.2524,2.5791,.7168s1.1758,1.0464,1.4111,1.7456c.3213,.9502,.1699,1.8862-.4521,2.8076-.8887,1.3296-2.291,2.3174-4.208,2.9644-.7695,.2593-1.502,.4321-2.1992,.5181-.6973,.0864-1.3613,.0918-1.9932,.0161-.0918,.1562-.2002,.2891-.3271,.3989-.126,.1104-.2666,.1914-.4229,.2437-.4141,.1401-.79,.1157-1.1279-.0732s-.6152-.603-.8311-1.2422l-.3018-.894c-.2148-.6387-.2461-1.1357-.0918-1.4912,.1543-.355,.4307-.5996,.8271-.7334,.3193-.1079,.6172-.1099,.8936-.0059,.2754,.1045,.5459,.3521,.8135,.7432,.5215,.2085,1.0986,.3052,1.7275,.2896,.6299-.0151,1.3164-.1484,2.0586-.3989,1.2178-.4111,2.0996-.9199,2.6445-1.5273,.2559-.2979,.3486-.5503,.2783-.7578-.1162-.3452-.4414-.5527-.9746-.623-.5342-.0698-1.5439,.0591-3.0293,.3872-2.209,.4956-3.7793,.5444-4.7119,.1475-.9297-.3887-1.5508-1.0449-1.8623-1.9692-.3203-.9497-.1855-1.8755,.4043-2.7769,.7969-1.231,2.0762-2.1436,3.8379-2.7383,.6133-.2065,1.2227-.3472,1.8271-.4219,.6055-.0742,1.208-.0776,1.8076-.0107,.123-.1763,.2461-.3188,.3682-.4272s.2432-.1831,.3643-.2241c.3623-.1226,.7109-.0884,1.0449,.1021,.333,.1904,.6074,.6055,.8232,1.2441l.2188,.6479c.1953,.5786,.2588,.9946,.1904,1.2485-.1426,.4907-.4512,.8159-.9258,.9761-.3193,.1079-.6338,.1035-.9424-.0137-.3086-.1167-.5537-.3276-.7334-.6328Z"/><path d="M150.8994,18.0343l1.3291,5.4595c.1426,.5845,.3564,.9409,.6406,1.0684,.4434,.2017,1.1426,.186,2.0996-.0469,1.3896-.3384,2.6016-.9478,3.6348-1.8281,.3955-.3403,.7217-.5415,.9785-.6045,.3545-.0859,.6943-.0283,1.0205,.1738s.5352,.4937,.6279,.874c.0869,.3545,.0195,.6948-.2021,1.0205-.332,.522-1.0957,1.1133-2.29,1.7749s-2.2305,1.0991-3.1064,1.3125c-1.6914,.4121-3.0498,.3555-4.0732-.1689s-1.665-1.3184-1.9238-2.3809l-1.459-5.9912-.9824,.2397c-.6562,.1597-1.1533,.147-1.4941-.0376-.3398-.1841-.5596-.48-.6592-.8877-.0967-.3984-.0371-.7578,.1807-1.0781s.6533-.5601,1.3096-.7197l.9824-.2397-.5986-2.457c-.1592-.6553-.1475-1.1533,.0371-1.4937,.1846-.3408,.4805-.5605,.8877-.6597,.3984-.0972,.7578-.0366,1.0781,.1807,.3213,.2173,.5605,.6538,.7207,1.3091l.5986,2.4575,5.0342-1.2261c.6553-.1597,1.1533-.1475,1.4932,.0371,.3408,.1846,.5605,.4805,.6602,.8877,.0967,.3984,.0361,.7578-.1807,1.0781-.2178,.3208-.6543,.5605-1.3096,.7202l-5.0342,1.2261Z"/><path d="M190.2217,22.2872l-.0254-.6558c-.6875,.4009-1.4502,.7104-2.29,.9297s-1.6064,.3423-2.2979,.3691c-1.5029,.0576-2.7393-.2939-3.708-1.0547s-1.4717-1.6235-1.5088-2.5894c-.0449-1.1748,.5117-2.2886,1.6709-3.3408,1.1582-1.0527,2.7949-1.6196,4.9072-1.7012,.8477-.0322,1.8301,.021,2.9482,.1602l-.0254-.6694c-.0166-.4185-.21-.7534-.5791-1.0039-.3701-.25-1.0605-.356-2.0713-.3169-.8291,.0317-1.8975,.2373-3.2061,.6162-.4873,.1372-.8672,.2109-1.1406,.2217-.373,.0142-.6953-.1079-.9648-.3667-.2695-.2583-.4131-.5972-.4287-1.0161-.0098-.2368,.0283-.4438,.1123-.6201,.085-.1768,.207-.3203,.3672-.4316,.1592-.1108,.4961-.2495,1.0098-.415,.6846-.2178,1.3848-.3975,2.0996-.5391,.7158-.1416,1.3643-.2236,1.9473-.2461,1.7393-.0669,3.1045,.2568,4.0947,.9712,.9893,.7144,1.5098,1.7227,1.5596,3.0254l.2217,5.7651,.4785-.0186c.6738-.0259,1.1592,.0854,1.4561,.334s.4531,.5825,.4697,1.001c.0156,.4102-.1152,.7505-.3916,1.021-.2773,.2705-.7529,.4189-1.4268,.4448l-3.2783,.126Zm-.1934-5.0137c-1.1289-.1753-2.167-.2451-3.1143-.2085-1.1377,.0439-2.1064,.3594-2.9043,.9463-.4971,.375-.7383,.7446-.7236,1.1089,.0098,.2642,.1406,.4736,.3936,.6279,.4668,.2832,1.0967,.4092,1.8887,.3789,.6738-.0259,1.4316-.1875,2.2734-.4844,.8408-.2969,1.5859-.686,2.2324-1.167l-.0459-1.2021Z"/><path d="M202.8193,10.0772l-.0684,.9409c.541-.3999,1.126-.687,1.7549-.8608,.6299-.1738,1.3037-.2354,2.0215-.1836,1.6543,.1191,2.9268,.7271,3.8164,1.8237,.7051,.873,1.0098,1.9731,.9141,3.3008l-.374,5.1953c.5908,.0425,1.0176,.2036,1.2812,.4829,.2627,.2793,.3799,.6284,.3496,1.0464-.0293,.4092-.1963,.7329-.502,.9712-.3047,.2388-.7939,.3335-1.4668,.2852l-2.5225-.1816c-.6729-.0483-1.1426-.2124-1.4102-.4922-.2686-.2793-.3867-.6284-.3564-1.0469,.0293-.4087,.1943-.7329,.4941-.9717,.3008-.2388,.7461-.3369,1.3379-.2944l.3789-5.2773c.0439-.6089-.0869-1.0664-.3945-1.3716-.4014-.3945-1.0293-.6226-1.8838-.6841-.6455-.0464-1.2197,.0381-1.7246,.2529-.5039,.2153-1.1582,.7002-1.9619,1.4556l-.374,5.1958c.7188,.0518,1.1768,.1533,1.377,.3047,.4248,.3047,.6191,.7207,.5811,1.248-.0293,.4092-.1963,.7329-.501,.9712-.3057,.2388-.7939,.3335-1.4668,.2852l-3.1777-.2285c-.6729-.0483-1.1426-.2124-1.4102-.4922s-.3867-.6284-.3564-1.0469c.0361-.5093,.2832-.8887,.7393-1.1392,.2285-.1206,.7012-.1553,1.4199-.1035l.4883-6.791c-.5908-.0425-1.0176-.2056-1.2803-.4897-.2627-.2837-.3799-.6304-.3506-1.0396s.1973-.7329,.502-.9712c.3047-.2388,.7939-.334,1.4668-.2852l2.6592,.1914Z"/><path d="M231.2568,8.607l-2.7598,14.6724,.4697,.0884c.6543,.123,1.1006,.3394,1.3389,.6484s.3193,.6699,.2422,1.082c-.0762,.4028-.2793,.7056-.6094,.9077s-.8271,.2412-1.4893,.1162l-3.2246-.6064,.126-.6719c-.6963,.2495-1.4043,.4038-2.125,.4629s-1.4482,.0195-2.1826-.1187c-2.0693-.3892-3.623-1.3003-4.6611-2.7339-1.0381-1.4331-1.3896-3.041-1.0537-4.8237,.3506-1.8633,1.3115-3.3286,2.8857-4.396,1.5732-1.0674,3.3135-1.4214,5.2217-1.0625,.7168,.1348,1.3994,.377,2.0479,.7261s1.2666,.8062,1.8564,1.3716l.6445-3.4263-.4707-.0884c-.6631-.125-1.1113-.3413-1.3457-.6499-.2334-.3081-.3125-.6641-.2373-1.0669,.0781-.4121,.2812-.7192,.6123-.9214,.3301-.2021,.8262-.2412,1.4893-.1162l3.2246,.6064Zm-4.9531,11.1714c.2139-1.1372-.0039-2.1753-.6523-3.1138-.6494-.938-1.5518-1.5161-2.707-1.7334-1.1465-.2158-2.1924-.0039-3.1377,.6343-.9463,.6382-1.5234,1.5127-1.7324,2.6235-.1904,1.0122,.0117,1.9102,.6064,2.6943s1.5459,1.2993,2.8535,1.5454c1.2988,.2441,2.3721,.1099,3.2197-.4028,.8477-.5132,1.3643-1.2622,1.5498-2.2476Z"/><path d="M267.2402,21.6988l-6.1992,13.582,.4355,.1987c.6055,.2759,.9863,.5928,1.1445,.9502,.1572,.3574,.1494,.7271-.0254,1.1084-.1699,.373-.4395,.6182-.8086,.7354s-.8604,.0356-1.4736-.2441l-2.9854-1.3628,.2842-.6216c-.7363,.0752-1.4609,.0547-2.1748-.0605s-1.4102-.3281-2.0898-.6387c-1.916-.874-3.2051-2.1313-3.8691-3.772s-.6201-3.2856,.1338-4.936c.7871-1.7246,2.0723-2.9165,3.8555-3.5752s3.5586-.585,5.3242,.2207c.6641,.3027,1.2676,.7017,1.8135,1.1963s1.0371,1.0869,1.4736,1.7769l1.4473-3.1714-.4346-.1987c-.6143-.2803-.9971-.5981-1.1504-.9536s-.1455-.7197,.0254-1.0928c.1738-.3813,.4453-.6309,.8145-.748s.8604-.0356,1.4736,.2446l2.9854,1.3623Zm-7.4883,9.6572c.4805-1.0532,.5186-2.1128,.1133-3.1797-.4053-1.0664-1.1426-1.8438-2.2119-2.3315-1.0615-.4849-2.1279-.5303-3.1982-.1377-1.0713,.3931-1.8408,1.1035-2.3105,2.1318-.4277,.937-.4473,1.8574-.0576,2.7612,.3887,.9038,1.1885,1.6318,2.3994,2.1846,1.2021,.5488,2.2764,.6758,3.2217,.3813,.9463-.2944,1.6279-.8979,2.0439-1.8101Z"/><path d="M277.7334,42.3878l-9.9746-5.7197c-.1094,.7778,.0469,1.5449,.4688,2.3018,.4229,.7573,1.1826,1.4507,2.2822,2.0811,.9014,.5166,2.21,1.0098,3.9268,1.4795,.708,.1953,1.1797,.3613,1.417,.4971,.3242,.186,.5312,.457,.6211,.8135s.0352,.7085-.1641,1.0562c-.1816,.3164-.4541,.5171-.8184,.6025-.4844,.1113-1.415-.0522-2.792-.4902-1.3779-.438-2.6318-.981-3.7627-1.6294-1.9453-1.1152-3.1855-2.5566-3.7217-4.3247-.5361-1.7676-.3438-3.4541,.5771-5.0596,.9785-1.7075,2.4062-2.7358,4.2822-3.084,1.875-.3481,3.6348-.0508,5.2803,.8926,.9883,.5664,1.7949,1.2607,2.4219,2.0825s1.0264,1.5498,1.1982,2.1841c.2344,.9121,.2891,1.9053,.167,2.98-.0918,.7461-.3643,1.5146-.8174,2.3052l-.5918,1.0317Zm-1.2979-3.9751c.0273-.9092-.1611-1.708-.5645-2.3965-.4043-.6885-1.0205-1.2705-1.8506-1.7466-.8232-.4717-1.6328-.708-2.4307-.7085-.7988-.0005-1.5869,.2383-2.3652,.7163l7.2109,4.1353Z"/><path d="M291.5176,46.0323c-.2314-.4834-.5195-.9199-.8662-1.3091-.3457-.3896-.749-.7314-1.209-1.0264-.9141-.585-1.7354-.8999-2.4639-.9443-.3223-.0215-.5312,.0439-.6299,.1978-.1133,.1763-.0625,.4526,.1514,.8276,.167,.2803,.6396,.7505,1.418,1.4111,1.4287,1.2173,2.3809,2.1304,2.8574,2.7383,.624,.8003,.9756,1.6206,1.0547,2.4609s-.0811,1.5713-.4795,2.1934c-.54,.8442-1.3643,1.312-2.4727,1.4033-1.5928,.1387-3.2412-.3379-4.9453-1.4292-.6836-.4375-1.2764-.9009-1.7803-1.3911-.5029-.4902-.9229-1.0049-1.2588-1.5449-.1797,.0264-.3516,.0244-.5166-.0054s-.3164-.0889-.4541-.1777c-.3682-.2358-.585-.5444-.6484-.9263-.0645-.3818,.0859-.8569,.4492-1.4248l.5088-.7949c.3633-.5679,.7324-.9028,1.1055-1.0044,.374-.1016,.7373-.0396,1.0908,.1865,.2832,.1816,.4707,.4131,.5625,.6929,.0908,.2803,.0674,.647-.0713,1.0996,.165,.5381,.4492,1.0479,.8555,1.5293,.4062,.4819,.9385,.9341,1.5996,1.3569,1.082,.6929,2.0303,1.062,2.8457,1.1074,.3916,.0132,.6465-.0723,.7646-.2568,.1963-.3066,.1553-.6904-.123-1.1504-.2793-.46-1.0117-1.1675-2.1973-2.1211-1.7686-1.4136-2.79-2.6084-3.0625-3.584-.2793-.9683-.1553-1.8633,.3711-2.6846,.54-.8442,1.3467-1.3184,2.4199-1.4214,1.458-.1484,2.9707,.2783,4.5361,1.2812,.5459,.3486,1.0361,.7358,1.4727,1.1616,.4365,.4253,.8164,.8931,1.1387,1.4028,.2148-.0142,.4033-.0073,.5635,.02,.1611,.0273,.2959,.0752,.4033,.144,.3223,.2065,.5137,.4995,.5732,.8789,.0605,.3794-.0908,.853-.4551,1.4214l-.3682,.5757c-.3291,.5142-.6143,.8237-.8555,.9297-.4717,.1958-.9189,.1587-1.3408-.1118-.2842-.1816-.4766-.4297-.5791-.7441-.1016-.314-.0898-.6362,.0352-.9678Z"/><path d="M306.6035,51.88l-5.1836,8.0933,2.832,1.814c.5674,.3638,.9023,.7324,1.0039,1.106,.1025,.374,.04,.7373-.1865,1.0903-.2207,.3452-.5225,.5498-.9043,.6138s-.8574-.0859-1.4248-.4497l-8.0244-5.1401c-.5684-.3638-.9023-.7324-1.0039-1.106-.1025-.3735-.04-.7368,.1865-1.0898,.2207-.3457,.5225-.5503,.9043-.6143,.3818-.0635,.8564,.0859,1.4248,.4502l2.832,1.814,3.6729-5.7334-1.9004-1.2168c-.5596-.3589-.8926-.7261-.998-1.1025-.1055-.376-.0449-.7402,.1807-1.0933,.2217-.3457,.5234-.5503,.9053-.6143,.3818-.0635,.8564,.0864,1.4238,.4502l4.2598,2.7285Zm2.5469-4.6851l-1.6006,2.498-2.8086-1.7993,1.5996-2.498,2.8096,1.7993Z"/><path d="M322.4287,62.4761l.4189-.7212,2.8359,1.6504c.583,.3394,.9336,.6934,1.0508,1.0625s.0703,.7349-.1396,1.0967c-.207,.355-.499,.5723-.8779,.6523s-.8604-.0498-1.4424-.3892l-.4141-.2402-5.1299,8.8149c-.4951,.8506-1.1064,1.4888-1.834,1.9146-.7275,.4253-1.5947,.6514-2.6006,.6772-1.0068,.0259-1.9746-.2314-2.9043-.7725l-2.7412-1.5957c-.583-.3389-.9336-.6929-1.0508-1.062s-.0732-.7305,.1328-1.085c.2109-.3628,.5059-.584,.8848-.6641s.8594,.0493,1.4424,.3887l2.6709,1.5542c.7402,.4312,1.4326,.5649,2.0762,.4014,.6426-.1631,1.1436-.5522,1.501-1.1665l.6875-1.1816c-.7373,.0347-1.4336-.0225-2.0898-.1729-.6562-.1499-1.2764-.3945-1.8594-.7334-1.6465-.9585-2.7051-2.3101-3.1758-4.0552-.4717-1.7456-.2373-3.4258,.7031-5.0405,.9443-1.623,2.291-2.6606,4.042-3.1133,1.75-.4521,3.4482-.1997,5.0947,.7588,.6143,.3574,1.1475,.7866,1.5996,1.2871s.8252,1.0786,1.1191,1.7344Zm-2.7148,4.6367c.5176-.8901,.6387-1.8535,.3613-2.8901s-.877-1.8232-1.7988-2.3594c-.9219-.5366-1.9014-.6694-2.9395-.3984-1.0391,.2715-1.8164,.8521-2.335,1.7422-.5225,.8979-.6445,1.8633-.3643,2.896,.2793,1.0327,.8799,1.8174,1.8018,2.3535,.9219,.5366,1.9004,.6714,2.9365,.4043,1.0361-.2676,1.8154-.8501,2.3379-1.748Z"/><path d="M333.0273,67.213l-.4131,.8481c.6504-.1699,1.3008-.2188,1.9492-.146,.6494,.0723,1.2969,.2661,1.9443,.5815,1.4922,.7256,2.4463,1.7632,2.8652,3.1118,.3291,1.0728,.2031,2.2075-.3799,3.4038l-2.2793,4.6841c.5332,.2593,.8691,.5674,1.0098,.9248,.1406,.3569,.1191,.7241-.0645,1.1011-.1797,.3687-.4551,.6069-.8271,.7153-.3721,.1079-.8613,.0142-1.4678-.2812l-2.2734-1.1064c-.6074-.2954-.9824-.6226-1.127-.9814-.1445-.3594-.125-.7275,.0586-1.1045,.1797-.3687,.4531-.6084,.8203-.7183,.3682-.1099,.8184-.0352,1.3516,.2241l2.3145-4.7578c.2676-.5488,.3154-1.022,.1445-1.4199-.2266-.5151-.7246-.9604-1.4941-1.3354-.582-.2832-1.1475-.4185-1.6953-.4067-.5479,.0122-1.3359,.2192-2.3623,.6216l-2.2803,4.6841c.6475,.3149,1.0361,.5796,1.165,.7944,.2812,.4414,.3066,.8999,.0752,1.375-.1797,.3687-.4551,.6069-.8271,.7148-.3711,.1084-.8604,.0146-1.4668-.2808l-2.8643-1.394c-.6074-.2949-.9824-.6221-1.127-.9814-.1445-.3589-.125-.7271,.0586-1.104,.2236-.459,.5938-.7197,1.1104-.7827,.2568-.0269,.709,.1167,1.3564,.4321l2.9795-6.1221c-.5332-.2593-.8691-.5698-1.0068-.9312-.1387-.3613-.1182-.7261,.0615-1.0952,.1797-.3687,.4551-.6069,.8271-.7148s.8604-.0146,1.4668,.2808l2.3975,1.1665Z"/><path d="M375.7031,77.4722l-4.0566,14.3682,.4609,.1299c.6396,.1807,1.0654,.436,1.2754,.7651s.2588,.6958,.1445,1.0991c-.1113,.3945-.3408,.6782-.6875,.8501s-.8447,.1665-1.4941-.0171l-3.1572-.8911,.1855-.6582c-.7158,.1865-1.4355,.2769-2.1582,.2715-.7227-.0049-1.4443-.1094-2.1631-.312-2.0264-.5723-3.4932-1.6182-4.3994-3.1387-.9062-1.52-1.1123-3.1528-.6201-4.8984,.5156-1.8247,1.6045-3.1982,3.2666-4.1211,1.6621-.9233,3.4277-1.1211,5.2959-.5933,.7012,.1978,1.3594,.5,1.9746,.9053,.6143,.4058,1.1904,.9165,1.7266,1.5317l.9473-3.355-.46-.1304c-.6494-.1831-1.0771-.4385-1.2822-.7666-.2061-.3281-.2529-.6895-.1416-1.084,.1133-.4033,.3438-.6914,.6914-.8633,.3467-.1719,.8447-.1665,1.4932,.0166l3.1582,.8916Zm-5.9287,10.6855c.3145-1.1138,.1904-2.167-.373-3.1592-.5625-.9922-1.4092-1.6484-2.541-1.9678-1.123-.3169-2.1836-.1997-3.1816,.3516-.999,.5518-1.6523,1.3716-1.959,2.459-.2803,.9912-.1592,1.9038,.3633,2.7378,.5225,.8345,1.4238,1.4321,2.7041,1.7935,1.2725,.3594,2.3535,.3213,3.2432-.1143,.8906-.4355,1.4717-1.1353,1.7441-2.1006Z"/><path d="M390.9854,92.5196c-.2002,1.0566-.6885,2.0244-1.4619,2.9023-.7744,.8784-1.7969,1.501-3.0684,1.8672-1.2705,.3667-2.5371,.4302-3.7998,.1904-1.2539-.2378-2.3994-.7539-3.4355-1.5488-1.0371-.7954-1.7607-1.7466-2.1719-2.8545-.4121-1.1079-.5146-2.2036-.3096-3.2871,.209-1.1016,.7188-2.125,1.5293-3.0703,.8096-.9458,1.8438-1.6147,3.1016-2.0073,1.2568-.3921,2.5078-.4702,3.7529-.2344,1.2529,.2378,2.4004,.7783,3.4424,1.6206s1.7578,1.8457,2.1494,3.0098c.3916,1.1646,.4824,2.3018,.2715,3.4121Zm-2.7559-.5088c.168-.8867,.0039-1.7617-.4902-2.6255-.6787-1.168-1.7256-1.8862-3.1396-2.1543-1.2451-.2363-2.3594-.0347-3.3438,.604-.9834,.6392-1.5752,1.4824-1.7734,2.5303-.1631,.8599,.1045,1.7432,.8047,2.6509,.7002,.9072,1.6631,1.4771,2.8906,1.71,1.2354,.2344,2.3447,.0576,3.3291-.5303,.9834-.5879,1.5576-1.3164,1.7227-2.1851Z"/><path d="M406.5869,88.2989c.3672-.2832,.7285-.4062,1.082-.3701,.3994,.041,.7129,.2173,.9424,.5298,.2285,.312,.3096,.7993,.2412,1.4609l-.1836,1.7954c-.0693,.6709-.2471,1.1338-.5342,1.3882s-.6396,.3604-1.0566,.3174c-.3809-.0391-.6914-.1807-.9326-.4253-.1729-.1831-.2891-.5312-.3457-1.0459-.0576-.5142-.2822-.9155-.6738-1.2031-.6895-.5103-1.6055-.8242-2.748-.9414-1.3154-.1353-2.4082,.1421-3.2812,.8315-.8721,.689-1.3691,1.623-1.4902,2.8018-.1113,1.0879,.1816,1.9863,.8779,2.6943,.6973,.7085,1.9297,1.1533,3.6982,1.335,1.1602,.1191,2.1201,.0986,2.8779-.062,.4502-.1001,.8887-.3052,1.3145-.6143,.4248-.3086,.7969-.4473,1.1143-.4146,.3809,.0391,.6953,.2134,.9424,.5229,.248,.3091,.3525,.6543,.3135,1.0352-.0635,.6167-.5449,1.1582-1.4453,1.6245-1.3359,.6968-3.21,.9214-5.6211,.6738-2.167-.2227-3.8076-.8442-4.9219-1.8657-1.5078-1.373-2.1543-3.1074-1.9395-5.2017,.2041-1.9858,1.0342-3.561,2.4912-4.7266,1.458-1.165,3.252-1.6387,5.3828-1.4199,.7705,.0791,1.4795,.2256,2.126,.4385,.6475,.2129,1.2363,.4932,1.7695,.8413Z"/><path d="M425.6484,88.5548l-.2109,9.6089c.5928,.0132,1.0273,.1548,1.3037,.4253s.4111,.6108,.4014,1.0205c-.0088,.4102-.1592,.7417-.4521,.9951s-.7764,.373-1.4512,.3584l-2.665-.0586,.0146-.6426c-.8105,.3472-1.582,.6035-2.3145,.77-.7334,.166-1.4277,.2422-2.084,.2275-.9199-.02-1.7139-.2314-2.3789-.6333-.666-.4019-1.1875-.9492-1.5645-1.6411-.2715-.4985-.3994-1.1167-.3828-1.8545l.1318-6.0278-.4785-.0107c-.6738-.0146-1.1523-.1553-1.4336-.4209-.2812-.2661-.417-.6089-.4082-1.0278,.0098-.4102,.1602-.7417,.4531-.9951s.7764-.373,1.4502-.3579l3.2803,.0718-.1826,8.3379c-.0127,.5923,.1211,1.0308,.4023,1.3149,.2803,.2842,.7168,.4326,1.3096,.4458,.5645,.0122,1.1758-.0859,1.832-.2949s1.4697-.5947,2.4395-1.1567l.125-5.7134-1.0117-.0225c-.6738-.0146-1.1523-.1553-1.4336-.4209-.2812-.2661-.417-.6089-.4082-1.0278,.0088-.4102,.1602-.7422,.4531-.9951,.293-.2534,.7754-.373,1.4502-.3584l3.8135,.084Z"/><path d="M432.8506,88.3736l.041,.792c.4316-.4697,.8271-.7988,1.1875-.9868,.3594-.1875,.7803-.2944,1.2627-.3198,.4102-.0215,.8203,.0576,1.2314,.2363,.4111,.1792,.8184,.459,1.2217,.8394,.4609-.4258,.9346-.7495,1.4199-.9717,.4863-.2217,.9883-.3462,1.5068-.3735,1.0381-.0547,1.8945,.1787,2.5703,.6997,.8936,.6831,1.3721,1.6162,1.4346,2.7998l.3301,6.2666c.582-.0308,1.0215,.0786,1.3174,.3276s.4551,.5781,.4766,.9878-.1016,.7515-.3701,1.0259-.7402,.4292-1.4131,.4644l-2.6621,.1406-.4658-8.8335c-.0225-.4277-.1152-.7197-.2783-.8755-.1641-.1553-.4053-.2251-.7236-.208-.3096,.0161-.5918,.1133-.8467,.291-.3252,.2451-.7119,.6943-1.1611,1.3481l.2969,5.6387c.582-.0308,1.0215,.0786,1.3174,.3276s.4551,.5781,.4766,.9878-.1016,.7515-.3701,1.0259-.7393,.4292-1.4131,.4644l-2.6621,.1406-.4658-8.8335c-.0215-.4185-.1172-.708-.2852-.8682-.168-.1597-.4111-.2314-.7295-.2148-.3281,.0171-.6455,.1367-.9531,.3584-.3086,.2217-.6689,.6489-1.083,1.2822l.2969,5.6387c.583-.0308,1.0244,.0786,1.3252,.3271,.3008,.249,.4619,.5781,.4834,.9878s-.1045,.7515-.3779,1.0264c-.2725,.2744-.7461,.4292-1.4199,.4648l-2.5254,.1328c-.6738,.0356-1.1602-.0688-1.4609-.313-.3008-.2446-.4619-.5757-.4834-.9946-.0215-.4097,.1016-.7515,.3701-1.0259,.2686-.2739,.6982-.4268,1.29-.458l-.3584-6.7993c-.5918,.0312-1.0352-.0776-1.3311-.3267s-.4551-.5786-.4766-.9883,.1045-.7515,.377-1.0259c.2734-.2744,.7461-.4297,1.4199-.4653l2.6631-.1401Z"/><path d="M462.4678,93.3516l-11.4141,1.3848c.377,.689,.9609,1.2104,1.752,1.564,.792,.354,1.8164,.4546,3.0742,.3022,1.0312-.1255,2.375-.5132,4.0312-1.1641,.6836-.2666,1.1611-.4165,1.4326-.4492,.3711-.0449,.6992,.0483,.9844,.2798,.2852,.2319,.4521,.5469,.5,.9448,.0439,.3618-.0537,.686-.2949,.9722-.3213,.3789-1.165,.8047-2.5303,1.2778-1.3662,.4731-2.6953,.7886-3.9893,.9453-2.2266,.27-4.083-.1426-5.5693-1.2383-1.4873-1.0957-2.3428-2.562-2.5654-4.3989-.2373-1.9546,.291-3.6323,1.5859-5.0332,1.2939-1.4014,2.8828-2.2158,4.7646-2.4443,1.1309-.1372,2.1934-.064,3.1875,.2192,.9932,.2837,1.749,.6279,2.2666,1.0332,.7334,.5908,1.3721,1.3535,1.917,2.2881,.373,.6523,.6143,1.4312,.7236,2.3359l.1436,1.1807Zm-3.4189-2.4087c-.5215-.7441-1.1504-1.272-1.8857-1.582s-1.5781-.4077-2.5283-.2925c-.9404,.1143-1.7314,.4097-2.3711,.8867s-1.1289,1.1401-1.4668,1.9893l8.252-1.0015Z"/><path d="M469.0381,84.4942l.1719,.9277c.4219-.5229,.916-.9478,1.4814-1.2744s1.2021-.5557,1.9102-.686c1.6309-.3013,3.0156-.0327,4.1523,.8047,.9023,.6675,1.4736,1.6558,1.7148,2.9644l.9453,5.1226c.583-.1074,1.0371-.0591,1.3613,.145,.3252,.2041,.5264,.5127,.6016,.9248,.0752,.4033-.0059,.7588-.2402,1.0664-.2354,.3076-.6846,.5225-1.3486,.6445l-2.4873,.4595c-.6631,.1221-1.1592,.0815-1.4883-.1216-.3301-.2036-.5322-.5112-.6084-.9233-.0752-.4038,.0029-.7588,.2344-1.0654,.2305-.3066,.6367-.5137,1.2197-.6211l-.96-5.2031c-.1113-.6006-.3535-1.0103-.7275-1.2285-.4873-.2808-1.1523-.3433-1.9951-.188-.6367,.1177-1.1719,.3438-1.6055,.6787s-.9453,.9692-1.5322,1.9023l.9453,5.1226c.707-.1304,1.1768-.1475,1.4082-.0513,.4883,.188,.7812,.542,.877,1.0615,.0742,.4033-.0059,.7588-.2412,1.0664s-.6846,.5225-1.3477,.645l-3.1328,.5781c-.6631,.1221-1.1592,.0815-1.4893-.1216-.3291-.2031-.5322-.5112-.6084-.9233-.0918-.502,.0508-.9316,.4297-1.2891,.1904-.1738,.6396-.3262,1.3477-.457l-1.2354-6.6958c-.583,.1079-1.0371,.0571-1.3623-.1514-.3262-.2085-.5264-.5146-.6006-.918s.0059-.7588,.2412-1.0664,.6836-.5225,1.3477-.645l2.6211-.4839Z"/><path d="M488.9395,83.1998l1.3271,5.4604c.1426,.5845,.3555,.9404,.6396,1.0684,.4434,.2021,1.1426,.1865,2.0996-.0459,1.3906-.3379,2.6025-.9468,3.6357-1.8267,.3965-.3398,.7227-.541,.9795-.6035,.3535-.0859,.6943-.0278,1.0195,.1743,.3262,.2021,.5352,.4937,.6279,.8745,.0859,.354,.0186,.6943-.2021,1.02-.333,.5215-1.0967,1.1128-2.291,1.7739-1.1953,.6606-2.2314,1.0977-3.1074,1.311-1.6924,.4111-3.0498,.354-4.0732-.1709-1.0234-.5254-1.6641-1.3193-1.9219-2.3818l-1.457-5.9917-.9824,.2388c-.6562,.1592-1.1533,.1465-1.4941-.0381-.3398-.1846-.5596-.4805-.6592-.8877-.0967-.3989-.0361-.7583,.1816-1.0781,.2178-.3203,.6543-.5601,1.3096-.7192l.9834-.2393-.5977-2.4575c-.1592-.6553-.1465-1.1533,.0381-1.4937s.4805-.5601,.8877-.6592c.3984-.0967,.7578-.0366,1.0781,.1812s.5605,.6543,.7197,1.3096l.5967,2.458,5.0352-1.2241c.6553-.1592,1.1533-.1465,1.4941,.0381,.3398,.1846,.5596,.481,.6592,.8882,.0967,.3984,.0361,.7578-.1816,1.0781s-.6543,.5601-1.3096,.7192l-5.0352,1.2236Z"/><path d="M511.7676,86.9351l-.1875-.6289c-.5664,.5581-1.2285,1.0474-1.9883,1.4678-.7588,.4204-1.4707,.7295-2.1348,.9268-1.4414,.4282-2.7266,.3936-3.8535-.1035s-1.8281-1.2085-2.1025-2.1348c-.335-1.1274-.0713-2.3442,.791-3.6509,.8613-1.3066,2.3066-2.2612,4.333-2.8633,.8125-.2417,1.7783-.4331,2.8965-.5752l-.1914-.6421c-.1191-.4019-.3896-.6782-.8096-.8291-.4209-.1509-1.1152-.0825-2.085,.2056-.7959,.2363-1.7803,.7002-2.9531,1.3906-.4385,.2539-.7881,.4199-1.0498,.4976-.3584,.1064-.7002,.0679-1.0264-.1162-.3252-.1836-.5479-.4761-.667-.8784-.0674-.2271-.083-.4365-.0439-.6284,.0371-.1919,.1201-.3618,.248-.5088,.127-.147,.4189-.3647,.876-.6523,.6094-.3809,1.2432-.728,1.9004-1.0425,.6582-.3145,1.2666-.5547,1.8252-.7207,1.6689-.4956,3.0713-.52,4.207-.0732,1.1367,.4473,1.8896,1.2954,2.2607,2.5444l1.6436,5.5308,.458-.1362c.6465-.1919,1.1445-.2046,1.4941-.0371,.3496,.167,.583,.4521,.7031,.8535,.1162,.3936,.0742,.7554-.127,1.0859-.2012,.3311-.625,.5923-1.2715,.7847l-3.1455,.9341Zm-1.4287-4.8096c-1.1377,.1094-2.1602,.2993-3.0684,.5688-1.0928,.3247-1.9521,.8701-2.5811,1.6367-.3877,.4863-.5293,.9038-.4258,1.2534,.0752,.2534,.2539,.4238,.5371,.5107,.5225,.1587,1.1631,.125,1.9238-.1006,.6465-.1924,1.3398-.5361,2.082-1.0322,.7412-.4961,1.3662-1.0571,1.875-1.6836l-.3428-1.1533Z"/><path d="M522.7236,73.2618l1.8438,5.3081c.1973,.5684,.4434,.9023,.7393,1.0024,.46,.1587,1.1553,.0767,2.085-.2466,1.3516-.4692,2.5-1.1914,3.4453-2.166,.3613-.376,.666-.6074,.916-.6943,.3447-.1196,.6885-.0942,1.0322,.0757,.3438,.1704,.5801,.4404,.709,.8105,.1191,.3442,.085,.6895-.1045,1.0347-.2812,.5513-.9854,1.2129-2.1113,1.9849-1.126,.7725-2.1152,1.3062-2.9678,1.6025-1.6445,.5708-3.001,.644-4.0693,.2192-1.0693-.4248-1.7832-1.1538-2.1416-2.187l-2.0234-5.8247-.9551,.3315c-.6377,.2217-1.1348,.2563-1.4912,.1055-.3564-.1514-.6025-.4248-.7402-.8213-.1348-.3872-.1094-.751,.0771-1.0903,.1855-.3394,.5977-.6201,1.2344-.8413l.9561-.332-.8301-2.3892c-.2207-.6372-.2559-1.1338-.1045-1.4902,.1504-.3564,.4248-.6035,.8203-.7412,.3877-.1343,.751-.1089,1.0908,.0771s.6201,.5977,.8408,1.2349l.8301,2.3892,4.8945-1.6997c.6377-.2212,1.1348-.2563,1.4912-.105s.6035,.4248,.7402,.8208c.1348,.3877,.1094,.751-.0771,1.0908-.1855,.3394-.5977,.6201-1.2344,.8413l-4.8955,1.6997Z"/><path d="M539.8906,63.8995l3.5176,8.9448,3.1299-1.231c.6279-.2471,1.123-.3022,1.4854-.1655s.6201,.4004,.7734,.7905c.1494,.3813,.1387,.7456-.0332,1.0928-.1719,.3467-.5723,.6436-1.1992,.8901l-8.8682,3.4878c-.6279,.2471-1.123,.3022-1.4854,.1655s-.6201-.3999-.7734-.7905c-.1504-.3813-.1396-.7456,.0332-1.0928,.1719-.3467,.5713-.6436,1.1992-.8901l3.1299-1.2314-2.4922-6.3359-2.0986,.8257c-.6191,.2437-1.1123,.2979-1.4785,.1626-.3672-.1348-.627-.3975-.7803-.7876-.1504-.3818-.1387-.7461,.0332-1.0928s.5713-.6436,1.1992-.8906l4.708-1.8516Zm-2.3027-4.8091l1.0859,2.7612-3.1045,1.2207-1.0859-2.7607,3.1045-1.2212Z"/><path d="M563.5205,60.9019c.4297,.9863,.5723,2.0601,.4268,3.2217-.1445,1.1621-.6387,2.2524-1.4824,3.271-.8438,1.019-1.8545,1.7852-3.0322,2.2983-1.1699,.5098-2.4072,.728-3.7119,.6553s-2.4385-.4512-3.4023-1.1348-1.666-1.5308-2.1064-2.542c-.4482-1.0273-.6035-2.1602-.4668-3.3979s.6143-2.3726,1.4316-3.4053c.8174-1.0322,1.8076-1.8018,2.9688-2.3076,1.1699-.5098,2.4219-.71,3.7578-.6011,1.335,.1094,2.4922,.5347,3.4717,1.2764,.9785,.7412,1.6943,1.6304,2.1455,2.666Zm-2.5635,1.1323c-.3604-.8271-.9883-1.458-1.8838-1.8936-1.2188-.5825-2.4883-.5859-3.8086-.0107-1.1611,.5059-1.9678,1.3003-2.4209,2.3823-.4531,1.0825-.4668,2.1123-.041,3.0898,.3496,.8022,1.0693,1.3813,2.1582,1.7363,1.0898,.356,2.207,.2842,3.3516-.2148,1.1533-.5024,1.9707-1.2734,2.4521-2.3135s.5449-1.9653,.1924-2.7759Z"/><path d="M567.1855,52.0723l.4053,.8521c.2725-.6147,.6396-1.1528,1.1016-1.6143,.4619-.4619,1.0176-.8477,1.668-1.1567,1.498-.7129,2.9043-.8115,4.2188-.2964,1.0439,.4116,1.8516,1.2188,2.4238,2.4204l2.2373,4.7036c.5352-.2544,.9863-.3252,1.3525-.2119,.3672,.1133,.6406,.3594,.8203,.7378,.1768,.3701,.1904,.7344,.043,1.0923s-.5264,.6821-1.1348,.9717l-2.2842,1.0864c-.6094,.29-1.0996,.3789-1.4707,.2676-.3701-.1108-.6455-.356-.8262-.7344-.1758-.3706-.1924-.7339-.0488-1.0898s.4824-.6611,1.0176-.9155l-2.2725-4.7778c-.2627-.5513-.6025-.8843-1.0205-.9985-.543-.145-1.2021-.0337-1.9756,.334-.584,.2783-1.043,.6353-1.375,1.0708-.333,.436-.6631,1.1807-.9893,2.2344l2.2383,4.7036c.6494-.3091,1.0986-.4473,1.3467-.4136,.5205,.0547,.8955,.3213,1.1221,.7983,.1758,.3706,.1904,.7349,.043,1.0928s-.5264,.6816-1.1357,.9712l-2.876,1.3687c-.6094,.2896-1.0996,.3789-1.4697,.2676-.3711-.1113-.6465-.356-.8271-.7349-.2188-.4609-.1914-.9126,.082-1.356,.1387-.2173,.5332-.481,1.1836-.79l-2.9248-6.1484c-.5352,.2544-.9873,.3232-1.3555,.2056-.3691-.1172-.6416-.3608-.8174-.7314-.1768-.3701-.1904-.7344-.043-1.0923s.5264-.6816,1.1348-.9717l2.4082-1.145Z"/></g><g><path d="M782.2998,100.921l-5.0117,4.6074,.6533,1.7207,.5029-.4619c.4961-.457,.9385-.6865,1.3252-.6895,.3877-.0039,.7227,.1494,1.0068,.458,.2773,.3018,.3984,.6455,.3633,1.0312-.0361,.3857-.3018,.8066-.7988,1.2627l-2.7773,2.5537c-.4971,.457-.9385,.6865-1.3252,.6895-.3877,.0039-.7227-.1494-1.0068-.458s-.4043-.6621-.3623-1.0605c.043-.3975,.3252-.8242,.8477-1.2803l-4.1807-11.0508-1.3486,1.2393c-.4961,.457-.9385,.6865-1.3252,.6895s-.7227-.1494-1.0068-.458c-.2832-.3086-.4072-.6562-.3721-1.041,.0361-.3857,.3018-.8066,.7979-1.2637l4.4688-4.0889,13.4238,6.3604c.4834-.4443,.8516-.6836,1.1045-.7188,.5117-.0615,.9346,.0879,1.2676,.4502,.2783,.3018,.4004,.6445,.3682,1.0264-.0322,.3828-.2959,.8027-.793,1.2588l-2.7773,2.5537c-.4971,.457-.9385,.6865-1.3262,.6895-.3867,.0029-.7227-.1494-1.0059-.458-.2783-.3027-.3994-.6465-.3633-1.0312,.0352-.3857,.3018-.8066,.7979-1.2637l.5029-.4619-1.6494-.8047Zm-2.752-1.2773l-5.418-2.5596,2.0859,5.6221,3.332-3.0625Z"/><path d="M792.1699,86.0938c-.5293,.084-1.0303,.2354-1.5029,.4551-.4717,.2197-.915,.5078-1.3301,.8643-.8223,.707-1.3594,1.4033-1.6113,2.0889-.1133,.3027-.1104,.5225,.0088,.6602,.1367,.1592,.416,.1895,.8369,.0918,.3154-.0791,.9023-.3975,1.7578-.9531,1.5762-1.0195,2.7236-1.6699,3.4434-1.9521,.9453-.3682,1.832-.4697,2.6602-.3037,.8271,.165,1.4824,.5283,1.9639,1.0879,.6533,.7598,.8652,1.6836,.6348,2.7715-.3242,1.5664-1.2539,3.0088-2.7881,4.3281-.6143,.5293-1.2295,.9639-1.8428,1.3057-.6143,.3418-1.2275,.5957-1.8408,.7637-.0264,.1787-.0781,.3428-.1543,.4922-.0752,.1494-.1758,.2773-.2998,.3848-.332,.2852-.6895,.4033-1.0742,.3555-.3838-.0479-.7959-.3281-1.2354-.8398l-.6152-.7148c-.4404-.5107-.6553-.96-.6455-1.3477,.0098-.3867,.1738-.7168,.4912-.9902,.2559-.2197,.5312-.333,.8252-.3408,.2949-.0068,.6396,.1211,1.0332,.3828,.5625-.002,1.1328-.1289,1.7109-.3799,.5771-.251,1.1631-.6318,1.7578-1.1426,.9746-.8379,1.6006-1.6406,1.8779-2.4092,.125-.3711,.1162-.6406-.0273-.8066-.2373-.2764-.6162-.3467-1.1377-.2109-.5205,.1348-1.4082,.6338-2.6621,1.4961-1.8613,1.2891-3.2979,1.9238-4.3115,1.9062-1.0078-.0117-1.8291-.3867-2.4648-1.126-.6543-.7598-.877-1.6689-.668-2.7256,.2764-1.4404,1.1191-2.7666,2.5283-3.9795,.4912-.4219,1.0029-.7803,1.5352-1.0771,.5332-.2959,1.0898-.5254,1.6709-.6885,.0479-.209,.1084-.3877,.1807-.5342,.0732-.1465,.1572-.2607,.2539-.3447,.29-.249,.626-.3486,1.0068-.2969,.3799,.0508,.791,.332,1.2305,.8438l.4453,.5176c.3984,.4639,.6143,.8252,.6455,1.0859,.0527,.5088-.1113,.9258-.4912,1.2529-.2559,.2197-.5488,.334-.8789,.3408-.3301,.0078-.6357-.0957-.917-.3115Z"/><path d="M805.8936,74.8634c-.5322,.0635-1.0381,.1953-1.5186,.3975-.4795,.2021-.9336,.4736-1.3613,.8145-.8477,.6768-1.4102,1.3525-1.6875,2.0283-.124,.2979-.1299,.5176-.0156,.6602,.1299,.1641,.4082,.2051,.832,.123,.3193-.0684,.917-.3643,1.793-.8877,1.6123-.96,2.7832-1.5674,3.5127-1.8223,.959-.333,1.8486-.4014,2.6699-.2061,.8203,.1963,1.4609,.583,1.9219,1.1602,.625,.7842,.8018,1.7158,.5312,2.7939-.3818,1.5527-1.3643,2.96-2.9463,4.2217-.6348,.5059-1.2646,.918-1.8906,1.2363s-1.249,.5498-1.8682,.6943c-.0332,.1777-.0898,.3398-.1719,.4863-.0811,.1465-.1855,.2705-.3145,.373-.3418,.2725-.7041,.3779-1.0859,.3154s-.7832-.3574-1.2041-.8848l-.5879-.7373c-.4209-.5273-.6191-.9844-.5947-1.3711,.0244-.3857,.2002-.71,.5273-.9717,.2637-.21,.543-.3125,.8379-.3086s.6338,.1436,1.0176,.4209c.5625,.0176,1.1367-.0879,1.7236-.3164,.5869-.2295,1.1865-.5879,1.7998-1.0771,1.0049-.8008,1.6602-1.5801,1.9658-2.3369,.1387-.3672,.1396-.6367,.0029-.8076-.2275-.2842-.6035-.3691-1.1289-.2529-.5254,.1152-1.4307,.5811-2.7158,1.3965-1.9082,1.2178-3.3682,1.7998-4.3799,1.7441-1.0068-.0488-1.8135-.4541-2.4219-1.2168-.625-.7842-.8135-1.7002-.5654-2.749,.3291-1.4287,1.2207-2.7227,2.6748-3.8818,.5059-.4033,1.0303-.7432,1.5742-1.0195,.543-.2754,1.1084-.4844,1.6953-.626,.0557-.208,.1221-.3838,.2002-.5273s.166-.2549,.2666-.335c.2988-.2383,.6377-.3252,1.0166-.2598,.3779,.0654,.7783,.3623,1.1982,.8896l.4268,.5342c.3809,.4775,.582,.8467,.6045,1.1094,.0332,.5098-.1465,.9199-.5381,1.2324-.2637,.2109-.5605,.3135-.8906,.3086s-.6318-.1191-.9053-.3447Z"/><path d="M825.8965,65.3087l-9.2812,6.7861c.666,.417,1.4307,.5859,2.2939,.5078,.8633-.0771,1.8066-.4902,2.8291-1.2383,.8389-.6133,1.8213-1.6084,2.9482-2.9863,.4668-.5664,.8096-.9307,1.0303-1.0918,.3018-.2207,.6338-.2998,.9961-.2373,.3613,.0635,.6611,.2568,.8975,.5801,.2158,.2939,.2881,.625,.2178,.9922-.0947,.4883-.623,1.2715-1.583,2.3516-.96,1.0811-1.9658,2.0059-3.0186,2.7754-1.8096,1.3232-3.6309,1.8701-5.4639,1.6416-1.833-.2295-3.2959-1.0908-4.3877-2.584-1.1621-1.5898-1.5215-3.3115-1.0762-5.167,.4443-1.8545,1.4316-3.3418,2.9619-4.4609,.9199-.6729,1.8818-1.1279,2.8877-1.3662s1.833-.3076,2.4824-.207c.9287,.1572,1.8584,.5107,2.791,1.0596,.6436,.3867,1.2354,.9482,1.7734,1.6846l.7012,.96Zm-4.1592-.4307c-.8193-.3945-1.625-.5479-2.4189-.459-.793,.0889-1.5752,.416-2.3486,.9805-.7646,.5596-1.3096,1.2041-1.6348,1.9326-.3252,.7295-.4277,1.5469-.3076,2.4521l6.71-4.9062Z"/><path d="M831.3926,55.7794l3.1006,4.6865c.3311,.502,.6533,.7646,.9639,.7891,.4854,.0391,1.1377-.2129,1.959-.7559,1.1934-.7891,2.1279-1.7725,2.8018-2.9512,.2568-.4541,.4961-.7539,.7158-.8994,.3047-.2012,.6445-.2617,1.0195-.1826,.375,.0801,.6709,.2832,.8867,.6104,.2012,.3037,.2529,.6465,.1553,1.0283-.1357,.6035-.6543,1.4189-1.5537,2.4453-.9004,1.0273-1.7266,1.7891-2.4795,2.2871-1.4512,.9609-2.748,1.3672-3.8887,1.2207-1.1406-.1475-2.0127-.6768-2.6162-1.5889l-3.4014-5.1436-.8447,.5586c-.5625,.3721-1.0352,.5283-1.418,.4707-.3818-.0586-.6895-.2627-.9209-.6123-.2256-.3418-.291-.7002-.1953-1.0752,.0967-.376,.4258-.749,.9883-1.1211l.8438-.5586-1.3945-2.1094c-.3721-.5625-.5293-1.0352-.4707-1.418,.0576-.3828,.2617-.6895,.6113-.9209,.3418-.2266,.7012-.291,1.0762-.1953,.375,.0967,.748,.4258,1.1201,.9883l1.3955,2.1094,4.3223-2.8584c.5625-.3721,1.0352-.5293,1.418-.4707s.6895,.2627,.9209,.6123c.2266,.3418,.291,.7002,.1953,1.0752-.0967,.375-.4258,.749-.9883,1.1211l-4.3223,2.8584Z"/><path d="M860.332,29.4825l6.7734,13.3047,2.9971-1.5254c.6006-.3066,1.0879-.4082,1.4619-.3076,.374,.1016,.6553,.3389,.8457,.7129,.1865,.3652,.21,.7285,.0723,1.0908-.1377,.3613-.5078,.6953-1.1084,1.001l-8.4922,4.3232c-.6016,.3066-1.0889,.4082-1.4629,.3076-.373-.1016-.6553-.3389-.8457-.7129-.1855-.3652-.21-.7285-.0723-1.0908,.1387-.3613,.5078-.6953,1.1094-1.001l2.9971-1.5264-5.502-10.8066-2.0098,1.0234c-.5938,.3018-1.0791,.4033-1.4561,.3037-.3779-.0996-.6621-.3359-.8525-.709-.1855-.3662-.21-.7295-.0723-1.0908,.1387-.3623,.5078-.6963,1.1094-1.002l4.5078-2.2949Z"/><path d="M879.1836,26.6407l3.7656,8.8428,3.0947-1.3174c.6201-.2646,1.1133-.333,1.4795-.207,.3662,.127,.6309,.3828,.7959,.7686,.1602,.377,.1592,.7422-.0029,1.0928-.1621,.3516-.5537,.6602-1.1748,.9238l-8.7676,3.7334c-.6201,.2646-1.1133,.333-1.4795,.207-.3662-.127-.6309-.3828-.7949-.7686-.1611-.377-.1602-.7422,.002-1.0938,.1631-.3506,.5537-.6592,1.1748-.9229l3.0947-1.3184-2.668-6.2637-2.0752,.8838c-.6123,.2607-1.1035,.3281-1.4736,.2041-.3701-.125-.6377-.3799-.8018-.7666-.1602-.377-.1592-.7412,.0029-1.0928s.5537-.6592,1.1738-.9238l4.6543-1.9814Zm-2.4355-4.7432l1.1621,2.7295-3.0693,1.3066-1.1621-2.7295,3.0693-1.3066Z"/><path d="M898.7871,22.8468c-.5225-.1221-1.043-.1699-1.5635-.1436-.5195,.0264-1.0391,.127-1.5576,.3018-1.0273,.3467-1.7871,.791-2.2773,1.332-.2188,.2373-.2979,.4414-.2402,.6143,.0674,.1992,.3145,.332,.7412,.3994,.3232,.0449,.9854-.0293,1.9883-.2236,1.8428-.3525,3.1504-.5244,3.9238-.5156,1.0146,.0137,1.874,.252,2.5791,.7168,.7051,.4639,1.1758,1.0459,1.4111,1.7451,.3213,.9502,.1699,1.8867-.4521,2.8076-.8887,1.3301-2.291,2.3174-4.208,2.9648-.7695,.2588-1.502,.4316-2.1992,.5176-.6973,.0869-1.3613,.0918-1.9932,.0166-.0918,.1562-.2002,.2891-.3271,.3984-.126,.1104-.2666,.1914-.4229,.2441-.4141,.1396-.79,.1152-1.1279-.0732-.3379-.1895-.6152-.6035-.8311-1.2422l-.3018-.8945c-.2148-.6387-.2461-1.1357-.0918-1.4912,.1543-.3545,.4307-.5996,.8271-.7334,.3193-.1074,.6172-.1094,.8936-.0059,.2754,.1045,.5459,.3525,.8135,.7432,.5215,.209,1.0986,.3057,1.7275,.29,.6299-.0156,1.3164-.1484,2.0586-.3994,1.2178-.4111,2.0996-.9199,2.6445-1.5273,.2559-.2979,.3486-.5498,.2783-.7578-.1162-.3447-.4414-.5527-.9746-.623-.5342-.0693-1.5439,.0596-3.0293,.3877-2.209,.4951-3.7793,.5439-4.7119,.1475-.9297-.3887-1.5508-1.0449-1.8623-1.9697-.3203-.9492-.1855-1.875,.4043-2.7764,.7969-1.2314,2.0762-2.1436,3.8379-2.7383,.6133-.207,1.2227-.3477,1.8271-.4219,.6055-.0742,1.208-.0781,1.8076-.0107,.123-.1768,.2461-.3193,.3682-.4277s.2432-.1826,.3643-.2236c.3623-.123,.7109-.0889,1.0449,.1016,.333,.1904,.6074,.6055,.8232,1.2441l.2188,.6484c.1953,.5781,.2588,.9941,.1904,1.248-.1426,.4912-.4512,.8164-.9258,.9766-.3193,.1074-.6338,.1035-.9424-.0137s-.5537-.3281-.7334-.6328Z"/><path d="M912.3711,18.503l1.3291,5.459c.1426,.585,.3564,.9414,.6406,1.0684,.4434,.2021,1.1426,.1865,2.0996-.0469,1.3896-.3379,2.6016-.9473,3.6348-1.8281,.3955-.3398,.7217-.541,.9785-.6045,.3545-.0859,.6943-.0283,1.0205,.1738s.5352,.4941,.6279,.874c.0869,.3545,.0195,.6953-.2021,1.0205-.332,.5225-1.0957,1.1133-2.29,1.7754-1.1943,.6611-2.2305,1.0986-3.1064,1.3125-1.6914,.4121-3.0498,.3555-4.0732-.1689s-1.665-1.3184-1.9238-2.3809l-1.459-5.9912-.9824,.2393c-.6562,.1602-1.1533,.1475-1.4941-.0371-.3398-.1846-.5596-.4805-.6592-.8877-.0967-.3984-.0371-.7578,.1807-1.0781s.6533-.5605,1.3096-.7197l.9824-.2402-.5986-2.457c-.1592-.6553-.1475-1.1533,.0371-1.4932,.1846-.3408,.4805-.5605,.8877-.6602,.3984-.0967,.7578-.0361,1.0781,.1807,.3213,.2178,.5605,.6543,.7207,1.3096l.5986,2.457,5.0342-1.2256c.6553-.1602,1.1533-.1475,1.4932,.0371,.3408,.1846,.5605,.4805,.6602,.8877,.0967,.3984,.0361,.7578-.1807,1.0781-.2178,.3203-.6543,.5605-1.3096,.7197l-5.0342,1.2266Z"/><path d="M951.6934,22.7559l-.0254-.6562c-.6875,.4014-1.4502,.7109-2.29,.9297-.8398,.2197-1.6064,.3428-2.2979,.3691-1.5029,.0576-2.7393-.2939-3.708-1.0547s-1.4717-1.623-1.5088-2.5889c-.0449-1.1748,.5117-2.2891,1.6709-3.3408,1.1582-1.0527,2.7949-1.6201,4.9072-1.7012,.8477-.0322,1.8301,.0205,2.9482,.1602l-.0254-.6699c-.0166-.418-.21-.7529-.5791-1.0039-.3701-.25-1.0605-.3555-2.0713-.3164-.8291,.0312-1.8975,.2373-3.2061,.6162-.4873,.1367-.8672,.2109-1.1406,.2217-.373,.0137-.6953-.1084-.9648-.3672-.2695-.2578-.4131-.5967-.4287-1.0156-.0098-.2373,.0283-.4443,.1123-.6201,.085-.1768,.207-.3203,.3672-.4316,.1592-.1113,.4961-.25,1.0098-.415,.6846-.2178,1.3848-.3975,2.0996-.5391,.7158-.1416,1.3643-.2236,1.9473-.2461,1.7393-.0674,3.1045,.2568,4.0947,.9707,.9893,.7148,1.5098,1.7227,1.5596,3.0254l.2217,5.7656,.4785-.0186c.6738-.0264,1.1592,.085,1.4561,.334,.2969,.248,.4531,.582,.4697,1.001,.0156,.4102-.1152,.75-.3916,1.0205-.2773,.2705-.7529,.4189-1.4268,.4453l-3.2783,.126Zm-.1934-5.0137c-1.1289-.1758-2.167-.2451-3.1143-.209-1.1377,.0439-2.1064,.3594-2.9043,.9463-.4971,.375-.7383,.7451-.7236,1.1094,.0098,.2637,.1406,.4736,.3936,.6279,.4668,.2832,1.0967,.4092,1.8887,.3789,.6738-.0264,1.4316-.1875,2.2734-.4844,.8408-.2969,1.5859-.6865,2.2324-1.167l-.0459-1.2021Z"/><path d="M964.291,10.546l-.0684,.9404c.541-.3994,1.126-.6865,1.7549-.8604,.6299-.1738,1.3037-.2354,2.0215-.1836,1.6543,.1191,2.9268,.7266,3.8164,1.8232,.7051,.873,1.0098,1.9736,.9141,3.3008l-.374,5.1953c.5908,.043,1.0176,.2041,1.2812,.4834,.2627,.2793,.3799,.6279,.3496,1.0459-.0293,.4092-.1963,.7334-.502,.9717-.3047,.2383-.7939,.333-1.4668,.2852l-2.5225-.1816c-.6729-.0488-1.1426-.2129-1.4102-.4922-.2686-.2793-.3867-.6289-.3564-1.0469,.0293-.4092,.1943-.7334,.4941-.9717,.3008-.2393,.7461-.3369,1.3379-.2949l.3789-5.2773c.0439-.6084-.0869-1.0664-.3945-1.3711-.4014-.3945-1.0293-.623-1.8838-.6846-.6455-.0459-1.2197,.0381-1.7246,.2529-.5039,.2158-1.1582,.7002-1.9619,1.4561l-.374,5.1953c.7188,.0518,1.1768,.1533,1.377,.3047,.4248,.3047,.6191,.7207,.5811,1.248-.0293,.4092-.1963,.7334-.501,.9717-.3057,.2383-.7939,.333-1.4668,.2852l-3.1777-.2285c-.6729-.0488-1.1426-.2129-1.4102-.4922-.2676-.2803-.3867-.6289-.3564-1.0469,.0361-.5098,.2832-.8887,.7393-1.1396,.2285-.1201,.7012-.1553,1.4199-.1035l.4883-6.791c-.5908-.042-1.0176-.2051-1.2803-.4893s-.3799-.6309-.3506-1.04,.1973-.7324,.502-.9707c.3047-.2393,.7939-.334,1.4668-.2852l2.6592,.1914Z"/><path d="M992.7285,9.0753l-2.7598,14.6729,.4697,.0879c.6543,.123,1.1006,.3398,1.3389,.6484,.2383,.3096,.3193,.6699,.2422,1.082-.0762,.4033-.2793,.7061-.6094,.9082s-.8271,.2412-1.4893,.1162l-3.2246-.6064,.126-.6719c-.6963,.249-1.4043,.4033-2.125,.4629-.7207,.0586-1.4482,.0195-2.1826-.1191-2.0693-.3887-3.623-1.2998-4.6611-2.7334s-1.3896-3.041-1.0537-4.8242c.3506-1.8633,1.3115-3.3281,2.8857-4.3955,1.5732-1.0674,3.3135-1.4219,5.2217-1.0625,.7168,.1348,1.3994,.377,2.0479,.7256,.6484,.3496,1.2666,.8066,1.8564,1.3721l.6445-3.4268-.4707-.0879c-.6631-.125-1.1113-.3418-1.3457-.6504-.2334-.3076-.3125-.6641-.2373-1.0664,.0781-.4121,.2812-.7197,.6123-.9219,.3301-.2021,.8262-.2412,1.4893-.1162l3.2246,.6064Zm-4.9531,11.1719c.2139-1.1377-.0039-2.1758-.6523-3.1143-.6494-.9375-1.5518-1.5156-2.707-1.7334-1.1465-.2158-2.1924-.0039-3.1377,.6348-.9463,.6377-1.5234,1.5127-1.7324,2.623-.1904,1.0127,.0117,1.9102,.6064,2.6943s1.5459,1.2998,2.8535,1.5459c1.2988,.2441,2.3721,.1094,3.2197-.4033s1.3643-1.2617,1.5498-2.2471Z"/><path d="M1028.7119,22.1671l-6.1992,13.582,.4355,.1992c.6055,.2754,.9863,.5928,1.1445,.9502,.1572,.3574,.1494,.7266-.0254,1.1084-.1699,.373-.4395,.6182-.8086,.7354s-.8604,.0352-1.4736-.2441l-2.9854-1.3633,.2842-.6211c-.7363,.0752-1.4609,.0547-2.1748-.0605s-1.4102-.3281-2.0898-.6387c-1.916-.874-3.2051-2.1318-3.8691-3.7725s-.6201-3.2852,.1338-4.9355c.7871-1.7246,2.0723-2.917,3.8555-3.5752,1.7832-.6592,3.5586-.585,5.3242,.2207,.6641,.3027,1.2676,.7012,1.8135,1.1963,.5459,.4941,1.0371,1.0869,1.4736,1.7764l1.4473-3.1709-.4346-.1992c-.6143-.2803-.9971-.5977-1.1504-.9531s-.1455-.7197,.0254-1.0928c.1738-.3818,.4453-.6309,.8145-.748s.8604-.0361,1.4736,.2441l2.9854,1.3623Zm-7.4883,9.6572c.4805-1.0527,.5186-2.1123,.1133-3.1797-.4053-1.0664-1.1426-1.8438-2.2119-2.3311-1.0615-.4854-2.1279-.5303-3.1982-.1377-1.0713,.3926-1.8408,1.1035-2.3105,2.1318-.4277,.9365-.4473,1.8574-.0576,2.7607,.3887,.9043,1.1885,1.6318,2.3994,2.1846,1.2021,.5488,2.2764,.6758,3.2217,.3818,.9463-.2949,1.6279-.8984,2.0439-1.8105Z"/><path d="M1039.2051,42.8565l-9.9746-5.7197c-.1094,.7773,.0469,1.5449,.4688,2.3018,.4229,.7568,1.1826,1.4502,2.2822,2.0811,.9014,.5166,2.21,1.0098,3.9268,1.4795,.708,.1953,1.1797,.3613,1.417,.4971,.3242,.1855,.5312,.457,.6211,.8135s.0352,.708-.1641,1.0557c-.1816,.3164-.4541,.5176-.8184,.6025-.4844,.1113-1.415-.0518-2.792-.4902-1.3779-.4375-2.6318-.9805-3.7627-1.6289-1.9453-1.1152-3.1855-2.5566-3.7217-4.3252-.5361-1.7676-.3438-3.4541,.5771-5.0596,.9785-1.707,2.4062-2.7354,4.2822-3.084,1.875-.3477,3.6348-.0508,5.2803,.8926,.9883,.5664,1.7949,1.2607,2.4219,2.083,.627,.8213,1.0264,1.5498,1.1982,2.1836,.2344,.9121,.2891,1.9053,.167,2.9805-.0918,.7461-.3643,1.5146-.8174,2.3047l-.5918,1.0322Zm-1.2979-3.9756c.0273-.9092-.1611-1.708-.5645-2.3965-.4043-.6885-1.0205-1.2705-1.8506-1.7461-.8232-.4717-1.6328-.708-2.4307-.709-.7988,0-1.5869,.2383-2.3652,.7168l7.2109,4.1348Z"/><path d="M1052.9893,46.5011c-.2314-.4834-.5195-.9199-.8662-1.3096-.3457-.3896-.749-.7314-1.209-1.0264-.9141-.585-1.7354-.8994-2.4639-.9443-.3223-.0215-.5312,.0439-.6299,.1982-.1133,.1758-.0625,.4521,.1514,.8271,.167,.2803,.6396,.751,1.418,1.4111,1.4287,1.2178,2.3809,2.1309,2.8574,2.7383,.624,.8008,.9756,1.6211,1.0547,2.4609,.0791,.8408-.0811,1.5713-.4795,2.1934-.54,.8447-1.3643,1.3125-2.4727,1.4033-1.5928,.1387-3.2412-.3379-4.9453-1.4287-.6836-.4375-1.2764-.9014-1.7803-1.3916-.5029-.4902-.9229-1.0049-1.2588-1.5449-.1797,.0264-.3516,.0244-.5166-.0049-.165-.0303-.3164-.0889-.4541-.1777-.3682-.2363-.585-.5449-.6484-.9268-.0645-.3818,.0859-.8564,.4492-1.4248l.5088-.7949c.3633-.5674,.7324-.9023,1.1055-1.0039,.374-.1016,.7373-.04,1.0908,.1865,.2832,.1816,.4707,.4131,.5625,.6924,.0908,.2803,.0674,.6475-.0713,1.0996,.165,.5381,.4492,1.0479,.8555,1.5293,.4062,.4824,.9385,.9346,1.5996,1.3574,1.082,.6924,2.0303,1.0615,2.8457,1.1074,.3916,.0127,.6465-.0723,.7646-.2568,.1963-.3066,.1553-.6904-.123-1.1504-.2793-.46-1.0117-1.168-2.1973-2.1211-1.7686-1.4141-2.79-2.6084-3.0625-3.584-.2793-.9688-.1553-1.8633,.3711-2.6846,.54-.8447,1.3467-1.3184,2.4199-1.4219,1.458-.1484,2.9707,.2783,4.5361,1.2812,.5459,.3486,1.0361,.7363,1.4727,1.1621,.4365,.4248,.8164,.8926,1.1387,1.4023,.2148-.0137,.4033-.0068,.5635,.0205,.1611,.0273,.2959,.0752,.4033,.1436,.3223,.207,.5137,.5,.5732,.8789,.0605,.3799-.0908,.8535-.4551,1.4219l-.3682,.5752c-.3291,.5146-.6143,.8242-.8555,.9297-.4717,.1963-.9189,.1592-1.3408-.1113-.2842-.1816-.4766-.4297-.5791-.7441-.1016-.3145-.0898-.6367,.0352-.9678Z"/><path d="M1068.0752,52.3487l-5.1836,8.0928,2.832,1.8145c.5674,.3633,.9023,.7324,1.0039,1.1055,.1025,.374,.04,.7373-.1865,1.0908-.2207,.3447-.5225,.5498-.9043,.6133-.3818,.0645-.8574-.0859-1.4248-.4492l-8.0244-5.1406c-.5684-.3633-.9023-.7324-1.0039-1.1055-.1025-.374-.04-.7373,.1865-1.0898,.2207-.3457,.5225-.5508,.9043-.6143s.8564,.0859,1.4248,.4502l2.832,1.8135,3.6729-5.7334-1.9004-1.2168c-.5596-.3584-.8926-.7256-.998-1.1025-.1055-.376-.0449-.7402,.1807-1.0928,.2217-.3457,.5234-.5508,.9053-.6143s.8564,.0859,1.4238,.4502l4.2598,2.7285Zm2.5469-4.6855l-1.6006,2.498-2.8086-1.7988,1.5996-2.498,2.8096,1.7988Z"/><path d="M1083.9004,62.9444l.4189-.7207,2.8359,1.6504c.583,.3389,.9336,.6934,1.0508,1.0625s.0703,.7344-.1396,1.0967c-.207,.3545-.499,.5723-.8779,.6523s-.8604-.0498-1.4424-.3896l-.4141-.2402-5.1299,8.8154c-.4951,.8506-1.1064,1.4883-1.834,1.9141s-1.5947,.6514-2.6006,.6777c-1.0068,.0254-1.9746-.2314-2.9043-.7725l-2.7412-1.5957c-.583-.3389-.9336-.6934-1.0508-1.0625s-.0732-.7305,.1328-1.085c.2109-.3623,.5059-.584,.8848-.6641s.8594,.0498,1.4424,.3887l2.6709,1.5547c.7402,.4307,1.4326,.5645,2.0762,.4014,.6426-.1631,1.1436-.5527,1.501-1.167l.6875-1.1816c-.7373,.0352-1.4336-.0225-2.0898-.1729-.6562-.1494-1.2764-.3945-1.8594-.7334-1.6465-.958-2.7051-2.3096-3.1758-4.0547-.4717-1.7461-.2373-3.4258,.7031-5.041,.9443-1.623,2.291-2.6602,4.042-3.1133,1.75-.4521,3.4482-.1992,5.0947,.7588,.6143,.3574,1.1475,.7871,1.5996,1.2871,.4521,.501,.8252,1.0791,1.1191,1.7344Zm-2.7148,4.6367c.5176-.8896,.6387-1.8535,.3613-2.8896-.2773-1.0371-.877-1.8232-1.7988-2.3594-.9219-.5371-1.9014-.6699-2.9395-.3984-1.0391,.2715-1.8164,.8516-2.335,1.7422-.5225,.8975-.6445,1.8633-.3643,2.8955,.2793,1.0332,.8799,1.8174,1.8018,2.3535,.9219,.5371,1.9004,.6719,2.9365,.4043s1.8154-.8496,2.3379-1.748Z"/><path d="M1094.499,67.6817l-.4131,.8477c.6504-.1699,1.3008-.2188,1.9492-.1455,.6494,.0723,1.2969,.2656,1.9443,.5811,1.4922,.7256,2.4463,1.7637,2.8652,3.1123,.3291,1.0723,.2031,2.207-.3799,3.4033l-2.2793,4.6846c.5332,.2588,.8691,.5674,1.0098,.9248,.1406,.3564,.1191,.7236-.0645,1.1006-.1797,.3691-.4551,.6074-.8271,.7158-.3721,.1074-.8613,.0137-1.4678-.2812l-2.2734-1.1064c-.6074-.2959-.9824-.623-1.127-.9814-.1445-.3594-.125-.7275,.0586-1.1045,.1797-.3691,.4531-.6084,.8203-.7188,.3682-.1094,.8184-.0352,1.3516,.2246l2.3145-4.7578c.2676-.5488,.3154-1.0225,.1445-1.4199-.2266-.5156-.7246-.9609-1.4941-1.3359-.582-.2832-1.1475-.418-1.6953-.4062s-1.3359,.2188-2.3623,.6211l-2.2803,4.6846c.6475,.3145,1.0361,.5791,1.165,.7939,.2812,.4414,.3066,.9004,.0752,1.375-.1797,.3691-.4551,.6074-.8271,.7148-.3711,.1084-.8604,.0146-1.4668-.2803l-2.8643-1.3945c-.6074-.2949-.9824-.6221-1.127-.9814-.1445-.3584-.125-.7266,.0586-1.1035,.2236-.459,.5938-.7197,1.1104-.7832,.2568-.0264,.709,.1172,1.3564,.4326l2.9795-6.1221c-.5332-.2598-.8691-.5703-1.0068-.9316-.1387-.3613-.1182-.7256,.0615-1.0947s.4551-.6074,.8271-.7148c.3721-.1084,.8604-.0146,1.4668,.2803l2.3975,1.167Z"/><path d="M1137.1748,77.9405l-4.0566,14.3682,.4609,.1299c.6396,.1807,1.0654,.4365,1.2754,.7656s.2588,.6953,.1445,1.0986c-.1113,.3945-.3408,.6787-.6875,.8506s-.8447,.166-1.4941-.0176l-3.1572-.8906,.1855-.6582c-.7158,.1865-1.4355,.2764-2.1582,.2715s-1.4443-.1094-2.1631-.3125c-2.0264-.5723-3.4932-1.6182-4.3994-3.1387-.9062-1.5195-1.1123-3.1523-.6201-4.8984,.5156-1.8242,1.6045-3.1982,3.2666-4.1211s3.4277-1.1211,5.2959-.5928c.7012,.1973,1.3594,.5,1.9746,.9053,.6143,.4053,1.1904,.916,1.7266,1.5312l.9473-3.3545-.46-.1309c-.6494-.1826-1.0771-.4385-1.2822-.7666-.2061-.3281-.2529-.6895-.1416-1.084,.1133-.4033,.3438-.6914,.6914-.8633,.3467-.1719,.8447-.166,1.4932,.0166l3.1582,.8916Zm-5.9287,10.6855c.3145-1.1133,.1904-2.167-.373-3.1592-.5625-.9922-1.4092-1.6484-2.541-1.9678-1.123-.3164-2.1836-.1992-3.1816,.3516-.999,.5518-1.6523,1.3721-1.959,2.459-.2803,.9912-.1592,1.9043,.3633,2.7383s1.4238,1.4316,2.7041,1.793c1.2725,.3594,2.3535,.3213,3.2432-.1143,.8906-.4355,1.4717-1.1348,1.7441-2.1006Z"/><path d="M1152.457,92.9884c-.2002,1.0566-.6885,2.0244-1.4619,2.9023-.7744,.8779-1.7969,1.501-3.0684,1.8672-1.2705,.3662-2.5371,.4297-3.7998,.1904-1.2539-.2383-2.3994-.7539-3.4355-1.5488-1.0371-.7959-1.7607-1.7471-2.1719-2.8545-.4121-1.1084-.5146-2.2041-.3096-3.2871,.209-1.1016,.7188-2.125,1.5293-3.0703,.8096-.9463,1.8438-1.6152,3.1016-2.0078,1.2568-.3916,2.5078-.4697,3.7529-.2344,1.2529,.2383,2.4004,.7783,3.4424,1.6211,1.042,.8418,1.7578,1.8457,2.1494,3.0098s.4824,2.3018,.2715,3.4121Zm-2.7559-.5088c.168-.8867,.0039-1.7617-.4902-2.626-.6787-1.168-1.7256-1.8857-3.1396-2.1543-1.2451-.2363-2.3594-.0342-3.3438,.6045-.9834,.6387-1.5752,1.4824-1.7734,2.5303-.1631,.8594,.1045,1.7432,.8047,2.6504s1.6631,1.4775,2.8906,1.71c1.2354,.2344,2.3447,.0576,3.3291-.5303,.9834-.5879,1.5576-1.3164,1.7227-2.1846Z"/><path d="M1168.0586,88.7677c.3672-.2832,.7285-.4062,1.082-.3701,.3994,.041,.7129,.2168,.9424,.5293,.2285,.3125,.3096,.7998,.2412,1.4609l-.1836,1.7959c-.0693,.6709-.2471,1.1338-.5342,1.3877-.2871,.2549-.6396,.3604-1.0566,.3174-.3809-.0391-.6914-.1807-.9326-.4248-.1729-.1836-.2891-.5312-.3457-1.0459-.0576-.5146-.2822-.916-.6738-1.2031-.6895-.5107-1.6055-.8242-2.748-.9414-1.3154-.1357-2.4082,.1416-3.2812,.8311-.8721,.6895-1.3691,1.623-1.4902,2.8018-.1113,1.0879,.1816,1.9863,.8779,2.6943,.6973,.709,1.9297,1.1533,3.6982,1.335,1.1602,.1191,2.1201,.0986,2.8779-.0615,.4502-.1006,.8887-.3057,1.3145-.6143,.4248-.3086,.7969-.4473,1.1143-.415,.3809,.0391,.6953,.2139,.9424,.5234,.248,.3086,.3525,.6543,.3135,1.0352-.0635,.6162-.5449,1.1582-1.4453,1.624-1.3359,.6973-3.21,.9219-5.6211,.6738-2.167-.2227-3.8076-.8438-4.9219-1.8652-1.5078-1.373-2.1543-3.1074-1.9395-5.2021,.2041-1.9854,1.0342-3.5605,2.4912-4.7266,1.458-1.165,3.252-1.6387,5.3828-1.4199,.7705,.0791,1.4795,.2256,2.126,.4385,.6475,.2129,1.2363,.4932,1.7695,.8418Z"/><path d="M1187.1201,89.0235l-.2109,9.6084c.5928,.0137,1.0273,.1553,1.3037,.4258s.4111,.6104,.4014,1.0205c-.0088,.4102-.1592,.7412-.4521,.9951-.293,.2529-.7764,.373-1.4512,.3584l-2.665-.0586,.0146-.6426c-.8105,.3467-1.582,.6035-2.3145,.7695-.7334,.166-1.4277,.2422-2.084,.2275-.9199-.0195-1.7139-.2314-2.3789-.6328-.666-.4023-1.1875-.9492-1.5645-1.6416-.2715-.498-.3994-1.1162-.3828-1.8545l.1318-6.0273-.4785-.0107c-.6738-.0146-1.1523-.1553-1.4336-.4209-.2812-.2666-.417-.6094-.4082-1.0283,.0098-.4102,.1602-.7412,.4531-.9951,.293-.2529,.7764-.373,1.4502-.3574l3.2803,.0713-.1826,8.3379c-.0127,.5928,.1211,1.0312,.4023,1.3154,.2803,.2842,.7168,.4326,1.3096,.4453,.5645,.0127,1.1758-.0859,1.832-.2949s1.4697-.5947,2.4395-1.1562l.125-5.7139-1.0117-.0225c-.6738-.0146-1.1523-.1553-1.4336-.4209s-.417-.6084-.4082-1.0273c.0088-.4102,.1602-.7422,.4531-.9951,.293-.2539,.7754-.373,1.4502-.3584l3.8135,.084Z"/><path d="M1194.3223,88.8419l.041,.792c.4316-.4697,.8271-.7988,1.1875-.9863,.3594-.1875,.7803-.2949,1.2627-.3203,.4102-.0215,.8203,.0576,1.2314,.2363,.4111,.1797,.8184,.459,1.2217,.8398,.4609-.4258,.9346-.75,1.4199-.9717,.4863-.2217,.9883-.3467,1.5068-.374,1.0381-.0547,1.8945,.1787,2.5703,.7002,.8936,.6826,1.3721,1.6162,1.4346,2.7998l.3301,6.2666c.582-.0312,1.0215,.0781,1.3174,.3271s.4551,.5781,.4766,.9883c.0215,.4092-.1016,.751-.3701,1.0254s-.7402,.4297-1.4131,.4648l-2.6621,.1406-.4658-8.834c-.0225-.4277-.1152-.7197-.2783-.875-.1641-.1553-.4053-.2256-.7236-.208-.3096,.0156-.5918,.1133-.8467,.291-.3252,.2451-.7119,.6943-1.1611,1.3477l.2969,5.6387c.582-.0303,1.0215,.0791,1.3174,.3281s.4551,.5781,.4766,.9873c.0215,.4102-.1016,.752-.3701,1.0264s-.7393,.4287-1.4131,.4639l-2.6621,.1406-.4658-8.833c-.0215-.4189-.1172-.708-.2852-.8682s-.4111-.2314-.7295-.2148c-.3281,.0166-.6455,.1367-.9531,.3584-.3086,.2217-.6689,.6484-1.083,1.2822l.2969,5.6387c.583-.0312,1.0244,.0781,1.3252,.3271s.4619,.5781,.4834,.9873c.0215,.4102-.1045,.752-.3779,1.0264-.2725,.2744-.7461,.4297-1.4199,.4648l-2.5254,.1328c-.6738,.0361-1.1602-.0684-1.4609-.3125-.3008-.2451-.4619-.5762-.4834-.9951-.0215-.4092,.1016-.751,.3701-1.0254s.6982-.4268,1.29-.458l-.3584-6.7998c-.5918,.0312-1.0352-.0771-1.3311-.3262s-.4551-.5791-.4766-.9883c-.0215-.4102,.1045-.752,.377-1.0264,.2734-.2744,.7461-.4297,1.4199-.4648l2.6631-.1406Z"/><path d="M1223.9395,93.8204l-11.4141,1.3848c.377,.6885,.9609,1.21,1.752,1.5635,.792,.3545,1.8164,.4551,3.0742,.3027,1.0312-.126,2.375-.5137,4.0312-1.1641,.6836-.2666,1.1611-.417,1.4326-.4492,.3711-.0449,.6992,.0479,.9844,.2793,.2852,.2324,.4521,.5469,.5,.9453,.0439,.3613-.0537,.6855-.2949,.9717-.3213,.3789-1.165,.8047-2.5303,1.2783-1.3662,.4727-2.6953,.7881-3.9893,.9453-2.2266,.2695-4.083-.1426-5.5693-1.2383-1.4873-1.0957-2.3428-2.5625-2.5654-4.3994-.2373-1.9541,.291-3.6318,1.5859-5.0332,1.2939-1.4014,2.8828-2.2158,4.7646-2.4443,1.1309-.1367,2.1934-.0635,3.1875,.2197,.9932,.2832,1.749,.6279,2.2666,1.0332,.7334,.5908,1.3721,1.3535,1.917,2.2881,.373,.6523,.6143,1.4307,.7236,2.3359l.1436,1.1807Zm-3.4189-2.4092c-.5215-.7441-1.1504-1.2715-1.8857-1.582-.7354-.3096-1.5781-.4072-2.5283-.292-.9404,.1143-1.7314,.4092-2.3711,.8867-.6396,.4766-1.1289,1.1396-1.4668,1.9893l8.252-1.002Z"/><path d="M1230.5098,84.963l.1719,.9277c.4219-.5234,.916-.9482,1.4814-1.2744,.5654-.3271,1.2021-.5557,1.9102-.6865,1.6309-.3008,3.0156-.0322,4.1523,.8047,.9023,.668,1.4736,1.6562,1.7148,2.9648l.9453,5.1221c.583-.1074,1.0371-.0586,1.3613,.1455,.3252,.2041,.5264,.5127,.6016,.9248,.0752,.4033-.0059,.7588-.2402,1.0664-.2354,.3076-.6846,.5225-1.3486,.6445l-2.4873,.459c-.6631,.1221-1.1592,.082-1.4883-.1211-.3301-.2041-.5322-.5117-.6084-.9238-.0752-.4033,.0029-.7588,.2344-1.0654,.2305-.3066,.6367-.5137,1.2197-.6211l-.96-5.2031c-.1113-.6006-.3535-1.0098-.7275-1.2285-.4873-.2803-1.1523-.3428-1.9951-.1875-.6367,.1172-1.1719,.3438-1.6055,.6787s-.9453,.9688-1.5322,1.9023l.9453,5.1221c.707-.1299,1.1768-.1475,1.4082-.0508,.4883,.1875,.7812,.542,.877,1.0615,.0742,.4033-.0059,.7588-.2412,1.0664s-.6846,.5225-1.3477,.6445l-3.1328,.5781c-.6631,.1221-1.1592,.082-1.4893-.1211-.3291-.2031-.5322-.5117-.6084-.9238-.0918-.502,.0508-.9316,.4297-1.2891,.1904-.1738,.6396-.3262,1.3477-.457l-1.2354-6.6953c-.583,.1074-1.0371,.0566-1.3623-.1514-.3262-.209-.5264-.5146-.6006-.918s.0059-.7588,.2412-1.0664,.6836-.5225,1.3477-.6455l2.6211-.4834Z"/><path d="M1250.4111,83.668l1.3271,5.4609c.1426,.584,.3555,.9404,.6396,1.0684,.4434,.2021,1.1426,.1865,2.0996-.0459,1.3906-.3379,2.6025-.9473,3.6357-1.8271,.3965-.3398,.7227-.541,.9795-.6035,.3535-.0859,.6943-.0273,1.0195,.1748,.3262,.2021,.5352,.4932,.6279,.874,.0859,.3545,.0186,.6943-.2021,1.0205-.333,.5215-1.0967,1.1123-2.291,1.7734-1.1953,.6611-2.2314,1.0977-3.1074,1.3115-1.6924,.4111-3.0498,.3535-4.0732-.1709-1.0234-.5254-1.6641-1.3193-1.9219-2.3818l-1.457-5.9922-.9824,.2393c-.6562,.1592-1.1533,.1465-1.4941-.0381-.3398-.1846-.5596-.4805-.6592-.8877-.0967-.3994-.0361-.7588,.1816-1.0781,.2178-.3203,.6543-.5605,1.3096-.7197l.9834-.2393-.5977-2.457c-.1592-.6553-.1465-1.1533,.0381-1.4941,.1846-.3398,.4805-.5596,.8877-.6592,.3984-.0967,.7578-.0361,1.0781,.1816s.5605,.6543,.7197,1.3096l.5967,2.458,5.0352-1.2246c.6553-.1592,1.1533-.1465,1.4941,.0381,.3398,.1846,.5596,.4814,.6592,.8887,.0967,.3984,.0361,.7578-.1816,1.0781s-.6543,.5596-1.3096,.7188l-5.0352,1.2236Z"/><path d="M1273.2393,87.4034l-.1875-.6289c-.5664,.5586-1.2285,1.0479-1.9883,1.4678-.7588,.4209-1.4707,.7295-2.1348,.9268-1.4414,.4287-2.7266,.3936-3.8535-.1035s-1.8281-1.208-2.1025-2.1348c-.335-1.127-.0713-2.3438,.791-3.6504,.8613-1.3066,2.3066-2.2617,4.333-2.8633,.8125-.2422,1.7783-.4336,2.8965-.5752l-.1914-.6426c-.1191-.4014-.3896-.6777-.8096-.8291-.4209-.1504-1.1152-.082-2.085,.2061-.7959,.2363-1.7803,.7002-2.9531,1.3906-.4385,.2539-.7881,.4199-1.0498,.4971-.3584,.1064-.7002,.0684-1.0264-.1162-.3252-.1836-.5479-.4756-.667-.8779-.0674-.2275-.083-.4365-.0439-.6289,.0371-.1914,.1201-.3613,.248-.5088,.127-.1465,.4189-.3643,.876-.6523,.6094-.3809,1.2432-.7275,1.9004-1.042,.6582-.3145,1.2666-.5547,1.8252-.7207,1.6689-.4961,3.0713-.5205,4.207-.0732,1.1367,.4473,1.8896,1.2949,2.2607,2.5439l1.6436,5.5312,.458-.1367c.6465-.1914,1.1445-.2041,1.4941-.0371s.583,.4521,.7031,.8535c.1162,.3936,.0742,.7559-.127,1.0859-.2012,.3311-.625,.5928-1.2715,.7852l-3.1455,.9336Zm-1.4287-4.8096c-1.1377,.1094-2.1602,.2998-3.0684,.5693-1.0928,.3242-1.9521,.8701-2.5811,1.6367-.3877,.4863-.5293,.9033-.4258,1.2529,.0752,.2539,.2539,.4238,.5371,.5107,.5225,.1592,1.1631,.125,1.9238-.1006,.6465-.1924,1.3398-.5361,2.082-1.0322,.7412-.4961,1.3662-1.0566,1.875-1.6836l-.3428-1.1533Z"/><path d="M1284.1953,73.7305l1.8438,5.3076c.1973,.5684,.4434,.9023,.7393,1.0029,.46,.1582,1.1553,.0762,2.085-.2471,1.3516-.4688,2.5-1.1914,3.4453-2.166,.3613-.376,.666-.6074,.916-.6943,.3447-.1191,.6885-.0938,1.0322,.0762s.5801,.4404,.709,.8105c.1191,.3438,.085,.6895-.1045,1.0342-.2812,.5518-.9854,1.2129-2.1113,1.9854s-2.1152,1.3057-2.9678,1.6025c-1.6445,.5703-3.001,.6436-4.0693,.2188-1.0693-.4248-1.7832-1.1533-2.1416-2.1865l-2.0234-5.8252-.9551,.332c-.6377,.2217-1.1348,.2559-1.4912,.1055-.3564-.1514-.6025-.4248-.7402-.8213-.1348-.3877-.1094-.751,.0771-1.0908,.1855-.3389,.5977-.6201,1.2344-.8408l.9561-.332-.8301-2.3896c-.2207-.6367-.2559-1.1338-.1045-1.4902,.1504-.3564,.4248-.6035,.8203-.7412,.3877-.1338,.751-.1084,1.0908,.0771,.3398,.1865,.6201,.5977,.8408,1.2354l.8301,2.3887,4.8945-1.6992c.6377-.2217,1.1348-.2568,1.4912-.1055s.6035,.4248,.7402,.8213c.1348,.3877,.1094,.751-.0771,1.0908-.1855,.3389-.5977,.6201-1.2344,.8408l-4.8955,1.7002Z"/><path d="M1301.3623,64.3682l3.5176,8.9443,3.1299-1.2305c.6279-.2471,1.123-.3027,1.4854-.166s.6201,.4004,.7734,.791c.1494,.3809,.1387,.7451-.0332,1.0928-.1719,.3467-.5723,.6436-1.1992,.8896l-8.8682,3.4883c-.6279,.2471-1.123,.3018-1.4854,.165s-.6201-.3994-.7734-.79c-.1504-.3818-.1396-.7461,.0332-1.0928,.1719-.3467,.5713-.6436,1.1992-.8906l3.1299-1.2314-2.4922-6.3359-2.0986,.8262c-.6191,.2432-1.1123,.2979-1.4785,.1621-.3672-.1348-.627-.3975-.7803-.7871-.1504-.3818-.1387-.7461,.0332-1.0928s.5713-.6436,1.1992-.8906l4.708-1.8516Zm-2.3027-4.8096l1.0859,2.7617-3.1045,1.2207-1.0859-2.7607,3.1045-1.2217Z"/><path d="M1324.9922,61.3702c.4297,.9863,.5723,2.0605,.4268,3.2217-.1445,1.1621-.6387,2.2529-1.4824,3.2715s-1.8545,1.7852-3.0322,2.2979c-1.1699,.5098-2.4072,.7285-3.7119,.6553-1.3047-.0723-2.4385-.4512-3.4023-1.1348s-1.666-1.5303-2.1064-2.542c-.4482-1.0273-.6035-2.1602-.4668-3.3975,.1367-1.2383,.6143-2.373,1.4316-3.4053s1.8076-1.8018,2.9688-2.3076c1.1699-.5098,2.4219-.71,3.7578-.6016,1.335,.1094,2.4922,.5352,3.4717,1.2764,.9785,.7412,1.6943,1.6309,2.1455,2.666Zm-2.5635,1.1328c-.3604-.8271-.9883-1.458-1.8838-1.8936-1.2188-.583-2.4883-.5859-3.8086-.0107-1.1611,.5059-1.9678,1.2998-2.4209,2.3818-.4531,1.083-.4668,2.1123-.041,3.0898,.3496,.8027,1.0693,1.3818,2.1582,1.7363,1.0898,.3564,2.207,.2842,3.3516-.2148,1.1533-.502,1.9707-1.2734,2.4521-2.3135s.5449-1.9648,.1924-2.7754Z"/><path d="M1328.6572,52.5411l.4053,.8516c.2725-.6143,.6396-1.1523,1.1016-1.6143s1.0176-.8477,1.668-1.1562c1.498-.7129,2.9043-.8115,4.2188-.2969,1.0439,.4121,1.8516,1.2188,2.4238,2.4209l2.2373,4.7031c.5352-.2539,.9863-.3252,1.3525-.2119,.3672,.1133,.6406,.3594,.8203,.7383,.1768,.3701,.1904,.7344,.043,1.0918-.1475,.3584-.5264,.6826-1.1348,.9717l-2.2842,1.0869c-.6094,.29-1.0996,.3789-1.4707,.2676-.3701-.1113-.6455-.3564-.8262-.7344-.1758-.3711-.1924-.7344-.0488-1.0898,.1436-.3564,.4824-.6611,1.0176-.916l-2.2725-4.7773c-.2627-.5518-.6025-.8848-1.0205-.999-.543-.1445-1.2021-.0332-1.9756,.334-.584,.2783-1.043,.6357-1.375,1.0713-.333,.4355-.6631,1.1807-.9893,2.2344l2.2383,4.7031c.6494-.3086,1.0986-.4473,1.3467-.4131,.5205,.0547,.8955,.3213,1.1221,.7979,.1758,.3711,.1904,.7354,.043,1.0928-.1475,.3584-.5264,.6816-1.1357,.9717l-2.876,1.3682c-.6094,.29-1.0996,.3789-1.4697,.2676-.3711-.1113-.6465-.3555-.8271-.7344-.2188-.4609-.1914-.9131,.082-1.3564,.1387-.2168,.5332-.4805,1.1836-.79l-2.9248-6.1484c-.5352,.2549-.9873,.3232-1.3555,.2061-.3691-.1172-.6416-.3613-.8174-.7314-.1768-.3701-.1904-.7344-.043-1.0928,.1475-.3574,.5264-.6816,1.1348-.9717l2.4082-1.1445Z"/></g></svg>