<?xml version="1.0" encoding="UTF-8"?><svg id="Layer_1" xmlns="http://www.w3.org/2000/svg" width="297.1697" height="120.2683" viewBox="0 0 297.1697 120.2683"><defs><style>.cls-1{fill:none;stroke:#000;stroke-linecap:round;stroke-linejoin:round;stroke-width:5px;}</style></defs><g><path class="cls-1" d="M163.5458,55.4539c-4.6666-3-9.3334-6-14-9l-27.9231,.1538v18.8462h-9.0769l9.0769,50.5993h82.9231V55.3075c-13.6666,.0488-27.3334,.0976-41,.1464Z"/><polyline class="cls-1" points="204.6227 116.0532 195.5458 65.4539 121.6227 65.4539"/></g><g><path d="M14.9922,102.1153l-3.8535,.541-.251,1.0215,.3867-.0547c.3818-.0532,.6641-.0181,.8477,.106,.1826,.1245,.291,.3052,.3242,.5425,.0332,.2319-.0215,.4326-.1631,.6025-.1426,.1699-.4043,.2817-.7861,.3354l-2.1348,.2998c-.3818,.0532-.6641,.0181-.8477-.106-.1826-.1245-.291-.3052-.3242-.5425-.0332-.2368,.0244-.4424,.1738-.6157,.1494-.1738,.4209-.2827,.8145-.3276l1.6191-6.5542-1.0361,.1455c-.3818,.0532-.6641,.0181-.8477-.106-.1826-.124-.291-.3052-.3242-.5425-.0332-.2368,.0205-.4404,.1631-.6104,.1416-.1699,.4033-.2817,.7852-.335l3.4277-.4736,4.251,7.3477c.3711-.0522,.6221-.0454,.752,.0205,.2617,.1367,.4111,.3447,.4502,.623,.0332,.2319-.0205,.4331-.1592,.6025-.1396,.1694-.4004,.2808-.7822,.3345l-2.1348,.2998c-.3818,.0537-.6641,.0181-.8477-.106-.1826-.124-.291-.3047-.3242-.542-.0322-.2324,.0215-.4331,.1641-.603,.1416-.1699,.4033-.2817,.7852-.335l.3867-.0547-.5146-.9136Zm-.8809-1.4937l-1.7178-2.9619-.8428,3.3213,2.5605-.3594Z"/><path d="M24.3613,97.6344c-.2891-.1025-.582-.1631-.8789-.1812s-.5977,.0059-.9033,.0723c-.6055,.1313-1.0654,.335-1.3779,.6108-.1396,.1211-.1982,.2324-.1758,.334,.0254,.1172,.1572,.2085,.3955,.2739,.1807,.0464,.5615,.0459,1.1426-.0005,1.0693-.0825,1.8232-.0972,2.2617-.043,.5752,.0723,1.0479,.2627,1.4189,.5713,.3701,.3086,.6006,.6689,.6904,1.0815,.1211,.5596-.0244,1.0815-.4355,1.5654-.5898,.6982-1.4492,1.1699-2.5791,1.415-.4531,.0986-.8799,.1499-1.2812,.1543s-.7793-.0347-1.1328-.1177c-.0625,.0825-.1328,.1514-.2119,.2056-.0781,.0547-.1631,.0918-.2549,.1113-.2441,.0532-.457,.0151-.6367-.1133-.1797-.1289-.3105-.3818-.3926-.7583l-.1143-.5269c-.082-.3765-.0674-.6611,.043-.8525,.1104-.1919,.2822-.3135,.5166-.3643,.1885-.041,.3574-.0229,.5068,.0537,.1504,.0767,.2881,.2349,.415,.4736,.2832,.1519,.6045,.2432,.9629,.2749,.3584,.0312,.7568-.0005,1.1943-.0957,.7178-.1558,1.251-.3887,1.5996-.6987,.1641-.1528,.2324-.2905,.2061-.4126-.0439-.2036-.2158-.3423-.5146-.416-.2979-.0737-.8799-.0649-1.7441,.0269-1.2861,.1406-2.1816,.0688-2.6855-.2163-.5029-.2798-.8135-.6919-.9316-1.2368-.1221-.5596,.0137-1.0767,.4062-1.5513,.5312-.6479,1.3154-1.085,2.3535-1.3105,.3613-.0781,.7168-.1191,1.0645-.123,.3486-.0034,.6914,.0327,1.0273,.1089,.0811-.0923,.1602-.165,.2363-.2192,.0762-.0537,.1494-.0884,.2217-.104,.2129-.0464,.4092-.0049,.5859,.1245,.1777,.1294,.3066,.3828,.3887,.7593l.083,.3818c.0742,.3408,.084,.5811,.0283,.7212-.1113,.2695-.3076,.4346-.5879,.4951-.1885,.041-.3662,.0186-.5342-.0679-.168-.0859-.293-.2212-.376-.4058Z"/><path d="M34.1377,94.9142c-.2969-.0767-.5938-.1113-.8906-.1035-.2979,.0083-.5957,.0586-.8945,.1514-.5918,.1841-1.0312,.4272-1.3193,.7295-.1279,.1323-.1758,.2485-.1455,.3477,.0361,.1147,.1748,.1938,.418,.2383,.1836,.0303,.5635-.0034,1.1387-.1006,1.0576-.1758,1.8076-.2563,2.249-.2407,.5791,.0215,1.0674,.1699,1.4629,.4443,.3965,.2749,.6572,.6138,.7832,1.0166,.1699,.5474,.0713,1.0801-.2969,1.5977-.5254,.7476-1.3408,1.2925-2.4453,1.6362-.4424,.1377-.8633,.2261-1.2627,.2656-.3994,.04-.7793,.0337-1.1387-.0181-.0547,.0879-.1191,.1626-.1924,.2236-.0742,.061-.1553,.1055-.2451,.1333-.2383,.0742-.4531,.0552-.6436-.0571-.1904-.1128-.3428-.353-.457-.7212l-.1602-.5146c-.1152-.3682-.125-.6523-.0322-.853s.2539-.3369,.4824-.4082c.1836-.0571,.3545-.0537,.5098,.0093,.1562,.0635,.3076,.2085,.4551,.4355,.2949,.126,.623,.1895,.9834,.189,.3594,0,.7539-.0664,1.1816-.1997,.7012-.2183,1.2109-.4966,1.5312-.8364,.1504-.1665,.2061-.3096,.1689-.4287-.0615-.1992-.2441-.3223-.5479-.3696s-.8828,.0127-1.7363,.1797c-1.2686,.2529-2.166,.2598-2.6934,.02-.5264-.2349-.8711-.6182-1.0371-1.1504-.1699-.5469-.0801-1.0742,.2695-1.5811,.4717-.6919,1.2148-1.1958,2.2295-1.5117,.3535-.1094,.7031-.1816,1.0498-.2158s.6904-.0278,1.0322,.0186c.0732-.0991,.1445-.1787,.2158-.2393,.0713-.0601,.1416-.1011,.2119-.123,.209-.0649,.4072-.0405,.5947,.0728,.1885,.1133,.3398,.354,.4541,.7222l.1162,.373c.1035,.333,.1338,.5718,.0918,.7158-.0889,.2783-.2695,.46-.543,.5449-.1836,.0571-.3633,.0503-.5381-.0205-.1748-.0713-.3115-.1948-.4102-.3716Z"/><path d="M46.7129,92.6168l-6.0381,2.5903c.3174,.3174,.7217,.5093,1.2129,.5767,.4902,.0669,1.0684-.042,1.7334-.3276,.5459-.2339,1.2207-.6621,2.0254-1.2852,.332-.2559,.5693-.4146,.7129-.4761,.1963-.084,.3916-.0854,.585-.0044,.1934,.0815,.3359,.2275,.4258,.438,.082,.1914,.0801,.3853-.0059,.5806-.1152,.2593-.5098,.6284-1.1826,1.1069s-1.3516,.8647-2.0361,1.1582c-1.1777,.5054-2.2617,.5767-3.2539,.2144-.9912-.3623-1.6953-1.0298-2.1123-2.0015-.4434-1.0337-.4229-2.0386,.0625-3.0146s1.2256-1.6777,2.2217-2.105c.5977-.2568,1.1924-.3867,1.7832-.3911,.5898-.0039,1.0596,.064,1.4092,.2031,.4961,.2065,.9688,.5225,1.418,.9473,.3086,.2983,.5664,.6865,.7715,1.165l.2676,.625Zm-2.2607-.7729c-.4053-.3242-.835-.5132-1.2881-.5649-.4531-.0522-.9307,.0293-1.4336,.2451-.498,.2134-.8838,.5024-1.1582,.8667s-.4365,.8062-.4854,1.3262l4.3652-1.873Z"/><path d="M50.6836,87.3116l1.6123,2.7764c.1729,.2974,.3477,.458,.5234,.4819,.2764,.0386,.6572-.083,1.1436-.3657,.707-.4106,1.2725-.9409,1.6963-1.5908,.1611-.2505,.3076-.4136,.4385-.4893,.1797-.1045,.375-.1279,.5869-.0703,.2109,.0581,.373,.1841,.4854,.3774,.1045,.1802,.123,.3774,.0547,.5918-.0977,.3398-.4199,.7876-.9678,1.3438-.5469,.5557-1.0439,.9634-1.4893,1.2222-.8604,.5-1.6143,.689-2.2598,.5669-.6455-.1216-1.126-.4526-1.4395-.9932l-1.7705-3.0464-.499,.29c-.334,.1938-.6084,.2676-.8252,.2217-.2158-.0459-.3848-.1724-.5049-.3799-.1182-.2026-.1426-.4092-.0752-.6201,.0664-.2104,.2666-.4126,.6006-.6064l.5-.29-.7266-1.25c-.1934-.333-.2676-.6079-.2217-.8247,.0469-.2163,.1729-.3848,.3799-.5049,.2031-.1177,.4092-.1431,.6201-.0757s.4131,.2676,.6064,.6006l.7266,1.25,2.5605-1.4873c.333-.1934,.6074-.2676,.8242-.2217,.2158,.0464,.3848,.1729,.5049,.3799,.1182,.2026,.1426,.4092,.0762,.6201-.0674,.2109-.2676,.4131-.6016,.6064l-2.5596,1.4873Z"/><path d="M64.1836,70.8077l6.1865,5.874,1.3232-1.3936c.2656-.2798,.5088-.4277,.7295-.4448,.2207-.0166,.417,.0576,.5908,.2227,.1699,.1611,.2529,.3525,.2471,.5737-.0049,.2212-.1406,.4717-.4062,.751l-3.749,3.9492c-.2656,.2793-.5078,.4272-.7285,.4443-.2207,.0166-.418-.0576-.5918-.2227-.1699-.1611-.252-.3525-.2471-.5737,.0059-.2212,.1406-.4712,.4062-.751l1.3232-1.3936-5.0254-4.7715-.8877,.9351c-.2617,.2754-.5039,.4229-.7266,.4414s-.4199-.0547-.5938-.2192c-.1699-.1616-.2529-.353-.2471-.5742,.0049-.2212,.1406-.4712,.4062-.751l1.9902-2.0962Z"/><path d="M69.8975,63.5636l1.4033,.9517-1.0693,1.5776-1.4033-.9512,1.0693-1.5781Zm2.6387,1.5244l4.5459,3.082,1.0781-1.5908c.2168-.3188,.4316-.5044,.6475-.5571,.2148-.0527,.4209-.0112,.6191,.123,.1943,.1313,.3066,.3066,.3379,.5259,.0303,.2192-.0625,.4883-.2783,.8071l-3.0557,4.5073c-.2168,.3188-.4326,.5044-.6475,.5571-.2148,.0522-.4209,.0112-.6191-.123-.1943-.1313-.3066-.3066-.3379-.5259-.0303-.2192,.0625-.4883,.2783-.8071l1.0791-1.5908-3.2207-2.1831-.7236,1.0669c-.2129,.3145-.4277,.4995-.6445,.5542-.2158,.0547-.4238,.0146-.6221-.1201-.1934-.1313-.3066-.3066-.3369-.5259-.0312-.2188,.0615-.4878,.2783-.8071l1.6221-2.3926Z"/><path d="M79.3682,56.2608c-.2549,.1699-.4785,.3682-.6709,.5952-.1924,.2275-.3535,.4829-.4834,.7671-.2568,.564-.3691,1.0542-.3359,1.4697,.0137,.1841,.0684,.2974,.1631,.3403,.1084,.0498,.2607-.001,.4561-.1523,.1445-.1172,.373-.4224,.6836-.916,.5742-.9058,1.0137-1.5181,1.3193-1.8364,.4023-.4175,.8379-.6826,1.3076-.7949,.4688-.1118,.8955-.0806,1.2793,.0947,.5215,.2378,.8516,.6665,.9932,1.2861,.2061,.8901,.0693,1.8608-.4111,2.9126-.1924,.4219-.4062,.7949-.6436,1.1191-.2363,.3242-.4941,.603-.7725,.8364,.0293,.0996,.042,.1968,.0381,.2925-.0029,.0957-.0244,.186-.0635,.2715-.1035,.2275-.2607,.3745-.4717,.4414s-.4922,.0205-.8428-.1396l-.4902-.2236c-.3506-.1602-.5693-.3418-.6572-.5449s-.082-.4136,.0176-.6313c.0801-.1753,.1953-.3003,.3467-.3745,.1514-.0737,.3604-.0898,.6279-.0483,.291-.1362,.5566-.3384,.7959-.6069,.2402-.2686,.4531-.606,.6396-1.0137,.3047-.668,.4375-1.2344,.3975-1.6992-.0244-.2227-.0938-.3604-.207-.4121-.1895-.0864-.4033-.0322-.6416,.1626-.2373,.1948-.5781,.666-1.0225,1.4136-.6572,1.1143-1.251,1.7881-1.7812,2.021-.5254,.2358-1.042,.2378-1.5488,.0063-.5205-.2378-.8535-.6562-.999-1.2549-.2012-.813-.0811-1.7031,.3604-2.6694,.1533-.3364,.333-.6455,.5381-.9268,.2061-.2808,.4395-.5332,.7021-.7573-.0254-.1201-.0361-.2271-.0342-.3203,.0029-.0933,.0186-.1729,.0488-.2393,.0908-.1992,.2412-.3311,.4512-.3955s.4902-.0166,.8408,.1431l.3555,.1621c.3174,.145,.5156,.2812,.5947,.4092,.1484,.251,.1641,.5068,.0449,.7676-.0801,.1753-.2051,.3042-.374,.3872-.1699,.083-.3535,.1025-.5508,.0581Z"/><path d="M81.9463,48.7267l3.0273,1.0703c.3242,.1143,.5605,.1235,.7109,.0273,.2354-.1489,.4463-.4883,.6338-1.0186,.2725-.771,.3594-1.541,.2617-2.3105-.0391-.2954-.0332-.5146,.0166-.6572,.0693-.1963,.2031-.3408,.4023-.4336,.1982-.0928,.4033-.1021,.6143-.0273,.1963,.0698,.3379,.208,.4248,.4155,.1455,.3223,.1904,.8726,.1338,1.6504-.0576,.7783-.1719,1.4106-.3438,1.8965-.332,.938-.7832,1.5698-1.3535,1.8955-.5713,.3257-1.1514,.3843-1.7402,.1758l-3.3223-1.1743-.1924,.5449c-.1289,.3638-.29,.5977-.4854,.7031-.1943,.105-.4043,.1177-.6299,.0376-.2217-.0781-.375-.2192-.46-.4233s-.0635-.4878,.0654-.8511l.1924-.5449-1.3623-.4819c-.3633-.1284-.5977-.29-.7031-.4849-.1055-.1943-.1182-.4048-.0381-.6309,.0781-.2207,.2188-.374,.4238-.459,.2041-.0854,.4873-.064,.8506,.0645l1.3633,.4819,.9863-2.7915c.1289-.3633,.29-.5977,.4854-.7026,.1943-.1055,.4043-.1182,.6309-.0381,.2207,.0781,.374,.2192,.459,.4233s.0635,.4878-.0645,.8511l-.9873,2.792Z"/><path d="M95.9316,31.3033l-.3105-.2104c-.0488,.4521-.1641,.9082-.3477,1.3691-.1836,.4604-.3867,.855-.6084,1.1826-.4824,.7114-1.0635,1.1611-1.7412,1.3491-.6787,.1885-1.2461,.1274-1.7031-.1826-.5557-.377-.8799-1.0103-.9717-1.9004-.0918-.8896,.2012-1.8345,.8789-2.835,.2725-.4009,.6299-.835,1.0723-1.3022l-.3164-.2148c-.1982-.1343-.418-.1587-.6582-.0737-.2402,.0859-.5234,.3677-.8477,.8462-.2656,.3921-.5332,.9536-.8018,1.6836-.1025,.271-.1973,.4712-.2842,.6006-.1201,.1768-.2852,.2832-.4961,.3198-.21,.0366-.415-.0122-.6133-.147-.1113-.0757-.1943-.1631-.2471-.2617s-.0771-.2036-.0742-.3149c.0029-.1108,.0537-.313,.1514-.6055,.1318-.3887,.2861-.772,.4629-1.1489s.3594-.7036,.5459-.9795c.5586-.8232,1.1699-1.3418,1.834-1.5557,.6641-.2134,1.3037-.1113,1.9209,.3066l2.7285,1.8506,.1533-.2266c.2158-.3188,.4316-.5044,.6465-.5571,.2148-.0522,.4219-.0112,.6201,.123,.1943,.1318,.3066,.3071,.3369,.5259,.0312,.2192-.0615,.4883-.2783,.8071l-1.0518,1.5518Zm-2.373-1.6089c-.4639,.46-.8467,.9141-1.1514,1.3623-.3652,.5391-.5479,1.0913-.5479,1.6577,.0039,.3555,.0928,.5918,.2656,.7085,.125,.085,.2656,.0952,.4219,.0317,.2881-.1191,.5596-.3662,.8145-.7412,.2158-.3188,.3984-.7222,.5469-1.2104,.1484-.4878,.2207-.9619,.2188-1.4229l-.5684-.3857Z"/><path d="M95.3623,21.2628l.3584,.4028c.0518-.3809,.168-.7349,.3477-1.0615,.1797-.3271,.4229-.6274,.7305-.9009,.708-.6299,1.4639-.9087,2.2676-.8359,.6387,.0596,1.21,.3735,1.7158,.9419l1.9785,2.2241c.2529-.2251,.4883-.3359,.708-.332,.2188,.0034,.4082,.0947,.5674,.2739,.1562,.1748,.2217,.3726,.1982,.5923-.0244,.2202-.1797,.458-.4678,.7144l-1.0801,.9604c-.2881,.2563-.543,.3833-.7637,.3813-.2217-.002-.4121-.0923-.5713-.2715-.1553-.1748-.2227-.3716-.2002-.5898,.0215-.2183,.1592-.4399,.4121-.665l-2.0088-2.2588c-.2324-.2607-.4717-.3892-.7197-.3853-.3213,.0073-.665,.1733-1.0303,.4985-.2764,.2461-.4707,.5146-.584,.8071-.1133,.292-.1748,.7534-.1865,1.3833l1.9785,2.2241c.3076-.2734,.5322-.4204,.6729-.4419,.2949-.0527,.543,.0337,.7432,.2593,.1562,.1753,.2217,.3726,.1982,.5928-.0244,.2197-.1807,.458-.4678,.7139l-1.3604,1.21c-.2881,.2563-.543,.3833-.7637,.3813-.2217-.002-.4121-.0923-.5713-.2715-.1934-.2178-.251-.4702-.1709-.7568,.041-.1416,.2158-.3491,.5234-.6226l-2.5859-2.9072c-.2529,.2251-.4902,.335-.7109,.3296-.2217-.0059-.4092-.0962-.5654-.271-.1553-.1753-.2217-.373-.1973-.5928,.0234-.2202,.1797-.458,.4678-.7144l1.1377-1.0122Z"/><path d="M107.2002,9.3502l4.2178,7.416,.2373-.1353c.3301-.188,.6045-.2583,.8232-.2119,.2178,.0469,.3867,.1743,.5049,.3823,.1162,.2041,.1396,.4106,.0703,.6211-.0693,.21-.2715,.4102-.6064,.6011l-1.6299,.9268-.1934-.3398c-.2109,.3662-.4629,.6948-.7559,.9868-.292,.292-.624,.5439-.9951,.7549-1.0459,.5947-2.0596,.7715-3.042,.5303-.9814-.2417-1.7295-.8125-2.2412-1.7139-.5361-.9414-.6582-1.9355-.3662-2.9824,.292-1.0464,.9199-1.8438,1.8838-2.3926,.3623-.2056,.749-.3525,1.1611-.4399,.4111-.0869,.8506-.1162,1.3164-.0879l-.9854-1.7314-.2373,.1353c-.335,.1904-.6104,.2617-.8271,.2139-.2158-.0479-.3818-.1738-.4971-.3774-.1191-.2085-.1436-.4175-.0742-.6279,.0693-.21,.2715-.4102,.6064-.6011l1.6299-.9268Zm1.9678,6.7002c-.3271-.5752-.8057-.9473-1.4346-1.1162-.6299-.1694-1.2363-.0879-1.8203,.2441-.5801,.3296-.958,.8081-1.1338,1.4355-.1768,.6279-.1055,1.2222,.2139,1.7837,.291,.5117,.7109,.8286,1.2598,.9507s1.1543-.0044,1.8154-.3804c.6562-.3735,1.0742-.8286,1.2539-1.3652,.1807-.5366,.1289-1.0542-.1543-1.5522Z"/><path d="M128.9736,3.1495l1.4229,8.4121,.2695-.0459c.375-.0635,.6572-.0356,.8457,.083,.1895,.1187,.3037,.2959,.3438,.5322,.0391,.231-.0098,.4331-.1465,.6069-.1377,.1738-.3955,.293-.7754,.3569l-1.8496,.313-.0645-.3853c-.3242,.2715-.6738,.4941-1.0479,.6685-.375,.1743-.7725,.2969-1.1934,.3682-1.1865,.2007-2.2002,.0195-3.04-.5435s-1.3467-1.3555-1.5195-2.3774c-.1807-1.0684,.0459-2.0439,.6777-2.9277,.6328-.8833,1.4951-1.4175,2.5898-1.6025,.4102-.0693,.8242-.0747,1.2412-.0161,.416,.0591,.8389,.1821,1.2666,.3682l-.333-1.9644-.2695,.0459c-.3799,.0645-.6631,.0366-.8496-.082-.1865-.1191-.2988-.2939-.3379-.5254-.04-.2358,.0078-.4409,.1455-.6147,.1367-.1738,.3955-.293,.7754-.3569l1.8486-.313Zm-.4453,6.9688c-.1104-.6519-.4326-1.1655-.9658-1.54-.5342-.3745-1.1318-.5059-1.7939-.3936-.6572,.1108-1.1768,.4312-1.5566,.9604-.3809,.5293-.5176,1.1123-.4102,1.749,.0986,.5801,.3848,1.022,.8584,1.3247s1.085,.3906,1.835,.2642c.7451-.126,1.2939-.4106,1.6465-.853,.3535-.4429,.4824-.9468,.3867-1.5117Z"/><path d="M140.584,9.9019l-6.5654,.2476c.1816,.4102,.4902,.7349,.9238,.9736,.4336,.2393,1.0127,.3452,1.7363,.3179,.5928-.0225,1.377-.1797,2.3506-.4717,.4023-.1196,.6816-.1821,.8369-.188,.2139-.0083,.3965,.0605,.5479,.2061s.2314,.3325,.2402,.5615c.0078,.2085-.0635,.3882-.2148,.54-.2002,.2002-.7012,.4028-1.501,.6074-.8008,.2051-1.5723,.3213-2.3174,.3496-1.2803,.0483-2.3174-.2749-3.1123-.9697-.7949-.6943-1.2129-1.5698-1.252-2.6265-.043-1.124,.3379-2.0542,1.1416-2.791,.8027-.7363,1.7461-1.125,2.8291-1.166,.6504-.0244,1.252,.0674,1.8047,.2759,.5518,.2085,.9658,.4404,1.2412,.6958,.3896,.3711,.7168,.8359,.9834,1.394,.1816,.3892,.2822,.8442,.3018,1.3643l.0254,.6792Zm-1.832-1.5337c-.2627-.4482-.5957-.7788-.999-.9902-.4043-.2114-.8799-.3066-1.4258-.2861-.542,.0205-1.0059,.1514-1.3926,.3926-.3877,.2412-.6973,.5957-.9297,1.063l4.7471-.1792Z"/><path d="M148.5098,7.8526c-.249-.1782-.5137-.3174-.7939-.417s-.5771-.1597-.8887-.1802c-.6182-.041-1.1162,.0273-1.4932,.2061-.167,.0776-.2539,.1685-.2607,.2725-.0078,.1196,.0928,.2437,.3037,.3726,.1611,.0942,.5273,.1992,1.0986,.3154,1.0508,.2158,1.7793,.4106,2.1846,.5835,.5332,.2285,.9355,.5425,1.2061,.9414,.2715,.3989,.3926,.8091,.3652,1.23-.0381,.5718-.3223,1.0332-.8516,1.3843-.7598,.5083-1.7158,.7236-2.8691,.647-.4629-.0308-.8877-.0991-1.2744-.2056-.3877-.1069-.7393-.249-1.0566-.4268-.082,.0625-.1689,.1089-.2598,.1396-.0908,.0303-.1826,.0425-.2764,.0361-.249-.0166-.4424-.1113-.5801-.2852-.1367-.1733-.1934-.4521-.168-.8369l.0361-.5381c.0254-.3843,.1182-.6538,.2764-.8076,.1592-.1538,.3584-.2227,.5977-.207,.1924,.0127,.3496,.0771,.4727,.1919,.123,.1152,.2119,.3052,.2676,.5698,.2305,.2241,.5137,.4009,.8496,.5303s.7275,.2085,1.1738,.2383c.7334,.0488,1.3096-.0278,1.7305-.2295,.1992-.1016,.3037-.2148,.3115-.3394,.0146-.208-.1123-.3887-.3789-.542s-.8281-.3057-1.6836-.4565c-1.2754-.2202-2.1152-.5371-2.5215-.9502-.4062-.4077-.5908-.8901-.5537-1.4463,.0381-.5713,.3115-1.0308,.8203-1.3784,.6885-.4761,1.5635-.6787,2.624-.6084,.3691,.0244,.7207,.083,1.0566,.1758s.6553,.2222,.957,.3882c.1035-.0659,.1992-.1143,.2881-.145,.0879-.0308,.168-.0435,.2412-.0391,.2178,.0146,.3945,.1084,.5293,.2822,.1348,.1733,.1885,.4521,.1631,.8364l-.0254,.3901c-.0234,.3481-.0811,.5815-.1719,.7012-.1826,.228-.416,.3325-.7021,.3135-.1924-.0127-.3574-.084-.4951-.2129-.1377-.1294-.2207-.2939-.249-.4941Z"/><path d="M158.0186,7.1192l-.8184,5.4307,1.9004,.2866c.3809,.0576,.6416,.1719,.7812,.3433,.1406,.1714,.1924,.3755,.1562,.6123-.0342,.2319-.1445,.4087-.3291,.5312-.1836,.1221-.4668,.1548-.8477,.0972l-5.3848-.8125c-.3809-.0571-.6416-.1719-.7812-.3428-.1406-.1714-.1924-.3755-.1572-.6123,.0352-.2319,.1455-.4087,.3291-.5312,.1846-.1221,.4678-.1548,.8486-.0972l1.9004,.2866,.5801-3.8472-1.2744-.1919c-.376-.0571-.6357-.1709-.7783-.3428-.1426-.1714-.1963-.376-.1602-.6128,.0352-.2319,.1445-.4087,.3291-.5312,.1846-.1221,.4668-.1548,.8486-.0972l2.8574,.4312Zm.2373-3.0376l-.2529,1.6763-1.8848-.2842,.2529-1.6763,1.8848,.2842Z"/><path d="M169.0186,9.7496l.1025-.4653,1.8311,.4053c.376,.0835,.6289,.2153,.7568,.3955,.1279,.1807,.166,.3877,.1143,.6216-.0508,.229-.1719,.3979-.3643,.5073s-.4766,.1226-.8535,.0391l-.2666-.0591-1.2598,5.6904c-.1221,.5493-.3438,1.0029-.665,1.3608-.3223,.3584-.7549,.6318-1.2988,.8213-.543,.189-1.1143,.2168-1.7148,.084l-1.7695-.3916c-.376-.0835-.6279-.2153-.7568-.3955-.1279-.1807-.166-.3853-.1162-.6138,.0518-.2339,.1738-.4058,.3662-.5151s.4766-.1226,.8535-.0396l1.7236,.3818c.4775,.106,.8779,.0586,1.1992-.1426,.3223-.2007,.5273-.4995,.6152-.896l.1689-.7627c-.3955,.147-.7852,.2373-1.168,.2695-.3838,.0322-.7637,.0068-1.1396-.0762-1.0625-.2354-1.874-.7871-2.4346-1.6553-.5596-.8682-.7236-1.8232-.4932-2.8657,.2314-1.0479,.7852-1.8467,1.6592-2.3975s1.8418-.7085,2.9053-.4731c.3965,.0879,.7617,.229,1.0947,.4229,.333,.1934,.6367,.4434,.9102,.7495Zm-.6719,2.9961c.1279-.5747,.0254-1.1201-.3057-1.6362s-.7939-.8398-1.3887-.9717c-.5957-.1318-1.1523-.0337-1.6699,.2944-.5186,.3281-.8408,.7793-.9678,1.354-.1289,.5796-.0264,1.1265,.3047,1.6401,.332,.5132,.7949,.8359,1.3906,.9678,.5947,.1318,1.1504,.0347,1.668-.2905,.5176-.3257,.8408-.7783,.9688-1.3579Z"/><path d="M175.8125,10.9771l-.1465,.519c.3486-.1621,.709-.2554,1.0811-.2803,.373-.0254,.7568,.0181,1.1533,.1294,.9121,.2568,1.5547,.7432,1.9268,1.459,.2939,.5698,.3379,1.2207,.1318,1.9526l-.8057,2.8657c.3252,.0913,.5459,.2305,.6611,.417,.1152,.187,.1406,.3955,.0752,.626-.0635,.2256-.1943,.3877-.3916,.4863-.1982,.0981-.4834,.0952-.8545-.0088l-1.3906-.3916c-.3711-.1045-.6162-.2505-.7334-.4375-.1182-.1875-.1445-.3965-.0791-.627,.0635-.2256,.1924-.3882,.3887-.4873,.1953-.0991,.4561-.103,.7822-.0112l.8184-2.9102c.0947-.3359,.0742-.6069-.0635-.8135-.1787-.2666-.5039-.4663-.9756-.5991-.3555-.1001-.6875-.1191-.9941-.0566-.3076,.0625-.7295,.2588-1.2656,.5894l-.8066,2.8652c.3965,.1118,.6416,.2212,.7354,.3286,.2041,.2197,.2646,.4751,.1826,.7656-.0635,.2256-.1943,.3877-.3926,.4863-.1982,.0981-.4824,.0952-.8535-.0093l-1.752-.4927c-.3711-.1045-.6152-.2505-.7334-.4375-.1172-.1875-.1445-.3965-.0791-.627,.0791-.2808,.2607-.4653,.5449-.5527,.1416-.0415,.4102-.0063,.8066,.105l1.0537-3.7451c-.3262-.0918-.5459-.2319-.6611-.4214-.1143-.189-.1396-.3965-.0762-.6221s.1943-.3877,.3926-.4858c.1982-.0986,.4824-.0957,.8535,.0088l1.4668,.4126Z"/><path d="M201.2715,16.2701l-2.9863,7.9917,.2559,.0957c.3564,.1333,.5869,.2983,.6904,.4956,.1045,.1973,.1143,.4087,.0303,.6328-.082,.2197-.2256,.3701-.4307,.4517-.2061,.0815-.4893,.0552-.8506-.0796l-1.7559-.6567,.1367-.3657c-.417,.0723-.8301,.0903-1.2422,.0532-.4111-.0371-.8174-.1304-1.2168-.2798-1.127-.4214-1.9131-1.0859-2.3574-1.9941-.4453-.9087-.4854-1.8481-.123-2.8188,.3789-1.0151,1.0635-1.7461,2.0537-2.1934,.9902-.4478,2.0049-.4771,3.0439-.0889,.3906,.146,.751,.3486,1.082,.6089,.3311,.2598,.6348,.5776,.9111,.9536l.6982-1.8662-.2568-.0957c-.3613-.1353-.5918-.3008-.6943-.4971-.1016-.1968-.1113-.4048-.0293-.624,.084-.2246,.2285-.3774,.4346-.459,.2051-.082,.4883-.0552,.8496,.0796l1.7568,.6562Zm-3.8799,5.8066c.2314-.6196,.2109-1.2256-.0635-1.8169-.2734-.5918-.7246-1.0049-1.3545-1.2402-.624-.2334-1.2344-.2163-1.8281,.0508-.5947,.2671-1.0059,.7031-1.2314,1.3081-.2061,.5513-.1797,1.0767,.0781,1.5762s.7432,.8823,1.4561,1.1484c.707,.2646,1.3242,.2935,1.8516,.0874s.8916-.5771,1.0918-1.1138Z"/><path d="M208.6865,26.587c-.2412,.5654-.6309,1.0464-1.1699,1.4419-.54,.396-1.1865,.6187-1.9404,.668-.7549,.0498-1.4697-.0693-2.1455-.3569-.6709-.2856-1.2471-.7139-1.7285-1.2842s-.7695-1.1899-.8643-1.8584-.0186-1.293,.2285-1.8726c.251-.5894,.6602-1.0986,1.2285-1.5278,.5674-.4292,1.2256-.6763,1.9756-.7422,.75-.0654,1.458,.0435,2.124,.3271,.6709,.2856,1.2451,.7275,1.7246,1.3247,.4785,.5972,.7559,1.2446,.832,1.9424,.0771,.6978-.0117,1.3438-.2646,1.938Zm-1.4766-.6201c.2021-.4746,.2178-.9829,.0469-1.5259-.2363-.7344-.7334-1.2632-1.4902-1.5854-.666-.2837-1.3125-.3071-1.9395-.0703-.6279,.2363-1.0605,.6353-1.2998,1.1958-.1953,.46-.1533,.9858,.127,1.5781,.2793,.5918,.748,1.0273,1.4043,1.3071,.6611,.2817,1.3027,.3184,1.9229,.1099,.6211-.208,1.0303-.5444,1.2285-1.0093Z"/><path d="M217.7656,27.3214c.2549-.0757,.4727-.0679,.6533,.0239,.2051,.1035,.3359,.2617,.3945,.4751s.002,.4897-.1699,.8291l-.4648,.9204c-.1738,.3438-.3633,.5542-.5693,.6313-.2051,.0771-.415,.0615-.6279-.0464-.1953-.0986-.333-.2378-.4111-.4175-.0547-.1333-.0449-.3428,.0293-.6289s.0371-.5459-.1133-.7798c-.2637-.4136-.6885-.7681-1.2744-1.0645-.6738-.3408-1.3145-.416-1.9199-.2271-.6074,.1895-1.0625,.5864-1.3682,1.1904-.2822,.5581-.3096,1.0972-.083,1.6177,.2275,.5205,.7939,1.0098,1.7002,1.4678,.5947,.3008,1.1113,.4863,1.5488,.5557,.2607,.0386,.5361,.019,.8271-.0591,.29-.0776,.5166-.0757,.6787,.0063,.1953,.0991,.3271,.2563,.3965,.4722,.0693,.2153,.0537,.4209-.0449,.6162-.1592,.3159-.5273,.5068-1.1025,.5718-.8555,.0981-1.9014-.165-3.1377-.79-1.1113-.5615-1.8594-1.229-2.2441-2.0015-.5244-1.0415-.5146-2.0986,.0283-3.1724,.5146-1.0181,1.2793-1.689,2.2949-2.0127,1.0166-.3237,2.0703-.2095,3.1631,.3428,.3945,.1997,.7432,.4224,1.0449,.6685s.5586,.5161,.7715,.8105Z"/><path d="M227.6328,32.5567l-2.7637,4.7461c.293,.1704,.4707,.3613,.5342,.5732s.0361,.4189-.082,.6216c-.1172,.2026-.2852,.3267-.501,.3721-.2168,.0459-.4912-.0283-.8242-.2222l-1.3164-.7666,.1846-.3174c-.501-.0508-.958-.1357-1.3701-.2554-.4131-.1196-.7812-.2739-1.1045-.4624-.4551-.2651-.793-.5898-1.0146-.9751s-.3311-.8032-.3281-1.2534c.002-.3242,.1094-.6685,.3213-1.0332l1.7344-2.9771-.2363-.1377c-.333-.1943-.5332-.3965-.6006-.6074s-.04-.4194,.0801-.6265c.1182-.2026,.2852-.3267,.502-.3726s.4912,.0283,.8242,.2222l1.6201,.9438-2.3984,4.1182c-.1699,.2925-.2246,.5488-.1621,.7686,.0615,.2197,.2383,.415,.5312,.5854,.2793,.1621,.6113,.2822,.998,.3594,.3857,.0771,.8984,.1094,1.5391,.0962l1.6436-2.8218-.5-.291c-.333-.1938-.5332-.3965-.5996-.6069-.0674-.2109-.041-.4199,.0801-.627,.1182-.2026,.2852-.3267,.502-.3726,.2158-.0454,.4902,.0283,.8242,.2227l1.8828,1.0967Z"/><path d="M231.3818,34.9195l-.25,.3779c.3584-.0693,.6514-.0859,.8809-.0498,.2285,.0361,.459,.1304,.6885,.2827,.1953,.1294,.3574,.3052,.4854,.5269,.1279,.2222,.2197,.4893,.2754,.8008,.3564-.0386,.6846-.0264,.9834,.0371,.2979,.0635,.5713,.1768,.8184,.3408,.4951,.3276,.8096,.7261,.9424,1.1948,.1787,.6177,.0811,1.209-.293,1.7734l-1.9795,2.9902c.2783,.1841,.4434,.3838,.4941,.5986,.0508,.2153,.0127,.4204-.1172,.6157-.1289,.1958-.3027,.3105-.5186,.3452-.2168,.0347-.4854-.0542-.8076-.2671l-1.2695-.8408,2.7891-4.2148c.1357-.2041,.1924-.3701,.1699-.4971s-.1094-.2407-.2607-.3413c-.1484-.0977-.3105-.1494-.4883-.1543-.2324,.002-.5635,.0767-.9922,.2241l-1.7803,2.6909c.2773,.1836,.4424,.3833,.4932,.5981,.0518,.2153,.0127,.4204-.1162,.6162-.1299,.1953-.3027,.3101-.5195,.3447s-.4854-.0542-.8066-.2671l-1.2705-.8408,2.79-4.2148c.1318-.1997,.1865-.3652,.1641-.4956-.0234-.1309-.1104-.2466-.2627-.3472-.1562-.1035-.3428-.1562-.5596-.1592s-.5273,.0708-.9326,.2207l-1.7812,2.6904c.2783,.1841,.4434,.3843,.4971,.6011,.0537,.2163,.0156,.4224-.1133,.6177-.1299,.1953-.3037,.3101-.5225,.3433s-.4893-.0566-.8105-.2695l-1.2051-.7974c-.3213-.2129-.5098-.4263-.5645-.6406s-.0156-.4214,.1162-.6216c.1289-.1953,.3027-.3101,.5186-.3447,.2168-.0352,.4658,.041,.749,.228l2.1465-3.2441c-.2822-.187-.4492-.3882-.5-.603s-.0117-.4204,.1172-.6157,.3037-.3101,.5225-.3433,.4883,.0566,.8096,.2695l1.2705,.8408Z"/><path d="M242.4775,48.1026l-5.2656-3.9302c-.1152,.4336-.0801,.8794,.1084,1.3379,.1865,.4585,.5713,.9043,1.1514,1.3374,.4756,.355,1.1836,.7251,2.126,1.1094,.3877,.1597,.6436,.2861,.7695,.3794,.1709,.1279,.2695,.2959,.2959,.5039,.0264,.2085-.0283,.4043-.166,.5879-.124,.167-.293,.2622-.5049,.2856-.2822,.0298-.7998-.127-1.5508-.4697-.751-.3433-1.4248-.7378-2.0225-1.1831-1.0264-.7666-1.6309-1.6694-1.8135-2.7095-.1826-1.0396,.042-1.9829,.6748-2.8301,.6729-.9019,1.5537-1.3867,2.6416-1.4556,1.0879-.0684,2.0654,.2212,2.9336,.8696,.5215,.3892,.9326,.8384,1.2314,1.3477s.4756,.9497,.5293,1.3218c.0703,.5332,.0332,1.1001-.1104,1.7017-.1035,.417-.3105,.834-.6221,1.2515l-.4062,.5444Zm-.4629-2.3442c.0771-.5137,.0254-.9795-.1562-1.3979s-.4912-.791-.9297-1.1182c-.4336-.3242-.877-.5137-1.3301-.5688s-.916,.0259-1.3906,.2437l3.8066,2.8413Z"/><path d="M248.6719,47.5352l-.3457,.4131c.3838-.0044,.751,.0586,1.1006,.1885,.3496,.1304,.6816,.3276,.9971,.5918,.7266,.6089,1.1123,1.3164,1.1572,2.1221,.0342,.6406-.1934,1.252-.6816,1.8345l-1.9131,2.2812c.2598,.2173,.4033,.4346,.4316,.6523,.0283,.2173-.0342,.418-.1885,.6016-.1504,.1797-.3359,.2734-.5566,.2817-.2217,.0083-.4795-.1113-.7754-.3589l-1.1074-.9287c-.2949-.2476-.458-.481-.4883-.7002s.0312-.4204,.1855-.604c.1504-.1797,.335-.2744,.5547-.2842,.2188-.0103,.458,.0938,.7178,.311l1.9424-2.3169c.2236-.2671,.3164-.5229,.2764-.7671-.0537-.3169-.2686-.6328-.6436-.9473-.2832-.2378-.5781-.3911-.8828-.4604-.3057-.0693-.7715-.0635-1.3965,.0171l-1.9121,2.2812c.3154,.2642,.4932,.4648,.5352,.6016,.0947,.2837,.0459,.5415-.1484,.7729-.1504,.1797-.3369,.2734-.5576,.2817s-.4795-.1113-.7744-.3589l-1.3955-1.1694c-.2949-.248-.458-.481-.4883-.7002s.0312-.4204,.1855-.6045c.1875-.2231,.4287-.3164,.7246-.2798,.1455,.0205,.376,.1631,.6914,.4272l2.5-2.981c-.2598-.2178-.4023-.436-.4297-.6558-.0264-.2192,.0352-.4189,.1865-.5986,.1504-.1797,.3359-.2734,.5576-.2817,.2207-.0083,.4785,.1113,.7744,.3589l1.167,.979Z"/><path d="M256.2373,56.3209l-2.2002,2.3384c-.2354,.2505-.3398,.4639-.3125,.6396,.042,.2754,.2676,.6055,.6777,.9907,.5947,.5605,1.2646,.9507,2.0088,1.1714,.2861,.0835,.4844,.1768,.5938,.2803,.1523,.1426,.2305,.3237,.2354,.5425,.0049,.2192-.0693,.4106-.2236,.5737-.1426,.1514-.3262,.2251-.5508,.2212-.3535,.0034-.875-.1777-1.5645-.5435-.6895-.3662-1.2217-.7256-1.5967-1.0791-.7246-.6816-1.1211-1.3491-1.1885-2.0029-.0684-.6538,.1123-1.2085,.54-1.6636l2.4141-2.5664-.4209-.396c-.2803-.2642-.4297-.5063-.4473-.7271-.0176-.2202,.0547-.418,.2197-.5923,.1602-.1709,.3506-.2539,.5723-.2495,.2217,.0039,.4717,.1382,.7529,.4023l.4209,.396,.9902-1.0527c.2646-.2803,.5068-.4297,.7275-.4478,.2197-.0176,.418,.0557,.5918,.2197,.1709,.1606,.2539,.3516,.25,.5728s-.1387,.4722-.4023,.7529l-.9902,1.0527,2.1562,2.0288c.2803,.2642,.4297,.5063,.4482,.7271,.0176,.2202-.0557,.418-.2197,.5923-.1611,.1709-.3516,.2539-.5732,.2495-.2207-.0044-.4717-.1382-.7529-.4023l-2.1562-2.0288Z"/><path d="M260.7529,68.6095l.2725-.2583c-.4316-.144-.8516-.355-1.2627-.6333-.4102-.2783-.752-.561-1.0244-.8481-.5908-.6235-.9062-1.2871-.9443-1.9897-.0381-.7031,.1436-1.2441,.5439-1.624,.4873-.4624,1.1758-.6426,2.0645-.5415s1.749,.5903,2.5801,1.4673c.334,.3516,.6807,.7939,1.042,1.3267l.2783-.2632c.1738-.165,.2451-.374,.2129-.627-.0322-.2534-.2471-.5898-.6445-1.0093-.3262-.3442-.8164-.7256-1.4727-1.145-.2422-.1572-.417-.293-.5244-.4062-.1475-.1553-.2158-.3394-.207-.5527,.0098-.2134,.1016-.4023,.2754-.5674,.0986-.0933,.2012-.1548,.3086-.1851s.2158-.0322,.3232-.0054c.1084,.0269,.2949,.1196,.5596,.2778,.3516,.2119,.6924,.4448,1.0225,.6987,.3311,.2539,.6104,.502,.8398,.7437,.6846,.7222,1.0596,1.4302,1.126,2.1245,.0654,.6943-.1719,1.2979-.7119,1.8101l-2.3926,2.2681,.1875,.1987c.2656,.2793,.4004,.5298,.4053,.751s-.0791,.4146-.2529,.5791c-.1699,.1611-.3652,.2334-.5859,.2163-.2207-.0166-.4639-.165-.7285-.4448l-1.29-1.3608Zm2.0811-1.9727c-.3496-.5508-.7109-1.0229-1.084-1.416-.4482-.4727-.9482-.7695-1.501-.8911-.3486-.0723-.5977-.0361-.749,.1069-.1094,.104-.1504,.2393-.1211,.4058,.0537,.3071,.2373,.625,.5488,.9541,.2646,.2798,.6201,.5444,1.0645,.7939s.8926,.4229,1.3428,.5195l.499-.4731Z"/><path d="M270.2871,71.0777l-2.4531,2.0718c-.2627,.2217-.3906,.4214-.3838,.5996,.0098,.2778,.1963,.6318,.5596,1.0615,.5273,.625,1.1475,1.0894,1.8613,1.3936,.2744,.1157,.4609,.231,.5586,.3467,.1338,.1587,.1914,.3477,.1709,.5659s-.1162,.3994-.2871,.5439c-.1592,.1343-.3496,.1865-.5732,.1567-.3516-.0371-.8486-.2769-1.4912-.7192s-1.1309-.8604-1.4629-1.2544c-.6426-.7598-.959-1.4688-.9521-2.126,.0078-.6572,.25-1.1875,.7275-1.5903l2.6924-2.2734-.373-.4414c-.249-.2949-.3691-.5527-.3613-.7734,.0068-.2212,.1025-.4092,.2861-.5635,.1787-.1514,.3779-.2124,.5967-.1826,.2197,.0298,.4531,.1914,.7021,.4858l.373,.4419,1.1045-.9321c.2939-.249,.5518-.3696,.7734-.3618,.2207,.0073,.4092,.103,.5635,.2861,.1514,.1787,.2119,.3779,.1826,.5972-.0303,.2192-.1924,.4531-.4863,.7021l-1.1045,.9321,1.9102,2.2627c.249,.2944,.3691,.5522,.3613,.7729-.0068,.2212-.1025,.4092-.2852,.564-.1797,.1509-.3789,.2119-.5977,.1821-.2197-.0293-.4531-.1914-.7021-.4858l-1.9102-2.2627Z"/><path d="M278.6602,79.0396l-4.3926,3.2969,1.1543,1.5371c.2314,.3081,.3369,.5723,.3164,.793-.0205,.2202-.126,.4023-.3174,.5459-.1875,.1406-.3906,.1899-.6074,.1479s-.4414-.2173-.6729-.5254l-3.2686-4.355c-.2314-.3081-.3369-.5728-.3174-.793,.0205-.2202,.126-.4023,.3184-.5459,.1875-.1411,.3896-.1904,.6064-.1479,.2178,.042,.4414,.2173,.6729,.5254l1.1543,1.5371,3.1113-2.3359-.7734-1.0308c-.2285-.3042-.334-.5674-.3145-.7896,.0186-.2227,.123-.4058,.3154-.5493,.1875-.1406,.3896-.1899,.6064-.1479,.2178,.042,.4414,.2173,.6729,.5254l1.7354,2.312Zm2.2988-1.9995l-1.3555,1.0176-1.1445-1.5244,1.3564-1.0176,1.1436,1.5244Z"/><path d="M283.3545,92.294c-.5117,.3403-1.1016,.5278-1.7695,.5625s-1.3311-.1338-1.9883-.5068c-.6582-.3726-1.1904-.8643-1.5967-1.4761-.4043-.6069-.6504-1.2812-.7402-2.022-.0898-.7412,.0098-1.4175,.2979-2.0278,.2881-.6108,.6943-1.0908,1.2188-1.4399,.5332-.355,1.1553-.5557,1.8652-.6025,.71-.0474,1.3965,.1079,2.0596,.4644,.6621,.3569,1.1943,.8364,1.5947,1.4395,.4043,.6069,.6426,1.2915,.7148,2.0537,.0713,.7622-.0518,1.4556-.3711,2.0806-.3193,.6255-.7471,1.1167-1.2852,1.4746Zm-.8936-1.3291c.4297-.2856,.7217-.7021,.877-1.2495,.2061-.7437,.0811-1.458-.375-2.1431-.4014-.603-.9287-.9775-1.583-1.124s-1.2354-.0513-1.7422,.2861c-.416,.2773-.6699,.7397-.7607,1.3882s.0605,1.27,.4561,1.8643c.3984,.5981,.9141,.981,1.5469,1.1475,.6338,.167,1.1602,.1104,1.5811-.1694Z"/><path d="M288.7432,94.1139l-.4648,.2729c.3633,.125,.6875,.3076,.9736,.5474,.2852,.2402,.5322,.5376,.7402,.8926,.4795,.8179,.6045,1.6138,.377,2.3877-.1836,.6143-.6025,1.1138-1.2588,1.4985l-2.5684,1.5059c.1719,.292,.2344,.5449,.1875,.7593-.0459,.2144-.1729,.3823-.3789,.5034-.2021,.1187-.4092,.1445-.6201,.0781s-.4141-.2661-.6094-.5981l-.7305-1.2471c-.1953-.3325-.2705-.6069-.2256-.8237,.0459-.2163,.1709-.3853,.3779-.5063,.2021-.1187,.4082-.146,.6182-.0815,.21,.064,.4004,.2422,.5713,.5342l2.6084-1.5293c.3008-.1763,.4736-.3862,.5176-.6299,.0557-.3164-.04-.686-.2871-1.1084-.1875-.3188-.4131-.5625-.6777-.7305-.2646-.1675-.7041-.3188-1.3203-.4526l-2.5674,1.5054c.208,.355,.3086,.604,.3018,.7471-.0059,.2988-.1387,.5249-.3994,.6777-.2021,.1187-.4092,.1445-.6201,.0781s-.4141-.2656-.6084-.5981l-.9209-1.5703c-.1953-.3325-.2705-.6069-.2246-.8237,.0449-.2168,.1709-.3853,.377-.5068,.252-.1475,.5107-.1543,.7764-.02,.1309,.0684,.2998,.2798,.5078,.6348l3.3564-1.9678c-.1709-.2925-.2324-.5459-.1836-.7617,.0479-.2158,.1738-.3828,.376-.5015s.4082-.1445,.6201-.0781c.2109,.0664,.4131,.2661,.6084,.5986l.7705,1.314Z"/></g></svg>