<?xml version="1.0" encoding="UTF-8"?><svg id="Layer_1" xmlns="http://www.w3.org/2000/svg" width="79.3844" height="74.1352" viewBox="0 0 79.3844 74.1352"><defs><style>.cls-1{fill:#ffb505;}.cls-2{fill:#1e35f5;}</style></defs><path class="cls-2" d="M28.1842,2.0161c18.2734-6.2915,44.0449,2.4431,50,22,6.0273,19.7947-11.7881,39.0442-28,46-13.5205,5.8013-34.1738,6.5902-44-5C-7.683,48.6594,2.6813,10.7965,28.1842,2.0161Z"/><path class="cls-1" d="M38.318,8.5161c-1.6162,4.9421-4.0898,12.2302-7.3965,20.9568-7.3926,19.5095-12.7881,29.9427-11.8516,30.4685,.6758,.3794,4.6221-4.4174,19.6143-28.4253,4.75,9.9882,9.501,19.9764,14.251,29.9646,.167-7.8132-.5303-19.1677-4.7549-32.0078-2.8555-8.6786-6.5508-15.6891-9.8623-20.9568Z"/></svg>