<?xml version="1.0" encoding="UTF-8"?><svg id="Layer_1" xmlns="http://www.w3.org/2000/svg" width="294" height="123.4391" viewBox="0 0 294 123.4391"><defs><style>.cls-1{fill:none;stroke:#000;stroke-linecap:round;stroke-linejoin:round;stroke-width:5px;}</style></defs><g><path class="cls-1" d="M121.9157,119.4869h82.9231V58.7412l-41,.1464c-4.6666-3-9.3334-6-14-9-9.3077,.0513-18.6154,.1026-27.9231,.1538V119.4869Z"/><line class="cls-1" x1="122.3492" y1="66.3876" x2="204.3264" y2="66.3876"/></g><g><path d="M57.8105,76.7154l3.0977,3.2529c.1338-.5679,.3281-1.0835,.584-1.5469,.2549-.4634,.5684-.8726,.9414-1.2275,1.0039-.9561,2.1846-1.4204,3.543-1.3916,1.3574,.0283,2.5029,.5327,3.4375,1.5132,.8936,.9385,1.3076,2.0386,1.2422,3.3013-.0654,1.2622-.6426,2.4121-1.7314,3.4492-.3867,.3682-.8066,.6738-1.2588,.916s-.9385,.4258-1.457,.5513l.3369,.3535-1.6973,1.6167c-.3486,.3325-.6611,.502-.9385,.5088-.2764,.0073-.5176-.0977-.7236-.3145-.2021-.2119-.292-.457-.2695-.7354,.0234-.2778,.207-.5811,.5508-.9087l.248-.2358-5.9746-6.272-.2471,.2354c-.3496,.3325-.6621,.502-.9385,.5093-.2764,.0068-.5176-.0977-.7246-.3149-.2021-.2119-.293-.4561-.2725-.7314,.0205-.2759,.2051-.5801,.5547-.9121l1.6973-1.6167Zm10.1943,2.0234c-.5703-.5986-1.2627-.9058-2.0781-.9209-.8145-.0151-1.5254,.2666-2.1338,.8462-.6035,.5747-.917,1.269-.9414,2.0835-.0254,.8149,.2412,1.5142,.7979,2.0986,.5078,.5327,1.1123,.7905,1.8154,.7729,.7021-.0171,1.3975-.354,2.0859-1.0093,.6885-.6558,1.0596-1.335,1.1133-2.0386,.0547-.7031-.165-1.314-.6592-1.8325Z"/><path d="M78.6484,71.9131l-.3857-.2671c-.0654,.5645-.2158,1.1333-.4502,1.707-.2354,.5737-.4932,1.0645-.7744,1.4712-.6113,.8833-1.3418,1.439-2.1924,1.666-.8496,.2275-1.5586,.145-2.126-.2476-.6904-.478-1.0879-1.2734-1.1924-2.3872-.1045-1.1133,.2725-2.291,1.1318-3.5332,.3447-.4976,.7969-1.0361,1.3555-1.6152l-.3936-.2725c-.2461-.1704-.5205-.2031-.8213-.0996-.3018,.1045-.6582,.4536-1.0693,1.0479-.3369,.4873-.6777,1.1855-1.0225,2.0952-.1299,.3374-.251,.5859-.3623,.7466-.1523,.2197-.3594,.3511-.623,.3945s-.5186-.0205-.7646-.1909c-.1396-.0962-.2412-.2061-.3057-.3301s-.0947-.2554-.0898-.3945c.0059-.1387,.0703-.3906,.1963-.7549,.1689-.4849,.3662-.9614,.5918-1.4312,.2256-.4692,.457-.875,.6943-1.2178,.708-1.0225,1.4775-1.6636,2.3105-1.9229,.832-.2593,1.6309-.124,2.3965,.4058l3.3896,2.3447,.1943-.2808c.2734-.3965,.5459-.626,.8145-.689,.2695-.063,.5273-.0093,.7734,.1606,.2412,.167,.3799,.3872,.415,.6616,.0361,.2739-.083,.6094-.3564,1.0054l-1.334,1.9277Zm-2.9473-2.0396c-.584,.5698-1.0684,1.1333-1.4541,1.6899-.4629,.6694-.6982,1.3579-.7051,2.0654,.002,.4443,.1094,.7407,.3232,.8887,.1562,.1074,.332,.1221,.5283,.0444,.3613-.1455,.7031-.4512,1.0254-.917,.2744-.396,.5068-.8979,.6982-1.5063,.1914-.6079,.2881-1.1997,.291-1.7759l-.707-.4893Z"/><path d="M79.207,56.4009c-.3115,.2222-.584,.4785-.8154,.769-.2324,.291-.4238,.6167-.5752,.9766-.3008,.7144-.4219,1.3306-.3643,1.8491,.0234,.229,.0957,.3687,.2158,.4194,.1377,.0581,.3262-.0112,.5635-.208,.1768-.1514,.4502-.5415,.8203-1.1699,.6836-1.1533,1.21-1.9351,1.5801-2.3442,.4863-.5371,1.0215-.8843,1.6035-1.042s1.1152-.1348,1.6016,.0698c.6602,.2778,1.0898,.8013,1.2891,1.5698,.292,1.1045,.1572,2.3223-.4033,3.6548-.2246,.5342-.4785,1.0083-.7627,1.4224-.2832,.4136-.5947,.772-.9336,1.0742,.04,.123,.0596,.2441,.0586,.3638s-.0234,.2334-.0693,.3418c-.1211,.2881-.3115,.4775-.5732,.5693-.2607,.0913-.6133,.0439-1.0576-.1431l-.6211-.2612c-.4434-.1865-.7246-.4053-.8418-.6558s-.1172-.5137-.001-.79c.0928-.2222,.2334-.3823,.4189-.4805,.1865-.0981,.4473-.1265,.7822-.084,.3584-.1812,.6826-.4438,.9727-.7886,.2891-.3442,.543-.7744,.7598-1.2905,.3564-.8462,.5-1.5586,.4336-2.1377-.0391-.2778-.1309-.4468-.2744-.5073-.2402-.1011-.5049-.0254-.7949,.2271s-.6982,.854-1.2256,1.8047c-.7793,1.417-1.4951,2.2808-2.1494,2.5923-.6475,.314-1.292,.3359-1.9346,.0654-.6602-.2773-1.0918-.7876-1.2949-1.5298-.2822-1.0083-.166-2.125,.3496-3.3491,.1787-.4263,.3916-.8188,.6377-1.1777s.5293-.6831,.8486-.9727c-.0361-.1494-.0537-.2822-.0547-.3989,0-.1167,.0176-.2173,.0527-.3013,.1064-.252,.2891-.4224,.5488-.5107s.6113-.0396,1.0557,.1475l.4502,.189c.4014,.1694,.6543,.332,.7588,.4888,.1943,.3081,.2227,.6274,.084,.957-.0928,.2222-.2441,.3887-.4531,.498-.208,.1104-.4365,.1411-.6855,.0933Z"/><path d="M77.2109,43.7896l1.9932,.7202-.8096,2.2407-1.9932-.7202,.8096-2.2407Zm3.666,1.0337l6.4561,2.333,.8164-2.2593c.1641-.4531,.3682-.7446,.6123-.8745s.5068-.1436,.7881-.042c.2764,.0996,.4658,.2773,.5713,.5332,.1045,.2559,.0752,.6104-.0889,1.0635l-2.3125,6.4014c-.1641,.4536-.3682,.7446-.6123,.8745s-.5068,.144-.7891,.042c-.2754-.0996-.4658-.2773-.5703-.5332s-.0752-.6104,.0889-1.0635l.8164-2.2593-4.5742-1.6528-.5479,1.5156c-.1611,.4468-.3643,.7368-.6104,.8696-.2451,.1328-.5088,.1484-.79,.0469-.2754-.0996-.4658-.2773-.5703-.5332-.1055-.2563-.0752-.6104,.0879-1.064l1.2285-3.3979Z"/><path d="M87.9805,30.8667c-.0742-.3228-.0479-.5938,.0811-.813,.1445-.2471,.3525-.3989,.623-.4551,.2705-.0566,.6113,.0356,1.0215,.2759l1.1113,.6519c.416,.2437,.6641,.4966,.7441,.7588s.0449,.5225-.1064,.7808c-.1387,.2358-.3232,.3955-.5527,.4795-.1709,.0586-.4316,.0303-.7822-.085-.3516-.1152-.6787-.0884-.9814,.0811-.5361,.2969-1.0117,.7993-1.4268,1.5068-.4775,.8145-.6221,1.6074-.4326,2.3789,.1895,.771,.6494,1.3706,1.3799,1.7988,.6738,.395,1.3438,.4712,2.0107,.228,.667-.2427,1.3213-.9121,1.9639-2.0073,.4209-.7188,.6924-1.3486,.8125-1.8892,.0684-.3223,.0654-.6675-.0098-1.0356-.0742-.3682-.0537-.6509,.0615-.8472,.1377-.2363,.3447-.3887,.6191-.458,.2744-.0688,.5293-.0347,.7656,.1035,.3818,.2241,.5908,.6978,.627,1.4209,.0566,1.0747-.3525,2.3589-1.2285,3.853-.7861,1.3423-1.6768,2.2241-2.6709,2.645-1.3398,.5732-2.6582,.4795-3.9551-.2812-1.2305-.7212-2.0078-1.7275-2.333-3.02s-.1016-2.5986,.6719-3.9189c.2803-.4771,.585-.8945,.915-1.252,.3311-.3574,.6875-.6572,1.0713-.9004Z"/><path d="M109.4893,13.2774c.1084-.313,.2764-.5283,.501-.645,.2549-.1318,.5117-.1494,.7705-.0532,.2588,.0967,.498,.356,.7168,.7778l.5938,1.144c.2217,.4277,.2969,.7739,.2256,1.0386-.0723,.2646-.2412,.4658-.5068,.6035-.2422,.126-.4834,.1631-.7227,.1113-.1758-.041-.3809-.2036-.6172-.4888-.2354-.2847-.5273-.436-.874-.4541-.6113-.0347-1.2812,.1372-2.0098,.5151-.8379,.4346-1.3828,1.0288-1.6328,1.7822-.251,.7539-.1816,1.5063,.208,2.2573,.3604,.6934,.8867,1.1152,1.5811,1.2646,.6934,.1499,1.6035-.0674,2.7305-.6523,.7393-.3838,1.3047-.772,1.6943-1.165,.2295-.2363,.4111-.5303,.5439-.8818s.3008-.5796,.5029-.6846c.2432-.126,.499-.145,.7686-.0576,.2686,.0879,.4668,.2529,.5928,.4956,.2031,.3931,.1279,.9053-.2266,1.5366-.5244,.9395-1.5557,1.8086-3.0928,2.606-1.3809,.7168-2.6045,.9883-3.6699,.8149-1.4385-.229-2.5049-1.0107-3.1973-2.3457-.6562-1.2656-.7783-2.5317-.3643-3.7988,.4131-1.2671,1.2988-2.2529,2.6572-2.9575,.4902-.2549,.9717-.4453,1.4414-.5718s.9316-.1904,1.3857-.1914Z"/><path d="M125.6055,12.6329c.1934,.7437,.1758,1.5171-.0557,2.3208-.2305,.8037-.7002,1.5186-1.4082,2.144s-1.5059,1.0547-2.3945,1.2866c-.8818,.23-1.7783,.2476-2.6914,.0518-.9121-.1958-1.6709-.5884-2.2754-1.1772s-1.0059-1.2646-1.2051-2.0269c-.2021-.7744-.1875-1.5913,.0469-2.4497,.2334-.8579,.6953-1.6064,1.3867-2.2446,.6914-.6377,1.4746-1.0713,2.3506-1.2998,.8818-.2305,1.7871-.2329,2.7178-.0083,.9297,.2246,1.6992,.6528,2.3086,1.2842,.6084,.6318,1.0156,1.3384,1.2197,2.1191Zm-1.9346,.5156c-.1631-.624-.5361-1.1387-1.1201-1.5449-.7959-.5454-1.6904-.6885-2.6855-.4287-.876,.2285-1.5332,.6997-1.9727,1.4131-.4395,.7139-.5635,1.439-.3711,2.1763,.1582,.6045,.6016,1.0928,1.3311,1.4639,.7295,.3716,1.5264,.4443,2.3896,.2192,.8691-.2271,1.5312-.6812,1.9854-1.3618,.4551-.6802,.6025-1.3262,.4434-1.937Z"/><path d="M130.7646,7.4571l.0518,.6719c.3389-.3398,.7217-.6045,1.1475-.7944,.4268-.1899,.8955-.3047,1.4092-.3442,1.1807-.0918,2.1436,.2026,2.8887,.8823,.5908,.542,.9229,1.2871,.9961,2.2344l.2881,3.71c.4219-.0327,.7402,.0352,.9561,.2046s.335,.4038,.3584,.7021c.0225,.292-.0615,.5386-.251,.7393-.1904,.2012-.5254,.3198-1.0059,.3574l-1.8018,.1396c-.4805,.0371-.8291-.0288-1.0479-.1978-.2197-.1694-.3398-.4028-.3633-.7017-.0225-.292,.0596-.5386,.2461-.7393,.1865-.2002,.4912-.3169,.9131-.3496l-.292-3.7681c-.0342-.4351-.1758-.7441-.4248-.9272-.3252-.2358-.793-.3301-1.4033-.2827-.4609,.0356-.8574,.1562-1.1914,.3618-.333,.2056-.7432,.6177-1.2305,1.2368l.2871,3.7095c.5127-.04,.8477-.0171,1.0049,.0688,.333,.1699,.5137,.4434,.543,.8198,.0234,.292-.0605,.5386-.251,.7393-.1895,.2012-.5254,.3198-1.0059,.3574l-2.2686,.1758c-.4805,.0376-.8291-.0288-1.0488-.1978-.2188-.1689-.3389-.4028-.3623-.7017-.0283-.3633,.1055-.6577,.4014-.8833,.1484-.1094,.4785-.1841,.9912-.2236l-.376-4.8486c-.4219,.0327-.7402-.0371-.9561-.21s-.335-.4053-.3584-.6973c-.0225-.292,.0615-.5386,.252-.7393,.1895-.2007,.5244-.3198,1.0049-.3574l1.8994-.147Z"/><path d="M145.458,9.1783l-.2324,4.0073c-.0244,.4287,.0469,.7163,.2148,.8633,.2598,.23,.7412,.3657,1.4434,.4062,1.0205,.0591,1.9756-.104,2.8652-.4897,.3408-.1494,.6055-.2192,.7949-.208,.2598,.0151,.4795,.1255,.6602,.3315s.2627,.4492,.2461,.7285c-.0146,.2598-.1318,.478-.3506,.6543-.3359,.2871-.9814,.5322-1.9355,.7344s-1.7529,.2847-2.3955,.2476c-1.2422-.0718-2.1572-.3936-2.7471-.9658s-.8623-1.248-.8164-2.0283l.2539-4.397-.7217-.0415c-.4805-.0278-.8184-.1401-1.0117-.3374-.1943-.1973-.2822-.4453-.2656-.7441,.0176-.2925,.1338-.5254,.3486-.6987,.2158-.1733,.5635-.2461,1.0449-.2183l.7217,.0415,.1045-1.8037c.0273-.481,.1396-.8184,.3369-1.0122,.1973-.1943,.4453-.2822,.7441-.2651,.292,.0171,.5254,.1333,.6992,.3486,.1729,.2153,.2461,.5635,.2178,1.0444l-.1045,1.8037,3.6953,.2139c.4805,.0278,.8184,.1401,1.0127,.3374,.1934,.1973,.2822,.4453,.2646,.7441-.0166,.2925-.1328,.5254-.3486,.6987-.2148,.1733-.5635,.2461-1.0449,.2183l-3.6943-.2139Z"/><path d="M163.2061,14.8584l-8.1064-1.3188c.1221,.5474,.4189,1.0215,.8916,1.4214s1.1553,.6729,2.0479,.8179c.7334,.1191,1.7324,.1201,2.998,.0029,.5215-.0469,.8799-.0547,1.0723-.0234,.2637,.043,.4697,.1724,.6191,.3877,.1494,.2158,.2021,.4648,.1562,.7476-.042,.2573-.1738,.46-.3965,.6084-.2959,.1963-.959,.3208-1.9902,.374-1.0312,.0527-2.0059,.0049-2.9248-.1445-1.5801-.2573-2.7725-.9097-3.5742-1.957-.8027-1.0474-1.0986-2.2231-.8857-3.5278,.2256-1.3877,.9219-2.4336,2.0889-3.1377,1.166-.7041,2.418-.9473,3.7539-.73,.8037,.1309,1.5176,.3921,2.1436,.7842,.625,.3921,1.0752,.7783,1.3496,1.1592,.3857,.5513,.6719,1.2012,.8604,1.9507,.126,.522,.1367,1.104,.0322,1.7466l-.1357,.8389Zm-1.8672-2.332c-.21-.6147-.5361-1.1016-.9795-1.4604-.4424-.3589-1.001-.5933-1.6758-.7031-.6689-.1089-1.2695-.063-1.8037,.1372-.5342,.1997-1.001,.5576-1.4014,1.0728l5.8604,.9536Z"/><path d="M169.8721,10.8057l-.1611,.6543c.4287-.2163,.875-.3477,1.3389-.394s.9463-.0083,1.4453,.1147c1.1504,.2837,1.9727,.8652,2.4668,1.7446,.3906,.6997,.4727,1.5112,.2451,2.4341l-.8906,3.6128c.4102,.1011,.6914,.2661,.8438,.4946,.1514,.228,.1914,.4878,.1191,.7788-.0693,.2842-.2266,.4922-.4697,.623-.2441,.1313-.5996,.1392-1.0674,.0239l-1.7539-.4326c-.4678-.1152-.7793-.2876-.9336-.5166-.1553-.2295-.1963-.4893-.125-.7803,.0703-.2842,.2256-.4927,.4658-.6245s.5664-.147,.9766-.0459l.9053-3.6694c.1035-.4233,.0664-.7612-.1123-1.0132-.2354-.3262-.6494-.5625-1.2441-.709-.4482-.1104-.8633-.1206-1.2441-.0303-.3818,.0908-.9004,.353-1.5576,.7881l-.8906,3.6123c.5,.123,.8105,.25,.9326,.3809,.2627,.2661,.3486,.5825,.2588,.9487-.0703,.2847-.2266,.4922-.4707,.6235-.2432,.1309-.5986,.1387-1.0664,.0234l-2.21-.5444c-.4678-.1152-.7783-.2876-.9336-.5171-.1543-.229-.1963-.4888-.124-.7798,.0869-.354,.3066-.5913,.6582-.7129,.1748-.0571,.5127-.0244,1.0117,.0986l1.1641-4.7217c-.4111-.1016-.6924-.2681-.8428-.4995s-.1904-.4897-.1211-.7739c.0703-.2847,.2275-.4927,.4707-.6235s.5996-.1392,1.0674-.0234l1.8486,.4556Z"/><path d="M183.1719,16.5494l-1.208,3.8276c-.1289,.4097-.1309,.7065-.0039,.8896,.1963,.2871,.6299,.5366,1.2998,.748,.9746,.3076,1.9404,.3833,2.8975,.228,.3682-.0615,.6416-.064,.8223-.0073,.248,.0786,.4346,.2397,.5586,.4839,.124,.2437,.1445,.4995,.0605,.7666-.0781,.248-.2451,.4312-.501,.5483-.3965,.1958-1.082,.2749-2.0566,.2373-.9746-.0381-1.7686-.1538-2.3838-.3477-1.1855-.374-1.9941-.9106-2.4258-1.6099-.4307-.6997-.5293-1.4219-.2939-2.1665l1.3252-4.2007-.6895-.2173c-.46-.145-.7588-.3364-.8984-.5752-.1406-.2388-.165-.501-.0752-.7866,.0889-.2793,.2578-.4766,.5098-.5918,.251-.1152,.6064-.1006,1.0664,.0444l.6885,.2173,.5439-1.7227c.1445-.4595,.3369-.7593,.5752-.8989s.501-.1646,.7861-.0747c.2793,.0884,.4775,.2583,.5928,.5098,.1152,.251,.0996,.6064-.0449,1.0659l-.5439,1.7231,3.5303,1.1133c.459,.145,.7588,.3369,.8984,.5757,.1396,.2383,.165,.5005,.0742,.7861-.0879,.2793-.2578,.4766-.5088,.5923-.251,.1152-.6064,.1001-1.0664-.0449l-3.5293-1.1133Z"/></g></svg>