<?xml version="1.0" encoding="UTF-8"?><svg id="Layer_1" xmlns="http://www.w3.org/2000/svg" width="294" height="123.4531" viewBox="0 0 294 123.4531"><defs><style>.cls-1{fill:none;stroke:#000;stroke-linecap:round;stroke-linejoin:round;stroke-width:5px;}</style></defs><g><path d="M65.4248,68.7241l3.666,2.5962c.0225-.5825,.1143-1.126,.2754-1.6299s.3906-.9658,.6885-1.3857c.8008-1.1313,1.8711-1.814,3.209-2.0469,1.3379-.2334,2.5596,.0415,3.6641,.8242,1.0576,.749,1.6748,1.749,1.8535,3.0005s-.166,2.4907-1.0352,3.7178c-.3086,.436-.6621,.8159-1.0596,1.1406s-.8389,.5986-1.3232,.8218l.3984,.2822-1.3555,1.9126c-.2783,.3931-.5518,.6196-.8223,.6797-.2695,.0601-.5273,.0039-.7715-.1694-.2393-.1694-.374-.3926-.4053-.6699s.0908-.6099,.3662-.9976l.1973-.2788-7.0684-5.0068-.1982,.2793c-.2783,.3931-.5527,.6196-.8223,.6797-.2705,.0601-.5273,.0034-.7715-.1694-.2393-.1694-.375-.3911-.4082-.666-.0332-.2744,.0898-.6084,.3682-1.0015l1.3545-1.9126Zm10.3936,.0254c-.6748-.478-1.4131-.646-2.2158-.5044-.8018,.1421-1.4463,.5552-1.9316,1.2407-.4814,.6802-.6562,1.4224-.5234,2.2261,.1328,.8042,.5283,1.4395,1.1875,1.9058,.5996,.4253,1.2432,.562,1.9297,.4097s1.3037-.6162,1.8535-1.3921c.5488-.7754,.7822-1.5137,.7002-2.2144-.082-.7002-.415-1.2573-1-1.6714Z"/><path d="M84.8408,59.877l-.4307-.1846c.0479,.5659,.0137,1.1533-.1025,1.7622s-.2725,1.1411-.4678,1.5957c-.4238,.9868-1.0293,1.6763-1.8174,2.0674-.7881,.3916-1.499,.4512-2.1328,.1787-.7725-.3311-1.3193-1.0322-1.6426-2.1025s-.1875-2.2998,.4082-3.6875c.2393-.5566,.5752-1.1738,1.0078-1.8525l-.4395-.1885c-.2744-.1182-.5498-.0962-.8252,.0654-.2744,.1616-.5547,.5747-.8398,1.2388-.2334,.5444-.4297,1.2964-.5859,2.2563-.0615,.3564-.1299,.6245-.207,.8037-.1055,.2456-.2832,.4155-.5332,.5103-.249,.0947-.5117,.083-.7871-.0352-.1553-.0669-.2773-.1548-.3652-.2632s-.1426-.2314-.166-.3687c-.0225-.1372-.0078-.397,.043-.7793,.0693-.5083,.168-1.0151,.2959-1.52,.1289-.5044,.2744-.9482,.4395-1.3311,.4902-1.1426,1.1182-1.9233,1.8828-2.3428,.7637-.4194,1.5742-.4453,2.4297-.0781l3.7871,1.626,.1348-.314c.1895-.4424,.4102-.7217,.6621-.8369,.251-.1152,.5146-.1138,.79,.0044,.2686,.1157,.4482,.3042,.5381,.5659,.0889,.2617,.0391,.6138-.1514,1.0566l-.9248,2.1533Zm-3.293-1.4141c-.459,.6743-.8223,1.3228-1.0898,1.9448-.3213,.7476-.415,1.4692-.2812,2.1641,.0898,.4355,.2539,.7041,.4932,.8071,.1738,.0742,.3486,.0542,.5264-.0615,.3252-.2139,.6006-.5815,.8232-1.1021,.1904-.4424,.3193-.981,.3857-1.6147s.0439-1.2334-.0674-1.7983l-.79-.3394Z"/><path d="M83.2705,45.0957c-.2998,.2383-.5576,.5093-.7734,.812-.2158,.3032-.3896,.6387-.5215,1.0063-.2607,.7295-.3496,1.3516-.2637,1.8662,.0361,.2271,.1152,.3628,.2383,.4067,.1406,.0503,.3252-.0288,.5518-.2383,.168-.1606,.4199-.5649,.7559-1.2124,.6191-1.189,1.1035-1.9976,1.4502-2.4263,.457-.5625,.9727-.938,1.5449-1.1274,.5723-.189,1.1074-.1943,1.6035-.0166,.6738,.2417,1.1318,.7407,1.3721,1.4976,.3506,1.0869,.2822,2.3105-.2051,3.6714-.1953,.5454-.4238,1.0327-.6846,1.4614s-.5518,.8032-.874,1.1235c.0469,.1201,.0723,.2402,.0781,.3599s-.0117,.2344-.0508,.3447c-.1055,.2944-.2861,.4941-.542,.5996-.2549,.1055-.6094,.0771-1.0635-.0854l-.6338-.2271c-.4541-.1626-.7461-.3657-.877-.6099-.1299-.2437-.1445-.5063-.0439-.7886,.0811-.2266,.2119-.394,.3926-.5024,.1807-.1079,.4395-.1499,.7764-.1265,.3486-.1997,.6582-.48,.9287-.8394s.5-.8027,.6895-1.3301c.3096-.8643,.415-1.5835,.3164-2.1582-.0537-.2749-.1543-.439-.3008-.4917-.2451-.0879-.5059,.0024-.7812,.27-.2764,.2681-.6514,.8906-1.126,1.8687-.7021,1.4565-1.3701,2.3579-2.0059,2.7041-.6299,.3486-1.2725,.4053-1.9287,.1704-.6738-.2417-1.1328-.7275-1.376-1.4575-.3359-.9922-.2803-2.1133,.167-3.3633,.1562-.4351,.3477-.8389,.5742-1.2104s.4912-.7109,.7949-1.0171c-.0439-.147-.0693-.2793-.0762-.3955-.0068-.1167,.0049-.2178,.0361-.3037,.0918-.2573,.2656-.437,.5195-.5396,.2549-.1025,.6094-.0728,1.0625,.0898l.46,.1646c.4102,.1475,.6719,.2964,.7842,.4468,.2109,.2974,.2568,.6147,.1357,.9517-.0811,.2266-.2227,.4009-.4258,.5215-.2021,.1216-.4287,.1646-.6787,.1304Z"/><path d="M82.8086,31.4668l1.8428,1.0479-1.1787,2.0713-1.8418-1.0479,1.1777-2.0713Zm3.4375,1.6401l5.9678,3.3936,1.1875-2.0884c.2383-.4185,.4883-.6714,.751-.7578s.5244-.0557,.7852,.0923c.2549,.1445,.4121,.3521,.4717,.6221s-.0293,.6143-.2676,1.0332l-3.3643,5.917c-.2383,.4189-.4883,.6714-.751,.7578s-.5244,.0562-.7852-.0923c-.2539-.1445-.4121-.3521-.4717-.6221s.0293-.6143,.2676-1.0332l1.1875-2.0884-4.2275-2.4038-.7969,1.4009c-.2344,.4131-.4844,.6641-.749,.7534-.2637,.0898-.5264,.0601-.7861-.0879-.2549-.1445-.4121-.3521-.4727-.6221-.0596-.27,.0293-.6143,.2676-1.0332l1.7861-3.1411Z"/><path d="M97.0811,20.9497c.0205-.3311,.124-.583,.3096-.7563,.21-.1953,.4521-.2812,.7285-.2578,.2754,.0239,.5752,.2095,.8994,.5571l.8789,.9429c.3281,.3525,.4932,.666,.4951,.9399s-.1064,.5132-.3262,.7173c-.2002,.1865-.4219,.2871-.667,.3013-.1797,.0078-.4209-.0942-.7246-.3052s-.625-.2788-.9639-.2031c-.5986,.1309-1.1982,.4761-1.7988,1.0352-.6904,.6436-1.0547,1.3623-1.0947,2.1553-.0391,.7935,.2295,1.4995,.8066,2.1187,.5322,.5713,1.1533,.8364,1.8613,.7944,.709-.042,1.5273-.4956,2.4561-1.3613,.6094-.5679,1.0498-1.0938,1.3203-1.5771,.1572-.2891,.2529-.6211,.2871-.9951s.1338-.6392,.3008-.7944c.2002-.1865,.4414-.2734,.7246-.2612,.2822,.0122,.5176,.1182,.7041,.3184,.3018,.3237,.3662,.8374,.1943,1.541-.2539,1.0459-1.0137,2.1592-2.2803,3.3398-1.1387,1.061-2.2441,1.6509-3.3164,1.7695-1.4482,.1655-2.6846-.3018-3.71-1.4019-.9717-1.043-1.4287-2.23-1.3701-3.562,.0576-1.3311,.6465-2.5186,1.7656-3.5615,.4053-.3774,.8174-.6899,1.2354-.938,.4189-.2476,.8467-.4331,1.2842-.5557Z"/><path d="M120.1406,14.6724l-.3701,3.9263-1.8184,.4941-3.4209-6.1851c-.3574,.0771-.6494,.0498-.877-.0806s-.3789-.3306-.4521-.6006c-.0762-.2827-.04-.5405,.1084-.7734,.1494-.2329,.457-.4121,.9219-.5386l1.7998-.4893c.4648-.126,.8203-.1265,1.0674-.0015,.2461,.1255,.4092,.3325,.4873,.6216,.0791,.2891,.0322,.5649-.1396,.8271-.1279,.1968-.4414,.3628-.9375,.4976l1.5674,2.8633,.3447-3.4634,1.7148-.4663,2.0586,2.8105-.0781-3.2676c-.4775,.1299-.8047,.168-.9805,.1147-.3545-.1128-.5811-.3481-.6777-.7065-.0771-.2827-.041-.5405,.1084-.7729,.1494-.2329,.4561-.4126,.9209-.5391l1.8193-.4941c.4648-.126,.8203-.127,1.0674-.0015,.2461,.1255,.4092,.3325,.4873,.6216,.0703,.2578,.043,.4995-.0811,.7251-.124,.2261-.3525,.3979-.6846,.5151l.2168,7.0552-1.791,.4863-2.3818-3.1782Z"/><path d="M137.6025,12.3696l-8.1836,.6973c.252,.5015,.6562,.8887,1.2119,1.1611,.5557,.2729,1.2842,.3706,2.1855,.2939,.7402-.063,1.709-.3057,2.9082-.728,.4951-.1729,.8398-.2676,1.0342-.2842,.2656-.0225,.498,.0522,.6953,.2251s.3086,.4019,.333,.687c.0225,.2598-.0566,.4883-.2354,.6865-.2393,.2622-.8525,.5449-1.8389,.8477-.9873,.3032-1.9443,.4941-2.8721,.5732-1.5957,.1357-2.9102-.2061-3.9443-1.0264-1.0332-.8198-1.6064-1.8887-1.7188-3.2056-.1191-1.4009,.3008-2.585,1.2607-3.5522s2.1143-1.5083,3.4639-1.6235c.8105-.0688,1.5674,.0103,2.2695,.2383,.7021,.2275,1.2324,.4927,1.5918,.7954,.5078,.4399,.9443,1.001,1.3096,1.6816,.249,.4756,.4023,1.0376,.457,1.686l.0723,.8467Zm-2.3789-1.8066c-.3535-.5444-.7891-.937-1.3057-1.1772-.5176-.2402-1.1162-.3315-1.7969-.2734-.6748,.0576-1.2471,.2485-1.7158,.5728s-.835,.7852-1.0977,1.3823l5.916-.5044Z"/><path d="M143.0986,3.2627l-.2334,4.4858c.5039-.293,1.0117-.5063,1.5244-.6392,.5117-.1333,1.0244-.186,1.5381-.1597,1.3857,.0723,2.5342,.6113,3.4463,1.6172s1.334,2.1851,1.2627,3.5371c-.0674,1.2939-.582,2.3511-1.5439,3.1714-.9619,.8198-2.1934,1.1909-3.6953,1.1128-.5332-.0278-1.043-.123-1.5303-.2852s-.9541-.3887-1.4023-.6792l-.0254,.4873-2.3408-.1216c-.4805-.0254-.8184-.1357-1.0137-.3315-.1953-.1963-.2852-.4434-.2695-.7427,.0146-.2925,.1318-.5259,.3496-.7007,.2178-.1743,.5635-.249,1.0381-.2246l.3418,.0181,.4502-8.6504-.3408-.0181c-.4814-.0249-.8193-.1353-1.0146-.3315-.1953-.1958-.2852-.4434-.2695-.7422,.0156-.293,.1299-.5264,.3447-.7012,.2139-.1743,.5625-.249,1.043-.2241l2.3408,.1221Zm5.5361,8.7959c.043-.8257-.21-1.5396-.7588-2.1421-.5488-.6021-1.2422-.9253-2.0811-.9688-.832-.0435-1.5527,.2061-2.1611,.7476-.6084,.5425-.9336,1.2163-.9756,2.0225-.0381,.7349,.1904,1.3516,.6855,1.8496,.4961,.4985,1.2178,.7725,2.168,.8223,.9482,.0493,1.6973-.1479,2.2451-.5923,.5479-.4438,.8408-1.0234,.8779-1.7388Z"/></g><g><path class="cls-1" d="M122.0494,118.9537h82.9231V58.208l-41,.1464c-4.6666-3-9.3334-6-14-9-9.3077,.0513-18.6154,.1026-27.9231,.1538V118.9537Z"/><line class="cls-1" x1="122.4829" y1="65.8544" x2="204.4601" y2="65.8544"/></g></svg>