<?xml version="1.0" encoding="UTF-8"?><svg id="Layer_1" xmlns="http://www.w3.org/2000/svg" width="294" height="123.4533" viewBox="0 0 294 123.4533"><defs><style>.cls-1{fill:none;stroke:#000;stroke-linecap:round;stroke-linejoin:round;stroke-width:5px;}</style></defs><g><path class="cls-1" d="M163.5458,58.6389c-4.6666-3-9.3334-6-14-9l-27.9231,.1538v18.8462h-9.0769l9.0769,50.5993h82.9231V58.4925c-13.6666,.0488-27.3334,.0976-41,.1464Z"/><polyline class="cls-1" points="204.6227 119.2382 195.5458 68.6389 121.6227 68.6389"/></g><g><path d="M65.4248,68.7246l3.666,2.5957c.0225-.582,.1143-1.126,.2754-1.6299s.3906-.9658,.6885-1.3857c.8008-1.1309,1.8711-1.8135,3.209-2.0469s2.5596,.042,3.6641,.8242c1.0576,.749,1.6748,1.749,1.8535,3.001,.1787,1.251-.166,2.4902-1.0352,3.7178-.3086,.4355-.6621,.8154-1.0596,1.1406-.3975,.3242-.8389,.5986-1.3232,.8213l.3984,.2822-1.3555,1.9131c-.2783,.3926-.5518,.6191-.8223,.6797-.2695,.0596-.5273,.0039-.7715-.1699-.2393-.1689-.374-.3926-.4053-.6699s.0908-.6094,.3662-.9971l.1973-.2793-7.0684-5.0068-.1982,.2793c-.2783,.3936-.5527,.6201-.8223,.6797-.2705,.0605-.5273,.0039-.7715-.1689-.2393-.1699-.375-.3916-.4082-.666s.0898-.6084,.3682-1.002l1.3545-1.9121Zm10.3936,.0254c-.6748-.4785-1.4131-.6465-2.2158-.5049-.8018,.1426-1.4463,.5557-1.9316,1.2412-.4814,.6797-.6562,1.4219-.5234,2.2256,.1328,.8047,.5283,1.4395,1.1875,1.9062,.5996,.4248,1.2432,.5615,1.9297,.4092s1.3037-.6162,1.8535-1.3916c.5488-.7754,.7822-1.5137,.7002-2.2148-.082-.7002-.415-1.2568-1-1.6709Z"/><path d="M84.8408,59.877l-.4307-.1846c.0479,.5664,.0137,1.1533-.1025,1.7627-.1162,.6084-.2725,1.1406-.4678,1.5957-.4238,.9863-1.0293,1.6758-1.8174,2.0674s-1.499,.4512-2.1328,.1787c-.7725-.3311-1.3193-1.0322-1.6426-2.1025s-.1875-2.2998,.4082-3.6875c.2393-.5566,.5752-1.1738,1.0078-1.8525l-.4395-.1885c-.2744-.1182-.5498-.0967-.8252,.0654-.2744,.1611-.5547,.5742-.8398,1.2383-.2334,.5449-.4297,1.2969-.5859,2.2568-.0615,.3564-.1299,.624-.207,.8037-.1055,.2451-.2832,.415-.5332,.5098-.249,.0947-.5117,.083-.7871-.0352-.1553-.0664-.2773-.1543-.3652-.2627s-.1426-.2314-.166-.3691c-.0225-.1367-.0078-.3965,.043-.7793,.0693-.5078,.168-1.0146,.2959-1.5195,.1289-.5049,.2744-.9482,.4395-1.3311,.4902-1.1426,1.1182-1.9238,1.8828-2.3428,.7637-.4199,1.5742-.4453,2.4297-.0781l3.7871,1.626,.1348-.3145c.1895-.4424,.4102-.7217,.6621-.8369,.251-.1152,.5146-.1133,.79,.0049,.2686,.1152,.4482,.3037,.5381,.5654,.0889,.2617,.0391,.6143-.1514,1.0566l-.9248,2.1533Zm-3.293-1.4141c-.459,.6748-.8223,1.3232-1.0898,1.9453-.3213,.7471-.415,1.4688-.2812,2.1641,.0898,.4355,.2539,.7041,.4932,.8066,.1738,.0742,.3486,.0547,.5264-.0615,.3252-.2139,.6006-.5811,.8232-1.1016,.1904-.4424,.3193-.9814,.3857-1.6152s.0439-1.2334-.0674-1.7979l-.79-.3398Z"/><path d="M83.2705,45.0957c-.2998,.2383-.5576,.5098-.7734,.8125s-.3896,.6387-.5215,1.0059c-.2607,.7295-.3496,1.3516-.2637,1.8662,.0361,.2275,.1152,.3633,.2383,.4072,.1406,.0498,.3252-.0293,.5518-.2383,.168-.1611,.4199-.5654,.7559-1.2129,.6191-1.1885,1.1035-1.9971,1.4502-2.4258,.457-.5625,.9727-.9385,1.5449-1.1279,.5723-.1885,1.1074-.1943,1.6035-.0166,.6738,.2422,1.1318,.7412,1.3721,1.498,.3506,1.0869,.2822,2.3105-.2051,3.6709-.1953,.5459-.4238,1.0332-.6846,1.4619s-.5518,.8027-.874,1.123c.0469,.1201,.0723,.2402,.0781,.3604,.0059,.1191-.0117,.2344-.0508,.3447-.1055,.2939-.2861,.4941-.542,.5996-.2549,.1055-.6094,.0771-1.0635-.0859l-.6338-.2266c-.4541-.1631-.7461-.3662-.877-.6104-.1299-.2432-.1445-.5059-.0439-.7881,.0811-.2266,.2119-.3945,.3926-.5029,.1807-.1074,.4395-.1494,.7764-.126,.3486-.2002,.6582-.4805,.9287-.8398s.5-.8027,.6895-1.3301c.3096-.8643,.415-1.583,.3164-2.1582-.0537-.2744-.1543-.4385-.3008-.4912-.2451-.0879-.5059,.002-.7812,.2695-.2764,.2686-.6514,.8906-1.126,1.8691-.7021,1.4561-1.3701,2.3574-2.0059,2.7041-.6299,.3486-1.2725,.4053-1.9287,.1699-.6738-.2412-1.1328-.7275-1.376-1.457-.3359-.9922-.2803-2.1133,.167-3.3633,.1562-.4355,.3477-.8389,.5742-1.2109,.2266-.3711,.4912-.7109,.7949-1.0166-.0439-.1475-.0693-.2793-.0762-.3955-.0068-.1172,.0049-.2178,.0361-.3037,.0918-.2578,.2656-.4375,.5195-.54,.2549-.1025,.6094-.0723,1.0625,.0898l.46,.165c.4102,.1475,.6719,.2959,.7842,.4463,.2109,.2979,.2568,.6152,.1357,.9521-.0811,.2266-.2227,.4004-.4258,.5215-.2021,.1211-.4287,.1641-.6787,.1299Z"/><path d="M82.8086,31.4668l1.8428,1.0479-1.1787,2.0713-1.8418-1.0479,1.1777-2.0713Zm3.4375,1.6406l5.9678,3.3936,1.1875-2.0889c.2383-.418,.4883-.6709,.751-.7578,.2627-.0859,.5244-.0557,.7852,.0928,.2549,.1445,.4121,.3516,.4717,.6221,.0596,.2695-.0293,.6143-.2676,1.0332l-3.3643,5.917c-.2383,.4189-.4883,.6709-.751,.7578-.2627,.0859-.5244,.0557-.7852-.0928-.2539-.1445-.4121-.3516-.4717-.6221-.0596-.2695,.0293-.6143,.2676-1.0332l1.1875-2.0879-4.2275-2.4043-.7969,1.4014c-.2344,.4131-.4844,.6641-.749,.7529-.2637,.0898-.5264,.0605-.7861-.0879-.2549-.1445-.4121-.3516-.4727-.6221-.0596-.2695,.0293-.6143,.2676-1.0332l1.7861-3.1406Z"/><path d="M97.0811,20.9502c.0205-.3311,.124-.583,.3096-.7568,.21-.1953,.4521-.2812,.7285-.2578,.2754,.0244,.5752,.21,.8994,.5576l.8789,.9424c.3281,.3525,.4932,.666,.4951,.9404,.002,.2734-.1064,.5127-.3262,.7168-.2002,.1865-.4219,.2871-.667,.3018-.1797,.0078-.4209-.0947-.7246-.3057s-.625-.2783-.9639-.2031c-.5986,.1309-1.1982,.4766-1.7988,1.0352-.6904,.6436-1.0547,1.3623-1.0947,2.1553-.0391,.7939,.2295,1.5,.8066,2.1191,.5322,.5713,1.1533,.8359,1.8613,.7939,.709-.042,1.5273-.4951,2.4561-1.3613,.6094-.5674,1.0498-1.0938,1.3203-1.5771,.1572-.2891,.2529-.6211,.2871-.9951s.1338-.6387,.3008-.7939c.2002-.1865,.4414-.2734,.7246-.2617,.2822,.0127,.5176,.1182,.7041,.3184,.3018,.3242,.3662,.8379,.1943,1.541-.2539,1.0459-1.0137,2.1592-2.2803,3.3398-1.1387,1.0615-2.2441,1.6514-3.3164,1.7695-1.4482,.166-2.6846-.3018-3.71-1.4014-.9717-1.043-1.4287-2.2305-1.3701-3.5625,.0576-1.3311,.6465-2.5186,1.7656-3.5615,.4053-.377,.8174-.6895,1.2354-.9375,.4189-.248,.8467-.4336,1.2842-.5557Z"/><path d="M120.1406,14.6729l-.3701,3.9258-1.8184,.4941-3.4209-6.1846c-.3574,.0771-.6494,.0498-.877-.0811-.2275-.1299-.3789-.3301-.4521-.6006-.0762-.2822-.04-.54,.1084-.7734,.1494-.2324,.457-.4121,.9219-.5381l1.7998-.4893c.4648-.126,.8203-.127,1.0674-.002,.2461,.126,.4092,.333,.4873,.6221,.0791,.2891,.0322,.5645-.1396,.8271-.1279,.1963-.4414,.3623-.9375,.4971l1.5674,2.8633,.3447-3.4629,1.7148-.4668,2.0586,2.8105-.0781-3.2676c-.4775,.1299-.8047,.168-.9805,.1152-.3545-.1133-.5811-.3486-.6777-.707-.0771-.2822-.041-.54,.1084-.7725,.1494-.2334,.4561-.4131,.9209-.5391l1.8193-.4941c.4648-.126,.8203-.127,1.0674-.002,.2461,.126,.4092,.333,.4873,.6221,.0703,.2578,.043,.499-.0811,.7246-.124,.2266-.3525,.3984-.6846,.5156l.2168,7.0547-1.791,.4863-2.3818-3.1777Z"/><path d="M137.6025,12.3701l-8.1836,.6973c.252,.501,.6562,.8887,1.2119,1.1611s1.2842,.3701,2.1855,.2939c.7402-.0635,1.709-.3057,2.9082-.7285,.4951-.1729,.8398-.2676,1.0342-.2842,.2656-.0225,.498,.0527,.6953,.2256s.3086,.4014,.333,.6865c.0225,.2598-.0566,.4883-.2354,.6865-.2393,.2627-.8525,.5449-1.8389,.8477-.9873,.3037-1.9443,.4941-2.8721,.5732-1.5957,.1357-2.9102-.2061-3.9443-1.0264-1.0332-.8193-1.6064-1.8887-1.7188-3.2051-.1191-1.4014,.3008-2.585,1.2607-3.5527,.96-.9668,2.1143-1.5078,3.4639-1.623,.8105-.0693,1.5674,.0098,2.2695,.2383,.7021,.2275,1.2324,.4922,1.5918,.7949,.5078,.4404,.9443,1.001,1.3096,1.6816,.249,.4756,.4023,1.0381,.457,1.6865l.0723,.8467Zm-2.3789-1.8066c-.3535-.5449-.7891-.9375-1.3057-1.1777-.5176-.2402-1.1162-.3311-1.7969-.2734-.6748,.0576-1.2471,.249-1.7158,.5732s-.835,.7852-1.0977,1.3818l5.916-.5039Z"/><path d="M143.0986,3.2627l-.2334,4.4863c.5039-.293,1.0117-.5068,1.5244-.6396,.5117-.1328,1.0244-.1855,1.5381-.1592,1.3857,.0723,2.5342,.6113,3.4463,1.6172s1.334,2.1846,1.2627,3.5371c-.0674,1.2939-.582,2.3506-1.5439,3.1709s-2.1934,1.1914-3.6953,1.1133c-.5332-.0283-1.043-.123-1.5303-.2852s-.9541-.3887-1.4023-.6797l-.0254,.4873-2.3408-.1211c-.4805-.0254-.8184-.1357-1.0137-.332s-.2852-.4434-.2695-.7422c.0146-.293,.1318-.5264,.3496-.7012,.2178-.1738,.5635-.249,1.0381-.2246l.3418,.0186,.4502-8.6504-.3408-.0186c-.4814-.0244-.8193-.1348-1.0146-.3311s-.2852-.4434-.2695-.7422c.0156-.293,.1299-.5264,.3447-.7012,.2139-.1748,.5625-.249,1.043-.2246l2.3408,.1221Zm5.5361,8.7959c.043-.8252-.21-1.5391-.7588-2.1416s-1.2422-.9258-2.0811-.9688c-.832-.0439-1.5527,.2061-2.1611,.7471-.6084,.543-.9336,1.2168-.9756,2.0225-.0381,.7354,.1904,1.3516,.6855,1.8496,.4961,.499,1.2178,.7725,2.168,.8223,.9482,.0498,1.6973-.1475,2.2451-.5918s.8408-1.0234,.8779-1.7393Z"/></g></svg>