<?xml version="1.0" encoding="UTF-8"?><svg id="Layer_1" xmlns="http://www.w3.org/2000/svg" width="294" height="123.4574" viewBox="0 0 294 123.4574"><defs><style>.cls-1{fill:none;stroke:#000;stroke-linecap:round;stroke-linejoin:round;stroke-width:5px;}</style></defs><g><path d="M65.4248,68.7284l3.666,2.5962c.0225-.5825,.1143-1.126,.2754-1.6299s.3906-.9658,.6885-1.3857c.8008-1.1313,1.8711-1.814,3.209-2.0469,1.3379-.2334,2.5596,.0415,3.6641,.8242,1.0576,.749,1.6748,1.749,1.8535,3.0005s-.166,2.4907-1.0352,3.7178c-.3086,.436-.6621,.8159-1.0596,1.1406s-.8389,.5986-1.3232,.8218l.3984,.2822-1.3555,1.9126c-.2783,.3931-.5518,.6196-.8223,.6797-.2695,.0601-.5273,.0039-.7715-.1694-.2393-.1694-.374-.3926-.4053-.6699s.0908-.6099,.3662-.9976l.1973-.2788-7.0684-5.0068-.1982,.2793c-.2783,.3931-.5527,.6196-.8223,.6797-.2705,.0601-.5273,.0034-.7715-.1694-.2393-.1694-.375-.3911-.4082-.666-.0332-.2744,.0898-.6084,.3682-1.0015l1.3545-1.9126Zm10.3936,.0254c-.6748-.478-1.4131-.646-2.2158-.5044-.8018,.1421-1.4463,.5552-1.9316,1.2407-.4814,.6802-.6562,1.4224-.5234,2.2261,.1328,.8042,.5283,1.4395,1.1875,1.9058,.5996,.4253,1.2432,.562,1.9297,.4097s1.3037-.6162,1.8535-1.3921c.5488-.7754,.7822-1.5137,.7002-2.2144-.082-.7002-.415-1.2573-1-1.6714Z"/><path d="M84.8408,59.8813l-.4307-.1846c.0479,.5659,.0137,1.1533-.1025,1.7622s-.2725,1.1411-.4678,1.5957c-.4238,.9868-1.0293,1.6763-1.8174,2.0674-.7881,.3916-1.499,.4512-2.1328,.1787-.7725-.3311-1.3193-1.0322-1.6426-2.1025s-.1875-2.2998,.4082-3.6875c.2393-.5566,.5752-1.1738,1.0078-1.8525l-.4395-.1885c-.2744-.1182-.5498-.0962-.8252,.0654-.2744,.1616-.5547,.5747-.8398,1.2388-.2334,.5444-.4297,1.2964-.5859,2.2563-.0615,.3564-.1299,.6245-.207,.8037-.1055,.2456-.2832,.4155-.5332,.5103-.249,.0947-.5117,.083-.7871-.0352-.1553-.0669-.2773-.1548-.3652-.2632s-.1426-.2314-.166-.3687c-.0225-.1372-.0078-.397,.043-.7793,.0693-.5083,.168-1.0151,.2959-1.52,.1289-.5044,.2744-.9482,.4395-1.3311,.4902-1.1426,1.1182-1.9233,1.8828-2.3428,.7637-.4194,1.5742-.4453,2.4297-.0781l3.7871,1.626,.1348-.314c.1895-.4424,.4102-.7217,.6621-.8369,.251-.1152,.5146-.1138,.79,.0044,.2686,.1157,.4482,.3042,.5381,.5659,.0889,.2617,.0391,.6138-.1514,1.0566l-.9248,2.1533Zm-3.293-1.4141c-.459,.6743-.8223,1.3228-1.0898,1.9448-.3213,.7476-.415,1.4692-.2812,2.1641,.0898,.4355,.2539,.7041,.4932,.8071,.1738,.0742,.3486,.0542,.5264-.0615,.3252-.2139,.6006-.5815,.8232-1.1021,.1904-.4424,.3193-.981,.3857-1.6147s.0439-1.2334-.0674-1.7983l-.79-.3394Z"/><path d="M83.2705,45.1c-.2998,.2383-.5576,.5093-.7734,.812-.2158,.3032-.3896,.6387-.5215,1.0063-.2607,.7295-.3496,1.3516-.2637,1.8662,.0361,.2271,.1152,.3628,.2383,.4067,.1406,.0503,.3252-.0288,.5518-.2383,.168-.1606,.4199-.5649,.7559-1.2124,.6191-1.189,1.1035-1.9976,1.4502-2.4263,.457-.5625,.9727-.938,1.5449-1.1274,.5723-.189,1.1074-.1943,1.6035-.0166,.6738,.2417,1.1318,.7407,1.3721,1.4976,.3506,1.0869,.2822,2.3105-.2051,3.6714-.1953,.5454-.4238,1.0327-.6846,1.4614s-.5518,.8032-.874,1.1235c.0469,.1201,.0723,.2402,.0781,.3599s-.0117,.2344-.0508,.3447c-.1055,.2944-.2861,.4941-.542,.5996-.2549,.1055-.6094,.0771-1.0635-.0854l-.6338-.2271c-.4541-.1626-.7461-.3657-.877-.6099-.1299-.2437-.1445-.5063-.0439-.7886,.0811-.2266,.2119-.394,.3926-.5024,.1807-.1079,.4395-.1499,.7764-.1265,.3486-.1997,.6582-.48,.9287-.8394s.5-.8027,.6895-1.3301c.3096-.8643,.415-1.5835,.3164-2.1582-.0537-.2749-.1543-.439-.3008-.4917-.2451-.0879-.5059,.0024-.7812,.27-.2764,.2681-.6514,.8906-1.126,1.8687-.7021,1.4565-1.3701,2.3579-2.0059,2.7041-.6299,.3486-1.2725,.4053-1.9287,.1704-.6738-.2417-1.1328-.7275-1.376-1.4575-.3359-.9922-.2803-2.1133,.167-3.3633,.1562-.4351,.3477-.8389,.5742-1.2104s.4912-.7109,.7949-1.0171c-.0439-.147-.0693-.2793-.0762-.3955-.0068-.1167,.0049-.2178,.0361-.3037,.0918-.2573,.2656-.437,.5195-.5396,.2549-.1025,.6094-.0728,1.0625,.0898l.46,.1646c.4102,.1475,.6719,.2964,.7842,.4468,.2109,.2974,.2568,.6147,.1357,.9517-.0811,.2266-.2227,.4009-.4258,.5215-.2021,.1216-.4287,.1646-.6787,.1304Z"/><path d="M82.8086,31.4711l1.8428,1.0479-1.1787,2.0713-1.8418-1.0479,1.1777-2.0713Zm3.4375,1.6401l5.9678,3.3936,1.1875-2.0884c.2383-.4185,.4883-.6714,.751-.7578s.5244-.0557,.7852,.0923c.2549,.1445,.4121,.3521,.4717,.6221s-.0293,.6143-.2676,1.0332l-3.3643,5.917c-.2383,.4189-.4883,.6714-.751,.7578s-.5244,.0562-.7852-.0923c-.2539-.1445-.4121-.3521-.4717-.6221s.0293-.6143,.2676-1.0332l1.1875-2.0884-4.2275-2.4038-.7969,1.4009c-.2344,.4131-.4844,.6641-.749,.7534-.2637,.0898-.5264,.0601-.7861-.0879-.2549-.1445-.4121-.3521-.4727-.6221-.0596-.27,.0293-.6143,.2676-1.0332l1.7861-3.1411Z"/><path d="M97.0811,20.954c.0205-.3311,.124-.583,.3096-.7563,.21-.1953,.4521-.2812,.7285-.2578,.2754,.0239,.5752,.2095,.8994,.5571l.8789,.9429c.3281,.3525,.4932,.666,.4951,.9399s-.1064,.5132-.3262,.7173c-.2002,.1865-.4219,.2871-.667,.3013-.1797,.0078-.4209-.0942-.7246-.3052s-.625-.2788-.9639-.2031c-.5986,.1309-1.1982,.4761-1.7988,1.0352-.6904,.6436-1.0547,1.3623-1.0947,2.1553-.0391,.7935,.2295,1.4995,.8066,2.1187,.5322,.5713,1.1533,.8364,1.8613,.7944,.709-.042,1.5273-.4956,2.4561-1.3613,.6094-.5679,1.0498-1.0938,1.3203-1.5771,.1572-.2891,.2529-.6211,.2871-.9951s.1338-.6392,.3008-.7944c.2002-.1865,.4414-.2734,.7246-.2612,.2822,.0122,.5176,.1182,.7041,.3184,.3018,.3237,.3662,.8374,.1943,1.541-.2539,1.0459-1.0137,2.1592-2.2803,3.3398-1.1387,1.061-2.2441,1.6509-3.3164,1.7695-1.4482,.1655-2.6846-.3018-3.71-1.4019-.9717-1.043-1.4287-2.23-1.3701-3.562,.0576-1.3311,.6465-2.5186,1.7656-3.5615,.4053-.3774,.8174-.6899,1.2354-.938,.4189-.2476,.8467-.4331,1.2842-.5557Z"/><path d="M122.9033,8.5648l1.7969,6.626c.4092-.1104,.7354-.1011,.9795,.0283s.4043,.3354,.4814,.6182c.0762,.2827,.04,.5405-.1094,.7729-.1494,.2329-.4561,.4126-.9219,.5386l-1.8379,.4985-.1201-.4434c-.4844,.4014-.9609,.7329-1.4297,.9951-.4688,.2617-.9287,.4541-1.3818,.5771-.6348,.1719-1.2207,.1875-1.7578,.0464-.5371-.1406-1.0049-.4102-1.4033-.8081-.2861-.2866-.499-.6841-.6367-1.1934l-1.127-4.1562-.3301,.0894c-.4658,.126-.8213,.1265-1.0674,.001-.2471-.1255-.4092-.3325-.4873-.6216-.0771-.2827-.04-.5405,.1094-.7734,.1484-.2324,.4561-.4121,.9209-.5381l2.2617-.6133,1.5596,5.749c.1113,.4087,.291,.6816,.541,.8198,.25,.1377,.5791,.1514,.9873,.0405,.3896-.1055,.7881-.2959,1.1963-.5718,.4072-.2759,.8867-.7046,1.4365-1.2856l-1.0684-3.9395-.6973,.189c-.4648,.126-.8203,.1265-1.0674,.001-.2461-.1255-.4082-.3325-.4873-.6216-.0762-.2827-.04-.5405,.1094-.7734,.1494-.2324,.4561-.4121,.9219-.5381l2.6289-.7134Z"/><path d="M133.9883,11.4862l3.248,2.3398c.3652-.0112,.6455,.0679,.8438,.2368,.1973,.1694,.3076,.394,.3311,.6729,.0254,.292-.0566,.5391-.2451,.7412s-.5234,.3237-1.0029,.3647l-2.2676,.1934c-.4795,.041-.8301-.0225-1.0498-.1899s-.3428-.4033-.3691-.7085c-.0195-.2334,.0352-.4458,.166-.6367,.1309-.1904,.3203-.3291,.5674-.4155l-1.5977-1.1577-1.4092,1.4136c.3115,.0522,.541,.1533,.6875,.3042,.1475,.1509,.2314,.3525,.2529,.606,.0264,.3047-.0537,.5581-.2393,.7603-.1855,.2017-.5176,.3232-.998,.3643l-2.248,.1914c-.4795,.041-.8301-.022-1.0498-.1895s-.3428-.4004-.3682-.6992c-.0234-.2725,.0479-.5088,.2139-.709s.4297-.3257,.791-.376l2.7363-2.8599-2.8086-2.0151c-.3457,.0034-.6162-.0796-.8096-.2495-.1943-.1694-.3037-.3906-.3262-.6631-.0254-.292,.0566-.5391,.2451-.7412,.1885-.2026,.5225-.3242,1.0029-.3647l1.8682-.1592c.4805-.041,.8301,.022,1.0508,.1895,.2197,.1675,.3418,.394,.3662,.6797,.0322,.3828-.123,.7095-.4658,.9805l1.292,.8994,1.1006-1.123c-.3789-.2227-.582-.499-.6104-.8301-.0264-.3115,.0547-.5684,.2432-.7705s.5234-.3237,1.0029-.3647l1.8496-.1577c.4795-.0405,.8301,.0225,1.0498,.1899s.3428,.4004,.3682,.6987c.0225,.2661-.0469,.499-.21,.6992s-.418,.3281-.7656,.3838l-2.4365,2.4717Z"/></g><g><path class="cls-1" d="M121.9157,118.9439h82.9231V58.1982l-41,.1464c-4.6666-3-9.3334-6-14-9-9.3077,.0513-18.6154,.1026-27.9231,.1538V118.9439Z"/><line class="cls-1" x1="122.3492" y1="65.8446" x2="204.3264" y2="65.8446"/></g></svg>