<?xml version="1.0" encoding="UTF-8"?><svg id="Layer_1" xmlns="http://www.w3.org/2000/svg" width="294" height="123.4517" viewBox="0 0 294 123.4517"><defs><style>.cls-1{fill:none;stroke:#000;stroke-linecap:round;stroke-linejoin:round;stroke-width:5px;}</style></defs><g><path class="cls-1" d="M163.5458,58.6373c-4.6666-3-9.3334-6-14-9l-27.9231,.1538v18.8462h-9.0769l9.0769,50.5993h82.9231V58.4909c-13.6666,.0488-27.3334,.0976-41,.1464Z"/><polyline class="cls-1" points="204.6227 119.2366 195.5458 68.6373 121.6227 68.6373"/></g><g><path d="M62.3555,72.3094l3.4238,2.9077c.0732-.5786,.2119-1.1118,.417-1.5996s.4736-.9277,.8066-1.3198c.8975-1.0571,2.0234-1.6431,3.376-1.7583,1.3535-.1147,2.5469,.2661,3.5781,1.1426,.9883,.8384,1.5156,1.8892,1.584,3.1514s-.3838,2.4663-1.3574,3.6128c-.3457,.4072-.7305,.7549-1.1553,1.0435-.4238,.2886-.8877,.5229-1.3906,.7021l.3721,.3164-1.5166,1.7866c-.3125,.3672-.6055,.5688-.8789,.605-.2744,.0361-.5254-.0425-.7539-.2363-.2236-.1899-.3379-.4238-.3447-.7031-.0068-.2788,.1436-.5991,.4512-.9614l.2217-.2607-6.6025-5.6069-.2217,.2607c-.3115,.3672-.6045,.5688-.8789,.605-.2744,.0366-.5254-.0425-.7539-.2363-.2236-.1895-.3389-.4224-.3477-.6987-.0088-.2769,.1426-.5986,.4541-.9658l1.5176-1.7866Zm10.3506,.9365c-.6299-.5352-1.3506-.7676-2.1631-.6968-.8115,.0713-1.4893,.4263-2.0322,1.0669-.54,.6353-.7783,1.3589-.7168,2.1714s.4004,1.48,1.0156,2.0024c.5605,.4766,1.1895,.6689,1.8857,.5771,.6973-.0913,1.3535-.4995,1.9688-1.2241s.9121-1.439,.8916-2.144-.3037-1.2896-.8496-1.7529Z"/><path d="M82.5078,65.1209l-.415-.2183c.0039,.5684-.0762,1.1514-.2402,1.749-.1631,.5981-.3594,1.1167-.5898,1.5547-.499,.9507-1.1572,1.5908-1.9727,1.9199-.8164,.3286-1.5293,.333-2.1406,.0122-.7441-.3906-1.2354-1.1318-1.4736-2.2246-.2393-1.0923-.0078-2.3071,.6943-3.6445,.2812-.5361,.6641-1.125,1.1494-1.7681l-.4238-.2222c-.2656-.1396-.541-.1392-.8281,.001-.2871,.1396-.5977,.5298-.9336,1.1694-.2754,.5244-.5293,1.2593-.7607,2.2041-.0879,.3506-.1777,.6123-.2686,.7852-.124,.2363-.3145,.3921-.5703,.4673-.2568,.0747-.5176,.0425-.7822-.0967-.1504-.0786-.2646-.1753-.3438-.2905s-.125-.2422-.1367-.3809c-.0117-.1382,.0225-.396,.1025-.7729,.1094-.502,.2471-.999,.4141-1.4922s.3477-.9243,.541-1.2935c.5781-1.1011,1.2646-1.8306,2.0596-2.189s1.6045-.3213,2.4287,.1113l3.6484,1.916,.1592-.3027c.2236-.4268,.4658-.6875,.7256-.7827,.2588-.0957,.5215-.0737,.7871,.0654,.2588,.1362,.4229,.3384,.4922,.6064,.0693,.2676-.0088,.6147-.2324,1.0415l-1.0898,2.0752Zm-3.1729-1.6665c-.5107,.6367-.9238,1.2544-1.2383,1.854-.3779,.7207-.5273,1.4326-.4482,2.1357,.0547,.4409,.1982,.7222,.4287,.8428,.167,.0879,.3438,.0811,.5293-.02,.3408-.188,.6436-.5332,.9072-1.0347,.2236-.4263,.3936-.9531,.5088-1.5801,.1162-.6265,.1406-1.2256,.0732-1.7979l-.7607-.3999Z"/><path d="M81.5684,49.9002c-.2998,.2393-.5566,.5103-.7725,.8135-.2148,.3037-.3877,.6392-.5186,1.0073-.2607,.73-.3477,1.3521-.2607,1.8667,.0361,.2271,.1162,.3628,.2383,.4062,.1416,.0503,.3252-.0293,.5518-.2388,.168-.1616,.4199-.5664,.7539-1.2144,.6172-1.1899,1.0996-1.9995,1.4453-2.4292,.457-.563,.9707-.9395,1.543-1.1299,.5723-.1899,1.1064-.1968,1.6035-.02,.6748,.2402,1.1328,.7388,1.375,1.4951,.3525,1.0864,.2861,2.3101-.1982,3.6719-.1943,.5459-.4219,1.0332-.6816,1.4624s-.5508,.8042-.8721,1.125c.0469,.1206,.0732,.2407,.0791,.3604s-.0107,.2344-.0508,.3447c-.1045,.2944-.2842,.4946-.54,.6006s-.6104,.0781-1.0635-.0835l-.6348-.2261c-.4541-.1616-.7471-.3643-.8779-.6079s-.1455-.5063-.0459-.7886c.0811-.2266,.2119-.3945,.3926-.5029,.1797-.1084,.4385-.1514,.7764-.1279,.3477-.2007,.6562-.4814,.9268-.8413,.2695-.3599,.498-.8037,.6865-1.3311,.3076-.8652,.4121-1.5845,.3125-2.1592-.0547-.2749-.1553-.4385-.3018-.4912-.2461-.0869-.5059,.0034-.7812,.2715-.2754,.2686-.6494,.8921-1.1221,1.8706-.6992,1.458-1.3662,2.3608-2.001,2.7085-.6289,.3496-1.2715,.4077-1.9277,.1738-.6748-.2402-1.1348-.7251-1.3789-1.4551-.3389-.9912-.2852-2.1123,.1611-3.3638,.1543-.4351,.3447-.8389,.5713-1.2114,.2256-.3721,.4902-.7119,.793-1.0186-.0449-.147-.0703-.2788-.0771-.3955-.0068-.1162,.0049-.2173,.0352-.3032,.0918-.2578,.2646-.438,.5195-.541,.2539-.1025,.6084-.0737,1.0625,.0879l.46,.1641c.4111,.1465,.6719,.2949,.7842,.4453,.2129,.2969,.2588,.6138,.1387,.9512-.0811,.2271-.2227,.4009-.4248,.5225s-.4287,.1655-.6787,.1313Z"/><path d="M80.0312,36.8299l1.9355,.8628-.9697,2.1763-1.9355-.8628,.9697-2.1763Zm3.5811,1.2969l6.2705,2.7954,.9785-2.1938c.1963-.4399,.4209-.7158,.6738-.8276s.5156-.1069,.7891,.0151c.2676,.1191,.4453,.3105,.5312,.5732s.0303,.6143-.166,1.0542l-2.7715,6.2168c-.1963,.4404-.4209,.7158-.6738,.8276s-.5156,.1069-.79-.0151c-.2676-.1191-.4443-.3105-.5303-.5732s-.0303-.6143,.166-1.0542l.9775-2.1943-4.4414-1.9805-.6562,1.4717c-.1934,.4346-.417,.709-.6719,.8232-.2539,.1152-.5176,.1113-.791-.0107-.2676-.1191-.4443-.3101-.5312-.5732-.0859-.2627-.0303-.6143,.166-1.0542l1.4707-3.3003Z"/><path d="M92.8271,24.8694c-.0205-.3311,.0508-.5938,.2139-.7886,.1836-.2202,.4131-.3354,.6895-.3462,.2764-.0112,.5967,.1357,.9619,.4404l.9893,.8267c.3701,.3086,.5723,.5991,.6084,.8706,.0361,.272-.042,.5229-.2344,.7524-.1748,.21-.3828,.3374-.624,.3818-.1777,.0298-.4297-.041-.7578-.2124-.3271-.1719-.6543-.1992-.9814-.082-.5771,.2046-1.1299,.6216-1.6553,1.251-.6055,.7246-.8779,1.4829-.8184,2.2749s.4141,1.459,1.0635,2.0015c.5996,.501,1.248,.6865,1.9463,.5571,.6973-.1299,1.4531-.6816,2.2676-1.6562,.5342-.6396,.9053-1.2158,1.1133-1.729,.1201-.3066,.1738-.6479,.1611-1.0234s.0537-.6504,.2002-.8257c.1748-.21,.4043-.3262,.6855-.3491,.2822-.0229,.5283,.0532,.7383,.2285,.3398,.2837,.4688,.7852,.3848,1.5044-.1211,1.0693-.7373,2.2686-1.8467,3.5977-.998,1.1943-2.0215,1.917-3.0713,2.1685-1.416,.3442-2.7012,.0342-3.8555-.9297-1.0938-.9141-1.6953-2.0352-1.8027-3.3638s.3291-2.5796,1.3096-3.7539c.3555-.4248,.7246-.7861,1.1094-1.084s.7861-.5352,1.2051-.7114Z"/><path d="M118.1865,19.0794l-.1611-.4399c-.3789,.4233-.8291,.8022-1.3516,1.1362s-1.0156,.5864-1.4805,.7568c-1.0078,.3706-1.9258,.4038-2.751,.1006-.8262-.3037-1.3584-.7793-1.5957-1.4272-.29-.7881-.1572-1.6675,.3984-2.6382,.5557-.9702,1.543-1.7158,2.96-2.2368,.5684-.209,1.248-.3892,2.0391-.5405l-.165-.4492c-.1035-.2812-.3086-.4658-.6152-.5547-.3066-.0884-.7988-.0083-1.4775,.2412-.5557,.2041-1.2363,.5791-2.042,1.1245-.3008,.2007-.543,.3345-.7256,.4019-.251,.0923-.4961,.0801-.7363-.0361-.2412-.1162-.4131-.3149-.5156-.5962-.0586-.1587-.0791-.3076-.0605-.4463,.0186-.1382,.0703-.2632,.1543-.374,.084-.1104,.2822-.2788,.5947-.5044,.417-.2988,.8535-.5752,1.3086-.8291,.4541-.2534,.877-.4521,1.2686-.5962,1.167-.4287,2.166-.5093,2.9961-.2422,.8291,.2676,1.4053,.8384,1.7256,1.7119l1.4209,3.8687,.3213-.1182c.4521-.166,.8066-.1973,1.0635-.0938,.2559,.1035,.4355,.2959,.5391,.5767,.1016,.2754,.0869,.5352-.041,.7798-.1289,.2451-.4189,.4507-.8711,.6167l-2.2002,.8081Zm-1.2354-3.3643c-.8057,.1294-1.5264,.311-2.1621,.5444-.7637,.2808-1.3525,.7085-1.7656,1.2832-.2549,.3638-.3369,.6685-.2471,.9126,.0654,.1772,.2002,.2905,.4053,.3398,.3799,.0894,.8359,.0366,1.3672-.1587,.4521-.166,.9316-.4424,1.4385-.8296,.5059-.3872,.9258-.8154,1.2598-1.2852l-.2959-.8066Z"/><path d="M124.6816,8.3211l.1025,.666c.3125-.3643,.6748-.6567,1.085-.8779,.4102-.2217,.8701-.3711,1.3779-.4492,1.1719-.1802,2.1543,.0405,2.9482,.6626,.6299,.4961,1.0166,1.2139,1.1611,2.1533l.5654,3.6772c.4189-.064,.7412-.02,.9688,.1328,.2285,.1528,.3652,.377,.4102,.6729,.0449,.2896-.0205,.5415-.1943,.7563-.1748,.2144-.5,.3584-.9766,.4316l-1.7852,.2749c-.4766,.0732-.8301,.0337-1.0605-.1187-.2314-.1519-.3691-.376-.415-.6724-.0449-.2896,.0186-.541,.1904-.7554,.1709-.2139,.4658-.353,.8838-.4175l-.5742-3.7354c-.0664-.4312-.2314-.7285-.4932-.8926-.3428-.2104-.8154-.2695-1.4209-.1768-.457,.0703-.8438,.2207-1.1602,.4507-.3174,.23-.6953,.6719-1.1348,1.3257l.5654,3.6772c.5078-.0781,.8438-.0806,1.0068-.0068,.3447,.1445,.5459,.4038,.6035,.7769,.0449,.2896-.0205,.5415-.1953,.7559-.1738,.2148-.499,.3589-.9756,.4321l-2.249,.3457c-.4766,.0732-.8291,.0337-1.0605-.1182-.2305-.1523-.3691-.3765-.415-.6724-.0547-.3604,.0566-.6641,.335-.9111,.1396-.1201,.4629-.2192,.9717-.2979l-.7393-4.8066c-.4189,.0645-.7422,.0186-.9697-.1372-.2285-.1558-.3652-.3789-.4092-.6685-.0449-.2896,.0205-.5415,.1943-.7559,.1748-.2148,.5-.3584,.9766-.4321l1.8818-.2896Z"/><path d="M141.0469,7.0428l-.0068,6.8652,2.4023,.0024c.4814,.0005,.8252,.0933,1.0303,.2793,.2051,.1855,.3066,.4282,.3066,.7275,0,.293-.1035,.5322-.3086,.7178-.2051,.1851-.5488,.2778-1.0303,.2773l-6.8066-.0068c-.4814-.0005-.8252-.0933-1.0303-.2793-.2051-.1855-.3066-.4282-.3066-.728,0-.293,.1035-.5317,.3086-.7173,.2051-.1851,.5488-.2778,1.0303-.2773l2.4023,.0024,.0049-4.8633-1.6113-.0015c-.4756-.0005-.8174-.0938-1.0254-.2793-.208-.186-.3115-.4282-.3115-.728,0-.293,.1025-.5322,.3086-.7173,.2051-.1855,.5479-.2778,1.0303-.2773l3.6133,.0034Zm-.2695-3.7993l-.002,2.1191-2.3828-.002,.002-2.1191,2.3828,.002Z"/><path d="M150.1523,7.4929l-.0674,.5625c.3613-.2783,.6797-.4619,.9551-.5508,.2764-.0884,.5859-.1128,.9287-.0723,.291,.0342,.5693,.1396,.8379,.3154,.2676,.1758,.5205,.4219,.7578,.7383,.377-.2437,.749-.4146,1.1182-.5117,.3682-.0977,.7373-.1245,1.1055-.0811,.7373,.0874,1.3115,.355,1.7246,.8037,.5469,.5889,.7705,1.3037,.6709,2.144l-.5254,4.4517c.4131,.0488,.71,.1787,.8877,.3901,.1787,.2109,.25,.4619,.2158,.7529s-.1621,.5171-.3848,.6772c-.2217,.1606-.5723,.2129-1.0508,.1562l-1.8916-.2231,.7412-6.2749c.0361-.3037,.0059-.5205-.0898-.6499-.0967-.1294-.2578-.2075-.4844-.2339-.2197-.0264-.4297,.0078-.6309,.1021-.2588,.1338-.5859,.4028-.9805,.8086l-.4736,4.0054c.4141,.0488,.71,.1792,.8887,.3901,.1777,.2114,.25,.4624,.2158,.7534-.0342,.2905-.1631,.5166-.3848,.6772-.2227,.1606-.5732,.2124-1.0518,.1558l-1.8906-.2231,.7412-6.2749c.0352-.2974,.0029-.5122-.0957-.6455-.0996-.1328-.2617-.2129-.4883-.2393-.2324-.0278-.4707,.0181-.7139,.1367-.2441,.1187-.5498,.376-.918,.7715l-.4727,4.0054c.4141,.0488,.7109,.1792,.8926,.3906,.1816,.2119,.2549,.4629,.2207,.7539s-.1641,.5166-.3896,.6768-.5771,.2119-1.0557,.1558l-1.7939-.2119c-.4785-.0566-.8086-.189-.9902-.3975-.1826-.2085-.2559-.4609-.2207-.7588,.0342-.2905,.1631-.5166,.3848-.6772,.2227-.1606,.5439-.2158,.9639-.1665l.5703-4.8296c-.4199-.0493-.7197-.1797-.8975-.3911-.1787-.2109-.25-.4624-.2158-.7529,.0342-.291,.1641-.5166,.3896-.6768,.2256-.1606,.5771-.2124,1.0557-.1558l1.8916,.2231Z"/><path d="M166.0146,19.0345l.0967-.4585c-.5459,.1577-1.1289,.2397-1.749,.2456-.6191,.0059-1.1719-.042-1.6562-.1436-1.0508-.2212-1.8457-.6797-2.3848-1.375-.5391-.6958-.7373-1.3813-.5957-2.0566,.1738-.8218,.7529-1.4966,1.7383-2.0244,.9863-.5273,2.2178-.6357,3.6963-.3247,.5928,.1245,1.2637,.3325,2.0146,.623l.0986-.4683c.0615-.293-.0146-.5581-.2266-.7959-.2129-.2378-.6729-.4312-1.3799-.5796-.5801-.1221-1.3564-.1655-2.3281-.1309-.3613,.0107-.6377-.0044-.8291-.0444-.2607-.0552-.4629-.1953-.6045-.4219-.1426-.2261-.1826-.4854-.1211-.7788,.0352-.1655,.0967-.3022,.1865-.4097,.0889-.1079,.1982-.186,.3291-.2354,.1299-.0488,.3867-.0864,.7715-.1118,.5127-.0322,1.0283-.0347,1.5488-.0088,.5195,.0264,.9844,.0825,1.3916,.1685,1.2168,.2559,2.1064,.7173,2.668,1.3843s.7461,1.4561,.5547,2.3672l-.8486,4.0327,.334,.0703c.4717,.0991,.7891,.2607,.9512,.4844,.1631,.2241,.2129,.4824,.1514,.7754-.0605,.2866-.21,.5-.4492,.6392-.2383,.1392-.5938,.1592-1.0654,.0601l-2.293-.4824Zm.7373-3.5073c-.751-.3174-1.458-.5464-2.1211-.6855-.7959-.1675-1.5215-.1172-2.1768,.1504-.4092,.1738-.6406,.3877-.6943,.6426-.0391,.1851,.0156,.3525,.1641,.5034,.2744,.2773,.6885,.4741,1.2422,.5908,.4717,.0991,1.0244,.1191,1.6592,.0596,.6348-.0591,1.2178-.1992,1.75-.4199l.1768-.8413Z"/><path d="M177.6289,14.909l-1.1035,3.8594c-.1182,.4131-.1113,.7095,.0205,.8892,.2041,.2817,.6436,.519,1.3193,.7124,.9834,.2808,1.9512,.3306,2.9033,.1494,.3652-.0718,.6396-.0815,.8203-.0298,.251,.0718,.4414,.228,.5723,.4683,.1309,.2407,.1582,.4956,.0811,.7646-.0713,.2505-.2334,.438-.4854,.562-.3906,.2065-1.0742,.3042-2.0488,.293-.9756-.0112-1.7725-.1055-2.3926-.2827-1.1953-.3418-2.0186-.856-2.4688-1.5435-.4502-.687-.5684-1.4062-.3535-2.1577l1.2109-4.2349-.6953-.1982c-.4629-.1323-.7676-.3159-.9141-.5508s-.1777-.4961-.0957-.7842c.0801-.2817,.2451-.4834,.4932-.6055s.6035-.1172,1.0674,.0156l.6943,.1982,.4961-1.7368c.1328-.4634,.3164-.7681,.5508-.9141,.2354-.1465,.4961-.1782,.7842-.0962,.2822,.0806,.4834,.2451,.6055,.4932s.1172,.604-.0146,1.0674l-.4971,1.7368,3.5586,1.0171c.4639,.1323,.7686,.3159,.9141,.5508,.1465,.2349,.1787,.4961,.0957,.7842-.0801,.2817-.2441,.4834-.4922,.6055-.249,.1221-.6045,.1167-1.0674-.0156l-3.5586-1.0171Z"/><path d="M191.8291,17.3323l-2.2539,6.4849,2.2695,.7886c.4551,.1582,.749,.3584,.8818,.6011,.1328,.2422,.1504,.5054,.0518,.7881-.0967,.2769-.2715,.4692-.5264,.5771s-.6094,.0825-1.0645-.0757l-6.4297-2.2339c-.4551-.1582-.749-.3584-.8818-.6011s-.1504-.5054-.0518-.7886c.0967-.2764,.2715-.4688,.5264-.5767s.6094-.083,1.0645,.0752l2.2695,.7886,1.5957-4.5938-1.5215-.5288c-.4492-.1562-.7412-.356-.877-.5996-.1367-.2437-.1553-.5068-.0566-.79,.0957-.2764,.2715-.4688,.5264-.5767,.2539-.1084,.6094-.083,1.0645,.0752l3.4131,1.186Zm.9883-3.6782l-.6953,2.002-2.251-.7822,.6953-2.002,2.251,.7822Z"/><path d="M206.0303,27.6072c-.2783,.7163-.7471,1.332-1.4053,1.8477s-1.458,.8193-2.3984,.9111c-.9404,.0913-1.8379-.0293-2.6934-.3618-.8496-.3311-1.5859-.8428-2.2109-1.5366-.624-.6934-1.0088-1.4561-1.1523-2.2876-.1445-.832-.0742-1.6147,.2119-2.3486,.29-.7466,.7812-1.3989,1.4736-1.957,.6924-.5586,1.5059-.8931,2.4404-1.0049,.9336-.1113,1.8223-.0029,2.666,.3252,.8496,.3306,1.585,.8594,2.2061,1.5869,.6221,.7275,.9941,1.5259,1.1172,2.3945s.0381,1.6792-.2549,2.4312Zm-1.8691-.7168c.2334-.6006,.2334-1.2363-.002-1.9077-.3242-.9087-.9648-1.5493-1.9238-1.9224-.8428-.3286-1.6523-.3325-2.4268-.0122-.7744,.3208-1.2998,.8359-1.5752,1.5454-.2275,.5825-.1543,1.2383,.2197,1.9668,.373,.7285,.9746,1.2544,1.8057,1.5781,.8379,.3257,1.6396,.3462,2.4072,.0615,.7676-.2842,1.2656-.7212,1.4951-1.3096Z"/><path d="M212.9365,25.7908l-.2979,.6045c.4648-.1196,.9297-.1523,1.3926-.0986,.4639,.0532,.9258,.1934,1.3877,.4204,1.0635,.5225,1.7422,1.2661,2.0371,2.231,.2324,.7671,.1387,1.5771-.2803,2.4302l-1.6406,3.3394c.3799,.1865,.6191,.4077,.7188,.6631,.0986,.2554,.082,.5181-.0498,.7866-.1289,.2627-.3262,.4321-.5928,.5083-.2656,.0762-.6143,.0078-1.0469-.2046l-1.6221-.7969c-.4316-.2124-.6992-.4473-.8018-.7041-.1016-.2568-.0869-.52,.0449-.7886,.1299-.2632,.3252-.4331,.5889-.5107,.2627-.0776,.584-.0229,.9639,.1636l1.667-3.3916c.1924-.3916,.2275-.7295,.1064-1.0142-.1602-.3687-.5146-.688-1.0635-.958-.415-.2036-.8184-.3022-1.21-.2949-.3916,.0068-.9541,.1528-1.6895,.4375l-1.6406,3.3394c.4609,.2266,.7383,.417,.8291,.5708,.2002,.3159,.2168,.6431,.0508,.9819-.1299,.2632-.3271,.4326-.5928,.5088s-.6152,.0078-1.0479-.2046l-2.042-1.0039c-.4326-.2124-.6992-.4473-.8018-.7041s-.0869-.5195,.0449-.7886c.1611-.3271,.4258-.5122,.7959-.5557,.1826-.0186,.5049,.0854,.9668,.312l2.1455-4.3647c-.3799-.1865-.6191-.4092-.7168-.6675s-.082-.519,.0469-.7822c.1289-.2627,.3271-.4321,.5928-.5083s.6152-.0078,1.0469,.2046l1.71,.8398Z"/></g></svg>