<?xml version="1.0" encoding="UTF-8"?><svg id="Layer_1" xmlns="http://www.w3.org/2000/svg" width="294" height="119.9296" viewBox="0 0 294 119.9296"><defs><style>.cls-1{fill:none;stroke:#000;stroke-linecap:round;stroke-linejoin:round;stroke-width:5px;}</style></defs><g><path class="cls-1" d="M163.5458,55.1151c-4.6666-3-9.3334-6-14-9l-27.9231,.1538v18.8462h-9.0769l9.0769,50.5993h82.9231V54.9687c-13.6666,.0488-27.3334,.0976-41,.1464Z"/><polyline class="cls-1" points="204.6227 115.7144 195.5458 65.1151 121.6227 65.1151"/></g><g><path d="M155.9102,4.458c.1143-.123,.2334-.2109,.3584-.2642,.124-.0532,.2529-.0723,.3877-.0562,.2334,.0278,.4131,.1309,.542,.3086,.1279,.1782,.1689,.4585,.123,.8408l-.1611,1.3501c-.0459,.3828-.1514,.6465-.3184,.792-.167,.145-.3672,.2041-.5996,.1763-.2119-.0254-.376-.1055-.4902-.2397-.1152-.1343-.1846-.3682-.208-.7012-.0098-.2217-.0625-.3984-.1562-.5303-.1846-.2583-.459-.4795-.8223-.6646s-.7363-.3008-1.1191-.3462c-.4756-.0571-.9248-.0059-1.3477,.1533-.4229,.1597-.8145,.4536-1.1758,.8828-.3604,.4287-.5791,.9639-.6562,1.605l-.123,1.0317c-.0908,.7656,.1104,1.4375,.6055,2.0161,.4941,.5781,1.2354,.9263,2.2236,1.0444,.5898,.0703,1.0977,.0498,1.5254-.0615,.249-.0649,.5244-.2183,.8262-.46,.1855-.146,.3281-.2378,.4268-.2759,.0986-.0376,.208-.0498,.3271-.0356,.2119,.0254,.3877,.1279,.5293,.3071,.1416,.1797,.1992,.3779,.1729,.5952s-.1621,.437-.4092,.6592c-.3584,.3242-.7988,.5605-1.3203,.708-.7002,.1992-1.4541,.251-2.2607,.1548-.9414-.1128-1.7656-.4077-2.4746-.8857-.5732-.3833-1.0342-.9355-1.3838-1.6567-.3486-.7207-.4766-1.4771-.3818-2.2681l.1289-1.0781c.0986-.8276,.3838-1.5767,.8545-2.2466,.4707-.6704,1.0703-1.1587,1.7998-1.4648,.7285-.3066,1.4756-.4141,2.2412-.3223,.4609,.0547,.8848,.1592,1.2725,.313,.3887,.1543,.7432,.3604,1.0635,.6191Z"/><path d="M166.752,8.3847l-1.0508,5.3906c.332,.0645,.5625,.1865,.6924,.3657s.1719,.3838,.127,.6138-.1621,.4023-.3516,.5166-.4727,.1348-.8516,.061l-1.4951-.292,.0703-.3604c-.4902,.1172-.9492,.1865-1.3779,.209s-.8271-.002-1.1953-.0737c-.5166-.1006-.9424-.2969-1.2783-.5874-.3359-.291-.5771-.6499-.7217-1.0762-.1045-.3071-.1162-.6675-.0361-1.0815l.6592-3.3818-.2676-.0522c-.3789-.0737-.6338-.1992-.7666-.376-.1328-.1772-.1758-.3833-.1299-.6187,.0449-.23,.1611-.4019,.3506-.5166,.1895-.1143,.4736-.1343,.8516-.0605l1.8408,.3589-.9121,4.6772c-.0645,.3325-.0322,.5923,.0986,.7798,.1309,.187,.3623,.313,.6943,.3779,.3174,.062,.6709,.0659,1.0605,.0117,.3896-.0537,.8848-.1919,1.4854-.4146l.625-3.2056-.5674-.1104c-.3779-.0737-.6338-.1992-.7656-.3765-.1328-.1772-.1768-.3833-.1309-.6182,.0449-.23,.1621-.4023,.3516-.5166s.4736-.1348,.8516-.061l2.1396,.4175Z"/><path d="M174.6689,12.269c-.2119-.2212-.4463-.4072-.7031-.5571-.2578-.1499-.5371-.2637-.8398-.3423-.5996-.1553-1.1016-.1802-1.5059-.0747-.1787,.0449-.2803,.1182-.3066,.2188-.0303,.1162,.0459,.2573,.2295,.4229,.1406,.1226,.4805,.2939,1.0205,.5142,.9922,.4077,1.6719,.7339,2.0391,.9795,.4805,.3237,.8174,.707,1.0098,1.1494s.2354,.8677,.1299,1.2759c-.1436,.5552-.5088,.9556-1.0947,1.2021-.8398,.3579-1.8203,.3921-2.9395,.1025-.4492-.1162-.8535-.2627-1.2139-.4395s-.6797-.3818-.958-.6152c-.0928,.0459-.1865,.0757-.2812,.0889s-.1875,.0078-.2783-.0156c-.2422-.0625-.415-.1919-.5176-.3882-.1025-.1958-.1055-.4805-.0088-.8535l.1348-.522c.0967-.373,.2373-.6206,.4229-.7422,.1846-.1216,.3926-.1523,.625-.0923,.1865,.0483,.3291,.1406,.4287,.2764,.0986,.1362,.1514,.3394,.1572,.6094,.1846,.2632,.4297,.4897,.7354,.6787,.3066,.1899,.6758,.3403,1.1104,.4526,.7109,.1841,1.291,.2163,1.7422,.0962,.2148-.0625,.3389-.1548,.3701-.2754,.0518-.2017-.0391-.4028-.2725-.603s-.7568-.4541-1.5693-.7617c-1.2119-.4531-1.9785-.9204-2.3008-1.4023-.3232-.4761-.415-.9839-.2754-1.5234,.1436-.5547,.498-.9556,1.0615-1.2021,.7656-.3398,1.6631-.3765,2.6924-.1104,.3574,.0928,.6924,.2158,1.0059,.3691,.3125,.1538,.6016,.3403,.8672,.5596,.1143-.0459,.2178-.0757,.3096-.0894,.0928-.0137,.1738-.0117,.2451,.0068,.2119,.0547,.3672,.1797,.4678,.3755,.0996,.1953,.1016,.4795,.0049,.8525l-.0977,.3779c-.0879,.3379-.1875,.5571-.2988,.6572-.2217,.1899-.4717,.249-.748,.1777-.1875-.0483-.3359-.1489-.4473-.3013-.1113-.1528-.1621-.3301-.1523-.5322Z"/><path d="M182.4746,14.2607l-.9609,3.064c-.1025,.3276-.1035,.5649-.002,.7114,.1572,.2295,.5049,.4282,1.041,.5967,.7803,.2446,1.5527,.3042,2.3184,.1782,.2939-.0498,.5137-.0518,.6572-.0068,.1992,.0625,.3486,.1909,.4482,.3862,.0996,.1948,.1162,.3994,.0488,.6133-.0615,.1987-.1953,.3452-.3994,.4395-.3164,.1572-.8652,.2212-1.6445,.1924-.7803-.0288-1.416-.1201-1.9072-.2744-.9502-.2979-1.5977-.7261-1.9434-1.2847-.3457-.5591-.4258-1.1367-.2383-1.7329l1.0537-3.3618-.5518-.1733c-.3682-.1152-.6074-.2681-.7197-.459-.1123-.1904-.1328-.4004-.0605-.6289,.0703-.2236,.2051-.3818,.4062-.4741,.2012-.0928,.4854-.0815,.8535,.0342l.5518,.1729,.4316-1.3794c.1152-.3677,.2686-.6074,.459-.7197,.1914-.1123,.4004-.1323,.6299-.0605,.2236,.0698,.3809,.2056,.4736,.4062,.0928,.2012,.0811,.4858-.0342,.8535l-.4326,1.3789,2.8262,.8857c.3672,.1152,.6074,.2686,.7197,.459,.1123,.1909,.1318,.4004,.0605,.6289-.0703,.2241-.2061,.3818-.4062,.4746-.2012,.0923-.4854,.0811-.8535-.0342l-2.8252-.8857Z"/><path d="M195.6875,20.9868c-.208,.5786-.5703,1.0811-1.0859,1.5073s-1.1484,.6855-1.8984,.7783c-.75,.0933-1.4707,.0156-2.1621-.2329-.6855-.2466-1.2861-.6406-1.7998-1.1821-.5137-.542-.8369-1.1436-.9697-1.8057s-.0928-1.2896,.1201-1.8828c.2168-.6025,.5957-1.1348,1.1377-1.5957s1.1855-.7461,1.9307-.855c.7441-.1084,1.458-.0405,2.1387,.2046,.6865,.2466,1.2852,.6543,1.7979,1.2227,.5127,.5688,.8271,1.1992,.9434,1.8916s.0654,1.3423-.1523,1.9497Zm-1.5098-.5342c.1738-.4854,.1602-.9937-.042-1.5254-.2773-.7197-.8037-1.2192-1.5781-1.4976-.6816-.2446-1.3291-.231-1.9414,.0415s-1.0215,.6953-1.2275,1.269c-.1689,.4702-.0967,.9932,.2168,1.5679s.8057,.9829,1.4775,1.2241c.6768,.2432,1.3184,.2432,1.9268-.001,.6074-.2437,.9971-.603,1.168-1.0786Z"/><path d="M200.2119,18.7817l-.165,.4219c.3359-.1426,.6191-.2202,.8506-.2329s.4756,.0312,.7334,.1318c.2178,.0854,.4121,.2236,.584,.4136,.1719,.1904,.3174,.4321,.4375,.7256,.3408-.1128,.6631-.1694,.9688-.1704,.3047-.0005,.5957,.0532,.8721,.1616,.5527,.2168,.9434,.5405,1.1719,.9712,.3037,.5669,.332,1.165,.085,1.7954l-1.3086,3.3389c.3105,.1216,.5137,.2822,.6084,.4814,.0957,.1997,.1006,.4087,.0146,.627-.085,.2183-.2305,.3667-.4346,.4463-.2051,.0791-.4863,.0483-.8457-.0923l-1.418-.5557,1.8447-4.7061c.0889-.228,.1094-.4019,.0615-.5215-.0488-.1196-.1572-.2129-.3271-.2793-.165-.0645-.335-.0806-.5098-.0483-.2266,.0508-.5342,.1929-.9219,.4268l-1.1777,3.0044c.3105,.1216,.5127,.2822,.6084,.4814,.0947,.1997,.0996,.4087,.0146,.627-.0859,.2183-.2305,.3667-.4355,.4463-.2041,.0791-.4863,.0483-.8447-.0923l-1.4189-.5557,1.8447-4.7065c.0879-.2227,.1064-.396,.0566-.519-.0498-.1226-.1592-.2173-.3291-.2842-.1748-.0684-.3682-.0811-.5801-.0386-.2129,.0425-.502,.1797-.8662,.4116l-1.1777,3.0039c.3105,.1216,.5146,.2827,.6123,.4834,.0977,.2002,.1035,.4097,.0176,.6279-.085,.2183-.2314,.3667-.4385,.4448s-.4893,.0474-.8486-.0933l-1.3457-.5278c-.3584-.1406-.5869-.3101-.6855-.5078-.0986-.1982-.1045-.4087-.0176-.6318,.0859-.2183,.2314-.3667,.4355-.4463,.2041-.0791,.4639-.0571,.7793,.0664l1.4199-3.6221c-.3154-.1235-.5205-.2852-.6152-.4849-.0957-.1992-.1006-.4082-.0146-.6265,.085-.2183,.2314-.3667,.4385-.4448,.207-.0786,.4893-.0474,.8486,.0933l1.418,.5562Z"/><path d="M213.7676,29.4663l-5.9355-2.8188c-.0283,.4482,.0947,.8784,.3691,1.291,.2734,.4126,.7373,.7739,1.3916,1.0845,.5361,.2549,1.3037,.478,2.3027,.6699,.4111,.0801,.6875,.1538,.8291,.2207,.1934,.0918,.3232,.2373,.3896,.436,.0674,.1992,.0518,.4019-.0469,.6089-.0898,.1885-.2363,.3149-.4395,.3794-.2715,.085-.8086,.0327-1.6123-.1558-.8047-.189-1.543-.4429-2.2158-.7627-1.1572-.5493-1.9277-1.3159-2.3105-2.2998-.3838-.9834-.3486-1.9526,.1045-2.9077,.4834-1.0161,1.251-1.6646,2.3037-1.9458,1.0537-.2812,2.0693-.1895,3.0479,.2754,.5879,.2793,1.0791,.6392,1.4727,1.0796,.3926,.4404,.6523,.8379,.7783,1.1914,.1738,.5093,.249,1.0728,.2266,1.6904-.0195,.4292-.1406,.8789-.3643,1.3496l-.291,.6138Zm-.915-2.2075c-.0244-.519-.167-.9658-.4277-1.3403-.2598-.3745-.6367-.6787-1.1309-.9136-.4893-.2324-.9619-.3311-1.416-.2964-.4551,.0352-.8936,.2061-1.3164,.5127l4.291,2.0376Z"/><path d="M220.876,28.3461l-.4834,.8755c.8223-.0996,1.4424-.126,1.8594-.0801,.418,.0464,.7754,.1514,1.0713,.3149,.4561,.2515,.8057,.6646,1.0479,1.2383,.166,.3892,.1836,.7021,.0527,.9395-.1113,.2007-.2744,.332-.4902,.3945-.2158,.062-.4219,.0391-.6182-.0688-.1729-.0957-.3076-.2832-.4033-.562-.0957-.2793-.2188-.46-.3691-.5435-.1963-.1079-.5576-.1465-1.083-.1157-.5254,.0312-1.2168,.1318-2.0723,.3022l-1.166,2.1133,1.9971,1.1025c.3369,.186,.542,.3838,.6143,.5933,.0713,.209,.0498,.4189-.0664,.6284-.1133,.2051-.2773,.333-.4932,.3838-.2148,.0508-.4912-.0171-.8291-.2036l-4.2334-2.3369c-.3379-.186-.542-.3838-.6143-.5933-.0713-.209-.0498-.4185,.0664-.6284,.1133-.2051,.2773-.333,.4922-.3838,.2158-.0508,.4922,.0171,.8291,.2036l.835,.4604,1.8799-3.4062-.5059-.2793c-.3379-.186-.542-.3838-.6143-.5933-.0713-.209-.0498-.4185,.0664-.6284,.1133-.2051,.2773-.333,.4922-.3838,.2158-.0508,.4922,.0171,.8291,.2036l1.9092,1.0532Z"/><path d="M233.3613,43.3803l-1.5225,2.1382,.7822,.5576c.3145,.2236,.4951,.4434,.542,.6597,.0479,.2158,.002,.4214-.1367,.6167-.1367,.1909-.3145,.2993-.5342,.3247-.2197,.0259-.4863-.0732-.7998-.2969l-2.3105-1.645c-.3135-.2241-.4941-.4438-.542-.6597-.0469-.2163-.0029-.4199,.1328-.6104,.1387-.1953,.3193-.3052,.541-.3291,.2227-.0244,.4883,.0737,.7979,.2944l.2227,.1587,4.1973-5.8921-.2227-.1587c-.3145-.2236-.4951-.4438-.542-.6597-.0479-.2163-.002-.4219,.1367-.6167,.1367-.1909,.3145-.2993,.5342-.3252,.2197-.0254,.4863,.0732,.7998,.2969l1.5273,1.0879-.3174,.4453c.4541,.0098,.8799,.0801,1.2793,.2109s.7705,.3188,1.1143,.5635c.8906,.6348,1.4346,1.4775,1.6318,2.5293s.0176,1.9683-.5381,2.7485c-.6133,.8613-1.4912,1.3071-2.6318,1.3384-.9521,.0254-1.8154-.2383-2.5918-.791-.3359-.2388-.6318-.5234-.8887-.8535-.2578-.3306-.4775-.708-.6611-1.1328Zm5.4648,.5161c.1299-.1821,.2227-.4658,.2793-.8506,.0566-.3853,.0029-.7783-.1611-1.1802-.165-.4019-.4492-.7461-.8516-1.0332-.6494-.4624-1.3389-.5854-2.0674-.3696-.498,.1504-.8564,.3809-1.0771,.6904-.248,.3481-.3037,.8184-.166,1.4116,.1367,.5933,.4785,1.0845,1.0264,1.4746,.5508,.3926,1.1279,.5571,1.7295,.4937,.6016-.064,1.0312-.2759,1.2881-.6367Z"/><path d="M247.4092,46.1733l-3.4336,4.2861,1.499,1.2017c.3008,.2412,.4688,.4707,.5039,.689,.0352,.2188-.0215,.4214-.1719,.6084-.1465,.1826-.3301,.2808-.5508,.2939s-.4814-.1006-.7822-.3413l-4.25-3.4053c-.3008-.2407-.4688-.4707-.5039-.689s.0225-.4209,.1719-.6079c.1465-.1831,.3311-.2812,.5518-.2944s.4814,.1006,.7822,.3418l1.5,1.2017,2.4326-3.0361-1.0059-.8062c-.2969-.2378-.4639-.4668-.501-.6865-.0371-.2202,.0186-.4238,.1689-.6108,.1465-.1826,.3301-.2808,.5508-.2939,.2207-.0137,.4814,.1006,.7822,.3413l2.2559,1.8076Zm1.7295-2.5083l-1.0596,1.3228-1.4873-1.1919,1.0596-1.3228,1.4873,1.1919Z"/><path d="M253.2646,53.2597l-2.1465,2.3877c-.2295,.2559-.3291,.4712-.2979,.6465,.0479,.2739,.2812,.5991,.6992,.9751,.6084,.5469,1.2861,.9219,2.0352,1.1255,.2881,.0771,.4883,.166,.6006,.2671,.1543,.1392,.2373,.3184,.2471,.5371s-.0605,.4116-.21,.5781c-.1396,.1553-.3213,.2329-.5469,.2339-.3535,.0112-.8779-.1582-1.5752-.5083s-1.2383-.6978-1.6211-1.0425c-.7402-.665-1.1514-1.3237-1.2334-1.9756-.083-.6523,.085-1.2104,.5029-1.6753l2.3555-2.6201-.4297-.3867c-.2871-.2578-.4414-.4966-.4648-.7163-.0225-.2202,.0459-.4194,.2061-.5977,.1572-.1743,.3457-.2617,.5674-.2622,.2217-.001,.4756,.1274,.7617,.3853l.4297,.3867,.9668-1.0747c.2578-.2866,.4961-.4414,.7168-.4644,.2197-.0225,.4189,.0459,.5967,.2061,.1748,.1567,.2617,.3457,.2627,.5669,.001,.2217-.1279,.4756-.3857,.7622l-.9658,1.0747,2.2021,1.9795c.2861,.2578,.4404,.4966,.4639,.7168,.0225,.2197-.0459,.4189-.2061,.5972-.1572,.1743-.3457,.2617-.5674,.2627-.2207,.0005-.4746-.1279-.7617-.3857l-2.2021-1.9795Z"/><path d="M263.6318,61.4023c.2646,.0088,.4697,.085,.6123,.229,.1611,.1631,.2363,.355,.2236,.5757-.0117,.2207-.1523,.4653-.4229,.7329l-.7314,.7261c-.2744,.2715-.5205,.4116-.7393,.4199-.2197,.0083-.4131-.0728-.582-.2432-.1543-.1553-.2402-.3306-.2578-.5254-.0098-.144,.0654-.3398,.2266-.5874,.1611-.248,.207-.5068,.1387-.7759-.1201-.4756-.4102-.9463-.873-1.4121-.5312-.5366-1.1152-.8105-1.75-.8223-.6357-.0117-1.1934,.2207-1.6738,.6973-.4443,.4404-.6406,.9429-.5898,1.5088,.0518,.5654,.4346,1.2085,1.1494,1.9297,.4697,.4736,.9014,.8125,1.2939,1.0166,.2354,.1187,.5029,.187,.8037,.2046,.2998,.0181,.5137,.0918,.6426,.2212,.1533,.1553,.2295,.3462,.2266,.5728s-.082,.4165-.2373,.5708c-.251,.2495-.6602,.314-1.2275,.1938-.8418-.1768-1.751-.7568-2.7266-1.7407-.877-.8838-1.376-1.7534-1.498-2.6079-.168-1.1533,.1748-2.1538,1.0293-3.001,.8096-.8032,1.748-1.1982,2.8145-1.1846,1.0654,.0137,2.0293,.4551,2.8916,1.3242,.3115,.314,.5723,.6357,.7803,.9644,.209,.3286,.3672,.666,.4766,1.0127Z"/><path d="M270.3027,63.6933l-2.5586,2.2612c.3691,.1187,.7031,.2739,1.001,.4658,.2979,.1914,.5625,.418,.7939,.6797,.3652,.4136,.6211,.8447,.7666,1.2925,.1465,.4482,.1621,.9121,.0469,1.3921-.1143,.48-.4014,.9238-.8623,1.3306l-2.2529,1.9922c.2686,.3042,.415,.5293,.4395,.6748,.0449,.2939-.0439,.5396-.2666,.7358-.1758,.1553-.373,.2217-.5908,.1992-.2178-.0229-.4551-.1787-.71-.4673l-1.2109-1.3701c-.252-.2847-.376-.5376-.374-.7588,.0029-.2212,.0938-.4111,.2734-.5698,.2188-.1934,.4707-.2495,.7578-.1694,.1484,.0425,.3535,.2158,.6152,.5195l2.1719-1.9194c.3086-.2725,.4629-.5342,.4639-.7852,.0049-.3315-.1504-.6772-.4678-1.0361-.2344-.2651-.4941-.4546-.7783-.5684-.2852-.1133-.752-.1919-1.4023-.2358l-2.248,1.9868c.2725,.3081,.4189,.5332,.4395,.6748,.0488,.2979-.0391,.5454-.2607,.7422-.1758,.1553-.374,.2202-.5938,.1958s-.457-.1812-.7129-.4702l-1.2051-1.3638c-.2559-.2891-.3818-.5439-.3789-.7651,.002-.2212,.0938-.4111,.2725-.5698,.2188-.1929,.4736-.2476,.7637-.1631,.1445,.0386,.3496,.2114,.6152,.5195l5.1924-4.5894-.1816-.2051c-.2549-.2886-.3809-.5435-.3789-.7651,.0029-.2212,.0938-.4111,.2734-.5698,.1758-.1548,.373-.2202,.5928-.1958,.2197,.0249,.458,.1812,.7129,.4702l1.2422,1.4048Z"/></g></svg>