<?xml version="1.0" encoding="utf-8"?>
<!-- Generator: Adobe Illustrator 26.3.1, SVG Export Plug-In . SVG Version: 6.00 Build 0)  -->
<svg version="1.1" id="Layer_1" xmlns="http://www.w3.org/2000/svg" xmlns:xlink="http://www.w3.org/1999/xlink" x="0px" y="0px"
	 viewBox="0 0 1347.5 131.3" style="enable-background:new 0 0 1347.5 131.3;" xml:space="preserve">
<style type="text/css">
	.st0{fill:none;stroke:#000000;stroke-width:5;stroke-linecap:round;stroke-linejoin:round;}
</style>
<g>
	<path class="st0" d="M636.8,57c-4.7-3-9.3-6-14-9l-27.9,0.2V67h-9.1l9.1,50.6h82.9V56.9C664.1,56.9,650.5,57,636.8,57z"/>
	<polyline class="st0" points="677.9,117.6 668.8,67 594.9,67 	"/>
</g>
<g>
	<path d="M196.7,8.9c0.2-0.3,0.5-0.5,0.8-0.6c0.3-0.1,0.5-0.2,0.8-0.2c0.5,0,0.9,0.2,1.2,0.6s0.4,1,0.4,1.8l-0.2,3
		c-0.1,0.8-0.3,1.4-0.6,1.8c-0.4,0.3-0.8,0.5-1.3,0.4c-0.5,0-0.8-0.2-1.1-0.5s-0.4-0.8-0.5-1.5c0-0.5-0.2-0.9-0.4-1.1
		c-0.4-0.5-1-1-1.9-1.4c-0.8-0.4-1.6-0.6-2.5-0.6c-1-0.1-2,0.1-2.9,0.5c-0.9,0.4-1.7,1.1-2.5,2s-1.2,2.2-1.3,3.6l-0.2,2.3
		c-0.1,1.7,0.4,3.1,1.5,4.3c1.1,1.2,2.8,1.9,5,2.1c1.3,0.1,2.4,0,3.3-0.3c0.5-0.2,1.1-0.5,1.8-1.1c0.4-0.3,0.7-0.6,0.9-0.6
		c0.2-0.1,0.4-0.1,0.7-0.1c0.5,0,0.9,0.2,1.2,0.6c0.3,0.4,0.5,0.8,0.4,1.3c0,0.5-0.3,1-0.8,1.5c-0.8,0.7-1.7,1.3-2.8,1.7
		c-1.5,0.5-3.2,0.7-4.9,0.6c-2.1-0.2-3.9-0.7-5.5-1.7c-1.3-0.8-2.4-1.9-3.2-3.5c-0.8-1.5-1.2-3.2-1.1-4.9l0.2-2.4
		c0.1-1.8,0.7-3.5,1.6-5c1-1.5,2.2-2.6,3.8-3.4c1.6-0.7,3.2-1,4.9-0.9c1,0.1,1.9,0.3,2.8,0.6C195.2,8,196,8.4,196.7,8.9L196.7,8.9z"
		/>
	<path d="M221.3,17.7l-2.6,11.7c0.7,0.2,1.2,0.4,1.5,0.8c0.3,0.4,0.4,0.8,0.2,1.3c-0.1,0.5-0.4,0.9-0.8,1.1c-0.4,0.2-1,0.3-1.9,0.1
		l-3.3-0.7l0.2-0.8c-1.1,0.2-2.1,0.4-3,0.4s-1.8,0-2.6-0.2c-1.1-0.2-2-0.7-2.8-1.4c-0.7-0.7-1.2-1.5-1.5-2.4c-0.2-0.7-0.2-1.5,0-2.4
		l1.6-7.4l-0.6-0.1c-0.8-0.2-1.4-0.5-1.7-0.9c-0.3-0.4-0.4-0.8-0.3-1.4c0.1-0.5,0.4-0.9,0.8-1.1c0.4-0.2,1-0.3,1.9-0.1l4,0.9
		l-2.2,10.2c-0.2,0.7-0.1,1.3,0.2,1.7c0.3,0.4,0.8,0.7,1.5,0.9c0.7,0.2,1.5,0.2,2.3,0.1c0.9-0.1,1.9-0.4,3.3-0.8l1.5-7l-1.2-0.3
		c-0.8-0.2-1.4-0.5-1.7-0.9c-0.3-0.4-0.4-0.8-0.3-1.4c0.1-0.5,0.4-0.9,0.8-1.1s1-0.3,1.9-0.1L221.3,17.7L221.3,17.7z"/>
	<path d="M238.5,28.1c-0.4-0.5-0.9-1-1.4-1.4c-0.5-0.4-1.1-0.7-1.7-1c-1.3-0.5-2.3-0.7-3.3-0.5c-0.4,0.1-0.6,0.2-0.7,0.4
		c-0.1,0.2,0,0.6,0.4,1c0.3,0.3,1,0.8,2.1,1.4c2.1,1.1,3.4,2,4.2,2.6c1,0.8,1.6,1.7,1.9,2.8c0.3,1,0.3,1.9,0,2.8
		c-0.5,1.2-1.3,1.9-2.7,2.3c-1.9,0.6-4.1,0.4-6.4-0.5c-0.9-0.4-1.8-0.8-2.5-1.3c-0.7-0.5-1.4-1-1.9-1.6c-0.2,0.1-0.4,0.1-0.6,0.1
		c-0.2,0-0.4,0-0.6-0.1c-0.5-0.2-0.9-0.5-1-1c-0.2-0.5-0.1-1.1,0.2-1.9l0.4-1.1c0.3-0.8,0.7-1.3,1.1-1.5c0.4-0.2,0.9-0.2,1.4,0
		c0.4,0.2,0.7,0.4,0.9,0.7c0.2,0.3,0.2,0.8,0.2,1.4c0.3,0.6,0.8,1.2,1.4,1.7c0.6,0.5,1.4,0.9,2.3,1.3c1.5,0.6,2.8,0.8,3.8,0.7
		c0.5-0.1,0.8-0.2,0.9-0.5c0.2-0.4,0-0.9-0.4-1.4c-0.5-0.5-1.5-1.2-3.2-2.1c-2.5-1.3-4.1-2.5-4.6-3.6c-0.6-1.1-0.7-2.2-0.2-3.4
		c0.5-1.2,1.3-1.9,2.6-2.3c1.8-0.5,3.7-0.4,5.9,0.4c0.8,0.3,1.5,0.6,2.1,1.1c0.6,0.4,1.2,0.9,1.7,1.4c0.3-0.1,0.5-0.1,0.7-0.1
		c0.2,0,0.4,0,0.5,0.1c0.4,0.2,0.8,0.5,0.9,0.9c0.2,0.4,0.1,1.1-0.2,1.9l-0.3,0.8c-0.3,0.7-0.5,1.2-0.8,1.4
		c-0.5,0.4-1.1,0.4-1.7,0.2c-0.4-0.2-0.7-0.4-0.9-0.8C238.5,29,238.4,28.6,238.5,28.1L238.5,28.1z"/>
	<path d="M255,35.4l-3.4,6.2c-0.4,0.7-0.5,1.2-0.3,1.5c0.2,0.6,0.9,1.1,2,1.7c1.6,0.9,3.2,1.3,4.9,1.4c0.7,0,1.1,0.1,1.4,0.3
		c0.4,0.2,0.7,0.6,0.8,1c0.1,0.5,0.1,0.9-0.2,1.3c-0.2,0.4-0.6,0.7-1,0.8c-0.7,0.2-2,0.1-3.6-0.3c-1.7-0.4-3-0.9-4-1.4
		c-1.9-1-3.1-2.2-3.6-3.6c-0.5-1.3-0.4-2.6,0.2-3.8l3.7-6.8l-1.1-0.6c-0.7-0.4-1.2-0.8-1.3-1.3s-0.1-0.9,0.1-1.4
		c0.2-0.5,0.6-0.7,1.1-0.8c0.5-0.1,1.1,0,1.8,0.4l1.1,0.6l1.5-2.8c0.4-0.7,0.8-1.2,1.3-1.3c0.5-0.2,0.9-0.1,1.4,0.1
		c0.4,0.2,0.7,0.6,0.8,1.1c0.1,0.5,0,1.1-0.4,1.8l-1.5,2.8l5.7,3.1c0.7,0.4,1.2,0.8,1.3,1.3c0.2,0.5,0.1,0.9-0.1,1.4
		c-0.2,0.4-0.6,0.7-1.1,0.8s-1.1,0-1.8-0.4L255,35.4L255,35.4z"/>
	<path d="M280.2,56.1c-0.7,1.1-1.7,2-3,2.7c-1.3,0.7-2.8,0.9-4.4,0.7c-1.6-0.2-3.1-0.7-4.5-1.5c-1.3-0.9-2.4-2-3.3-3.4
		c-0.8-1.4-1.2-2.8-1.2-4.3c0-1.5,0.4-2.8,1.2-4c0.8-1.2,1.8-2.1,3.2-2.9s2.9-1,4.5-0.9c1.6,0.1,3.1,0.6,4.5,1.5
		c1.3,0.9,2.4,2,3.2,3.5c0.8,1.5,1.2,3,1.1,4.5C281.4,53.6,281,54.9,280.2,56.1L280.2,56.1z M277.3,54.2c0.6-1,0.8-2,0.7-3.3
		c-0.2-1.7-1.1-3-2.6-4c-1.3-0.9-2.7-1.1-4.2-0.9c-1.4,0.3-2.5,1-3.2,2.1c-0.6,0.9-0.7,2.1-0.3,3.5s1.2,2.5,2.6,3.3
		c1.3,0.8,2.7,1.2,4.1,0.9C275.7,55.8,276.7,55.2,277.3,54.2L277.3,54.2z"/>
	<path d="M290.6,53.3l-0.5,0.8c0.8-0.2,1.4-0.2,1.9-0.1c0.5,0.1,1,0.3,1.5,0.6c0.4,0.3,0.8,0.7,1.1,1.1s0.5,1.1,0.6,1.7
		c0.8-0.1,1.5-0.1,2.2,0c0.7,0.1,1.3,0.4,1.8,0.7c1.1,0.7,1.8,1.6,2.1,2.6c0.4,1.3,0.2,2.6-0.6,3.9l-4.2,6.6c0.6,0.4,1,0.8,1.1,1.3
		c0.1,0.5,0,0.9-0.2,1.4c-0.3,0.4-0.6,0.7-1.1,0.8s-1.1-0.1-1.8-0.5l-2.8-1.8l5.9-9.3c0.3-0.5,0.4-0.8,0.3-1.1
		c-0.1-0.3-0.2-0.5-0.6-0.7c-0.3-0.2-0.7-0.3-1.1-0.3c-0.5,0-1.2,0.2-2.2,0.5l-3.8,6c0.6,0.4,1,0.8,1.1,1.3c0.1,0.5,0,0.9-0.2,1.4
		c-0.3,0.4-0.6,0.7-1.1,0.8s-1.1-0.1-1.8-0.5l-2.8-1.8l5.9-9.3c0.3-0.4,0.4-0.8,0.3-1.1c-0.1-0.3-0.3-0.5-0.6-0.7
		c-0.3-0.2-0.8-0.3-1.2-0.3c-0.5,0-1.2,0.2-2,0.5l-3.8,6c0.6,0.4,1,0.8,1.1,1.3s0.1,0.9-0.2,1.4c-0.3,0.4-0.6,0.7-1.1,0.8
		c-0.5,0.1-1.1-0.1-1.8-0.6l-2.7-1.7c-0.7-0.5-1.1-0.9-1.3-1.4c-0.1-0.5-0.1-0.9,0.2-1.4c0.3-0.4,0.6-0.7,1.1-0.8s1,0.1,1.6,0.5
		l4.5-7.2c-0.6-0.4-1-0.8-1.1-1.3s0-0.9,0.2-1.4c0.3-0.4,0.6-0.7,1.1-0.8c0.5-0.1,1.1,0.1,1.8,0.6L290.6,53.3L290.6,53.3z"/>
	<path d="M317.3,79.9l-12.7-6.8c-0.1,1,0.1,1.9,0.7,2.9c0.6,0.9,1.5,1.8,2.9,2.5c1.1,0.6,2.8,1.2,5,1.7c0.9,0.2,1.5,0.4,1.8,0.6
		c0.4,0.2,0.7,0.6,0.8,1c0.1,0.4,0.1,0.9-0.2,1.3c-0.2,0.4-0.5,0.7-1,0.8c-0.6,0.2-1.8,0-3.5-0.5c-1.7-0.5-3.3-1.1-4.8-1.9
		c-2.5-1.3-4.1-3.1-4.8-5.3c-0.7-2.2-0.5-4.3,0.5-6.3c1.2-2.2,2.9-3.5,5.2-4c2.3-0.5,4.5-0.2,6.6,0.9c1.3,0.7,2.3,1.5,3.1,2.5
		s1.3,1.9,1.6,2.7c0.3,1.1,0.4,2.4,0.3,3.7c-0.1,0.9-0.4,1.9-0.9,2.9L317.3,79.9L317.3,79.9z M315.5,75c0-1.1-0.3-2.1-0.8-3
		s-1.3-1.6-2.4-2.1c-1-0.6-2.1-0.8-3.1-0.8c-1,0-2,0.4-2.9,1L315.5,75L315.5,75z"/>
	<path d="M333,76.3l-0.8,2c1.8-0.4,3.1-0.6,4-0.7c0.9,0,1.7,0.1,2.4,0.4c1.1,0.4,1.9,1.2,2.6,2.4c0.5,0.8,0.6,1.5,0.4,2
		c-0.2,0.5-0.5,0.8-1,1c-0.5,0.2-0.9,0.2-1.4,0c-0.4-0.2-0.7-0.5-1-1.1c-0.3-0.6-0.6-0.9-0.9-1.1c-0.5-0.2-1.2-0.2-2.4,0
		s-2.6,0.6-4.4,1.2l-2,4.9l4.6,1.9c0.8,0.3,1.3,0.7,1.5,1.1c0.2,0.4,0.2,0.9,0,1.4c-0.2,0.5-0.5,0.8-1,1c-0.5,0.2-1.1,0.1-1.9-0.2
		l-9.8-4c-0.8-0.3-1.3-0.7-1.5-1.1c-0.2-0.4-0.2-0.9,0-1.4c0.2-0.5,0.5-0.8,1-1c0.5-0.2,1.1-0.1,1.9,0.2l1.9,0.8l3.2-7.9l-1.2-0.5
		c-0.8-0.3-1.3-0.7-1.5-1.1c-0.2-0.4-0.2-0.9,0-1.4c0.2-0.5,0.5-0.8,1-1c0.5-0.2,1.1-0.1,1.9,0.2L333,76.3L333,76.3z"/>
	<path d="M369.2,101l-0.9,5.7l2.1,0.3c0.8,0.1,1.4,0.4,1.7,0.8c0.3,0.4,0.4,0.8,0.3,1.3c-0.1,0.5-0.3,0.9-0.7,1.2
		c-0.4,0.3-1,0.3-1.9,0.2l-6.1-1c-0.8-0.1-1.4-0.4-1.7-0.8c-0.3-0.4-0.4-0.8-0.3-1.3c0.1-0.5,0.3-0.9,0.7-1.2c0.4-0.3,1-0.3,1.8-0.2
		l0.6,0.1l2.5-15.6l-0.6-0.1c-0.8-0.1-1.4-0.4-1.7-0.8s-0.4-0.8-0.3-1.3c0.1-0.5,0.3-0.9,0.7-1.2c0.4-0.3,1-0.3,1.9-0.2l4,0.7
		l-0.2,1.2c0.9-0.4,1.8-0.7,2.7-0.8c0.9-0.1,1.8-0.1,2.7,0c2.4,0.4,4.2,1.5,5.7,3.4c1.4,1.9,1.9,3.8,1.6,5.9c-0.4,2.3-1.7,4-3.9,5.2
		c-1.8,1-3.8,1.3-5.9,1c-0.9-0.1-1.7-0.4-2.6-0.8C370.7,102.2,369.9,101.7,369.2,101L369.2,101z M380.4,96.7c0.1-0.5,0-1.1-0.3-1.9
		c-0.3-0.8-0.7-1.5-1.5-2.2c-0.7-0.6-1.6-1-2.7-1.2c-1.7-0.3-3.2,0.1-4.4,1.3c-0.8,0.8-1.3,1.6-1.4,2.4c-0.1,0.9,0.2,1.9,1,2.9
		c0.8,1,2,1.7,3.4,1.9c1.5,0.2,2.8,0,3.9-0.7C379.6,98.5,380.2,97.7,380.4,96.7L380.4,96.7z"/>
	<path d="M399,90.7l-0.7,12l4.2,0.2c0.8,0,1.4,0.2,1.8,0.6c0.3,0.3,0.5,0.8,0.5,1.3c0,0.5-0.2,0.9-0.6,1.2c-0.4,0.3-1,0.4-1.8,0.4
		l-11.9-0.7c-0.8,0-1.4-0.2-1.8-0.6c-0.3-0.3-0.5-0.8-0.5-1.3c0-0.5,0.2-0.9,0.6-1.2c0.4-0.3,1-0.4,1.8-0.4l4.2,0.2l0.5-8.5
		l-2.8-0.2c-0.8,0-1.4-0.2-1.8-0.6c-0.3-0.3-0.5-0.8-0.5-1.3c0-0.5,0.2-0.9,0.6-1.2c0.4-0.3,1-0.4,1.8-0.4L399,90.7L399,90.7z
		 M398.9,84.1l-0.2,3.7l-4.2-0.2l0.2-3.7L398.9,84.1z"/>
	<path d="M418.4,94.3l0.3,7c0,0.8,0.2,1.2,0.5,1.5c0.5,0.4,1.4,0.5,2.6,0.5c1.8-0.1,3.4-0.5,4.9-1.3c0.6-0.3,1-0.5,1.3-0.5
		c0.5,0,0.9,0.1,1.2,0.5c0.3,0.3,0.5,0.7,0.6,1.2c0,0.5-0.1,0.9-0.5,1.2c-0.5,0.6-1.6,1.1-3.2,1.6s-3,0.8-4.1,0.8
		c-2.2,0.1-3.8-0.3-5-1.2s-1.7-2-1.8-3.4l-0.3-7.7l-1.3,0.1c-0.8,0-1.4-0.1-1.8-0.4c-0.4-0.3-0.6-0.7-0.6-1.2c0-0.5,0.1-0.9,0.5-1.3
		s0.9-0.5,1.8-0.6l1.3-0.1l-0.1-3.2c0-0.8,0.1-1.4,0.4-1.8s0.7-0.6,1.2-0.6c0.5,0,0.9,0.1,1.3,0.5c0.3,0.3,0.5,0.9,0.6,1.8l0.1,3.2
		l6.5-0.3c0.8,0,1.4,0.1,1.8,0.4s0.6,0.7,0.6,1.2c0,0.5-0.1,0.9-0.5,1.3s-0.9,0.5-1.8,0.6L418.4,94.3L418.4,94.3z"/>
	<path d="M446.4,88.8c0.4-0.4,0.8-0.7,1.2-0.8c0.5-0.1,0.9,0.1,1.3,0.4s0.6,0.9,0.7,1.7l0.3,2.2c0.1,0.8,0,1.5-0.3,1.8
		c-0.3,0.4-0.7,0.6-1.2,0.7c-0.5,0.1-0.9,0-1.3-0.3c-0.3-0.2-0.5-0.6-0.7-1.2c-0.2-0.6-0.6-1-1.2-1.3c-1-0.4-2.2-0.5-3.6-0.4
		c-1.6,0.2-2.9,0.9-3.8,1.9c-0.9,1.1-1.2,2.4-1,3.8c0.2,1.4,0.8,2.4,1.8,3c1,0.7,2.7,0.9,4.9,0.6c1.4-0.2,2.6-0.5,3.5-0.9
		c0.5-0.3,1-0.6,1.4-1.1s0.8-0.8,1.2-0.8c0.5-0.1,0.9,0.1,1.3,0.4c0.4,0.3,0.6,0.7,0.7,1.2c0.1,0.8-0.3,1.6-1.3,2.4
		c-1.4,1.2-3.6,2-6.6,2.4c-2.7,0.3-4.9,0.1-6.5-0.9c-2.2-1.2-3.5-3.2-3.8-5.8c-0.3-2.5,0.2-4.6,1.7-6.5s3.5-2.9,6.1-3.3
		c1-0.1,1.9-0.1,2.7-0.1C444.8,88.4,445.6,88.5,446.4,88.8L446.4,88.8z"/>
	<path d="M457.5,79.5l1.5,7.3c0.6-0.6,1.3-1,2-1.4c0.7-0.4,1.4-0.6,2.2-0.8c1.2-0.2,2.3-0.3,3.3-0.1c1,0.2,1.9,0.7,2.7,1.4
		s1.3,1.8,1.6,3.1l1.3,6.4c0.9-0.2,1.5-0.2,1.8-0.1c0.6,0.2,1,0.7,1.1,1.3c0.1,0.5,0,0.9-0.3,1.3c-0.3,0.4-0.8,0.7-1.7,0.8l-3.9,0.8
		c-0.8,0.2-1.4,0.1-1.8-0.1c-0.4-0.2-0.7-0.6-0.8-1.1c-0.1-0.6,0-1.2,0.5-1.6c0.2-0.2,0.8-0.4,1.7-0.6l-1.3-6.2
		c-0.2-0.9-0.5-1.5-1-1.7c-0.6-0.4-1.4-0.5-2.5-0.2c-0.8,0.2-1.4,0.4-1.9,0.9s-1.2,1.2-2,2.4l1.3,6.4c0.9-0.2,1.5-0.2,1.8-0.1
		c0.6,0.2,1,0.7,1.1,1.3c0.1,0.5,0,0.9-0.3,1.3c-0.3,0.4-0.8,0.7-1.7,0.8l-3.9,0.8c-0.8,0.2-1.4,0.1-1.9-0.1s-0.7-0.6-0.8-1.1
		c-0.1-0.6,0-1.2,0.5-1.6c0.2-0.2,0.8-0.4,1.7-0.6l-3.1-14.8l-0.6,0.1c-0.8,0.2-1.4,0.1-1.9-0.1s-0.7-0.6-0.8-1.1
		c-0.1-0.5,0-0.9,0.3-1.3c0.3-0.4,0.8-0.7,1.7-0.8L457.5,79.5L457.5,79.5z"/>
</g>
<g>
	<path d="M834.9,38c0-0.4,0.1-0.7,0.3-0.9c0.1-0.3,0.4-0.5,0.6-0.6c0.4-0.3,0.9-0.3,1.4-0.2s0.9,0.6,1.3,1.3l1.5,2.6
		c0.4,0.7,0.6,1.3,0.5,1.8c-0.1,0.5-0.4,0.8-0.8,1.1c-0.4,0.2-0.8,0.3-1.2,0.2c-0.4-0.1-0.8-0.4-1.3-1c-0.3-0.4-0.6-0.6-1-0.7
		c-0.7-0.2-1.4-0.2-2.3-0.1c-0.9,0.1-1.7,0.4-2.4,0.8c-0.9,0.5-1.6,1.2-2.2,2c-0.5,0.8-0.8,1.9-0.9,3.1s0.2,2.4,0.9,3.7l1.1,2
		c0.8,1.5,2.1,2.4,3.7,2.8c1.6,0.4,3.4,0,5.3-1.1c1.1-0.6,2-1.3,2.6-2.1c0.4-0.4,0.6-1.1,0.9-1.9c0.1-0.5,0.3-0.8,0.4-1
		c0.1-0.2,0.3-0.4,0.5-0.5c0.4-0.2,0.8-0.3,1.3-0.2c0.5,0.1,0.8,0.4,1.1,0.8s0.3,1,0.1,1.7c-0.2,1-0.7,2-1.4,3
		c-1,1.3-2.2,2.3-3.8,3.2c-1.8,1-3.6,1.6-5.5,1.7c-1.5,0.1-3-0.3-4.6-1.1c-1.6-0.8-2.8-2-3.6-3.5l-1.2-2.1c-0.9-1.6-1.4-3.3-1.4-5.1
		c0-1.8,0.4-3.4,1.3-4.9s2.1-2.6,3.5-3.5c0.9-0.5,1.8-0.9,2.6-1.1C833.1,38.1,834,38,834.9,38L834.9,38z"/>
	<path d="M859.1,30.8l5.1,10.9c0.7-0.3,1.2-0.4,1.7-0.3c0.5,0.1,0.8,0.5,1,0.9s0.2,0.9,0,1.4c-0.2,0.4-0.7,0.9-1.4,1.2l-3,1.4
		l-0.3-0.7c-0.7,0.8-1.4,1.6-2.2,2.2c-0.7,0.6-1.5,1.1-2.2,1.4c-1,0.5-2,0.7-3,0.6c-1-0.1-1.9-0.4-2.7-1c-0.6-0.4-1.1-1-1.5-1.9
		l-3.2-6.8l-0.5,0.3c-0.8,0.4-1.4,0.5-1.8,0.3c-0.5-0.1-0.8-0.4-1-0.9c-0.2-0.5-0.2-0.9,0-1.4c0.2-0.4,0.7-0.9,1.4-1.2l3.7-1.7
		l4.4,9.4c0.3,0.7,0.7,1.1,1.2,1.2c0.5,0.2,1,0.1,1.7-0.2c0.6-0.3,1.3-0.8,1.9-1.4c0.6-0.6,1.3-1.5,2.1-2.7l-3-6.5l-1.1,0.5
		c-0.8,0.4-1.4,0.5-1.8,0.3c-0.5-0.1-0.8-0.4-1-0.9c-0.2-0.5-0.2-0.9,0-1.4c0.2-0.4,0.7-0.8,1.4-1.2L859.1,30.8L859.1,30.8z"/>
	<path d="M878.4,27.7c-0.7-0.1-1.3-0.2-2-0.1c-0.6,0-1.3,0.2-1.9,0.4c-1.3,0.5-2.2,1-2.8,1.7c-0.3,0.3-0.4,0.6-0.3,0.8
		c0.1,0.2,0.4,0.4,0.9,0.5c0.4,0,1.2-0.1,2.5-0.3c2.3-0.5,3.9-0.8,4.9-0.8c1.3,0,2.3,0.3,3.2,0.8c0.9,0.6,1.5,1.3,1.8,2.1
		c0.4,1.2,0.3,2.4-0.5,3.5c-1.1,1.7-2.8,3-5.2,3.8c-1,0.3-1.9,0.6-2.7,0.7c-0.9,0.1-1.7,0.2-2.5,0.1c-0.1,0.2-0.2,0.4-0.4,0.5
		c-0.2,0.1-0.3,0.2-0.5,0.3c-0.5,0.2-1,0.2-1.4-0.1c-0.4-0.2-0.8-0.7-1.1-1.5l-0.4-1.1c-0.3-0.8-0.3-1.4-0.2-1.9
		c0.2-0.4,0.5-0.8,1-0.9c0.4-0.1,0.8-0.2,1.1,0c0.3,0.1,0.7,0.4,1,0.9c0.7,0.2,1.4,0.3,2.2,0.3c0.8,0,1.6-0.2,2.6-0.6
		c1.5-0.6,2.6-1.2,3.3-2c0.3-0.4,0.4-0.7,0.3-1c-0.2-0.4-0.6-0.7-1.2-0.7c-0.7-0.1-1.9,0.1-3.8,0.6c-2.7,0.7-4.7,0.8-5.9,0.3
		c-1.2-0.5-2-1.3-2.4-2.4c-0.4-1.2-0.3-2.3,0.4-3.5c1-1.6,2.5-2.7,4.7-3.5c0.8-0.3,1.5-0.5,2.3-0.6c0.8-0.1,1.5-0.1,2.3-0.1
		c0.1-0.2,0.3-0.4,0.4-0.5c0.1-0.1,0.3-0.2,0.4-0.3c0.5-0.2,0.9-0.1,1.3,0.1c0.4,0.2,0.8,0.7,1.1,1.5l0.3,0.8
		c0.3,0.7,0.4,1.2,0.3,1.6c-0.2,0.6-0.5,1-1.1,1.2c-0.4,0.1-0.8,0.1-1.2,0C878.9,28.4,878.6,28.1,878.4,27.7L878.4,27.7z"/>
	<path d="M895.4,22l1.7,6.8c0.2,0.7,0.5,1.2,0.8,1.3c0.6,0.2,1.4,0.2,2.6-0.1c1.7-0.4,3.2-1.2,4.5-2.3c0.5-0.4,0.9-0.7,1.2-0.8
		c0.4-0.1,0.9,0,1.3,0.2c0.4,0.3,0.7,0.6,0.8,1.1c0.1,0.4,0,0.9-0.2,1.3c-0.4,0.7-1.4,1.4-2.9,2.2c-1.5,0.8-2.8,1.4-3.9,1.7
		c-2.1,0.5-3.8,0.5-5.1-0.2c-1.3-0.6-2.1-1.6-2.4-3l-1.9-7.5l-1.2,0.3c-0.8,0.2-1.4,0.2-1.9,0s-0.7-0.6-0.8-1.1
		c-0.1-0.5-0.1-0.9,0.2-1.3c0.3-0.4,0.8-0.7,1.6-0.9l1.2-0.3l-0.8-3.1c-0.2-0.8-0.2-1.4,0-1.9c0.2-0.4,0.6-0.7,1.1-0.8
		c0.5-0.1,0.9-0.1,1.3,0.2c0.4,0.3,0.7,0.8,0.9,1.6l0.8,3.1l6.3-1.6c0.8-0.2,1.4-0.2,1.9,0s0.7,0.6,0.8,1.1c0.1,0.5,0.1,0.9-0.2,1.3
		c-0.3,0.4-0.8,0.7-1.6,0.9L895.4,22L895.4,22z"/>
	<path d="M928.1,21c0.2,1.3,0,2.7-0.6,4c-0.6,1.3-1.6,2.5-2.9,3.4s-2.9,1.5-4.4,1.7c-1.6,0.2-3.1,0-4.7-0.5s-2.8-1.4-3.7-2.6
		c-0.9-1.2-1.5-2.4-1.6-3.8c-0.2-1.4,0-2.8,0.6-4.2c0.6-1.4,1.6-2.6,2.9-3.6s2.8-1.5,4.4-1.7c1.6-0.2,3.2,0,4.7,0.6
		c1.6,0.6,2.8,1.5,3.7,2.8C927.4,18.3,928,19.6,928.1,21L928.1,21z M924.7,21.5c-0.1-1.1-0.7-2.1-1.6-2.9c-1.3-1.1-2.8-1.6-4.6-1.4
		c-1.6,0.2-2.8,0.9-3.7,2c-0.9,1.1-1.3,2.4-1.1,3.7c0.1,1.1,0.8,2,2,2.8c1.2,0.8,2.5,1.1,4.1,0.9c1.6-0.2,2.8-0.8,3.8-1.9
		C924.4,23.7,924.8,22.6,924.7,21.5L924.7,21.5z"/>
	<path d="M935.9,12.8l0,1c0.6-0.6,1.1-0.9,1.6-1.1c0.5-0.2,1-0.3,1.6-0.3c0.5,0,1,0.1,1.5,0.4c0.5,0.3,1,0.6,1.5,1.1
		c0.6-0.5,1.2-0.9,1.8-1.1c0.6-0.2,1.3-0.4,1.9-0.4c1.3,0,2.3,0.4,3.2,1.1c1.1,0.9,1.6,2.1,1.6,3.6l-0.1,7.8c0.7,0,1.3,0.2,1.6,0.5
		c0.4,0.3,0.5,0.8,0.5,1.3s-0.2,0.9-0.5,1.3s-1,0.5-1.8,0.5l-3.3,0l0.1-11.1c0-0.5-0.1-0.9-0.3-1.1c-0.2-0.2-0.5-0.3-0.9-0.3
		c-0.4,0-0.7,0.1-1.1,0.3c-0.4,0.3-0.9,0.8-1.6,1.6l-0.1,7.1c0.7,0,1.3,0.2,1.6,0.5c0.4,0.3,0.5,0.8,0.5,1.3s-0.2,0.9-0.5,1.3
		s-1,0.5-1.8,0.5l-3.3,0l0.1-11.1c0-0.5-0.1-0.9-0.3-1.1c-0.2-0.2-0.5-0.3-0.9-0.3c-0.4,0-0.8,0.1-1.2,0.4c-0.4,0.3-0.9,0.8-1.4,1.5
		l-0.1,7.1c0.7,0,1.3,0.2,1.6,0.5s0.5,0.8,0.5,1.3c0,0.5-0.2,0.9-0.5,1.3s-1,0.5-1.8,0.5l-3.2,0c-0.8,0-1.4-0.2-1.8-0.5
		s-0.5-0.8-0.5-1.3c0-0.5,0.2-0.9,0.5-1.3c0.4-0.3,0.9-0.5,1.6-0.5l0.1-8.5c-0.7,0-1.3-0.2-1.6-0.5c-0.4-0.3-0.5-0.8-0.5-1.3
		s0.2-0.9,0.5-1.3s1-0.5,1.8-0.5L935.9,12.8L935.9,12.8z"/>
	<path d="M971.9,25.4l-14.2-2.2c0.2,1,0.7,1.8,1.6,2.5s2,1.2,3.6,1.4c1.3,0.2,3,0.2,5.2,0c0.9-0.1,1.5-0.1,1.9-0.1
		c0.5,0.1,0.8,0.3,1.1,0.7c0.3,0.4,0.4,0.8,0.3,1.3c-0.1,0.5-0.3,0.8-0.7,1.1c-0.5,0.3-1.7,0.6-3.5,0.7s-3.5,0-5.1-0.2
		c-2.8-0.4-4.9-1.6-6.3-3.4s-1.9-3.9-1.6-6.2c0.4-2.4,1.6-4.3,3.6-5.5s4.2-1.7,6.6-1.3c1.4,0.2,2.7,0.7,3.8,1.3
		c1.1,0.7,1.9,1.3,2.4,2c0.7,1,1.2,2.1,1.5,3.4c0.2,0.9,0.3,1.9,0.1,3.1L971.9,25.4L971.9,25.4z M968.6,21.3c-0.4-1.1-1-1.9-1.7-2.5
		s-1.8-1-2.9-1.2c-1.2-0.2-2.2-0.1-3.2,0.3c-0.9,0.4-1.7,1-2.4,1.9L968.6,21.3L968.6,21.3z"/>
	<path d="M986.7,19.5l-0.6,2.1c1.7-0.6,3-0.9,3.9-1c0.9-0.1,1.7,0,2.4,0.2c1.1,0.3,2,1.1,2.8,2.2c0.5,0.8,0.7,1.4,0.5,2
		c-0.1,0.5-0.4,0.8-0.9,1.1c-0.4,0.2-0.9,0.3-1.4,0.1c-0.4-0.1-0.8-0.5-1.1-1c-0.3-0.6-0.7-0.9-1-1c-0.5-0.1-1.3-0.1-2.4,0.2
		c-1.1,0.3-2.5,0.8-4.3,1.6l-1.5,5l4.8,1.5c0.8,0.2,1.3,0.6,1.6,1s0.3,0.9,0.1,1.4c-0.2,0.5-0.4,0.8-0.9,1c-0.4,0.2-1.1,0.2-1.9-0.1
		l-10.1-3.1c-0.8-0.2-1.3-0.6-1.6-1s-0.3-0.9-0.1-1.4c0.2-0.5,0.4-0.8,0.9-1s1.1-0.2,1.9,0.1l2,0.6l2.5-8.1l-1.2-0.4
		c-0.8-0.2-1.3-0.6-1.6-1c-0.2-0.4-0.3-0.9-0.1-1.4c0.2-0.5,0.4-0.8,0.9-1s1.1-0.2,1.9,0.1L986.7,19.5L986.7,19.5z"/>
	<path d="M1018.5,48.6l-3,4.9l1.8,1.1c0.7,0.4,1.2,0.9,1.3,1.4s0.1,0.9-0.2,1.4c-0.3,0.4-0.6,0.7-1.1,0.8c-0.5,0.1-1.1-0.1-1.8-0.5
		l-5.3-3.2c-0.7-0.4-1.1-0.9-1.3-1.4s-0.1-0.9,0.2-1.4c0.3-0.4,0.6-0.7,1.1-0.8c0.5-0.1,1.1,0.1,1.8,0.5l0.5,0.3l8.2-13.5l-0.5-0.3
		c-0.7-0.4-1.2-0.9-1.3-1.4c-0.1-0.5-0.1-0.9,0.2-1.4c0.3-0.4,0.6-0.7,1.1-0.8c0.5-0.1,1.1,0.1,1.8,0.5l3.5,2.1l-0.6,1
		c1-0.1,1.9,0,2.8,0.3s1.7,0.6,2.5,1.1c2,1.2,3.4,3,4,5.3c0.6,2.3,0.4,4.3-0.7,6.1c-1.2,2-3,3.1-5.5,3.3c-2.1,0.2-4-0.2-5.8-1.3
		c-0.8-0.5-1.5-1-2.1-1.7S1019,49.5,1018.5,48.6L1018.5,48.6z M1030.6,48.9c0.3-0.4,0.4-1.1,0.5-1.9s-0.1-1.7-0.5-2.5
		c-0.4-0.9-1.1-1.6-2-2.1c-1.5-0.9-3-1.1-4.6-0.5c-1.1,0.4-1.8,1-2.2,1.7c-0.5,0.8-0.5,1.8-0.1,3.1c0.4,1.3,1.2,2.3,2.5,3.1
		c1.3,0.8,2.5,1,3.9,0.8C1029.1,50.2,1030.1,49.7,1030.6,48.9z"/>
	<path d="M1049.5,52.1l-6.5,10.1l3.5,2.3c0.7,0.5,1.1,0.9,1.2,1.4c0.1,0.5,0,0.9-0.2,1.4c-0.3,0.4-0.7,0.7-1.1,0.8
		c-0.5,0.1-1.1-0.1-1.8-0.6l-10-6.5c-0.7-0.5-1.1-0.9-1.2-1.4c-0.1-0.5,0-0.9,0.2-1.4c0.3-0.4,0.7-0.7,1.1-0.8
		c0.5-0.1,1.1,0.1,1.8,0.6l3.5,2.3l4.6-7.1l-2.4-1.5c-0.7-0.5-1.1-0.9-1.2-1.4c-0.1-0.5-0.1-0.9,0.2-1.4c0.3-0.4,0.7-0.7,1.1-0.8
		s1.1,0.1,1.8,0.6L1049.5,52.1L1049.5,52.1z M1052.8,46.3l-2,3.1l-3.5-2.3l2-3.1L1052.8,46.3z"/>
	<path d="M1063.9,65.3l-3.6,6c-0.4,0.6-0.5,1.2-0.4,1.5c0.2,0.6,0.9,1.2,1.9,1.8c1.5,0.9,3.2,1.4,4.9,1.5c0.7,0,1.1,0.1,1.4,0.3
		c0.4,0.2,0.6,0.6,0.8,1c0.1,0.5,0,0.9-0.2,1.3c-0.2,0.4-0.6,0.6-1.1,0.7c-0.8,0.2-2,0-3.6-0.4c-1.6-0.4-3-1-3.9-1.5
		c-1.9-1.1-3-2.3-3.5-3.7c-0.5-1.4-0.3-2.6,0.4-3.8l3.9-6.6l-1.1-0.6c-0.7-0.4-1.2-0.9-1.3-1.3c-0.1-0.5-0.1-0.9,0.2-1.4
		c0.3-0.4,0.6-0.7,1.1-0.8c0.5-0.1,1.1,0.1,1.8,0.5l1.1,0.6l1.6-2.7c0.4-0.7,0.9-1.2,1.3-1.3s0.9-0.1,1.4,0.2
		c0.4,0.3,0.7,0.6,0.8,1.1c0.1,0.5-0.1,1.1-0.5,1.8l-1.6,2.7l5.6,3.3c0.7,0.4,1.2,0.9,1.3,1.3c0.1,0.5,0.1,0.9-0.2,1.4
		c-0.3,0.4-0.6,0.7-1.1,0.8c-0.5,0.1-1.1-0.1-1.8-0.5L1063.9,65.3z"/>
	<path d="M1090.4,75.8c0.6-0.2,1-0.2,1.4,0c0.5,0.2,0.8,0.6,0.9,1s0,1.1-0.3,1.8l-1,2c-0.4,0.8-0.8,1.2-1.2,1.4
		c-0.4,0.2-0.9,0.2-1.4-0.1c-0.4-0.2-0.7-0.5-0.9-0.9c-0.1-0.3-0.1-0.7,0-1.4c0.1-0.6,0-1.2-0.3-1.7c-0.6-0.9-1.6-1.6-2.9-2.2
		c-1.5-0.7-2.9-0.8-4.2-0.4c-1.3,0.5-2.3,1.4-2.9,2.7c-0.6,1.2-0.6,2.4-0.1,3.5c0.5,1.1,1.8,2.2,3.8,3.1c1.3,0.6,2.5,1,3.4,1.1
		c0.6,0.1,1.2,0,1.8-0.2c0.6-0.2,1.1-0.2,1.5,0c0.4,0.2,0.7,0.5,0.9,1c0.2,0.5,0.1,0.9-0.1,1.4c-0.3,0.7-1.1,1.1-2.4,1.3
		c-1.9,0.3-4.2-0.2-6.9-1.5c-2.5-1.2-4.1-2.6-5-4.2c-1.2-2.2-1.3-4.6-0.1-6.9c1.1-2.3,2.7-3.8,4.9-4.5c2.2-0.8,4.5-0.6,6.9,0.5
		c0.9,0.4,1.7,0.9,2.3,1.4S1089.9,75.2,1090.4,75.8L1090.4,75.8z"/>
	<path d="M1104.6,73.6l-2.4,7.1c0.8-0.2,1.6-0.2,2.4-0.2c0.8,0,1.5,0.2,2.2,0.4c1.1,0.4,2.1,0.9,2.9,1.6c0.8,0.7,1.3,1.6,1.6,2.6
		c0.3,1,0.2,2.2-0.2,3.5l-2.1,6.2c0.8,0.3,1.4,0.5,1.6,0.8c0.4,0.5,0.5,1.1,0.3,1.7c-0.2,0.5-0.5,0.8-0.9,1
		c-0.4,0.2-1.1,0.2-1.9-0.1l-3.8-1.3c-0.8-0.3-1.3-0.6-1.5-1c-0.2-0.4-0.3-0.9-0.1-1.4c0.2-0.6,0.6-1,1.3-1.1c0.3-0.1,0.9,0,1.7,0.3
		l2-6c0.3-0.9,0.3-1.5,0-2c-0.4-0.6-1-1.1-2-1.5c-0.7-0.2-1.4-0.3-2.1-0.2s-1.6,0.5-2.9,1.1l-2.1,6.2c0.9,0.3,1.4,0.6,1.6,0.8
		c0.4,0.5,0.5,1.1,0.3,1.7c-0.2,0.5-0.5,0.8-0.9,1c-0.4,0.2-1.1,0.2-1.9-0.1l-3.8-1.3c-0.8-0.3-1.3-0.6-1.6-1
		c-0.2-0.4-0.3-0.9-0.1-1.4c0.2-0.6,0.6-1,1.3-1.1c0.3-0.1,0.9,0,1.7,0.3l4.8-14.4l-0.6-0.2c-0.8-0.3-1.3-0.6-1.6-1
		s-0.3-0.9-0.1-1.4c0.2-0.5,0.5-0.8,0.9-1c0.4-0.2,1.1-0.2,1.9,0.1L1104.6,73.6L1104.6,73.6z"/>
</g>
</svg>
