<?xml version="1.0" encoding="utf-8"?>
<!-- Generator: Adobe Illustrator 26.3.1, SVG Export Plug-In . SVG Version: 6.00 Build 0)  -->
<svg version="1.1" id="Layer_1" xmlns="http://www.w3.org/2000/svg" xmlns:xlink="http://www.w3.org/1999/xlink" x="0px" y="0px"
	 viewBox="0 0 1347.5 131.3" style="enable-background:new 0 0 1347.5 131.3;" xml:space="preserve">
<style type="text/css">
	.st0{fill:none;stroke:#000000;stroke-width:5;stroke-linecap:round;stroke-linejoin:round;}
</style>
<g>
	<path class="st0" d="M636.8,57c-4.7-3-9.3-6-14-9l-27.9,0.2V67h-9.1l9.1,50.6h82.9V56.9C664.1,56.9,650.5,57,636.8,57L636.8,57z"/>
	<polyline class="st0" points="677.9,117.6 668.8,67 594.9,67 	"/>
</g>
<g>
	<path d="M145.7,27.5l-2.1-13.5c-0.7,0.1-1.3,0-1.7-0.3c-0.4-0.3-0.6-0.7-0.7-1.2c-0.1-0.5,0-1,0.3-1.3s0.9-0.6,1.7-0.8l7.2-1.1
		c1.1-0.2,2.3-0.1,3.4,0.1c1.1,0.3,2.1,0.7,2.8,1.2c0.6,0.4,1.2,1,1.9,1.8c0.7,0.8,1.2,1.5,1.6,2.3c0.4,0.8,0.7,1.8,0.9,3l0.3,1.7
		c0.2,1.5,0.2,2.8-0.2,4c-0.3,1.2-0.8,2.2-1.5,3.1c-0.7,0.8-1.4,1.5-2,1.9c-1,0.7-2.5,1.2-4.3,1.5l-7,1.1c-0.8,0.1-1.5,0.1-1.9-0.2
		c-0.4-0.3-0.6-0.7-0.7-1.2c-0.1-0.5,0-1,0.3-1.3S145,27.6,145.7,27.5L145.7,27.5z M149.2,26.9l3.7-0.6c1.4-0.2,2.4-0.6,3-1.1
		c0.8-0.7,1.4-1.4,1.8-2.3s0.4-1.9,0.2-3.2l-0.2-1.6c-0.2-1.1-0.5-2-1.1-2.8c-0.8-1.2-1.7-2-2.6-2.3s-1.9-0.4-3.2-0.3l-3.6,0.6
		L149.2,26.9L149.2,26.9z"/>
	<path d="M178.2,27.8l0-0.8c-0.9,0.5-1.8,0.9-2.9,1.1c-1.1,0.3-2,0.4-2.9,0.4c-1.9,0-3.4-0.4-4.6-1.4c-1.2-1-1.8-2.1-1.8-3.3
		c0-1.5,0.7-2.8,2.2-4.1c1.5-1.3,3.5-2,6.2-2c1.1,0,2.3,0.1,3.7,0.3l0-0.8c0-0.5-0.2-0.9-0.7-1.3s-1.3-0.5-2.6-0.4
		c-1,0-2.4,0.3-4,0.7c-0.6,0.2-1.1,0.2-1.4,0.3c-0.5,0-0.9-0.1-1.2-0.5c-0.3-0.3-0.5-0.8-0.5-1.3c0-0.3,0-0.6,0.2-0.8
		c0.1-0.2,0.3-0.4,0.5-0.5s0.6-0.3,1.3-0.5c0.9-0.3,1.7-0.5,2.6-0.6c0.9-0.2,1.7-0.2,2.4-0.3c2.2,0,3.9,0.4,5.1,1.3
		c1.2,0.9,1.9,2.2,1.9,3.8l0.2,7.2l0.6,0c0.8,0,1.4,0.1,1.8,0.4c0.4,0.3,0.6,0.7,0.6,1.3c0,0.5-0.2,0.9-0.5,1.3s-0.9,0.5-1.8,0.5
		L178.2,27.8L178.2,27.8z M178.1,21.6c-1.4-0.2-2.7-0.4-3.9-0.3c-1.4,0-2.6,0.4-3.7,1.1c-0.6,0.5-0.9,0.9-0.9,1.4
		c0,0.3,0.2,0.6,0.5,0.8c0.6,0.4,1.4,0.5,2.4,0.5c0.8,0,1.8-0.2,2.9-0.6c1.1-0.4,2-0.8,2.8-1.4L178.1,21.6L178.1,21.6z"/>
	<path d="M196.8,16.9l-0.8,7c-0.1,0.7,0,1.3,0.3,1.5c0.4,0.4,1.3,0.7,2.5,0.9c1.8,0.2,3.5,0,5.1-0.6c0.6-0.2,1.1-0.3,1.4-0.3
		c0.5,0.1,0.8,0.3,1.1,0.6c0.3,0.4,0.4,0.8,0.4,1.3c-0.1,0.5-0.3,0.8-0.7,1.1c-0.6,0.5-1.8,0.8-3.5,1.1s-3.1,0.3-4.2,0.2
		c-2.2-0.3-3.7-0.9-4.7-2c-1-1.1-1.4-2.3-1.2-3.6l0.9-7.7l-1.3-0.1c-0.8-0.1-1.4-0.3-1.7-0.7s-0.4-0.8-0.4-1.3
		c0.1-0.5,0.3-0.9,0.7-1.2c0.4-0.3,1-0.4,1.8-0.3l1.3,0.1l0.4-3.1c0.1-0.8,0.3-1.4,0.7-1.7c0.4-0.3,0.8-0.4,1.3-0.4
		c0.5,0.1,0.9,0.3,1.2,0.7c0.3,0.4,0.4,1,0.3,1.8l-0.4,3.1l6.4,0.8c0.8,0.1,1.4,0.3,1.7,0.7c0.3,0.4,0.4,0.8,0.4,1.3
		c-0.1,0.5-0.3,0.9-0.7,1.2c-0.4,0.3-1,0.4-1.8,0.3L196.8,16.9L196.8,16.9z"/>
	<path d="M220,33.7l0.2-0.8c-1,0.2-2,0.3-3.1,0.3s-2-0.2-2.9-0.4c-1.8-0.5-3.2-1.4-4-2.6c-0.9-1.3-1.2-2.5-0.8-3.7
		c0.4-1.4,1.5-2.5,3.2-3.4c1.8-0.8,3.9-0.9,6.5-0.2c1,0.3,2.2,0.7,3.5,1.3l0.2-0.8c0.1-0.5,0-1-0.3-1.4c-0.3-0.4-1.1-0.8-2.4-1.1
		c-1-0.3-2.4-0.4-4.1-0.5c-0.6,0-1.1-0.1-1.4-0.2c-0.5-0.1-0.8-0.4-1-0.8c-0.2-0.4-0.3-0.9-0.1-1.4c0.1-0.3,0.2-0.5,0.4-0.7
		c0.2-0.2,0.4-0.3,0.6-0.4c0.2-0.1,0.7-0.1,1.4-0.1c0.9,0,1.8,0,2.7,0.1c0.9,0.1,1.7,0.2,2.4,0.4c2.1,0.6,3.6,1.5,4.5,2.7
		s1.2,2.6,0.7,4.2l-1.9,7l0.6,0.2c0.8,0.2,1.4,0.5,1.6,0.9c0.3,0.4,0.3,0.9,0.2,1.4c-0.1,0.5-0.4,0.9-0.8,1.1
		c-0.4,0.2-1.1,0.2-1.9,0L220,33.7L220,33.7z M221.7,27.6c-1.3-0.6-2.5-1.1-3.6-1.4c-1.4-0.4-2.6-0.4-3.8,0
		c-0.7,0.3-1.2,0.6-1.3,1.1c-0.1,0.3,0,0.6,0.2,0.9c0.5,0.5,1.2,0.9,2.1,1.2c0.8,0.2,1.8,0.3,2.9,0.3c1.1,0,2.1-0.2,3.1-0.6
		L221.7,27.6L221.7,27.6z"/>
	<path d="M270.5,35.3c0.3-0.1,0.7-0.2,0.9-0.2c0.3,0,0.6,0.1,0.8,0.2c0.4,0.3,0.7,0.6,0.8,1.1c0.1,0.5-0.1,1.1-0.5,1.8l-1.5,2.6
		c-0.4,0.7-0.9,1.2-1.3,1.3c-0.5,0.1-0.9,0.1-1.4-0.2c-0.4-0.2-0.7-0.5-0.8-0.9c-0.1-0.4,0-0.9,0.2-1.6c0.2-0.5,0.2-0.9,0.1-1.2
		c-0.1-0.7-0.5-1.4-1.1-2s-1.2-1.2-1.9-1.7c-0.9-0.5-1.9-0.8-2.8-0.9c-1,0-2,0.2-3.1,0.7c-1.1,0.5-2,1.4-2.7,2.6l-1.1,2
		c-0.9,1.5-1,3-0.5,4.6s1.7,2.9,3.6,4c1.1,0.7,2.2,1.1,3.1,1.2c0.6,0.1,1.2,0,2.1-0.2c0.5-0.1,0.9-0.2,1.1-0.2
		c0.2,0,0.5,0.1,0.7,0.2c0.4,0.2,0.7,0.6,0.8,1.1c0.1,0.5,0.1,0.9-0.2,1.3s-0.7,0.7-1.4,1c-1,0.3-2.1,0.4-3.3,0.3
		c-1.6-0.2-3.1-0.8-4.7-1.7c-1.8-1-3.2-2.4-4.2-3.9c-0.8-1.3-1.3-2.8-1.3-4.5c-0.1-1.8,0.3-3.4,1.2-4.9l1.2-2.1
		c0.9-1.6,2.1-2.8,3.7-3.8c1.5-0.9,3.2-1.4,4.9-1.4c1.7,0,3.3,0.5,4.8,1.3c0.9,0.5,1.6,1.1,2.3,1.7
		C269.6,33.8,270.1,34.5,270.5,35.3L270.5,35.3z"/>
	<path d="M285.9,59.8c-0.7,1.1-1.8,2-3.1,2.7c-1.3,0.7-2.8,0.9-4.4,0.7c-1.6-0.2-3.1-0.7-4.5-1.6c-1.3-0.9-2.4-2-3.2-3.4
		c-0.8-1.4-1.2-2.9-1.2-4.3s0.4-2.8,1.2-4c0.8-1.2,1.8-2.1,3.2-2.8c1.4-0.7,2.9-1,4.5-0.9c1.6,0.1,3.1,0.6,4.5,1.5
		c1.3,0.9,2.4,2,3.2,3.5c0.8,1.5,1.2,3,1.1,4.5C287.1,57.3,286.6,58.6,285.9,59.8L285.9,59.8z M282.9,57.9c0.6-0.9,0.8-2,0.7-3.3
		c-0.2-1.7-1.1-3-2.6-4c-1.3-0.9-2.7-1.2-4.2-0.9c-1.4,0.3-2.5,1-3.2,2.1c-0.6,0.9-0.7,2.1-0.3,3.4c0.4,1.4,1.2,2.5,2.5,3.3
		c1.3,0.9,2.7,1.2,4.1,1S282.3,58.9,282.9,57.9L282.9,57.9z"/>
	<path d="M305.9,55l-9.7,15.9l3.6,2.2c0.7,0.4,1.1,0.9,1.3,1.4c0.1,0.5,0.1,0.9-0.2,1.4c-0.3,0.4-0.6,0.7-1.1,0.8
		c-0.5,0.1-1.1-0.1-1.8-0.5l-10.2-6.2c-0.7-0.4-1.1-0.9-1.3-1.4c-0.1-0.5-0.1-0.9,0.2-1.4c0.3-0.4,0.6-0.7,1.1-0.8
		c0.5-0.1,1.1,0.1,1.8,0.5l3.6,2.2l7.9-12.9l-2.4-1.5c-0.7-0.4-1.1-0.9-1.3-1.3c-0.1-0.5-0.1-0.9,0.2-1.4c0.3-0.4,0.6-0.7,1.1-0.8
		c0.5-0.1,1.1,0.1,1.8,0.5L305.9,55L305.9,55z"/>
	<path d="M324.5,65.2l-8.3,16.7l3.8,1.9c0.8,0.4,1.2,0.8,1.4,1.2c0.2,0.5,0.1,0.9-0.1,1.4c-0.2,0.5-0.6,0.8-1,0.9
		c-0.5,0.1-1.1,0-1.8-0.4l-10.7-5.3c-0.8-0.4-1.2-0.8-1.4-1.2c-0.2-0.5-0.1-0.9,0.1-1.4c0.2-0.5,0.6-0.8,1-0.9
		c0.5-0.1,1.1,0,1.8,0.4l3.8,1.9l6.8-13.6l-2.5-1.3c-0.7-0.4-1.2-0.8-1.4-1.2c-0.2-0.5-0.2-0.9,0.1-1.4c0.2-0.5,0.6-0.8,1-0.9
		c0.5-0.1,1.1,0,1.8,0.4L324.5,65.2L324.5,65.2z"/>
	<path d="M345,91l-13.5-4.9c0,1,0.4,1.9,1.1,2.7s1.8,1.5,3.3,2.1c1.2,0.4,2.9,0.8,5.2,1c0.9,0.1,1.5,0.2,1.9,0.3
		c0.4,0.2,0.8,0.5,0.9,0.9c0.2,0.4,0.2,0.9,0,1.3c-0.2,0.4-0.4,0.7-0.9,0.9c-0.6,0.2-1.8,0.2-3.5,0c-1.8-0.2-3.5-0.6-5-1.2
		c-2.6-1-4.5-2.5-5.5-4.5c-1-2.1-1.2-4.2-0.4-6.4c0.8-2.3,2.4-3.9,4.6-4.7c2.2-0.8,4.5-0.8,6.7,0c1.3,0.5,2.5,1.2,3.4,2.1
		c0.9,0.9,1.6,1.7,1.9,2.4c0.5,1.1,0.8,2.3,0.8,3.6c0,0.9-0.1,1.9-0.5,3L345,91z M342.5,86.4c-0.2-1.1-0.6-2.1-1.2-2.8
		c-0.6-0.8-1.5-1.3-2.7-1.8c-1.1-0.4-2.2-0.5-3.1-0.4s-1.9,0.6-2.8,1.4L342.5,86.4L342.5,86.4z"/>
	<path d="M366,87.2c0.5-0.3,1-0.4,1.4-0.3c0.5,0.1,0.8,0.4,1.1,0.8c0.2,0.4,0.2,1,0.1,1.8l-0.5,2.2c-0.2,0.8-0.5,1.4-0.9,1.6
		c-0.4,0.3-0.9,0.3-1.4,0.2c-0.5-0.1-0.8-0.3-1.1-0.7c-0.2-0.3-0.3-0.7-0.3-1.4c0-0.6-0.2-1.2-0.6-1.6c-0.8-0.7-1.9-1.3-3.2-1.6
		c-1.6-0.4-3-0.2-4.2,0.5s-2,1.8-2.3,3.2c-0.3,1.3-0.1,2.5,0.6,3.5c0.7,1,2.2,1.8,4.4,2.3c1.4,0.3,2.6,0.5,3.6,0.4
		c0.6,0,1.2-0.2,1.7-0.5c0.6-0.3,1.1-0.4,1.5-0.3c0.5,0.1,0.8,0.4,1.1,0.8s0.3,0.9,0.2,1.3c-0.2,0.8-0.9,1.3-2.1,1.8
		c-1.8,0.6-4.1,0.6-7.1-0.1c-2.6-0.6-4.6-1.7-5.8-3.1c-1.6-2-2.1-4.2-1.5-6.8c0.6-2.4,1.9-4.2,3.9-5.4c2-1.2,4.3-1.5,6.9-0.9
		c0.9,0.2,1.8,0.5,2.6,0.9C364.7,86.2,365.4,86.7,366,87.2L366,87.2z"/>
	<path d="M381,92.6l-0.9,7c-0.1,0.7,0,1.3,0.3,1.5c0.4,0.4,1.3,0.7,2.5,0.9c1.8,0.2,3.5,0.1,5.1-0.5c0.6-0.2,1.1-0.3,1.4-0.3
		c0.5,0.1,0.8,0.3,1.1,0.7c0.3,0.4,0.4,0.8,0.3,1.3c-0.1,0.5-0.3,0.8-0.7,1.1c-0.6,0.5-1.8,0.8-3.5,1c-1.7,0.2-3.1,0.3-4.2,0.1
		c-2.2-0.3-3.7-0.9-4.7-2s-1.4-2.3-1.2-3.6l1-7.6l-1.3-0.2c-0.8-0.1-1.4-0.3-1.7-0.7c-0.3-0.4-0.4-0.8-0.4-1.3
		c0.1-0.5,0.3-0.9,0.7-1.2c0.4-0.3,1-0.4,1.9-0.3l1.3,0.2l0.4-3.1c0.1-0.8,0.3-1.4,0.7-1.7c0.4-0.3,0.8-0.4,1.3-0.4
		c0.5,0.1,0.9,0.3,1.2,0.7c0.3,0.4,0.4,1,0.3,1.8l-0.4,3.1l6.4,0.8c0.8,0.1,1.4,0.3,1.7,0.7c0.3,0.4,0.4,0.8,0.4,1.3
		c-0.1,0.5-0.3,0.9-0.7,1.2c-0.4,0.3-1,0.4-1.9,0.3L381,92.6L381,92.6z"/>
	<path d="M405.7,90.9l-0.3,12l4.2,0.1c0.8,0,1.4,0.2,1.8,0.5c0.4,0.3,0.5,0.8,0.5,1.3c0,0.5-0.2,0.9-0.6,1.2c-0.4,0.3-1,0.5-1.8,0.4
		l-11.9-0.3c-0.8,0-1.4-0.2-1.8-0.5c-0.4-0.3-0.5-0.8-0.5-1.3c0-0.5,0.2-0.9,0.6-1.2c0.4-0.3,1-0.5,1.8-0.4l4.2,0.1l0.2-8.5
		l-2.8-0.1c-0.8,0-1.4-0.2-1.8-0.5c-0.4-0.3-0.5-0.8-0.5-1.3c0-0.5,0.2-0.9,0.6-1.2c0.4-0.3,1-0.5,1.8-0.4L405.7,90.9L405.7,90.9z
		 M405.4,84.3l-0.1,3.7l-4.2-0.1l0.1-3.7L405.4,84.3z"/>
	<path d="M435.4,97.8c0.1,1.3-0.2,2.7-0.8,4c-0.7,1.3-1.7,2.4-3.1,3.2c-1.4,0.8-2.9,1.3-4.5,1.4c-1.6,0.1-3.1-0.2-4.6-0.8
		c-1.5-0.6-2.7-1.6-3.5-2.8c-0.8-1.2-1.3-2.5-1.4-3.9c-0.1-1.4,0.2-2.8,0.9-4.2c0.7-1.4,1.7-2.5,3.1-3.4c1.4-0.9,2.9-1.4,4.5-1.5
		c1.6-0.1,3.2,0.2,4.7,0.9c1.5,0.7,2.7,1.7,3.6,3S435.3,96.4,435.4,97.8L435.4,97.8z M431.9,98c-0.1-1.1-0.6-2.1-1.4-3
		c-1.2-1.2-2.7-1.7-4.5-1.6c-1.6,0.1-2.9,0.7-3.8,1.8c-1,1.1-1.4,2.3-1.3,3.6c0.1,1.1,0.7,2.1,1.8,2.9s2.5,1.3,4,1.2
		c1.6-0.1,2.9-0.7,3.9-1.7C431.6,100.2,432,99.1,431.9,98L431.9,98z"/>
	<path d="M444,88.5l0.2,1.2c0.5-0.6,1.2-1.1,1.9-1.5c0.7-0.4,1.5-0.6,2.4-0.8c2-0.3,3.8,0.1,5.2,1.2c1.1,0.9,1.8,2.1,2,3.8l1,6.4
		c0.7-0.1,1.3,0,1.7,0.2c0.4,0.3,0.6,0.7,0.7,1.2c0.1,0.5,0,0.9-0.3,1.3c-0.3,0.4-0.9,0.6-1.7,0.8l-3.1,0.5
		c-0.8,0.1-1.5,0.1-1.9-0.2c-0.4-0.3-0.6-0.7-0.7-1.2c-0.1-0.5,0-0.9,0.3-1.3c0.3-0.4,0.8-0.6,1.5-0.7l-1-6.5
		c-0.1-0.8-0.4-1.3-0.9-1.6c-0.6-0.4-1.4-0.5-2.5-0.3c-0.8,0.1-1.5,0.4-2,0.8c-0.6,0.4-1.2,1.2-2,2.3l1,6.4c0.9-0.1,1.5-0.1,1.8,0
		c0.6,0.3,1,0.7,1.1,1.4c0.1,0.5,0,0.9-0.3,1.3c-0.3,0.4-0.9,0.6-1.7,0.8l-3.9,0.6c-0.8,0.1-1.5,0.1-1.9-0.2
		c-0.4-0.3-0.6-0.7-0.7-1.2c-0.1-0.6,0.1-1.2,0.6-1.6c0.2-0.2,0.8-0.4,1.7-0.5l-1.3-8.4c-0.7,0.1-1.3,0-1.7-0.2
		c-0.4-0.3-0.6-0.7-0.7-1.2c-0.1-0.5,0-0.9,0.3-1.3s0.9-0.6,1.7-0.8L444,88.5L444,88.5z"/>
</g>
<g>
	<path d="M829.7,59.8L822.8,48c-0.6,0.4-1.2,0.5-1.7,0.4c-0.5-0.1-0.8-0.4-1.1-0.8c-0.3-0.5-0.3-0.9-0.2-1.4s0.6-0.9,1.3-1.3
		l6.4-3.7c1-0.6,2.1-0.9,3.2-1.1c1.2-0.2,2.2-0.2,3.1,0.1c0.7,0.2,1.5,0.5,2.4,1s1.7,1,2.3,1.6s1.3,1.4,1.9,2.5l0.8,1.4
		c0.7,1.3,1.2,2.5,1.3,3.8c0.1,1.2,0,2.4-0.3,3.4c-0.3,1-0.7,1.9-1.2,2.5c-0.7,1-1.9,2-3.4,2.9l-6.1,3.5c-0.7,0.4-1.3,0.6-1.8,0.5
		s-0.8-0.4-1.1-0.8c-0.3-0.4-0.3-0.9-0.2-1.4C828.7,60.6,829.1,60.2,829.7,59.8L829.7,59.8z M832.7,58.1l3.2-1.9
		c1.2-0.7,2-1.4,2.4-2.1c0.5-0.9,0.8-1.8,0.8-2.8c0-0.9-0.3-2-1-3.1l-0.8-1.4c-0.6-1-1.2-1.7-2-2.2c-1.2-0.8-2.3-1.2-3.3-1.2
		c-1,0-2,0.3-3,0.9l-3.2,1.9L832.7,58.1L832.7,58.1z"/>
	<path d="M860.1,47.5l-0.4-0.7c-0.6,0.8-1.3,1.5-2.2,2.2c-0.9,0.7-1.7,1.2-2.5,1.6c-1.7,0.8-3.3,1-4.8,0.6c-1.5-0.4-2.5-1.1-3-2.2
		c-0.6-1.3-0.6-2.9,0.3-4.7c0.8-1.8,2.4-3.2,4.8-4.4c1-0.5,2.1-0.9,3.5-1.3l-0.4-0.8c-0.2-0.5-0.6-0.8-1.2-0.9
		c-0.5-0.1-1.4,0.1-2.5,0.7c-0.9,0.4-2.1,1.2-3.4,2.3c-0.5,0.4-0.9,0.7-1.2,0.8c-0.4,0.2-0.9,0.2-1.3,0.1c-0.4-0.2-0.8-0.5-1-1
		c-0.1-0.3-0.2-0.5-0.2-0.8c0-0.2,0.1-0.5,0.2-0.7c0.1-0.2,0.4-0.5,1-1c0.7-0.6,1.4-1.1,2.1-1.7c0.7-0.5,1.5-0.9,2.1-1.3
		c2-0.9,3.7-1.3,5.2-0.9c1.5,0.3,2.6,1.2,3.3,2.7l3.1,6.5l0.5-0.3c0.8-0.4,1.4-0.5,1.8-0.3c0.5,0.1,0.8,0.4,1,0.9
		c0.2,0.5,0.2,0.9,0.1,1.4c-0.2,0.4-0.7,0.9-1.4,1.2L860.1,47.5L860.1,47.5z M857.4,41.8c-1.4,0.4-2.6,0.8-3.7,1.3
		c-1.3,0.6-2.2,1.5-2.9,2.5c-0.4,0.7-0.5,1.2-0.3,1.6c0.1,0.3,0.4,0.5,0.8,0.5c0.7,0.1,1.5-0.1,2.4-0.5c0.8-0.4,1.5-0.9,2.4-1.7
		c0.8-0.8,1.5-1.6,2-2.4L857.4,41.8L857.4,41.8z"/>
	<path d="M871.9,29.5l2.5,6.6c0.3,0.7,0.6,1.1,1,1.2c0.6,0.2,1.4,0.1,2.6-0.4c1.7-0.6,3.1-1.6,4.2-2.8c0.4-0.5,0.8-0.8,1.1-0.9
		c0.4-0.2,0.9-0.1,1.3,0.1s0.7,0.5,0.9,1c0.2,0.4,0.1,0.9-0.1,1.3c-0.3,0.7-1.2,1.5-2.6,2.5c-1.4,1-2.6,1.7-3.7,2.1
		c-2,0.8-3.7,0.9-5.1,0.4c-1.3-0.5-2.3-1.4-2.7-2.7l-2.7-7.2l-1.2,0.4c-0.8,0.3-1.4,0.4-1.9,0.2c-0.5-0.2-0.8-0.5-1-1
		c-0.2-0.5-0.2-0.9,0.1-1.4c0.2-0.4,0.7-0.8,1.5-1.1l1.2-0.4l-1.1-3c-0.3-0.8-0.4-1.4-0.2-1.9c0.2-0.5,0.5-0.8,1-1
		c0.5-0.2,0.9-0.2,1.4,0.1c0.4,0.2,0.8,0.7,1.1,1.5l1.1,3l6.1-2.3c0.8-0.3,1.4-0.4,1.9-0.2s0.8,0.5,1,1c0.2,0.5,0.2,0.9-0.1,1.4
		c-0.2,0.4-0.7,0.8-1.5,1.1L871.9,29.5L871.9,29.5z"/>
	<path d="M900.3,33.2l-0.2-0.8c-0.7,0.7-1.6,1.3-2.5,1.7c-1,0.5-1.9,0.8-2.7,1.1c-1.8,0.5-3.4,0.4-4.8-0.3c-1.4-0.7-2.2-1.6-2.5-2.8
		c-0.4-1.4,0-2.9,1.1-4.5s3-2.7,5.5-3.4c1-0.3,2.2-0.5,3.6-0.6l-0.2-0.8c-0.1-0.5-0.5-0.9-1-1.1c-0.5-0.2-1.4-0.2-2.6,0.2
		c-1,0.3-2.3,0.8-3.7,1.6c-0.6,0.3-1,0.5-1.3,0.6c-0.5,0.1-0.9,0.1-1.3-0.2c-0.4-0.2-0.7-0.6-0.8-1.1c-0.1-0.3-0.1-0.5,0-0.8
		c0.1-0.2,0.2-0.4,0.3-0.6c0.2-0.2,0.5-0.4,1.1-0.8c0.8-0.4,1.6-0.9,2.4-1.2c0.8-0.4,1.6-0.6,2.3-0.8c2.1-0.5,3.9-0.5,5.3,0.1
		s2.3,1.7,2.7,3.3l1.8,7l0.6-0.2c0.8-0.2,1.4-0.2,1.9,0c0.4,0.2,0.7,0.6,0.8,1.1c0.1,0.5,0.1,0.9-0.2,1.4c-0.3,0.4-0.8,0.7-1.6,0.9
		L900.3,33.2L900.3,33.2z M898.8,27.1c-1.4,0.1-2.7,0.3-3.9,0.6c-1.4,0.4-2.5,1-3.3,1.9c-0.5,0.6-0.7,1.1-0.6,1.5
		c0.1,0.3,0.3,0.5,0.6,0.7c0.6,0.2,1.4,0.2,2.4,0c0.8-0.2,1.7-0.6,2.6-1.2s1.8-1.3,2.4-2L898.8,27.1L898.8,27.1z"/>
	<path d="M944.7,8.5c0.2-0.3,0.5-0.5,0.7-0.7c0.3-0.1,0.5-0.2,0.8-0.2c0.5,0,0.9,0.2,1.3,0.5c0.3,0.4,0.5,0.9,0.5,1.8l0,3
		c0,0.8-0.2,1.4-0.5,1.8s-0.7,0.5-1.3,0.5c-0.5,0-0.8-0.1-1.1-0.4s-0.5-0.8-0.6-1.5c-0.1-0.5-0.2-0.8-0.5-1.1
		c-0.5-0.5-1.1-0.9-2-1.2c-0.8-0.3-1.7-0.5-2.5-0.5c-1,0-2,0.2-2.9,0.7c-0.9,0.5-1.6,1.2-2.3,2.2s-1,2.2-1,3.7l0,2.3
		c0,1.7,0.6,3.1,1.9,4.2c1.2,1.1,2.9,1.7,5.1,1.7c1.3,0,2.4-0.2,3.3-0.5c0.5-0.2,1.1-0.6,1.7-1.2c0.4-0.4,0.6-0.6,0.9-0.7
		c0.2-0.1,0.4-0.2,0.7-0.2c0.5,0,0.9,0.2,1.2,0.5c0.4,0.4,0.5,0.8,0.5,1.2s-0.2,1-0.7,1.5c-0.7,0.8-1.6,1.4-2.7,1.9
		c-1.5,0.6-3.1,0.9-4.9,0.9c-2.1,0-3.9-0.4-5.6-1.3c-1.3-0.7-2.5-1.8-3.4-3.2c-1-1.5-1.4-3.1-1.4-4.8l0-2.4c0-1.8,0.4-3.5,1.3-5.1
		c0.8-1.6,2-2.8,3.5-3.7c1.5-0.9,3.1-1.3,4.8-1.3c1,0,2,0.1,2.8,0.3S944,8,944.7,8.5L944.7,8.5z"/>
	<path d="M970.4,23.4c-0.2,1.3-0.7,2.6-1.6,3.7c-0.9,1.2-2.1,2-3.7,2.6c-1.6,0.6-3.1,0.7-4.7,0.5c-1.6-0.2-3.1-0.8-4.4-1.7
		s-2.3-2-2.9-3.4s-0.8-2.7-0.6-4.1c0.2-1.4,0.7-2.7,1.7-3.9c0.9-1.2,2.2-2.2,3.7-2.7c1.5-0.6,3.1-0.8,4.7-0.6
		c1.6,0.2,3.1,0.8,4.4,1.8c1.4,1,2.3,2.2,2.9,3.6C970.4,20.6,970.6,22,970.4,23.4L970.4,23.4z M966.9,23c0.1-1.1-0.1-2.2-0.8-3.2
		c-0.9-1.4-2.3-2.2-4.1-2.4c-1.6-0.2-2.9,0.1-4.1,1s-1.9,2-2,3.3c-0.1,1.1,0.3,2.2,1.2,3.2c0.9,1.1,2.2,1.7,3.7,1.9
		c1.6,0.2,2.9-0.1,4.1-0.9C966.1,25.1,966.8,24.1,966.9,23L966.9,23z"/>
	<path d="M989,13.3l-5.2,17.9l4,1.2c0.8,0.2,1.3,0.6,1.6,1c0.3,0.4,0.3,0.9,0.2,1.4c-0.1,0.5-0.4,0.8-0.9,1.1
		c-0.4,0.2-1.1,0.2-1.9,0l-11.4-3.3c-0.8-0.2-1.3-0.6-1.6-1s-0.3-0.9-0.2-1.4c0.1-0.5,0.4-0.8,0.9-1.1c0.4-0.2,1.1-0.2,1.9,0l4,1.2
		l4.2-14.6l-2.7-0.8c-0.8-0.2-1.3-0.6-1.6-1c-0.3-0.4-0.3-0.9-0.2-1.4c0.1-0.5,0.4-0.8,0.9-1.1c0.4-0.2,1.1-0.2,1.9,0L989,13.3
		L989,13.3z"/>
	<path d="M1011.7,22.1l-7.8,16.9l3.8,1.8c0.8,0.4,1.2,0.8,1.4,1.2c0.2,0.4,0.2,0.9,0,1.4c-0.2,0.5-0.6,0.8-1,0.9s-1.1,0-1.8-0.3
		l-10.8-5c-0.8-0.4-1.2-0.8-1.4-1.2c-0.2-0.4-0.2-0.9,0-1.4c0.2-0.5,0.6-0.8,1-0.9s1.1,0,1.8,0.3l3.8,1.8l6.3-13.8l-2.6-1.2
		c-0.8-0.3-1.2-0.7-1.4-1.2c-0.2-0.4-0.2-0.9,0-1.4c0.2-0.5,0.6-0.8,1-0.9s1.1,0,1.8,0.3L1011.7,22.1L1011.7,22.1z"/>
	<path d="M1030.2,50.9l-12.3-7.4c-0.2,1,0,1.9,0.5,2.9c0.5,1,1.4,1.8,2.8,2.7c1.1,0.7,2.7,1.3,4.9,1.9c0.9,0.3,1.5,0.5,1.8,0.7
		c0.4,0.2,0.7,0.6,0.8,1c0.1,0.4,0,0.9-0.2,1.3c-0.2,0.4-0.6,0.6-1,0.7c-0.6,0.1-1.8-0.1-3.5-0.7c-1.7-0.6-3.3-1.3-4.7-2.1
		c-2.4-1.4-3.9-3.3-4.6-5.5c-0.6-2.2-0.4-4.3,0.8-6.3c1.3-2.1,3.1-3.4,5.4-3.8c2.4-0.4,4.5,0,6.6,1.2c1.2,0.7,2.2,1.6,3,2.7
		s1.2,2,1.4,2.8c0.3,1.1,0.3,2.4,0.1,3.7c-0.1,0.9-0.5,1.9-1.1,2.9L1030.2,50.9L1030.2,50.9z M1028.7,45.9c0.1-1.1-0.2-2.1-0.6-3
		c-0.5-0.9-1.2-1.6-2.3-2.2c-1-0.6-2-0.9-3-0.9c-1,0-2,0.3-3,0.8L1028.7,45.9z"/>
	<path d="M1050.7,53.6c0.6-0.1,1,0,1.4,0.2c0.4,0.3,0.7,0.6,0.7,1.1c0.1,0.5-0.1,1.1-0.6,1.8l-1.2,1.9c-0.5,0.7-0.9,1.1-1.4,1.2
		s-0.9,0-1.4-0.2c-0.4-0.3-0.7-0.6-0.8-1c-0.1-0.3,0-0.8,0.2-1.4s0.2-1.2-0.1-1.7c-0.5-1-1.3-1.8-2.5-2.6c-1.4-0.9-2.8-1.2-4.1-0.9
		s-2.4,1-3.3,2.3c-0.7,1.1-0.9,2.3-0.6,3.5s1.5,2.4,3.4,3.6c1.2,0.8,2.3,1.3,3.2,1.6c0.6,0.1,1.2,0.2,1.8,0.1c0.6-0.1,1.1,0,1.5,0.2
		c0.4,0.3,0.7,0.6,0.8,1.1c0.1,0.5,0,0.9-0.2,1.3c-0.4,0.7-1.3,1-2.5,1c-1.9,0-4.1-0.8-6.6-2.5c-2.3-1.5-3.8-3.1-4.4-4.9
		c-0.9-2.4-0.6-4.7,0.8-6.9c1.4-2.1,3.2-3.4,5.5-3.8s4.6,0,6.8,1.5c0.8,0.5,1.5,1.1,2.1,1.7S1050.3,52.9,1050.7,53.6L1050.7,53.6z"
		/>
	<path d="M1062.3,64.3l-3.6,6c-0.4,0.6-0.5,1.1-0.4,1.5c0.2,0.6,0.9,1.2,1.9,1.8c1.5,0.9,3.1,1.4,4.8,1.6c0.7,0,1.1,0.2,1.4,0.3
		c0.4,0.2,0.6,0.6,0.8,1c0.1,0.5,0,0.9-0.2,1.3c-0.2,0.4-0.6,0.6-1.1,0.7c-0.8,0.2-2,0-3.6-0.4s-2.9-1-3.9-1.6
		c-1.9-1.1-3-2.4-3.5-3.7c-0.5-1.4-0.3-2.6,0.4-3.8l4-6.6l-1.1-0.6c-0.7-0.4-1.2-0.9-1.3-1.3c-0.1-0.5-0.1-0.9,0.2-1.4
		c0.3-0.4,0.6-0.7,1.1-0.8s1.1,0.1,1.8,0.5l1.1,0.6l1.6-2.7c0.4-0.7,0.9-1.2,1.3-1.3c0.5-0.1,0.9-0.1,1.4,0.2
		c0.4,0.3,0.7,0.6,0.8,1.1c0.1,0.5-0.1,1.1-0.5,1.8l-1.6,2.7l5.6,3.3c0.7,0.4,1.2,0.9,1.3,1.3c0.1,0.5,0.1,0.9-0.2,1.4
		c-0.3,0.4-0.6,0.7-1.1,0.8c-0.5,0.1-1.1-0.1-1.8-0.5L1062.3,64.3L1062.3,64.3z"/>
	<path d="M1085.5,72.9l-5.2,10.8l3.8,1.8c0.8,0.4,1.2,0.8,1.4,1.2s0.2,0.9-0.1,1.4c-0.2,0.5-0.6,0.8-1,0.9c-0.5,0.1-1.1,0-1.8-0.3
		l-10.7-5.2c-0.8-0.4-1.2-0.8-1.4-1.2s-0.2-0.9,0.1-1.4c0.2-0.5,0.6-0.8,1-0.9c0.5-0.1,1.1,0,1.8,0.3l3.8,1.8l3.7-7.7l-2.5-1.2
		c-0.8-0.4-1.2-0.8-1.4-1.2s-0.2-0.9,0.1-1.4c0.2-0.5,0.6-0.8,1-0.9c0.5-0.1,1.1,0,1.8,0.3C1079.8,70.1,1085.5,72.9,1085.5,72.9z
		 M1088,66.7l-1.6,3.3l-3.8-1.8l1.6-3.3L1088,66.7z"/>
	<path d="M1110,91c-0.4,1.3-1.2,2.4-2.3,3.3c-1.1,0.9-2.5,1.5-4.1,1.7c-1.6,0.2-3.2,0.1-4.7-0.5c-1.5-0.5-2.8-1.4-4-2.5
		c-1.1-1.2-1.9-2.5-2.2-3.9c-0.3-1.4-0.2-2.8,0.2-4.1c0.5-1.3,1.3-2.5,2.5-3.5s2.6-1.7,4.2-1.9s3.2-0.1,4.7,0.4
		c1.5,0.5,2.8,1.4,4,2.6s1.8,2.6,2.1,4.1C1110.6,88.3,1110.5,89.7,1110,91z M1106.7,89.9c0.4-1.1,0.3-2.2-0.1-3.3
		c-0.6-1.6-1.8-2.6-3.5-3.2c-1.5-0.5-2.9-0.5-4.2,0.1s-2.2,1.5-2.7,2.8c-0.4,1-0.2,2.2,0.5,3.4c0.7,1.3,1.8,2.1,3.3,2.6
		c1.5,0.5,2.9,0.5,4.2,0S1106.4,90.9,1106.7,89.9z"/>
	<path d="M1121.6,85.6l-0.3,1.2c0.7-0.4,1.5-0.6,2.3-0.7c0.8-0.1,1.7,0,2.5,0.2c2,0.5,3.5,1.4,4.4,3c0.7,1.2,0.9,2.6,0.5,4.3
		l-1.4,6.4c0.7,0.2,1.2,0.4,1.5,0.8c0.3,0.4,0.4,0.8,0.2,1.4c-0.1,0.5-0.4,0.9-0.8,1.1s-1,0.3-1.9,0.1l-3.1-0.7
		c-0.8-0.2-1.4-0.5-1.7-0.9c-0.3-0.4-0.4-0.8-0.2-1.4c0.1-0.5,0.4-0.9,0.8-1.1c0.4-0.2,1-0.3,1.7-0.1l1.5-6.5
		c0.2-0.7,0.1-1.3-0.2-1.8c-0.4-0.6-1.2-1-2.2-1.2c-0.8-0.2-1.5-0.2-2.2,0c-0.7,0.2-1.6,0.6-2.7,1.4l-1.4,6.4
		c0.9,0.2,1.4,0.4,1.6,0.6c0.5,0.5,0.6,1,0.5,1.7c-0.1,0.5-0.4,0.9-0.8,1.1c-0.4,0.2-1,0.3-1.9,0.1l-3.9-0.9
		c-0.8-0.2-1.4-0.5-1.7-0.9s-0.4-0.8-0.2-1.4c0.1-0.6,0.5-1,1.1-1.3c0.3-0.1,0.9-0.1,1.8,0.1l1.9-8.3c-0.7-0.2-1.2-0.4-1.5-0.8
		c-0.3-0.4-0.4-0.9-0.2-1.4c0.1-0.5,0.4-0.9,0.8-1.1s1-0.3,1.9-0.1L1121.6,85.6L1121.6,85.6z"/>
</g>
</svg>
