<?xml version="1.0" encoding="UTF-8"?><svg id="Layer_1" xmlns="http://www.w3.org/2000/svg" width="294" height="120.2605" viewBox="0 0 294 120.2605"><defs><style>.cls-1{fill:none;stroke:#000;stroke-linecap:round;stroke-linejoin:round;stroke-width:5px;}</style></defs><g><path class="cls-1" d="M163.5458,55.4461c-4.6666-3-9.3334-6-14-9l-27.9231,.1538v18.8462h-9.0769l9.0769,50.5993h82.9231V55.2997c-13.6666,.0488-27.3334,.0976-41,.1464Z"/><polyline class="cls-1" points="204.6227 116.0454 195.5458 65.4461 121.6227 65.4461"/></g><g><path d="M72.4316,74.4988l-4.9834-3.7979c-.209,.2661-.4219,.4185-.6377,.4565-.2158,.0386-.417-.0132-.6035-.1553-.1904-.1455-.2949-.3281-.3135-.5488-.0186-.2202,.0889-.4839,.3223-.7905l2.0381-2.6606c.3154-.4141,.7002-.7607,1.1553-1.0396s.8916-.4482,1.3105-.5088c.3174-.0464,.7061-.0498,1.167-.0098s.8818,.127,1.2646,.2612c.3818,.1343,.7949,.3701,1.2383,.708l.6084,.4644c.5391,.4102,.9463,.8652,1.2246,1.3647,.2773,.4995,.4346,.9976,.4717,1.4941,.0371,.4971,.0186,.9229-.0557,1.2788-.1211,.5625-.4326,1.1733-.9346,1.832l-1.9512,2.5601c-.2334,.3062-.459,.48-.6768,.5205s-.4219-.0122-.6123-.1572c-.1865-.1421-.29-.3242-.3105-.5464-.0205-.2217,.0723-.4639,.2783-.7256Zm.9707-1.2739l1.0322-1.3545c.3857-.5054,.6035-.9419,.6543-1.3091,.0654-.481,.0156-.918-.1494-1.3125-.165-.3936-.4814-.769-.9492-1.126l-.6025-.459c-.4023-.3066-.8125-.498-1.2314-.5752-.6553-.1196-1.1855-.0967-1.5908,.0698-.4053,.166-.7793,.4746-1.123,.9263l-1.0234,1.3423,4.9834,3.7979Z"/><path d="M82.5137,61.8948l-.333-.1724c.0059,.4541-.0557,.9209-.1836,1.4004-.1279,.479-.2832,.8945-.4648,1.2461-.3945,.7632-.918,1.2783-1.5693,1.5449-.6514,.2671-1.2217,.2734-1.7129,.02-.5967-.3091-.9932-.8999-1.1895-1.7725-.1963-.873-.0166-1.8457,.5391-2.9189,.2227-.4302,.5264-.9033,.9111-1.4199l-.3398-.1758c-.2129-.1104-.4336-.1089-.6621,.0044-.2295,.1133-.4766,.4268-.7422,.9399-.2178,.4214-.417,1.0103-.5977,1.7671-.0693,.2808-.1396,.4907-.2119,.6294-.0977,.1895-.249,.3149-.4541,.376-.2041,.0615-.4131,.0371-.626-.0732-.1201-.062-.2119-.1392-.2764-.231-.0635-.0918-.1006-.1929-.1113-.3037-.0098-.1108,.0166-.3174,.0791-.6191,.085-.4019,.1924-.8003,.3242-1.1958,.1309-.395,.2734-.7407,.4268-1.0371,.457-.8833,1.0029-1.4702,1.6367-1.7607,.6348-.2905,1.2822-.2646,1.9443,.0776l2.9277,1.5156,.125-.2427c.1777-.3423,.3701-.5522,.5771-.6299,.207-.0771,.417-.061,.6299,.0493,.208,.1074,.3408,.2686,.3965,.4824,.0566,.2139-.0039,.4922-.1807,.834l-.8623,1.6655Zm-2.5459-1.3184c-.4053,.5117-.7324,1.0078-.9814,1.4888-.2998,.5786-.416,1.1489-.3496,1.7109,.0469,.3525,.1621,.5767,.3477,.6724,.1338,.0693,.2744,.063,.4229-.0186,.2725-.1523,.5127-.4297,.7207-.832,.1777-.3423,.3105-.7642,.4004-1.2661s.1064-.9814,.0498-1.439l-.6104-.3164Z"/><path d="M80.8682,51.6926l3.0117,1.1138c.3223,.1191,.5596,.1318,.7109,.0376,.2373-.1455,.4531-.4819,.6484-1.0098,.2832-.7666,.3818-1.5356,.2949-2.3062-.0352-.2964-.0264-.5151,.0254-.6567,.0723-.1953,.209-.3379,.4082-.4282,.2002-.0898,.4053-.0957,.6152-.0181,.1953,.0723,.335,.2129,.4189,.4214,.1416,.3242,.1777,.875,.1094,1.6523s-.1914,1.4077-.3701,1.8911c-.3457,.9331-.8057,1.5586-1.3809,1.876-.5762,.3174-1.1562,.3677-1.7432,.1509l-3.3047-1.2222-.2002,.5425c-.1338,.3613-.2988,.5933-.4951,.6958-.1953,.1021-.4062,.1118-.6309,.0288-.2197-.0815-.3711-.2246-.4531-.4302-.082-.2051-.0566-.4888,.0771-.8501l.2002-.5425-1.3555-.501c-.3613-.1338-.5938-.2988-.6953-.4946-.1025-.1963-.1123-.4067-.0293-.6313,.0811-.2197,.2246-.3711,.4297-.4531,.2051-.0825,.4893-.0566,.8506,.0767l1.3555,.5015,1.0273-2.7769c.1338-.3618,.2979-.5938,.4941-.6958,.1963-.1025,.4072-.1123,.6318-.0293,.2197,.0815,.3701,.2246,.4531,.4302,.082,.2051,.0566,.4888-.0771,.8501l-1.0273,2.7773Z"/><path d="M90.0459,42.4533l-.3516-.1323c.0586,.4507,.0527,.9214-.0176,1.4121-.0713,.4912-.1758,.9219-.3154,1.292-.3027,.8047-.7617,1.3774-1.377,1.7188-.6162,.3418-1.1816,.415-1.6982,.2207-.6289-.2368-1.0928-.7769-1.3896-1.6206s-.2334-1.8311,.1924-2.9619c.1709-.4531,.417-.959,.7383-1.5171l-.3584-.1348c-.2246-.0845-.4434-.0566-.6572,.0825s-.4229,.4795-.626,1.0205c-.167,.4434-.2959,1.0518-.3867,1.8247-.0352,.2871-.0811,.5034-.1357,.6499-.0752,.1997-.2109,.3423-.4072,.4268-.1963,.085-.4062,.085-.6309,.001-.126-.0479-.2266-.1138-.3008-.1973s-.123-.1797-.1465-.2886c-.0225-.1089-.0205-.3169,.0059-.624,.0371-.4092,.0977-.8174,.1816-1.2256,.084-.4077,.1846-.7681,.3018-1.0801,.3506-.9307,.8232-1.5776,1.4189-1.9409,.5957-.3628,1.2422-.4131,1.9395-.1504l3.0859,1.1611,.0957-.2559c.1357-.3604,.3027-.5918,.499-.6929,.1973-.1011,.4072-.1094,.6318-.0254,.2188,.0825,.3691,.2271,.4502,.4326,.0811,.2061,.0537,.4893-.082,.8501l-.6602,1.7549Zm-2.6836-1.0103c-.3428,.5557-.6094,1.0869-.7998,1.5938-.2295,.6094-.2783,1.189-.1465,1.7397,.0879,.3447,.2285,.5537,.4238,.627,.1416,.0532,.2803,.0303,.418-.0679,.2529-.1831,.459-.4868,.6182-.9111,.1357-.3608,.2188-.7954,.249-1.3047,.0303-.5088-.0098-.9868-.1191-1.4346l-.6436-.2422Z"/><path d="M95.957,21.0364c.002-.2651,.0742-.4707,.2148-.6172,.1592-.165,.3496-.2441,.5703-.2368,.2207,.0068,.4688,.1426,.7422,.4062l.7422,.7158c.2773,.2676,.4229,.5107,.4365,.7295,.0127,.2188-.0635,.4146-.2295,.5869-.1523,.1577-.3252,.2476-.5205,.2695-.1436,.0137-.3408-.0576-.5918-.2129-.252-.1558-.5117-.1963-.7793-.1211-.4727,.1299-.9365,.4312-1.3916,.9038-.5244,.5435-.7852,1.1333-.7832,1.7686,.0029,.6353,.248,1.188,.7354,1.6577,.4492,.4341,.957,.6191,1.5215,.5552,.5635-.0635,1.1982-.4609,1.9033-1.1924,.4629-.48,.792-.9185,.9873-1.3164,.1133-.2378,.1758-.5068,.1865-.8071s.0801-.5161,.2061-.6475c.1523-.1577,.3418-.2373,.5674-.2397,.2266-.0024,.4189,.0723,.5762,.2241,.2549,.2461,.3291,.6533,.2217,1.2227-.1582,.8462-.7178,1.7686-1.6787,2.7656-.8643,.8965-1.7227,1.4146-2.5742,1.5557-1.1494,.1938-2.1572-.1265-3.0234-.9614-.8213-.7915-1.2363-1.7207-1.2471-2.7866-.0098-1.0664,.4092-2.04,1.2588-2.9214,.3076-.3184,.623-.5859,.9473-.8018,.3232-.2158,.6572-.3818,1.002-.499Z"/><path d="M108.0078,16.4231c.3379,.5132,.5225,1.104,.5537,1.7725,.0322,.6685-.1406,1.3306-.5166,1.9858-.376,.6558-.8701,1.1855-1.4834,1.5894-.6094,.4009-1.2852,.644-2.0264,.73s-1.417-.0166-2.0264-.3076c-.6094-.2915-1.0869-.7002-1.4336-1.2266-.3525-.5352-.5498-1.1577-.5938-1.8682-.043-.71,.1152-1.3955,.4756-2.0566,.3594-.6606,.8418-1.1904,1.4473-1.5884,.6084-.4009,1.2949-.6353,2.0566-.7036,.7627-.0684,1.4561,.0586,2.0791,.3804,.624,.3228,1.1133,.7534,1.4678,1.293Zm-1.333,.8867c-.2842-.4307-.6982-.7246-1.2451-.8828-.7432-.2095-1.458-.0879-2.1455,.3643-.6045,.3979-.9814,.9238-1.1318,1.5771-.1494,.6538-.0566,1.2349,.2783,1.7437,.2744,.418,.7363,.6738,1.3838,.7681,.6484,.0942,1.2705-.0552,1.8662-.4473,.6006-.395,.9854-.9087,1.1553-1.5415,.1699-.6323,.1162-1.1592-.1611-1.5815Z"/><path d="M111.7588,7.4636l3.2119,7.9033,1.7812-.7236c.3564-.145,.6387-.1797,.8467-.104s.3574,.2246,.4473,.4463c.0889,.2173,.085,.4258-.0117,.625-.0957,.1992-.3223,.3716-.6797,.5166l-5.0449,2.0503c-.3564,.145-.6387,.1797-.8467,.104s-.3574-.2246-.4473-.4468c-.0889-.2173-.085-.4253,.0117-.6245,.0957-.1992,.3223-.3716,.6797-.5166l1.7803-.7236-2.6094-6.4199-1.1943,.4854c-.3516,.1436-.6328,.1777-.8438,.1025-.21-.0747-.3604-.2227-.4502-.4448-.0879-.2173-.084-.4253,.0117-.6245s.3223-.3716,.6797-.5166l2.6777-1.0884Z"/><path d="M122.5928,4.2698l1.8271,8.333,1.8779-.4116c.376-.0825,.6602-.0688,.8525,.041s.3135,.2817,.3652,.5156c.0498,.229,.0107,.4336-.1172,.6138-.1289,.1802-.3809,.3115-.7578,.394l-5.3184,1.1665c-.377,.0825-.6611,.0688-.8535-.041-.1914-.1099-.3135-.2817-.3643-.5156-.0508-.229-.0117-.4336,.1172-.6138,.1279-.1802,.3809-.3115,.7568-.394l1.8779-.4116-1.4854-6.7686-1.2588,.2759c-.3711,.0815-.6543,.0679-.8486-.0415-.1953-.1094-.3184-.2812-.3691-.5151-.0508-.229-.0117-.4336,.1172-.6138,.1289-.1797,.3809-.311,.7578-.394l2.8232-.6191Z"/><path d="M137.3506,9.9221l-6.5508,.5015c.1973,.4028,.5176,.7148,.9609,.937,.4424,.2222,1.0244,.3057,1.7461,.2505,.5928-.0454,1.3691-.2329,2.332-.5625,.3965-.1348,.6729-.2085,.8291-.2202,.2129-.0161,.3975,.0454,.5547,.1846,.1572,.1396,.2441,.3237,.2617,.5522,.0156,.2075-.0488,.3901-.1934,.5474-.1934,.208-.6855,.4302-1.4766,.6655-.792,.2354-1.5596,.3818-2.3018,.4385-1.2773,.0981-2.3271-.1846-3.1484-.8481-.8213-.6631-1.2715-1.5215-1.3525-2.5762-.0859-1.1216,.2588-2.0659,1.0332-2.833s1.7012-1.1919,2.7812-1.2744c.6494-.0498,1.2539,.019,1.8145,.2056,.5596,.187,.9824,.4028,1.2676,.6475,.4033,.356,.749,.8071,1.0361,1.3545,.1963,.3823,.3145,.833,.3545,1.3521l.0518,.6777Zm-1.8906-1.4614c-.2793-.4385-.624-.7554-1.0361-.9512s-.8906-.2729-1.4365-.231c-.54,.0415-.998,.1899-1.376,.4463-.377,.2559-.6729,.6221-.8877,1.0981l4.7363-.3623Z"/><path d="M146.0322,6.0647c.1992-.1753,.4004-.2598,.6025-.2524,.2295,.0083,.415,.0967,.5576,.2661,.1426,.1689,.207,.4438,.1934,.8237l-.0361,1.0308c-.0137,.3853-.0977,.6558-.252,.8115-.1533,.1562-.3506,.23-.5898,.2217-.2188-.0078-.4014-.0767-.5479-.207-.1055-.0977-.1846-.292-.2373-.583-.0518-.291-.1953-.5112-.4297-.6602-.4131-.2646-.9473-.4087-1.6025-.4321-.7549-.0269-1.3682,.1733-1.8389,.5996-.4717,.4263-.7188,.9775-.7432,1.6543-.0215,.6245,.1787,1.1255,.6035,1.5029,.4248,.377,1.1445,.5835,2.1592,.6196,.666,.0234,1.2129-.0249,1.6387-.145,.2529-.0747,.4951-.208,.7256-.4004,.2314-.1924,.4375-.2856,.6201-.2793,.2188,.0078,.4043,.0952,.5576,.2622,.1523,.167,.2256,.3599,.2178,.5786-.0127,.354-.2666,.6812-.7617,.9814-.7354,.4478-1.7949,.6475-3.1797,.5986-1.2441-.0439-2.2031-.3359-2.877-.876-.9121-.7251-1.3477-1.6895-1.3047-2.8916,.04-1.1401,.4531-2.0698,1.2402-2.79,.7861-.7197,1.791-1.0581,3.0146-1.0151,.4424,.0156,.8516,.0723,1.2285,.1689s.7236,.2339,1.041,.4121Z"/><path d="M153.3516,8.0779l-.3994,3.186c-.043,.3413-.002,.5747,.124,.7007,.1963,.1978,.5732,.3315,1.1309,.4019,.8115,.1016,1.583,.0225,2.3135-.2373,.2803-.1011,.4951-.1426,.6455-.1235,.2061,.0259,.376,.126,.5098,.2998,.1328,.1743,.1855,.3726,.1572,.5947-.0264,.2065-.1309,.3745-.3154,.5039-.2832,.2109-.8115,.3716-1.584,.4819s-1.4141,.1338-1.9258,.0693c-.9873-.1235-1.7002-.4297-2.1406-.918s-.6211-1.0425-.543-1.6626l.4385-3.4961-.5732-.0723c-.3828-.0479-.6465-.1558-.79-.3232-.1445-.168-.2021-.3706-.1719-.6084,.0293-.2324,.1338-.4121,.3154-.5391s.4629-.166,.8457-.1182l.5732,.0718,.1797-1.4341c.0488-.3823,.1562-.6455,.3242-.79,.168-.144,.3701-.2012,.6084-.1714,.2324,.0288,.4121,.1343,.5391,.3154,.126,.1812,.166,.4634,.1182,.8457l-.1807,1.4341,2.9385,.3687c.3818,.0479,.6455,.1558,.79,.3237,.1445,.1675,.2012,.3701,.1719,.6079-.0293,.2324-.1348,.4121-.3164,.5391-.1807,.127-.4629,.1665-.8447,.1182l-2.9385-.3687Z"/><path d="M164.9424,8.3679l-1.0781,5.3853,1.8848,.3774c.3779,.0752,.6328,.2021,.7646,.3799s.1738,.3843,.127,.6191c-.0459,.2295-.1641,.4014-.3535,.5146-.1904,.1133-.4746,.1323-.8525,.0566l-5.3389-1.0684c-.3779-.0757-.6328-.2021-.7646-.3799s-.1738-.3843-.127-.6191c.0459-.23,.1641-.4014,.3535-.5146,.1904-.1138,.4736-.1323,.8525-.0566l1.8838,.377,.7637-3.8149-1.2637-.2529c-.373-.0747-.627-.2012-.7607-.3794-.1348-.1782-.1787-.3848-.1309-.6196,.0459-.23,.1631-.4014,.3535-.5151,.1904-.1133,.4736-.1318,.8516-.0566l2.835,.5674Zm.3818-3.0229l-.333,1.6626-1.8691-.374,.333-1.6626,1.8691,.374Z"/><path d="M177.2988,15.1648c-.1572,.5947-.4736,1.1265-.9492,1.5962-.4766,.4697-1.085,.7837-1.8232,.9419-.7393,.1582-1.4639,.144-2.1748-.043-.7051-.186-1.3369-.5259-1.8965-1.0205-.5586-.4946-.9336-1.0659-1.124-1.7139s-.2051-1.2764-.0449-1.8857c.1631-.6196,.4951-1.1826,.9941-1.6895,.5-.5068,1.1162-.8467,1.8486-1.02,.7314-.1738,1.4482-.1685,2.1484,.0161,.7051,.1855,1.3379,.5391,1.8975,1.061,.5605,.522,.9287,1.1226,1.1055,1.8018s.1826,1.3311,.0186,1.9556Zm-1.5508-.3999c.1309-.4985,.0723-1.0039-.1748-1.5166-.3398-.6924-.9082-1.1436-1.7041-1.353-.7002-.1846-1.3428-.1138-1.9297,.2109-.5859,.3252-.957,.7822-1.1123,1.3716-.127,.4834-.0098,.9976,.3535,1.543,.3623,.5449,.8887,.9087,1.5791,1.0903,.6953,.1826,1.335,.1265,1.9189-.1694s.9404-.6885,1.0693-1.1768Z"/><path d="M182.498,12.9167l-.1631,.5142c.3535-.1504,.7168-.2319,1.0898-.2446s.7549,.043,1.1475,.1675c.9033,.2866,1.5293,.7939,1.8779,1.5215,.2754,.5791,.2979,1.231,.0684,1.9561l-.9004,2.8374c.3232,.1021,.5391,.2485,.6475,.439,.1094,.1899,.1279,.3994,.0547,.6279-.0703,.2231-.2061,.3809-.4082,.4727-.2012,.0923-.4854,.0796-.8525-.0366l-1.3779-.437c-.3672-.1167-.6064-.2705-.7178-.4614s-.1309-.4009-.0586-.6294c.0703-.2231,.2051-.3813,.4043-.4741,.1982-.0928,.459-.0879,.7822,.0146l.9141-2.8818c.1055-.3325,.0928-.6045-.0371-.8149-.1699-.2725-.4883-.4829-.9551-.6309-.3525-.1118-.6836-.1416-.9922-.0894s-.7373,.2349-1.2842,.5474l-.9004,2.8374c.3926,.1245,.6338,.2422,.7246,.3525,.1963,.2261,.248,.4834,.1572,.771-.0713,.2236-.207,.3813-.4082,.4731s-.4854,.0796-.8535-.0371l-1.7344-.5503c-.3682-.1162-.6074-.27-.7188-.4614-.1113-.1909-.1309-.4004-.0586-.6289,.0879-.2778,.2754-.4561,.5625-.5347,.1436-.0366,.4111,.0073,.8027,.1318l1.1768-3.709c-.3232-.1021-.5391-.2495-.6465-.4424-.1084-.1929-.127-.4009-.0566-.6245,.0713-.2231,.207-.3809,.4082-.4727,.2012-.0923,.4854-.0796,.8535,.0366l1.4521,.4604Z"/></g></svg>