<?xml version="1.0" encoding="UTF-8"?><svg id="Layer_1" xmlns="http://www.w3.org/2000/svg" width="1347.4716" height="131.5234" viewBox="0 0 1347.4716 131.5234"><defs><style>.cls-1{fill:none;stroke:#000;stroke-linecap:round;stroke-linejoin:round;stroke-width:5px;}</style></defs><g><path class="cls-1" d="M636.794,57.0145c-4.6666-3-9.3334-6-14-9l-27.9231,.1538v18.8462h-9.0769l9.0769,50.5993h82.9231V56.868c-13.6666,.0488-27.3334,.0976-41,.1464Z"/><polyline class="cls-1" points="677.8709 117.6138 668.794 67.0145 594.8709 67.0145"/></g><g><path d="M143.5068,22.7896l.9336,5.0586,8.7891-1.623-.3438-1.8652c-.1533-.8291-.1025-1.4502,.1514-1.8623,.2539-.4111,.6387-.6641,1.1543-.7598,.5039-.0938,.9482,.0078,1.333,.3008,.3848,.2949,.6533,.8555,.8066,1.6855l.9805,5.3105-16.2178,2.9941c-.8291,.1523-1.4492,.1025-1.8613-.1523-.4121-.2539-.666-.6387-.7607-1.1543-.0928-.5039,.0098-.9482,.3096-1.334,.2998-.3848,.8584-.6543,1.6768-.8047l.5371-.0996-2.4883-13.4785-.5381,.0996c-.8291,.1533-1.4492,.1035-1.8613-.1514-.4121-.2539-.665-.6387-.7607-1.1543-.0947-.5146,.0049-.9658,.2988-1.3496,.2939-.3848,.8545-.6533,1.6846-.8066l15.4639-2.8379,.9678,5.2432c.1514,.8184,.1025,1.4326-.1455,1.8438-.249,.4102-.6309,.6641-1.1465,.7588s-.9648-.001-1.3477-.29c-.3838-.2881-.6523-.8467-.8047-1.6758l-.332-1.7988-8.0332,1.4834,.918,4.9746,3.0254-.5586c-.166-.8955-.1885-1.4883-.0674-1.7773,.2451-.6123,.6875-.9785,1.3262-1.0967,.5049-.0938,.9492,.0078,1.333,.3008,.3848,.2949,.6533,.8555,.8066,1.6855l.7324,3.9658c.1387,.751,.1416,1.2715,.0107,1.5615-.2617,.5938-.6943,.9453-1.2998,1.0566-.6387,.1191-1.1826-.0645-1.6309-.5498-.2158-.2266-.4072-.7939-.5752-1.7012l-3.0244,.5586Z"/><path d="M172.8359,27.9176l-.0459-.8184c-.8506,.5156-1.7969,.9189-2.8418,1.2109-1.0449,.293-2,.4629-2.8643,.5117-1.877,.1045-3.4297-.3086-4.6562-1.2383-1.2275-.9297-1.875-1.998-1.9424-3.2031-.082-1.4678,.5898-2.8711,2.0156-4.2119s3.458-2.085,6.0967-2.2324c1.0586-.0596,2.2871-.0127,3.6875,.1367l-.0459-.8369c-.0293-.5225-.2783-.9365-.7461-1.2422-.4678-.3047-1.333-.4219-2.5957-.3506-1.0352,.0576-2.3662,.3369-3.9922,.8389-.6064,.1826-1.0801,.2832-1.4209,.3027-.4668,.0254-.8711-.1201-1.2139-.4375s-.5293-.7383-.5586-1.2617c-.0166-.2949,.0264-.5547,.1279-.7773,.1016-.2217,.251-.4043,.4482-.5469,.1982-.1426,.6152-.3223,1.2539-.541,.8506-.2871,1.7217-.5264,2.6123-.7188s1.7002-.3086,2.4287-.3496c2.1729-.1211,3.8848,.2539,5.1377,1.125s1.9248,2.1211,2.0156,3.7471l.4023,7.2002,.5967-.0332c.8418-.0469,1.4512,.082,1.8271,.3867,.377,.3037,.5791,.7168,.6084,1.2402,.0293,.5117-.127,.9404-.4668,1.2852-.3408,.3438-.9316,.5391-1.7734,.5859l-4.0947,.2285Zm-.3506-6.2617c-1.4141-.1953-2.7129-.2598-3.8955-.1934-1.4229,.0801-2.626,.4951-3.6104,1.2461-.6123,.4785-.9062,.9473-.8809,1.4014,.0186,.3301,.1875,.5889,.5059,.7764,.5898,.3438,1.3789,.4883,2.3691,.4316,.8418-.0469,1.7852-.2637,2.8301-.6543,1.0449-.3887,1.9668-.8906,2.7656-1.5059l-.084-1.502Z"/><path d="M191.374,12.8189l-.1768,2.1807c1.5508-.9375,2.7627-1.5488,3.6377-1.832,.874-.2832,1.6807-.3965,2.4189-.3359,1.1348,.0918,2.2031,.6016,3.2021,1.5273,.6807,.627,.998,1.2363,.9502,1.8262-.041,.5-.248,.9082-.6221,1.2266-.375,.3184-.8066,.458-1.2949,.418-.4316-.0342-.8682-.2871-1.3096-.7568-.4424-.4697-.8506-.7197-1.2256-.751-.4883-.0391-1.2432,.209-2.2637,.7432s-2.3066,1.3564-3.8594,2.4658l-.4258,5.2637,4.9736,.4023c.8398,.0674,1.4268,.2773,1.7578,.6309,.332,.3516,.4766,.7891,.4336,1.3125-.041,.5098-.2539,.9131-.6377,1.208-.3838,.2939-.9961,.4072-1.8359,.3398l-10.5439-.8525c-.8408-.0684-1.4268-.2783-1.7578-.6309-.332-.3535-.4766-.79-.4346-1.3125,.042-.5117,.2539-.9141,.6377-1.209s.9961-.4082,1.8369-.3398l2.0781,.168,.6865-8.4824-1.2607-.1025c-.8408-.0674-1.4268-.2783-1.7578-.6309-.332-.3525-.4766-.79-.4346-1.3125,.042-.5107,.2539-.9141,.6387-1.208,.3838-.2949,.9951-.4082,1.8359-.3408l4.7529,.3848Z"/><path d="M218.3594,10.3092l-4.1543,18.1943,4.0986,.9355c.8223,.1875,1.3721,.4795,1.6494,.876s.3584,.8506,.2412,1.3613c-.1133,.5-.3818,.8682-.8037,1.1045-.4229,.2363-1.0449,.2617-1.8662,.0742l-11.6133-2.6523c-.8223-.1875-1.3711-.4785-1.6494-.875-.2773-.3965-.3574-.8506-.2412-1.3613,.1143-.5,.3818-.8682,.8047-1.1055,.4219-.2363,1.0439-.2607,1.8662-.0732l4.0986,.9365,3.374-14.7793-2.749-.627c-.8115-.1855-1.3584-.4766-1.6416-.875-.2832-.3975-.3662-.8516-.249-1.3633,.1133-.5,.3818-.8672,.8037-1.1035,.4229-.2373,1.0439-.2617,1.8662-.0742l6.165,1.4072Z"/><path d="M230.0723,36.9537l-1.2549-13.2939c-.5039-.2734-.835-.6133-.9932-1.0186s-.1523-.8203,.0156-1.2441c.1934-.4873,.5166-.8154,.9697-.9854,.4531-.1689,1.0713-.0986,1.8555,.2129l2.9707,1.1777c.7842,.3105,1.2822,.6836,1.4961,1.1172,.2148,.4346,.2246,.8945,.0312,1.3828-.1885,.4766-.5098,.7988-.9629,.9688-.4541,.1699-1.04,.1113-1.7607-.1738l.877,9.0059,6.7803-5.9697c-.6992-.2773-1.1553-.6328-1.3691-1.0674-.2139-.4336-.2246-.8945-.0312-1.3809,.1895-.4766,.5098-.8008,.9639-.9697,.4531-.1689,1.0713-.0986,1.8555,.2119l3.0654,1.2158c.7734,.3066,1.2666,.6768,1.4805,1.1113s.2246,.8955,.0312,1.3818c-.1719,.4346-.4609,.7461-.8662,.9336-.4062,.1895-.8984,.1934-1.4756,.0127l-13.3008,11.749c.8154,.3242,1.3184,.6152,1.5098,.875,.3779,.5293,.4473,1.0967,.208,1.7002-.1885,.4766-.5098,.7998-.9639,.9697-.4531,.1689-1.0713,.0986-1.8555-.2129l-7.1006-2.8164c-.7842-.3105-1.2822-.6826-1.4961-1.1172-.2148-.4336-.2266-.8887-.0381-1.3652,.1934-.4883,.5166-.8164,.9697-.9854,.4541-.1689,1.0723-.0986,1.8555,.2119l3.2412,1.2852,3.292-2.9229Z"/><path d="M266.8447,54.1285l-3.1016,4.832,1.7695,1.1348c.709,.4561,1.1279,.917,1.2539,1.3848,.127,.4668,.0488,.9199-.2344,1.3613-.2764,.4316-.6543,.6875-1.1309,.7666-.4775,.0791-1.0713-.1084-1.7812-.5635l-5.2207-3.3506c-.71-.4561-1.1279-.917-1.2539-1.3838-.127-.4668-.0518-.916,.2246-1.3477,.2832-.4414,.666-.7002,1.1484-.7764,.4824-.0771,1.0732,.1104,1.7734,.5596l.5029,.3223,8.5469-13.3184-.5029-.3223c-.71-.4561-1.1279-.917-1.2549-1.3848-.126-.4668-.0479-.9209,.2354-1.3613,.2764-.4316,.6533-.6875,1.1309-.7676,.4775-.0781,1.0713,.1094,1.7803,.5645l3.4521,2.2148-.6455,1.0078c.9912-.0273,1.9307,.0811,2.8164,.3242,.8857,.2441,1.7178,.6152,2.4941,1.1133,2.0137,1.293,3.291,3.0771,3.834,5.3545,.542,2.2764,.2471,4.2979-.8857,6.0615-1.249,1.9473-3.1182,3.0146-5.6084,3.2031-2.0771,.1562-3.9932-.3281-5.7471-1.4541-.7578-.4863-1.4355-1.0762-2.0322-1.7705-.5967-.6953-1.1182-1.4961-1.5635-2.4043Zm11.9941,.5488c.2646-.4121,.4385-1.042,.5215-1.8887,.083-.8477-.0762-1.7012-.4785-2.5615s-1.0586-1.583-1.9697-2.167c-1.4668-.9414-2.9854-1.1387-4.5566-.5898-1.0713,.3828-1.8311,.9238-2.2803,1.623-.5049,.7871-.5762,1.8203-.2139,3.1016,.3623,1.2822,1.1621,2.3203,2.3994,3.1133,1.2461,.8008,2.5234,1.0996,3.8311,.8965,1.3086-.2031,2.2236-.7129,2.7471-1.5273Z"/><path d="M295.5146,56.4254l-1.1641,1.8516c1.8086-.1152,3.166-.0957,4.0723,.0566s1.6729,.4258,2.3008,.8203c.9639,.6064,1.6748,1.5518,2.1338,2.8359,.3135,.8691,.3135,1.5557-.002,2.0566-.2666,.4258-.6396,.6914-1.1191,.8008s-.9258,.0332-1.3408-.2266c-.3662-.2305-.6367-.6562-.8115-1.2773s-.4219-1.0322-.7402-1.2324c-.4141-.2607-1.1973-.3896-2.3496-.3867-1.1523,.002-2.6729,.1357-4.5625,.4023l-2.8105,4.4707,4.2246,2.6553c.7139,.4482,1.1367,.9053,1.2676,1.3721,.1309,.4658,.0566,.9199-.2217,1.3643-.2734,.4346-.6475,.6924-1.124,.7764-.4775,.084-1.0723-.0977-1.7861-.5469l-8.9561-5.6289c-.7139-.4492-1.1367-.9062-1.2676-1.373-.1309-.4648-.0566-.9199,.2217-1.3633,.2734-.4346,.6484-.6934,1.125-.7773s1.0713,.0977,1.7852,.5469l1.7656,1.1094,4.5293-7.2051-1.0713-.6738c-.7139-.4482-1.1357-.9053-1.2666-1.3711-.1318-.4658-.0576-.9209,.2217-1.3652,.2725-.4336,.6475-.6924,1.124-.7764s1.0713,.0986,1.7861,.5479l4.0361,2.5371Z"/><path d="M319.2568,79.2154c-.6309,1.1875-1.5703,2.1621-2.8193,2.9248-1.25,.7617-2.7012,1.126-4.3545,1.0938-1.6533-.0332-3.1885-.4258-4.6074-1.1797-1.4092-.748-2.585-1.7881-3.5293-3.1211-.9434-1.332-1.4551-2.7363-1.5371-4.2109-.0811-1.4756,.2021-2.8223,.8486-4.0391,.6562-1.2383,1.6436-2.2715,2.9609-3.1006s2.7998-1.2451,4.4463-1.249c1.6455-.0029,3.168,.3672,4.5674,1.1094,1.4082,.748,2.5791,1.8174,3.5107,3.209,.9316,1.3906,1.416,2.8535,1.4531,4.3887,.0361,1.5352-.2773,2.9277-.9395,4.1748Zm-3.1025-1.6279c.5293-.9961,.6582-2.1016,.3867-3.3164-.3779-1.6445-1.3613-2.8896-2.9512-3.7344-1.3994-.7422-2.8037-.9141-4.2158-.5156-1.4111,.3994-2.4287,1.1875-3.0547,2.3652-.5127,.9658-.5195,2.1201-.0195,3.4629,.5,1.3418,1.4395,2.3789,2.8184,3.1113,1.3887,.7363,2.7783,.9365,4.1709,.5986,1.3916-.3389,2.3467-.9951,2.8652-1.9717Z"/><path d="M332.6602,79.9644l-2.6006,6.5244c-.2793,.6982-.3193,1.2158-.1221,1.5518,.3047,.5273,1.0293,1.0176,2.1719,1.4727,1.6621,.6631,3.3379,.9199,5.0283,.7725,.6494-.0596,1.127-.0293,1.4346,.0928,.4229,.1699,.7275,.4746,.9131,.916,.1855,.4424,.1875,.8906,.0068,1.3457-.1689,.4238-.4844,.7217-.9453,.8936-.7168,.29-1.9229,.3398-3.6191,.1484-1.6963-.1924-3.0674-.4961-4.1152-.9141-2.0215-.8057-3.3633-1.8467-4.0264-3.1221-.6631-1.2764-.7412-2.5488-.2344-3.8193l2.8535-7.1592-1.1748-.4688c-.7832-.3125-1.2812-.6855-1.4941-1.1201s-.2227-.8955-.0283-1.3818c.1895-.4766,.5117-.7988,.9648-.9678,.4541-.1689,1.0723-.0967,1.8555,.2158l1.1748,.4678,1.1709-2.9365c.3115-.7832,.6855-1.2812,1.1201-1.4951,.4346-.2129,.8945-.2227,1.3818-.0283,.4756,.1895,.7988,.5117,.9678,.9648,.168,.4541,.0967,1.0723-.2158,1.8555l-1.1709,2.9375,6.0166,2.3984c.7832,.3115,1.2812,.6855,1.4951,1.1191,.2129,.4346,.2227,.8955,.0283,1.3828-.1895,.4756-.5117,.7988-.9648,.9668-.4541,.1689-1.0723,.0977-1.8555-.2148l-6.0166-2.3984Z"/><path d="M362.083,94.0797c-.3525,1.2979-1.0547,2.4561-2.1055,3.4746-1.0508,1.0195-2.3857,1.6943-4.0059,2.0273-1.6191,.332-3.2041,.2871-4.7539-.1348-1.5391-.4189-2.916-1.1738-4.1299-2.2666-1.2139-1.0918-2.0234-2.3486-2.4277-3.7686-.4043-1.4219-.4258-2.7969-.0635-4.127,.3682-1.3516,1.1035-2.5781,2.2051-3.6777,1.1025-1.0986,2.4561-1.8311,4.0615-2.1973,1.6045-.3652,3.1709-.3408,4.6992,.0752,1.5391,.4189,2.916,1.2041,4.1318,2.3564,1.2158,1.1504,2.0107,2.4707,2.3848,3.9609,.374,1.4883,.375,2.915,.0039,4.2773Zm-3.3848-.9023c.2969-1.0889,.1787-2.1953-.3535-3.3203-.7314-1.5215-1.9658-2.5195-3.7021-2.9922-1.5283-.416-2.9365-.2734-4.2256,.4268-1.2881,.7002-2.1074,1.6934-2.458,2.9795-.2871,1.0547-.0391,2.1826,.7441,3.3818s1.9287,2.0039,3.4346,2.4131c1.5176,.4141,2.917,.3018,4.2002-.335,1.2832-.6357,2.0703-1.4873,2.3604-2.5537Z"/><path d="M375.332,91.7965l-1.085,6.9395c-.1152,.7422-.04,1.2559,.2266,1.54,.415,.4453,1.2305,.7627,2.4463,.9531,1.7666,.2764,3.458,.1533,5.0732-.3662,.6201-.2031,1.0928-.2793,1.4189-.2285,.4502,.0703,.8154,.3008,1.0947,.6895,.2793,.3906,.3809,.8271,.3057,1.3105-.0703,.4512-.3115,.8105-.7227,1.0811-.6338,.4434-1.7998,.7598-3.4951,.9502-1.6963,.1904-3.1016,.1992-4.2158,.0254-2.1504-.3359-3.6904-1.0527-4.6201-2.1494s-1.2891-2.3203-1.0781-3.6709l1.1895-7.6152-1.249-.1953c-.833-.1309-1.4023-.3828-1.7061-.7598-.3047-.376-.417-.8232-.3359-1.3408,.0791-.5068,.3213-.8926,.7256-1.1582,.4053-.2646,1.0234-.333,1.8574-.2021l1.249,.1943,.4883-3.124c.1299-.832,.3828-1.4014,.7598-1.7051,.376-.3047,.8223-.417,1.3408-.3359,.5059,.0791,.8926,.3213,1.1572,.7256,.2656,.4053,.333,1.0244,.2031,1.8564l-.4883,3.124,6.4004,1c.832,.1299,1.4014,.3838,1.7061,.7588,.3037,.377,.416,.8242,.335,1.3418-.0791,.5059-.3213,.8926-.7256,1.1582-.4053,.2656-1.0234,.332-1.8564,.2031l-6.3994-1Z"/><path d="M395.6934,105.9625l-5.4668-12.1816c-.5664-.0957-.9883-.3105-1.2686-.6445-.2803-.333-.4092-.7275-.3857-1.1826,.0254-.5234,.2266-.9385,.6006-1.2451,.375-.3066,.9834-.4385,1.8252-.3965l3.1914,.1592c.8428,.042,1.4346,.2334,1.7773,.5762,.3418,.3428,.5,.7744,.4736,1.2979-.0254,.5127-.2256,.9219-.5996,1.2285-.375,.3066-.9492,.4395-1.7227,.4014l3.7295,8.2451,4.4971-7.835c-.751-.0381-1.2979-.2275-1.6396-.5693-.3428-.3418-.5-.7754-.4746-1.2988,.0254-.5117,.2256-.9209,.6006-1.2275,.374-.3057,.9824-.4385,1.8252-.3965l3.2939,.1641c.8301,.042,1.417,.2334,1.7598,.5752,.3418,.3418,.5,.7754,.4736,1.2988-.0234,.4668-.1963,.8535-.5195,1.1631s-.7881,.4717-1.3936,.4873l-8.8096,15.4053c.876,.0439,1.4463,.1572,1.7109,.3418,.5283,.3799,.7773,.8936,.7441,1.543-.0254,.5117-.2256,.9209-.5996,1.2275-.375,.3066-.9834,.4395-1.8252,.3965l-7.6299-.3799c-.8418-.042-1.4336-.2334-1.7764-.5762-.3418-.3428-.501-.7695-.4746-1.2812,.0254-.5234,.2256-.9385,.6006-1.2451s.9824-.4385,1.8252-.3965l3.4814,.1738,2.1758-3.8281Z"/><path d="M416.4902,104.4752l.2656,5.7363,2.0996-.0967c.8418-.0391,1.4502,.0947,1.8232,.4023,.374,.3086,.5723,.7236,.5967,1.2471,.0234,.5127-.1367,.9385-.4795,1.2803-.3438,.3398-.9365,.5303-1.7793,.5693l-6.1963,.2861c-.8428,.0391-1.4502-.0957-1.8242-.4023-.373-.3086-.5713-.7188-.5957-1.2305-.0234-.5234,.1387-.9551,.4883-1.2969,.3486-.3418,.9385-.5312,1.7695-.5693l.5977-.0283-.7314-15.8076-.5977,.0273c-.8418,.0391-1.4492-.0947-1.8232-.4033-.373-.3076-.5723-.7227-.5967-1.2461-.0234-.5127,.1367-.9395,.4805-1.2803,.3428-.3408,.9355-.5303,1.7783-.5693l4.0967-.1895,.0557,1.1943c.7939-.5947,1.6221-1.0498,2.4863-1.3643,.8633-.3125,1.7559-.4912,2.6777-.5332,2.3906-.1113,4.4648,.6055,6.2246,2.1494,1.7588,1.5439,2.6875,3.3633,2.7842,5.457,.1064,2.3105-.8008,4.2627-2.7236,5.8564-1.6035,1.3301-3.4463,2.042-5.5293,2.1387-.8994,.041-1.793-.0488-2.6816-.2695-.8887-.2217-1.7773-.5742-2.666-1.0576Zm10.1016-6.4893c-.0225-.4883-.2451-1.1035-.667-1.8418-.4219-.7393-1.0459-1.3438-1.8711-1.8125-.8262-.4697-1.7793-.6797-2.8604-.6289-1.7422,.0801-3.0947,.7988-4.0576,2.1543-.6533,.9316-.96,1.8125-.9219,2.6426,.043,.9336,.583,1.8184,1.6201,2.6543,1.0361,.8359,2.2891,1.2207,3.7568,1.1523,1.4795-.0684,2.6943-.5635,3.6436-1.4863,.9502-.9219,1.4023-1.8662,1.3574-2.834Z"/><path d="M451.9326,97.0347l-14.248,1.8926c.4814,.8555,1.2197,1.498,2.2139,1.9297,.9932,.4316,2.2754,.543,3.8457,.334,1.2871-.1719,2.9619-.6758,5.0225-1.5117,.8516-.3438,1.4463-.5371,1.7852-.582,.4629-.0625,.874,.0508,1.2334,.3359,.3604,.2852,.5732,.6758,.6387,1.1738,.0605,.4512-.0576,.8574-.3545,1.2188-.3965,.4785-1.4453,1.0225-3.1455,1.6328-1.7002,.6113-3.3574,1.0244-4.9727,1.2383-2.7783,.3691-5.1045-.1201-6.9795-1.4688-1.874-1.3477-2.9639-3.1689-3.2686-5.4619-.3232-2.4395,.3135-4.5439,1.9111-6.3135,1.5986-1.7695,3.5723-2.8105,5.9209-3.123,1.4121-.1875,2.7412-.1113,3.9873,.2285,1.2461,.3408,2.1953,.7607,2.8477,1.2598,.9248,.7285,1.7334,1.6719,2.4287,2.832,.4746,.8105,.7881,1.7812,.9375,2.9102l.1963,1.4746Zm-4.3076-2.9629c-.6631-.9229-1.4561-1.5732-2.3789-1.9512-.9238-.377-1.9785-.4863-3.165-.3291-1.1748,.1562-2.1582,.5361-2.9512,1.1416s-1.3945,1.4414-1.8047,2.5078l10.2998-1.3691Z"/><path d="M468.0283,88.2613c-.6309-.2275-1.2705-.3633-1.9199-.4062-.6494-.0439-1.3086,.0039-1.9775,.1455-1.3271,.2803-2.335,.7197-3.0234,1.3184-.3057,.2627-.4346,.5049-.3877,.7275,.0537,.2578,.3408,.459,.8613,.6055,.3936,.1035,1.2275,.1074,2.5,.0137,2.3408-.167,3.9893-.1885,4.9473-.0645,1.2568,.166,2.2891,.5879,3.0967,1.2676,.8066,.6807,1.3057,1.4727,1.4961,2.375,.2578,1.2266-.0664,2.3662-.9736,3.4189-1.2979,1.5195-3.1846,2.54-5.6592,3.0615-.9932,.209-1.9277,.3164-2.8057,.3203-.8789,.0059-1.7041-.0859-2.4766-.2715-.1367,.1797-.292,.3291-.4648,.4473-.1729,.1172-.3594,.1973-.5605,.2402-.5352,.1133-.998,.0273-1.3906-.2578-.3916-.2832-.6738-.8379-.8477-1.6631l-.2441-1.1533c-.1738-.8262-.1387-1.4473,.1055-1.8652,.2432-.418,.6211-.6816,1.1348-.7891,.4121-.0879,.7812-.0459,1.1084,.124s.627,.5166,.9014,1.041c.6172,.3359,1.3184,.54,2.1025,.6143,.7842,.0723,1.6553,.0078,2.6143-.1934,1.5713-.332,2.7402-.834,3.5068-1.5078,.3604-.332,.5127-.6328,.457-.9004-.0947-.4453-.4678-.751-1.1191-.916-.6523-.166-1.9248-.1543-3.8174,.0352-2.8154,.291-4.7715,.1221-5.8711-.5078-1.0967-.6191-1.7705-1.5254-2.0225-2.7178-.2588-1.2256,.0449-2.3555,.9102-3.3877,1.1699-1.4111,2.8916-2.3564,5.166-2.8359,.791-.167,1.5674-.252,2.3301-.2559,.7617-.0029,1.5098,.0811,2.2451,.252,.1787-.2012,.3516-.3594,.5195-.4766,.167-.1162,.3291-.1914,.4854-.2246,.4678-.0986,.8955-.0049,1.2812,.2803s.666,.8408,.8398,1.665l.1768,.8359c.1572,.748,.1748,1.2734,.0527,1.5781-.248,.5889-.6797,.9473-1.292,1.0762-.4131,.0879-.8027,.0352-1.168-.1553-.3662-.1904-.6387-.4873-.8174-.8936Z"/></g><g><path d="M833.1729,51.8433l2.5391,4.4727,7.7734-4.4121-.9365-1.6504c-.417-.7324-.5723-1.3359-.4668-1.8086,.1045-.4717,.3857-.8379,.8408-1.0957,.4463-.2539,.8994-.3047,1.3584-.1523,.46,.1523,.8975,.5938,1.3135,1.3281l2.666,4.6953-14.3408,8.1426c-.7334,.416-1.3369,.5713-1.8086,.4668-.4727-.1055-.8379-.3867-1.0967-.8418-.2539-.4463-.3018-.9004-.1445-1.3623,.1562-.4619,.5967-.8994,1.3193-1.3096l.4756-.2695-6.7666-11.9199-.4756,.2695c-.7334,.417-1.3359,.5723-1.8076,.4668-.4727-.1055-.8379-.3848-1.0967-.8418-.2588-.4551-.3125-.9121-.1611-1.373,.1523-.459,.5947-.8965,1.3281-1.3125l13.6807-7.748,2.6328,4.6367c.4102,.7236,.5654,1.3203,.4658,1.7891-.1006,.4707-.3789,.834-.834,1.0938-.4561,.2578-.9121,.3145-1.3691,.168-.457-.1475-.8936-.5879-1.3096-1.3203l-.9023-1.5908-7.1045,4.0332,2.498,4.3994,2.6748-1.5195c-.4502-.792-.665-1.3438-.6465-1.6562,.0312-.6602,.3301-1.1504,.8945-1.4707,.4463-.2539,.8984-.3047,1.3584-.1523,.459,.1514,.8975,.5938,1.3135,1.3271l1.9912,3.5068c.377,.6641,.5508,1.1562,.5215,1.4727-.0527,.6465-.3467,1.1211-.8818,1.4248-.5645,.3203-1.1387,.3252-1.7207,.0146-.2783-.1445-.6445-.6172-1.1006-1.4199l-2.6748,1.5195Z"/><path d="M862.5283,46.3531l-.3477-.7432c-.5967,.7949-1.3252,1.5225-2.1865,2.1826-.8604,.6611-1.6836,1.1748-2.4668,1.542-1.7031,.7959-3.2979,.9922-4.7822,.5869-1.4863-.4062-2.4844-1.1562-2.9961-2.25-.623-1.3311-.5225-2.8848,.3008-4.6592,.8232-1.7754,2.4326-3.2236,4.8262-4.3428,.96-.4492,2.1172-.8652,3.4727-1.248l-.3545-.7588c-.2217-.4736-.6064-.7666-1.1543-.874-.5479-.1094-1.3945,.1045-2.54,.6406-.9395,.4395-2.0703,1.1953-3.3926,2.2656-.4941,.3955-.8965,.666-1.2061,.8105-.4229,.1973-.8525,.2129-1.2891,.0469-.4365-.167-.7656-.4883-.9883-.9629-.125-.2676-.1826-.5244-.1709-.7686s.082-.4697,.2129-.6748c.1299-.2051,.4502-.5293,.9609-.9688,.6836-.584,1.4023-1.1309,2.1572-1.6416s1.4619-.9199,2.123-1.2295c1.9707-.9219,3.7002-1.2119,5.1865-.8701,1.4873,.3428,2.5762,1.251,3.2666,2.7266l3.0566,6.5322,.542-.2539c.7627-.3574,1.376-.4648,1.8389-.3223,.4629,.1416,.8057,.4502,1.0273,.9248,.2178,.4639,.2324,.9189,.0449,1.3662-.1875,.4453-.6631,.8477-1.4268,1.2051l-3.7148,1.7383Zm-2.6582-5.6816c-1.3848,.3467-2.6143,.7715-3.6875,1.2734-1.29,.6035-2.252,1.4375-2.8867,2.501-.3896,.6729-.4873,1.2158-.2939,1.6279,.1396,.2998,.3926,.4766,.7578,.5332,.6758,.0986,1.4619-.0625,2.3594-.4824,.7637-.3574,1.5586-.9102,2.3828-1.6621,.8252-.75,1.4932-1.5596,2.0059-2.4277l-.6377-1.3633Z"/><path d="M873.5156,25.1344l.7422,2.0586c1.0234-1.4961,1.874-2.5527,2.5527-3.1738,.6787-.6191,1.3662-1.0547,2.0635-1.3066,1.0713-.3857,2.2539-.3633,3.5479,.0664,.8789,.2891,1.4189,.7109,1.6201,1.2686,.1699,.4717,.1504,.9297-.0586,1.374-.21,.4453-.5449,.751-1.0049,.917-.4082,.1465-.9102,.0977-1.5068-.1475s-1.0723-.3037-1.4258-.1758c-.4609,.166-1.0459,.7031-1.7529,1.6123-.708,.9092-1.5391,2.1895-2.4941,3.8408l1.791,4.9688,4.6943-1.6924c.793-.2861,1.4131-.3369,1.8613-.1533,.4473,.1836,.7607,.5234,.9385,1.0156,.1738,.4824,.1465,.9375-.0811,1.3643s-.7383,.7842-1.5312,1.0693l-9.9512,3.5869c-.7939,.2861-1.4141,.3369-1.8613,.1533-.4482-.1836-.7607-.5215-.9385-1.0156-.1738-.4824-.1475-.9365,.0801-1.3633,.2275-.4277,.7383-.7842,1.5312-1.0703l1.9619-.707-2.8857-8.0059-1.1904,.4277c-.793,.2871-1.4131,.3379-1.8613,.1543-.4473-.1836-.7598-.5225-.9375-1.0156-.1738-.4824-.1475-.9375,.0801-1.3643s.7383-.7842,1.5312-1.0693l4.4854-1.6172Z"/><path d="M896.335,11.3492l4.4326,18.1279,4.084-.999c.8193-.1992,1.4414-.1855,1.8672,.0449s.7012,.5996,.8252,1.1094c.1221,.498,.0469,.9473-.2246,1.3477s-.8164,.7012-1.6357,.9014l-11.5703,2.8291c-.8193,.2012-1.4414,.1855-1.8672-.0449s-.7012-.5996-.8252-1.1084c-.1221-.498-.0469-.9473,.2246-1.3486,.2715-.4004,.8164-.7012,1.6357-.9004l4.084-.999-3.6006-14.7256-2.7393,.6699c-.8086,.1982-1.4277,.1826-1.8594-.0469-.4307-.2285-.709-.5977-.833-1.1064-.1221-.498-.0469-.9473,.2246-1.3486,.2715-.4004,.8164-.7002,1.6357-.9004l6.1416-1.502Z"/><path d="M918.8291,29.5914l-7.4424-11.0859c-.5742,0-1.0264-.1406-1.3584-.4219-.333-.2812-.5254-.6484-.5801-1.1006-.0625-.5205,.0654-.9639,.3828-1.3291s.8945-.5977,1.7314-.6982l3.1738-.3809c.8369-.1006,1.4531-.0107,1.8477,.2686,.3955,.2793,.624,.6797,.6865,1.1992,.0615,.5098-.0674,.9473-.3848,1.3125s-.8613,.5938-1.6299,.6855l5.0654,7.499,3.1123-8.4814c-.7461,.0898-1.3174-.0049-1.7119-.2852-.3955-.2793-.624-.6787-.6865-1.1992-.0615-.5098,.0674-.9463,.3848-1.3115s.8945-.5986,1.7324-.6982l3.2744-.3936c.8252-.0986,1.4365-.0088,1.8311,.2705,.3955,.2793,.624,.6797,.6865,1.1992,.0557,.4648-.0498,.876-.3164,1.2344-.2666,.3594-.6973,.5977-1.291,.7148l-6.0879,16.6699c.8711-.1035,1.4521-.0879,1.7441,.0488,.585,.2852,.917,.751,.9941,1.3955,.0615,.5088-.0674,.9463-.3848,1.3115s-.8945,.5977-1.7324,.6992l-7.584,.9102c-.8379,.1016-1.4531,.0117-1.8486-.2676-.3945-.2803-.623-.6738-.6836-1.1836-.0625-.5205,.0645-.9629,.3818-1.3281,.3184-.3652,.8955-.5977,1.7324-.6992l3.4609-.416,1.5-4.1387Z"/><path d="M959.001,27.4869l-.8799,5.6748,2.0771,.3223c.833,.1289,1.4023,.3809,1.707,.7568s.417,.8232,.3369,1.3408c-.0791,.5059-.3203,.8926-.7246,1.1582-.4043,.2666-1.0234,.335-1.8564,.2051l-6.1299-.9492c-.834-.1299-1.4023-.3828-1.707-.7578-.3057-.377-.418-.8174-.3398-1.3242,.0801-.5176,.3252-.9092,.7354-1.1738,.4102-.2656,1.0264-.334,1.8477-.207l.5918,.0918,2.4238-15.6387-.5908-.0918c-.833-.1289-1.4023-.3809-1.707-.7578-.3047-.375-.417-.8223-.3369-1.3398,.0781-.5068,.3203-.8926,.7246-1.1582,.4043-.2666,1.0225-.335,1.8564-.2051l4.0527,.627-.1836,1.1836c.8965-.4268,1.7988-.707,2.708-.8438,.9082-.1357,1.8193-.1328,2.7305,.0088,2.3652,.3662,4.2559,1.4814,5.6729,3.3438,1.418,1.8623,1.9658,3.8301,1.6455,5.9014-.3545,2.2852-1.6328,4.0186-3.833,5.1992-1.8359,.9844-3.7842,1.3164-5.8438,.9961-.8896-.1377-1.748-.4023-2.5752-.7969-.8262-.3926-1.6279-.915-2.4023-1.5654Zm11.1895-4.3525c.0752-.4844-.0215-1.1309-.2881-1.9385s-.7578-1.5244-1.4736-2.1484c-.7168-.624-1.6094-1.0186-2.6787-1.1846-1.7227-.2676-3.1914,.168-4.4053,1.3057-.8242,.7832-1.3008,1.5859-1.4277,2.4072-.1436,.9238,.21,1.8984,1.0596,2.9229,.8506,1.0254,2.002,1.6514,3.4541,1.876,1.4629,.2266,2.752-.0176,3.8662-.7324,1.1133-.7148,1.7451-1.5508,1.8936-2.5078Z"/><path d="M987.5205,19.775l-.6533,2.0879c1.7188-.5723,3.0361-.9004,3.9521-.9844,.915-.083,1.7266-.0146,2.4326,.207,1.0879,.3398,2.0166,1.0723,2.7871,2.1953,.5254,.7617,.7002,1.4258,.5234,1.9902-.1494,.4785-.4424,.832-.877,1.0605-.4355,.2275-.8877,.2676-1.3545,.1221-.4131-.1299-.7842-.4717-1.1113-1.0283-.3271-.5557-.6709-.8896-1.0293-1.002-.4678-.1465-1.2578-.0713-2.3711,.2246-1.1133,.2969-2.5498,.8145-4.3086,1.5547l-1.5771,5.0391,4.7637,1.4902c.8037,.251,1.3291,.5859,1.5752,1.002,.2451,.418,.29,.877,.1338,1.377-.1533,.4883-.4492,.835-.8887,1.0371-.4395,.2031-1.0615,.1787-1.8662-.0723l-10.0967-3.1582c-.8047-.252-1.3301-.5859-1.5752-1.0029-.2461-.417-.29-.876-.1338-1.376,.1533-.4893,.4492-.835,.8887-1.0381,.4395-.2021,1.0615-.1787,1.8662,.0732l1.9902,.623,2.54-8.123-1.207-.377c-.8047-.252-1.3301-.5869-1.5752-1.0039-.2461-.417-.291-.875-.1338-1.375,.1523-.4902,.4492-.8359,.8887-1.0391s1.0605-.1777,1.8662,.0742l4.5508,1.4219Z"/><path d="M1014.6504,39.8179c-.583,1.2119-1.4844,2.2227-2.7021,3.0332-1.2188,.8105-2.6543,1.2324-4.3076,1.2656-1.6533,.0312-3.2031-.3008-4.6504-.9971-1.4375-.6924-2.6533-1.6846-3.6494-2.9795-.9951-1.2949-1.5625-2.6777-1.7012-4.1484-.1396-1.4707,.0898-2.8262,.6875-4.0684,.6084-1.2637,1.5537-2.335,2.8379-3.2148,1.2832-.8809,2.7471-1.3555,4.3926-1.4229,1.6445-.0674,3.1807,.2412,4.6074,.9287,1.4375,.6914,2.6484,1.7139,3.6348,3.0674s1.5273,2.7959,1.625,4.3291c.0967,1.5322-.1611,2.9346-.7744,4.207Zm-3.1641-1.5039c.4893-1.0156,.5742-2.125,.2559-3.3281-.4424-1.6289-1.4746-2.834-3.0967-3.6152-1.4268-.6875-2.8379-.8027-4.2324-.3496-1.3945,.4551-2.3809,1.2812-2.959,2.4824-.4736,.9863-.4355,2.1396,.1172,3.4609,.5527,1.3223,1.5312,2.3213,2.9385,2.998,1.416,.6826,2.8135,.8271,4.1914,.4346,1.377-.3926,2.3057-1.0869,2.7852-2.083Z"/><path d="M1027.4658,42.2203l-3.6582,5.9961c-.3916,.6426-.5186,1.1445-.3809,1.5098,.2129,.5703,.8447,1.1758,1.8945,1.8164,1.5273,.9316,3.1357,1.4668,4.8271,1.6045,.6504,.0498,1.1162,.1611,1.3984,.333,.3887,.2363,.6377,.5889,.7471,1.0566,.1084,.4658,.0352,.9082-.2197,1.3262-.2373,.3896-.5977,.6309-1.0811,.7227-.7559,.166-1.9531,.0127-3.5928-.4609s-2.9404-1.0039-3.9033-1.5918c-1.8584-1.1328-3.0068-2.3848-3.4453-3.7539-.4395-1.3691-.3027-2.6367,.4092-3.8037l4.0146-6.5791-1.0791-.6592c-.7197-.4385-1.1484-.8906-1.2861-1.3545-.1367-.4648-.0693-.9199,.2041-1.3672,.2666-.4375,.6387-.7021,1.1143-.792,.4746-.0908,1.0723,.084,1.792,.5234l1.0801,.6592,1.6465-2.6992c.4395-.7197,.8906-1.1484,1.3555-1.2852,.4639-.1377,.9189-.0703,1.3672,.2031,.4375,.2676,.7012,.6387,.791,1.1133,.0908,.4766-.084,1.0742-.5225,1.793l-1.6475,2.6992,5.5293,3.374c.7197,.4385,1.1484,.8906,1.2852,1.3545,.1377,.4648,.0693,.9199-.2031,1.3672-.2676,.4375-.6387,.7012-1.1143,.792s-1.0732-.084-1.793-.5234l-5.5293-3.374Z"/><path d="M1051.9922,63.3062c-.7305,1.1289-1.752,2.0176-3.0615,2.6689-1.3115,.6514-2.7891,.8896-4.4326,.7139-1.6445-.1758-3.1406-.7002-4.4883-1.5742-1.3398-.8662-2.4209-2.0039-3.2461-3.4141-.8242-1.4102-1.2129-2.8525-1.167-4.3291,.0469-1.4756,.4453-2.793,1.1943-3.9502,.7617-1.1758,1.835-2.1211,3.2188-2.832,1.3838-.7129,2.8965-.999,4.5371-.8594,1.6406,.1387,3.125,.6387,4.4541,1.5,1.3389,.8672,2.4121,2.0332,3.2207,3.5,.8076,1.4668,1.1641,2.9668,1.0674,4.498-.0967,1.5332-.5293,2.8926-1.2969,4.0781Zm-2.9502-1.8906c.6133-.9463,.8369-2.0371,.6729-3.2695-.2344-1.6719-1.1074-2.998-2.6182-3.9756-1.3291-.8604-2.7139-1.1533-4.1543-.8779s-2.5234,.9717-3.248,2.0898c-.5938,.9189-.7012,2.0684-.3184,3.4492,.3809,1.3809,1.2275,2.4941,2.5381,3.3438,1.3193,.8535,2.6875,1.1738,4.1035,.957,1.415-.2168,2.4238-.7891,3.0244-1.7168Z"/><path d="M1064.6094,65.6676l-3.5537,6.0586c-.3809,.6484-.499,1.1543-.3545,1.5156,.2227,.5664,.8652,1.1611,1.9258,1.7832,1.543,.9053,3.1611,1.4121,4.8545,1.5195,.6514,.0391,1.1191,.1416,1.4043,.3086,.3926,.2305,.6484,.5781,.7656,1.043,.1162,.4648,.0508,.9092-.1963,1.332-.2314,.3926-.5869,.6396-1.0684,.7402-.7529,.1797-1.9531,.0469-3.6006-.3984-1.6484-.4443-2.958-.9512-3.9316-1.5225-1.877-1.1006-3.0469-2.332-3.5098-3.6934s-.3486-2.6318,.3428-3.8105l3.8994-6.6484-1.0908-.6396c-.7275-.4268-1.1631-.8711-1.3086-1.332-.1455-.4629-.0859-.9189,.1797-1.3711,.2588-.4424,.626-.7129,1.0996-.8105,.4736-.0996,1.0742,.0645,1.8018,.4912l1.0908,.6396,1.5996-2.7266c.4268-.7275,.8701-1.1641,1.332-1.3086,.4619-.1465,.9189-.0859,1.3711,.1797,.4414,.2588,.7119,.625,.8105,1.0996,.0986,.4736-.0654,1.0742-.4922,1.8008l-1.5986,2.7275,5.5869,3.2764c.7266,.4277,1.1631,.8711,1.3086,1.333s.085,.9189-.1797,1.3701c-.2598,.4424-.626,.7129-1.0996,.8115-.4746,.0986-1.0752-.0654-1.8018-.4922l-5.5869-3.2764Z"/><path d="M1078.1631,86.4078l-.4912-13.3438c-.4873-.3018-.7988-.6602-.9326-1.0742-.1348-.4141-.1055-.8281,.0869-1.2402,.2207-.4756,.5615-.7852,1.0244-.9287,.4619-.1436,1.0752-.0371,1.8398,.3174l2.8984,1.3477c.7646,.3545,1.2412,.7549,1.4297,1.2012,.1895,.4453,.1729,.9062-.0479,1.3809-.2158,.4648-.5547,.7695-1.0176,.9121-.4619,.1436-1.0449,.0527-1.7471-.2744l.3594,9.042,7.1113-5.5713c-.6816-.3174-1.1172-.6982-1.3057-1.1436-.1895-.4453-.1729-.9062,.0479-1.3818,.2158-.4648,.5547-.7686,1.0176-.9121,.4619-.1436,1.0752-.0381,1.8398,.3174l2.9912,1.3896c.7549,.3506,1.2266,.749,1.415,1.1943s.1719,.9062-.0488,1.3809c-.1963,.4238-.5029,.7188-.918,.8828-.416,.166-.9072,.1416-1.4746-.0723l-13.9512,10.9688c.7949,.3691,1.2812,.6895,1.457,.96,.3477,.5498,.3838,1.1201,.1104,1.71-.2158,.4648-.5547,.7686-1.0176,.9121-.4619,.1426-1.0752,.0371-1.8398-.3184l-6.9287-3.2188c-.7646-.3555-1.2412-.7559-1.4297-1.2012s-.1748-.9004,.041-1.3652c.2207-.4766,.5625-.7852,1.0244-.9277,.4629-.1445,1.0762-.0381,1.8408,.3174l3.1611,1.4688,3.4541-2.7295Z"/><path d="M1098.2578,92.8297l-1.8096,5.4492,1.9941,.6621c.8008,.2656,1.3193,.6094,1.5576,1.0312,.2383,.4209,.2754,.8809,.1104,1.3779-.1621,.4863-.4639,.8271-.9072,1.0225s-1.0645,.1592-1.8643-.1064l-5.8877-1.9561c-.8008-.2656-1.3193-.6094-1.5576-1.0293-.2383-.4219-.2764-.876-.1152-1.3623,.166-.4971,.4727-.8428,.9209-1.0361s1.0664-.1582,1.8564,.1035l.5674,.1885,4.9883-15.0186-.5674-.1885c-.8008-.2656-1.3193-.6094-1.5576-1.0303-.2383-.4219-.2744-.8809-.1094-1.3779,.1611-.4873,.4639-.8271,.9062-1.0225,.4434-.1953,1.0645-.1602,1.8652,.1055l3.8926,1.293-.3779,1.1357c.9551-.2705,1.8916-.3984,2.8105-.3818,.918,.0176,1.8154,.1719,2.6914,.4629,2.2705,.7539,3.9502,2.167,5.0391,4.2393,1.0879,2.0723,1.3018,4.1035,.6416,6.0928-.7295,2.1953-2.2773,3.6914-4.6436,4.4902-1.9736,.665-3.9492,.6689-5.9287,.0117-.8535-.2832-1.6562-.6875-2.4053-1.2129-.751-.5254-1.4541-1.1738-2.1104-1.9434Zm11.7568-2.4336c.1553-.4648,.167-1.1182,.0391-1.959-.1289-.8418-.4941-1.6289-1.0967-2.3633s-1.418-1.2725-2.4453-1.6133c-1.6543-.5498-3.1738-.3643-4.5605,.5557-.9434,.6357-1.5459,1.3477-1.8076,2.1367-.2949,.8867-.1084,1.9062,.5596,3.0576,.668,1.1523,1.6992,1.9609,3.0938,2.4238,1.4053,.4668,2.7168,.4404,3.9346-.0801,1.2168-.5195,1.9785-1.2393,2.2832-2.1582Z"/><path d="M1134.3359,98.1597l-14.0605-2.9785c.168,.9668,.6475,1.8203,1.4404,2.5586s1.9639,1.2715,3.5137,1.6006c1.2705,.2686,3.0166,.3545,5.2393,.2539,.916-.0381,1.542-.0225,1.876,.0479,.457,.0977,.8076,.3398,1.0508,.7295s.3135,.8291,.21,1.3193c-.0947,.4463-.3418,.79-.7432,1.0312-.5332,.3184-1.7031,.4805-3.5098,.4883-1.8066,.0068-3.5068-.1582-5.1006-.4961-2.7422-.5811-4.7705-1.8203-6.0859-3.7178-1.3164-1.8975-1.7344-3.9775-1.2549-6.2412,.5098-2.4062,1.8135-4.1777,3.9121-5.3105,2.0977-1.1338,4.3057-1.4551,6.624-.9639,1.3926,.2959,2.6201,.8115,3.6807,1.5488s1.8154,1.4502,2.2637,2.1396c.6279,.9941,1.0742,2.1543,1.3408,3.4805,.1777,.9229,.1475,1.9414-.0879,3.0557l-.3086,1.4541Zm-3.0693-4.2305c-.3154-1.0918-.8457-1.9707-1.5898-2.6348-.7451-.6641-1.7021-1.1211-2.8721-1.3682-1.1592-.2461-2.2139-.2158-3.1641,.0889-.9492,.3057-1.7959,.8926-2.5381,1.7598l10.1641,2.1543Z"/><path d="M1152.5889,94.8111c-.5312-.4082-1.0996-.7314-1.7061-.9697-.6055-.2393-1.248-.3926-1.9287-.4609-1.3486-.1357-2.4424-.0234-3.2803,.3398-.3711,.1572-.5674,.3496-.5908,.5762-.0264,.2598,.1865,.5391,.6377,.8359,.3438,.2188,1.1367,.4766,2.3779,.7725,2.2812,.5498,3.8584,1.0303,4.7334,1.4385,1.1484,.5391,2.0039,1.2559,2.5664,2.1475,.5635,.8936,.7979,1.7979,.7061,2.7158-.126,1.248-.7803,2.2354-1.9648,2.9629-1.6973,1.0547-3.8047,1.4551-6.3213,1.2012-1.0088-.1016-1.9326-.2832-2.7705-.5449s-1.5977-.5977-2.2773-1.0098c-.1846,.1299-.3779,.2246-.5781,.2852-.2012,.0596-.4033,.0801-.6074,.0586-.5439-.0547-.96-.2773-1.2471-.666-.2871-.3896-.3877-1.0039-.3037-1.8428l.1182-1.1729c.084-.8398,.3066-1.4219,.665-1.7461,.3594-.3242,.7988-.4609,1.3213-.4082,.4189,.043,.7588,.1943,1.0186,.4551,.2598,.2617,.4404,.6836,.543,1.2656,.4863,.5078,1.0928,.9141,1.8174,1.2227,.7246,.3066,1.5742,.5098,2.5498,.6084,1.5986,.1611,2.8643,.0361,3.7988-.374,.4443-.207,.6807-.4463,.708-.7188,.0459-.4531-.2168-.8574-.7881-1.2129s-1.7871-.7295-3.6484-1.123c-2.7705-.5762-4.584-1.3311-5.4404-2.2656-.8574-.9219-1.2256-1.9883-1.1035-3.2021,.126-1.2471,.7578-2.2314,1.8945-2.9521,1.543-.9902,3.4707-1.3691,5.7832-1.1357,.8047,.0811,1.5703,.2354,2.2979,.4629,.7266,.2275,1.4141,.5352,2.0625,.9209,.2314-.1367,.4443-.2363,.6396-.2969s.3721-.082,.5303-.0664c.4766,.0479,.8555,.2656,1.1367,.6553s.3799,1.0029,.2959,1.8418l-.0859,.8506c-.0762,.7598-.2188,1.2656-.4277,1.5195-.415,.4854-.9346,.6963-1.5576,.6328-.4199-.041-.7754-.209-1.0664-.502s-.46-.6582-.5078-1.0986Z"/></g></svg>