<?xml version="1.0" encoding="UTF-8"?><svg id="Layer_1" xmlns="http://www.w3.org/2000/svg" width="294" height="120.2771" viewBox="0 0 294 120.2771"><defs><style>.cls-1{fill:none;stroke:#000;stroke-linecap:round;stroke-linejoin:round;stroke-width:5px;}</style></defs><g><path class="cls-1" d="M163.5458,55.4627c-4.6666-3-9.3334-6-14-9l-27.9231,.1538v18.8462h-9.0769l9.0769,50.5993h82.9231V55.3163c-13.6666,.0488-27.3334,.0976-41,.1464Z"/><polyline class="cls-1" points="204.6227 116.062 195.5458 65.4627 121.6227 65.4627"/></g><g><path d="M96.3071,24.7529l1.625,1.6997,2.9531-2.8242-.5996-.6265c-.2666-.2788-.4023-.5288-.4082-.75-.0068-.2207,.0771-.4141,.25-.5801,.1689-.1616,.3643-.2349,.585-.2188,.2207,.0156,.4648,.1631,.7305,.4414l1.707,1.7842-5.4482,5.2109c-.2793,.2666-.5293,.4028-.75,.4087-.2217,.0063-.4141-.0771-.5801-.2505-.1621-.1694-.2344-.3652-.2158-.5879,.0176-.2222,.1641-.4648,.4385-.7275l.1807-.1729-4.3311-4.5283-.1807,.1729c-.2783,.2666-.5283,.4028-.749,.4092-.2217,.0059-.415-.0776-.5801-.251-.166-.1729-.2402-.3696-.2246-.5903s.1631-.4644,.4414-.731l5.2002-4.9619,1.6846,1.7612c.2627,.2749,.3984,.522,.4062,.7412,.0078,.2197-.0752,.4121-.248,.5776s-.3691,.2412-.5879,.2271c-.2188-.0137-.4609-.1602-.7275-.439l-.5781-.604-2.6982,2.5811,1.5977,1.6714,1.0166-.9722c-.2881-.3008-.4453-.5215-.4717-.6621-.0596-.2964,.0176-.5469,.2324-.752,.1689-.1621,.3643-.2354,.585-.2192s.4639,.1631,.7305,.4419l1.2744,1.3325c.2412,.252,.373,.4502,.3955,.5942,.0488,.2925-.0283,.5356-.2314,.73-.2148,.2051-.4688,.2715-.7617,.1982-.1387-.0322-.3545-.2012-.6465-.5059l-1.0156,.9717Z"/><path d="M108.9663,19.9868l-.1963-.3203c-.2305,.3916-.5244,.7593-.8828,1.1025-.3574,.3438-.7051,.6187-1.043,.8252-.7334,.4482-1.4473,.6177-2.1426,.5083-.6963-.1094-1.1875-.3994-1.4756-.8706-.3496-.5732-.3828-1.2842-.0986-2.1323s.9424-1.5869,1.9736-2.2173c.4131-.2524,.918-.5,1.5146-.7422l-.1992-.3267c-.125-.2046-.3154-.3174-.5693-.3394-.2539-.0215-.6279,.1187-1.1211,.4199-.4053,.2471-.8809,.6475-1.4268,1.2012-.2051,.2046-.374,.3472-.5068,.4287-.1826,.1113-.377,.1401-.584,.0864s-.373-.1826-.4971-.3872c-.0713-.1152-.1104-.229-.1172-.3408-.0068-.1113,.0137-.2173,.0625-.3174,.0488-.0996,.1777-.2627,.3877-.4888,.2812-.2993,.5801-.5845,.8975-.8545,.3164-.27,.6182-.4922,.9023-.666,.8486-.5186,1.6191-.7378,2.3125-.6577,.6934,.0806,1.2334,.4385,1.6221,1.0737l1.7188,2.8135,.2334-.1426c.3291-.2012,.6016-.2808,.8193-.2397s.3887,.1641,.5137,.3682c.1221,.2002,.1514,.4062,.0889,.6187-.0625,.2119-.2578,.4185-.5869,.6196l-1.5996,.9775Zm-1.4951-2.4468c-.6123,.2275-1.1494,.4824-1.6113,.7646-.5557,.3394-.9502,.7671-1.1846,1.2822-.1436,.3257-.1602,.5771-.0518,.7549,.0791,.1289,.2021,.1968,.3711,.2036,.3125,.0107,.6611-.1021,1.0479-.3384,.3291-.2007,.6621-.4927,.999-.8755s.5996-.7842,.7881-1.2046l-.3584-.5869Z"/><path d="M113.5435,10.0551l.3477,.9375c.4609-.688,.8457-1.1753,1.1533-1.4614,.3076-.2866,.6201-.4888,.9375-.6064,.4883-.1812,1.0293-.1763,1.6221,.0146,.4033,.1279,.6514,.3188,.7461,.5728,.0801,.2148,.0723,.4243-.0205,.6284-.0938,.2046-.2461,.3457-.4561,.4233-.1855,.0688-.415,.0488-.6885-.0605-.2744-.1094-.4922-.1343-.6533-.0747-.21,.0781-.4746,.3267-.7939,.7451s-.6943,1.0078-1.123,1.7671l.8398,2.2632,2.1387-.7939c.3613-.1343,.6445-.1602,.8506-.0781,.2051,.082,.3496,.2354,.4326,.46,.082,.2197,.0713,.4277-.0303,.624-.1025,.1963-.334,.3613-.6953,.4956l-4.5342,1.6831c-.3613,.1338-.6445,.1602-.8496,.0781-.2061-.082-.3496-.2354-.4336-.46-.0811-.2197-.0713-.4277,.0312-.624,.1016-.1963,.334-.3613,.6953-.4956l.8936-.332-1.3545-3.647-.542,.2012c-.3613,.1338-.6445,.1602-.8506,.0781-.2051-.082-.3496-.2354-.4326-.46-.082-.2197-.0713-.4277,.0303-.624,.1025-.1963,.334-.3618,.6953-.4956l2.0439-.7588Z"/><path d="M124.4253,3.9297l1.6162,8.377,1.8867-.3643c.3779-.0728,.6621-.0518,.8516,.0625,.1895,.1147,.3066,.29,.3516,.5249,.0449,.2305,0,.4336-.1328,.6108-.1328,.1768-.3887,.3018-.7666,.3745l-5.3477,1.0312c-.3779,.0732-.6621,.0522-.8506-.0625-.1895-.1147-.3066-.2896-.3525-.5249-.0439-.23,0-.4336,.1328-.6104,.1338-.1768,.3887-.3018,.7676-.375l1.8867-.3638-1.3125-6.8042-1.2656,.2441c-.373,.0718-.6553,.0508-.8477-.0635-.1914-.1143-.3096-.2886-.3555-.5239-.0439-.2305,0-.4336,.1328-.6104,.1328-.1772,.3887-.3018,.7676-.375l2.8379-.5474Z"/><path d="M134.2798,12.8603l-3.0732-5.2739c-.2617-.0166-.4639-.0938-.6074-.2319s-.2207-.311-.2324-.519c-.0137-.2393,.0576-.4375,.2129-.5952,.1553-.1572,.4258-.2466,.8105-.2681l1.459-.0815c.3848-.0215,.6631,.0371,.835,.1763s.2646,.3281,.2783,.5674c.0137,.2339-.0576,.4297-.2139,.5869-.1553,.1572-.4102,.2461-.7637,.2656l2.0938,3.5684,1.666-3.7783c-.3428,.019-.6006-.041-.7725-.1797-.1719-.1392-.2646-.3281-.2783-.5674-.0127-.2344,.0576-.4297,.2139-.5874,.1553-.1572,.4258-.2466,.8105-.2681l1.5049-.0845c.3799-.021,.6553,.0376,.8281,.1768,.1719,.1392,.2646,.3281,.2783,.5674,.0117,.2134-.0488,.3979-.1807,.5542-.1318,.1558-.3359,.252-.6104,.2881l-3.2617,7.4282c.4004-.0225,.665,.002,.7939,.0728,.2588,.1475,.3965,.3691,.4131,.6655,.0127,.2344-.0576,.4297-.2139,.5874-.1553,.1572-.4258,.2466-.8105,.2681l-3.4863,.1953c-.3848,.0215-.6631-.0376-.835-.1768-.1729-.1387-.2656-.3252-.2783-.5596-.0137-.2393,.0576-.4375,.2129-.5947,.1562-.1572,.4258-.2466,.8105-.2681l1.5918-.0894,.8047-1.8447Z"/><path d="M152.8267,12.6596l-.3613,2.6001,.9521,.1323c.3818,.0527,.6436,.1641,.7861,.3335,.1416,.1699,.1963,.373,.1631,.6104-.0322,.2324-.1396,.4106-.3223,.5352s-.4658,.1602-.8467,.1074l-2.8096-.3901c-.3818-.0532-.6436-.1641-.7861-.334-.1416-.1694-.1963-.3701-.1641-.6025,.0322-.2373,.1416-.418,.3271-.542s.4668-.1602,.8438-.1079l.2705,.0376,.9941-7.1655-.2705-.0376c-.3818-.0532-.6436-.1646-.7852-.334-.1426-.1694-.1973-.373-.1641-.6104,.0322-.2319,.1396-.4106,.3223-.5347,.1836-.1245,.4658-.1606,.8477-.1074l1.8564,.2578-.0752,.5415c.4072-.2012,.8174-.3359,1.2314-.4048,.415-.0684,.8311-.0737,1.249-.0161,1.083,.1504,1.9551,.6465,2.6172,1.4873,.6611,.8413,.9258,1.7363,.7939,2.6855-.1445,1.0474-.7168,1.8486-1.7139,2.4043-.832,.4634-1.7197,.6289-2.6641,.498-.4072-.0566-.8018-.1719-1.1826-.3457s-.75-.4062-1.1094-.6982Zm5.083-2.0708c.0303-.2217-.0176-.5161-.1455-.8838-.1279-.3672-.3574-.6909-.6895-.9712-.332-.2798-.7432-.4541-1.2324-.522-.79-.1099-1.458,.1001-2.0049,.6289-.3711,.3638-.583,.7339-.6348,1.1104-.0586,.4233,.1094,.8662,.5059,1.3286,.3955,.4624,.9268,.7397,1.5918,.832,.6709,.0933,1.2578-.0278,1.7617-.3628s.7871-.7217,.8477-1.1602Z"/><path d="M165.52,8.5068l-.207,.978c.7578-.335,1.3428-.541,1.7559-.6191,.4131-.0776,.7852-.0815,1.1162-.0117,.5098,.1079,.9639,.4009,1.3633,.8789,.2725,.3242,.3809,.6182,.3242,.8833-.0469,.2241-.165,.3975-.3525,.52-.1885,.1226-.3926,.1606-.6113,.1147-.1943-.041-.377-.1807-.5508-.4199-.1729-.2388-.3438-.376-.5117-.4116-.2188-.0464-.5752,.0225-1.0693,.2056s-1.125,.481-1.8936,.8931l-.499,2.3623,2.2324,.4712c.377,.0801,.6299,.2095,.7598,.3887,.1299,.1787,.1699,.3857,.1211,.6201-.0488,.2295-.1689,.3994-.3594,.5107-.1914,.1113-.4756,.1274-.8525,.0479l-4.7314-1c-.3779-.0796-.6309-.209-.7607-.3882s-.1699-.3857-.1201-.6201c.0479-.2295,.168-.3999,.3594-.5112s.4746-.127,.8525-.0474l.9326,.1973,.8037-3.8066-.5654-.1196c-.377-.0796-.6309-.209-.7607-.3882s-.1699-.3857-.1201-.6206c.0488-.229,.168-.3994,.3594-.5107s.4756-.127,.8525-.0474l2.1328,.4507Z"/><path d="M178.8872,15.645c-.1611,.5933-.4824,1.1221-.9629,1.5879-.4805,.4653-1.0908,.7739-1.8311,.9258-.7412,.1514-1.4658,.1309-2.1738-.0625-.7031-.1919-1.333-.5376-1.8877-1.0366-.5547-.4995-.9248-1.0742-1.1084-1.7236-.1855-.6499-.1943-1.2783-.0283-1.8867,.168-.6177,.5049-1.1782,1.0088-1.6802,.5039-.5024,1.123-.8369,1.8564-1.0039,.7344-.167,1.4502-.1553,2.1484,.0352,.7041,.1919,1.333,.5508,1.8887,1.0776s.9189,1.1304,1.0889,1.811c.1709,.6812,.1709,1.333,.001,1.9561Zm-1.5469-.4136c.1357-.4976,.082-1.0034-.1611-1.5181-.334-.6953-.8975-1.1514-1.6914-1.3682-.6982-.1904-1.3428-.1255-1.9316,.1943-.5898,.3198-.9639,.7734-1.125,1.3613-.1309,.4824-.0176,.998,.3398,1.5464,.3584,.5483,.8809,.916,1.5693,1.104,.6934,.189,1.334,.1382,1.9209-.1528,.5859-.2905,.9463-.6797,1.0791-1.167Z"/><path d="M184.7905,15.3447l-.9941,3.0532c-.1064,.3267-.1094,.564-.0098,.7114,.1553,.2314,.5,.4336,1.0352,.6079,.7773,.2529,1.5498,.3208,2.3164,.2031,.2939-.0464,.5137-.0464,.6572,0,.1982,.0645,.3457,.1948,.4434,.3911,.0977,.1958,.1123,.4009,.043,.6138-.0645,.1978-.1992,.3428-.4043,.4351-.3184,.1538-.8672,.2119-1.6465,.1748s-1.4141-.1353-1.9043-.2949c-.9463-.3076-1.5898-.7432-1.9297-1.3052-.3398-.5625-.4131-1.1411-.2197-1.7354l1.0898-3.3506-.5498-.1787c-.3662-.1196-.6045-.2749-.7148-.4668s-.1279-.4019-.0537-.6299c.0723-.2227,.209-.3794,.4111-.4697s.4863-.0762,.8525,.043l.5498,.1792,.4473-1.3745c.1191-.3667,.2754-.605,.4668-.7148,.1924-.1104,.4023-.1284,.6299-.0542,.2227,.0728,.3789,.21,.4697,.4116,.0908,.2021,.0762,.4863-.043,.853l-.4473,1.374,2.8154,.916c.3662,.1196,.6045,.2749,.7148,.4668s.1279,.4019,.0537,.6299c-.0723,.2227-.209,.3794-.4111,.4697s-.4863,.0762-.8525-.043l-2.8154-.916Z"/><path d="M197.9263,22.1845c-.2129,.5767-.5781,1.0762-1.0977,1.498-.5186,.4224-1.1543,.6768-1.9043,.7637-.751,.0869-1.4707,.0034-2.1602-.25-.6846-.2524-1.2812-.6514-1.791-1.1968-.5088-.5459-.8271-1.1504-.9551-1.8135s-.082-1.29,.1357-1.8813c.2207-.6011,.6045-1.1304,1.1504-1.5869s1.1914-.7363,1.9365-.8394c.7461-.1025,1.458-.0288,2.1377,.2212,.6846,.2524,1.2803,.6646,1.7881,1.2373,.5078,.5732,.8174,1.2061,.9277,1.8989,.1113,.6934,.0547,1.3428-.168,1.9487Zm-1.5059-.5464c.1787-.4839,.1689-.9922-.0293-1.5259-.2725-.7217-.7939-1.2251-1.5664-1.5098-.6797-.25-1.3262-.2417-1.9414,.0259-.6143,.2676-1.0273,.6875-1.2383,1.2593-.1729,.4688-.1045,.9922,.2051,1.5693,.3086,.5776,.7979,.9897,1.4678,1.2363,.6738,.2485,1.3164,.2534,1.9258,.0142,.6104-.2388,1.002-.5952,1.1768-1.0693Z"/><path d="M203.855,22.2925l-1.2256,2.9678c-.1309,.3179-.1523,.5542-.0645,.7085,.1367,.2427,.4648,.4712,.9854,.6855,.7549,.312,1.519,.439,2.2925,.3809,.2979-.0239,.5156-.0068,.6553,.0508,.1934,.0796,.3301,.2207,.4131,.4238,.082,.2031,.0811,.4082-.0049,.6152-.0791,.1924-.2246,.3267-.4365,.4028-.3291,.1289-.8809,.1445-1.6548,.0479-.7744-.0972-1.3994-.2441-1.876-.4409-.9199-.3794-1.5273-.8628-1.8232-1.4497s-.3242-1.1694-.0859-1.7471l1.3447-3.2568-.5342-.2207c-.3564-.147-.582-.3203-.6777-.52-.0947-.2002-.0967-.4106-.0049-.6323,.0889-.2163,.2383-.3623,.4463-.4365,.208-.0747,.4902-.0386,.8467,.1084l.5352,.2207,.5508-1.3359c.1475-.356,.3203-.582,.5205-.6768,.2002-.0952,.4102-.0967,.6318-.0054,.2168,.0894,.3618,.2383,.436,.4463,.0752,.2085,.0391,.4907-.1084,.8472l-.5513,1.3359,2.7368,1.1299c.3564,.147,.582,.3203,.6768,.52s.0967,.4106,.0059,.6318c-.0898,.2168-.2383,.3623-.4473,.437-.208,.0747-.4902,.0386-.8467-.1089l-2.7358-1.1294Z"/><path d="M210.3154,31.1455l-.0801-6.1035c-.2197-.1436-.3584-.3105-.415-.501-.0576-.1909-.0391-.3794,.0527-.5664,.1064-.2148,.2656-.3525,.4785-.4131s.4922-.0054,.8379,.1655l1.3096,.6465c.3457,.1704,.5596,.3589,.6406,.5645s.0693,.416-.0371,.6309c-.1035,.2104-.2617,.3457-.4746,.4062-.2129,.0601-.4785,.0122-.7959-.1445l.0664,4.1362,3.3105-2.4697c-.3086-.1519-.5029-.3311-.585-.5366-.0811-.2056-.0684-.416,.0371-.6309,.1035-.21,.2627-.3457,.4746-.4058,.2129-.0605,.4922-.0059,.8379,.165l1.3525,.6675c.3408,.168,.5518,.355,.6328,.561,.082,.2056,.0693,.416-.0361,.6309-.0947,.1914-.2383,.3228-.4297,.3936-.1924,.0708-.416,.0542-.6729-.0493l-6.4951,4.8618c.3594,.1777,.5781,.3291,.6553,.4546,.1533,.2554,.1641,.5161,.0322,.7822-.1035,.2104-.2617,.3457-.4746,.4062-.2129,.0601-.4922,.0054-.8379-.1655l-3.1309-1.5459c-.3457-.1704-.5596-.3584-.6406-.5645-.082-.2056-.0703-.4136,.0332-.6235,.1064-.2148,.2656-.3525,.4785-.4131s.4922-.0054,.8379,.165l1.4287,.7056,1.6084-1.21Z"/><path d="M218.5361,34.4843l-1.3008,2.2798,.835,.4761c.335,.1909,.5361,.3916,.6055,.6021,.0684,.21,.0439,.4194-.0752,.6274-.1162,.2036-.2822,.3291-.498,.377-.2158,.0474-.4912-.0244-.8262-.2153l-2.4629-1.4058c-.335-.1909-.5371-.3916-.6055-.6016-.0693-.2104-.0459-.4175,.0703-.6211,.1191-.208,.2871-.335,.5059-.3813s.4922,.0249,.8232,.2134l.2373,.1353,3.585-6.2832-.2373-.1357c-.335-.1909-.5361-.3916-.6055-.6016-.0684-.2104-.0439-.4194,.0752-.6274,.1162-.2036,.2822-.3296,.498-.377,.2158-.0479,.4912,.0239,.8262,.2153l1.6289,.9292-.2715,.4751c.4521-.0361,.8838-.0088,1.2939,.0815,.4102,.0898,.7988,.2397,1.165,.4487,.9502,.542,1.5752,1.3267,1.877,2.353,.3018,1.0269,.2148,1.9565-.2598,2.7886-.5244,.9185-1.3525,1.4502-2.4844,1.5957-.9443,.1206-1.8311-.0552-2.6582-.5278-.3574-.2036-.6807-.457-.9697-.7598s-.5459-.6567-.7715-1.0605Zm5.4893-.0347c.1104-.1943,.1748-.4858,.1934-.8745,.0176-.3887-.0752-.7744-.2793-1.1577s-.5215-.6978-.9512-.9429c-.6924-.395-1.3896-.4482-2.0938-.1606-.4805,.2002-.8145,.4653-1.0029,.7954-.2119,.3706-.2197,.8447-.0234,1.4209,.1953,.5767,.585,1.0312,1.1689,1.3643,.5879,.3354,1.1777,.4414,1.7705,.3179,.5918-.124,.998-.3779,1.2178-.7627Z"/><path d="M233.1143,41.268l-5.5107-3.5781c-.0869,.4399-.0225,.8828,.1953,1.3281,.2168,.4453,.6289,.8647,1.2363,1.2593,.498,.3232,1.2285,.646,2.1934,.9678,.3975,.1338,.6621,.2437,.793,.3286,.1787,.1162,.2891,.2773,.3291,.4834s-.0029,.4053-.1279,.5977c-.1133,.1748-.2754,.2808-.4854,.3179-.2803,.0483-.8057-.0742-1.5781-.3677-.7715-.2935-1.4697-.6431-2.0947-1.0483-1.0742-.6978-1.7373-1.5596-1.9873-2.585s-.0869-1.9819,.4893-2.8687c.6123-.9434,1.459-1.4849,2.54-1.6245s2.0762,.0859,2.9844,.6758c.5459,.3545,.9854,.7759,1.3164,1.2646,.332,.4888,.5371,.9165,.6152,1.2842,.1045,.5273,.1045,1.0957,.001,1.7056-.0762,.4224-.2559,.8525-.5391,1.2891l-.3701,.5703Zm-.6152-2.3091c.0439-.5181-.0381-.9795-.2461-1.3853-.209-.4053-.543-.7573-1.001-1.0552-.4551-.2949-.9092-.4551-1.3652-.4805-.4551-.0259-.9121,.0859-1.3711,.334l3.9834,2.5869Z"/><path d="M240.875,43.8066c-.1143-.2842-.2637-.5435-.4463-.7778-.1836-.2349-.4014-.4443-.6533-.6289-.5-.3667-.957-.5757-1.3711-.6274-.1826-.0239-.3047,.0059-.3662,.0898-.0703,.0967-.0518,.2559,.0566,.4775,.0859,.166,.3379,.4512,.7578,.856,.7715,.7461,1.2812,1.3008,1.5312,1.6646,.3271,.479,.498,.9595,.5127,1.4414,.0146,.4824-.1025,.8936-.3525,1.2334-.3379,.4624-.8252,.6992-1.4609,.7114-.9131,.0215-1.8359-.3096-2.7686-.9932-.374-.2739-.6953-.5596-.9648-.8574-.2695-.2974-.4902-.6064-.6631-.9263-.1025,.0083-.2002,.001-.2939-.022-.0928-.0229-.1768-.062-.2529-.1172-.2012-.1479-.3135-.332-.3359-.5518-.0225-.2202,.0801-.4858,.3076-.7964l.3184-.4351c.2285-.3105,.4502-.4883,.667-.5332,.2168-.0444,.4219,.0039,.6152,.146,.1553,.1138,.2539,.2524,.2959,.4155s.0146,.3711-.0801,.624c.0742,.313,.2188,.6138,.4326,.9033,.2139,.2891,.502,.5664,.8633,.8311,.5918,.4341,1.1201,.6792,1.583,.7344,.2227,.0215,.3721-.0181,.4453-.1191,.123-.168,.1133-.3882-.0293-.6606s-.5342-.7017-1.1758-1.2886c-.958-.8696-1.4971-1.5879-1.6182-2.1543-.124-.562-.0205-1.0679,.3086-1.5176,.3389-.4619,.8154-.7031,1.4316-.7236,.8369-.0317,1.6836,.2661,2.541,.894,.2979,.2188,.5645,.4575,.7979,.7158s.4326,.5386,.5986,.8408c.123,0,.2295,.0107,.3213,.0317,.0908,.0215,.165,.0537,.2236,.0967,.1768,.1294,.2754,.3032,.2959,.522s-.083,.4834-.3105,.7939l-.2314,.3154c-.2061,.2812-.3799,.4478-.5205,.4995-.2764,.0942-.5303,.0571-.7607-.1123-.1553-.1138-.2568-.2622-.3037-.4448-.0469-.1831-.0283-.3667,.0547-.5508Z"/></g></svg>