<?xml version="1.0" encoding="utf-8"?>
<!-- Generator: Adobe Illustrator 26.3.1, SVG Export Plug-In . SVG Version: 6.00 Build 0)  -->
<svg version="1.1" id="Layer_1" xmlns="http://www.w3.org/2000/svg" xmlns:xlink="http://www.w3.org/1999/xlink" x="0px" y="0px"
	 viewBox="0 0 1347.5 131.5" style="enable-background:new 0 0 1347.5 131.5;" xml:space="preserve">
<style type="text/css">
	.st0{fill:none;stroke:#000000;stroke-width:5;stroke-linecap:round;stroke-linejoin:round;}
</style>
<g>
	<path class="st0" d="M636.8,57c-4.7-3-9.3-6-14-9l-27.9,0.2V67h-9.1l9.1,50.6h82.9V56.9C664.1,56.9,650.5,57,636.8,57L636.8,57z"/>
	<polyline class="st0" points="677.9,117.6 668.8,67 594.9,67 	"/>
</g>
<g>
	<path d="M143.5,22.8l0.9,5.1l8.8-1.6l-0.3-1.9c-0.2-0.8-0.1-1.4,0.2-1.9c0.3-0.4,0.6-0.7,1.2-0.8c0.5-0.1,0.9,0,1.3,0.3
		s0.7,0.9,0.8,1.7l1,5.3l-16.2,3c-0.8,0.2-1.4,0.1-1.9-0.2c-0.4-0.3-0.7-0.6-0.8-1.2c-0.1-0.5,0-0.9,0.3-1.3
		c0.3-0.4,0.9-0.7,1.7-0.8l0.5-0.1L138.5,15l-0.5,0.1c-0.8,0.2-1.4,0.1-1.9-0.2c-0.4-0.3-0.7-0.6-0.8-1.2c-0.1-0.5,0-1,0.3-1.3
		c0.3-0.4,0.9-0.7,1.7-0.8l15.5-2.8l1,5.2c0.2,0.8,0.1,1.4-0.1,1.8c-0.2,0.4-0.6,0.7-1.1,0.8s-1,0-1.3-0.3c-0.4-0.3-0.7-0.8-0.8-1.7
		l-0.3-1.8l-8,1.5l0.9,5l3-0.6c-0.2-0.9-0.2-1.5-0.1-1.8c0.2-0.6,0.7-1,1.3-1.1c0.5-0.1,0.9,0,1.3,0.3c0.4,0.3,0.7,0.9,0.8,1.7
		l0.7,4c0.1,0.8,0.1,1.3,0,1.6c-0.3,0.6-0.7,0.9-1.3,1.1c-0.6,0.1-1.2-0.1-1.6-0.6c-0.2-0.2-0.4-0.8-0.6-1.7L143.5,22.8L143.5,22.8z
		"/>
	<path d="M172.8,27.9l0-0.8c-0.9,0.5-1.8,0.9-2.8,1.2c-1,0.3-2,0.5-2.9,0.5c-1.9,0.1-3.4-0.3-4.7-1.2c-1.2-0.9-1.9-2-1.9-3.2
		c-0.1-1.5,0.6-2.9,2-4.2c1.4-1.3,3.5-2.1,6.1-2.2c1.1-0.1,2.3,0,3.7,0.1l0-0.8c0-0.5-0.3-0.9-0.7-1.2c-0.5-0.3-1.3-0.4-2.6-0.4
		c-1,0.1-2.4,0.3-4,0.8c-0.6,0.2-1.1,0.3-1.4,0.3c-0.5,0-0.9-0.1-1.2-0.4s-0.5-0.7-0.6-1.3c0-0.3,0-0.6,0.1-0.8
		c0.1-0.2,0.3-0.4,0.4-0.5c0.2-0.1,0.6-0.3,1.3-0.5c0.9-0.3,1.7-0.5,2.6-0.7s1.7-0.3,2.4-0.3c2.2-0.1,3.9,0.3,5.1,1.1s1.9,2.1,2,3.7
		l0.4,7.2l0.6,0c0.8,0,1.5,0.1,1.8,0.4c0.4,0.3,0.6,0.7,0.6,1.2c0,0.5-0.1,0.9-0.5,1.3c-0.3,0.3-0.9,0.5-1.8,0.6L172.8,27.9
		L172.8,27.9z M172.5,21.7c-1.4-0.2-2.7-0.3-3.9-0.2c-1.4,0.1-2.6,0.5-3.6,1.2c-0.6,0.5-0.9,0.9-0.9,1.4c0,0.3,0.2,0.6,0.5,0.8
		c0.6,0.3,1.4,0.5,2.4,0.4c0.8,0,1.8-0.3,2.8-0.7c1-0.4,2-0.9,2.8-1.5L172.5,21.7L172.5,21.7z"/>
	<path d="M191.4,12.8l-0.2,2.2c1.6-0.9,2.8-1.5,3.6-1.8c0.9-0.3,1.7-0.4,2.4-0.3c1.1,0.1,2.2,0.6,3.2,1.5c0.7,0.6,1,1.2,1,1.8
		c0,0.5-0.2,0.9-0.6,1.2c-0.4,0.3-0.8,0.5-1.3,0.4c-0.4,0-0.9-0.3-1.3-0.8c-0.4-0.5-0.9-0.7-1.2-0.8c-0.5,0-1.2,0.2-2.3,0.7
		s-2.3,1.4-3.9,2.5l-0.4,5.3l5,0.4c0.8,0.1,1.4,0.3,1.8,0.6c0.3,0.4,0.5,0.8,0.4,1.3c0,0.5-0.3,0.9-0.6,1.2c-0.4,0.3-1,0.4-1.8,0.3
		l-10.5-0.9c-0.8-0.1-1.4-0.3-1.8-0.6c-0.3-0.4-0.5-0.8-0.4-1.3c0-0.5,0.3-0.9,0.6-1.2c0.4-0.3,1-0.4,1.8-0.3l2.1,0.2l0.7-8.5
		l-1.3-0.1c-0.8-0.1-1.4-0.3-1.8-0.6c-0.3-0.4-0.5-0.8-0.4-1.3c0-0.5,0.3-0.9,0.6-1.2c0.4-0.3,1-0.4,1.8-0.3L191.4,12.8L191.4,12.8z
		"/>
	<path d="M218.4,10.3l-4.2,18.2l4.1,0.9c0.8,0.2,1.4,0.5,1.6,0.9s0.4,0.9,0.2,1.4c-0.1,0.5-0.4,0.9-0.8,1.1c-0.4,0.2-1,0.3-1.9,0.1
		l-11.6-2.7c-0.8-0.2-1.4-0.5-1.6-0.9c-0.3-0.4-0.4-0.9-0.2-1.4c0.1-0.5,0.4-0.9,0.8-1.1c0.4-0.2,1-0.3,1.9-0.1l4.1,0.9l3.4-14.8
		l-2.7-0.6c-0.8-0.2-1.4-0.5-1.6-0.9c-0.3-0.4-0.4-0.9-0.2-1.4c0.1-0.5,0.4-0.9,0.8-1.1c0.4-0.2,1-0.3,1.9-0.1L218.4,10.3
		L218.4,10.3z"/>
	<path d="M230.1,37l-1.3-13.3c-0.5-0.3-0.8-0.6-1-1s-0.2-0.8,0-1.2c0.2-0.5,0.5-0.8,1-1s1.1-0.1,1.9,0.2l3,1.2
		c0.8,0.3,1.3,0.7,1.5,1.1c0.2,0.4,0.2,0.9,0,1.4c-0.2,0.5-0.5,0.8-1,1c-0.5,0.2-1,0.1-1.8-0.2l0.9,9l6.8-6
		c-0.7-0.3-1.2-0.6-1.4-1.1s-0.2-0.9,0-1.4c0.2-0.5,0.5-0.8,1-1c0.5-0.2,1.1-0.1,1.9,0.2l3.1,1.2c0.8,0.3,1.3,0.7,1.5,1.1
		s0.2,0.9,0,1.4c-0.2,0.4-0.5,0.7-0.9,0.9c-0.4,0.2-0.9,0.2-1.5,0l-13.3,11.7c0.8,0.3,1.3,0.6,1.5,0.9c0.4,0.5,0.4,1.1,0.2,1.7
		c-0.2,0.5-0.5,0.8-1,1c-0.5,0.2-1.1,0.1-1.9-0.2l-7.1-2.8c-0.8-0.3-1.3-0.7-1.5-1.1c-0.2-0.4-0.2-0.9,0-1.4c0.2-0.5,0.5-0.8,1-1
		c0.5-0.2,1.1-0.1,1.9,0.2l3.2,1.3L230.1,37L230.1,37z"/>
	<path d="M266.8,54.1l-3.1,4.8l1.8,1.1c0.7,0.5,1.1,0.9,1.3,1.4c0.1,0.5,0,0.9-0.2,1.4c-0.3,0.4-0.7,0.7-1.1,0.8
		c-0.5,0.1-1.1-0.1-1.8-0.6l-5.2-3.4c-0.7-0.5-1.1-0.9-1.3-1.4c-0.1-0.5-0.1-0.9,0.2-1.3c0.3-0.4,0.7-0.7,1.1-0.8
		c0.5-0.1,1.1,0.1,1.8,0.6l0.5,0.3l8.5-13.3l-0.5-0.3c-0.7-0.5-1.1-0.9-1.3-1.4c-0.1-0.5,0-0.9,0.2-1.4c0.3-0.4,0.7-0.7,1.1-0.8
		c0.5-0.1,1.1,0.1,1.8,0.6l3.5,2.2l-0.6,1c1,0,1.9,0.1,2.8,0.3s1.7,0.6,2.5,1.1c2,1.3,3.3,3.1,3.8,5.4c0.5,2.3,0.2,4.3-0.9,6.1
		c-1.2,1.9-3.1,3-5.6,3.2c-2.1,0.2-4-0.3-5.7-1.5c-0.8-0.5-1.4-1.1-2-1.8C267.8,55.8,267.3,55,266.8,54.1L266.8,54.1z M278.8,54.7
		c0.3-0.4,0.4-1,0.5-1.9c0.1-0.8-0.1-1.7-0.5-2.6c-0.4-0.9-1.1-1.6-2-2.2c-1.5-0.9-3-1.1-4.6-0.6c-1.1,0.4-1.8,0.9-2.3,1.6
		c-0.5,0.8-0.6,1.8-0.2,3.1c0.4,1.3,1.2,2.3,2.4,3.1c1.2,0.8,2.5,1.1,3.8,0.9C277.4,56,278.3,55.5,278.8,54.7L278.8,54.7z"/>
	<path d="M295.5,56.4l-1.2,1.9c1.8-0.1,3.2-0.1,4.1,0.1c0.9,0.2,1.7,0.4,2.3,0.8c1,0.6,1.7,1.6,2.1,2.8c0.3,0.9,0.3,1.6,0,2.1
		c-0.3,0.4-0.6,0.7-1.1,0.8s-0.9,0-1.3-0.2c-0.4-0.2-0.6-0.7-0.8-1.3c-0.2-0.6-0.4-1-0.7-1.2c-0.4-0.3-1.2-0.4-2.3-0.4
		s-2.7,0.1-4.6,0.4l-2.8,4.5l4.2,2.7c0.7,0.4,1.1,0.9,1.3,1.4c0.1,0.5,0.1,0.9-0.2,1.4c-0.3,0.4-0.6,0.7-1.1,0.8
		c-0.5,0.1-1.1-0.1-1.8-0.5l-9-5.6c-0.7-0.4-1.1-0.9-1.3-1.4s-0.1-0.9,0.2-1.4c0.3-0.4,0.6-0.7,1.1-0.8c0.5-0.1,1.1,0.1,1.8,0.5
		l1.8,1.1l4.5-7.2l-1.1-0.7c-0.7-0.4-1.1-0.9-1.3-1.4c-0.1-0.5-0.1-0.9,0.2-1.4c0.3-0.4,0.6-0.7,1.1-0.8s1.1,0.1,1.8,0.5L295.5,56.4
		L295.5,56.4z"/>
	<path d="M319.3,79.2c-0.6,1.2-1.6,2.2-2.8,2.9c-1.2,0.8-2.7,1.1-4.4,1.1s-3.2-0.4-4.6-1.2c-1.4-0.7-2.6-1.8-3.5-3.1
		c-0.9-1.3-1.5-2.7-1.5-4.2c-0.1-1.5,0.2-2.8,0.8-4c0.7-1.2,1.6-2.3,3-3.1c1.3-0.8,2.8-1.2,4.4-1.2c1.6,0,3.2,0.4,4.6,1.1
		c1.4,0.7,2.6,1.8,3.5,3.2c0.9,1.4,1.4,2.9,1.5,4.4C320.2,76.6,319.9,78,319.3,79.2L319.3,79.2z M316.2,77.6c0.5-1,0.7-2.1,0.4-3.3
		c-0.4-1.6-1.4-2.9-3-3.7c-1.4-0.7-2.8-0.9-4.2-0.5c-1.4,0.4-2.4,1.2-3.1,2.4c-0.5,1-0.5,2.1,0,3.5s1.4,2.4,2.8,3.1
		c1.4,0.7,2.8,0.9,4.2,0.6C314.7,79.2,315.6,78.6,316.2,77.6z"/>
	<path d="M332.7,80l-2.6,6.5c-0.3,0.7-0.3,1.2-0.1,1.6c0.3,0.5,1,1,2.2,1.5c1.7,0.7,3.3,0.9,5,0.8c0.6-0.1,1.1,0,1.4,0.1
		c0.4,0.2,0.7,0.5,0.9,0.9s0.2,0.9,0,1.3c-0.2,0.4-0.5,0.7-0.9,0.9c-0.7,0.3-1.9,0.3-3.6,0.1c-1.7-0.2-3.1-0.5-4.1-0.9
		c-2-0.8-3.4-1.8-4-3.1s-0.7-2.5-0.2-3.8l2.9-7.2l-1.2-0.5c-0.8-0.3-1.3-0.7-1.5-1.1s-0.2-0.9,0-1.4c0.2-0.5,0.5-0.8,1-1
		c0.5-0.2,1.1-0.1,1.9,0.2l1.2,0.5l1.2-2.9c0.3-0.8,0.7-1.3,1.1-1.5c0.4-0.2,0.9-0.2,1.4,0c0.5,0.2,0.8,0.5,1,1
		c0.2,0.5,0.1,1.1-0.2,1.9l-1.2,2.9l6,2.4c0.8,0.3,1.3,0.7,1.5,1.1c0.2,0.4,0.2,0.9,0,1.4c-0.2,0.5-0.5,0.8-1,1
		c-0.5,0.2-1.1,0.1-1.9-0.2L332.7,80L332.7,80z"/>
	<path d="M362.1,94.1c-0.4,1.3-1.1,2.5-2.1,3.5c-1.1,1-2.4,1.7-4,2c-1.6,0.3-3.2,0.3-4.8-0.1c-1.5-0.4-2.9-1.2-4.1-2.3
		c-1.2-1.1-2-2.3-2.4-3.8s-0.4-2.8-0.1-4.1c0.4-1.4,1.1-2.6,2.2-3.7c1.1-1.1,2.5-1.8,4.1-2.2c1.6-0.4,3.2-0.3,4.7,0.1
		c1.5,0.4,2.9,1.2,4.1,2.4c1.2,1.2,2,2.5,2.4,4S362.5,92.7,362.1,94.1L362.1,94.1z M358.7,93.2c0.3-1.1,0.2-2.2-0.4-3.3
		c-0.7-1.5-2-2.5-3.7-3c-1.5-0.4-2.9-0.3-4.2,0.4c-1.3,0.7-2.1,1.7-2.5,3c-0.3,1.1,0,2.2,0.7,3.4s1.9,2,3.4,2.4
		c1.5,0.4,2.9,0.3,4.2-0.3C357.6,95.1,358.4,94.2,358.7,93.2L358.7,93.2z"/>
	<path d="M375.3,91.8l-1.1,6.9c-0.1,0.7,0,1.3,0.2,1.5c0.4,0.4,1.2,0.8,2.4,1c1.8,0.3,3.5,0.2,5.1-0.4c0.6-0.2,1.1-0.3,1.4-0.2
		c0.5,0.1,0.8,0.3,1.1,0.7s0.4,0.8,0.3,1.3c-0.1,0.5-0.3,0.8-0.7,1.1c-0.6,0.4-1.8,0.8-3.5,1c-1.7,0.2-3.1,0.2-4.2,0
		c-2.2-0.3-3.7-1.1-4.6-2.1s-1.3-2.3-1.1-3.7l1.2-7.6l-1.2-0.2c-0.8-0.1-1.4-0.4-1.7-0.8c-0.3-0.4-0.4-0.8-0.3-1.3
		c0.1-0.5,0.3-0.9,0.7-1.2c0.4-0.3,1-0.3,1.9-0.2l1.2,0.2l0.5-3.1c0.1-0.8,0.4-1.4,0.8-1.7c0.4-0.3,0.8-0.4,1.3-0.3
		c0.5,0.1,0.9,0.3,1.2,0.7c0.3,0.4,0.3,1,0.2,1.9l-0.5,3.1l6.4,1c0.8,0.1,1.4,0.4,1.7,0.8c0.3,0.4,0.4,0.8,0.3,1.3
		c-0.1,0.5-0.3,0.9-0.7,1.2c-0.4,0.3-1,0.3-1.9,0.2L375.3,91.8L375.3,91.8z"/>
	<path d="M395.7,106l-5.5-12.2c-0.6-0.1-1-0.3-1.3-0.6c-0.3-0.3-0.4-0.7-0.4-1.2c0-0.5,0.2-0.9,0.6-1.2c0.4-0.3,1-0.4,1.8-0.4
		l3.2,0.2c0.8,0,1.4,0.2,1.8,0.6c0.3,0.3,0.5,0.8,0.5,1.3c0,0.5-0.2,0.9-0.6,1.2c-0.4,0.3-0.9,0.4-1.7,0.4l3.7,8.2l4.5-7.8
		c-0.8,0-1.3-0.2-1.6-0.6c-0.3-0.3-0.5-0.8-0.5-1.3c0-0.5,0.2-0.9,0.6-1.2c0.4-0.3,1-0.4,1.8-0.4l3.3,0.2c0.8,0,1.4,0.2,1.8,0.6
		c0.3,0.3,0.5,0.8,0.5,1.3c0,0.5-0.2,0.9-0.5,1.2s-0.8,0.5-1.4,0.5l-8.8,15.4c0.9,0,1.4,0.2,1.7,0.3c0.5,0.4,0.8,0.9,0.7,1.5
		c0,0.5-0.2,0.9-0.6,1.2c-0.4,0.3-1,0.4-1.8,0.4l-7.6-0.4c-0.8,0-1.4-0.2-1.8-0.6c-0.3-0.3-0.5-0.8-0.5-1.3c0-0.5,0.2-0.9,0.6-1.2
		c0.4-0.3,1-0.4,1.8-0.4l3.5,0.2L395.7,106L395.7,106z"/>
	<path d="M416.5,104.5l0.3,5.7l2.1-0.1c0.8,0,1.5,0.1,1.8,0.4c0.4,0.3,0.6,0.7,0.6,1.2c0,0.5-0.1,0.9-0.5,1.3
		c-0.3,0.3-0.9,0.5-1.8,0.6l-6.2,0.3c-0.8,0-1.5-0.1-1.8-0.4c-0.4-0.3-0.6-0.7-0.6-1.2c0-0.5,0.1-1,0.5-1.3c0.3-0.3,0.9-0.5,1.8-0.6
		l0.6,0l-0.7-15.8l-0.6,0c-0.8,0-1.4-0.1-1.8-0.4c-0.4-0.3-0.6-0.7-0.6-1.2c0-0.5,0.1-0.9,0.5-1.3c0.3-0.3,0.9-0.5,1.8-0.6l4.1-0.2
		l0.1,1.2c0.8-0.6,1.6-1,2.5-1.4c0.9-0.3,1.8-0.5,2.7-0.5c2.4-0.1,4.5,0.6,6.2,2.1c1.8,1.5,2.7,3.4,2.8,5.5c0.1,2.3-0.8,4.3-2.7,5.9
		c-1.6,1.3-3.4,2-5.5,2.1c-0.9,0-1.8,0-2.7-0.3C418.3,105.3,417.4,105,416.5,104.5L416.5,104.5z M426.6,98c0-0.5-0.2-1.1-0.7-1.8
		c-0.4-0.7-1-1.3-1.9-1.8c-0.8-0.5-1.8-0.7-2.9-0.6c-1.7,0.1-3.1,0.8-4.1,2.2c-0.7,0.9-1,1.8-0.9,2.6c0,0.9,0.6,1.8,1.6,2.7
		c1,0.8,2.3,1.2,3.8,1.2c1.5-0.1,2.7-0.6,3.6-1.5C426.2,99.9,426.6,99,426.6,98L426.6,98z"/>
	<path d="M451.9,97l-14.2,1.9c0.5,0.9,1.2,1.5,2.2,1.9c1,0.4,2.3,0.5,3.8,0.3c1.3-0.2,3-0.7,5-1.5c0.9-0.3,1.4-0.5,1.8-0.6
		c0.5-0.1,0.9,0.1,1.2,0.3c0.4,0.3,0.6,0.7,0.6,1.2c0.1,0.5-0.1,0.9-0.4,1.2c-0.4,0.5-1.4,1-3.1,1.6s-3.4,1-5,1.2
		c-2.8,0.4-5.1-0.1-7-1.5c-1.9-1.3-3-3.2-3.3-5.5c-0.3-2.4,0.3-4.5,1.9-6.3c1.6-1.8,3.6-2.8,5.9-3.1c1.4-0.2,2.7-0.1,4,0.2
		c1.2,0.3,2.2,0.8,2.8,1.3c0.9,0.7,1.7,1.7,2.4,2.8c0.5,0.8,0.8,1.8,0.9,2.9L451.9,97L451.9,97z M447.6,94.1c-0.7-0.9-1.5-1.6-2.4-2
		c-0.9-0.4-2-0.5-3.2-0.3c-1.2,0.2-2.2,0.5-3,1.1s-1.4,1.4-1.8,2.5L447.6,94.1L447.6,94.1z"/>
	<path d="M468,88.3c-0.6-0.2-1.3-0.4-1.9-0.4s-1.3,0-2,0.1c-1.3,0.3-2.3,0.7-3,1.3c-0.3,0.3-0.4,0.5-0.4,0.7
		c0.1,0.3,0.3,0.5,0.9,0.6c0.4,0.1,1.2,0.1,2.5,0c2.3-0.2,4-0.2,4.9-0.1c1.3,0.2,2.3,0.6,3.1,1.3c0.8,0.7,1.3,1.5,1.5,2.4
		c0.3,1.2-0.1,2.4-1,3.4c-1.3,1.5-3.2,2.5-5.7,3.1c-1,0.2-1.9,0.3-2.8,0.3c-0.9,0-1.7-0.1-2.5-0.3c-0.1,0.2-0.3,0.3-0.5,0.4
		c-0.2,0.1-0.4,0.2-0.6,0.2c-0.5,0.1-1,0-1.4-0.3c-0.4-0.3-0.7-0.8-0.8-1.7l-0.2-1.2c-0.2-0.8-0.1-1.4,0.1-1.9
		c0.2-0.4,0.6-0.7,1.1-0.8c0.4-0.1,0.8,0,1.1,0.1s0.6,0.5,0.9,1c0.6,0.3,1.3,0.5,2.1,0.6s1.7,0,2.6-0.2c1.6-0.3,2.7-0.8,3.5-1.5
		c0.4-0.3,0.5-0.6,0.5-0.9c-0.1-0.4-0.5-0.8-1.1-0.9c-0.7-0.2-1.9-0.2-3.8,0c-2.8,0.3-4.8,0.1-5.9-0.5c-1.1-0.6-1.8-1.5-2-2.7
		c-0.3-1.2,0-2.4,0.9-3.4c1.2-1.4,2.9-2.4,5.2-2.8c0.8-0.2,1.6-0.3,2.3-0.3c0.8,0,1.5,0.1,2.2,0.3c0.2-0.2,0.4-0.4,0.5-0.5
		c0.2-0.1,0.3-0.2,0.5-0.2c0.5-0.1,0.9,0,1.3,0.3s0.7,0.8,0.8,1.7l0.2,0.8c0.2,0.7,0.2,1.3,0.1,1.6c-0.2,0.6-0.7,0.9-1.3,1.1
		c-0.4,0.1-0.8,0-1.2-0.2C468.5,89,468.2,88.7,468,88.3L468,88.3z"/>
</g>
<g>
	<path d="M833.2,51.8l2.5,4.5l7.8-4.4l-0.9-1.6c-0.4-0.7-0.6-1.3-0.5-1.8c0.1-0.5,0.4-0.8,0.8-1.1c0.4-0.3,0.9-0.3,1.4-0.2
		c0.5,0.2,0.9,0.6,1.3,1.3l2.7,4.7l-14.3,8.1c-0.7,0.4-1.3,0.6-1.8,0.5c-0.5-0.1-0.8-0.4-1.1-0.8c-0.3-0.4-0.3-0.9-0.1-1.4
		c0.2-0.5,0.6-0.9,1.3-1.3l0.5-0.3l-6.8-11.9l-0.5,0.3c-0.7,0.4-1.3,0.6-1.8,0.5c-0.5-0.1-0.8-0.4-1.1-0.8c-0.3-0.5-0.3-0.9-0.2-1.4
		c0.2-0.5,0.6-0.9,1.3-1.3l13.7-7.7l2.6,4.6c0.4,0.7,0.6,1.3,0.5,1.8c-0.1,0.5-0.4,0.8-0.8,1.1c-0.5,0.3-0.9,0.3-1.4,0.2
		c-0.5-0.1-0.9-0.6-1.3-1.3l-0.9-1.6l-7.1,4l2.5,4.4l2.7-1.5c-0.5-0.8-0.7-1.3-0.6-1.7c0-0.7,0.3-1.2,0.9-1.5
		c0.4-0.3,0.9-0.3,1.4-0.2c0.5,0.2,0.9,0.6,1.3,1.3l2,3.5c0.4,0.7,0.6,1.2,0.5,1.5c-0.1,0.6-0.3,1.1-0.9,1.4c-0.6,0.3-1.1,0.3-1.7,0
		c-0.3-0.1-0.6-0.6-1.1-1.4L833.2,51.8L833.2,51.8z"/>
	<path d="M862.5,46.4l-0.3-0.7c-0.6,0.8-1.3,1.5-2.2,2.2c-0.9,0.7-1.7,1.2-2.5,1.5c-1.7,0.8-3.3,1-4.8,0.6c-1.5-0.4-2.5-1.2-3-2.2
		c-0.6-1.3-0.5-2.9,0.3-4.7c0.8-1.8,2.4-3.2,4.8-4.3c1-0.4,2.1-0.9,3.5-1.2l-0.4-0.8c-0.2-0.5-0.6-0.8-1.2-0.9s-1.4,0.1-2.5,0.6
		c-0.9,0.4-2.1,1.2-3.4,2.3c-0.5,0.4-0.9,0.7-1.2,0.8c-0.4,0.2-0.9,0.2-1.3,0c-0.4-0.2-0.8-0.5-1-1c-0.1-0.3-0.2-0.5-0.2-0.8
		s0.1-0.5,0.2-0.7c0.1-0.2,0.5-0.5,1-1c0.7-0.6,1.4-1.1,2.2-1.6c0.8-0.5,1.5-0.9,2.1-1.2c2-0.9,3.7-1.2,5.2-0.9
		c1.5,0.3,2.6,1.3,3.3,2.7l3.1,6.5l0.5-0.3c0.8-0.4,1.4-0.5,1.8-0.3c0.5,0.1,0.8,0.5,1,0.9c0.2,0.5,0.2,0.9,0,1.4s-0.7,0.8-1.4,1.2
		L862.5,46.4L862.5,46.4z M859.9,40.7c-1.4,0.3-2.6,0.8-3.7,1.3c-1.3,0.6-2.3,1.4-2.9,2.5c-0.4,0.7-0.5,1.2-0.3,1.6
		c0.1,0.3,0.4,0.5,0.8,0.5c0.7,0.1,1.5-0.1,2.4-0.5c0.8-0.4,1.6-0.9,2.4-1.7c0.8-0.8,1.5-1.6,2-2.4L859.9,40.7L859.9,40.7z"/>
	<path d="M873.5,25.1l0.7,2.1c1-1.5,1.9-2.6,2.6-3.2c0.7-0.6,1.4-1.1,2.1-1.3c1.1-0.4,2.3-0.4,3.5,0.1c0.9,0.3,1.4,0.7,1.6,1.3
		c0.2,0.5,0.2,0.9-0.1,1.4c-0.2,0.4-0.5,0.8-1,0.9c-0.4,0.1-0.9,0.1-1.5-0.1s-1.1-0.3-1.4-0.2c-0.5,0.2-1,0.7-1.8,1.6
		c-0.7,0.9-1.5,2.2-2.5,3.8l1.8,5l4.7-1.7c0.8-0.3,1.4-0.3,1.9-0.2c0.4,0.2,0.8,0.5,0.9,1c0.2,0.5,0.1,0.9-0.1,1.4s-0.7,0.8-1.5,1.1
		l-10,3.6c-0.8,0.3-1.4,0.3-1.9,0.2c-0.4-0.2-0.8-0.5-0.9-1c-0.2-0.5-0.1-0.9,0.1-1.4s0.7-0.8,1.5-1.1l2-0.7l-2.9-8l-1.2,0.4
		c-0.8,0.3-1.4,0.3-1.9,0.2c-0.4-0.2-0.8-0.5-0.9-1c-0.2-0.5-0.1-0.9,0.1-1.4s0.7-0.8,1.5-1.1L873.5,25.1L873.5,25.1z"/>
	<path d="M896.3,11.3l4.4,18.1l4.1-1c0.8-0.2,1.4-0.2,1.9,0c0.4,0.2,0.7,0.6,0.8,1.1c0.1,0.5,0,0.9-0.2,1.3
		c-0.3,0.4-0.8,0.7-1.6,0.9l-11.6,2.8c-0.8,0.2-1.4,0.2-1.9,0c-0.4-0.2-0.7-0.6-0.8-1.1c-0.1-0.5,0-0.9,0.2-1.3s0.8-0.7,1.6-0.9
		l4.1-1l-3.6-14.7l-2.7,0.7c-0.8,0.2-1.4,0.2-1.9,0c-0.4-0.2-0.7-0.6-0.8-1.1c-0.1-0.5,0-0.9,0.2-1.3c0.3-0.4,0.8-0.7,1.6-0.9
		L896.3,11.3L896.3,11.3z"/>
	<path d="M918.8,29.6l-7.4-11.1c-0.6,0-1-0.1-1.4-0.4c-0.3-0.3-0.5-0.6-0.6-1.1c-0.1-0.5,0.1-1,0.4-1.3s0.9-0.6,1.7-0.7l3.2-0.4
		c0.8-0.1,1.5,0,1.8,0.3c0.4,0.3,0.6,0.7,0.7,1.2c0.1,0.5-0.1,0.9-0.4,1.3s-0.9,0.6-1.6,0.7l5.1,7.5l3.1-8.5c-0.7,0.1-1.3,0-1.7-0.3
		c-0.4-0.3-0.6-0.7-0.7-1.2c-0.1-0.5,0.1-0.9,0.4-1.3s0.9-0.6,1.7-0.7l3.3-0.4c0.8-0.1,1.4,0,1.8,0.3c0.4,0.3,0.6,0.7,0.7,1.2
		c0.1,0.5,0,0.9-0.3,1.2c-0.3,0.4-0.7,0.6-1.3,0.7l-6.1,16.7c0.9-0.1,1.5-0.1,1.7,0c0.6,0.3,0.9,0.8,1,1.4c0.1,0.5-0.1,0.9-0.4,1.3
		s-0.9,0.6-1.7,0.7l-7.6,0.9c-0.8,0.1-1.5,0-1.8-0.3c-0.4-0.3-0.6-0.7-0.7-1.2c-0.1-0.5,0.1-1,0.4-1.3c0.3-0.4,0.9-0.6,1.7-0.7
		l3.5-0.4L918.8,29.6L918.8,29.6z"/>
	<path d="M959,27.5l-0.9,5.7l2.1,0.3c0.8,0.1,1.4,0.4,1.7,0.8s0.4,0.8,0.3,1.3c-0.1,0.5-0.3,0.9-0.7,1.2s-1,0.3-1.9,0.2l-6.1-1
		c-0.8-0.1-1.4-0.4-1.7-0.8c-0.3-0.4-0.4-0.8-0.3-1.3c0.1-0.5,0.3-0.9,0.7-1.2s1-0.3,1.8-0.2l0.6,0.1l2.4-15.6l-0.6-0.1
		c-0.8-0.1-1.4-0.4-1.7-0.8c-0.3-0.4-0.4-0.8-0.3-1.3c0.1-0.5,0.3-0.9,0.7-1.2c0.4-0.3,1-0.3,1.9-0.2l4.1,0.6l-0.2,1.2
		c0.9-0.4,1.8-0.7,2.7-0.8c0.9-0.1,1.8-0.1,2.7,0c2.4,0.4,4.3,1.5,5.7,3.3c1.4,1.9,2,3.8,1.6,5.9c-0.4,2.3-1.6,4-3.8,5.2
		c-1.8,1-3.8,1.3-5.8,1c-0.9-0.1-1.7-0.4-2.6-0.8C960.6,28.7,959.8,28.1,959,27.5L959,27.5z M970.2,23.1c0.1-0.5,0-1.1-0.3-1.9
		s-0.8-1.5-1.5-2.1c-0.7-0.6-1.6-1-2.7-1.2c-1.7-0.3-3.2,0.2-4.4,1.3c-0.8,0.8-1.3,1.6-1.4,2.4c-0.1,0.9,0.2,1.9,1.1,2.9
		c0.9,1,2,1.7,3.5,1.9c1.5,0.2,2.8,0,3.9-0.7C969.4,24.9,970,24.1,970.2,23.1L970.2,23.1z"/>
	<path d="M987.5,19.8l-0.7,2.1c1.7-0.6,3-0.9,4-1c0.9-0.1,1.7,0,2.4,0.2c1.1,0.3,2,1.1,2.8,2.2c0.5,0.8,0.7,1.4,0.5,2
		c-0.1,0.5-0.4,0.8-0.9,1.1c-0.4,0.2-0.9,0.3-1.4,0.1c-0.4-0.1-0.8-0.5-1.1-1s-0.7-0.9-1-1c-0.5-0.1-1.3-0.1-2.4,0.2
		c-1.1,0.3-2.5,0.8-4.3,1.6l-1.6,5l4.8,1.5c0.8,0.3,1.3,0.6,1.6,1c0.2,0.4,0.3,0.9,0.1,1.4c-0.2,0.5-0.4,0.8-0.9,1s-1.1,0.2-1.9-0.1
		l-10.1-3.2c-0.8-0.3-1.3-0.6-1.6-1c-0.2-0.4-0.3-0.9-0.1-1.4c0.2-0.5,0.4-0.8,0.9-1c0.4-0.2,1.1-0.2,1.9,0.1l2,0.6l2.5-8.1
		l-1.2-0.4c-0.8-0.3-1.3-0.6-1.6-1c-0.2-0.4-0.3-0.9-0.1-1.4c0.2-0.5,0.4-0.8,0.9-1c0.4-0.2,1.1-0.2,1.9,0.1L987.5,19.8L987.5,19.8z
		"/>
	<path d="M1014.7,39.8c-0.6,1.2-1.5,2.2-2.7,3c-1.2,0.8-2.7,1.2-4.3,1.3s-3.2-0.3-4.7-1c-1.4-0.7-2.7-1.7-3.6-3
		c-1-1.3-1.6-2.7-1.7-4.1c-0.1-1.5,0.1-2.8,0.7-4.1c0.6-1.3,1.6-2.3,2.8-3.2c1.3-0.9,2.7-1.4,4.4-1.4c1.6-0.1,3.2,0.2,4.6,0.9
		c1.4,0.7,2.6,1.7,3.6,3.1s1.5,2.8,1.6,4.3C1015.5,37.1,1015.3,38.5,1014.7,39.8L1014.7,39.8z M1011.5,38.3c0.5-1,0.6-2.1,0.3-3.3
		c-0.4-1.6-1.5-2.8-3.1-3.6c-1.4-0.7-2.8-0.8-4.2-0.3s-2.4,1.3-3,2.5c-0.5,1-0.4,2.1,0.1,3.5s1.5,2.3,2.9,3c1.4,0.7,2.8,0.8,4.2,0.4
		C1010.1,40,1011,39.3,1011.5,38.3L1011.5,38.3z"/>
	<path d="M1027.5,42.2l-3.7,6c-0.4,0.6-0.5,1.1-0.4,1.5c0.2,0.6,0.8,1.2,1.9,1.8c1.5,0.9,3.1,1.5,4.8,1.6c0.7,0,1.1,0.2,1.4,0.3
		c0.4,0.2,0.6,0.6,0.7,1.1c0.1,0.5,0,0.9-0.2,1.3c-0.2,0.4-0.6,0.6-1.1,0.7c-0.8,0.2-2,0-3.6-0.5s-2.9-1-3.9-1.6
		c-1.9-1.1-3-2.4-3.4-3.8c-0.4-1.4-0.3-2.6,0.4-3.8l4-6.6l-1.1-0.7c-0.7-0.4-1.1-0.9-1.3-1.4c-0.1-0.5-0.1-0.9,0.2-1.4
		c0.3-0.4,0.6-0.7,1.1-0.8c0.5-0.1,1.1,0.1,1.8,0.5l1.1,0.7l1.6-2.7c0.4-0.7,0.9-1.1,1.4-1.3c0.5-0.1,0.9-0.1,1.4,0.2
		c0.4,0.3,0.7,0.6,0.8,1.1c0.1,0.5-0.1,1.1-0.5,1.8l-1.6,2.7l5.5,3.4c0.7,0.4,1.1,0.9,1.3,1.4c0.1,0.5,0.1,0.9-0.2,1.4
		c-0.3,0.4-0.6,0.7-1.1,0.8s-1.1-0.1-1.8-0.5L1027.5,42.2z"/>
	<path d="M1052,63.3c-0.7,1.1-1.8,2-3.1,2.7c-1.3,0.7-2.8,0.9-4.4,0.7c-1.6-0.2-3.1-0.7-4.5-1.6c-1.3-0.9-2.4-2-3.2-3.4
		c-0.8-1.4-1.2-2.9-1.2-4.3c0-1.5,0.4-2.8,1.2-4c0.8-1.2,1.8-2.1,3.2-2.8c1.4-0.7,2.9-1,4.5-0.9s3.1,0.6,4.5,1.5
		c1.3,0.9,2.4,2,3.2,3.5c0.8,1.5,1.2,3,1.1,4.5C1053.2,60.8,1052.8,62.1,1052,63.3L1052,63.3z M1049,61.4c0.6-0.9,0.8-2,0.7-3.3
		c-0.2-1.7-1.1-3-2.6-4c-1.3-0.9-2.7-1.2-4.2-0.9s-2.5,1-3.2,2.1c-0.6,0.9-0.7,2.1-0.3,3.4c0.4,1.4,1.2,2.5,2.5,3.3
		c1.3,0.9,2.7,1.2,4.1,1C1047.4,62.9,1048.4,62.3,1049,61.4z"/>
	<path d="M1064.6,65.7l-3.6,6.1c-0.4,0.6-0.5,1.2-0.4,1.5c0.2,0.6,0.9,1.2,1.9,1.8c1.5,0.9,3.2,1.4,4.9,1.5c0.7,0,1.1,0.1,1.4,0.3
		c0.4,0.2,0.6,0.6,0.8,1c0.1,0.5,0.1,0.9-0.2,1.3c-0.2,0.4-0.6,0.6-1.1,0.7c-0.8,0.2-2,0-3.6-0.4c-1.6-0.4-3-1-3.9-1.5
		c-1.9-1.1-3-2.3-3.5-3.7s-0.3-2.6,0.3-3.8l3.9-6.6l-1.1-0.6c-0.7-0.4-1.2-0.9-1.3-1.3c-0.1-0.5-0.1-0.9,0.2-1.4
		c0.3-0.4,0.6-0.7,1.1-0.8c0.5-0.1,1.1,0.1,1.8,0.5l1.1,0.6l1.6-2.7c0.4-0.7,0.9-1.2,1.3-1.3c0.5-0.1,0.9-0.1,1.4,0.2
		c0.4,0.3,0.7,0.6,0.8,1.1c0.1,0.5-0.1,1.1-0.5,1.8l-1.6,2.7l5.6,3.3c0.7,0.4,1.2,0.9,1.3,1.3c0.1,0.5,0.1,0.9-0.2,1.4
		c-0.3,0.4-0.6,0.7-1.1,0.8c-0.5,0.1-1.1-0.1-1.8-0.5L1064.6,65.7L1064.6,65.7z"/>
	<path d="M1078.2,86.4l-0.5-13.3c-0.5-0.3-0.8-0.7-0.9-1.1c-0.1-0.4-0.1-0.8,0.1-1.2c0.2-0.5,0.6-0.8,1-0.9c0.5-0.1,1.1,0,1.8,0.3
		l2.9,1.3c0.8,0.4,1.2,0.8,1.4,1.2c0.2,0.4,0.2,0.9,0,1.4c-0.2,0.5-0.6,0.8-1,0.9c-0.5,0.1-1,0.1-1.7-0.3l0.4,9l7.1-5.6
		c-0.7-0.3-1.1-0.7-1.3-1.1c-0.2-0.4-0.2-0.9,0-1.4c0.2-0.5,0.6-0.8,1-0.9c0.5-0.1,1.1,0,1.8,0.3l3,1.4c0.8,0.4,1.2,0.7,1.4,1.2
		s0.2,0.9,0,1.4c-0.2,0.4-0.5,0.7-0.9,0.9c-0.4,0.2-0.9,0.1-1.5-0.1l-14,11c0.8,0.4,1.3,0.7,1.5,1c0.3,0.6,0.4,1.1,0.1,1.7
		c-0.2,0.5-0.6,0.8-1,0.9c-0.5,0.1-1.1,0-1.8-0.3l-6.9-3.2c-0.8-0.4-1.2-0.8-1.4-1.2c-0.2-0.4-0.2-0.9,0-1.4c0.2-0.5,0.6-0.8,1-0.9
		c0.5-0.1,1.1,0,1.8,0.3l3.2,1.5L1078.2,86.4L1078.2,86.4z"/>
	<path d="M1098.3,92.8l-1.8,5.4l2,0.7c0.8,0.3,1.3,0.6,1.6,1c0.2,0.4,0.3,0.9,0.1,1.4c-0.2,0.5-0.5,0.8-0.9,1
		c-0.4,0.2-1.1,0.2-1.9-0.1l-5.9-2c-0.8-0.3-1.3-0.6-1.6-1c-0.2-0.4-0.3-0.9-0.1-1.4c0.2-0.5,0.5-0.8,0.9-1s1.1-0.2,1.9,0.1l0.6,0.2
		l5-15l-0.6-0.2c-0.8-0.3-1.3-0.6-1.6-1c-0.2-0.4-0.3-0.9-0.1-1.4c0.2-0.5,0.5-0.8,0.9-1c0.4-0.2,1.1-0.2,1.9,0.1l3.9,1.3l-0.4,1.1
		c1-0.3,1.9-0.4,2.8-0.4c0.9,0,1.8,0.2,2.7,0.5c2.3,0.8,4,2.2,5,4.2c1.1,2.1,1.3,4.1,0.6,6.1c-0.7,2.2-2.3,3.7-4.6,4.5
		c-2,0.7-3.9,0.7-5.9,0c-0.9-0.3-1.7-0.7-2.4-1.2C1099.6,94.2,1098.9,93.6,1098.3,92.8L1098.3,92.8z M1110,90.4c0.2-0.5,0.2-1.1,0-2
		c-0.1-0.8-0.5-1.6-1.1-2.4c-0.6-0.7-1.4-1.3-2.4-1.6c-1.7-0.5-3.2-0.4-4.6,0.6c-0.9,0.6-1.5,1.3-1.8,2.1c-0.3,0.9-0.1,1.9,0.6,3.1
		c0.7,1.2,1.7,2,3.1,2.4c1.4,0.5,2.7,0.4,3.9-0.1C1108.9,92,1109.7,91.3,1110,90.4L1110,90.4z"/>
	<path d="M1134.3,98.2l-14.1-3c0.2,1,0.6,1.8,1.4,2.6c0.8,0.7,2,1.3,3.5,1.6c1.3,0.3,3,0.4,5.2,0.3c0.9,0,1.5,0,1.9,0
		c0.5,0.1,0.8,0.3,1.1,0.7c0.2,0.4,0.3,0.8,0.2,1.3c-0.1,0.4-0.3,0.8-0.7,1c-0.5,0.3-1.7,0.5-3.5,0.5s-3.5-0.2-5.1-0.5
		c-2.7-0.6-4.8-1.8-6.1-3.7c-1.3-1.9-1.7-4-1.3-6.2c0.5-2.4,1.8-4.2,3.9-5.3c2.1-1.1,4.3-1.5,6.6-1c1.4,0.3,2.6,0.8,3.7,1.5
		s1.8,1.5,2.3,2.1c0.6,1,1.1,2.2,1.3,3.5c0.2,0.9,0.1,1.9-0.1,3.1L1134.3,98.2L1134.3,98.2z M1131.3,93.9c-0.3-1.1-0.8-2-1.6-2.6
		c-0.7-0.7-1.7-1.1-2.9-1.4c-1.2-0.2-2.2-0.2-3.2,0.1c-0.9,0.3-1.8,0.9-2.5,1.8L1131.3,93.9z"/>
	<path d="M1152.6,94.8c-0.5-0.4-1.1-0.7-1.7-1c-0.6-0.2-1.2-0.4-1.9-0.5c-1.3-0.1-2.4,0-3.3,0.3c-0.4,0.2-0.6,0.3-0.6,0.6
		c0,0.3,0.2,0.5,0.6,0.8c0.3,0.2,1.1,0.5,2.4,0.8c2.3,0.6,3.9,1,4.7,1.4c1.1,0.5,2,1.3,2.6,2.1c0.6,0.9,0.8,1.8,0.7,2.7
		c-0.1,1.2-0.8,2.2-2,3c-1.7,1.1-3.8,1.5-6.3,1.2c-1-0.1-1.9-0.3-2.8-0.5c-0.8-0.3-1.6-0.6-2.3-1c-0.2,0.1-0.4,0.2-0.6,0.3
		c-0.2,0.1-0.4,0.1-0.6,0.1c-0.5-0.1-1-0.3-1.2-0.7c-0.3-0.4-0.4-1-0.3-1.8l0.1-1.2c0.1-0.8,0.3-1.4,0.7-1.7
		c0.4-0.3,0.8-0.5,1.3-0.4c0.4,0,0.8,0.2,1,0.5c0.3,0.3,0.4,0.7,0.5,1.3c0.5,0.5,1.1,0.9,1.8,1.2s1.6,0.5,2.5,0.6
		c1.6,0.2,2.9,0,3.8-0.4c0.4-0.2,0.7-0.4,0.7-0.7c0-0.5-0.2-0.9-0.8-1.2c-0.6-0.4-1.8-0.7-3.6-1.1c-2.8-0.6-4.6-1.3-5.4-2.3
		c-0.9-0.9-1.2-2-1.1-3.2c0.1-1.2,0.8-2.2,1.9-3c1.5-1,3.5-1.4,5.8-1.1c0.8,0.1,1.6,0.2,2.3,0.5c0.7,0.2,1.4,0.5,2.1,0.9
		c0.2-0.1,0.4-0.2,0.6-0.3s0.4-0.1,0.5-0.1c0.5,0,0.9,0.3,1.1,0.7s0.4,1,0.3,1.8l-0.1,0.9c-0.1,0.8-0.2,1.3-0.4,1.5
		c-0.4,0.5-0.9,0.7-1.6,0.6c-0.4,0-0.8-0.2-1.1-0.5C1152.8,95.6,1152.6,95.3,1152.6,94.8L1152.6,94.8z"/>
</g>
</svg>
