<?xml version="1.0" encoding="UTF-8"?><svg id="Layer_2" xmlns="http://www.w3.org/2000/svg" width="884.2998" height="568.8403" viewBox="0 0 884.2998 568.8403"><defs><style>.cls-1{fill:none;stroke:#ffb505;}.cls-1,.cls-2{stroke-miterlimit:10;stroke-width:6px;}.cls-2{fill:#1e35f5;stroke:#1e35f5;}</style></defs><g><path class="cls-1" d="M24.2256,123.5347h50.6523c7.876,0,15.3955,.6377,22.5518,1.9097,7.1533,1.2749,13.5068,3.417,19.0547,6.4321,5.5479,3.0146,9.9688,7.0347,13.2666,12.0596,3.2939,5.0254,4.9443,11.2246,4.9443,18.5928,0,7.7729-1.7715,14.2051-5.3066,19.2959-3.5391,5.0942-8.0801,9.1143-13.6279,12.0601-5.5469,2.9492-11.6191,5.0249-18.21,6.231-6.5957,1.2061-12.8672,1.8091-18.8145,1.8091H44.4863v63.918H24.2256V123.5347Zm20.2607,62.7119h34.25c10.1309,0,18.3691-1.9092,24.7236-5.7285,6.3506-3.8188,9.5273-9.7485,9.5273-17.7881s-3.1768-13.9697-9.5273-17.7886c-6.3545-3.8193-14.5928-5.7285-24.7236-5.7285H44.4863v47.0337Z"/><path class="cls-1" d="M268.3164,269.4609c-13.0244,0-24.9639-1.8784-35.8184-5.6279-10.8535-3.75-20.2607-8.9448-28.2197-15.5776-7.96-6.6333-14.1514-14.5381-18.5723-23.7183-4.4248-9.1768-6.6338-19.1265-6.6338-29.8481s2.209-20.6685,6.6338-29.8486c4.4209-9.1768,10.6123-17.085,18.5723-23.7183,7.959-6.6328,17.3662-11.8242,28.2197-15.5771,10.8545-3.75,22.7939-5.6279,35.8184-5.6279s24.9648,1.8779,35.8184,5.6279c10.8545,3.7529,20.2607,8.9443,28.2207,15.5771,7.959,6.6333,14.1475,14.5415,18.5723,23.7183,4.4209,9.1802,6.6328,19.1294,6.6328,29.8486s-2.2119,20.6714-6.6328,29.8481c-4.4248,9.1802-10.6133,17.085-18.5723,23.7183-7.96,6.6328-17.3662,11.8276-28.2207,15.5776-10.8535,3.7495-22.793,5.6279-35.8184,5.6279Zm0-15.6782c9.9688,0,19.0928-1.5391,27.377-4.623,8.2793-3.0811,15.3945-7.3018,21.3457-12.6631,5.9473-5.3579,10.5713-11.623,13.8691-18.7935,3.2939-7.167,4.9443-14.8394,4.9443-23.0142s-1.6504-15.8447-4.9443-23.0146c-3.2979-7.167-7.9219-13.4326-13.8691-18.7935-5.9512-5.3579-13.0664-9.5791-21.3457-12.6631-8.2842-3.0811-17.4082-4.623-27.377-4.623s-19.0957,1.542-27.376,4.623c-8.2832,3.084-15.3994,7.3052-21.3457,12.6631-5.9512,5.3608-10.5752,11.6265-13.8691,18.7935-3.2979,7.1699-4.9453,14.8428-4.9453,23.0146s1.6475,15.8472,4.9453,23.0142c3.2939,7.1704,7.918,13.4355,13.8691,18.7935,5.9463,5.3613,13.0625,9.582,21.3457,12.6631,8.2803,3.084,17.4043,4.623,27.376,4.623Z"/><path class="cls-1" d="M411.8311,123.5347h43.6572c8.2012,0,16.3604,.4019,24.4814,1.2061,8.1182,.8042,15.3955,2.5469,21.8291,5.2261,6.4297,2.6821,11.6562,6.6016,15.6777,11.7583,4.0176,5.1602,6.0303,12.1606,6.0303,21.0049,0,10.4517-3.7803,18.8936-11.3369,25.3257-7.5596,6.4321-18.0107,10.521-31.3555,12.2612l48.4814,65.5259h-24.8438l-46.3105-63.918h-26.0498v63.918h-20.2607V123.5347Zm20.2607,62.7119h18.0898c5.627,0,11.457-.1318,17.4873-.4019,6.0303-.2671,11.5771-1.1367,16.6426-2.6128,5.0654-1.4731,9.2451-3.7847,12.543-6.9346,3.2939-3.147,4.9443-7.6694,4.9443-13.5674,0-5.0913-1.2061-9.1772-3.6182-12.2612-2.4121-3.0811-5.5889-5.4585-9.5273-7.1353-3.9424-1.6743-8.3633-2.7798-13.2656-3.3169-4.9072-.5337-9.8516-.8037-14.834-.8037h-28.4619v47.0337Z"/><path class="cls-1" d="M691.1416,139.2129h-56.4414v126.6299h-20.2607v-126.6299h-56.4404v-15.6782h133.1426v15.6782Z"/><path class="cls-1" d="M24.2256,343.5347h105.8867v15.6787H44.4863v47.0342H124.082v15.6777H44.4863v63.918H24.2256v-142.3086Z"/><path class="cls-1" d="M259.3955,489.4614c-13.0244,0-24.9639-1.8779-35.8184-5.6279-10.8535-3.75-20.2607-8.9443-28.2197-15.5781-7.96-6.6328-14.1514-14.5371-18.5723-23.7178-4.4248-9.1768-6.6338-19.126-6.6338-29.8486s2.209-20.668,6.6338-29.8486c4.4209-9.1768,10.6123-17.085,18.5723-23.7178,7.959-6.6328,17.3662-11.8242,28.2197-15.5771,10.8545-3.75,22.7939-5.6279,35.8184-5.6279s24.9648,1.8779,35.8184,5.6279c10.8545,3.7529,20.2607,8.9443,28.2207,15.5771,7.959,6.6328,14.1475,14.541,18.5723,23.7178,4.4209,9.1807,6.6328,19.1299,6.6328,29.8486s-2.2119,20.6719-6.6328,29.8486c-4.4248,9.1807-10.6133,17.085-18.5723,23.7178-7.96,6.6338-17.3662,11.8281-28.2207,15.5781-10.8535,3.75-22.793,5.6279-35.8184,5.6279Zm0-15.6777c9.9688,0,19.0928-1.5391,27.377-4.623,8.2793-3.0811,15.3945-7.3027,21.3457-12.6631,5.9473-5.3584,10.5713-11.624,13.8691-18.7939,3.2939-7.167,4.9443-14.8389,4.9443-23.0146s-1.6504-15.8438-4.9443-23.0146c-3.2979-7.166-7.9219-13.4316-13.8691-18.793-5.9512-5.3584-13.0664-9.5791-21.3457-12.6631-8.2842-3.0811-17.4082-4.623-27.377-4.623s-19.0957,1.542-27.376,4.623c-8.2832,3.084-15.3994,7.3047-21.3457,12.6631-5.9512,5.3613-10.5752,11.627-13.8691,18.793-3.2979,7.1709-4.9453,14.8428-4.9453,23.0146s1.6475,15.8477,4.9453,23.0146c3.2939,7.1699,7.918,13.4355,13.8691,18.7939,5.9463,5.3604,13.0625,9.582,21.3457,12.6631,8.2803,3.084,17.4043,4.623,27.376,4.623Z"/><path class="cls-1" d="M402.9092,343.5347h20.2607v126.6309h78.1484v15.6777h-98.4092v-142.3086Z"/><path class="cls-1" d="M545.2178,343.5347h20.2607v142.3086h-20.2607v-142.3086Z"/><path class="cls-1" d="M708.9902,489.4614c-13.0244,0-24.9639-1.8779-35.8184-5.6279-10.8535-3.75-20.2607-8.9443-28.2197-15.5781-7.96-6.6328-14.1514-14.5371-18.5723-23.7178-4.4248-9.1768-6.6338-19.126-6.6338-29.8486s2.209-20.668,6.6338-29.8486c4.4209-9.1768,10.6123-17.085,18.5723-23.7178,7.959-6.6328,17.3662-11.8242,28.2197-15.5771,10.8545-3.75,22.7939-5.6279,35.8184-5.6279s24.9648,1.8779,35.8184,5.6279c10.8545,3.7529,20.2607,8.9443,28.2207,15.5771,7.959,6.6328,14.1475,14.541,18.5723,23.7178,4.4209,9.1807,6.6328,19.1299,6.6328,29.8486s-2.2119,20.6719-6.6328,29.8486c-4.4248,9.1807-10.6133,17.085-18.5723,23.7178-7.96,6.6338-17.3662,11.8281-28.2207,15.5781-10.8535,3.75-22.793,5.6279-35.8184,5.6279Zm0-15.6777c9.9688,0,19.0928-1.5391,27.377-4.623,8.2793-3.0811,15.3945-7.3027,21.3457-12.6631,5.9473-5.3584,10.5713-11.624,13.8691-18.7939,3.2939-7.167,4.9443-14.8389,4.9443-23.0146s-1.6504-15.8438-4.9443-23.0146c-3.2979-7.166-7.9219-13.4316-13.8691-18.793-5.9512-5.3584-13.0664-9.5791-21.3457-12.6631-8.2842-3.0811-17.4082-4.623-27.377-4.623s-19.0957,1.542-27.376,4.623c-8.2832,3.084-15.3994,7.3047-21.3457,12.6631-5.9512,5.3613-10.5752,11.627-13.8691,18.793-3.2979,7.1709-4.9453,14.8428-4.9453,23.0146s1.6475,15.8477,4.9453,23.0146c3.2939,7.1699,7.918,13.4355,13.8691,18.7939,5.9463,5.3604,13.0625,9.582,21.3457,12.6631,8.2803,3.084,17.4043,4.623,27.376,4.623Z"/></g><g><path class="cls-2" d="M74.2461,32.3438h50.6523c7.876,0,15.3955,.6377,22.5518,1.9097,7.1533,1.2749,13.5068,3.417,19.0547,6.4321,5.5479,3.0146,9.9688,7.0347,13.2666,12.0596,3.2939,5.0254,4.9443,11.2246,4.9443,18.5928,0,7.7729-1.7715,14.2051-5.3066,19.2959-3.5391,5.0942-8.0801,9.1143-13.6279,12.0601-5.5469,2.9492-11.6191,5.0249-18.21,6.231-6.5957,1.2061-12.8672,1.8091-18.8145,1.8091h-34.25v63.918h-20.2607V32.3438Zm20.2607,62.7119h34.25c10.1309,0,18.3691-1.9092,24.7236-5.7285,6.3506-3.8188,9.5273-9.7485,9.5273-17.7881s-3.1768-13.9697-9.5273-17.7886c-6.3545-3.8193-14.5928-5.7285-24.7236-5.7285h-34.25v47.0337Z"/><path class="cls-2" d="M318.3369,178.27c-13.0244,0-24.9639-1.8784-35.8184-5.6279-10.8535-3.75-20.2607-8.9448-28.2197-15.5776-7.96-6.6333-14.1514-14.5381-18.5723-23.7183-4.4248-9.1768-6.6338-19.1265-6.6338-29.8481s2.209-20.6685,6.6338-29.8486c4.4209-9.1768,10.6123-17.085,18.5723-23.7183,7.959-6.6328,17.3662-11.8242,28.2197-15.5771,10.8545-3.75,22.7939-5.6279,35.8184-5.6279s24.9648,1.8779,35.8184,5.6279c10.8545,3.7529,20.2607,8.9443,28.2207,15.5771,7.959,6.6333,14.1475,14.5415,18.5723,23.7183,4.4209,9.1802,6.6328,19.1294,6.6328,29.8486s-2.2119,20.6714-6.6328,29.8481c-4.4248,9.1802-10.6133,17.085-18.5723,23.7183-7.96,6.6328-17.3662,11.8276-28.2207,15.5776-10.8535,3.7495-22.793,5.6279-35.8184,5.6279Zm0-15.6782c9.9688,0,19.0928-1.5391,27.377-4.623,8.2793-3.0811,15.3945-7.3018,21.3457-12.6631,5.9473-5.3579,10.5713-11.623,13.8691-18.7935,3.2939-7.167,4.9443-14.8394,4.9443-23.0142s-1.6504-15.8447-4.9443-23.0146c-3.2979-7.167-7.9219-13.4326-13.8691-18.7935-5.9512-5.3579-13.0664-9.5791-21.3457-12.6631-8.2842-3.0811-17.4082-4.623-27.377-4.623s-19.0957,1.542-27.376,4.623c-8.2832,3.084-15.3994,7.3052-21.3457,12.6631-5.9512,5.3608-10.5752,11.6265-13.8691,18.7935-3.2979,7.1699-4.9453,14.8428-4.9453,23.0146s1.6475,15.8472,4.9453,23.0142c3.2939,7.1704,7.918,13.4355,13.8691,18.7935,5.9463,5.3613,13.0625,9.582,21.3457,12.6631,8.2803,3.084,17.4043,4.623,27.376,4.623Z"/><path class="cls-2" d="M461.8516,32.3438h43.6572c8.2012,0,16.3604,.4019,24.4814,1.2061,8.1182,.8042,15.3955,2.5469,21.8291,5.2261,6.4297,2.6821,11.6562,6.6016,15.6777,11.7583,4.0176,5.1602,6.0303,12.1606,6.0303,21.0049,0,10.4517-3.7803,18.8936-11.3369,25.3257-7.5596,6.4321-18.0107,10.521-31.3555,12.2612l48.4814,65.5259h-24.8438l-46.3105-63.918h-26.0498v63.918h-20.2607V32.3438Zm20.2607,62.7119h18.0898c5.627,0,11.457-.1318,17.4873-.4019,6.0303-.2671,11.5771-1.1367,16.6426-2.6128,5.0654-1.4731,9.2451-3.7847,12.543-6.9346,3.2939-3.147,4.9443-7.6694,4.9443-13.5674,0-5.0913-1.2061-9.1772-3.6182-12.2612-2.4121-3.0811-5.5889-5.4585-9.5273-7.1353-3.9424-1.6743-8.3633-2.7798-13.2656-3.3169-4.9072-.5337-9.8516-.8037-14.834-.8037h-28.4619v47.0337Z"/><path class="cls-2" d="M741.1621,48.022h-56.4414v126.6299h-20.2607V48.022h-56.4404v-15.6782h133.1426v15.6782Z"/><path class="cls-2" d="M74.2461,252.3438h105.8867v15.6782H94.5068v47.0342h79.5957v15.6777H94.5068v63.918h-20.2607V252.3438Z"/><path class="cls-2" d="M309.416,398.27c-13.0244,0-24.9639-1.8779-35.8184-5.6279-10.8535-3.75-20.2607-8.9443-28.2197-15.5781-7.96-6.6328-14.1514-14.5371-18.5723-23.7178-4.4248-9.1768-6.6338-19.126-6.6338-29.8486s2.209-20.668,6.6338-29.8486c4.4209-9.1768,10.6123-17.0845,18.5723-23.7178,7.959-6.6328,17.3662-11.8242,28.2197-15.5771,10.8545-3.75,22.7939-5.6279,35.8184-5.6279s24.9648,1.8779,35.8184,5.6279c10.8545,3.7529,20.2607,8.9443,28.2207,15.5771,7.959,6.6333,14.1475,14.541,18.5723,23.7178,4.4209,9.1807,6.6328,19.1299,6.6328,29.8486s-2.2119,20.6719-6.6328,29.8486c-4.4248,9.1807-10.6133,17.085-18.5723,23.7178-7.96,6.6338-17.3662,11.8281-28.2207,15.5781-10.8535,3.75-22.793,5.6279-35.8184,5.6279Zm0-15.6777c9.9688,0,19.0928-1.5391,27.377-4.623,8.2793-3.0811,15.3945-7.3027,21.3457-12.6631,5.9473-5.3584,10.5713-11.624,13.8691-18.7939,3.2939-7.167,4.9443-14.8389,4.9443-23.0146s-1.6504-15.8438-4.9443-23.0146c-3.2979-7.166-7.9219-13.4316-13.8691-18.793-5.9512-5.3579-13.0664-9.5791-21.3457-12.6631-8.2842-3.0811-17.4082-4.623-27.377-4.623s-19.0957,1.542-27.376,4.623c-8.2832,3.084-15.3994,7.3052-21.3457,12.6631-5.9512,5.3613-10.5752,11.627-13.8691,18.793-3.2979,7.1709-4.9453,14.8428-4.9453,23.0146s1.6475,15.8477,4.9453,23.0146c3.2939,7.1699,7.918,13.4355,13.8691,18.7939,5.9463,5.3604,13.0625,9.582,21.3457,12.6631,8.2803,3.084,17.4043,4.623,27.376,4.623Z"/><path class="cls-2" d="M452.9297,252.3438h20.2607v126.6304h78.1484v15.6777h-98.4092V252.3438Z"/><path class="cls-2" d="M595.2383,252.3438h20.2607v142.3081h-20.2607V252.3438Z"/><path class="cls-2" d="M759.0107,398.27c-13.0244,0-24.9639-1.8779-35.8184-5.6279-10.8535-3.75-20.2607-8.9443-28.2197-15.5781-7.96-6.6328-14.1514-14.5371-18.5723-23.7178-4.4248-9.1768-6.6338-19.126-6.6338-29.8486s2.209-20.668,6.6338-29.8486c4.4209-9.1768,10.6123-17.0845,18.5723-23.7178,7.959-6.6328,17.3662-11.8242,28.2197-15.5771,10.8545-3.75,22.7939-5.6279,35.8184-5.6279s24.9648,1.8779,35.8184,5.6279c10.8545,3.7529,20.2607,8.9443,28.2207,15.5771,7.959,6.6333,14.1475,14.541,18.5723,23.7178,4.4209,9.1807,6.6328,19.1299,6.6328,29.8486s-2.2119,20.6719-6.6328,29.8486c-4.4248,9.1807-10.6133,17.085-18.5723,23.7178-7.96,6.6338-17.3662,11.8281-28.2207,15.5781-10.8535,3.75-22.793,5.6279-35.8184,5.6279Zm0-15.6777c9.9688,0,19.0928-1.5391,27.377-4.623,8.2793-3.0811,15.3945-7.3027,21.3457-12.6631,5.9473-5.3584,10.5713-11.624,13.8691-18.7939,3.2939-7.167,4.9443-14.8389,4.9443-23.0146s-1.6504-15.8438-4.9443-23.0146c-3.2979-7.166-7.9219-13.4316-13.8691-18.793-5.9512-5.3579-13.0664-9.5791-21.3457-12.6631-8.2842-3.0811-17.4082-4.623-27.377-4.623s-19.0957,1.542-27.376,4.623c-8.2832,3.084-15.3994,7.3052-21.3457,12.6631-5.9512,5.3613-10.5752,11.627-13.8691,18.793-3.2979,7.1709-4.9453,14.8428-4.9453,23.0146s1.6475,15.8477,4.9453,23.0146c3.2939,7.1699,7.918,13.4355,13.8691,18.7939,5.9463,5.3604,13.0625,9.582,21.3457,12.6631,8.2803,3.084,17.4043,4.623,27.376,4.623Z"/></g></svg>