<?xml version="1.0" encoding="utf-8"?>
<!-- Generator: Adobe Illustrator 26.3.1, SVG Export Plug-In . SVG Version: 6.00 Build 0)  -->
<svg version="1.1" id="Layer_1" xmlns="http://www.w3.org/2000/svg" xmlns:xlink="http://www.w3.org/1999/xlink" x="0px" y="0px"
	 viewBox="0 0 1347.5 131.8" style="enable-background:new 0 0 1347.5 131.8;" xml:space="preserve">
<style type="text/css">
	.st0{fill:none;stroke:#000000;stroke-width:5;stroke-linecap:round;stroke-linejoin:round;}
</style>
<g>
	<path class="st0" d="M636.8,57c-4.7-3-9.3-6-14-9l-27.9,0.2V67h-9.1l9.1,50.6h82.9V56.9C664.1,56.9,650.5,57,636.8,57z"/>
	<polyline class="st0" points="677.9,117.6 668.8,67 594.9,67 	"/>
</g>
<g>
	<path d="M34,66.1l8.2,11L45,75c0.7-0.5,1.3-0.7,1.7-0.7s0.9,0.3,1.2,0.7c0.3,0.4,0.4,0.9,0.3,1.3c-0.1,0.5-0.5,1-1.2,1.5l-8.5,6.3
		c-0.7,0.5-1.3,0.7-1.7,0.7c-0.5,0-0.9-0.3-1.2-0.7c-0.3-0.4-0.4-0.9-0.3-1.3c0.1-0.5,0.5-1,1.2-1.5l2.8-2.1l-8.2-11l-2.8,2.1
		c-0.7,0.5-1.3,0.7-1.7,0.7c-0.5,0-0.9-0.3-1.2-0.7c-0.3-0.4-0.4-0.9-0.3-1.3s0.5-1,1.2-1.5l8.5-6.3c0.7-0.5,1.3-0.7,1.7-0.7
		c0.5,0,0.9,0.3,1.2,0.7s0.4,0.9,0.3,1.3c-0.1,0.5-0.5,1-1.2,1.5L34,66.1L34,66.1z"/>
	<path d="M49.1,57.5l0.7,1c0.2-0.8,0.6-1.5,1.1-2.2c0.5-0.7,1.1-1.2,1.9-1.7c1.7-1.1,3.5-1.5,5.2-1.1c1.4,0.3,2.5,1.2,3.4,2.6
		l3.6,5.4c0.6-0.4,1.2-0.6,1.6-0.5s0.9,0.3,1.1,0.8c0.3,0.4,0.4,0.9,0.2,1.3s-0.5,0.9-1.2,1.4L64,66.2c-0.7,0.5-1.3,0.7-1.8,0.6
		s-0.9-0.3-1.2-0.8c-0.3-0.4-0.4-0.9-0.3-1.3c0.1-0.5,0.5-0.9,1.1-1.3l-3.6-5.5c-0.4-0.6-0.9-1-1.4-1.1c-0.7-0.1-1.5,0.2-2.4,0.8
		c-0.7,0.4-1.2,1-1.5,1.6c-0.3,0.6-0.6,1.6-0.8,2.9l3.6,5.4c0.8-0.5,1.3-0.7,1.6-0.7c0.7,0,1.2,0.2,1.5,0.8c0.3,0.4,0.4,0.9,0.2,1.3
		s-0.5,0.9-1.2,1.4l-3.3,2.2c-0.7,0.5-1.3,0.7-1.8,0.6s-0.9-0.3-1.2-0.8c-0.4-0.5-0.4-1.1-0.1-1.7c0.1-0.3,0.6-0.7,1.3-1.2l-4.7-7.1
		c-0.6,0.4-1.2,0.6-1.6,0.5c-0.5-0.1-0.9-0.3-1.1-0.8c-0.3-0.4-0.4-0.9-0.2-1.3s0.5-0.9,1.2-1.4L49.1,57.5L49.1,57.5z"/>
	<path d="M72.3,47.2l3.5,6.1c0.4,0.7,0.8,1,1.1,1.1c0.6,0.1,1.4-0.2,2.5-0.8c1.6-0.9,2.8-2,3.7-3.4c0.4-0.5,0.7-0.9,1-1.1
		c0.4-0.2,0.8-0.3,1.3-0.1s0.8,0.4,1.1,0.8c0.2,0.4,0.3,0.8,0.1,1.3c-0.2,0.7-0.9,1.7-2.1,2.9c-1.2,1.2-2.3,2.1-3.3,2.6
		c-1.9,1.1-3.5,1.5-5,1.2c-1.4-0.3-2.5-1-3.1-2.2l-3.8-6.7l-1.1,0.6c-0.7,0.4-1.3,0.6-1.8,0.5c-0.5-0.1-0.8-0.4-1.1-0.8
		c-0.3-0.4-0.3-0.9-0.2-1.4c0.2-0.5,0.6-0.9,1.3-1.3l1.1-0.6l-1.6-2.7c-0.4-0.7-0.6-1.3-0.5-1.8c0.1-0.5,0.4-0.8,0.8-1.1
		c0.4-0.3,0.9-0.3,1.4-0.2c0.5,0.2,0.9,0.6,1.3,1.3l1.6,2.7l5.6-3.2c0.7-0.4,1.3-0.6,1.8-0.5c0.5,0.1,0.8,0.4,1.1,0.8
		c0.3,0.4,0.3,0.9,0.2,1.4s-0.6,0.9-1.3,1.3L72.3,47.2L72.3,47.2z"/>
	<path d="M103.5,38.1l-13,6.1c0.7,0.7,1.6,1.1,2.7,1.2c1.1,0.1,2.3-0.2,3.8-0.8c1.2-0.6,2.6-1.5,4.3-3c0.7-0.6,1.2-0.9,1.5-1.1
		c0.4-0.2,0.8-0.2,1.3-0.1c0.4,0.2,0.8,0.5,1,0.9c0.2,0.4,0.2,0.8,0,1.3c-0.2,0.6-1.1,1.4-2.5,2.5c-1.4,1.1-2.9,2-4.4,2.7
		c-2.5,1.2-4.9,1.4-7.1,0.7c-2.2-0.7-3.8-2.1-4.8-4.2c-1-2.2-1.1-4.4-0.1-6.6s2.6-3.8,4.7-4.8c1.3-0.6,2.6-0.9,3.9-1
		c1.3-0.1,2.3,0.1,3.1,0.3c1.1,0.4,2.2,1.1,3.2,2c0.7,0.6,1.3,1.5,1.8,2.5L103.5,38.1L103.5,38.1z M98.5,36.6
		c-0.9-0.7-1.9-1.1-2.9-1.1c-1-0.1-2,0.1-3.1,0.6c-1.1,0.5-1.9,1.2-2.5,2c-0.6,0.8-0.9,1.8-1,2.9L98.5,36.6L98.5,36.6z"/>
	<path d="M111.9,24.7l0.7,2.1c1-1.5,1.9-2.6,2.6-3.2c0.7-0.6,1.4-1.1,2.1-1.3c1.1-0.4,2.3-0.4,3.5,0.1c0.9,0.3,1.4,0.7,1.6,1.3
		c0.2,0.5,0.2,0.9-0.1,1.4c-0.2,0.4-0.5,0.8-1,0.9c-0.4,0.1-0.9,0.1-1.5-0.1c-0.6-0.2-1.1-0.3-1.4-0.2c-0.5,0.2-1,0.7-1.8,1.6
		c-0.7,0.9-1.5,2.2-2.5,3.8l1.8,5l4.7-1.7c0.8-0.3,1.4-0.3,1.9-0.2c0.4,0.2,0.8,0.5,0.9,1c0.2,0.5,0.1,0.9-0.1,1.4
		c-0.2,0.4-0.7,0.8-1.5,1.1l-9.9,3.6c-0.8,0.3-1.4,0.3-1.9,0.2c-0.4-0.2-0.8-0.5-0.9-1c-0.2-0.5-0.1-0.9,0.1-1.4
		c0.2-0.4,0.7-0.8,1.5-1.1l2-0.7l-2.9-8l-1.2,0.4c-0.8,0.3-1.4,0.3-1.9,0.2s-0.8-0.5-0.9-1c-0.2-0.5-0.1-0.9,0.1-1.4
		c0.2-0.4,0.7-0.8,1.5-1.1L111.9,24.7L111.9,24.7z"/>
	<path d="M145.4,25l-14,3.4c0.6,0.8,1.4,1.4,2.4,1.7c1,0.3,2.3,0.3,3.9-0.1c1.3-0.3,2.9-1,4.8-2c0.8-0.4,1.4-0.7,1.7-0.8
		c0.5-0.1,0.9,0,1.3,0.2c0.4,0.2,0.6,0.6,0.8,1.1c0.1,0.4,0,0.9-0.2,1.3c-0.3,0.5-1.3,1.2-2.9,2c-1.6,0.8-3.2,1.4-4.8,1.8
		c-2.7,0.7-5.1,0.4-7.1-0.7c-2-1.1-3.3-2.8-3.8-5.1c-0.6-2.4-0.2-4.6,1.2-6.5c1.4-1.9,3.2-3.2,5.5-3.7c1.4-0.3,2.7-0.4,4-0.2
		c1.3,0.2,2.3,0.5,3,0.9c1,0.6,1.9,1.5,2.7,2.6c0.6,0.8,1,1.7,1.2,2.8L145.4,25L145.4,25z M140.8,22.5c-0.8-0.8-1.6-1.4-2.6-1.7
		c-1-0.3-2-0.3-3.2,0c-1.2,0.3-2.1,0.8-2.8,1.5s-1.2,1.6-1.5,2.7L140.8,22.5L140.8,22.5z"/>
	<path d="M161.6,17.2c-0.6-0.3-1.2-0.5-1.9-0.6c-0.6-0.1-1.3-0.1-2,0c-1.3,0.2-2.4,0.5-3.1,1c-0.3,0.2-0.5,0.5-0.5,0.7
		c0,0.3,0.3,0.5,0.8,0.7c0.4,0.1,1.2,0.2,2.5,0.2c2.3,0,4,0.2,4.9,0.4c1.2,0.3,2.2,0.8,3,1.5c0.7,0.7,1.2,1.6,1.3,2.5
		c0.2,1.2-0.3,2.4-1.3,3.3c-1.4,1.4-3.4,2.3-5.9,2.6c-1,0.1-1.9,0.1-2.8,0.1c-0.9-0.1-1.7-0.2-2.4-0.5c-0.2,0.2-0.3,0.3-0.5,0.4
		s-0.4,0.2-0.6,0.2c-0.5,0.1-1-0.1-1.4-0.4s-0.6-0.9-0.7-1.7l-0.1-1.2c-0.1-0.8,0-1.5,0.3-1.8c0.3-0.4,0.7-0.6,1.2-0.7
		c0.4-0.1,0.8,0,1.1,0.2c0.3,0.2,0.6,0.6,0.8,1.1c0.6,0.4,1.3,0.7,2,0.8s1.6,0.2,2.6,0c1.6-0.2,2.8-0.6,3.6-1.2
		c0.4-0.3,0.6-0.6,0.5-0.9c-0.1-0.5-0.4-0.8-1-1c-0.6-0.2-1.9-0.3-3.8-0.3c-2.8,0-4.8-0.3-5.8-1c-1-0.7-1.6-1.7-1.8-2.9
		c-0.2-1.2,0.2-2.3,1.2-3.3c1.3-1.3,3.1-2.1,5.4-2.4c0.8-0.1,1.6-0.1,2.3-0.1c0.8,0.1,1.5,0.2,2.2,0.4c0.2-0.2,0.4-0.3,0.6-0.4
		c0.2-0.1,0.3-0.2,0.5-0.2c0.5-0.1,0.9,0.1,1.3,0.4c0.4,0.3,0.6,0.9,0.7,1.7l0.1,0.8c0.1,0.8,0.1,1.3-0.1,1.6
		c-0.3,0.6-0.8,0.9-1.4,1c-0.4,0.1-0.8,0-1.1-0.3C161.9,18,161.7,17.6,161.6,17.2L161.6,17.2z"/>
	<path d="M179.6,15.8l-0.1,7c0,0.8,0.1,1.2,0.4,1.5c0.5,0.4,1.3,0.6,2.6,0.6c1.8,0,3.4-0.3,5-1.1c0.6-0.3,1-0.4,1.4-0.4
		c0.5,0,0.8,0.2,1.2,0.5c0.3,0.3,0.5,0.8,0.5,1.3c0,0.5-0.2,0.8-0.6,1.2c-0.6,0.5-1.7,1-3.3,1.4c-1.7,0.4-3,0.6-4.2,0.6
		c-2.2,0-3.8-0.5-4.9-1.5c-1.1-1-1.6-2.1-1.6-3.5l0.1-7.7l-1.3,0c-0.8,0-1.4-0.2-1.8-0.5c-0.4-0.3-0.5-0.8-0.5-1.3
		c0-0.5,0.2-0.9,0.6-1.2c0.4-0.3,1-0.5,1.8-0.5l1.3,0l0-3.2c0-0.8,0.2-1.4,0.5-1.8c0.3-0.4,0.8-0.5,1.3-0.5c0.5,0,0.9,0.2,1.2,0.6
		c0.3,0.4,0.5,1,0.5,1.8l0,3.2l6.5,0.1c0.8,0,1.4,0.2,1.8,0.5c0.4,0.3,0.5,0.8,0.5,1.3c0,0.5-0.2,0.9-0.6,1.2
		c-0.4,0.3-1,0.5-1.8,0.5L179.6,15.8L179.6,15.8z"/>
	<path d="M209.9,22.4l-14.5-2.2l0.5-3.2l14.5,2.2L209.9,22.4z"/>
	<path d="M224.3,11.8l-2.3,7.5c1-0.3,1.9-0.4,2.9-0.4c0.9,0,1.8,0.1,2.7,0.4c2.3,0.7,4,2.1,5.1,4.2c1.1,2.1,1.3,4.3,0.6,6.5
		c-0.7,2.2-2,3.7-4,4.7c-2,1-4.2,1.1-6.7,0.3c-0.9-0.3-1.7-0.7-2.5-1.1c-0.8-0.5-1.5-1.1-2.1-1.8l-0.3,0.8l-3.9-1.2
		c-0.8-0.2-1.3-0.6-1.6-1s-0.3-0.9-0.1-1.4c0.2-0.5,0.5-0.8,0.9-1c0.4-0.2,1.1-0.2,1.9,0.1l0.6,0.2l4.5-14.5l-0.6-0.2
		c-0.8-0.3-1.3-0.6-1.6-1s-0.3-0.9-0.1-1.4c0.2-0.5,0.4-0.8,0.9-1s1.1-0.2,1.9,0.1L224.3,11.8L224.3,11.8z M229.9,29.1
		c0.4-1.4,0.3-2.7-0.4-4s-1.7-2.1-3.1-2.5c-1.4-0.4-2.7-0.3-4,0.3s-2.1,1.7-2.5,3c-0.4,1.2-0.3,2.4,0.4,3.4s1.7,1.8,3.3,2.3
		c1.6,0.5,2.9,0.5,4.1,0C228.8,31.2,229.5,30.3,229.9,29.1L229.9,29.1z"/>
	<path d="M244.4,43.4l0.4-0.7c-1,0-2-0.1-3.1-0.3c-1.1-0.2-2-0.6-2.8-0.9c-1.7-0.8-2.9-1.9-3.5-3.3c-0.6-1.4-0.7-2.7-0.2-3.7
		c0.6-1.3,1.9-2.2,3.8-2.7c1.9-0.5,4-0.2,6.4,1c1,0.5,2,1.1,3.2,1.9l0.4-0.8c0.2-0.5,0.2-1-0.1-1.4c-0.3-0.5-1-1-2.1-1.6
		c-0.9-0.4-2.2-0.8-3.9-1.2c-0.6-0.1-1.1-0.3-1.4-0.4c-0.4-0.2-0.7-0.5-0.9-1c-0.1-0.4-0.1-0.9,0.1-1.4c0.1-0.3,0.3-0.5,0.5-0.6
		c0.2-0.1,0.4-0.2,0.7-0.3c0.2,0,0.7,0,1.4,0.1c0.9,0.2,1.8,0.4,2.6,0.6c0.9,0.3,1.6,0.5,2.3,0.9c2,0.9,3.3,2.1,4,3.5
		c0.7,1.4,0.7,2.8,0,4.3l-3.1,6.5l0.5,0.3c0.8,0.4,1.2,0.8,1.4,1.2c0.2,0.4,0.2,0.9-0.1,1.4c-0.2,0.5-0.6,0.8-1,0.9
		c-0.5,0.1-1.1,0-1.8-0.3L244.4,43.4L244.4,43.4z M247.1,37.8c-1.1-0.9-2.3-1.5-3.3-2c-1.3-0.6-2.5-0.8-3.8-0.7
		c-0.8,0.1-1.2,0.4-1.4,0.8c-0.1,0.3-0.1,0.6,0.1,0.9c0.4,0.6,1,1.1,1.9,1.5c0.8,0.4,1.7,0.6,2.8,0.8c1.1,0.2,2.2,0.2,3.1,0
		L247.1,37.8L247.1,37.8z"/>
	<path d="M269.5,44.6c-0.3-0.6-0.7-1.1-1.1-1.6c-0.4-0.5-1-0.9-1.5-1.2c-1.2-0.7-2.2-1.1-3.1-1.1c-0.4,0-0.7,0.1-0.8,0.3
		c-0.1,0.2-0.1,0.6,0.2,1c0.2,0.3,0.8,0.9,1.8,1.7c1.8,1.5,3,2.6,3.6,3.3c0.8,1,1.3,2,1.4,3c0.1,1-0.1,2-0.5,2.8
		c-0.7,1.1-1.7,1.7-3.1,1.8c-2,0.2-4.1-0.3-6.2-1.6c-0.9-0.5-1.6-1.1-2.3-1.7s-1.2-1.2-1.6-1.9c-0.2,0-0.4,0-0.6,0
		c-0.2,0-0.4-0.1-0.6-0.2c-0.5-0.3-0.7-0.7-0.8-1.1c-0.1-0.5,0.1-1.1,0.5-1.8l0.6-1c0.4-0.7,0.9-1.1,1.4-1.3
		c0.5-0.1,0.9-0.1,1.4,0.2c0.4,0.2,0.6,0.5,0.7,0.9c0.1,0.3,0.1,0.8-0.1,1.4c0.2,0.7,0.6,1.3,1.1,1.9c0.5,0.6,1.2,1.1,2,1.7
		c1.4,0.8,2.6,1.3,3.6,1.3c0.5,0,0.8-0.1,0.9-0.3c0.2-0.4,0.2-0.9-0.2-1.4c-0.4-0.6-1.3-1.4-2.8-2.6c-2.2-1.7-3.6-3.2-3.9-4.4
		c-0.4-1.2-0.2-2.3,0.4-3.4c0.7-1.1,1.6-1.7,3-1.8c1.8-0.2,3.7,0.3,5.7,1.5c0.7,0.4,1.3,0.9,1.9,1.4c0.6,0.5,1,1.1,1.5,1.7
		c0.3,0,0.5,0,0.7,0c0.2,0,0.4,0.1,0.5,0.2c0.4,0.2,0.7,0.6,0.7,1.1c0.1,0.5-0.1,1.1-0.5,1.8l-0.4,0.7c-0.4,0.7-0.7,1-1,1.2
		c-0.6,0.3-1.1,0.2-1.7-0.1c-0.4-0.2-0.6-0.5-0.7-0.9C269.3,45.4,269.3,45,269.5,44.6L269.5,44.6z"/>
	<path d="M289.3,63.8L277.3,56c-0.2,1,0,1.9,0.4,2.9c0.5,1,1.4,1.9,2.7,2.8c1.1,0.7,2.7,1.4,4.8,2.1c0.9,0.3,1.4,0.5,1.7,0.7
		c0.4,0.3,0.6,0.6,0.7,1.1c0.1,0.5,0,0.9-0.3,1.3c-0.2,0.4-0.6,0.6-1.1,0.7c-0.6,0.1-1.8-0.2-3.5-0.8c-1.7-0.6-3.2-1.4-4.6-2.3
		c-2.4-1.5-3.8-3.4-4.4-5.6c-0.5-2.2-0.2-4.3,1.1-6.3c1.3-2.1,3.2-3.3,5.6-3.6s4.5,0.2,6.5,1.5c1.2,0.8,2.2,1.7,2.9,2.8
		c0.7,1.1,1.2,2,1.3,2.8c0.2,1.2,0.2,2.4,0,3.7c-0.2,0.9-0.6,1.9-1.2,2.8L289.3,63.8L289.3,63.8z M288,58.8c0.1-1.1-0.1-2.1-0.5-3
		s-1.2-1.7-2.2-2.3c-1-0.6-2-1-3-1c-1-0.1-2,0.2-3,0.7L288,58.8L288,58.8z"/>
	<path d="M315.8,60.9L306.4,77l0.5,0.3c0.7,0.4,1.2,0.9,1.3,1.3c0.2,0.5,0.1,0.9-0.2,1.4c-0.3,0.4-0.6,0.7-1.1,0.8
		c-0.5,0.1-1.1-0.1-1.8-0.5l-3.5-2.1l0.4-0.7c-0.9,0-1.8-0.1-2.7-0.4c-0.9-0.2-1.7-0.6-2.5-1.1c-2.3-1.3-3.7-3.1-4.3-5.2
		s-0.3-4.2,0.8-6.1c1.2-2,3-3.4,5.3-4c2.3-0.6,4.5-0.3,6.6,1c0.8,0.5,1.5,1,2.1,1.7c0.6,0.7,1.1,1.5,1.6,2.4l2.2-3.8l-0.5-0.3
		c-0.7-0.4-1.2-0.9-1.3-1.3c-0.1-0.5-0.1-0.9,0.2-1.4c0.3-0.5,0.6-0.7,1.1-0.8c0.5-0.1,1.1,0.1,1.8,0.5L315.8,60.9L315.8,60.9z
		 M305.3,71.9c0.7-1.2,0.9-2.6,0.5-3.9c-0.4-1.4-1.2-2.4-2.5-3.2c-1.3-0.7-2.6-0.9-4-0.6c-1.4,0.4-2.4,1.1-3.1,2.4
		c-0.7,1.1-0.8,2.3-0.4,3.4c0.4,1.2,1.3,2.2,2.7,3c1.4,0.8,2.7,1.1,4,0.9S304.6,73,305.3,71.9L305.3,71.9z"/>
	<path d="M343.3,86.1l-6.2,8.4l-3.7-1.2l3.5-17c-0.5-0.2-0.8-0.5-1-0.9c-0.2-0.4-0.2-0.8,0-1.2c0.2-0.5,0.5-0.9,0.9-1.1
		c0.4-0.2,1.1-0.2,1.9,0.1l4.4,1.5c0.8,0.3,1.3,0.6,1.6,1s0.3,0.9,0.1,1.4c-0.2,0.5-0.5,0.8-0.9,1c-0.4,0.2-1.1,0.2-1.9-0.1
		l-1.7-0.6l-2,9.7l5.2-6.9l3.5,1.2l0,8.6L351,81l-1.7-0.6c-0.8-0.3-1.3-0.6-1.6-1c-0.2-0.4-0.3-0.9-0.1-1.4c0.2-0.5,0.5-0.8,0.9-1
		c0.4-0.2,1.1-0.2,1.9,0.1l4.4,1.5c0.8,0.3,1.3,0.6,1.6,1c0.2,0.4,0.3,0.9,0.1,1.4c-0.1,0.4-0.4,0.7-0.8,1c-0.4,0.2-0.8,0.3-1.4,0.2
		L347,97.8l-3.7-1.2L343.3,86.1L343.3,86.1z"/>
	<path d="M372.7,97.7l-14.1-3c0.2,1,0.6,1.8,1.4,2.6c0.8,0.7,2,1.3,3.5,1.6c1.3,0.3,3,0.4,5.2,0.3c0.9,0,1.5,0,1.9,0
		c0.5,0.1,0.8,0.3,1.1,0.7s0.3,0.8,0.2,1.3c-0.1,0.4-0.3,0.8-0.7,1c-0.5,0.3-1.7,0.5-3.5,0.5c-1.8,0-3.5-0.2-5.1-0.5
		c-2.7-0.6-4.8-1.8-6.1-3.7c-1.3-1.9-1.7-4-1.2-6.2c0.5-2.4,1.8-4.2,3.9-5.3c2.1-1.1,4.3-1.5,6.6-1c1.4,0.3,2.6,0.8,3.7,1.6
		c1.1,0.7,1.8,1.5,2.3,2.1c0.6,1,1.1,2.2,1.3,3.5c0.2,0.9,0.1,1.9-0.1,3.1L372.7,97.7L372.7,97.7z M369.6,93.4
		c-0.3-1.1-0.8-2-1.6-2.6c-0.7-0.7-1.7-1.1-2.9-1.4c-1.2-0.2-2.2-0.2-3.2,0.1s-1.8,0.9-2.5,1.8L369.6,93.4z"/>
	<path d="M383.9,82.8l-0.8,7.8c0.9-0.5,1.8-0.8,2.7-1c0.9-0.2,1.8-0.2,2.7-0.1c2.4,0.2,4.4,1.3,5.9,3.1c1.5,1.8,2.1,3.9,1.9,6.3
		c-0.2,2.3-1.2,4.1-3,5.4c-1.8,1.4-3.9,1.9-6.6,1.6c-0.9-0.1-1.8-0.3-2.7-0.6c-0.8-0.3-1.6-0.8-2.4-1.3l-0.1,0.8l-4.1-0.4
		c-0.8-0.1-1.4-0.3-1.7-0.7s-0.5-0.8-0.4-1.3c0.1-0.5,0.3-0.9,0.7-1.2s1-0.4,1.8-0.3l0.6,0.1l1.5-15.1l-0.6-0.1
		c-0.8-0.1-1.4-0.3-1.7-0.7s-0.5-0.8-0.4-1.3c0.1-0.5,0.3-0.9,0.7-1.2c0.4-0.3,1-0.4,1.8-0.3L383.9,82.8L383.9,82.8z M392.8,98.6
		c0.1-1.4-0.2-2.7-1.1-3.8c-0.9-1.1-2.1-1.7-3.6-1.9c-1.5-0.1-2.7,0.2-3.8,1.1c-1.1,0.9-1.7,2-1.9,3.5c-0.1,1.3,0.2,2.4,1,3.3
		s2.1,1.5,3.7,1.6c1.7,0.2,3-0.1,4-0.8C392.1,100.9,392.7,99.9,392.8,98.6L392.8,98.6z"/>
	<path d="M413.2,95c-0.6-0.4-1.2-0.6-1.8-0.8c-0.6-0.2-1.3-0.3-2-0.3c-1.4,0-2.4,0.2-3.2,0.7c-0.4,0.2-0.5,0.4-0.5,0.6
		c0,0.3,0.2,0.5,0.7,0.8c0.4,0.2,1.2,0.4,2.4,0.5c2.3,0.3,3.9,0.6,4.9,1c1.2,0.4,2.1,1,2.8,1.9c0.6,0.8,1,1.7,1,2.6
		c0,1.3-0.6,2.3-1.7,3.1c-1.6,1.2-3.6,1.8-6.2,1.8c-1,0-2-0.1-2.8-0.3c-0.9-0.2-1.6-0.4-2.4-0.8c-0.2,0.1-0.4,0.3-0.5,0.3
		c-0.2,0.1-0.4,0.1-0.6,0.1c-0.5,0-1-0.2-1.3-0.5c-0.3-0.4-0.5-1-0.5-1.8v-1.2c0-0.8,0.2-1.4,0.5-1.8c0.3-0.4,0.7-0.5,1.3-0.5
		c0.4,0,0.8,0.1,1.1,0.4c0.3,0.2,0.5,0.6,0.7,1.2c0.5,0.5,1.2,0.8,1.9,1c0.8,0.2,1.6,0.4,2.6,0.4c1.6,0,2.9-0.2,3.7-0.8
		c0.4-0.2,0.6-0.5,0.6-0.8c0-0.5-0.3-0.8-0.9-1.1c-0.6-0.3-1.9-0.5-3.7-0.8c-2.8-0.3-4.7-0.9-5.6-1.7c-0.9-0.8-1.4-1.9-1.4-3.1
		c0-1.3,0.5-2.3,1.6-3.1c1.4-1.1,3.3-1.7,5.6-1.7c0.8,0,1.6,0.1,2.3,0.2c0.7,0.2,1.5,0.4,2.1,0.7c0.2-0.2,0.4-0.3,0.6-0.4
		c0.2-0.1,0.4-0.1,0.5-0.1c0.5,0,0.9,0.2,1.2,0.5c0.3,0.4,0.5,1,0.5,1.8l0,0.9c0,0.8-0.1,1.3-0.3,1.6c-0.4,0.5-0.9,0.8-1.5,0.8
		c-0.4,0-0.8-0.1-1.1-0.4C413.5,95.8,413.3,95.5,413.2,95L413.2,95z"/>
	<path d="M432.9,89.8l1.1,12l4.2-0.4c0.8-0.1,1.5,0,1.8,0.3s0.6,0.7,0.7,1.2c0,0.5-0.1,0.9-0.4,1.3c-0.3,0.4-0.9,0.6-1.8,0.6
		l-11.9,1.1c-0.8,0.1-1.5,0-1.8-0.3s-0.6-0.7-0.7-1.2c0-0.5,0.1-0.9,0.4-1.3c0.3-0.4,0.9-0.6,1.8-0.6l4.2-0.4l-0.8-8.5l-2.8,0.3
		c-0.8,0.1-1.4,0-1.8-0.3c-0.4-0.3-0.6-0.7-0.7-1.2c0-0.5,0.1-0.9,0.4-1.3c0.3-0.4,0.9-0.6,1.8-0.6L432.9,89.8L432.9,89.8z
		 M431.8,83.2l0.3,3.7l-4.2,0.4l-0.3-3.7L431.8,83.2L431.8,83.2z"/>
	<path d="M452.5,90.7l1.2,6.9c0.1,0.7,0.4,1.2,0.7,1.4c0.5,0.3,1.4,0.3,2.6,0.1c1.8-0.3,3.3-1,4.7-2c0.5-0.4,0.9-0.6,1.3-0.7
		c0.4-0.1,0.9,0,1.3,0.3c0.4,0.3,0.6,0.7,0.7,1.1c0.1,0.4,0,0.9-0.3,1.3c-0.5,0.6-1.5,1.3-3,2c-1.5,0.7-2.9,1.2-4,1.4
		c-2.1,0.4-3.8,0.2-5.1-0.6c-1.2-0.7-2-1.8-2.2-3.1l-1.3-7.6l-1.2,0.2c-0.8,0.1-1.5,0.1-1.9-0.2s-0.7-0.6-0.7-1.2
		c-0.1-0.5,0-0.9,0.3-1.3c0.3-0.4,0.9-0.6,1.7-0.8l1.2-0.2l-0.5-3.1c-0.1-0.8-0.1-1.5,0.2-1.9c0.3-0.4,0.6-0.7,1.2-0.7
		c0.5-0.1,0.9,0,1.3,0.3c0.4,0.3,0.6,0.9,0.8,1.7l0.5,3.1l6.4-1.1c0.8-0.1,1.5-0.1,1.9,0.2s0.7,0.6,0.7,1.2c0.1,0.5,0,0.9-0.3,1.3
		c-0.3,0.4-0.9,0.6-1.7,0.8L452.5,90.7L452.5,90.7z"/>
	<path d="M485,89.7l-14,3.4c0.6,0.8,1.4,1.4,2.4,1.7s2.3,0.3,3.9-0.1c1.3-0.3,2.9-1,4.8-2.1c0.8-0.4,1.4-0.7,1.7-0.8
		c0.5-0.1,0.9,0,1.3,0.2c0.4,0.2,0.6,0.6,0.8,1.1c0.1,0.4,0,0.9-0.2,1.3c-0.3,0.5-1.3,1.2-2.9,2c-1.6,0.8-3.2,1.4-4.8,1.8
		c-2.7,0.7-5.1,0.4-7.1-0.7s-3.3-2.8-3.8-5.1c-0.6-2.4-0.2-4.6,1.2-6.5c1.4-1.9,3.2-3.2,5.5-3.8c1.4-0.3,2.7-0.4,4-0.2
		c1.3,0.2,2.3,0.5,3,0.9c1,0.6,1.9,1.5,2.7,2.5c0.6,0.8,1,1.7,1.3,2.8L485,89.7L485,89.7z M480.4,87.2c-0.8-0.8-1.6-1.4-2.6-1.7
		c-1-0.3-2-0.3-3.2,0c-1.2,0.3-2.1,0.8-2.8,1.5c-0.7,0.7-1.2,1.6-1.5,2.7L480.4,87.2L480.4,87.2z"/>
</g>
<g>
	<path d="M795.5,66.6l8.2,11l2.8-2.1c0.7-0.5,1.3-0.7,1.7-0.7s0.9,0.3,1.2,0.7c0.3,0.4,0.4,0.9,0.3,1.3c-0.1,0.5-0.5,1-1.2,1.5
		l-8.5,6.3c-0.7,0.5-1.3,0.7-1.7,0.7c-0.5,0-0.9-0.3-1.2-0.7c-0.3-0.4-0.4-0.9-0.3-1.3c0.1-0.5,0.5-1,1.2-1.5l2.8-2.1l-8.2-11
		l-2.8,2.1c-0.7,0.5-1.3,0.7-1.7,0.7c-0.5,0-0.9-0.3-1.2-0.7c-0.3-0.4-0.4-0.9-0.3-1.3c0.1-0.5,0.5-1,1.2-1.5l8.5-6.3
		c0.7-0.5,1.3-0.7,1.7-0.7c0.5,0,0.9,0.3,1.2,0.7c0.3,0.4,0.4,0.9,0.3,1.3s-0.5,1-1.2,1.5L795.5,66.6L795.5,66.6z"/>
	<path d="M810.5,58l0.7,1c0.2-0.8,0.6-1.5,1.1-2.2c0.5-0.7,1.1-1.2,1.9-1.7c1.7-1.1,3.5-1.5,5.2-1.1c1.4,0.3,2.5,1.2,3.4,2.6
		l3.6,5.4c0.6-0.4,1.2-0.6,1.6-0.5s0.9,0.3,1.1,0.8c0.3,0.4,0.4,0.9,0.2,1.3s-0.5,0.9-1.2,1.4l-2.6,1.7c-0.7,0.5-1.3,0.7-1.8,0.6
		c-0.5-0.1-0.9-0.3-1.2-0.8c-0.3-0.4-0.4-0.9-0.3-1.3c0.1-0.5,0.5-0.9,1.1-1.3l-3.6-5.5c-0.4-0.6-0.9-1-1.4-1.1
		c-0.7-0.1-1.5,0.2-2.4,0.8c-0.7,0.4-1.2,1-1.5,1.6c-0.3,0.6-0.6,1.6-0.8,2.9l3.6,5.4c0.8-0.5,1.3-0.7,1.6-0.7
		c0.7,0,1.2,0.2,1.5,0.8c0.3,0.4,0.4,0.9,0.2,1.3s-0.5,0.9-1.2,1.4L816,73c-0.7,0.5-1.3,0.7-1.8,0.6c-0.5-0.1-0.9-0.3-1.2-0.8
		c-0.4-0.5-0.4-1.1-0.1-1.7c0.1-0.3,0.6-0.7,1.3-1.2l-4.7-7.1c-0.6,0.4-1.2,0.6-1.6,0.5c-0.5-0.1-0.9-0.3-1.1-0.8
		c-0.3-0.4-0.4-0.9-0.2-1.3s0.5-0.9,1.2-1.4L810.5,58L810.5,58z"/>
	<path d="M833.7,47.6l3.5,6.1c0.4,0.7,0.8,1,1.1,1.1c0.6,0.1,1.4-0.2,2.5-0.8c1.6-0.9,2.8-2,3.7-3.4c0.4-0.5,0.7-0.9,1-1.1
		c0.4-0.2,0.8-0.3,1.3-0.1c0.5,0.1,0.8,0.4,1.1,0.8c0.2,0.4,0.3,0.8,0.1,1.3c-0.2,0.7-0.9,1.7-2.1,2.9c-1.2,1.2-2.3,2.1-3.3,2.6
		c-1.9,1.1-3.5,1.5-5,1.2c-1.4-0.3-2.5-1-3.1-2.2l-3.8-6.7l-1.1,0.6c-0.7,0.4-1.3,0.6-1.8,0.5c-0.5-0.1-0.8-0.4-1.1-0.8
		c-0.3-0.4-0.3-0.9-0.2-1.4c0.2-0.5,0.6-0.9,1.3-1.3l1.1-0.6l-1.6-2.7c-0.4-0.7-0.6-1.3-0.5-1.8c0.1-0.5,0.4-0.8,0.8-1.1
		c0.4-0.3,0.9-0.3,1.4-0.2c0.5,0.2,0.9,0.6,1.3,1.3l1.6,2.7l5.6-3.2c0.7-0.4,1.3-0.6,1.8-0.5c0.5,0.1,0.8,0.4,1.1,0.8
		c0.3,0.4,0.3,0.9,0.2,1.4c-0.2,0.5-0.6,0.9-1.3,1.3L833.7,47.6L833.7,47.6z"/>
	<path d="M864.9,38.6l-13,6.1c0.7,0.7,1.6,1.1,2.7,1.2c1.1,0.1,2.3-0.2,3.8-0.8c1.2-0.6,2.6-1.5,4.3-3c0.7-0.6,1.2-0.9,1.5-1.1
		c0.4-0.2,0.8-0.2,1.3-0.1c0.4,0.2,0.8,0.5,1,0.9c0.2,0.4,0.2,0.8,0,1.3c-0.2,0.6-1.1,1.4-2.5,2.5c-1.4,1.1-2.9,2-4.4,2.7
		c-2.5,1.2-4.9,1.4-7.1,0.7c-2.2-0.7-3.8-2.1-4.8-4.2c-1-2.2-1.1-4.4-0.1-6.6c1-2.2,2.6-3.8,4.7-4.8c1.3-0.6,2.6-0.9,3.9-1
		c1.3-0.1,2.3,0.1,3.1,0.3c1.1,0.4,2.2,1.1,3.2,2c0.7,0.6,1.3,1.5,1.8,2.5L864.9,38.6L864.9,38.6z M859.9,37.1
		c-0.9-0.7-1.9-1.1-2.9-1.1c-1-0.1-2,0.1-3.1,0.6c-1.1,0.5-1.9,1.2-2.5,2c-0.6,0.8-0.9,1.8-1,2.9L859.9,37.1L859.9,37.1z"/>
	<path d="M873.3,25.2l0.7,2.1c1-1.5,1.9-2.6,2.6-3.2c0.7-0.6,1.4-1.1,2.1-1.3c1.1-0.4,2.3-0.4,3.5,0.1c0.9,0.3,1.4,0.7,1.6,1.3
		c0.2,0.5,0.2,0.9-0.1,1.4c-0.2,0.4-0.5,0.8-1,0.9c-0.4,0.1-0.9,0.1-1.5-0.1c-0.6-0.2-1.1-0.3-1.4-0.2c-0.5,0.2-1,0.7-1.8,1.6
		s-1.5,2.2-2.5,3.8l1.8,5l4.7-1.7c0.8-0.3,1.4-0.3,1.9-0.2c0.4,0.2,0.8,0.5,0.9,1c0.2,0.5,0.1,0.9-0.1,1.4c-0.2,0.4-0.7,0.8-1.5,1.1
		l-9.9,3.6c-0.8,0.3-1.4,0.3-1.9,0.2c-0.4-0.2-0.8-0.5-0.9-1c-0.2-0.5-0.1-0.9,0.1-1.4c0.2-0.4,0.7-0.8,1.5-1.1l2-0.7l-2.9-8
		l-1.2,0.4c-0.8,0.3-1.4,0.3-1.9,0.2s-0.8-0.5-0.9-1c-0.2-0.5-0.1-0.9,0.1-1.4s0.7-0.8,1.5-1.1L873.3,25.2L873.3,25.2z"/>
	<path d="M906.9,25.4l-14,3.4c0.6,0.8,1.4,1.4,2.4,1.7c1,0.3,2.3,0.3,3.9-0.1c1.3-0.3,2.9-1,4.8-2c0.8-0.4,1.4-0.7,1.7-0.8
		c0.5-0.1,0.9,0,1.3,0.2c0.4,0.2,0.6,0.6,0.8,1.1c0.1,0.4,0,0.9-0.2,1.3c-0.3,0.5-1.3,1.2-2.9,2c-1.6,0.8-3.2,1.4-4.8,1.8
		c-2.7,0.7-5.1,0.4-7.1-0.7s-3.3-2.8-3.8-5.1c-0.6-2.4-0.2-4.6,1.2-6.5c1.4-1.9,3.2-3.2,5.5-3.7c1.4-0.3,2.7-0.4,4-0.2
		c1.3,0.2,2.3,0.5,3,0.9c1,0.6,1.9,1.5,2.7,2.6c0.6,0.8,1,1.7,1.2,2.8L906.9,25.4L906.9,25.4z M902.2,22.9c-0.8-0.8-1.6-1.4-2.6-1.7
		c-1-0.3-2-0.3-3.2,0c-1.2,0.3-2.1,0.8-2.8,1.5c-0.7,0.7-1.2,1.6-1.5,2.7L902.2,22.9L902.2,22.9z"/>
	<path d="M923,17.7c-0.6-0.3-1.2-0.5-1.9-0.6s-1.3-0.1-2,0c-1.3,0.2-2.4,0.5-3.1,1c-0.3,0.2-0.5,0.5-0.5,0.7c0,0.3,0.3,0.5,0.8,0.7
		c0.4,0.1,1.2,0.2,2.5,0.2c2.3,0,4,0.2,4.9,0.4c1.2,0.3,2.2,0.8,3,1.5c0.7,0.7,1.2,1.6,1.3,2.5c0.2,1.2-0.3,2.4-1.3,3.3
		c-1.4,1.4-3.4,2.3-5.9,2.6c-1,0.1-1.9,0.1-2.8,0.1c-0.9-0.1-1.7-0.2-2.4-0.5c-0.2,0.2-0.3,0.3-0.5,0.4s-0.4,0.2-0.6,0.2
		c-0.5,0.1-1-0.1-1.4-0.4s-0.6-0.9-0.7-1.7l-0.1-1.2c-0.1-0.8,0-1.5,0.3-1.8c0.3-0.4,0.7-0.6,1.2-0.7c0.4-0.1,0.8,0,1.1,0.2
		c0.3,0.2,0.6,0.6,0.8,1.1c0.6,0.4,1.3,0.7,2,0.8c0.8,0.1,1.6,0.2,2.6,0c1.6-0.2,2.8-0.6,3.6-1.2c0.4-0.3,0.6-0.6,0.5-0.9
		c-0.1-0.5-0.4-0.8-1-1c-0.6-0.2-1.9-0.3-3.8-0.3c-2.8,0-4.8-0.3-5.8-1c-1-0.7-1.6-1.7-1.8-2.9c-0.2-1.2,0.2-2.3,1.2-3.3
		c1.3-1.3,3.1-2.1,5.4-2.4c0.8-0.1,1.6-0.1,2.3-0.1c0.8,0.1,1.5,0.2,2.2,0.4c0.2-0.2,0.4-0.3,0.6-0.4c0.2-0.1,0.3-0.2,0.5-0.2
		c0.5-0.1,0.9,0.1,1.3,0.4c0.4,0.3,0.6,0.9,0.7,1.7l0.1,0.8c0.1,0.8,0.1,1.3-0.1,1.6c-0.3,0.6-0.8,0.9-1.4,1c-0.4,0.1-0.8,0-1.1-0.3
		C923.4,18.4,923.2,18.1,923,17.7L923,17.7z"/>
	<path d="M941.1,16.3l-0.1,7c0,0.8,0.1,1.2,0.4,1.5c0.5,0.4,1.3,0.6,2.6,0.6c1.8,0,3.4-0.3,5-1.1c0.6-0.3,1-0.4,1.4-0.4
		c0.5,0,0.8,0.2,1.2,0.5c0.3,0.3,0.5,0.8,0.5,1.3c0,0.5-0.2,0.8-0.6,1.2c-0.6,0.5-1.7,1-3.3,1.4c-1.7,0.4-3,0.6-4.2,0.6
		c-2.2,0-3.8-0.5-4.9-1.5c-1.1-1-1.6-2.1-1.6-3.5l0.1-7.7l-1.3,0c-0.8,0-1.4-0.2-1.8-0.5c-0.4-0.3-0.5-0.8-0.5-1.3
		c0-0.5,0.2-0.9,0.6-1.2c0.4-0.3,1-0.5,1.8-0.5l1.3,0l0-3.2c0-0.8,0.2-1.4,0.5-1.8s0.8-0.5,1.3-0.5c0.5,0,0.9,0.2,1.2,0.6
		s0.5,1,0.5,1.8l0,3.2l6.5,0.1c0.8,0,1.4,0.2,1.8,0.5c0.4,0.3,0.5,0.8,0.5,1.3c0,0.5-0.2,0.9-0.6,1.2c-0.4,0.3-1,0.5-1.8,0.5
		L941.1,16.3L941.1,16.3z"/>
	<path d="M971.4,22.9l-14.5-2.2l0.5-3.2l14.5,2.2L971.4,22.9z"/>
	<path d="M985.8,12.3l-2.3,7.5c1-0.3,1.9-0.4,2.9-0.4c0.9,0,1.8,0.1,2.7,0.4c2.3,0.7,4,2.1,5.1,4.2c1.1,2.1,1.3,4.3,0.6,6.5
		c-0.7,2.2-2,3.7-4,4.7c-2,1-4.2,1.1-6.7,0.3c-0.9-0.3-1.7-0.7-2.5-1.1c-0.8-0.5-1.5-1.1-2.1-1.8l-0.3,0.8l-3.9-1.2
		c-0.8-0.3-1.3-0.6-1.6-1c-0.2-0.4-0.3-0.9-0.1-1.4c0.2-0.5,0.5-0.8,0.9-1c0.4-0.2,1.1-0.2,1.9,0.1l0.6,0.2l4.5-14.5l-0.6-0.2
		c-0.8-0.3-1.3-0.6-1.6-1c-0.2-0.4-0.3-0.9-0.1-1.4c0.2-0.5,0.4-0.8,0.9-1c0.4-0.2,1.1-0.2,1.9,0.1L985.8,12.3L985.8,12.3z
		 M991.4,29.6c0.4-1.4,0.3-2.7-0.4-4s-1.7-2.1-3.1-2.5c-1.4-0.4-2.7-0.3-4,0.3c-1.3,0.7-2.1,1.7-2.5,3c-0.4,1.2-0.3,2.4,0.4,3.4
		s1.7,1.8,3.3,2.3c1.6,0.5,2.9,0.5,4.1,0C990.3,31.6,991,30.8,991.4,29.6L991.4,29.6z"/>
	<path d="M1005.9,43.9l0.4-0.7c-1,0-2-0.1-3.1-0.3c-1.1-0.2-2-0.6-2.8-0.9c-1.7-0.8-2.9-1.9-3.5-3.3c-0.6-1.4-0.7-2.7-0.2-3.7
		c0.6-1.3,1.9-2.2,3.8-2.7c1.9-0.5,4-0.2,6.4,1c1,0.5,2,1.1,3.2,1.9l0.4-0.8c0.2-0.5,0.2-1-0.1-1.4s-1-1-2.1-1.6
		c-0.9-0.4-2.2-0.8-3.9-1.2c-0.6-0.1-1.1-0.3-1.4-0.4c-0.4-0.2-0.7-0.5-0.9-1c-0.1-0.4-0.1-0.9,0.1-1.4c0.1-0.3,0.3-0.5,0.5-0.6
		c0.2-0.1,0.4-0.2,0.7-0.3c0.2,0,0.7,0,1.4,0.1c0.9,0.2,1.8,0.4,2.6,0.6c0.9,0.3,1.6,0.5,2.3,0.9c2,0.9,3.3,2.1,4,3.5s0.7,2.8,0,4.3
		l-3.1,6.5l0.5,0.3c0.8,0.4,1.2,0.8,1.4,1.2c0.2,0.4,0.2,0.9-0.1,1.4c-0.2,0.5-0.6,0.8-1,0.9c-0.5,0.1-1.1,0-1.8-0.3L1005.9,43.9
		L1005.9,43.9z M1008.6,38.2c-1.1-0.9-2.3-1.5-3.3-2c-1.3-0.6-2.5-0.8-3.8-0.7c-0.8,0.1-1.2,0.4-1.4,0.8c-0.1,0.3-0.1,0.6,0.1,0.9
		c0.4,0.6,1,1.1,1.9,1.5c0.8,0.4,1.7,0.6,2.8,0.8c1.1,0.2,2.2,0.2,3.1,0L1008.6,38.2L1008.6,38.2z"/>
	<path d="M1031,45c-0.3-0.6-0.7-1.1-1.1-1.6c-0.4-0.5-1-0.9-1.5-1.2c-1.2-0.7-2.2-1.1-3.1-1.1c-0.4,0-0.7,0.1-0.8,0.3
		c-0.1,0.2-0.1,0.6,0.2,1c0.2,0.3,0.8,0.9,1.8,1.7c1.8,1.5,3,2.6,3.6,3.3c0.8,1,1.3,2,1.4,3c0.1,1-0.1,2-0.5,2.8
		c-0.7,1.1-1.7,1.7-3.1,1.8c-2,0.2-4.1-0.3-6.2-1.6c-0.9-0.5-1.6-1.1-2.3-1.7c-0.6-0.6-1.2-1.2-1.6-1.9c-0.2,0-0.4,0-0.6,0
		c-0.2,0-0.4-0.1-0.6-0.2c-0.5-0.3-0.7-0.7-0.8-1.1c-0.1-0.5,0.1-1.1,0.5-1.8l0.6-1c0.4-0.7,0.9-1.1,1.4-1.3
		c0.5-0.1,0.9-0.1,1.4,0.2c0.4,0.2,0.6,0.5,0.7,0.9c0.1,0.3,0.1,0.8-0.1,1.4c0.2,0.7,0.6,1.3,1.1,1.9c0.5,0.6,1.2,1.1,2,1.7
		c1.4,0.8,2.6,1.3,3.6,1.3c0.5,0,0.8-0.1,0.9-0.3c0.2-0.4,0.2-0.9-0.2-1.4c-0.4-0.6-1.3-1.4-2.8-2.6c-2.2-1.7-3.6-3.2-3.9-4.4
		c-0.4-1.2-0.2-2.3,0.4-3.4c0.7-1.1,1.6-1.7,3-1.8c1.8-0.2,3.7,0.3,5.7,1.5c0.7,0.4,1.3,0.9,1.9,1.4c0.6,0.5,1,1.1,1.5,1.7
		c0.3,0,0.5,0,0.7,0c0.2,0,0.4,0.1,0.5,0.2c0.4,0.2,0.7,0.6,0.7,1.1c0.1,0.5-0.1,1.1-0.5,1.8l-0.4,0.7c-0.4,0.7-0.7,1-1,1.2
		c-0.6,0.3-1.1,0.2-1.7-0.1c-0.4-0.2-0.6-0.5-0.7-0.9C1030.8,45.9,1030.8,45.5,1031,45L1031,45z"/>
	<path d="M1050.8,64.3l-12.1-7.8c-0.2,1,0,1.9,0.4,2.9c0.5,1,1.4,1.9,2.7,2.8c1.1,0.7,2.7,1.4,4.8,2.1c0.9,0.3,1.4,0.5,1.7,0.7
		c0.4,0.3,0.6,0.6,0.7,1.1s0,0.9-0.3,1.3c-0.2,0.4-0.6,0.6-1.1,0.7c-0.6,0.1-1.8-0.2-3.5-0.8c-1.7-0.6-3.2-1.4-4.6-2.3
		c-2.4-1.5-3.8-3.4-4.4-5.6s-0.2-4.3,1.1-6.3c1.3-2.1,3.2-3.3,5.6-3.6c2.4-0.3,4.5,0.2,6.5,1.5c1.2,0.8,2.2,1.7,2.9,2.8
		c0.7,1.1,1.2,2,1.3,2.8c0.2,1.2,0.2,2.4,0,3.7c-0.2,0.9-0.6,1.9-1.2,2.8L1050.8,64.3L1050.8,64.3z M1049.5,59.2
		c0.1-1.1-0.1-2.1-0.5-3s-1.2-1.7-2.2-2.3c-1-0.6-2-1-3-1c-1-0.1-2,0.2-3,0.7L1049.5,59.2z"/>
	<path d="M1077.3,61.3l-9.4,16.1l0.5,0.3c0.7,0.4,1.2,0.9,1.3,1.3c0.2,0.5,0.1,0.9-0.2,1.4c-0.3,0.4-0.6,0.7-1.1,0.8
		c-0.5,0.1-1.1-0.1-1.8-0.5l-3.5-2.1l0.4-0.7c-0.9,0-1.8-0.1-2.7-0.4s-1.7-0.6-2.5-1.1c-2.3-1.3-3.7-3.1-4.3-5.2s-0.3-4.2,0.8-6.1
		c1.2-2,3-3.4,5.3-4c2.3-0.6,4.5-0.3,6.6,1c0.8,0.5,1.5,1,2.1,1.7s1.1,1.5,1.6,2.4l2.2-3.8l-0.5-0.3c-0.7-0.4-1.2-0.9-1.3-1.3
		c-0.1-0.5-0.1-0.9,0.2-1.4c0.3-0.5,0.6-0.7,1.1-0.8c0.5-0.1,1.1,0.1,1.8,0.5L1077.3,61.3L1077.3,61.3z M1066.7,72.4
		c0.7-1.2,0.9-2.6,0.5-3.9c-0.4-1.4-1.2-2.4-2.5-3.2c-1.3-0.7-2.6-0.9-4-0.6s-2.4,1.1-3.1,2.4c-0.7,1.1-0.8,2.3-0.4,3.4
		c0.4,1.2,1.3,2.2,2.7,3c1.4,0.8,2.7,1.1,4,0.9C1065.2,74.1,1066.1,73.5,1066.7,72.4L1066.7,72.4z"/>
	<path d="M1104.7,86.5l-6.2,8.4l-3.7-1.2l3.5-17c-0.5-0.2-0.8-0.5-1-0.9c-0.2-0.4-0.2-0.8,0-1.2c0.2-0.5,0.5-0.9,0.9-1.1
		c0.4-0.2,1.1-0.2,1.9,0.1l4.4,1.5c0.8,0.3,1.3,0.6,1.6,1s0.3,0.9,0.1,1.4c-0.2,0.5-0.5,0.8-0.9,1c-0.4,0.2-1.1,0.2-1.9-0.1
		l-1.7-0.6l-2,9.7l5.2-6.9l3.5,1.2l0,8.6l4.2-8.9l-1.7-0.6c-0.8-0.3-1.3-0.6-1.6-1c-0.2-0.4-0.3-0.9-0.1-1.4c0.2-0.5,0.5-0.8,0.9-1
		c0.4-0.2,1.1-0.2,1.9,0.1l4.4,1.5c0.8,0.3,1.3,0.6,1.6,1c0.2,0.4,0.3,0.9,0.1,1.4c-0.1,0.4-0.4,0.7-0.8,1c-0.4,0.2-0.8,0.3-1.4,0.2
		l-7.4,15.7l-3.7-1.2L1104.7,86.5L1104.7,86.5z"/>
	<path d="M1134.2,98.1l-14.1-3c0.2,1,0.6,1.8,1.4,2.6c0.8,0.7,2,1.3,3.5,1.6c1.3,0.3,3,0.4,5.2,0.3c0.9,0,1.5,0,1.9,0
		c0.5,0.1,0.8,0.3,1.1,0.7s0.3,0.8,0.2,1.3c-0.1,0.4-0.3,0.8-0.7,1c-0.5,0.3-1.7,0.5-3.5,0.5c-1.8,0-3.5-0.2-5.1-0.5
		c-2.7-0.6-4.8-1.8-6.1-3.7c-1.3-1.9-1.7-4-1.2-6.2c0.5-2.4,1.8-4.2,3.9-5.3c2.1-1.1,4.3-1.5,6.6-1c1.4,0.3,2.6,0.8,3.7,1.6
		c1.1,0.7,1.8,1.5,2.3,2.1c0.6,1,1.1,2.2,1.3,3.5c0.2,0.9,0.1,1.9-0.1,3.1L1134.2,98.1L1134.2,98.1z M1131.1,93.9
		c-0.3-1.1-0.8-2-1.6-2.6c-0.7-0.7-1.7-1.1-2.9-1.4c-1.2-0.2-2.2-0.2-3.2,0.1s-1.8,0.9-2.5,1.8L1131.1,93.9z"/>
	<path d="M1145.3,83.3l-0.8,7.8c0.9-0.5,1.8-0.8,2.7-1c0.9-0.2,1.8-0.2,2.7-0.1c2.4,0.2,4.4,1.3,5.9,3.1c1.5,1.8,2.1,3.9,1.9,6.3
		c-0.2,2.3-1.2,4.1-3,5.4s-3.9,1.9-6.6,1.6c-0.9-0.1-1.8-0.3-2.7-0.6c-0.8-0.3-1.6-0.8-2.4-1.3l-0.1,0.9l-4.1-0.4
		c-0.8-0.1-1.4-0.3-1.7-0.7s-0.5-0.8-0.4-1.3c0.1-0.5,0.3-0.9,0.7-1.2s1-0.4,1.8-0.3l0.6,0.1l1.5-15.1l-0.6-0.1
		c-0.8-0.1-1.4-0.3-1.7-0.7s-0.5-0.8-0.4-1.3c0.1-0.5,0.3-0.9,0.7-1.2c0.4-0.3,1-0.4,1.8-0.3L1145.3,83.3L1145.3,83.3z M1154.3,99.1
		c0.1-1.4-0.2-2.7-1.1-3.8c-0.9-1.1-2.1-1.7-3.6-1.9c-1.5-0.1-2.7,0.2-3.8,1.1c-1.1,0.9-1.7,2-1.9,3.5c-0.1,1.3,0.2,2.4,1,3.3
		c0.8,0.9,2.1,1.5,3.7,1.6c1.7,0.2,3-0.1,4-0.8C1153.6,101.4,1154.1,100.4,1154.3,99.1z"/>
	<path d="M1174.6,95.5c-0.6-0.4-1.2-0.6-1.8-0.8c-0.6-0.2-1.3-0.3-2-0.3c-1.4,0-2.4,0.2-3.2,0.7c-0.4,0.2-0.5,0.4-0.5,0.6
		c0,0.3,0.2,0.5,0.7,0.8c0.4,0.2,1.2,0.4,2.4,0.5c2.3,0.3,3.9,0.6,4.9,1c1.2,0.4,2.1,1,2.8,1.9c0.6,0.8,1,1.7,1,2.6
		c0,1.3-0.6,2.3-1.7,3.1c-1.6,1.2-3.6,1.8-6.2,1.8c-1,0-2-0.1-2.8-0.3c-0.9-0.2-1.6-0.4-2.4-0.8c-0.2,0.1-0.4,0.3-0.5,0.3
		c-0.2,0.1-0.4,0.1-0.6,0.1c-0.5,0-1-0.2-1.3-0.5c-0.3-0.4-0.5-1-0.5-1.8v-1.2c0-0.8,0.2-1.4,0.5-1.8c0.3-0.4,0.7-0.5,1.3-0.5
		c0.4,0,0.8,0.1,1.1,0.4c0.3,0.2,0.5,0.6,0.7,1.2c0.5,0.5,1.2,0.8,1.9,1s1.6,0.4,2.6,0.4c1.6,0,2.9-0.2,3.7-0.8
		c0.4-0.3,0.6-0.5,0.6-0.8c0-0.5-0.3-0.8-0.9-1.1s-1.9-0.5-3.7-0.8c-2.8-0.3-4.7-0.9-5.6-1.7c-0.9-0.8-1.4-1.9-1.4-3.1
		c0-1.3,0.5-2.3,1.6-3.1c1.4-1.1,3.3-1.7,5.6-1.7c0.8,0,1.6,0.1,2.3,0.2c0.7,0.2,1.5,0.4,2.1,0.7c0.2-0.2,0.4-0.3,0.6-0.4
		c0.2-0.1,0.4-0.1,0.5-0.1c0.5,0,0.9,0.2,1.2,0.5c0.3,0.4,0.5,1,0.5,1.8l0,0.9c0,0.8-0.1,1.3-0.3,1.6c-0.4,0.5-0.9,0.8-1.5,0.8
		c-0.4,0-0.8-0.1-1.1-0.4C1174.9,96.3,1174.7,96,1174.6,95.5L1174.6,95.5z"/>
	<path d="M1194.4,90.3l1.1,12l4.2-0.4c0.8-0.1,1.5,0,1.8,0.3s0.6,0.7,0.7,1.2c0,0.5-0.1,0.9-0.4,1.3s-0.9,0.6-1.8,0.6l-11.9,1.1
		c-0.8,0.1-1.5,0-1.8-0.3s-0.6-0.7-0.7-1.2c0-0.5,0.1-0.9,0.4-1.3s0.9-0.6,1.8-0.6l4.2-0.4l-0.8-8.5l-2.8,0.3
		c-0.8,0.1-1.4,0-1.8-0.3c-0.4-0.3-0.6-0.7-0.7-1.2c0-0.5,0.1-0.9,0.4-1.3c0.3-0.4,0.9-0.6,1.8-0.6L1194.4,90.3L1194.4,90.3z
		 M1193.3,83.7l0.3,3.7l-4.2,0.4l-0.3-3.7L1193.3,83.7z"/>
	<path d="M1214,91.1l1.2,6.9c0.1,0.7,0.4,1.2,0.7,1.4c0.5,0.3,1.4,0.3,2.6,0.1c1.8-0.3,3.3-1,4.7-2c0.5-0.4,0.9-0.6,1.3-0.7
		c0.4-0.1,0.9,0,1.3,0.3c0.4,0.3,0.6,0.7,0.7,1.1c0.1,0.4,0,0.9-0.3,1.3c-0.5,0.6-1.5,1.3-3,2c-1.5,0.7-2.9,1.2-4,1.4
		c-2.1,0.4-3.8,0.2-5.1-0.6c-1.2-0.7-2-1.8-2.2-3.1l-1.3-7.6l-1.2,0.2c-0.8,0.1-1.5,0.1-1.9-0.2s-0.7-0.6-0.7-1.2
		c-0.1-0.5,0-0.9,0.3-1.3c0.3-0.4,0.9-0.6,1.7-0.8l1.2-0.2l-0.5-3.1c-0.1-0.8-0.1-1.5,0.2-1.9c0.3-0.4,0.6-0.7,1.2-0.7
		c0.5-0.1,0.9,0,1.3,0.3s0.6,0.9,0.8,1.7l0.5,3.1l6.4-1.1c0.8-0.1,1.5-0.1,1.9,0.2s0.7,0.6,0.7,1.2c0.1,0.5,0,0.9-0.3,1.3
		c-0.3,0.4-0.9,0.6-1.7,0.8L1214,91.1z"/>
	<path d="M1246.5,90.2l-14,3.4c0.6,0.8,1.4,1.4,2.4,1.7c1,0.3,2.3,0.3,3.9-0.1c1.3-0.3,2.9-1,4.8-2.1c0.8-0.4,1.4-0.7,1.7-0.8
		c0.5-0.1,0.9,0,1.3,0.2c0.4,0.2,0.6,0.6,0.8,1.1c0.1,0.4,0,0.9-0.2,1.3c-0.3,0.5-1.3,1.2-2.9,2c-1.6,0.8-3.2,1.4-4.8,1.8
		c-2.7,0.7-5.1,0.4-7.1-0.7c-2-1.1-3.3-2.8-3.8-5.1c-0.6-2.4-0.2-4.6,1.2-6.5c1.4-1.9,3.2-3.2,5.5-3.8c1.4-0.3,2.7-0.4,4-0.2
		c1.3,0.2,2.3,0.5,3,0.9c1,0.6,1.9,1.5,2.7,2.5c0.6,0.8,1,1.7,1.3,2.8C1246.1,88.7,1246.5,90.2,1246.5,90.2z M1241.9,87.7
		c-0.8-0.8-1.6-1.4-2.6-1.7c-1-0.3-2-0.3-3.2,0c-1.2,0.3-2.1,0.8-2.8,1.5c-0.7,0.7-1.2,1.6-1.5,2.7L1241.9,87.7z"/>
</g>
</svg>
