<?xml version="1.0" encoding="UTF-8"?><svg id="Layer_1" xmlns="http://www.w3.org/2000/svg" width="294" height="120.2556" viewBox="0 0 294 120.2556"><defs><style>.cls-1{fill:none;stroke:#000;stroke-linecap:round;stroke-linejoin:round;stroke-width:5px;}</style></defs><g><path class="cls-1" d="M163.5458,55.4412c-4.6666-3-9.3334-6-14-9l-27.9231,.1538v18.8462h-9.0769l9.0769,50.5993h82.9231V55.2948c-13.6666,.0488-27.3334,.0976-41,.1464Z"/><polyline class="cls-1" points="204.6227 116.0405 195.5458 65.4412 121.6227 65.4412"/></g><g><path d="M90.0127,26.104l5.0576,3.6982,.9541-1.3057c.2275-.3105,.4502-.4883,.667-.5332s.4219,.0029,.6143,.1445c.1895,.1387,.2959,.3174,.3184,.5371,.0234,.2207-.0791,.4863-.3066,.7969l-2.8545,3.9043c-.2275,.3105-.4492,.4883-.666,.5332s-.4219-.0029-.6152-.1445c-.1895-.1387-.2949-.3174-.3184-.5381-.0225-.2197,.0791-.4854,.3066-.7959l.9551-1.3057-5.0576-3.6982-.9551,1.3047c-.2275,.3115-.4492,.4893-.666,.5342s-.4219-.0029-.6152-.1445-.3018-.3223-.3242-.542c-.0234-.2207,.0791-.4863,.3066-.7969l2.8613-3.8994c.2266-.3105,.4482-.4893,.6631-.5361,.2139-.0459,.418,.001,.6113,.1426s.3018,.3223,.3242,.542c.0234,.2207-.0791,.4863-.3066,.7969l-.9541,1.3057Z"/><path d="M96.5566,20.1518l.3447,.415c.0645-.3789,.1914-.7285,.3818-1.0498s.4443-.6133,.7607-.876c.7285-.6064,1.4932-.8594,2.2939-.7598,.6357,.0811,1.1973,.4131,1.6836,.998l1.9033,2.2891c.2598-.2168,.5-.3193,.7188-.3086s.4053,.1084,.5586,.292c.1494,.1807,.209,.3799,.1777,.5996-.0312,.2188-.1953,.4512-.4912,.6982l-1.1113,.9238c-.2969,.2461-.5547,.3652-.7764,.3555-.2207-.0088-.4082-.1055-.5615-.29-.1494-.1797-.21-.3789-.1807-.5967,.0293-.2168,.1738-.4336,.4346-.6504l-1.9336-2.3242c-.2227-.2686-.458-.4053-.7051-.4092-.3223-.0039-.6709,.1514-1.0469,.4639-.2852,.2363-.4883,.499-.6104,.7871-.123,.2881-.2002,.7471-.2324,1.377l1.9033,2.2881c.3164-.2627,.5449-.4023,.6875-.4189,.2959-.043,.541,.0518,.7344,.2842,.1494,.1797,.209,.3799,.1777,.5986s-.1953,.4512-.4912,.6982l-1.4004,1.1641c-.2959,.2461-.5547,.3643-.7754,.3555-.2217-.0098-.4082-.1064-.5615-.29-.1865-.2246-.2354-.4785-.1465-.7627,.0459-.1396,.2275-.3418,.5439-.6045l-2.4873-2.9912c-.2607,.2168-.501,.3184-.7217,.3047-.2207-.0127-.4062-.1094-.5557-.2891-.1504-.1807-.21-.3799-.1787-.5986,.0312-.2197,.1953-.4521,.4912-.6982l1.1719-.9746Z"/><path d="M107.2656,14.6509l1.5078,2.835c.1611,.3027,.3301,.4697,.5059,.501,.2734,.0488,.6592-.0586,1.1553-.3232,.7217-.3838,1.3066-.8926,1.7539-1.5264,.1709-.2441,.3232-.4014,.457-.4727,.1836-.0977,.3799-.1143,.5889-.0479,.209,.0654,.3662,.1973,.4717,.3945,.0977,.1846,.1084,.3818,.0322,.5938-.1104,.3359-.4492,.7715-1.0166,1.3066-.5684,.5352-1.0801,.9238-1.5352,1.166-.8779,.4668-1.6377,.6279-2.2783,.4824s-1.1084-.4951-1.4014-1.0469l-1.6553-3.1104-.5107,.2715c-.3398,.1816-.6172,.2451-.832,.1904-.2148-.0537-.3779-.1865-.4902-.3975-.1104-.207-.1279-.415-.0527-.623s.2822-.4023,.623-.584l.5107-.2715-.6797-1.2754c-.1807-.3408-.2441-.6182-.1904-.832,.0537-.2148,.1865-.3789,.3984-.4912,.207-.1094,.4141-.127,.6221-.0518,.209,.0742,.4033,.2822,.584,.623l.6787,1.2754,2.6143-1.3906c.3398-.1807,.6182-.2441,.832-.1904,.2148,.0537,.3779,.1865,.4912,.3984,.1094,.2061,.127,.4141,.0518,.6221s-.2822,.4023-.623,.584l-2.6133,1.3906Z"/><path d="M122.0225,11.8423l-6.2705,1.9629c.2832,.3477,.666,.5801,1.1475,.6973,.4814,.1162,1.0674,.0664,1.7578-.1494,.5674-.1777,1.2822-.5352,2.1455-1.0732,.3564-.2207,.6094-.3545,.7578-.4014,.2041-.0635,.3984-.0449,.582,.0557,.1846,.1006,.3115,.2598,.3799,.4785,.0615,.1992,.04,.3916-.0654,.5771-.1406,.2461-.5703,.5732-1.2891,.9814-.7188,.4072-1.4326,.7227-2.1436,.9453-1.2227,.3828-2.3086,.3438-3.2578-.1182-.9502-.4609-1.583-1.1963-1.8984-2.2051-.3359-1.0742-.2139-2.0713,.3682-2.9932s1.3896-1.5449,2.4238-1.8682c.6211-.1943,1.2256-.2637,1.8135-.208,.5879,.0566,1.0488,.1709,1.3818,.3457,.4727,.2559,.9111,.6182,1.3145,1.0859,.2773,.3281,.4932,.7412,.6494,1.2383l.2031,.6484Zm-2.1709-.999c-.3711-.3643-.7793-.5947-1.2246-.6934-.4453-.0977-.9287-.0645-1.4512,.0986-.5166,.1621-.9297,.4102-1.2402,.7441-.3096,.335-.5156,.7578-.6172,1.2705l4.5332-1.4199Z"/><path d="M127.0303,6.5571l.1465,.9893c.5938-.5771,1.0703-.9746,1.4307-1.1914,.3594-.2168,.707-.3496,1.042-.3994,.5156-.0762,1.0439,.04,1.584,.3496,.3682,.209,.5723,.4473,.6123,.7148,.0332,.2266-.0166,.4307-.1504,.6104-.1338,.1807-.3115,.2871-.5332,.3203-.1963,.0293-.417-.0381-.6621-.2021-.2451-.1631-.4531-.2324-.623-.207-.2217,.0322-.5322,.2207-.9307,.5645-.3994,.3438-.8877,.8418-1.4648,1.4961l.3545,2.3887,2.2568-.335c.3809-.0566,.6631-.0234,.8477,.0996,.1836,.1221,.2939,.3027,.3291,.5391,.0342,.2324-.0195,.4336-.1592,.6045-.1406,.1709-.4014,.2842-.7832,.3408l-4.7832,.71c-.3818,.0566-.6641,.0234-.8486-.0996-.1836-.123-.293-.3027-.3281-.54-.0342-.2314,.0186-.4326,.1592-.6035s.4014-.2852,.7822-.3418l.9434-.1396-.5713-3.8486-.5723,.085c-.3809,.0566-.6631,.0234-.8477-.0996-.1836-.1221-.2939-.3018-.3291-.5391-.0342-.2314,.0195-.4336,.1592-.6045,.1406-.1709,.4014-.2842,.7832-.3408l2.1562-.3203Z"/><path d="M142.0234,9.9126l-6.5684,.1406c.1748,.4131,.4775,.7422,.9072,.9883,.4307,.2461,1.0068,.3613,1.7305,.3457,.5938-.0127,1.3799-.1572,2.3594-.4336,.4033-.1123,.6836-.1709,.8398-.1738,.2129-.0049,.3945,.0674,.5439,.2148,.1484,.1484,.2256,.3369,.2305,.5654,.0049,.209-.0693,.3877-.2227,.5361-.2041,.1973-.708,.3916-1.5117,.583-.8027,.1924-1.5771,.2959-2.3213,.3115-1.2812,.0273-2.3135-.3125-3.0977-1.0195-.7832-.707-1.1865-1.5898-1.209-2.6465-.0234-1.125,.3721-2.0488,1.1875-2.7725s1.7646-1.0967,2.8477-1.1191c.6504-.0146,1.251,.0879,1.7998,.3047,.5488,.2178,.959,.4561,1.2305,.7158,.3828,.3779,.7031,.8477,.96,1.4102,.1748,.3916,.2686,.8486,.2793,1.3691l.0146,.6797Zm-1.8076-1.5635c-.2539-.4531-.582-.7881-.9824-1.0068-.4004-.2178-.874-.3213-1.4209-.3096-.542,.0117-1.0078,.1348-1.3984,.3701-.3916,.2354-.707,.584-.9463,1.0479l4.748-.1016Z"/><path d="M149.9688,7.9692c-.2461-.1816-.5098-.3242-.7881-.4277-.2793-.1025-.5752-.167-.8867-.1914-.6172-.0498-1.1162,.0127-1.4961,.1865-.168,.0752-.2559,.165-.2637,.2686-.0098,.1201,.0898,.2451,.2988,.377,.1592,.0957,.5244,.2061,1.0947,.3301,1.0479,.2295,1.7734,.4336,2.1768,.6113,.5303,.2354,.9277,.5547,1.1934,.957,.2666,.4023,.3828,.8145,.3486,1.2344-.0449,.5713-.335,1.0293-.8691,1.373-.7656,.499-1.7246,.7021-2.8779,.6104-.4619-.0371-.8857-.1113-1.2715-.2227-.3857-.1123-.7354-.2588-1.0498-.4404-.084,.0615-.1709,.1064-.2617,.1357-.0918,.0293-.1836,.041-.2773,.0332-.249-.0195-.4414-.1172-.5762-.293-.1348-.1748-.1875-.4551-.1562-.8389l.042-.5371c.0312-.3848,.127-.6523,.2881-.8047,.1602-.1514,.3604-.2178,.5996-.1992,.1914,.0156,.3486,.082,.4697,.1982,.1211,.1172,.208,.3076,.2598,.5732,.2275,.2275,.5088,.4072,.8428,.541s.7246,.2188,1.1709,.2539c.7324,.0586,1.3105-.0107,1.7334-.207,.2012-.0986,.3066-.2109,.3164-.335,.0166-.208-.1074-.3906-.3721-.5469-.2646-.1572-.8242-.3164-1.6777-.4785-1.2725-.2373-2.1084-.5645-2.5088-.9834-.4004-.4131-.5791-.8975-.5342-1.4531,.0449-.5713,.3242-1.0264,.8369-1.3672,.6953-.4678,1.5732-.6592,2.6318-.5742,.3691,.0293,.7207,.0918,1.0547,.1895,.335,.0967,.6523,.2305,.9521,.4004,.1045-.0645,.2012-.1113,.2891-.1416,.0889-.0293,.1689-.041,.2422-.0352,.2178,.0176,.3936,.1133,.5254,.2881,.1328,.1758,.1836,.4551,.1533,.8389l-.0312,.3896c-.0273,.3477-.0879,.5811-.1807,.6992-.1855,.2256-.4209,.3271-.7061,.3037-.1924-.0146-.3564-.0879-.4922-.2188s-.2168-.2969-.2432-.4971Z"/><path d="M158.0547,8.7348l-.5127,3.1699c-.0547,.3398-.0215,.5742,.0996,.7051,.1885,.2041,.5605,.3516,1.1162,.4414,.8066,.1309,1.5801,.0791,2.3193-.1553,.2842-.0908,.501-.125,.6494-.1006,.2061,.0332,.3721,.1396,.499,.3184s.1719,.3789,.1367,.5996c-.0332,.2061-.1445,.3701-.333,.4922-.291,.2012-.8242,.3428-1.6006,.4258-.7754,.083-1.418,.083-1.9268,.001-.9824-.1592-1.6846-.4902-2.1064-.9932-.4229-.5039-.584-1.0645-.4844-1.6816l.5625-3.4775-.5713-.0928c-.3799-.0615-.6396-.1787-.7773-.3516-.1387-.1719-.1885-.377-.1504-.6133,.0371-.2314,.1484-.4072,.335-.5273,.1855-.1211,.4678-.1504,.8486-.0889l.5713,.0928,.2305-1.4268c.0615-.3809,.1787-.6396,.3516-.7783,.1719-.1387,.377-.1885,.6133-.1504,.2314,.0381,.4072,.1494,.5273,.335,.1211,.1855,.1504,.4688,.0889,.8486l-.2305,1.4277,2.9229,.4717c.3799,.0615,.6396,.1787,.7773,.3516,.1387,.1729,.1885,.3779,.1504,.6143-.0371,.2314-.1484,.4072-.335,.5273-.1855,.1201-.4688,.1494-.8486,.0879l-2.9229-.4727Z"/><path d="M171.3721,13.1665l-6.5166-1.5029,.3281-1.4229,6.5166,1.502-.3281,1.4238Z"/><path d="M177.6895,8.3257l-.999,3.4521c.4463-.1367,.8809-.21,1.3047-.2207,.4229-.0098,.832,.042,1.2275,.1562,1.0654,.3086,1.8623,.9375,2.3896,1.8867,.5283,.9492,.6416,1.9453,.3408,2.9854-.2881,.9961-.8818,1.7256-1.7803,2.1895s-1.9258,.5283-3.082,.1943c-.4102-.1182-.79-.2852-1.1396-.5-.3496-.2158-.6729-.4766-.9688-.7852l-.1084,.376-1.8018-.5215c-.3701-.1074-.6133-.2549-.7295-.4424-.1162-.1885-.1416-.3975-.0742-.6279,.0645-.2256,.1982-.3857,.3994-.4824,.2012-.0957,.4844-.0918,.8496,.0146l.2627,.0752,1.9258-6.6562-.2627-.0762c-.3711-.1074-.6143-.2549-.7305-.4424-.1162-.1885-.1406-.3975-.0742-.6279,.0645-.2256,.1973-.3867,.3955-.4834,.1992-.0967,.4834-.0918,.8535,.0156l1.8018,.5205Zm2.7119,7.8604c.1836-.6357,.1162-1.2383-.2012-1.8076-.3184-.5684-.7998-.9463-1.4453-1.1328-.6406-.1855-1.2471-.1221-1.8193,.1895-.5732,.3115-.9492,.7773-1.1279,1.3975-.1641,.5654-.0977,1.0869,.1973,1.5654s.8086,.8242,1.5391,1.0352,1.3496,.1934,1.8574-.0527c.5068-.2461,.8408-.6445,1-1.1943Z"/><path d="M187.627,22.06l.1201-.3555c-.4482,.0732-.9189,.083-1.4121,.0283-.4922-.0547-.9268-.1455-1.3018-.2725-.8135-.2764-1.4014-.7168-1.7627-1.3203s-.4531-1.167-.2764-1.6904c.2158-.6357,.7402-1.1162,1.5742-1.4414,.833-.3252,1.8223-.293,2.9668,.0947,.459,.1562,.9717,.3848,1.54,.6875l.123-.3623c.0771-.2266,.042-.4443-.1035-.6543-.1465-.209-.4932-.4062-1.041-.5918-.4482-.1523-1.0605-.2607-1.8359-.3262-.2881-.0264-.5068-.0645-.6543-.1143-.2021-.0693-.3486-.2002-.4404-.3936-.0908-.1924-.0977-.4023-.0215-.6299,.0439-.1279,.1064-.2305,.1875-.3076s.1758-.1289,.2832-.1553c.1084-.0264,.3164-.0312,.624-.0156,.4102,.0244,.8203,.0713,1.2314,.1416,.4102,.0703,.7734,.1592,1.0889,.2666,.9424,.3193,1.6045,.7715,1.9863,1.3545,.3828,.584,.4541,1.2275,.2148,1.9336l-1.0596,3.1221,.2588,.0879c.3652,.123,.6016,.2822,.709,.4756s.123,.4033,.0459,.6299c-.0752,.2217-.2139,.377-.417,.4648s-.4873,.0693-.8525-.0537l-1.7754-.6025Zm.9209-2.7158c-.5664-.3242-1.1055-.5732-1.6191-.7471-.6162-.209-1.1973-.2383-1.7432-.0889-.3418,.0986-.5459,.2471-.6123,.4443-.0488,.1436-.0215,.2812,.0811,.415,.1914,.2471,.502,.4434,.9307,.5889,.3652,.123,.8027,.1924,1.3125,.2051,.5098,.0137,.9863-.042,1.4297-.166l.2207-.6514Z"/><path d="M199.1084,20.7056c-.1865-.2432-.3994-.4531-.6387-.6299s-.5049-.3203-.7969-.4307c-.5801-.2197-1.0762-.2979-1.4893-.2373-.1826,.0264-.292,.0879-.3291,.1846-.042,.1123,.0186,.2607,.1826,.4453,.127,.1367,.4463,.3438,.96,.6211,.9424,.5127,1.582,.9102,1.9209,1.1943,.4434,.373,.7363,.791,.8799,1.251,.1426,.4609,.1396,.8887-.0088,1.2832-.2031,.5361-.6084,.8945-1.2178,1.0762-.874,.2656-1.8516,.1943-2.9336-.2148-.4336-.1641-.8203-.3535-1.1592-.5674-.3389-.2148-.6348-.4531-.8867-.7158-.0967,.0361-.1934,.0557-.2891,.0586-.0957,.002-.1875-.0127-.2744-.0459-.2344-.0889-.3916-.2354-.4727-.4414s-.0527-.4893,.083-.8496l.1904-.5049c.1367-.3604,.3037-.5908,.5-.6924,.1973-.1006,.4072-.1084,.6318-.0244,.1797,.0684,.3125,.1758,.3965,.3213,.084,.1465,.1143,.3535,.0898,.623,.1553,.2812,.375,.5332,.6592,.7549,.2832,.2207,.6348,.4111,1.0537,.5693,.6875,.2598,1.2607,.3545,1.7217,.2832,.2207-.0391,.3535-.1172,.3975-.2344,.0742-.1943,.0059-.4043-.2051-.6279-.21-.2246-.7031-.5332-1.4785-.9268-1.1553-.582-1.8672-1.1289-2.1348-1.6426-.2705-.5078-.3066-1.0234-.1094-1.5449,.2021-.5352,.5967-.8955,1.1846-1.0801,.7979-.2549,1.6943-.1953,2.6875,.1807,.3467,.1309,.666,.2891,.9609,.4756,.2939,.1865,.5615,.4033,.8018,.6504,.1191-.0332,.2246-.0518,.3184-.0557,.0928-.0039,.1738,.0078,.2422,.0332,.2041,.0771,.3457,.2188,.4238,.4238,.0791,.2051,.0498,.4873-.0869,.8477l-.1377,.3662c-.123,.3262-.2461,.5332-.3682,.6201-.2412,.165-.4951,.1973-.7627,.0957-.1807-.0674-.3174-.1836-.4121-.3477-.0938-.1631-.125-.3447-.0947-.5449Z"/><path d="M209.5947,27.7515l-6.0186-2.6348c-.0146,.4482,.1211,.875,.4072,1.2783,.2871,.4043,.7617,.751,1.4248,1.042,.5439,.2383,1.3184,.4375,2.3223,.5986,.4141,.0674,.6924,.1328,.8359,.1953,.1953,.085,.3291,.2266,.4023,.4238,.0732,.1963,.0635,.4004-.0283,.6094-.083,.1914-.2256,.3223-.4277,.3936-.2676,.0928-.8066,.0566-1.6162-.1064-.8096-.1641-1.5557-.3955-2.2373-.6943-1.1738-.5137-1.9678-1.2559-2.3809-2.2275-.4141-.9717-.4082-1.9414,.0156-2.9102,.4512-1.0303,1.1982-1.7021,2.2432-2.0156,1.0439-.3135,2.0615-.2529,3.0547,.1816,.5957,.2607,1.0977,.6055,1.5039,1.0342,.4072,.4277,.6787,.8174,.8154,1.167,.1895,.5039,.2812,1.0645,.2783,1.6826-.0059,.4297-.1133,.8828-.3223,1.3594l-.2725,.623Zm-.9824-2.1787c-.041-.5176-.1963-.96-.4688-1.3262-.2715-.3662-.6582-.6592-1.1592-.8789-.4961-.2168-.9707-.3008-1.4238-.252-.4541,.0488-.8867,.2324-1.2998,.5527l4.3516,1.9043Z"/><path d="M221.6475,25.5864l-3.916,7.5791,.2432,.126c.3379,.1738,.5469,.3652,.627,.5742,.0791,.208,.0645,.4189-.0449,.6318-.1084,.208-.2686,.3408-.4824,.3975-.2139,.0557-.4922-.0039-.835-.1807l-1.666-.8613,.1797-.3467c-.4219,.0225-.835-.0098-1.2393-.0947-.4043-.0859-.7959-.2266-1.1748-.4229-1.0693-.5527-1.7705-1.3057-2.1035-2.2607s-.2617-1.8926,.2139-2.8135c.4971-.9629,1.2637-1.6074,2.2998-1.9336s2.0479-.2344,3.0332,.2744c.3701,.1914,.7041,.4355,1.002,.7334s.5615,.6494,.791,1.0547l.915-1.7695-.2432-.125c-.3428-.1777-.5527-.3691-.6299-.5762-.0781-.208-.0625-.415,.0449-.623,.1094-.2129,.2715-.3477,.4854-.4043s.4922,.0029,.835,.1807l1.665,.8604Zm-4.542,5.3027c.3027-.5869,.3545-1.1914,.1533-1.8105-.2021-.6201-.6016-1.085-1.1982-1.3926-.5918-.3066-1.1992-.3623-1.8213-.168s-1.082,.5791-1.3779,1.1523c-.2705,.5234-.3076,1.0479-.1104,1.5742,.1973,.5273,.6328,.9648,1.3086,1.3135,.6709,.3467,1.2803,.4492,1.8291,.3076,.5479-.1416,.9531-.4668,1.2168-.9766Z"/><path d="M233.2451,39.1997l-3.7715,2.9424-1.4902-1.0039,3.6045-7.0576c-.1855-.1621-.292-.3359-.3184-.5205-.0264-.1836,.0195-.3643,.1387-.542,.1396-.207,.3203-.3281,.54-.3613,.2207-.0332,.4912,.0566,.8105,.2725l1.7646,1.1982c.3193,.2148,.5068,.4287,.5615,.6416s.0146,.418-.1191,.6172c-.1338,.1982-.3105,.3135-.5293,.3447-.2188,.0322-.4883-.0605-.8076-.2754l-.6934-.4668-2.0605,4.0098,3.125-2.3887,1.3809,.9297-1.0449,3.7891,2.9414-3.416-.6934-.4668c-.3203-.2158-.5068-.4307-.5596-.6455-.0537-.2148-.0127-.4209,.1211-.6201,.1338-.1982,.3096-.3135,.5293-.3447,.2188-.0322,.4883,.0596,.8076,.2754l1.7578,1.1934c.3203,.2158,.5068,.4297,.5615,.6416,.0547,.2129,.0156,.4189-.1182,.6172-.1133,.1689-.2656,.2773-.4551,.3252s-.3975,.0215-.623-.0811l-5.1592,6.0107-1.4648-.9863,1.2637-4.6318Z"/><path d="M243.6006,48.978l-5.2334-3.9727c-.1191,.4326-.0869,.8789,.0967,1.3389,.1846,.46,.5645,.9092,1.1406,1.3467,.4736,.3594,1.1787,.7344,2.1172,1.126,.3867,.1631,.6426,.292,.7666,.3857,.1699,.1289,.2676,.2979,.292,.5068,.0254,.208-.0312,.4043-.1699,.5859-.126,.166-.2959,.2598-.5078,.2822-.2832,.0273-.7979-.1338-1.5469-.4824-.748-.3496-1.4189-.749-2.0127-1.1992-1.0205-.7754-1.6182-1.6826-1.792-2.7236-.1738-1.042,.0586-1.9834,.6982-2.8252,.6797-.8965,1.5645-1.374,2.6523-1.4336,1.0889-.0605,2.0645,.2373,2.9268,.8926,.5186,.3936,.9258,.8457,1.2207,1.3574s.4678,.9541,.5186,1.3262c.0654,.5332,.0244,1.1006-.124,1.7002-.1064,.417-.3174,.832-.6318,1.2471l-.4111,.541Zm-.4443-2.3477c.082-.5137,.0342-.9795-.1445-1.3994-.1777-.4199-.4844-.7949-.9199-1.126-.4316-.3271-.874-.5205-1.3262-.5791-.4521-.0596-.916,.0186-1.3926,.2324l3.7832,2.8721Z"/><path d="M251.4766,45.895l-2.332,2.7354c.4629,.0596,.8896,.1709,1.2793,.3359,.3906,.165,.7422,.3809,1.0547,.6475,.8447,.7197,1.3115,1.6211,1.4014,2.7031,.0898,1.083-.2168,2.0371-.9189,2.8613-.6729,.7891-1.5137,1.209-2.5244,1.2617-1.0098,.0527-1.9727-.3105-2.8877-1.0918-.3252-.2764-.6025-.585-.833-.9258-.2305-.3398-.417-.7109-.5596-1.1133l-.2539,.2969-1.4268-1.2158c-.293-.25-.4541-.4854-.4824-.7041-.0283-.2197,.0352-.4209,.1904-.6025,.1514-.1787,.3398-.2705,.5625-.2754s.4795,.1162,.7686,.3633l.208,.1768,4.4961-5.2734-.208-.1768c-.2939-.25-.4541-.4854-.4834-.7041-.0283-.2197,.0352-.4209,.1904-.6025,.1523-.1787,.3389-.2715,.5605-.2773,.2207-.0068,.4775,.1152,.7715,.3652l1.4268,1.2158Zm-.7656,8.2793c.4297-.5029,.6162-1.0791,.5605-1.7285-.0547-.6504-.3379-1.1924-.8496-1.6289-.5078-.4326-1.0859-.624-1.7363-.5762s-1.1846,.3174-1.6035,.8096c-.3818,.4473-.5371,.9502-.4648,1.5078s.3975,1.083,.9766,1.5762c.5781,.4941,1.1494,.7324,1.7139,.7178,.5645-.0156,1.0322-.2412,1.4033-.6777Z"/><path d="M258.6396,58.9692c-.0771-.2959-.1904-.5732-.3418-.8291s-.3398-.4922-.5654-.708c-.4482-.4287-.874-.6953-1.2783-.8008-.1777-.0479-.3027-.0332-.374,.042-.083,.0859-.085,.2471-.0059,.4805,.0625,.1758,.2754,.4912,.6396,.9473,.667,.8398,1.1006,1.4561,1.3018,1.8496,.2617,.5176,.3682,1.0156,.3203,1.4961-.0479,.4795-.2178,.8721-.5098,1.1768-.3955,.4141-.9092,.5859-1.541,.5156-.9082-.0977-1.7803-.5459-2.6162-1.3447-.335-.3213-.6162-.6465-.8447-.9766s-.4072-.6641-.5371-1.0039c-.1025-.0049-.1992-.0254-.2881-.0605-.0898-.0342-.168-.084-.2354-.1494-.1807-.1729-.2686-.3691-.2617-.5908,.0059-.2207,.1416-.4707,.4082-.749l.373-.3896c.2656-.2793,.5098-.4258,.7305-.4424,.2207-.0156,.417,.0586,.5908,.2246,.1387,.1328,.2188,.2832,.2393,.4502,.0195,.167-.0332,.3701-.1611,.6094,.0332,.3193,.1367,.6367,.3115,.9512s.4238,.627,.748,.9365c.5303,.5078,1.0215,.8193,1.4736,.9336,.2188,.0508,.3711,.0312,.458-.0596,.1436-.1504,.1621-.3701,.0566-.6592-.1055-.2881-.4385-.7656-.999-1.4307-.8359-.9863-1.2773-1.7686-1.3232-2.3467-.0498-.5732,.1182-1.0615,.5029-1.4639,.3965-.4141,.9004-.5908,1.5137-.5312,.834,.0771,1.6348,.4824,2.4033,1.2168,.2666,.2559,.499,.5264,.6973,.8135,.1982,.2861,.3594,.5908,.4844,.9121,.1221,.0156,.2266,.04,.3145,.0732,.0869,.0322,.1572,.0742,.21,.125,.1582,.1514,.2334,.3359,.2246,.5557-.0078,.2188-.1445,.4678-.4111,.7471l-.2695,.2822c-.2412,.252-.4355,.3945-.582,.4277-.2861,.0576-.5322-.0127-.7393-.2109-.1396-.1328-.2207-.293-.2432-.4805s.0195-.3672,.126-.5391Z"/><path d="M266.4551,64.3198l-4.0166,3.7451,1.3105,1.4062c.2627,.2822,.3955,.5332,.3984,.7549,.0039,.2207-.082,.4131-.2578,.5762-.1709,.1602-.3672,.2305-.5879,.2119-.2197-.0186-.4619-.1689-.7246-.4512l-3.7129-3.9824c-.2637-.2822-.3965-.5332-.3994-.7549-.0029-.2207,.083-.4131,.2578-.5771,.1719-.1592,.3672-.2305,.5879-.2109,.2207,.0186,.4619,.1689,.7246,.4512l1.3105,1.4053,2.8457-2.6533-.8789-.9424c-.2588-.2783-.3916-.5293-.3965-.752-.0049-.2236,.0801-.417,.2549-.5801,.1719-.1602,.3682-.2305,.5879-.2119,.2207,.0195,.4619,.1699,.7256,.4512l1.9707,2.1143Zm2.0742-2.2324l-1.2402,1.1562-1.2998-1.3945,1.2393-1.1553,1.3008,1.3936Z"/><path d="M271.2275,72.1841l-2.4697,2.0518c-.2646,.2188-.3945,.418-.3887,.5957,.0078,.2783,.1914,.6338,.5508,1.0664,.5225,.6289,1.1387,1.0986,1.8496,1.4092,.2744,.1172,.459,.2344,.5557,.3506,.1328,.1602,.1885,.3496,.167,.5674-.0225,.2178-.1191,.3984-.292,.542-.1602,.1328-.3516,.1836-.5742,.1523-.3516-.04-.8467-.2842-1.4854-.7314-.6396-.4482-1.124-.8701-1.4531-1.2666-.6357-.7656-.9473-1.4766-.9336-2.1338,.0127-.6572,.2588-1.1855,.7402-1.585l2.71-2.251-.3691-.4443c-.2461-.2969-.3643-.5557-.3545-.7764,.0088-.2207,.1055-.4082,.29-.5615,.1807-.1494,.3799-.209,.5986-.1768,.2197,.0312,.4521,.1943,.6982,.4912l.3691,.4453,1.1123-.9238c.2959-.2461,.5547-.3643,.7764-.3555,.2207,.0098,.4082,.1064,.5605,.291,.1504,.1807,.209,.3799,.1777,.5986s-.1953,.4521-.4912,.6982l-1.1123,.9229,1.8916,2.2783c.2461,.2969,.3643,.5557,.3555,.7764-.0098,.2207-.1064,.4082-.291,.5615-.1797,.1494-.3799,.208-.5986,.1768s-.4521-.1953-.6982-.4912l-1.8916-2.2783Z"/><path d="M277.9385,85.3921l-3.9014-5.2871c-.2363,.3818-.3311,.8184-.2842,1.3115s.2852,1.0312,.7148,1.6143c.3525,.4775,.9238,1.0361,1.7139,1.6768,.3242,.2656,.5332,.4609,.626,.5859,.127,.1719,.1729,.3613,.1377,.5684-.0342,.207-.1445,.3789-.3281,.5146-.168,.124-.3574,.166-.5674,.127-.2783-.0527-.7275-.3525-1.3477-.8984-.6191-.5459-1.1504-1.1191-1.5928-1.7178-.7607-1.0312-1.0781-2.0703-.9512-3.1182,.126-1.0488,.6143-1.8867,1.4648-2.5146,.9053-.668,1.8887-.877,2.9502-.6279,1.0605,.25,1.9131,.8105,2.5566,1.6816,.3857,.5244,.6484,1.0732,.7871,1.6475,.1387,.5732,.1807,1.0469,.125,1.418-.0879,.5303-.2871,1.0625-.5986,1.5967-.2197,.3691-.5391,.709-.958,1.0176l-.5469,.4043Zm.2354-2.3779c.2236-.4697,.3086-.9307,.2559-1.3838s-.2412-.8994-.5654-1.3398c-.3223-.4355-.6914-.7451-1.1084-.9297-.418-.1836-.8848-.2402-1.4023-.1689l2.8203,3.8223Z"/></g></svg>