<?xml version="1.0" encoding="utf-8"?>
<!-- Generator: Adobe Illustrator 26.3.1, SVG Export Plug-In . SVG Version: 6.00 Build 0)  -->
<svg version="1.1" id="Layer_1" xmlns="http://www.w3.org/2000/svg" xmlns:xlink="http://www.w3.org/1999/xlink" x="0px" y="0px"
	 viewBox="0 0 1347.5 131.8" style="enable-background:new 0 0 1347.5 131.8;" xml:space="preserve">
<style type="text/css">
	.st0{fill:none;stroke:#000000;stroke-width:5;stroke-linecap:round;stroke-linejoin:round;}
</style>
<g>
	<path class="st0" d="M636.8,57c-4.7-3-9.3-6-14-9l-27.9,0.2V67h-9.1l9.1,50.6h82.9V56.9C664.1,56.9,650.5,57,636.8,57z"/>
	<polyline class="st0" points="677.9,117.6 668.8,67 594.9,67 	"/>
</g>
<g>
	<path d="M134.7,27.9l-8.2,2.3l-0.2,2.3l0.8-0.2c0.8-0.2,1.4-0.2,1.9,0c0.4,0.2,0.7,0.6,0.9,1.1c0.1,0.5,0.1,0.9-0.2,1.4
		s-0.8,0.7-1.6,1l-4.5,1.3c-0.8,0.2-1.4,0.2-1.9,0s-0.7-0.6-0.9-1.1c-0.1-0.5-0.1-1,0.2-1.4c0.3-0.4,0.8-0.7,1.7-0.9l1.6-14.7
		l-2.2,0.6c-0.8,0.2-1.4,0.2-1.9,0c-0.4-0.2-0.7-0.6-0.9-1.1c-0.1-0.5-0.1-1,0.2-1.4s0.8-0.7,1.6-1l7.3-2l11.4,14.7
		c0.8-0.2,1.3-0.3,1.6-0.2c0.6,0.2,1,0.6,1.2,1.2c0.1,0.5,0.1,0.9-0.2,1.4c-0.3,0.4-0.8,0.7-1.6,1l-4.5,1.3c-0.8,0.2-1.4,0.2-1.9,0
		c-0.4-0.2-0.7-0.6-0.9-1.1c-0.1-0.5-0.1-0.9,0.2-1.4c0.3-0.4,0.8-0.7,1.6-1l0.8-0.2L134.7,27.9L134.7,27.9z M132.4,24.9l-4.6-5.9
		l-0.9,7.4L132.4,24.9z"/>
	<path d="M155.9,14.3c0.4-0.5,0.8-0.7,1.2-0.8c0.5-0.1,0.9,0,1.3,0.3c0.4,0.3,0.6,0.9,0.8,1.7l0.4,2.2c0.1,0.8,0.1,1.4-0.2,1.8
		c-0.3,0.4-0.7,0.6-1.2,0.7c-0.5,0.1-0.9,0-1.3-0.2c-0.3-0.2-0.5-0.5-0.8-1.2s-0.6-1-1.2-1.2c-1-0.4-2.2-0.5-3.6-0.3
		c-1.6,0.3-2.9,0.9-3.7,2.1c-0.8,1.1-1.1,2.4-0.9,3.9c0.2,1.4,0.9,2.3,1.9,3c1.1,0.6,2.7,0.8,4.9,0.4c1.4-0.2,2.6-0.6,3.5-1
		c0.5-0.3,1-0.7,1.4-1.2c0.4-0.5,0.8-0.8,1.2-0.9c0.5-0.1,0.9,0,1.3,0.3c0.4,0.3,0.6,0.7,0.7,1.1c0.1,0.8-0.3,1.6-1.2,2.4
		c-1.4,1.3-3.6,2.1-6.6,2.6c-2.7,0.4-4.9,0.2-6.5-0.7c-2.3-1.2-3.6-3.1-4-5.7c-0.4-2.5,0.1-4.6,1.5-6.5s3.4-3,6-3.4
		c1-0.2,1.9-0.2,2.7-0.2C154.4,13.9,155.2,14.1,155.9,14.3L155.9,14.3z"/>
	<path d="M172.8,15.9l0.2,7c0,0.8,0.2,1.2,0.5,1.5c0.5,0.4,1.3,0.5,2.6,0.5c1.8-0.1,3.4-0.5,4.9-1.3c0.6-0.3,1-0.5,1.4-0.5
		c0.5,0,0.9,0.1,1.2,0.5s0.5,0.7,0.5,1.2c0,0.5-0.2,0.9-0.5,1.2c-0.5,0.6-1.6,1.1-3.3,1.6s-3,0.8-4.1,0.8c-2.2,0.1-3.8-0.4-4.9-1.3
		c-1.1-0.9-1.7-2-1.7-3.4l-0.2-7.7l-1.3,0c-0.8,0-1.4-0.1-1.8-0.4s-0.6-0.7-0.6-1.3c0-0.5,0.2-0.9,0.5-1.3s0.9-0.5,1.8-0.5l1.3,0
		l-0.1-3.2c0-0.8,0.1-1.4,0.4-1.8c0.3-0.4,0.7-0.6,1.3-0.6c0.5,0,0.9,0.2,1.3,0.5c0.3,0.3,0.5,0.9,0.5,1.8l0.1,3.2l6.5-0.2
		c0.8,0,1.4,0.1,1.8,0.4c0.4,0.3,0.6,0.7,0.6,1.3c0,0.5-0.2,0.9-0.5,1.3c-0.3,0.3-0.9,0.5-1.8,0.5L172.8,15.9L172.8,15.9z"/>
	<path d="M198.6,13.5l-1.3,11.9l4.2,0.5c0.8,0.1,1.4,0.3,1.7,0.7s0.5,0.8,0.4,1.3c-0.1,0.5-0.3,0.9-0.7,1.2c-0.4,0.3-1,0.4-1.8,0.3
		l-11.8-1.3c-0.8-0.1-1.4-0.3-1.7-0.7s-0.5-0.8-0.4-1.3c0.1-0.5,0.3-0.9,0.7-1.2c0.4-0.3,1-0.4,1.8-0.3l4.2,0.5l0.9-8.5l-2.8-0.3
		c-0.8-0.1-1.4-0.3-1.7-0.7c-0.3-0.4-0.5-0.8-0.4-1.3c0.1-0.5,0.3-0.9,0.7-1.2c0.4-0.3,1-0.4,1.8-0.3L198.6,13.5L198.6,13.5z
		 M198.8,6.8l-0.4,3.7l-4.1-0.5l0.4-3.7L198.8,6.8L198.8,6.8z"/>
	<path d="M217,28.4l5.6-6.6c-0.9-0.2-1.5-0.5-1.7-0.7c-0.5-0.5-0.6-1-0.4-1.7c0.1-0.5,0.4-0.9,0.8-1.1c0.4-0.2,1.1-0.2,1.9,0
		l4.6,1.2c0.8,0.2,1.4,0.5,1.6,0.9s0.3,0.9,0.2,1.4c-0.1,0.5-0.4,0.9-0.8,1.1c-0.4,0.2-1.1,0.2-1.9,0l-0.6-0.1L217.7,33l-3.5-0.9
		L211.5,19l-0.5-0.1c-0.8-0.2-1.4-0.5-1.6-0.9c-0.3-0.4-0.3-0.9-0.2-1.4c0.1-0.5,0.4-0.9,0.8-1.1c0.4-0.2,1.1-0.2,1.9,0l4.5,1.2
		c0.8,0.2,1.3,0.5,1.6,0.9c0.3,0.4,0.3,0.9,0.2,1.4c-0.2,0.6-0.6,1-1.2,1.2c-0.3,0.1-0.9,0-1.8-0.2L217,28.4L217,28.4z"/>
	<path d="M243.6,25.9l-4.8,11l3.9,1.7c0.8,0.3,1.3,0.7,1.5,1.2s0.2,0.9,0,1.4c-0.2,0.5-0.5,0.8-1,0.9s-1.1,0.1-1.8-0.3l-10.9-4.7
		c-0.8-0.3-1.3-0.7-1.5-1.2c-0.2-0.4-0.2-0.9,0-1.4c0.2-0.5,0.5-0.8,1-0.9s1.1-0.1,1.8,0.3l3.9,1.7l3.4-7.8l-2.6-1.1
		c-0.8-0.3-1.2-0.7-1.5-1.2c-0.2-0.4-0.2-0.9,0-1.4c0.2-0.5,0.5-0.8,1-0.9c0.5-0.2,1.1-0.1,1.8,0.3L243.6,25.9L243.6,25.9z
		 M245.7,19.6l-1.5,3.4l-3.8-1.7l1.5-3.4L245.7,19.6z"/>
	<path d="M260.1,38.2l-3.5,6.1c-0.4,0.7-0.5,1.2-0.3,1.5c0.2,0.6,0.9,1.2,1.9,1.8c1.5,0.9,3.2,1.4,4.9,1.5c0.7,0,1.1,0.1,1.4,0.3
		c0.4,0.2,0.7,0.6,0.8,1c0.1,0.5,0.1,0.9-0.2,1.3c-0.2,0.4-0.6,0.6-1.1,0.7c-0.8,0.2-2,0.1-3.6-0.4s-3-0.9-3.9-1.5
		c-1.9-1.1-3.1-2.3-3.5-3.7c-0.5-1.4-0.4-2.6,0.3-3.8l3.9-6.7l-1.1-0.6c-0.7-0.4-1.2-0.9-1.3-1.3c-0.1-0.5-0.1-0.9,0.2-1.4
		c0.3-0.4,0.6-0.7,1.1-0.8c0.5-0.1,1.1,0.1,1.8,0.5l1.1,0.6l1.6-2.7c0.4-0.7,0.9-1.2,1.3-1.3c0.5-0.1,0.9-0.1,1.4,0.2
		c0.4,0.3,0.7,0.6,0.8,1.1c0.1,0.5-0.1,1.1-0.5,1.8l-1.6,2.7l5.6,3.2c0.7,0.4,1.2,0.9,1.3,1.3c0.1,0.5,0.1,0.9-0.2,1.4
		c-0.3,0.4-0.6,0.7-1.1,0.8c-0.5,0.1-1.1-0.1-1.8-0.5L260.1,38.2L260.1,38.2z"/>
	<path d="M271.6,59.3l1.4-13.3c-0.4-0.4-0.7-0.8-0.8-1.2s0-0.8,0.3-1.2c0.3-0.4,0.7-0.7,1.1-0.8s1.1,0.1,1.8,0.6l2.7,1.7
		c0.7,0.5,1.1,0.9,1.2,1.4c0.1,0.5,0,0.9-0.2,1.4c-0.3,0.4-0.7,0.7-1.1,0.8s-1-0.1-1.7-0.5l-0.9,9l7.8-4.5c-0.6-0.4-1-0.8-1.1-1.3
		c-0.1-0.5,0-0.9,0.2-1.4c0.3-0.4,0.7-0.7,1.1-0.8c0.5-0.1,1.1,0.1,1.8,0.6l2.8,1.8c0.7,0.5,1.1,0.9,1.2,1.4c0.1,0.5,0,0.9-0.2,1.4
		c-0.3,0.4-0.6,0.6-1,0.7s-0.9,0-1.4-0.3l-15.3,8.9c0.7,0.5,1.2,0.9,1.3,1.2c0.3,0.6,0.2,1.2-0.1,1.7c-0.3,0.4-0.7,0.7-1.1,0.8
		c-0.5,0.1-1.1-0.1-1.8-0.6l-6.4-4.2c-0.7-0.5-1.1-0.9-1.2-1.4c-0.1-0.5,0-0.9,0.2-1.3c0.3-0.4,0.7-0.7,1.1-0.8
		c0.5-0.1,1.1,0.1,1.8,0.6l2.9,1.9L271.6,59.3L271.6,59.3z"/>
	<path d="M329.1,67.6l-8.4,16.7l0.5,0.3c0.7,0.4,1.2,0.8,1.4,1.2c0.2,0.5,0.2,0.9-0.1,1.4c-0.2,0.5-0.6,0.8-1,0.9
		c-0.5,0.1-1.1,0-1.8-0.4l-3.7-1.8l0.4-0.8c-0.9,0.1-1.8,0-2.7-0.2c-0.9-0.2-1.7-0.5-2.6-0.9c-2.3-1.2-3.9-2.8-4.6-4.9
		c-0.7-2.1-0.6-4.1,0.4-6.2c1.1-2.1,2.7-3.5,5-4.3c2.3-0.7,4.5-0.6,6.6,0.5c0.8,0.4,1.5,0.9,2.2,1.6c0.7,0.6,1.2,1.4,1.8,2.3l2-3.9
		l-0.5-0.3c-0.8-0.4-1.2-0.8-1.4-1.2s-0.1-0.9,0.1-1.4c0.2-0.5,0.6-0.8,1.1-0.9c0.5-0.1,1.1,0,1.8,0.4L329.1,67.6L329.1,67.6z
		 M319.3,79.3c0.7-1.3,0.8-2.6,0.3-4s-1.3-2.4-2.6-3c-1.3-0.7-2.6-0.8-4-0.3c-1.4,0.4-2.4,1.3-3,2.5c-0.6,1.1-0.7,2.3-0.2,3.4
		s1.4,2.1,2.9,2.8c1.5,0.7,2.8,1,4,0.6C317.8,81.1,318.7,80.4,319.3,79.3L319.3,79.3z"/>
	<path d="M340.5,79.2l-4.2,11.3l3.9,1.5c0.8,0.3,1.3,0.7,1.5,1.1c0.2,0.4,0.2,0.9,0.1,1.4c-0.2,0.5-0.5,0.8-0.9,1
		c-0.4,0.2-1.1,0.1-1.9-0.2l-11.2-4.2c-0.8-0.3-1.3-0.7-1.5-1.1c-0.2-0.4-0.2-0.9-0.1-1.4c0.2-0.5,0.5-0.8,0.9-1
		c0.4-0.2,1.1-0.1,1.9,0.2l3.9,1.5l3-8l-2.6-1c-0.8-0.3-1.3-0.7-1.5-1.1c-0.2-0.4-0.3-0.9-0.1-1.4c0.2-0.5,0.5-0.8,0.9-1
		c0.4-0.2,1.1-0.1,1.9,0.2L340.5,79.2L340.5,79.2z M342.4,72.8l-1.3,3.5l-3.9-1.5l1.3-3.5L342.4,72.8z"/>
	<path d="M359,100.8l0.2-0.8c-1,0.2-2,0.3-3.1,0.3c-1.1,0-2-0.1-2.9-0.4c-1.8-0.5-3.2-1.3-4.1-2.6c-0.9-1.2-1.2-2.5-0.9-3.6
		c0.4-1.4,1.4-2.6,3.2-3.4c1.8-0.9,3.9-1,6.5-0.3c1,0.3,2.2,0.7,3.5,1.2l0.2-0.8c0.1-0.5,0-1-0.3-1.4c-0.4-0.4-1.2-0.8-2.4-1.1
		c-1-0.2-2.4-0.4-4.1-0.4c-0.6,0-1.1,0-1.4-0.1c-0.5-0.1-0.8-0.4-1-0.8c-0.2-0.4-0.3-0.9-0.2-1.4c0.1-0.3,0.2-0.5,0.4-0.7
		c0.2-0.2,0.4-0.3,0.6-0.4s0.7-0.1,1.4-0.1c0.9,0,1.8,0,2.7,0.1c0.9,0.1,1.7,0.2,2.4,0.4c2.1,0.5,3.6,1.4,4.6,2.6s1.2,2.6,0.8,4.2
		l-1.7,7l0.6,0.1c0.8,0.2,1.4,0.5,1.6,0.9c0.3,0.4,0.3,0.9,0.2,1.4c-0.1,0.5-0.4,0.9-0.8,1.1c-0.4,0.2-1,0.2-1.9,0L359,100.8
		L359,100.8z M360.5,94.8c-1.3-0.6-2.5-1-3.7-1.3c-1.4-0.3-2.7-0.3-3.8,0.1c-0.7,0.3-1.1,0.6-1.3,1.1c-0.1,0.3,0,0.6,0.3,0.9
		c0.5,0.5,1.2,0.9,2.1,1.1c0.8,0.2,1.8,0.3,2.9,0.2c1.1-0.1,2.1-0.3,3.1-0.6L360.5,94.8L360.5,94.8z"/>
	<path d="M384.8,90.6l0.1-1l4.1,0.5c0.8,0.1,1.4,0.4,1.7,0.7c0.3,0.4,0.4,0.8,0.4,1.3c-0.1,0.5-0.3,0.9-0.7,1.2
		c-0.4,0.3-1,0.4-1.9,0.2l-0.6-0.1l-1.7,12.6c-0.2,1.2-0.6,2.2-1.2,3.1c-0.6,0.8-1.5,1.5-2.7,2c-1.1,0.5-2.4,0.7-3.7,0.5l-3.9-0.5
		c-0.8-0.1-1.4-0.4-1.7-0.7c-0.3-0.4-0.4-0.8-0.4-1.3c0.1-0.5,0.3-0.9,0.7-1.2s1-0.4,1.9-0.2l3.8,0.5c1.1,0.1,1.9,0,2.6-0.5
		s1.1-1.2,1.2-2.1l0.2-1.7c-0.8,0.4-1.7,0.7-2.5,0.8s-1.7,0.2-2.5,0c-2.4-0.3-4.2-1.4-5.6-3.2c-1.4-1.8-1.9-3.8-1.6-6.2
		c0.3-2.3,1.4-4.2,3.2-5.5c1.8-1.4,3.9-1.9,6.2-1.6c0.9,0.1,1.7,0.4,2.5,0.7C383.4,89.5,384.1,90,384.8,90.6L384.8,90.6z
		 M383.9,97.3c0.2-1.3-0.2-2.4-1-3.5c-0.8-1.1-1.9-1.7-3.2-1.9s-2.5,0.1-3.6,1c-1.1,0.8-1.7,1.9-1.9,3.1c-0.2,1.3,0.2,2.5,1,3.5
		c0.8,1.1,1.9,1.7,3.2,1.9s2.5-0.1,3.6-0.9C383.1,99.6,383.7,98.6,383.9,97.3L383.9,97.3z"/>
	<path d="M402.1,90.8l-0.1,2.2c1.5-1,2.7-1.7,3.5-2c0.9-0.3,1.7-0.5,2.4-0.5c1.1,0,2.2,0.5,3.3,1.4c0.7,0.6,1.1,1.2,1,1.8
		c0,0.5-0.2,0.9-0.6,1.3c-0.4,0.3-0.8,0.5-1.3,0.5c-0.4,0-0.9-0.2-1.3-0.7c-0.5-0.4-0.9-0.7-1.3-0.7c-0.5,0-1.2,0.3-2.2,0.9
		c-1,0.6-2.2,1.5-3.7,2.7l-0.2,5.3l5,0.1c0.8,0,1.4,0.2,1.8,0.5c0.3,0.3,0.5,0.8,0.5,1.3c0,0.5-0.2,0.9-0.6,1.2
		c-0.4,0.3-1,0.5-1.8,0.4l-10.6-0.3c-0.8,0-1.4-0.2-1.8-0.5c-0.3-0.3-0.5-0.8-0.5-1.3c0-0.5,0.2-0.9,0.6-1.2s1-0.5,1.8-0.4l2.1,0.1
		l0.3-8.5l-1.3,0c-0.8,0-1.4-0.2-1.8-0.5c-0.3-0.3-0.5-0.8-0.5-1.3c0-0.5,0.2-0.9,0.6-1.2s1-0.5,1.8-0.4L402.1,90.8L402.1,90.8z"/>
	<path d="M428.8,105.7l-0.1-0.8c-0.8,0.5-1.8,0.9-2.8,1.2c-1,0.3-2,0.5-2.9,0.5c-1.9,0.1-3.4-0.3-4.7-1.2c-1.2-0.9-1.9-2-2-3.2
		c-0.1-1.5,0.6-2.9,2-4.2c1.4-1.4,3.4-2.1,6.1-2.3c1.1-0.1,2.3,0,3.7,0.1l-0.1-0.8c0-0.5-0.3-0.9-0.8-1.2c-0.5-0.3-1.3-0.4-2.6-0.3
		c-1,0.1-2.4,0.4-4,0.9c-0.6,0.2-1.1,0.3-1.4,0.3c-0.5,0-0.9-0.1-1.2-0.4s-0.5-0.7-0.6-1.3c0-0.3,0-0.6,0.1-0.8
		c0.1-0.2,0.2-0.4,0.4-0.6s0.6-0.3,1.2-0.6c0.8-0.3,1.7-0.5,2.6-0.7s1.7-0.3,2.4-0.4c2.2-0.1,3.9,0.2,5.1,1.1c1.3,0.9,1.9,2.1,2,3.7
		l0.5,7.2l0.6,0c0.8-0.1,1.5,0.1,1.8,0.4s0.6,0.7,0.6,1.2c0,0.5-0.1,0.9-0.5,1.3s-0.9,0.5-1.8,0.6L428.8,105.7L428.8,105.7z
		 M428.4,99.5c-1.4-0.2-2.7-0.2-3.9-0.2c-1.4,0.1-2.6,0.5-3.6,1.3c-0.6,0.5-0.9,1-0.9,1.4c0,0.3,0.2,0.6,0.5,0.8
		c0.6,0.3,1.4,0.5,2.4,0.4c0.8-0.1,1.8-0.3,2.8-0.7s2-0.9,2.8-1.5L428.4,99.5L428.4,99.5z"/>
	<path d="M441,88.9l0.1,1c0.5-0.6,0.9-1.1,1.4-1.4c0.4-0.3,0.9-0.5,1.5-0.5c0.5-0.1,1,0,1.6,0.1c0.5,0.2,1.1,0.5,1.6,0.9
		c0.5-0.6,1.1-1,1.7-1.4c0.6-0.3,1.2-0.5,1.8-0.6c1.3-0.2,2.4,0,3.3,0.6c1.2,0.7,1.9,1.8,2.1,3.3l1.2,7.8c0.7-0.1,1.3,0,1.7,0.3
		c0.4,0.3,0.6,0.7,0.7,1.2c0.1,0.5,0,0.9-0.3,1.3c-0.3,0.4-0.9,0.6-1.7,0.7l-3.3,0.5l-1.6-10.9c-0.1-0.5-0.2-0.9-0.5-1.1
		s-0.5-0.2-0.9-0.2c-0.4,0.1-0.7,0.2-1,0.5c-0.4,0.3-0.8,0.9-1.3,1.8l1,7c0.7-0.1,1.3,0,1.7,0.3c0.4,0.3,0.6,0.7,0.7,1.2
		c0.1,0.5,0,0.9-0.3,1.3c-0.3,0.4-0.9,0.6-1.7,0.7l-3.3,0.5l-1.6-10.9c-0.1-0.5-0.2-0.9-0.5-1c-0.2-0.2-0.5-0.2-0.9-0.2
		c-0.4,0.1-0.8,0.2-1.1,0.6s-0.8,0.9-1.2,1.7l1,7c0.7-0.1,1.3,0,1.7,0.2c0.4,0.3,0.6,0.7,0.7,1.2c0.1,0.5,0,0.9-0.3,1.3
		c-0.3,0.4-0.9,0.6-1.7,0.7l-3.1,0.5c-0.8,0.1-1.5,0.1-1.9-0.2s-0.6-0.7-0.7-1.2c-0.1-0.5,0-0.9,0.3-1.3c0.3-0.4,0.8-0.6,1.6-0.7
		l-1.3-8.4c-0.7,0.1-1.3,0-1.7-0.2c-0.4-0.3-0.6-0.7-0.7-1.2c-0.1-0.5,0-0.9,0.3-1.3c0.3-0.4,0.9-0.6,1.7-0.7L441,88.9L441,88.9z"/>
</g>
<g>
	<path d="M847.8,47.2l-7.5,4l0.3,2.3l0.8-0.4c0.7-0.4,1.3-0.5,1.8-0.4c0.5,0.1,0.8,0.4,1.1,0.9c0.2,0.5,0.3,0.9,0.1,1.4
		c-0.2,0.5-0.6,0.9-1.4,1.3l-4.2,2.2c-0.7,0.4-1.3,0.5-1.8,0.4c-0.5-0.1-0.8-0.4-1.1-0.9c-0.2-0.5-0.3-0.9-0.1-1.4
		c0.2-0.5,0.7-0.9,1.4-1.3l-1.6-14.7l-2,1.1c-0.7,0.4-1.3,0.5-1.8,0.4s-0.8-0.4-1.1-0.9c-0.2-0.5-0.3-0.9-0.1-1.4s0.6-0.9,1.4-1.3
		l6.7-3.6l14.3,11.9c0.7-0.4,1.2-0.6,1.6-0.5c0.6,0.1,1.1,0.4,1.4,0.9c0.2,0.5,0.3,0.9,0.1,1.4c-0.2,0.5-0.6,0.9-1.4,1.3l-4.2,2.2
		c-0.7,0.4-1.3,0.5-1.8,0.4c-0.5-0.1-0.8-0.4-1.1-0.9c-0.2-0.5-0.3-0.9-0.1-1.4c0.2-0.5,0.6-0.9,1.4-1.3l0.8-0.4L847.8,47.2
		L847.8,47.2z M844.8,44.8l-5.8-4.8l0.8,7.5L844.8,44.8L844.8,44.8z"/>
	<path d="M865,29c0.2-0.5,0.5-0.9,1-1.1c0.5-0.2,0.9-0.2,1.4,0c0.4,0.2,0.8,0.7,1.2,1.4l0.9,2.1c0.3,0.8,0.4,1.4,0.3,1.8
		s-0.5,0.8-1,1c-0.4,0.2-0.9,0.2-1.3,0.1c-0.3-0.1-0.6-0.4-1-0.9c-0.4-0.5-0.9-0.8-1.5-0.9c-1.1-0.1-2.3,0.1-3.6,0.7
		c-1.5,0.7-2.5,1.6-3.1,2.9c-0.5,1.3-0.5,2.6,0.1,4c0.5,1.3,1.4,2.1,2.6,2.4c1.2,0.3,2.8,0.1,4.8-0.8c1.3-0.6,2.4-1.2,3.1-1.8
		c0.4-0.4,0.8-0.9,1.1-1.5c0.3-0.6,0.6-1,1-1.1c0.4-0.2,0.9-0.2,1.3,0s0.8,0.5,1,0.9c0.3,0.7,0.1,1.6-0.6,2.7c-1,1.6-2.9,3-5.7,4.2
		c-2.5,1.1-4.7,1.4-6.5,1c-2.5-0.6-4.3-2.1-5.3-4.5c-1-2.3-1.1-4.5-0.2-6.7s2.5-3.8,5-4.8c0.9-0.4,1.8-0.7,2.6-0.8
		C863.4,29,864.3,29,865,29L865,29z"/>
	<path d="M881.5,26.1l2.2,6.7c0.2,0.7,0.5,1.1,0.9,1.3c0.6,0.2,1.4,0.1,2.6-0.3c1.7-0.6,3.2-1.4,4.4-2.6c0.5-0.5,0.8-0.7,1.2-0.8
		c0.4-0.1,0.9-0.1,1.3,0.1c0.4,0.2,0.7,0.6,0.9,1c0.1,0.4,0.1,0.9-0.2,1.3c-0.4,0.7-1.3,1.5-2.7,2.4c-1.4,0.9-2.7,1.6-3.8,1.9
		c-2.1,0.7-3.8,0.7-5.1,0.2c-1.3-0.6-2.2-1.5-2.6-2.8l-2.4-7.3l-1.2,0.4c-0.8,0.3-1.4,0.3-1.9,0.1s-0.7-0.5-0.9-1
		c-0.2-0.5-0.1-0.9,0.1-1.4c0.2-0.4,0.8-0.8,1.6-1l1.2-0.4l-1-3c-0.3-0.8-0.3-1.4-0.1-1.9c0.2-0.4,0.5-0.7,1-0.9
		c0.5-0.2,0.9-0.1,1.4,0.1c0.4,0.2,0.8,0.8,1,1.6l1,3l6.2-2c0.8-0.3,1.4-0.3,1.9-0.1c0.4,0.2,0.7,0.5,0.9,1c0.2,0.5,0.1,0.9-0.1,1.4
		s-0.8,0.8-1.6,1L881.5,26.1L881.5,26.1z"/>
	<path d="M905.2,16.2l2.4,11.8l4.1-0.8c0.8-0.2,1.4-0.1,1.9,0.1s0.7,0.6,0.8,1.1c0.1,0.5,0,0.9-0.3,1.3c-0.3,0.4-0.8,0.7-1.7,0.8
		L900.8,33c-0.8,0.2-1.4,0.1-1.9-0.1c-0.4-0.2-0.7-0.6-0.8-1.1c-0.1-0.5,0-0.9,0.3-1.3c0.3-0.4,0.8-0.7,1.7-0.8l4.1-0.8l-1.7-8.3
		l-2.8,0.6c-0.8,0.2-1.4,0.1-1.9-0.1c-0.4-0.2-0.7-0.6-0.8-1.1c-0.1-0.5,0-0.9,0.3-1.3s0.8-0.7,1.7-0.8L905.2,16.2L905.2,16.2z
		 M903.4,9.8l0.7,3.6l-4.1,0.8l-0.7-3.6L903.4,9.8z"/>
	<path d="M927.3,24.5l3.2-8c-0.9,0.1-1.5,0-1.8-0.1c-0.6-0.3-0.9-0.8-1-1.5c0-0.5,0.1-0.9,0.4-1.3c0.3-0.4,0.9-0.6,1.8-0.6l4.8-0.4
		c0.8-0.1,1.5,0,1.8,0.3s0.6,0.7,0.6,1.2c0,0.5-0.1,0.9-0.4,1.3c-0.3,0.4-0.9,0.6-1.8,0.6l-0.6,0l-4.9,12.4l-3.6,0.3L919,17.4
		l-0.5,0c-0.8,0.1-1.5,0-1.8-0.3c-0.4-0.3-0.6-0.7-0.6-1.2c0-0.5,0.1-0.9,0.4-1.3c0.3-0.4,0.9-0.6,1.8-0.6l4.7-0.4
		c0.8-0.1,1.4,0.1,1.8,0.3s0.6,0.7,0.6,1.2c0.1,0.6-0.2,1.2-0.7,1.5c-0.3,0.2-0.9,0.3-1.8,0.4L927.3,24.5L927.3,24.5z"/>
	<path d="M951.4,13.2l-0.7,12l4.2,0.2c0.8,0,1.4,0.2,1.8,0.6s0.5,0.8,0.5,1.3c0,0.5-0.2,0.9-0.6,1.2c-0.4,0.3-1,0.4-1.8,0.4
		l-11.9-0.7c-0.8,0-1.4-0.2-1.8-0.6c-0.3-0.3-0.5-0.8-0.5-1.3c0-0.5,0.2-0.9,0.6-1.2c0.4-0.3,1-0.4,1.8-0.4l4.2,0.2l0.5-8.5
		l-2.8-0.2c-0.8,0-1.4-0.2-1.8-0.6c-0.3-0.3-0.5-0.8-0.5-1.3c0-0.5,0.2-0.9,0.6-1.2s1-0.4,1.8-0.4C945.1,12.8,951.4,13.2,951.4,13.2
		z M951.3,6.5l-0.2,3.7L947,10l0.2-3.7L951.3,6.5L951.3,6.5z"/>
	<path d="M971.3,19.3l-1.4,6.9c-0.1,0.7-0.1,1.3,0.2,1.5c0.4,0.5,1.2,0.8,2.4,1.1c1.8,0.4,3.4,0.3,5.1-0.1c0.6-0.2,1.1-0.2,1.4-0.2
		c0.4,0.1,0.8,0.3,1.1,0.7s0.3,0.8,0.2,1.3c-0.1,0.4-0.3,0.8-0.8,1c-0.7,0.4-1.8,0.7-3.5,0.8c-1.7,0.1-3.1,0.1-4.2-0.2
		c-2.1-0.4-3.6-1.2-4.5-2.4c-0.9-1.1-1.2-2.4-0.9-3.7l1.5-7.6l-1.2-0.2c-0.8-0.2-1.4-0.4-1.7-0.8c-0.3-0.4-0.4-0.8-0.3-1.4
		c0.1-0.5,0.4-0.9,0.8-1.1c0.4-0.2,1-0.3,1.9-0.1l1.2,0.3l0.6-3.1c0.2-0.8,0.4-1.4,0.8-1.7c0.4-0.3,0.8-0.4,1.4-0.3
		c0.5,0.1,0.9,0.4,1.1,0.8c0.2,0.4,0.3,1,0.1,1.9l-0.6,3.1l6.3,1.3c0.8,0.2,1.4,0.4,1.7,0.8c0.3,0.4,0.4,0.8,0.3,1.4
		c-0.1,0.5-0.4,0.9-0.8,1.1c-0.4,0.2-1,0.3-1.9,0.1L971.3,19.3L971.3,19.3z"/>
	<path d="M988.2,36.2l-1.6-13.3c-0.5-0.3-0.9-0.6-1-1c-0.2-0.4-0.2-0.8,0-1.2c0.2-0.5,0.5-0.8,0.9-1s1.1-0.1,1.9,0.2l3,1.1
		c0.8,0.3,1.3,0.7,1.5,1.1s0.2,0.9,0.1,1.4c-0.2,0.5-0.5,0.8-0.9,1c-0.4,0.2-1,0.1-1.8-0.1l1.1,9l6.6-6.1c-0.7-0.3-1.2-0.6-1.4-1
		s-0.2-0.9-0.1-1.4c0.2-0.5,0.5-0.8,0.9-1c0.4-0.2,1.1-0.1,1.9,0.2l3.1,1.1c0.8,0.3,1.3,0.6,1.5,1.1s0.2,0.9,0.1,1.4
		c-0.2,0.4-0.4,0.8-0.8,1c-0.4,0.2-0.9,0.2-1.5,0l-13,12.1c0.8,0.3,1.3,0.6,1.5,0.8c0.4,0.5,0.5,1.1,0.3,1.7c-0.2,0.5-0.5,0.8-0.9,1
		c-0.4,0.2-1.1,0.1-1.9-0.2l-7.2-2.6c-0.8-0.3-1.3-0.7-1.5-1.1s-0.2-0.9-0.1-1.4c0.2-0.5,0.5-0.8,0.9-1c0.4-0.2,1.1-0.1,1.9,0.2
		l3.3,1.2L988.2,36.2L988.2,36.2z"/>
	<path d="M1046.5,42.2l-10,15.8l0.5,0.3c0.7,0.4,1.1,0.9,1.3,1.4c0.1,0.5,0.1,0.9-0.2,1.4c-0.3,0.4-0.7,0.7-1.1,0.8
		c-0.5,0.1-1.1-0.1-1.8-0.6l-3.5-2.2l0.5-0.7c-0.9,0-1.8-0.2-2.7-0.4c-0.9-0.3-1.7-0.6-2.5-1.1c-2.2-1.4-3.6-3.2-4.1-5.3
		s-0.2-4.2,1-6.1c1.3-2,3.1-3.3,5.4-3.8c2.3-0.5,4.5-0.1,6.6,1.2c0.8,0.5,1.5,1.1,2,1.8c0.6,0.7,1.1,1.5,1.5,2.5l2.3-3.7l-0.5-0.3
		c-0.7-0.5-1.1-0.9-1.3-1.4c-0.1-0.5-0.1-0.9,0.2-1.3c0.3-0.4,0.7-0.7,1.1-0.8c0.5-0.1,1.1,0.1,1.8,0.6L1046.5,42.2L1046.5,42.2z
		 M1035.6,52.9c0.8-1.2,1-2.5,0.7-3.9c-0.3-1.4-1.1-2.5-2.3-3.3c-1.2-0.8-2.5-1-3.9-0.7c-1.4,0.3-2.5,1.1-3.2,2.2
		c-0.7,1.1-0.9,2.2-0.5,3.4c0.3,1.2,1.2,2.2,2.6,3.1c1.4,0.9,2.7,1.2,3.9,1C1034,54.6,1034.9,53.9,1035.6,52.9L1035.6,52.9z"/>
	<path d="M1056,56.3l-6.5,10.1l3.5,2.3c0.7,0.5,1.1,0.9,1.3,1.4c0.1,0.5,0.1,0.9-0.2,1.4c-0.3,0.4-0.7,0.7-1.1,0.8s-1.1-0.1-1.8-0.6
		l-10-6.4c-0.7-0.5-1.1-0.9-1.3-1.4s-0.1-0.9,0.2-1.4c0.3-0.4,0.7-0.7,1.1-0.8c0.5-0.1,1.1,0.1,1.8,0.6l3.5,2.3l4.6-7.2l-2.4-1.5
		c-0.7-0.4-1.1-0.9-1.3-1.4s-0.1-0.9,0.2-1.4c0.3-0.4,0.7-0.7,1.1-0.8c0.5-0.1,1.1,0.1,1.8,0.6C1050.7,52.9,1056,56.3,1056,56.3z
		 M1059.2,50.4l-2,3.1l-3.5-2.2l2-3.1L1059.2,50.4z"/>
	<path d="M1068.5,81.7l0.4-0.7c-1,0-2-0.2-3.1-0.5c-1-0.3-1.9-0.7-2.7-1.1c-1.6-0.9-2.7-2.1-3.3-3.5c-0.5-1.4-0.5-2.7,0.1-3.7
		c0.7-1.3,2-2.1,3.9-2.5c1.9-0.4,4,0.1,6.4,1.3c0.9,0.5,1.9,1.2,3.1,2.1l0.4-0.7c0.3-0.5,0.3-0.9,0-1.4c-0.2-0.5-0.9-1.1-2-1.7
		c-0.9-0.5-2.2-1-3.8-1.4c-0.6-0.2-1.1-0.3-1.4-0.5c-0.4-0.2-0.7-0.6-0.8-1s-0.1-0.9,0.2-1.4c0.1-0.3,0.3-0.5,0.5-0.6
		c0.2-0.1,0.4-0.2,0.7-0.2s0.7,0.1,1.3,0.2c0.9,0.2,1.7,0.5,2.6,0.8c0.9,0.3,1.6,0.6,2.2,1c1.9,1.1,3.2,2.3,3.8,3.7
		c0.6,1.4,0.5,2.8-0.3,4.2l-3.5,6.3l0.5,0.3c0.7,0.4,1.2,0.8,1.3,1.3c0.2,0.5,0.1,0.9-0.1,1.4c-0.2,0.4-0.6,0.7-1.1,0.8
		c-0.5,0.1-1.1,0-1.8-0.4L1068.5,81.7L1068.5,81.7z M1071.6,76.2c-1.1-0.9-2.2-1.7-3.2-2.2c-1.2-0.7-2.5-1-3.7-0.9
		c-0.8,0.1-1.3,0.3-1.5,0.7c-0.2,0.3-0.2,0.6,0,0.9c0.3,0.6,0.9,1.1,1.8,1.6c0.7,0.4,1.7,0.7,2.7,0.9c1.1,0.2,2.1,0.3,3.1,0.2
		C1070.8,77.5,1071.6,76.2,1071.6,76.2z"/>
	<path d="M1096,78.6l0.4-1l3.8,1.6c0.8,0.3,1.3,0.7,1.5,1.1s0.2,0.9,0,1.4c-0.2,0.5-0.5,0.8-1,0.9c-0.5,0.2-1.1,0.1-1.9-0.2
		l-0.6-0.2l-4.9,11.8c-0.5,1.1-1.1,2-2,2.7c-0.8,0.6-1.9,1.1-3.1,1.3c-1.2,0.2-2.5,0-3.7-0.5l-3.7-1.5c-0.8-0.3-1.3-0.7-1.5-1.1
		c-0.2-0.4-0.2-0.9,0-1.4c0.2-0.5,0.5-0.8,1-1c0.5-0.2,1.1-0.1,1.9,0.2l3.6,1.5c1,0.4,1.9,0.5,2.6,0.2c0.8-0.3,1.3-0.9,1.7-1.7
		l0.7-1.6c-0.9,0.2-1.8,0.2-2.6,0.1c-0.8-0.1-1.6-0.3-2.4-0.6c-2.2-0.9-3.7-2.4-4.6-4.5c-0.9-2.1-0.8-4.2,0.1-6.4
		c0.9-2.2,2.4-3.7,4.5-4.5c2.1-0.8,4.2-0.8,6.4,0.1c0.8,0.3,1.5,0.8,2.2,1.3C1095,77.1,1095.5,77.8,1096,78.6L1096,78.6z
		 M1093.4,84.7c0.5-1.2,0.5-2.4,0-3.6c-0.5-1.2-1.4-2.1-2.6-2.6s-2.5-0.5-3.7,0c-1.2,0.5-2.1,1.3-2.6,2.5c-0.5,1.2-0.5,2.4,0,3.6
		s1.4,2.1,2.6,2.6c1.2,0.5,2.5,0.5,3.7,0C1092,86.8,1092.9,85.9,1093.4,84.7z"/>
	<path d="M1112.7,83.2l-0.6,2.1c1.7-0.6,3-1,3.9-1.1c0.9-0.1,1.7,0,2.4,0.2c1.1,0.3,2,1,2.8,2.1c0.5,0.8,0.7,1.4,0.6,2
		c-0.1,0.5-0.4,0.8-0.9,1.1c-0.4,0.2-0.9,0.3-1.4,0.1c-0.4-0.1-0.8-0.5-1.1-1s-0.7-0.9-1-1c-0.5-0.1-1.3,0-2.4,0.3s-2.5,0.9-4.3,1.6
		l-1.5,5.1l4.8,1.4c0.8,0.2,1.3,0.6,1.6,1c0.3,0.4,0.3,0.9,0.2,1.4c-0.1,0.5-0.4,0.8-0.9,1.1c-0.4,0.2-1.1,0.2-1.9,0l-10.2-3
		c-0.8-0.2-1.3-0.6-1.6-1c-0.3-0.4-0.3-0.9-0.2-1.4c0.1-0.5,0.4-0.8,0.9-1.1c0.4-0.2,1.1-0.2,1.9,0l2,0.6l2.4-8.2l-1.2-0.4
		c-0.8-0.2-1.3-0.6-1.6-1c-0.3-0.4-0.3-0.9-0.2-1.4c0.1-0.5,0.4-0.8,0.9-1.1s1.1-0.2,1.9,0L1112.7,83.2L1112.7,83.2z"/>
	<path d="M1135,104.2l0.1-0.8c-0.9,0.3-2,0.5-3,0.5c-1.1,0-2.1,0-2.9-0.2c-1.9-0.3-3.3-1.1-4.3-2.3c-1-1.2-1.4-2.4-1.2-3.6
		c0.3-1.4,1.2-2.7,2.9-3.6c1.7-1,3.8-1.2,6.4-0.8c1,0.2,2.2,0.5,3.6,1l0.1-0.8c0.1-0.5-0.1-1-0.4-1.4s-1.2-0.7-2.4-0.9
		c-1-0.2-2.4-0.2-4.1-0.1c-0.6,0-1.1,0-1.5,0c-0.5-0.1-0.8-0.3-1.1-0.7s-0.3-0.8-0.3-1.4c0.1-0.3,0.2-0.5,0.3-0.7s0.3-0.3,0.6-0.4
		s0.7-0.2,1.3-0.2c0.9-0.1,1.8-0.1,2.7-0.1s1.7,0.1,2.4,0.2c2.1,0.4,3.7,1.1,4.7,2.3c1,1.1,1.4,2.5,1.1,4.1l-1.2,7.1l0.6,0.1
		c0.8,0.1,1.4,0.4,1.7,0.8c0.3,0.4,0.4,0.8,0.3,1.3c-0.1,0.5-0.3,0.9-0.7,1.1s-1,0.3-1.9,0.2L1135,104.2z M1136.1,98
		c-1.3-0.5-2.6-0.9-3.8-1.1c-1.4-0.2-2.7-0.1-3.8,0.4c-0.7,0.3-1.1,0.7-1.2,1.2c-0.1,0.3,0,0.6,0.3,0.9c0.5,0.5,1.2,0.8,2.2,1
		c0.8,0.1,1.8,0.1,2.9,0s2.1-0.4,3-0.8L1136.1,98L1136.1,98z"/>
	<path d="M1150.8,90.6l-0.1,1c0.6-0.5,1.1-0.9,1.6-1c0.5-0.2,1-0.2,1.6-0.2c0.5,0,1,0.2,1.5,0.5c0.5,0.3,0.9,0.7,1.4,1.2
		c0.6-0.5,1.3-0.8,1.9-1c0.6-0.2,1.3-0.3,1.9-0.2c1.3,0.1,2.3,0.5,3.1,1.3c1,1,1.5,2.2,1.4,3.7l-0.5,7.8c0.7,0,1.3,0.2,1.6,0.6
		s0.5,0.8,0.4,1.3s-0.2,0.9-0.6,1.2c-0.4,0.3-1,0.4-1.8,0.4l-3.3-0.2l0.7-11c0-0.5,0-0.9-0.2-1.1s-0.5-0.3-0.9-0.4
		c-0.4,0-0.8,0.1-1.1,0.2c-0.4,0.3-1,0.8-1.6,1.5l-0.5,7c0.7,0,1.3,0.2,1.6,0.6s0.5,0.8,0.4,1.3s-0.2,0.9-0.6,1.2
		c-0.4,0.3-1,0.4-1.8,0.4l-3.3-0.2l0.7-11c0-0.5,0-0.9-0.2-1.1s-0.5-0.3-0.9-0.4c-0.4,0-0.8,0.1-1.2,0.3c-0.4,0.2-0.9,0.7-1.5,1.4
		l-0.5,7c0.7,0,1.3,0.2,1.6,0.6s0.5,0.8,0.5,1.3c0,0.5-0.2,0.9-0.6,1.2s-1,0.4-1.8,0.4l-3.2-0.2c-0.8-0.1-1.4-0.3-1.8-0.6
		c-0.3-0.3-0.5-0.8-0.5-1.3c0-0.5,0.2-0.9,0.6-1.2c0.4-0.3,0.9-0.4,1.7-0.4l0.6-8.5c-0.7,0-1.3-0.2-1.6-0.6s-0.5-0.8-0.4-1.3
		c0-0.5,0.2-0.9,0.6-1.2c0.4-0.3,1-0.4,1.8-0.4L1150.8,90.6L1150.8,90.6z"/>
</g>
</svg>
