<?xml version="1.0" encoding="UTF-8"?><svg id="Layer_1" xmlns="http://www.w3.org/2000/svg" width="294" height="120.2468" viewBox="0 0 294 120.2468"><defs><style>.cls-1{fill:none;stroke:#000;stroke-linecap:round;stroke-linejoin:round;stroke-width:5px;}</style></defs><g><path class="cls-1" d="M163.5458,55.4324c-4.6666-3-9.3334-6-14-9l-27.9231,.1538v18.8462h-9.0769l9.0769,50.5993h82.9231V55.286c-13.6666,.0488-27.3334,.0976-41,.1464Z"/><polyline class="cls-1" points="204.6227 116.0317 195.5458 65.4324 121.6227 65.4324"/></g><g><path d="M95.3672,26.8167l1.2188,1.1099,1.0889-1.1958c.2598-.2847,.5-.438,.7197-.4595,.2207-.021,.4189,.0488,.5967,.21,.1729,.1582,.2588,.3477,.2588,.5688-.001,.2212-.1309,.4741-.3906,.7593l-2.3359,2.5645c-.2598,.2852-.499,.438-.7197,.4595-.2197,.0215-.4189-.0483-.5957-.21-.1729-.1577-.2588-.3481-.2559-.5713,.002-.2231,.1309-.4756,.3877-.7563l.168-.1851-4.6328-4.2188-.168,.1846c-.2598,.2852-.499,.4385-.7197,.4595-.2197,.0215-.4189-.0483-.5957-.21-.1768-.1611-.2656-.3525-.2646-.5737s.1309-.4741,.3906-.7593l2.4883-2.7212c.7295-.8008,1.5264-1.2363,2.3887-1.3062,.8633-.0698,1.6094,.1812,2.2363,.7529,.3467,.3154,.6025,.6929,.7666,1.1309,.1221,.3301,.1689,.7373,.1396,1.2212-.0283,.4844-.1191,.9238-.2695,1.3179-.1514,.3945-.4443,.8301-.8799,1.3076l-1.0205,1.1206Zm-1.1836-1.0786l.999-1.0972c.4697-.5161,.7266-1.0312,.7686-1.5459,.042-.5142-.0996-.9204-.4277-1.2188-.2773-.2524-.6309-.3511-1.0615-.2959s-.8525,.3101-1.2666,.7642l-1.2412,1.3633,2.2295,2.0303Z"/><path d="M106.6865,21.3402l-.2129-.3081c-.209,.4038-.4814,.7876-.8184,1.1509-.3379,.3638-.6689,.6582-.9951,.8833-.7061,.4893-1.4102,.6992-2.1104,.6299-.7002-.0688-1.208-.3306-1.5225-.7847-.3818-.5522-.4551-1.2598-.2197-2.123,.2354-.8628,.8496-1.6387,1.8428-2.3262,.3984-.2759,.8887-.5518,1.4697-.8281l-.2178-.3145c-.1357-.1973-.332-.2988-.5869-.3062-.2549-.0068-.6201,.1538-1.0957,.4829-.3896,.27-.8418,.6968-1.3555,1.2808-.1934,.2158-.3535,.3682-.4824,.4575-.1748,.1216-.3682,.1611-.5771,.1196-.21-.042-.3828-.1616-.5186-.3584-.0771-.1113-.123-.2227-.1367-.3335-.0127-.1108,.002-.2178,.0449-.3203s.1621-.2729,.3594-.5103c.2627-.3154,.5449-.6167,.8467-.9048,.3008-.2876,.5889-.5264,.8623-.7163,.8184-.5659,1.5752-.8291,2.2715-.7886s1.2568,.3667,1.6807,.979l1.877,2.7109,.2246-.1558c.3174-.2197,.585-.3149,.8047-.2861,.2188,.0283,.3975,.1416,.5332,.3384,.1338,.1924,.1748,.3965,.125,.6123-.0508,.2153-.2344,.4326-.5508,.6519l-1.542,1.0674Zm-1.6318-2.3569c-.5977,.2617-1.1201,.5469-1.5654,.8555-.5352,.3706-.9043,.8198-1.1094,1.3477-.124,.3335-.127,.5854-.0078,.7568,.0859,.124,.2129,.1846,.3818,.1816,.3125-.0068,.6543-.1396,1.0273-.3975,.3164-.2192,.6318-.5298,.9463-.9312s.5537-.8174,.7188-1.248l-.3916-.5649Z"/><path d="M111.665,17.5296l1.0391,2.4106,.8828-.3804c.3535-.1523,.6348-.1929,.8447-.1216,.209,.0713,.3613,.2168,.4561,.437,.0928,.2153,.0938,.4233,.002,.6245-.0928,.2012-.3154,.3784-.6689,.5308l-2.6045,1.1226c-.3535,.1528-.6357,.1934-.8447,.1221-.21-.0713-.3604-.2148-.4531-.4297-.0957-.2202-.0957-.4312-.001-.6338,.0938-.2021,.3154-.3784,.665-.5293l.251-.1079-2.8643-6.6436-.251,.1084c-.3535,.1523-.6357,.1929-.8447,.1216-.21-.0713-.3613-.2168-.4561-.437-.0928-.2153-.0938-.4233-.002-.6245s.3145-.3784,.6689-.5308l1.7217-.7422,.2168,.502c.2432-.3828,.5244-.7109,.8428-.9844,.3193-.2734,.6719-.4941,1.0596-.6611,1.0039-.4326,2.0078-.4609,3.0088-.0845,1.002,.3765,1.6924,1.0044,2.0723,1.8843,.418,.9712,.3447,1.9526-.2197,2.9448-.4717,.8271-1.1445,1.4292-2.0205,1.8066-.3779,.1631-.7744,.269-1.1904,.3174-.415,.0488-.8525,.0415-1.3105-.022Zm3.2734-4.4053c-.0889-.2061-.2832-.4326-.583-.6807s-.6641-.4058-1.0928-.4731-.8711-.0034-1.3252,.1924c-.7314,.3159-1.1943,.8413-1.3877,1.5767-.1289,.5039-.1182,.9302,.0322,1.2793,.1699,.3921,.543,.6836,1.1211,.8735,.5791,.1904,1.1768,.1523,1.793-.1133,.6221-.2681,1.0615-.6758,1.3193-1.2236,.2568-.5479,.2979-1.0249,.123-1.4312Z"/><path d="M126.2061,10.9754l-6.3916,1.5205c.2578,.3667,.623,.625,1.0957,.7754,.4717,.1499,1.0596,.1411,1.7646-.0264,.5771-.1372,1.3154-.4438,2.2139-.9199,.3711-.1953,.6328-.311,.7852-.3477,.207-.0493,.3994-.0171,.5762,.0957,.1768,.1133,.292,.2817,.3447,.5044,.0488,.2026,.0137,.3931-.1045,.5713-.1582,.2354-.6104,.5317-1.3545,.8882-.7451,.3564-1.4805,.6211-2.2051,.7935-1.2461,.2964-2.3271,.1812-3.2422-.3452-.9141-.5269-1.4941-1.3042-1.7393-2.333-.2598-1.0942-.0674-2.0811,.5771-2.96,.6455-.8784,1.4941-1.4434,2.5488-1.6938,.6328-.1509,1.2412-.1777,1.8232-.0806,.583,.0972,1.0342,.2441,1.3535,.4409,.4541,.2881,.8662,.6802,1.2354,1.1758,.2539,.3467,.4414,.7734,.5615,1.2798l.1572,.6611Zm-2.0957-1.1475c-.3447-.3892-.7354-.6484-1.1729-.7773s-.9219-.1299-1.4541-.0034c-.5273,.1255-.957,.3442-1.2891,.6562-.333,.312-.5684,.7197-.7051,1.2236l4.6211-1.0991Z"/><path d="M131.4893,5.9979l.0908,.9961c.625-.543,1.123-.9126,1.4951-1.1084s.7266-.3096,1.0635-.3398c.5186-.0474,1.0391,.0991,1.5615,.4385,.3555,.229,.5459,.4785,.5703,.7485,.0205,.228-.041,.4282-.1846,.6011-.1436,.1724-.3271,.269-.5508,.2891-.1963,.0181-.4131-.0615-.6484-.2388-.2363-.1777-.4395-.2583-.6104-.2427-.2236,.02-.5439,.1904-.9619,.5107s-.9336,.791-1.5469,1.4116l.2188,2.4038,2.2715-.2061c.3838-.0352,.6641,.0142,.8408,.147s.2764,.3188,.2979,.5571c.0215,.2334-.043,.4316-.1924,.5942-.1504,.1626-.417,.2617-.8008,.2964l-4.8164,.4375c-.3838,.0352-.6641-.0142-.8408-.147s-.2764-.3188-.2979-.5576c-.0215-.2334,.043-.4312,.1934-.5938,.1494-.1631,.416-.2617,.8008-.2964l.9492-.0864-.3525-3.8745-.5762,.0522c-.3838,.0347-.6641-.0142-.8408-.147-.1768-.1333-.2754-.3188-.2979-.5576-.0205-.2334,.0439-.4316,.1934-.5942,.1504-.1626,.417-.2612,.8008-.2964l2.1709-.1973Z"/><path d="M150.0693,12.3226l-.3027,2.6074,.9551,.1108c.3828,.0444,.6465,.1499,.793,.3164,.1455,.1665,.2041,.3687,.1768,.6064-.0264,.2329-.1309,.4136-.3105,.542s-.4619,.1704-.8447,.126l-2.8164-.3267c-.3828-.0444-.6475-.1499-.793-.3164-.1465-.1665-.2051-.3657-.1787-.5986,.0273-.2383,.1328-.4214,.3154-.5493,.1826-.1284,.4629-.1704,.8408-.1265l.2715,.0312,.834-7.186-.2715-.0317c-.3828-.0444-.6475-.1494-.793-.3159s-.2051-.3687-.1777-.6064c.0273-.2329,.1309-.4136,.3115-.542,.1797-.1289,.4609-.1709,.8438-.1265l1.8623,.2163-.0625,.5435c.4014-.2104,.8086-.3545,1.2217-.4326,.4131-.0776,.8291-.0923,1.248-.0439,1.0859,.1265,1.9697,.6025,2.6494,1.4287,.6807,.8257,.9648,1.7148,.8545,2.667-.1221,1.0503-.6748,1.8643-1.6592,2.4419-.8223,.4814-1.7061,.6675-2.6523,.5571-.4092-.0474-.8057-.1533-1.1904-.3188-.3848-.165-.7598-.3896-1.125-.6733Zm5.0352-2.1841c.0264-.2222-.0293-.5156-.165-.8804-.1357-.3643-.373-.6826-.7109-.9556-.3379-.2725-.7529-.437-1.2441-.4941-.792-.0918-1.4551,.1328-1.9893,.6733-.3633,.3721-.5664,.7471-.6104,1.125-.0498,.4238,.1289,.8628,.5352,1.3164s.9434,.7188,1.6104,.7964c.6729,.0781,1.2568-.0557,1.7529-.4019,.4971-.3462,.7705-.7393,.8213-1.1792Z"/><path d="M162.6816,7.9095l-.1885,.9819c.751-.3486,1.332-.5659,1.7441-.6514,.4111-.085,.7832-.0957,1.1152-.0322,.5117,.0986,.9717,.3833,1.3799,.854,.2773,.3188,.3916,.6113,.3398,.877-.043,.2251-.1572,.4009-.3438,.5269-.1855,.126-.3887,.1675-.6084,.1255-.1943-.0376-.3809-.1738-.5576-.4097-.1777-.2354-.3506-.3696-.5195-.4019-.2197-.0425-.5752,.0322-1.0654,.2246-.4902,.1919-1.1162,.5015-1.877,.9277l-.4561,2.3711,2.2402,.4302c.3789,.0728,.6348,.1978,.7676,.3745s.1768,.3828,.1318,.6182c-.0439,.23-.1611,.4023-.3496,.5171-.1895,.1147-.4736,.1357-.8516,.0635l-4.749-.9131c-.3789-.0728-.6348-.1978-.7676-.374-.1328-.1768-.1768-.3828-.1318-.6182,.0439-.2305,.1611-.4028,.3496-.5176,.1895-.1147,.4736-.1357,.8516-.063l.9365,.1797,.7344-3.8203-.5684-.1094c-.3779-.0728-.6338-.1973-.7666-.374-.1338-.1768-.1777-.3828-.1318-.6182,.0439-.23,.1611-.4028,.3496-.5176,.1895-.1147,.4727-.1357,.8516-.063l2.1406,.4116Z"/><path d="M176.1768,14.8324c-.1533,.5952-.4658,1.1294-.9395,1.6021s-1.0791,.7905-1.8174,.9531c-.7383,.1631-1.4629,.1533-2.1738-.0288-.7061-.1812-1.3408-.5176-1.9033-1.0083-.5625-.4912-.9404-1.0601-1.1348-1.7065-.1943-.647-.2139-1.2754-.0566-1.8857,.1592-.6206,.4863-1.186,.9834-1.6958,.4961-.5098,1.1094-.8535,1.8408-1.0317s1.4473-.1772,2.1494,.0024c.7061,.1812,1.3408,.5308,1.9043,1.0488,.5635,.5186,.9355,1.1167,1.1162,1.7944,.1816,.6782,.1914,1.3306,.0312,1.9561Zm-1.5537-.3906c.1279-.4995,.0664-1.0044-.1836-1.5151-.3447-.6904-.916-1.1377-1.7129-1.3423-.7012-.1797-1.3438-.1055-1.9287,.2236-.584,.3286-.9521,.7881-1.1035,1.3784-.124,.4844-.0029,.998,.3633,1.5405,.3662,.543,.8945,.9028,1.5859,1.0801,.6963,.1787,1.3359,.1182,1.918-.1816,.582-.2993,.9365-.6938,1.0615-1.1836Z"/><path d="M182.0732,14.4534l-.9541,3.0654c-.1025,.3286-.1025,.5654-.001,.7119,.1572,.229,.5049,.4272,1.042,.5947,.7803,.2432,1.5537,.3008,2.3184,.1738,.2939-.0503,.5137-.0532,.6572-.0083,.1992,.062,.3486,.1904,.4492,.3853,.0996,.1948,.1172,.3994,.0508,.6133-.0625,.1987-.1953,.3457-.3994,.4399-.3164,.1582-.8643,.2231-1.6445,.1958-.7793-.0273-1.415-.1177-1.9082-.271-.9492-.2954-1.5977-.7227-1.9453-1.2808-.3467-.5581-.4277-1.1357-.2412-1.7324l1.0469-3.3638-.5518-.1719c-.3682-.1147-.6084-.2676-.7207-.458s-.1328-.3999-.0615-.6289c.0693-.2236,.2051-.3818,.4053-.4751,.2012-.0928,.4854-.082,.8535,.0327l.5518,.1719,.4297-1.3799c.1143-.3682,.2676-.6084,.458-.7207,.1904-.1128,.3994-.1333,.6289-.062,.2236,.0698,.3818,.2051,.4746,.4058s.082,.4854-.0322,.853l-.4297,1.3799,2.8271,.8804c.3672,.1147,.6074,.2671,.7207,.458,.1123,.1904,.1328,.3999,.0615,.6284-.0693,.2241-.2051,.3823-.4053,.4751-.2012,.0933-.4854,.0825-.8535-.0322l-2.8271-.8804Z"/><path d="M195.2881,21.1541c-.207,.5791-.5674,1.0815-1.083,1.5088-.5146,.4272-1.1475,.6875-1.8975,.7817-.75,.0938-1.4707,.0176-2.1621-.23-.6865-.2456-1.2871-.6387-1.8018-1.1797-.5146-.5405-.8389-1.1421-.9727-1.8037-.1338-.6621-.0947-1.2896,.1172-1.8828,.2158-.6035,.5947-1.1357,1.1357-1.5977,.542-.4619,1.1846-.748,1.9287-.8579,.7451-.1099,1.458-.043,2.1396,.2012,.6865,.2456,1.2861,.6523,1.7998,1.2202,.5127,.5679,.8281,1.1978,.9463,1.8896,.1172,.6924,.0674,1.3423-.1504,1.9502Zm-1.5107-.5317c.1738-.4854,.1592-.9941-.043-1.5259-.2793-.7192-.8066-1.2173-1.5811-1.4946-.6816-.2437-1.3291-.229-1.9414,.0444-.6113,.2734-1.0205,.6968-1.2256,1.2705-.168,.4712-.0957,.9937,.2188,1.5679s.8076,.9819,1.4805,1.2222c.6768,.2417,1.3184,.2407,1.9258-.0039s.9961-.605,1.166-1.0806Z"/><path d="M201.1895,21.2039l-1.1631,2.9927c-.125,.3203-.1416,.5571-.0498,.71,.1416,.2393,.4746,.4609,.999,.6646,.7617,.2964,1.5293,.4072,2.3008,.333,.2969-.0298,.5156-.0176,.6562,.0371,.1943,.0752,.335,.2139,.4219,.415,.0859,.2012,.0889,.4062,.0078,.6152-.0752,.1943-.2178,.3315-.4277,.4116-.3271,.1357-.8779,.1636-1.6543,.0825s-1.4043-.2148-1.8848-.4014c-.9277-.3604-1.5449-.8311-1.8525-1.4116-.3086-.5806-.3496-1.1621-.123-1.7451l1.2764-3.2837-.5391-.2095c-.3594-.1396-.5879-.3086-.6875-.5063-.0986-.1978-.1055-.4082-.0186-.6313,.085-.2188,.2305-.3672,.4375-.4463s.4893-.0488,.8486,.0908l.5391,.2095,.5234-1.3472c.1396-.3589,.3086-.5884,.5068-.6875,.1973-.0991,.4082-.1055,.6309-.0186,.2188,.085,.3672,.231,.4463,.4375s.0488,.4897-.0908,.8486l-.5234,1.3472,2.7598,1.0728c.3594,.1396,.5879,.3081,.6875,.5059s.1055,.4087,.0186,.6318c-.085,.2183-.2305,.3672-.4375,.4463-.207,.0786-.4893,.0483-.8486-.0913l-2.7598-1.0723Z"/><path d="M207.8066,29.9217l-.1895-6.1011c-.2217-.1392-.3633-.3037-.4238-.4932-.0596-.1899-.0459-.3789,.043-.5674,.1025-.2163,.2598-.3569,.4707-.4214,.2119-.0645,.4922-.0142,.8408,.1504l1.3213,.623c.3486,.1646,.5654,.3486,.6504,.5532,.085,.2041,.0771,.4146-.0254,.6313-.0996,.2119-.2559,.3501-.4678,.4141-.2119,.0645-.4775,.021-.7979-.1299l.1406,4.1343,3.2656-2.5283c-.3115-.1465-.5098-.3218-.5947-.5259-.085-.2046-.0762-.415,.0264-.6318,.0996-.2119,.2559-.3501,.4668-.4141,.2119-.0645,.4922-.0142,.8408,.1499l1.3633,.6436c.3447,.1621,.5586,.3452,.6436,.5493,.085,.2046,.0771,.415-.0254,.6313-.0908,.1934-.2314,.3271-.4229,.4014-.1904,.0742-.415,.062-.6729-.0371l-6.4072,4.9771c.3623,.1709,.584,.3184,.6631,.4424,.1582,.2524,.1729,.5132,.0459,.7817-.0996,.2119-.2549,.3501-.4668,.4146-.2119,.064-.4922,.0142-.8408-.1504l-3.1582-1.4897c-.3486-.1646-.5654-.3486-.6504-.5527-.085-.2046-.0781-.4126,.0225-.6245,.1016-.2168,.2588-.3569,.4707-.4214s.4912-.0142,.8398,.1504l1.4414,.6797,1.5869-1.2388Z"/><path d="M216.0742,33.1131l-1.2637,2.3008,.8428,.4624c.3379,.1855,.543,.3828,.6152,.5918,.0723,.2095,.0508,.4189-.0645,.6289-.1123,.2056-.2764,.3335-.4922,.3848-.2148,.0513-.4912-.0161-.8291-.2012l-2.4863-1.3647c-.3379-.1855-.543-.3828-.6152-.5918s-.0527-.4165,.0605-.6216c.1152-.2104,.2812-.3403,.499-.3901s.4932,.0166,.8262,.1997l.2402,.1313,3.4805-6.3418-.2393-.1313c-.3379-.1855-.543-.3828-.6152-.5918-.0732-.209-.0518-.4189,.0635-.6289,.1133-.2056,.2773-.3335,.4922-.3848,.2158-.0513,.4922,.0156,.8301,.2012l1.6436,.9023-.2627,.4795c.4512-.0435,.8828-.0234,1.2939,.0601,.4121,.0835,.8027,.2266,1.1729,.4297,.959,.5264,1.5977,1.3003,1.916,2.3218s.2471,1.9521-.2139,2.7925c-.5088,.9268-1.3281,1.4722-2.458,1.6362-.9424,.1362-1.8311-.0249-2.666-.4834-.3613-.1978-.6885-.4458-.9824-.7441-.2939-.2979-.5566-.647-.7881-1.0474Zm5.4873-.125c.1074-.1963,.167-.4893,.1787-.8779,.0107-.3887-.0889-.7729-.2988-1.1528s-.5322-.689-.9658-.9272c-.6992-.3833-1.3975-.4253-2.0967-.126-.4766,.208-.8066,.4785-.9893,.812-.2051,.374-.2061,.8481,0,1.4209,.2051,.5732,.6016,1.0215,1.1914,1.3447,.5928,.3257,1.1846,.4224,1.7754,.2886,.5898-.1333,.9912-.3945,1.2051-.7822Z"/><path d="M230.7803,39.6727l-5.5674-3.4897c-.0801,.4414-.0078,.8833,.2168,1.3247,.2236,.4419,.6426,.855,1.2559,1.2393,.5029,.3154,1.2393,.6265,2.209,.9331,.3994,.1274,.665,.2329,.7979,.3159,.1807,.1133,.293,.2729,.3359,.478,.0439,.2056,.0049,.4053-.1172,.5996-.1104,.1768-.2705,.2852-.4805,.3257-.2793,.0527-.8066-.0615-1.584-.3428-.7764-.2808-1.4805-.6191-2.1113-1.0146-1.085-.6807-1.7617-1.5317-2.0273-2.5532-.2666-1.021-.1191-1.98,.4424-2.8755,.5977-.9531,1.4355-1.5083,2.5146-1.665,1.0781-.1567,2.0771,.0527,2.9951,.6279,.5508,.3462,.9971,.7607,1.3359,1.2437,.3398,.4834,.5508,.9082,.6348,1.2744,.1133,.5259,.123,1.0938,.0283,1.7051-.0684,.4238-.2412,.8564-.5186,1.2979l-.3604,.5757Zm-.6523-2.2988c.0361-.5186-.0537-.9785-.2686-1.3809s-.5537-.7485-1.0176-1.0391c-.459-.2876-.916-.4409-1.3721-.459-.4551-.0186-.9111,.1006-1.3662,.356l4.0244,2.5229Z"/></g></svg>