<?xml version="1.0" encoding="utf-8"?>
<!-- Generator: Adobe Illustrator 26.3.1, SVG Export Plug-In . SVG Version: 6.00 Build 0)  -->
<svg version="1.1" id="Layer_1" xmlns="http://www.w3.org/2000/svg" xmlns:xlink="http://www.w3.org/1999/xlink" x="0px" y="0px"
	 viewBox="0 0 1347.5 131.3" style="enable-background:new 0 0 1347.5 131.3;" xml:space="preserve">
<style type="text/css">
	.st0{fill:none;stroke:#000000;stroke-width:5;stroke-linecap:round;stroke-linejoin:round;}
</style>
<g>
	<path class="st0" d="M636.8,57c-4.7-3-9.3-6-14-9l-27.9,0.2V67h-9.1l9.1,50.6h82.9V56.9C664.1,56.9,650.5,57,636.8,57L636.8,57z"/>
	<polyline class="st0" points="677.9,117.6 668.8,67 594.9,67 	"/>
</g>
<g>
	<path d="M135.2,26.3l0.8,3.5l3.4-0.8c0.8-0.2,1.4-0.2,1.9,0c0.4,0.2,0.7,0.6,0.8,1.1c0.1,0.5,0,0.9-0.2,1.3s-0.8,0.7-1.6,0.9
		l-7.4,1.8c-0.8,0.2-1.4,0.2-1.9,0c-0.4-0.2-0.7-0.6-0.8-1.1c-0.1-0.5,0-0.9,0.2-1.3c0.3-0.4,0.8-0.7,1.6-0.9l0.5-0.1l-3.2-13.3
		l-0.5,0.1c-0.8,0.2-1.4,0.2-1.9,0c-0.4-0.2-0.7-0.6-0.8-1.1s0-1,0.2-1.4s0.8-0.7,1.6-0.9l7.8-1.9c2.3-0.6,4.3-0.4,5.9,0.6
		c1.6,0.9,2.7,2.3,3.1,4.1c0.2,1,0.2,2,0,3c-0.2,0.7-0.6,1.5-1.2,2.4c-0.6,0.8-1.3,1.5-2.1,2.1c-0.8,0.5-1.8,1-3.2,1.3L135.2,26.3
		L135.2,26.3z M134.4,22.9l3.2-0.8c1.5-0.4,2.6-1,3.3-1.9c0.7-0.9,0.9-1.8,0.7-2.7c-0.2-0.8-0.7-1.4-1.6-1.8
		c-0.8-0.4-1.9-0.5-3.2-0.2l-3.9,0.9L134.4,22.9L134.4,22.9z"/>
	<path d="M162.9,28.6l-0.1-0.8c-0.8,0.6-1.7,1-2.8,1.4s-2,0.6-2.8,0.7c-1.9,0.2-3.4-0.1-4.7-1s-2-1.9-2.1-3.1
		c-0.2-1.5,0.4-2.9,1.8-4.3c1.3-1.4,3.3-2.3,6-2.6c1.1-0.1,2.3-0.2,3.7-0.1l-0.1-0.8c-0.1-0.5-0.3-0.9-0.8-1.2s-1.4-0.3-2.6-0.2
		c-1,0.1-2.3,0.5-3.9,1.1c-0.6,0.2-1.1,0.3-1.4,0.4c-0.5,0.1-0.9-0.1-1.2-0.4c-0.4-0.3-0.6-0.7-0.6-1.2c0-0.3,0-0.6,0.1-0.8
		c0.1-0.2,0.2-0.4,0.4-0.6c0.2-0.2,0.6-0.4,1.2-0.6c0.8-0.3,1.7-0.6,2.6-0.9s1.7-0.4,2.4-0.5c2.2-0.3,3.9,0,5.2,0.8
		c1.3,0.8,2,2,2.2,3.6l0.8,7.2l0.6-0.1c0.8-0.1,1.5,0,1.8,0.3c0.4,0.3,0.6,0.7,0.7,1.2c0.1,0.5-0.1,0.9-0.4,1.3s-0.9,0.6-1.7,0.7
		L162.9,28.6L162.9,28.6z M162.2,22.4c-1.4-0.1-2.7-0.1-3.9,0c-1.4,0.2-2.6,0.7-3.5,1.5c-0.6,0.5-0.8,1-0.8,1.5
		c0,0.3,0.2,0.6,0.6,0.7c0.6,0.3,1.4,0.4,2.4,0.3c0.8-0.1,1.8-0.4,2.8-0.8s1.9-1,2.7-1.7L162.2,22.4L162.2,22.4z"/>
	<path d="M176.7,25.9l-0.1,5.7l2.1,0c0.8,0,1.4,0.2,1.8,0.5s0.5,0.8,0.5,1.3c0,0.5-0.2,0.9-0.6,1.2c-0.4,0.3-1,0.5-1.8,0.5l-6.2-0.1
		c-0.8,0-1.4-0.2-1.8-0.5s-0.5-0.8-0.5-1.3c0-0.5,0.2-0.9,0.6-1.3c0.4-0.3,1-0.5,1.8-0.5l0.6,0l0.3-15.8l-0.6,0
		c-0.8,0-1.4-0.2-1.8-0.5c-0.4-0.3-0.5-0.8-0.5-1.3c0-0.5,0.2-0.9,0.6-1.2c0.4-0.3,1-0.5,1.8-0.5l4.1,0.1l0,1.2
		c0.8-0.5,1.7-0.9,2.6-1.2s1.8-0.4,2.7-0.4c2.4,0,4.4,0.9,6.1,2.5c1.7,1.7,2.5,3.5,2.4,5.6c0,2.3-1.1,4.2-3.1,5.7
		c-1.7,1.2-3.6,1.8-5.7,1.8c-0.9,0-1.8-0.2-2.7-0.4C178.4,26.8,177.5,26.4,176.7,25.9L176.7,25.9z M187.2,20c0-0.5-0.2-1.1-0.6-1.9
		c-0.4-0.8-1-1.4-1.8-1.9s-1.7-0.8-2.8-0.8c-1.7,0-3.1,0.6-4.2,1.9c-0.7,0.9-1.1,1.7-1.1,2.6c0,0.9,0.5,1.9,1.5,2.7s2.2,1.4,3.7,1.4
		c1.5,0,2.7-0.4,3.7-1.3C186.6,21.9,187.1,21,187.2,20L187.2,20z"/>
	<path d="M211.6,25.1l-14.2-2.2c0.2,1,0.7,1.8,1.6,2.5s2,1.2,3.6,1.4c1.3,0.2,3,0.2,5.2,0c0.9-0.1,1.5-0.1,1.9-0.1
		c0.5,0.1,0.8,0.3,1.1,0.7c0.3,0.4,0.4,0.8,0.3,1.3c-0.1,0.5-0.3,0.8-0.7,1.1c-0.5,0.3-1.7,0.6-3.5,0.7s-3.5,0-5.1-0.2
		c-2.8-0.4-4.9-1.6-6.3-3.4s-1.9-3.9-1.6-6.2c0.4-2.4,1.6-4.3,3.6-5.5c2-1.2,4.2-1.7,6.6-1.3c1.4,0.2,2.7,0.7,3.8,1.4s1.9,1.4,2.4,2
		c0.7,1,1.2,2.1,1.5,3.4c0.2,0.9,0.3,1.9,0.1,3.1L211.6,25.1L211.6,25.1z M208.4,21.1c-0.4-1.1-1-1.9-1.7-2.5
		c-0.8-0.6-1.8-1-2.9-1.2c-1.2-0.2-2.2-0.1-3.2,0.3c-0.9,0.4-1.7,1-2.4,1.9C198.1,19.4,208.4,21.1,208.4,21.1z"/>
	<path d="M226.6,19.5l-0.7,2.1c1.7-0.6,3-0.9,4-1c0.9-0.1,1.7,0,2.4,0.2c1.1,0.3,2,1.1,2.8,2.2c0.5,0.8,0.7,1.4,0.5,2
		c-0.2,0.5-0.4,0.8-0.9,1.1c-0.4,0.2-0.9,0.3-1.4,0.1c-0.4-0.1-0.8-0.5-1.1-1s-0.7-0.9-1-1c-0.5-0.1-1.3-0.1-2.4,0.2
		c-1.1,0.3-2.6,0.8-4.3,1.5l-1.6,5l4.8,1.5c0.8,0.3,1.3,0.6,1.6,1c0.2,0.4,0.3,0.9,0.1,1.4c-0.2,0.5-0.5,0.8-0.9,1s-1.1,0.2-1.9-0.1
		l-10.1-3.2c-0.8-0.3-1.3-0.6-1.6-1s-0.3-0.9-0.1-1.4c0.2-0.5,0.5-0.8,0.9-1s1.1-0.2,1.9,0.1l2,0.6l2.6-8.1l-1.2-0.4
		c-0.8-0.3-1.3-0.6-1.6-1c-0.2-0.4-0.3-0.9-0.1-1.4c0.2-0.5,0.5-0.8,0.9-1s1.1-0.2,1.9,0.1L226.6,19.5L226.6,19.5z"/>
	<path d="M258.2,48.8l-3,4.9l1.8,1.1c0.7,0.4,1.1,0.9,1.3,1.4c0.1,0.5,0.1,0.9-0.2,1.4c-0.3,0.4-0.6,0.7-1.1,0.8
		c-0.5,0.1-1.1-0.1-1.8-0.5l-5.3-3.2c-0.7-0.4-1.1-0.9-1.3-1.4s-0.1-0.9,0.2-1.4c0.3-0.4,0.7-0.7,1.1-0.8c0.5-0.1,1.1,0.1,1.8,0.5
		l0.5,0.3l8.3-13.5l-0.5-0.3c-0.7-0.4-1.1-0.9-1.3-1.4s-0.1-0.9,0.2-1.4c0.3-0.4,0.6-0.7,1.1-0.8c0.5-0.1,1.1,0.1,1.8,0.5l3.5,2.1
		l-0.6,1c1,0,1.9,0,2.8,0.3c0.9,0.2,1.7,0.6,2.5,1.1c2,1.2,3.4,3,3.9,5.3c0.6,2.3,0.3,4.3-0.8,6.1c-1.2,2-3.1,3.1-5.5,3.3
		c-2.1,0.2-4-0.2-5.8-1.3c-0.8-0.5-1.5-1-2.1-1.7C259.2,50.5,258.7,49.7,258.2,48.8L258.2,48.8z M270.2,49.1
		c0.3-0.4,0.4-1.1,0.5-1.9s-0.1-1.7-0.5-2.6c-0.4-0.9-1.1-1.6-2-2.1c-1.5-0.9-3-1.1-4.6-0.5c-1.1,0.4-1.8,1-2.2,1.7
		c-0.5,0.8-0.5,1.8-0.1,3.1s1.2,2.3,2.5,3.1c1.3,0.8,2.5,1,3.9,0.8C268.8,50.4,269.7,49.9,270.2,49.1L270.2,49.1z"/>
	<path d="M287.1,51l-1.2,1.8c1.8-0.1,3.2-0.1,4.1,0.1c0.9,0.2,1.7,0.4,2.3,0.9c1,0.6,1.7,1.6,2.1,2.9c0.3,0.9,0.3,1.6,0,2.1
		c-0.3,0.4-0.6,0.7-1.1,0.8c-0.5,0.1-0.9,0-1.3-0.2c-0.4-0.2-0.6-0.7-0.8-1.3c-0.2-0.6-0.4-1-0.7-1.2c-0.4-0.3-1.2-0.4-2.3-0.4
		s-2.7,0.1-4.6,0.3l-2.9,4.4l4.2,2.7c0.7,0.5,1.1,0.9,1.2,1.4c0.1,0.5,0,0.9-0.2,1.4c-0.3,0.4-0.7,0.7-1.1,0.8
		c-0.5,0.1-1.1-0.1-1.8-0.6L274,61c-0.7-0.5-1.1-0.9-1.2-1.4c-0.1-0.5,0-0.9,0.2-1.4c0.3-0.4,0.7-0.7,1.1-0.8
		c0.5-0.1,1.1,0.1,1.8,0.6l1.8,1.1l4.6-7.1l-1.1-0.7c-0.7-0.5-1.1-0.9-1.2-1.4c-0.1-0.5,0-0.9,0.2-1.4c0.3-0.4,0.7-0.7,1.1-0.8
		s1.1,0.1,1.8,0.6L287.1,51L287.1,51z"/>
	<path d="M309.9,74.4c-0.7,1.2-1.7,2.1-2.9,2.8c-1.3,0.7-2.7,1-4.4,0.9c-1.7-0.1-3.2-0.6-4.6-1.4c-1.4-0.8-2.5-1.9-3.4-3.3
		s-1.3-2.8-1.4-4.3s0.3-2.8,1-4c0.7-1.2,1.7-2.2,3.1-3c1.4-0.8,2.8-1.1,4.5-1.1c1.6,0.1,3.2,0.5,4.5,1.3c1.4,0.8,2.5,1.9,3.4,3.3
		c0.9,1.4,1.3,2.9,1.3,4.4C311,71.8,310.6,73.2,309.9,74.4L309.9,74.4z M306.9,72.7c0.6-1,0.7-2.1,0.5-3.3c-0.3-1.7-1.2-2.9-2.8-3.9
		c-1.4-0.8-2.8-1-4.2-0.7c-1.4,0.3-2.5,1.1-3.1,2.2c-0.6,0.9-0.6,2.1-0.2,3.5c0.4,1.4,1.3,2.4,2.7,3.2c1.4,0.8,2.7,1,4.1,0.8
		C305.3,74.2,306.3,73.6,306.9,72.7L306.9,72.7z"/>
	<path d="M323.2,75.8l-2.9,6.4c-0.3,0.7-0.4,1.2-0.2,1.5c0.3,0.5,1,1.1,2.1,1.6c1.6,0.7,3.3,1.1,5,1c0.7,0,1.1,0,1.4,0.2
		c0.4,0.2,0.7,0.5,0.9,1s0.1,0.9-0.1,1.3c-0.2,0.4-0.5,0.7-1,0.8c-0.7,0.3-1.9,0.2-3.6,0c-1.7-0.3-3-0.7-4.1-1.1
		c-2-0.9-3.3-2-3.9-3.3c-0.6-1.3-0.6-2.6,0-3.8l3.2-7l-1.1-0.5c-0.8-0.4-1.2-0.8-1.4-1.2s-0.2-0.9,0-1.4c0.2-0.5,0.6-0.8,1-0.9
		s1.1,0,1.8,0.3l1.1,0.5l1.3-2.9c0.4-0.8,0.8-1.2,1.2-1.4c0.4-0.2,0.9-0.2,1.4,0c0.5,0.2,0.8,0.6,0.9,1s0,1.1-0.3,1.8l-1.3,2.9
		l5.9,2.7c0.8,0.4,1.2,0.8,1.4,1.2c0.2,0.4,0.2,0.9,0,1.4c-0.2,0.5-0.6,0.8-1,0.9s-1.1,0-1.8-0.3L323.2,75.8L323.2,75.8z"/>
	<path d="M351.8,91.5c-0.4,1.3-1.2,2.4-2.3,3.4s-2.5,1.6-4.1,1.8c-1.6,0.2-3.2,0.1-4.7-0.4c-1.5-0.5-2.9-1.3-4-2.5
		c-1.2-1.2-1.9-2.5-2.2-3.9c-0.3-1.4-0.3-2.8,0.2-4.1c0.4-1.3,1.2-2.5,2.4-3.6c1.2-1,2.5-1.7,4.2-2s3.2-0.2,4.7,0.3
		c1.5,0.5,2.8,1.4,4,2.6c1.2,1.2,1.9,2.6,2.2,4.1C352.3,88.7,352.2,90.1,351.8,91.5L351.8,91.5z M348.5,90.4
		c0.4-1.1,0.3-2.2-0.2-3.3c-0.7-1.6-1.8-2.6-3.5-3.2c-1.5-0.5-2.9-0.4-4.2,0.2c-1.3,0.6-2.2,1.6-2.6,2.8c-0.3,1-0.2,2.2,0.6,3.4
		c0.7,1.2,1.8,2.1,3.3,2.6c1.5,0.5,2.9,0.5,4.2-0.1S348.1,91.5,348.5,90.4L348.5,90.4z"/>
	<path d="M365.2,89.9l-1.4,6.9c-0.2,0.7-0.1,1.3,0.1,1.5c0.4,0.5,1.2,0.8,2.4,1.1c1.8,0.4,3.4,0.3,5.1-0.1c0.6-0.2,1.1-0.2,1.4-0.2
		c0.4,0.1,0.8,0.3,1.1,0.7s0.3,0.8,0.2,1.3c-0.1,0.4-0.4,0.8-0.8,1c-0.7,0.4-1.8,0.7-3.5,0.8c-1.7,0.1-3.1,0-4.2-0.2
		c-2.1-0.4-3.6-1.2-4.5-2.4c-0.9-1.1-1.2-2.4-0.9-3.7l1.6-7.5l-1.2-0.3c-0.8-0.2-1.4-0.5-1.7-0.8c-0.3-0.4-0.4-0.8-0.3-1.4
		c0.1-0.5,0.4-0.9,0.8-1.1c0.4-0.2,1-0.3,1.9-0.1l1.2,0.3l0.6-3.1c0.2-0.8,0.5-1.4,0.8-1.7c0.4-0.3,0.8-0.4,1.4-0.3
		c0.5,0.1,0.9,0.4,1.1,0.8c0.2,0.4,0.3,1,0.1,1.9l-0.6,3.1l6.3,1.3c0.8,0.2,1.4,0.5,1.7,0.8c0.3,0.4,0.4,0.8,0.3,1.4
		c-0.1,0.5-0.4,0.9-0.8,1.1c-0.4,0.2-1,0.3-1.9,0.1L365.2,89.9L365.2,89.9z"/>
	<path d="M384.8,105.1L380,92.6c-0.6-0.1-1-0.4-1.2-0.7c-0.3-0.3-0.4-0.7-0.3-1.2c0.1-0.5,0.3-0.9,0.7-1.2c0.4-0.3,1-0.4,1.8-0.3
		l3.2,0.3c0.8,0.1,1.4,0.3,1.7,0.7c0.3,0.4,0.5,0.8,0.4,1.3c-0.1,0.5-0.3,0.9-0.7,1.2c-0.4,0.3-1,0.4-1.7,0.3l3.3,8.4l4.9-7.6
		c-0.7-0.1-1.3-0.3-1.6-0.6c-0.3-0.4-0.5-0.8-0.4-1.3c0-0.5,0.3-0.9,0.7-1.2s1-0.4,1.8-0.3l3.3,0.3c0.8,0.1,1.4,0.3,1.7,0.7
		c0.3,0.4,0.5,0.8,0.4,1.3c0,0.5-0.2,0.8-0.6,1.1c-0.3,0.3-0.8,0.4-1.4,0.4l-9.5,15c0.9,0.1,1.4,0.2,1.7,0.4
		c0.5,0.4,0.7,0.9,0.7,1.6c0,0.5-0.3,0.9-0.7,1.2c-0.4,0.3-1,0.4-1.8,0.3l-7.6-0.7c-0.8-0.1-1.4-0.3-1.7-0.7
		c-0.3-0.4-0.5-0.8-0.4-1.3c0.1-0.5,0.3-0.9,0.7-1.2c0.4-0.3,1-0.4,1.8-0.3l3.5,0.3L384.8,105.1L384.8,105.1z"/>
	<path d="M405.7,104.5l0,5.7l2.1,0c0.8,0,1.4,0.2,1.8,0.5c0.4,0.3,0.5,0.7,0.5,1.3c0,0.5-0.2,0.9-0.5,1.3c-0.4,0.3-1,0.5-1.8,0.5
		l-6.2,0c-0.8,0-1.4-0.2-1.8-0.5c-0.4-0.3-0.5-0.7-0.5-1.3c0-0.5,0.2-0.9,0.5-1.3c0.4-0.3,1-0.5,1.8-0.5l0.6,0l0-15.8l-0.6,0
		c-0.8,0-1.4-0.2-1.8-0.5c-0.4-0.3-0.5-0.7-0.5-1.3c0-0.5,0.2-0.9,0.5-1.3c0.4-0.3,1-0.5,1.8-0.5l4.1,0l0,1.2c0.8-0.6,1.7-1,2.5-1.3
		c0.9-0.3,1.8-0.4,2.7-0.4c2.4,0,4.4,0.8,6.1,2.4s2.5,3.5,2.5,5.6c0,2.3-1,4.2-3,5.7c-1.7,1.3-3.5,1.9-5.6,1.9
		c-0.9,0-1.8-0.1-2.7-0.4S406.6,105.1,405.7,104.5L405.7,104.5z M416.1,98.5c0-0.5-0.2-1.1-0.6-1.9c-0.4-0.8-1-1.4-1.8-1.9
		c-0.8-0.5-1.7-0.8-2.8-0.8c-1.7,0-3.1,0.7-4.1,2c-0.7,0.9-1,1.8-1,2.6c0,0.9,0.5,1.8,1.5,2.7c1,0.9,2.2,1.3,3.7,1.3
		c1.5,0,2.7-0.4,3.7-1.3C415.6,100.4,416.1,99.5,416.1,98.5L416.1,98.5z"/>
	<path d="M441.5,98.6l-14.3,1.3c0.4,0.9,1.2,1.5,2.1,2c1,0.5,2.3,0.6,3.8,0.5c1.3-0.1,3-0.6,5.1-1.3c0.9-0.3,1.5-0.5,1.8-0.5
		c0.5,0,0.9,0.1,1.2,0.4c0.3,0.3,0.5,0.7,0.6,1.2c0,0.5-0.1,0.9-0.4,1.2c-0.4,0.5-1.5,1-3.2,1.5s-3.4,0.9-5,1
		c-2.8,0.3-5.1-0.3-6.9-1.7c-1.8-1.4-2.8-3.3-3.1-5.6c-0.2-2.5,0.5-4.5,2.2-6.2c1.7-1.7,3.7-2.7,6-2.9c1.4-0.1,2.7,0,4,0.4
		c1.2,0.4,2.2,0.8,2.8,1.4c0.9,0.8,1.7,1.7,2.3,2.9c0.4,0.8,0.7,1.8,0.8,2.9L441.5,98.6L441.5,98.6z M437.3,95.4
		c-0.6-0.9-1.4-1.6-2.3-2s-2-0.6-3.1-0.5c-1.2,0.1-2.2,0.5-3,1c-0.8,0.6-1.4,1.4-1.9,2.4L437.3,95.4L437.3,95.4z"/>
</g>
<g>
	<path d="M821.2,61l1.9,3l3-1.9c0.7-0.5,1.3-0.6,1.8-0.6c0.5,0.1,0.9,0.3,1.1,0.8c0.3,0.4,0.3,0.9,0.2,1.3c-0.1,0.5-0.5,0.9-1.3,1.4
		l-6.4,4.1c-0.7,0.5-1.3,0.6-1.8,0.6c-0.5-0.1-0.9-0.3-1.1-0.8c-0.3-0.4-0.3-0.9-0.2-1.4c0.1-0.5,0.5-0.9,1.3-1.4l0.5-0.3l-7.4-11.6
		l-0.5,0.3c-0.7,0.5-1.3,0.6-1.8,0.6c-0.5-0.1-0.9-0.3-1.1-0.8c-0.3-0.4-0.4-0.9-0.2-1.4s0.5-0.9,1.3-1.4l6.8-4.3
		c2-1.3,3.9-1.7,5.8-1.4s3.3,1.3,4.3,2.9c0.6,0.9,0.9,1.8,1,2.8c0.1,0.8-0.1,1.7-0.4,2.7c-0.3,1-0.8,1.9-1.3,2.6
		c-0.5,0.7-1.4,1.5-2.6,2.3L821.2,61L821.2,61z M819.4,58l2.7-1.7c1.3-0.8,2.1-1.8,2.5-2.8c0.4-1.1,0.3-2-0.2-2.8
		c-0.4-0.7-1.1-1.1-2.1-1.2c-0.9-0.1-2,0.2-3.1,0.9l-3.4,2.2L819.4,58L819.4,58z"/>
	<path d="M848.1,53.4l-0.4-0.7c-0.5,0.8-1.2,1.6-2.1,2.3c-0.8,0.7-1.6,1.3-2.4,1.7c-1.7,0.9-3.2,1.2-4.7,0.9c-1.5-0.3-2.5-1-3.1-2.1
		c-0.7-1.3-0.7-2.8,0-4.7s2.2-3.4,4.6-4.6c0.9-0.5,2.1-1,3.4-1.5L843,44c-0.2-0.5-0.7-0.7-1.2-0.8c-0.6-0.1-1.4,0.2-2.5,0.8
		c-0.9,0.5-2,1.3-3.3,2.5c-0.5,0.4-0.9,0.7-1.2,0.9c-0.4,0.2-0.8,0.3-1.3,0.1c-0.4-0.1-0.8-0.4-1-0.9c-0.1-0.3-0.2-0.5-0.2-0.8
		c0-0.2,0.1-0.5,0.2-0.7c0.1-0.2,0.4-0.6,0.9-1c0.6-0.6,1.3-1.2,2.1-1.8s1.4-1,2-1.4c1.9-1,3.6-1.4,5.1-1.2c1.5,0.3,2.6,1.1,3.4,2.5
		l3.4,6.3l0.5-0.3c0.7-0.4,1.3-0.5,1.8-0.4c0.5,0.1,0.8,0.4,1.1,0.9c0.2,0.5,0.3,0.9,0.1,1.4s-0.6,0.9-1.4,1.3L848.1,53.4
		L848.1,53.4z M845.1,47.9c-1.4,0.4-2.6,0.9-3.6,1.5c-1.3,0.7-2.2,1.6-2.7,2.7c-0.3,0.7-0.4,1.2-0.2,1.6c0.2,0.3,0.4,0.5,0.8,0.5
		c0.7,0.1,1.5-0.1,2.3-0.6c0.7-0.4,1.5-1,2.3-1.8s1.4-1.6,1.9-2.5L845.1,47.9L845.1,47.9z"/>
	<path d="M859.8,45.4l2.3,5.3l1.9-0.8c0.8-0.3,1.4-0.4,1.8-0.3c0.5,0.2,0.8,0.5,1,0.9c0.2,0.5,0.2,0.9,0,1.4s-0.7,0.8-1.5,1.2
		l-5.7,2.5c-0.8,0.3-1.4,0.4-1.8,0.3c-0.5-0.2-0.8-0.5-1-0.9c-0.2-0.5-0.2-0.9,0-1.4c0.2-0.4,0.7-0.8,1.4-1.2l0.5-0.2l-6.4-14.5
		l-0.5,0.2c-0.8,0.3-1.4,0.4-1.8,0.3c-0.5-0.2-0.8-0.5-1-0.9c-0.2-0.5-0.2-0.9,0-1.4s0.7-0.8,1.5-1.2l3.8-1.7l0.5,1.1
		c0.5-0.8,1.1-1.6,1.8-2.2c0.7-0.6,1.5-1.1,2.3-1.5c2.2-1,4.4-1,6.6-0.2s3.7,2.2,4.6,4.1c0.9,2.1,0.8,4.3-0.4,6.4
		c-1,1.8-2.5,3.1-4.4,4c-0.8,0.4-1.7,0.6-2.6,0.7C861.8,45.6,860.8,45.6,859.8,45.4L859.8,45.4z M866.9,35.7
		c-0.2-0.4-0.6-0.9-1.3-1.5c-0.7-0.5-1.5-0.9-2.4-1c-0.9-0.1-1.9,0-2.9,0.4c-1.6,0.7-2.6,1.9-3,3.5c-0.3,1.1-0.2,2,0.1,2.8
		c0.4,0.9,1.2,1.5,2.5,1.9c1.3,0.4,2.6,0.3,3.9-0.3c1.4-0.6,2.3-1.5,2.9-2.7C867.2,37.7,867.3,36.6,866.9,35.7L866.9,35.7z"/>
	<path d="M891,29.3l-13.6,4.5c0.6,0.8,1.5,1.2,2.5,1.5c1.1,0.2,2.3,0.1,3.8-0.4c1.2-0.4,2.8-1.2,4.7-2.4c0.8-0.5,1.3-0.8,1.6-0.9
		c0.4-0.1,0.9-0.1,1.3,0.1c0.4,0.2,0.7,0.6,0.8,1c0.1,0.4,0.1,0.9-0.1,1.3c-0.3,0.5-1.2,1.3-2.8,2.2s-3.1,1.6-4.7,2.1
		c-2.7,0.9-5,0.8-7.1-0.1c-2.1-1-3.5-2.6-4.2-4.8c-0.8-2.3-0.5-4.5,0.7-6.6c1.2-2,3-3.4,5.2-4.2c1.4-0.4,2.7-0.6,4-0.5
		c1.3,0.1,2.3,0.3,3,0.7c1,0.5,2,1.3,2.9,2.3c0.6,0.7,1.1,1.6,1.5,2.7L891,29.3L891,29.3z M886.2,27.2c-0.8-0.8-1.7-1.3-2.7-1.5
		s-2-0.1-3.2,0.3c-1.1,0.4-2,0.9-2.7,1.7c-0.7,0.7-1.1,1.7-1.3,2.8L886.2,27.2L886.2,27.2z"/>
	<path d="M901.2,17.1l0.5,2.1c1.2-1.3,2.2-2.3,3-2.8c0.8-0.5,1.5-0.9,2.2-1c1.1-0.2,2.3-0.1,3.5,0.5c0.8,0.4,1.3,0.9,1.4,1.5
		c0.1,0.5,0,0.9-0.2,1.4c-0.3,0.4-0.6,0.7-1.1,0.8c-0.4,0.1-0.9,0-1.5-0.3c-0.6-0.3-1-0.4-1.4-0.4c-0.5,0.1-1.1,0.6-2,1.4
		c-0.8,0.8-1.8,2-3,3.5l1.1,5.2l4.9-1c0.8-0.2,1.4-0.1,1.9,0.1c0.4,0.2,0.7,0.6,0.8,1.1c0.1,0.5,0,0.9-0.3,1.3
		c-0.3,0.4-0.8,0.7-1.7,0.9L899,33.4c-0.8,0.2-1.4,0.1-1.9-0.1c-0.4-0.2-0.7-0.6-0.8-1.1c-0.1-0.5,0-0.9,0.3-1.3s0.8-0.7,1.7-0.9
		l2-0.4l-1.8-8.3l-1.2,0.3c-0.8,0.2-1.4,0.1-1.9-0.1c-0.4-0.2-0.7-0.6-0.8-1.1c-0.1-0.5,0-0.9,0.3-1.3s0.8-0.7,1.7-0.9L901.2,17.1
		L901.2,17.1z"/>
	<path d="M943,26.4l-0.3,5.7l2.1,0.1c0.8,0,1.4,0.2,1.8,0.6c0.3,0.3,0.5,0.8,0.5,1.3c0,0.5-0.2,0.9-0.6,1.2c-0.4,0.3-1,0.4-1.8,0.4
		l-6.2-0.3c-0.8,0-1.4-0.2-1.8-0.6c-0.3-0.3-0.5-0.8-0.5-1.3c0-0.5,0.2-0.9,0.6-1.2c0.4-0.3,1-0.4,1.8-0.4l0.6,0l0.8-15.8l-0.6,0
		c-0.8,0-1.4-0.2-1.8-0.6c-0.3-0.3-0.5-0.8-0.5-1.3c0-0.5,0.2-0.9,0.6-1.2c0.4-0.3,1-0.4,1.8-0.4l4.1,0.2l-0.1,1.2
		c0.8-0.5,1.7-0.9,2.6-1.1c0.9-0.2,1.8-0.3,2.7-0.3c2.4,0.1,4.4,1,6,2.7c1.6,1.7,2.4,3.6,2.3,5.7c-0.1,2.3-1.2,4.2-3.3,5.6
		c-1.7,1.2-3.6,1.7-5.7,1.6c-0.9,0-1.8-0.2-2.6-0.5C944.7,27.4,943.9,26.9,943,26.4L943,26.4z M953.7,20.8c0-0.5-0.1-1.1-0.5-1.9
		c-0.4-0.8-0.9-1.4-1.7-2c-0.8-0.5-1.7-0.8-2.8-0.9c-1.7-0.1-3.2,0.5-4.2,1.8c-0.7,0.9-1.1,1.7-1.2,2.5c0,0.9,0.4,1.9,1.4,2.8
		c1,0.9,2.2,1.4,3.6,1.5c1.5,0.1,2.7-0.3,3.8-1.1C953.1,22.7,953.7,21.8,953.7,20.8L953.7,20.8z"/>
	<path d="M970.5,15.6l-0.4,2.1c1.6-0.8,2.9-1.2,3.8-1.4c0.9-0.2,1.7-0.2,2.4-0.1c1.1,0.2,2.1,0.8,3,1.9c0.6,0.7,0.9,1.3,0.7,1.9
		c-0.1,0.5-0.3,0.9-0.8,1.2c-0.4,0.3-0.9,0.4-1.3,0.3c-0.4-0.1-0.8-0.4-1.2-0.9c-0.4-0.5-0.8-0.8-1.1-0.9c-0.5-0.1-1.3,0.1-2.3,0.5
		s-2.4,1.1-4.1,2l-1,5.2l4.9,0.9c0.8,0.2,1.4,0.4,1.7,0.8c0.3,0.4,0.4,0.8,0.3,1.4c-0.1,0.5-0.4,0.9-0.8,1.1c-0.4,0.3-1,0.3-1.9,0.1
		l-10.4-2c-0.8-0.2-1.4-0.4-1.7-0.8c-0.3-0.4-0.4-0.8-0.3-1.4c0.1-0.5,0.4-0.9,0.8-1.1c0.4-0.3,1-0.3,1.9-0.1l2,0.4l1.6-8.4
		l-1.2-0.2c-0.8-0.2-1.4-0.4-1.7-0.8c-0.3-0.4-0.4-0.8-0.3-1.4c0.1-0.5,0.4-0.9,0.8-1.1c0.4-0.3,1-0.3,1.9-0.1L970.5,15.6
		L970.5,15.6z"/>
	<path d="M999.7,32.5c-0.5,1.3-1.2,2.4-2.4,3.3c-1.1,0.9-2.5,1.5-4.1,1.7c-1.6,0.2-3.2,0-4.7-0.5c-1.5-0.5-2.8-1.4-3.9-2.6
		c-1.1-1.2-1.8-2.5-2.1-3.9s-0.2-2.8,0.3-4.1c0.5-1.3,1.3-2.5,2.5-3.5s2.6-1.6,4.2-1.9c1.6-0.2,3.2-0.1,4.7,0.4
		c1.5,0.5,2.8,1.4,3.9,2.7c1.1,1.2,1.8,2.6,2.1,4.1C1000.3,29.8,1000.2,31.2,999.7,32.5L999.7,32.5z M996.4,31.3
		c0.4-1.1,0.3-2.2-0.1-3.3c-0.6-1.6-1.8-2.7-3.5-3.3c-1.5-0.5-2.9-0.5-4.2,0.1s-2.2,1.5-2.7,2.8c-0.4,1-0.2,2.2,0.5,3.4
		c0.7,1.3,1.8,2.1,3.2,2.7c1.5,0.5,2.9,0.5,4.2,0S996,32.4,996.4,31.3L996.4,31.3z"/>
	<path d="M1012.8,33.9l-3.2,6.2c-0.3,0.7-0.4,1.2-0.3,1.5c0.3,0.6,0.9,1.1,2,1.7c1.6,0.8,3.2,1.2,4.9,1.3c0.7,0,1.1,0.1,1.4,0.2
		c0.4,0.2,0.7,0.5,0.8,1c0.1,0.5,0.1,0.9-0.1,1.3c-0.2,0.4-0.6,0.7-1,0.8c-0.7,0.2-1.9,0.1-3.6-0.2c-1.7-0.4-3-0.8-4-1.3
		c-1.9-1-3.2-2.2-3.7-3.5c-0.5-1.3-0.5-2.6,0.1-3.8l3.6-6.8l-1.1-0.6c-0.7-0.4-1.2-0.8-1.4-1.3c-0.2-0.5-0.1-0.9,0.1-1.4
		c0.2-0.5,0.6-0.7,1.1-0.9c0.5-0.1,1.1,0,1.8,0.4l1.1,0.6l1.5-2.8c0.4-0.7,0.8-1.2,1.3-1.4c0.5-0.2,0.9-0.1,1.4,0.1
		c0.5,0.2,0.7,0.6,0.9,1.1c0.1,0.5,0,1.1-0.4,1.8l-1.5,2.8l5.7,3c0.7,0.4,1.2,0.8,1.4,1.3c0.2,0.5,0.1,0.9-0.1,1.4
		c-0.2,0.5-0.6,0.7-1.1,0.9c-0.5,0.1-1.1,0-1.8-0.4L1012.8,33.9L1012.8,33.9z"/>
	<path d="M1038.3,54.3c-0.7,1.1-1.7,2-3,2.7c-1.3,0.7-2.8,0.9-4.4,0.8c-1.6-0.2-3.1-0.7-4.5-1.5c-1.3-0.9-2.4-2-3.3-3.4
		s-1.2-2.8-1.2-4.3c0-1.5,0.4-2.8,1.1-4c0.7-1.2,1.8-2.1,3.2-2.9c1.4-0.7,2.9-1,4.5-0.9c1.6,0.1,3.1,0.6,4.5,1.4
		c1.3,0.8,2.4,2,3.3,3.5c0.8,1.5,1.2,3,1.1,4.5S1039,53.1,1038.3,54.3L1038.3,54.3z M1035.3,52.5c0.6-1,0.8-2,0.6-3.3
		c-0.3-1.7-1.1-3-2.7-3.9c-1.3-0.8-2.7-1.1-4.2-0.8c-1.4,0.3-2.5,1-3.2,2.1c-0.6,0.9-0.7,2.1-0.3,3.5c0.4,1.4,1.3,2.5,2.6,3.3
		c1.3,0.8,2.7,1.1,4.1,0.9C1033.7,54,1034.7,53.4,1035.3,52.5z"/>
	<path d="M1050.7,57l-3.8,5.9c-0.4,0.6-0.5,1.1-0.4,1.5c0.2,0.6,0.8,1.2,1.9,1.9c1.5,1,3.1,1.5,4.8,1.7c0.6,0.1,1.1,0.2,1.4,0.4
		c0.4,0.2,0.6,0.6,0.7,1.1c0.1,0.5,0,0.9-0.2,1.3c-0.2,0.4-0.6,0.6-1.1,0.7c-0.8,0.1-2,0-3.6-0.5c-1.6-0.5-2.9-1.1-3.9-1.7
		c-1.8-1.2-3-2.4-3.4-3.8s-0.2-2.6,0.5-3.8l4.2-6.5l-1.1-0.7c-0.7-0.5-1.1-0.9-1.3-1.4c-0.1-0.5,0-0.9,0.2-1.4
		c0.3-0.4,0.7-0.7,1.1-0.8c0.5-0.1,1.1,0.1,1.8,0.6l1.1,0.7l1.7-2.7c0.5-0.7,0.9-1.1,1.4-1.3c0.5-0.1,0.9,0,1.4,0.2
		c0.4,0.3,0.7,0.7,0.8,1.1c0.1,0.5-0.1,1.1-0.6,1.8l-1.7,2.7l5.5,3.5c0.7,0.5,1.1,0.9,1.3,1.4c0.1,0.5,0,0.9-0.2,1.4
		c-0.3,0.4-0.7,0.7-1.1,0.8c-0.5,0.1-1.1-0.1-1.8-0.6L1050.7,57L1050.7,57z"/>
	<path d="M1062.7,78.3l0.5-13.3c-0.5-0.3-0.7-0.7-0.8-1.1c-0.1-0.4,0-0.8,0.2-1.2c0.3-0.5,0.6-0.7,1.1-0.8s1.1,0,1.8,0.5l2.8,1.6
		c0.7,0.4,1.2,0.8,1.3,1.3c0.2,0.5,0.1,0.9-0.2,1.4c-0.3,0.4-0.6,0.7-1.1,0.8s-1,0-1.7-0.4l-0.3,9l7.5-5c-0.7-0.4-1.1-0.8-1.2-1.2
		c-0.2-0.5-0.1-0.9,0.2-1.4c0.2-0.4,0.6-0.7,1.1-0.8s1.1,0,1.8,0.5l2.9,1.6c0.7,0.4,1.2,0.8,1.3,1.3c0.2,0.5,0.1,0.9-0.2,1.4
		c-0.2,0.4-0.6,0.7-1,0.8c-0.4,0.1-0.9,0.1-1.5-0.2l-14.7,9.9c0.8,0.4,1.2,0.8,1.4,1.1c0.3,0.6,0.3,1.1,0,1.7
		c-0.2,0.4-0.6,0.7-1.1,0.8c-0.5,0.1-1.1,0-1.8-0.5l-6.7-3.7c-0.7-0.4-1.2-0.8-1.3-1.3c-0.2-0.5-0.1-0.9,0.1-1.4
		c0.3-0.5,0.6-0.7,1.1-0.8c0.5-0.1,1.1,0,1.8,0.5l3,1.7L1062.7,78.3L1062.7,78.3z"/>
	<path d="M1082.1,86.3l-2.3,5.3l1.9,0.8c0.8,0.3,1.3,0.7,1.5,1.2c0.2,0.4,0.2,0.9,0,1.4c-0.2,0.5-0.5,0.8-1,0.9
		c-0.5,0.2-1.1,0.1-1.8-0.3l-5.7-2.5c-0.8-0.3-1.3-0.7-1.5-1.2c-0.2-0.4-0.2-0.9,0-1.4c0.2-0.5,0.5-0.8,1-1c0.5-0.2,1.1-0.1,1.8,0.3
		l0.5,0.2l6.3-14.5l-0.5-0.2c-0.8-0.3-1.3-0.7-1.5-1.2c-0.2-0.4-0.2-0.9,0-1.4c0.2-0.5,0.5-0.8,1-0.9s1.1-0.1,1.8,0.3l3.8,1.6
		l-0.5,1.1c1-0.2,1.9-0.2,2.8-0.1s1.8,0.3,2.6,0.7c2.2,0.9,3.7,2.5,4.7,4.7c0.9,2.2,0.9,4.2,0.1,6.1c-0.9,2.1-2.6,3.5-5,4.1
		c-2,0.5-4,0.3-5.9-0.5c-0.8-0.4-1.6-0.8-2.3-1.4C1083.3,87.8,1082.7,87.1,1082.1,86.3z M1094,84.9c0.2-0.4,0.3-1.1,0.2-1.9
		c-0.1-0.8-0.4-1.7-0.9-2.4c-0.5-0.8-1.3-1.4-2.3-1.8c-1.6-0.7-3.1-0.6-4.6,0.2c-1,0.6-1.7,1.2-2,2c-0.4,0.9-0.3,1.9,0.3,3.1
		s1.5,2.1,2.9,2.7c1.4,0.6,2.7,0.7,3.9,0.3C1092.8,86.4,1093.6,85.7,1094,84.9z"/>
	<path d="M1117.6,94.6l-13.8-4c0.1,1,0.5,1.9,1.2,2.7c0.7,0.8,1.9,1.4,3.4,1.9c1.2,0.4,3,0.6,5.2,0.7c0.9,0,1.5,0.1,1.9,0.2
		c0.4,0.1,0.8,0.4,1,0.8c0.2,0.4,0.2,0.9,0.1,1.3c-0.1,0.4-0.4,0.8-0.8,1c-0.6,0.3-1.7,0.4-3.5,0.2s-3.5-0.4-5-0.9
		c-2.7-0.8-4.6-2.2-5.8-4.2c-1.2-2-1.4-4.1-0.8-6.3c0.7-2.4,2.1-4,4.3-5s4.4-1.1,6.7-0.5c1.4,0.4,2.6,1,3.6,1.8
		c1,0.8,1.7,1.6,2.1,2.3c0.6,1,0.9,2.2,1.1,3.6c0.1,0.9,0,1.9-0.3,3L1117.6,94.6L1117.6,94.6z M1114.9,90.1c-0.2-1.1-0.7-2-1.4-2.7
		c-0.7-0.7-1.6-1.2-2.8-1.6c-1.1-0.3-2.2-0.4-3.2-0.2c-1,0.2-1.9,0.8-2.7,1.6L1114.9,90.1L1114.9,90.1z"/>
</g>
</svg>
