<?xml version="1.0" encoding="UTF-8"?><svg id="Layer_1" xmlns="http://www.w3.org/2000/svg" width="1347.4716" height="131.7964" viewBox="0 0 1347.4716 131.7964"><defs><style>.cls-1{fill:none;stroke:#000;stroke-linecap:round;stroke-linejoin:round;stroke-width:5px;}</style></defs><g><path class="cls-1" d="M636.794,57.0063c-4.6666-3-9.3334-6-14-9l-27.9231,.1538v18.8462h-9.0769l9.0769,50.5993h82.9231V56.8599c-13.6666,.0488-27.3334,.0976-41,.1464Z"/><polyline class="cls-1" points="677.8709 117.6056 668.794 67.0063 594.8709 67.0063"/></g><g><path d="M35.2783,76.7729l2.6406,3.5312,1.0127-.7573c.6748-.5049,1.2539-.7349,1.7354-.6895,.4824,.0449,.8799,.2778,1.1934,.6973,.3076,.4106,.4141,.8535,.3213,1.3281-.0928,.4751-.4766,.9653-1.1523,1.4697l-4.2559,3.1831c-.6758,.5049-1.2539,.7349-1.7363,.6895-.4814-.0449-.8799-.2773-1.1934-.6973-.3066-.4106-.4121-.855-.3145-1.3335,.0977-.478,.4795-.9663,1.1455-1.4644l.4385-.3276-8.208-10.9771-.4375,.3276c-.6758,.5049-1.2539,.7349-1.7363,.6895-.4814-.0449-.8799-.2773-1.1934-.6973-.3135-.4194-.4238-.8667-.3311-1.3418s.4766-.9648,1.1523-1.4697l6.3604-4.7349c1.9805-1.4805,3.8818-2.1382,5.7061-1.9727,1.8232,.166,3.2607,.9512,4.3115,2.3564,.6553,.8755,.9951,1.8628,1.0195,2.9614,.0244,1.0981-.2705,2.311-.8857,3.6387,.9824,.0767,2.1143,.2686,3.3975,.5757,.8076,.2065,1.9814,.5957,3.5186,1.1675,.7119-.5322,1.2363-.8105,1.5732-.8354,.6221-.0239,1.124,.2192,1.5059,.7305,.3076,.4106,.417,.8516,.3281,1.3232-.0879,.4717-.4697,.9595-1.1455,1.4644l-1.6006,1.1973c-4.8994-1.8135-8.3633-2.5171-10.3916-2.1099l-2.7783,2.0771Zm-2.0977-2.8057l2.1895-1.6372c.8125-.6074,1.4453-1.2729,1.9004-1.9971,.6113-.9697,.9297-1.748,.9531-2.3345,.0234-.5869-.0977-1.0581-.3633-1.4141-.3955-.5293-1.0459-.8081-1.9492-.8369-.9033-.0283-1.8975,.3633-2.9834,1.1748l-3.2168,2.4053,3.4697,4.6396Z"/><path d="M58.2412,51.438l6.626,10.0215c.6182-.4082,1.165-.5718,1.6416-.4912,.4775,.0811,.8574,.335,1.1396,.7627,.2832,.4277,.3643,.876,.2441,1.3447s-.5322,.9355-1.2354,1.4009l-2.7803,1.8379-.4424-.6699c-.5859,.9331-1.1953,1.7461-1.8301,2.4385-.6348,.6929-1.2939,1.2656-1.9785,1.7178-.96,.6348-1.9248,.9824-2.8945,1.0439-.9707,.061-1.8965-.1299-2.7754-.5728-.6348-.3184-1.2061-.8623-1.7148-1.6323l-4.1562-6.2866-.499,.3301c-.7041,.4648-1.2939,.6611-1.7725,.5879-.4785-.0728-.8623-.3276-1.1514-.7651-.2832-.4277-.3643-.876-.2441-1.3447s.5322-.9355,1.2354-1.4004l3.4219-2.2622,5.749,8.6958c.4082,.6182,.8584,.9727,1.3496,1.0645,.4912,.0923,1.0449-.0659,1.6631-.4746,.5889-.3896,1.1465-.9253,1.6719-1.6074s1.0859-1.6572,1.6816-2.9253l-3.9395-5.959-1.0547,.6978c-.7031,.4648-1.2939,.6606-1.7725,.5879s-.8623-.3276-1.1514-.7651c-.2832-.4277-.3643-.876-.2441-1.3447s.5322-.9355,1.2354-1.4004l3.9775-2.6299Z"/><path d="M76.6006,45.3975c-.6699-.0249-1.3203,.04-1.9521,.1963s-1.2451,.4028-1.8398,.7407c-1.1787,.6704-2.0049,1.3955-2.4785,2.1758-.2109,.3433-.2607,.6133-.1484,.8115,.1299,.228,.4648,.3325,1.0049,.314,.4062-.0215,1.2021-.271,2.3857-.7471,2.1787-.8716,3.7422-1.3936,4.6924-1.5669,1.249-.2246,2.3604-.1357,3.3359,.2661,.9756,.4023,1.6914,1.0044,2.1475,1.8066,.6201,1.0898,.6572,2.2739,.1133,3.5527-.7744,1.8428-2.2607,3.3887-4.46,4.6387-.8818,.5015-1.7402,.8877-2.5752,1.1592s-1.6484,.436-2.4414,.4937c-.0752,.2134-.1777,.4028-.3066,.5674-.1289,.1655-.2822,.2983-.4609,.3999-.4756,.27-.9434,.3296-1.4023,.1777-.46-.1514-.8975-.5933-1.3145-1.3267l-.583-1.0249c-.417-.7329-.5723-1.3359-.4678-1.8081,.1055-.4727,.3857-.8384,.8408-1.0972,.3662-.2085,.7314-.2812,1.0947-.2192,.3623,.0625,.7539,.3018,1.1748,.7183,.6904,.1313,1.4209,.1128,2.1895-.0557,.7695-.1685,1.5791-.4951,2.4316-.9795,1.3965-.7935,2.3574-1.6279,2.8818-2.5029,.2432-.4263,.2969-.7583,.1611-.9961-.2246-.396-.6729-.5737-1.3447-.5332-.6709,.0415-1.8799,.4399-3.625,1.1963-2.5928,1.1333-4.5088,1.5669-5.748,1.3013-1.2324-.2554-2.1504-.9131-2.7529-1.9731-.6191-1.0894-.6738-2.2578-.1641-3.5044,.6855-1.6997,2.0381-3.124,4.0586-4.2729,.7031-.3994,1.417-.7168,2.1416-.9521,.7246-.2349,1.4639-.3828,2.2148-.4434,.1094-.2456,.2266-.4497,.3506-.6118s.2549-.2827,.3936-.3618c.416-.2363,.8516-.2773,1.3066-.123,.4541,.1543,.8906,.5981,1.3066,1.3311l.4229,.7427c.377,.6636,.5537,1.1597,.5303,1.4873-.0576,.6357-.3594,1.1084-.9043,1.418-.3662,.2085-.7529,.2778-1.1592,.2075-.4072-.0703-.7568-.271-1.0508-.6025Z"/><path d="M96.6318,35.3413c-.666-.0776-1.3203-.064-1.9619,.042-.6426,.106-1.2734,.3042-1.8926,.5942-1.2275,.5757-2.1084,1.2334-2.6416,1.9741-.2373,.3257-.3076,.5913-.2109,.7979,.1113,.2373,.4365,.3677,.9756,.3916,.4082,.0103,1.2207-.1758,2.4385-.5576,2.2393-.6973,3.8398-1.0952,4.8008-1.1934,1.2617-.126,2.3633,.0498,3.3047,.5273,.9404,.4775,1.6074,1.1338,1.999,1.9697,.5312,1.1348,.4756,2.3184-.167,3.5508-.916,1.7759-2.5195,3.2007-4.8096,4.2739-.9189,.4307-1.8047,.748-2.6582,.9531-.8545,.2051-1.6787,.3057-2.4736,.3008-.0918,.2065-.208,.3872-.3496,.5415-.1416,.1548-.3057,.2749-.4912,.3623-.4951,.2319-.9658,.2544-1.4121,.0674-.4463-.1875-.8486-.6626-1.2061-1.4258l-.501-1.0679c-.3574-.7632-.4658-1.3765-.3242-1.8394s.4502-.8052,.9248-1.0278c.3818-.1787,.751-.2227,1.1084-.1323,.3564,.0908,.7285,.3599,1.1143,.8081,.6787,.1855,1.4082,.2241,2.1875,.1167,.7803-.1079,1.6133-.3696,2.501-.7852,1.4541-.6821,2.4775-1.4385,3.0693-2.2695,.2754-.4058,.3555-.7324,.2393-.98-.1934-.4126-.626-.625-1.2988-.6372-.6729-.0117-1.9082,.291-3.708,.9077-2.6738,.9263-4.6182,1.2085-5.832,.8462-1.209-.3516-2.0723-1.0796-2.5898-2.1836-.5312-1.1348-.4941-2.3037,.1123-3.5063,.8164-1.6406,2.2764-2.9546,4.3809-3.9409,.7324-.3433,1.4688-.6035,2.21-.7812,.7412-.1772,1.4893-.2666,2.2432-.2681,.1279-.2358,.2607-.4302,.3975-.5825,.1357-.1519,.2764-.2617,.4209-.3291,.4336-.2031,.8701-.21,1.3115-.0205s.8408,.666,1.1982,1.4297l.3633,.7734c.3242,.6914,.4609,1.1992,.4121,1.5244-.1074,.6294-.4453,1.0767-1.0127,1.3428-.3818,.1787-.7725,.2178-1.1729,.1157-.3994-.1021-.7324-.3296-.999-.6831Z"/><path d="M114.1904,23.8838l4.082,11.2988,3.9541-1.4282c.793-.2866,1.4131-.3384,1.8613-.1548s.7607,.522,.9395,1.0146c.1738,.4819,.1475,.937-.0801,1.3643-.2266,.4272-.7373,.7842-1.5303,1.0708l-11.2021,4.0474c-.7939,.2866-1.4141,.3384-1.8613,.1548-.4482-.1836-.7607-.5215-.9395-1.0146-.1738-.4819-.1475-.937,.0801-1.3643,.2266-.4272,.7363-.7842,1.5303-1.0708l3.9531-1.4282-2.8916-8.0044-2.6523,.958c-.7822,.2827-1.3994,.333-1.8525,.1519-.4541-.1816-.7695-.5186-.9473-1.0117-.1738-.4824-.1475-.937,.0791-1.3643,.2275-.4272,.7373-.7842,1.5303-1.0708l5.9473-2.1484Zm-2.709-6.0898l1.2598,3.4878-3.9219,1.417-1.2598-3.4878,3.9219-1.417Z"/><path d="M141.3271,32.1079l-.1953-.7969c-.7402,.6631-1.5977,1.2339-2.5713,1.7134-.9727,.479-1.8799,.8223-2.7207,1.0288-1.8262,.4482-3.4277,.3276-4.8047-.3604-1.377-.6885-2.21-1.6191-2.498-2.792-.3506-1.4277,.0518-2.9312,1.207-4.5107,1.1543-1.5796,3.0156-2.6851,5.583-3.3149,1.0293-.2524,2.2451-.4336,3.6494-.5439l-.1992-.8135c-.125-.5088-.4453-.8701-.9609-1.0835-.5166-.2139-1.3877-.1699-2.6162,.1313-1.0068,.2476-2.2637,.7671-3.7705,1.5591-.5615,.2905-1.0088,.4766-1.3408,.5581-.4541,.1113-.8779,.0425-1.2734-.2065s-.6562-.6279-.7812-1.1372c-.0703-.2876-.0762-.5498-.0176-.7876,.0596-.2368,.1729-.4438,.3408-.6201,.168-.1758,.5459-.4302,1.1328-.7617,.7842-.439,1.5957-.8345,2.4365-1.1875,.8398-.353,1.6143-.6162,2.3223-.79,2.1133-.519,3.8652-.4648,5.2568,.1611,1.3916,.6265,2.2812,1.731,2.6699,3.313l1.7188,7.0039,.5811-.1426c.8193-.2007,1.4414-.1865,1.8672,.0435,.4258,.2295,.7012,.5991,.8262,1.1079,.1221,.498,.0479,.9473-.2236,1.3481-.2705,.4009-.8154,.7021-1.6348,.9028l-3.9834,.978Zm-1.4951-6.0913c-1.4258,.0684-2.7139,.2441-3.8652,.5264-1.3828,.3398-2.4893,.9692-3.3193,1.8882-.5137,.584-.7168,1.0972-.6074,1.5396,.0781,.3208,.292,.5444,.6396,.6699,.6426,.2295,1.4453,.2261,2.4082-.0103,.8184-.2012,1.7051-.5889,2.6611-1.1636s1.7695-1.2378,2.4424-1.9897l-.3594-1.4604Z"/><path d="M153.792,14.0376l.1416,1.1709c.5674-.6196,1.2168-1.1113,1.9473-1.4751s1.543-.5996,2.4365-.708c2.0586-.249,3.7646,.1934,5.1182,1.3262,1.0732,.9028,1.71,2.1802,1.9092,3.8315l.7822,6.4644c.7354-.0889,1.2969,.0063,1.6875,.2861,.3887,.2803,.6152,.6807,.6787,1.2007,.0615,.5088-.0664,.9463-.3838,1.3115s-.8945,.5986-1.7314,.7002l-3.1387,.3794c-.8369,.1016-1.4531,.0122-1.8486-.2666-.3955-.2793-.624-.6792-.6875-1.1997-.0615-.5088,.0635-.9458,.375-1.3105s.835-.5913,1.5703-.6807l-.7939-6.5659c-.0918-.7573-.3623-1.2871-.8115-1.5884-.5869-.3882-1.4121-.5181-2.4746-.3896-.8037,.0972-1.4883,.3379-2.0557,.7222-.5684,.3843-1.2549,1.1362-2.0605,2.2549l.7822,6.4639c.8936-.1079,1.4805-.0928,1.7617,.0454,.5947,.272,.9326,.7363,1.0117,1.3921,.0615,.5093-.0664,.9463-.3838,1.312-.3174,.3652-.8945,.5986-1.7314,.6997l-3.9531,.4785c-.8369,.1011-1.4531,.0122-1.8486-.2671-.3945-.2793-.624-.6792-.6865-1.1992-.0771-.6333,.1348-1.1582,.6357-1.5747,.251-.2026,.8223-.3579,1.7168-.4658l-1.0225-8.4492c-.7354,.0889-1.2979-.0093-1.6885-.2949s-.6162-.6831-.6777-1.1919,.0664-.9463,.3838-1.3115c.3174-.3657,.8945-.5991,1.7314-.7002l3.3086-.4004Z"/><path d="M209.8457,10.813c.2588-.2593,.5264-.4429,.8027-.5498,.2754-.1069,.5596-.1382,.8525-.0928,.5068,.0786,.8936,.3174,1.1602,.7158,.2676,.3989,.3359,1.0151,.207,1.8481l-.4561,2.9385c-.1289,.8335-.3818,1.4023-.7568,1.707-.376,.3052-.8174,.418-1.3242,.3394-.4619-.0713-.8135-.2583-1.0547-.561-.2412-.3022-.374-.8188-.3994-1.5493-.0059-.4849-.1064-.875-.3027-1.1709-.3828-.5781-.9648-1.0835-1.7451-1.5156-.7803-.4326-1.5869-.7129-2.4199-.8423-1.0361-.1606-2.0225-.0825-2.959,.2329-.9375,.3159-1.8164,.9292-2.6377,1.8394-.8213,.9106-1.3398,2.064-1.5566,3.46l-.3477,2.2461c-.2588,1.666,.1309,3.1504,1.1689,4.4526,1.0371,1.3022,2.6309,2.1201,4.7812,2.4536,1.2842,.1987,2.3975,.1929,3.3408-.0186,.5488-.1221,1.1631-.436,1.8408-.9424,.416-.3042,.7334-.4941,.9531-.5698,.2188-.0757,.458-.0933,.7178-.0532,.4609,.0718,.8389,.3091,1.1348,.7119,.2939,.4033,.4053,.8413,.332,1.314-.0732,.4731-.3887,.9429-.9453,1.4102-.8086,.6816-1.7881,1.1641-2.9395,1.4468-1.5459,.3828-3.1982,.438-4.9541,.1655-2.0498-.3174-3.8301-1.0259-5.3428-2.125-1.2246-.8818-2.1904-2.1235-2.8984-3.7266-.709-1.603-.9297-3.2656-.6621-4.9883l.3643-2.3477c.2783-1.8013,.959-3.4165,2.0391-4.8457,1.0801-1.4297,2.4297-2.4512,4.0469-3.0654,1.6172-.6138,3.2578-.7915,4.9248-.5332,1.002,.1553,1.9209,.416,2.7578,.7822,.8369,.3657,1.5957,.8438,2.2773,1.4336Z"/><path d="M232.8691,29.855c-.4004,1.2837-1.1436,2.4155-2.2305,3.3955-1.0869,.9805-2.4453,1.6074-4.0762,1.8809s-3.2129,.1719-4.7461-.3062c-1.5234-.4741-2.8721-1.2788-4.0459-2.4141-1.1738-1.1357-1.9365-2.4204-2.2891-3.855-.3535-1.4346-.3242-2.8096,.0859-4.126,.416-1.3379,1.1953-2.5361,2.3369-3.5947,1.1406-1.0586,2.5195-1.7417,4.1377-2.0493,1.6172-.3076,3.1816-.2261,4.6934,.2446,1.5234,.4746,2.8711,1.3091,4.0439,2.5039,1.1738,1.1948,1.9199,2.543,2.2402,4.0444,.3193,1.502,.2695,2.9272-.1504,4.2759Zm-3.3506-1.0254c.3359-1.0767,.2578-2.187-.2334-3.3306-.6758-1.5469-1.873-2.5879-3.5918-3.123-1.5117-.4712-2.9238-.3799-4.2373,.2729-1.3135,.6533-2.168,1.6157-2.5645,2.8887-.3252,1.0439-.1182,2.1797,.6211,3.4062,.7402,1.2271,1.8545,2.0723,3.3447,2.5366,1.502,.4678,2.9043,.4062,4.21-.1836,1.3057-.5894,2.123-1.4121,2.4512-2.4673Z"/><path d="M245.1104,26.5288l-.5098,1.063c.8115-.2168,1.623-.2822,2.4346-.1958,.8125,.0864,1.623,.3242,2.4346,.7139,1.8691,.8975,3.0703,2.188,3.6016,3.8711,.4189,1.3389,.2686,2.7578-.4512,4.2573l-2.8184,5.8696c.667,.3203,1.0898,.7036,1.2676,1.1494,.1777,.4453,.1533,.9048-.0732,1.377-.2217,.4619-.5645,.7617-1.0293,.8994-.4639,.1372-1.0762,.0234-1.8359-.3413l-2.8496-1.3687c-.7607-.3647-1.2324-.7715-1.415-1.2192-.1826-.4482-.1611-.9082,.0654-1.3809,.2227-.4624,.5625-.7632,1.0215-.9033,.459-.1396,1.0225-.0493,1.6904,.2715l2.8623-5.9624c.3301-.688,.3867-1.2803,.1699-1.7759-.2852-.6426-.9111-1.1958-1.876-1.6592-.7295-.3506-1.4365-.5161-2.1221-.4976-.6846,.019-1.668,.2827-2.9492,.7925l-2.8174,5.8696c.8105,.3896,1.2979,.7183,1.46,.9858,.3555,.5498,.3896,1.1226,.1045,1.7183-.2227,.4619-.5654,.7617-1.0293,.8994-.4639,.1372-1.0762,.0234-1.8359-.3413l-3.5898-1.7236c-.7607-.3652-1.2314-.7715-1.415-1.2192-.1826-.4482-.1611-.9082,.0664-1.3809,.2754-.5752,.7373-.9038,1.3828-.9854,.3203-.0356,.8867,.1411,1.6973,.5308l3.6846-7.6724c-.668-.3203-1.0898-.7061-1.2646-1.1567-.1758-.4507-.1523-.9072,.0693-1.3696,.2217-.4619,.5654-.7617,1.0293-.8989,.4639-.1377,1.0762-.0239,1.8359,.3413l3.0039,1.4424Z"/><path d="M269.4912,44.5776c-.3027-.5981-.6758-1.1357-1.1182-1.6123-.4434-.4771-.957-.8936-1.541-1.249-1.1572-.7061-2.1924-1.0762-3.1045-1.1118-.4023-.0186-.6631,.0698-.7812,.2642-.1367,.2236-.0654,.5674,.2129,1.0303,.2158,.3452,.8193,.9199,1.8105,1.7241,1.8184,1.4819,3.0342,2.5962,3.6465,3.3433,.8018,.9824,1.2637,1.998,1.3857,3.0459,.1221,1.0483-.0576,1.9663-.5381,2.7544-.6523,1.0703-1.6689,1.6777-3.0518,1.8223-1.9863,.2168-4.0596-.333-6.2197-1.6489-.8662-.5278-1.6201-1.0913-2.2627-1.6895-.6426-.5986-1.1816-1.2305-1.6162-1.896-.2236,.0381-.4385,.0405-.6455,.0073-.207-.0327-.3975-.1021-.5723-.209-.4678-.2847-.7461-.6646-.8369-1.1401-.0898-.4756,.084-1.0728,.5225-1.793l.6143-1.0068c.4385-.7197,.8896-1.1489,1.3535-1.2861,.4648-.1377,.9199-.0698,1.3682,.2026,.3594,.2192,.6006,.5034,.7217,.8506,.1221,.3477,.1025,.8066-.0576,1.376,.2197,.668,.5908,1.2974,1.1113,1.8877,.5205,.5908,1.1982,1.1411,2.0352,1.6509,1.3721,.8364,2.5674,1.2715,3.5879,1.3057,.4902,.0059,.8066-.1084,.9492-.3418,.2363-.3892,.1748-.8672-.1865-1.4346-.3623-.5674-1.2969-1.4307-2.8047-2.5898-2.249-1.7178-3.5576-3.1821-3.9268-4.3945-.375-1.2021-.2451-2.3237,.3896-3.3647,.6523-1.0703,1.6475-1.6846,2.9854-1.8438,1.8184-.2256,3.7197,.2661,5.7051,1.4756,.6904,.4214,1.3145,.8916,1.8711,1.4111,.5576,.5195,1.0449,1.0938,1.4629,1.7217,.2676-.0234,.5029-.02,.7051,.0093,.2012,.0303,.3711,.0864,.5068,.1694,.4092,.249,.6562,.6099,.7412,1.082,.0859,.4727-.0908,1.0688-.5293,1.7886l-.4443,.73c-.3975,.6519-.7451,1.0469-1.043,1.1855-.585,.2578-1.1445,.2236-1.6787-.1025-.3604-.2192-.6084-.5239-.7441-.9136-.1367-.3896-.1309-.7935,.0166-1.2104Z"/><path d="M284.5059,53.5176l-3.8184,5.8955c-.4082,.6309-.5488,1.1309-.4209,1.4985,.1973,.5757,.8125,1.1982,1.8447,1.8672,1.502,.9722,3.0957,1.5498,4.7822,1.7329,.6494,.0674,1.1123,.1904,1.3896,.3701,.3818,.2476,.6221,.6064,.7178,1.0762,.0967,.4692,.0117,.9102-.2549,1.3213-.248,.3823-.6143,.6133-1.0996,.6924-.7598,.146-1.9531-.0396-3.5791-.5571-1.627-.5171-2.9131-1.082-3.8604-1.6953-1.8262-1.1831-2.9404-2.4648-3.3428-3.8452s-.2324-2.644,.5107-3.792l4.1904-6.4692-1.0615-.687c-.708-.4585-1.124-.9214-1.249-1.3892-.124-.4678-.0439-.9214,.2402-1.3613,.2793-.4302,.6572-.6841,1.1348-.7617,.4785-.0771,1.0703,.1128,1.7783,.5713l1.0615,.6875,1.7188-2.6538c.458-.7075,.9209-1.1235,1.3887-1.2485,.4678-.1245,.9219-.0444,1.3613,.2407,.4307,.2783,.6846,.6567,.7617,1.1343,.0771,.478-.1133,1.0708-.5713,1.7783l-1.7188,2.6538,5.4365,3.521c.708,.458,1.124,.9209,1.249,1.3887,.124,.4678,.0439,.9214-.2402,1.3613-.2793,.4302-.6572,.6841-1.1348,.7617-.4785,.0771-1.0713-.1133-1.7783-.5713l-5.4365-3.521Z"/><path d="M304.9004,62.1621l-1.1084,1.8862c1.8047-.1694,3.1611-.1914,4.0723-.0664s1.6855,.375,2.3242,.75c.9824,.5771,1.7217,1.5,2.2188,2.7695,.3398,.8604,.3604,1.5464,.0605,2.0571-.2539,.4321-.6182,.71-1.0938,.834-.4766,.1235-.9248,.0615-1.3477-.1865-.373-.2192-.6562-.6367-.8496-1.2524-.1943-.6157-.4521-1.0186-.7764-1.209-.4229-.248-1.21-.3535-2.3613-.3159-1.1514,.0371-2.668,.2168-4.5488,.5396l-2.6738,4.5542,4.3037,2.5264c.7266,.4272,1.1631,.8716,1.3086,1.333,.1445,.4619,.084,.9189-.1807,1.3706-.2598,.4419-.627,.7124-1.1006,.8105s-1.0742-.0659-1.8008-.4927l-9.123-5.3564c-.7266-.4272-1.1631-.8711-1.3076-1.333-.1455-.4619-.085-.9185,.1797-1.3706,.2598-.4419,.627-.7124,1.1006-.8105s1.0742,.0659,1.8018,.4932l1.7979,1.0557,4.3096-7.3394-1.0908-.6401c-.7275-.4272-1.1631-.8716-1.3086-1.333-.1445-.4619-.085-.9185,.1807-1.3706,.2598-.4419,.626-.7124,1.1006-.8105,.4736-.0981,1.0742,.0659,1.8008,.4927l4.1123,2.4146Z"/><path d="M331.5566,75.8652l-5.0693,10.8921c.6709,.3125,1.0967,.6929,1.2773,1.1416s.1631,.9053-.0527,1.3701c-.2168,.4648-.5557,.7686-1.0186,.9116-.4619,.1426-1.0762,.0361-1.8398-.3193l-3.0215-1.4067,.3389-.728c-1.1016-.0098-2.1133-.104-3.0352-.2822-.9229-.1782-1.7559-.4399-2.499-.7861-1.0439-.4858-1.8457-1.126-2.4053-1.9209-.5605-.7944-.8818-1.6826-.9648-2.6641-.0615-.707,.1035-1.4785,.4932-2.3154l3.1807-6.8325-.543-.2524c-.7637-.356-1.2402-.7563-1.4287-1.2021s-.1719-.9062,.0498-1.3818c.2158-.4648,.5557-.7686,1.0176-.9116,.4629-.1426,1.0762-.0361,1.8398,.3193l3.7188,1.731-4.3994,9.4512c-.3125,.6714-.3799,1.2402-.2012,1.707,.1787,.4663,.6045,.856,1.2754,1.1685,.6406,.2979,1.3887,.4927,2.2451,.583,.8564,.0908,1.9805,.0581,3.373-.0981l3.0146-6.4761-1.1465-.5337c-.7646-.356-1.2402-.7568-1.4287-1.2026s-.1719-.9062,.0488-1.3813c.2168-.4648,.5557-.7686,1.0186-.9116,.4619-.1431,1.0752-.0366,1.8398,.3193l4.3223,2.0122Z"/><path d="M350.0088,83.1006c.5264-.2451,1-.2974,1.4219-.1572,.4746,.1587,.8105,.4595,1.0049,.9023,.1943,.4434,.1602,1.0596-.1025,1.8486l-.7129,2.1401c-.2666,.7998-.6094,1.3159-1.0293,1.5483s-.8789,.2656-1.376,.1001c-.4531-.1514-.7939-.4087-1.0215-.7725-.1621-.2705-.208-.7271-.1377-1.3701s-.0947-1.1934-.4941-1.6509c-.7031-.8105-1.7354-1.4429-3.0977-1.8965-1.5674-.5225-2.9766-.4814-4.2285,.1221s-2.1123,1.6084-2.5801,3.0132c-.4326,1.2969-.3193,2.4727,.3379,3.5264,.6582,1.0537,2.041,1.9316,4.1484,2.6338,1.3838,.4609,2.5596,.6973,3.5293,.7075,.5762,0,1.166-.1304,1.7695-.3921,.6035-.2612,1.0938-.3286,1.4727-.2026,.4541,.1514,.79,.4492,1.0078,.894,.2178,.4453,.252,.8945,.1006,1.3486-.2451,.7349-.9805,1.2646-2.2051,1.5889-1.8193,.4868-4.167,.251-7.042-.707-2.583-.8608-4.415-2.0654-5.4961-3.6147-1.4668-2.0854-1.7842-4.377-.9521-6.874,.7891-2.3672,2.2305-4.0635,4.3252-5.0884,2.0947-1.0254,4.4121-1.1152,6.9531-.2686,.918,.3062,1.7432,.6772,2.4746,1.1128,.7314,.436,1.375,.9385,1.9297,1.5078Z"/><path d="M364.4971,89.7437l-1.4629,6.8701c-.1562,.7354-.1084,1.252,.1426,1.5503,.3896,.4673,1.1865,.8291,2.3896,1.085,1.749,.3726,3.4443,.3433,5.0859-.0884,.6299-.1685,1.1064-.2188,1.4297-.1499,.4453,.0947,.7969,.3442,1.0547,.7485s.3359,.8462,.2334,1.3252c-.0947,.4458-.3545,.7925-.7803,1.0396-.6572,.4077-1.8379,.6602-3.542,.7578-1.7041,.0972-3.1074,.0288-4.2109-.2061-2.1279-.4531-3.627-1.2524-4.4951-2.3979-.8691-1.146-1.1611-2.3877-.876-3.7246l1.6045-7.5391-1.2373-.2632c-.8252-.1753-1.3789-.4595-1.6621-.8516s-.3711-.8447-.2617-1.3574c.1064-.5015,.3691-.8735,.7881-1.1167,.4189-.2427,1.04-.2764,1.8652-.1011l1.2363,.2632,.6582-3.0923c.1758-.8242,.46-1.3784,.8516-1.6621,.3926-.2832,.8447-.3706,1.3574-.2612,.502,.1064,.874,.3691,1.1172,.7876,.2422,.4189,.2764,1.0405,.1006,1.8652l-.6582,3.0923,6.3359,1.3481c.8242,.1753,1.3779,.4595,1.6621,.8516,.2832,.3926,.3701,.8452,.2607,1.3574-.1064,.5015-.3691,.8735-.7881,1.1167-.418,.2427-1.04,.2764-1.8643,.1011l-6.335-1.3481Z"/><path d="M389.3164,90.0332l-1.2129,11.9526,4.1826,.4243c.8389,.0854,1.4209,.3076,1.7451,.6665,.3242,.3594,.46,.7998,.4062,1.3213-.0518,.5103-.2725,.9087-.6621,1.1953s-1.0039,.3877-1.8428,.3027l-11.8506-1.2031c-.8389-.085-1.4209-.3071-1.7451-.6665s-.46-.7993-.4062-1.3208c.0518-.5103,.2725-.9087,.6621-1.1953,.3896-.2871,1.0039-.3877,1.8428-.3027l4.1826,.4243,.8594-8.4668-2.8057-.2852c-.8271-.084-1.4062-.3057-1.7363-.6655s-.4678-.8003-.415-1.3218c.0518-.5103,.2725-.9087,.6621-1.1953,.3896-.2871,1.0039-.3877,1.8428-.3027l6.291,.6387Zm.1953-6.6626l-.374,3.6895-4.1484-.4209,.374-3.6895,4.1484,.4209Z"/><path d="M409.3975,102.208l3.7793-7.7578c-.9346-.0005-1.5322-.0801-1.7949-.2397-.5693-.353-.8535-.8604-.8535-1.5215,0-.5127,.1797-.9312,.5381-1.2559,.3594-.3247,.96-.4868,1.8037-.4863l4.8018,.001c.8428,.0005,1.4443,.1626,1.8027,.4878,.3594,.3247,.5381,.7495,.5381,1.2729,0,.5127-.1797,.9316-.5381,1.2563-.3594,.3242-.9609,.4868-1.8037,.4863h-.5811l-5.8652,12.0127-3.6572-.001-5.8584-12.0156-.4951-.0005c-.8438,0-1.4443-.1626-1.8027-.4873-.3594-.3247-.5381-.749-.5381-1.2734,0-.5127,.1797-.9312,.5381-1.2559,.3594-.3247,.96-.4868,1.8037-.4868l4.6992,.0015c.832,0,1.4268,.1626,1.7861,.4873,.3584,.3247,.5381,.7495,.5381,1.2734,0,.6494-.2744,1.145-.8213,1.4868-.2734,.1704-.8828,.2559-1.8281,.2559l3.8086,7.7598Z"/><path d="M432.8955,89.7842l1.0889,11.9648,4.1865-.3809c.8398-.0762,1.4531,.0308,1.8398,.3218s.6035,.6973,.6514,1.2192c.0459,.5107-.0947,.9438-.4229,1.2998s-.9111,.5718-1.751,.6484l-11.8633,1.0786c-.8398,.0762-1.4521-.0308-1.8389-.3218s-.6045-.6973-.6514-1.2192c-.0469-.5107,.0938-.9438,.4219-1.2998s.9121-.5718,1.752-.6484l4.1865-.3804-.7705-8.4761-2.8086,.2554c-.8281,.0757-1.4385-.0322-1.8311-.3223-.3926-.2905-.6123-.6963-.6602-1.2188-.0469-.5103,.0947-.9438,.4219-1.2993,.3281-.356,.9121-.5723,1.752-.6484l6.2969-.5728Zm-1.0781-6.5771l.3359,3.6929-4.1533,.3779-.3359-3.6934,4.1533-.3774Z"/><path d="M457.2236,90.4697c-.6211-.251-1.2559-.4097-1.9033-.4775-.6475-.0669-1.3086-.0425-1.9814,.0742-1.3359,.231-2.3594,.6338-3.0693,1.2075-.3154,.251-.4531,.4888-.4141,.7134,.0449,.2583,.3242,.4697,.8379,.6353,.3906,.1177,1.2236,.1528,2.499,.1055,2.3438-.0815,3.9922-.043,4.9453,.1157,1.251,.2114,2.2666,.6719,3.0488,1.3804,.7812,.709,1.251,1.5181,1.4082,2.4272,.2139,1.2354-.1523,2.3623-1.0977,3.3813-1.3525,1.4712-3.2754,2.4224-5.7676,2.8535-.999,.1729-1.9375,.2451-2.8154,.2178s-1.6992-.1479-2.4648-.3628c-.1426,.1753-.3027,.3188-.4805,.4302-.1777,.1118-.3672,.1851-.5693,.2197-.5381,.0933-.998-.0093-1.3799-.3076-.3809-.2983-.6436-.8623-.7871-1.6934l-.2012-1.1621c-.1436-.8306-.0859-1.4507,.1729-1.8594,.2588-.4092,.6465-.6582,1.1631-.7476,.415-.0718,.7832-.0171,1.1035,.1646s.6074,.5396,.8623,1.0737c.6055,.3579,1.2979,.5879,2.0791,.6895,.7803,.1021,1.6533,.0693,2.6191-.0977,1.583-.2734,2.7695-.7329,3.5596-1.3789,.373-.3184,.5361-.6128,.4893-.8823-.0771-.4487-.4395-.7676-1.085-.957-.6455-.189-1.917-.2231-3.8154-.103-2.8242,.188-4.7734-.0527-5.8486-.7227-1.0742-.6582-1.7139-1.5879-1.9219-2.7896-.2139-1.2344,.1309-2.3521,1.0332-3.3525,1.2197-1.3672,2.9756-2.249,5.2656-2.645,.7969-.1377,1.5762-.1948,2.3379-.1704,.7607,.0244,1.5059,.1357,2.2344,.3335,.1855-.1943,.3643-.3467,.5361-.457,.1719-.1108,.3359-.1797,.4932-.207,.4717-.0815,.8955,.0273,1.2705,.3267,.376,.2993,.6357,.8643,.7793,1.6948l.1455,.8423c.1299,.7524,.1289,1.2783-.0039,1.5791-.2705,.5786-.7139,.9209-1.3311,1.0278-.416,.0718-.8027,.0063-1.1621-.1978s-.6201-.5112-.7842-.9224Z"/><path d="M468.9482,83.8628l.2373,.9619c.4189-.6782,.8281-1.1753,1.2246-1.4907,.3975-.3154,.8896-.5454,1.4756-.6904,.498-.123,1.0205-.1226,1.5674,0,.5459,.123,1.1123,.3706,1.6973,.7422,.4658-.6313,.9707-1.1401,1.5146-1.5273,.5439-.3867,1.1309-.6582,1.7617-.814,1.2607-.3115,2.3672-.2271,3.3193,.2534,1.2578,.6279,2.0654,1.6611,2.4209,3.0986l1.8818,7.6152c.708-.1753,1.2734-.1445,1.6953,.0913,.4219,.2363,.6943,.603,.8174,1.1006,.123,.498,.0518,.9468-.2129,1.3467s-.8066,.7012-1.625,.9033l-3.2354,.7998-2.6533-10.7344c-.1279-.5195-.3105-.856-.5479-1.0083-.2373-.1528-.5498-.1812-.9365-.0854-.376,.0928-.7002,.2783-.9717,.5566-.3408,.3779-.71,1.0205-1.1074,1.9287l1.6934,6.8521c.708-.1753,1.2725-.1445,1.6953,.0913,.4219,.2363,.6943,.603,.8174,1.1006,.123,.498,.0518,.9468-.2129,1.3467s-.8066,.7012-1.625,.9033l-3.2354,.7998-2.6533-10.7344c-.125-.5083-.3105-.8413-.5547-.998s-.5596-.1875-.9463-.0918c-.3984,.0986-.7607,.3198-1.0859,.6646-.3262,.3447-.668,.9546-1.0264,1.8291l1.6934,6.8521c.708-.1748,1.2754-.145,1.7031,.0894,.4277,.2349,.7031,.6011,.8262,1.0986s.0488,.9473-.2217,1.3486-.8145,.7031-1.6328,.9053l-3.0693,.7588c-.8184,.2021-1.4414,.189-1.8672-.04-.4268-.2295-.7021-.5981-.8281-1.1069-.123-.4976-.0518-.9468,.2129-1.3467s.7568-.6885,1.4756-.8662l-2.042-8.2622c-.7188,.1777-1.29,.1484-1.7119-.0874-.4219-.2363-.6943-.603-.8174-1.1006-.123-.498-.0498-.9473,.2207-1.3486s.8154-.7031,1.6338-.9058l3.2354-.7993Z"/></g><g><path d="M796.75,77.2412l2.6406,3.5312,1.0127-.7573c.6748-.5049,1.2539-.7349,1.7354-.6895,.4824,.0449,.8799,.2778,1.1934,.6973,.3076,.4106,.4141,.8535,.3213,1.3281-.0928,.4751-.4766,.9653-1.1523,1.4697l-4.2559,3.1831c-.6758,.5049-1.2539,.7349-1.7363,.6895-.4814-.0449-.8799-.2773-1.1934-.6973-.3066-.4106-.4121-.855-.3145-1.3335,.0977-.478,.4795-.9663,1.1455-1.4644l.4385-.3276-8.208-10.9771-.4375,.3276c-.6758,.5049-1.2539,.7349-1.7363,.6895-.4814-.0449-.8799-.2773-1.1934-.6973-.3135-.4194-.4238-.8667-.3311-1.3418s.4766-.9648,1.1523-1.4697l6.3604-4.7349c1.9805-1.4805,3.8818-2.1382,5.7061-1.9727,1.8232,.166,3.2607,.9512,4.3115,2.3564,.6553,.8755,.9951,1.8628,1.0195,2.9614,.0244,1.0981-.2705,2.311-.8857,3.6387,.9824,.0767,2.1143,.2686,3.3975,.5757,.8076,.2065,1.9814,.5957,3.5186,1.1675,.7119-.5322,1.2363-.8105,1.5732-.8354,.6221-.0239,1.124,.2192,1.5059,.7305,.3076,.4106,.417,.8516,.3281,1.3232-.0879,.4717-.4697,.9595-1.1455,1.4644l-1.6006,1.1973c-4.8994-1.8135-8.3633-2.5171-10.3916-2.1099l-2.7783,2.0771Zm-2.0977-2.8057l2.1895-1.6372c.8125-.6074,1.4453-1.2729,1.9004-1.9971,.6113-.9697,.9297-1.748,.9531-2.3345,.0234-.5869-.0977-1.0581-.3633-1.4141-.3955-.5293-1.0459-.8081-1.9492-.8369-.9033-.0283-1.8975,.3633-2.9834,1.1748l-3.2168,2.4053,3.4697,4.6396Z"/><path d="M819.7129,51.9062l6.626,10.0215c.6182-.4082,1.165-.5718,1.6416-.4912,.4775,.0811,.8574,.335,1.1396,.7627,.2832,.4277,.3643,.876,.2441,1.3447s-.5322,.9355-1.2354,1.4009l-2.7803,1.8379-.4424-.6699c-.5859,.9331-1.1953,1.7461-1.8301,2.4385-.6348,.6929-1.2939,1.2656-1.9785,1.7178-.96,.6348-1.9248,.9824-2.8945,1.0439-.9707,.061-1.8965-.1299-2.7754-.5728-.6348-.3184-1.2061-.8623-1.7148-1.6323l-4.1562-6.2866-.499,.3301c-.7041,.4648-1.2939,.6611-1.7725,.5879-.4785-.0728-.8623-.3276-1.1514-.7651-.2832-.4277-.3643-.876-.2441-1.3447s.5322-.9355,1.2354-1.4004l3.4219-2.2622,5.749,8.6958c.4082,.6182,.8584,.9727,1.3496,1.0645,.4912,.0923,1.0449-.0659,1.6631-.4746,.5889-.3896,1.1465-.9253,1.6719-1.6074s1.0859-1.6572,1.6816-2.9253l-3.9395-5.959-1.0547,.6978c-.7031,.4648-1.2939,.6606-1.7725,.5879s-.8623-.3276-1.1514-.7651c-.2832-.4277-.3643-.876-.2441-1.3447s.5322-.9355,1.2354-1.4004l3.9775-2.6299Z"/><path d="M838.0723,45.8657c-.6699-.0249-1.3203,.04-1.9521,.1963s-1.2451,.4028-1.8398,.7407c-1.1787,.6704-2.0049,1.3955-2.4785,2.1758-.2109,.3433-.2607,.6133-.1484,.8115,.1299,.228,.4648,.3325,1.0049,.314,.4062-.0215,1.2021-.271,2.3857-.7471,2.1787-.8716,3.7422-1.3936,4.6924-1.5669,1.249-.2246,2.3604-.1357,3.3359,.2661,.9756,.4023,1.6914,1.0044,2.1475,1.8066,.6201,1.0898,.6572,2.2739,.1133,3.5527-.7744,1.8428-2.2607,3.3887-4.46,4.6387-.8818,.5015-1.7402,.8877-2.5752,1.1592s-1.6484,.436-2.4414,.4937c-.0752,.2134-.1777,.4028-.3066,.5674-.1289,.1655-.2822,.2983-.4609,.3999-.4756,.27-.9434,.3296-1.4023,.1777-.46-.1514-.8975-.5933-1.3145-1.3267l-.583-1.0249c-.417-.7329-.5723-1.3359-.4678-1.8081,.1055-.4727,.3857-.8384,.8408-1.0972,.3662-.2085,.7314-.2812,1.0947-.2192,.3623,.0625,.7539,.3018,1.1748,.7183,.6904,.1313,1.4209,.1128,2.1895-.0557,.7695-.1685,1.5791-.4951,2.4316-.9795,1.3965-.7935,2.3574-1.6279,2.8818-2.5029,.2432-.4263,.2969-.7583,.1611-.9961-.2246-.396-.6729-.5737-1.3447-.5332-.6709,.0415-1.8799,.4399-3.625,1.1963-2.5928,1.1333-4.5088,1.5669-5.748,1.3013-1.2324-.2554-2.1504-.9131-2.7529-1.9731-.6191-1.0894-.6738-2.2578-.1641-3.5044,.6855-1.6997,2.0381-3.124,4.0586-4.2729,.7031-.3994,1.417-.7168,2.1416-.9521,.7246-.2349,1.4639-.3828,2.2148-.4434,.1094-.2456,.2266-.4497,.3506-.6118s.2549-.2827,.3936-.3618c.416-.2363,.8516-.2773,1.3066-.123,.4541,.1543,.8906,.5981,1.3066,1.3311l.4229,.7427c.377,.6636,.5537,1.1597,.5303,1.4873-.0576,.6357-.3594,1.1084-.9043,1.418-.3662,.2085-.7529,.2778-1.1592,.2075-.4072-.0703-.7568-.271-1.0508-.6025Z"/><path d="M858.1035,35.8096c-.666-.0776-1.3203-.064-1.9619,.042-.6426,.106-1.2734,.3042-1.8926,.5942-1.2275,.5757-2.1084,1.2334-2.6416,1.9741-.2373,.3257-.3076,.5913-.2109,.7979,.1113,.2373,.4365,.3677,.9756,.3916,.4082,.0103,1.2207-.1758,2.4385-.5576,2.2393-.6973,3.8398-1.0952,4.8008-1.1934,1.2617-.126,2.3633,.0498,3.3047,.5273,.9404,.4775,1.6074,1.1338,1.999,1.9697,.5312,1.1348,.4756,2.3184-.167,3.5508-.916,1.7759-2.5195,3.2007-4.8096,4.2739-.9189,.4307-1.8047,.748-2.6582,.9531-.8545,.2051-1.6787,.3057-2.4736,.3008-.0918,.2065-.208,.3872-.3496,.5415-.1416,.1548-.3057,.2749-.4912,.3623-.4951,.2319-.9658,.2544-1.4121,.0674-.4463-.1875-.8486-.6626-1.2061-1.4258l-.501-1.0679c-.3574-.7632-.4658-1.3765-.3242-1.8394s.4502-.8052,.9248-1.0278c.3818-.1787,.751-.2227,1.1084-.1323,.3564,.0908,.7285,.3599,1.1143,.8081,.6787,.1855,1.4082,.2241,2.1875,.1167,.7803-.1079,1.6133-.3696,2.501-.7852,1.4541-.6821,2.4775-1.4385,3.0693-2.2695,.2754-.4058,.3555-.7324,.2393-.98-.1934-.4126-.626-.625-1.2988-.6372-.6729-.0117-1.9082,.291-3.708,.9077-2.6738,.9263-4.6182,1.2085-5.832,.8462-1.209-.3516-2.0723-1.0796-2.5898-2.1836-.5312-1.1348-.4941-2.3037,.1123-3.5063,.8164-1.6406,2.2764-2.9546,4.3809-3.9409,.7324-.3433,1.4688-.6035,2.21-.7812,.7412-.1772,1.4893-.2666,2.2432-.2681,.1279-.2358,.2607-.4302,.3975-.5825,.1357-.1519,.2764-.2617,.4209-.3291,.4336-.2031,.8701-.21,1.3115-.0205s.8408,.666,1.1982,1.4297l.3633,.7734c.3242,.6914,.4609,1.1992,.4121,1.5244-.1074,.6294-.4453,1.0767-1.0127,1.3428-.3818,.1787-.7725,.2178-1.1729,.1157-.3994-.1021-.7324-.3296-.999-.6831Z"/><path d="M875.6621,24.3521l4.082,11.2988,3.9541-1.4282c.793-.2866,1.4131-.3384,1.8613-.1548s.7607,.522,.9395,1.0146c.1738,.4819,.1475,.937-.0801,1.3643-.2266,.4272-.7373,.7842-1.5303,1.0708l-11.2021,4.0474c-.7939,.2866-1.4141,.3384-1.8613,.1548-.4482-.1836-.7607-.5215-.9395-1.0146-.1738-.4819-.1475-.937,.0801-1.3643,.2266-.4272,.7363-.7842,1.5303-1.0708l3.9531-1.4282-2.8916-8.0044-2.6523,.958c-.7822,.2827-1.3994,.333-1.8525,.1519-.4541-.1816-.7695-.5186-.9473-1.0117-.1738-.4824-.1475-.937,.0791-1.3643,.2275-.4272,.7373-.7842,1.5303-1.0708l5.9473-2.1484Zm-2.709-6.0898l1.2598,3.4878-3.9219,1.417-1.2598-3.4878,3.9219-1.417Z"/><path d="M902.7988,32.5762l-.1953-.7969c-.7402,.6631-1.5977,1.2339-2.5713,1.7134-.9727,.479-1.8799,.8223-2.7207,1.0288-1.8262,.4482-3.4277,.3276-4.8047-.3604-1.377-.6885-2.21-1.6191-2.498-2.792-.3506-1.4277,.0518-2.9312,1.207-4.5107,1.1543-1.5796,3.0156-2.6851,5.583-3.3149,1.0293-.2524,2.2451-.4336,3.6494-.5439l-.1992-.8135c-.125-.5088-.4453-.8701-.9609-1.0835-.5166-.2139-1.3877-.1699-2.6162,.1313-1.0068,.2476-2.2637,.7671-3.7705,1.5591-.5615,.2905-1.0088,.4766-1.3408,.5581-.4541,.1113-.8779,.0425-1.2734-.2065s-.6562-.6279-.7812-1.1372c-.0703-.2876-.0762-.5498-.0176-.7876,.0596-.2368,.1729-.4438,.3408-.6201,.168-.1758,.5459-.4302,1.1328-.7617,.7842-.439,1.5957-.8345,2.4365-1.1875,.8398-.353,1.6143-.6162,2.3223-.79,2.1133-.519,3.8652-.4648,5.2568,.1611,1.3916,.6265,2.2812,1.731,2.6699,3.313l1.7188,7.0039,.5811-.1426c.8193-.2007,1.4414-.1865,1.8672,.0435,.4258,.2295,.7012,.5991,.8262,1.1079,.1221,.498,.0479,.9473-.2236,1.3481-.2705,.4009-.8154,.7021-1.6348,.9028l-3.9834,.978Zm-1.4951-6.0913c-1.4258,.0684-2.7139,.2441-3.8652,.5264-1.3828,.3398-2.4893,.9692-3.3193,1.8882-.5137,.584-.7168,1.0972-.6074,1.5396,.0781,.3208,.292,.5444,.6396,.6699,.6426,.2295,1.4453,.2261,2.4082-.0103,.8184-.2012,1.7051-.5889,2.6611-1.1636s1.7695-1.2378,2.4424-1.9897l-.3594-1.4604Z"/><path d="M915.2637,14.5059l.1416,1.1709c.5674-.6196,1.2168-1.1113,1.9473-1.4751s1.543-.5996,2.4365-.708c2.0586-.249,3.7646,.1934,5.1182,1.3262,1.0732,.9028,1.71,2.1802,1.9092,3.8315l.7822,6.4644c.7354-.0889,1.2969,.0063,1.6875,.2861,.3887,.2803,.6152,.6807,.6787,1.2007,.0615,.5088-.0664,.9463-.3838,1.3115s-.8945,.5986-1.7314,.7002l-3.1387,.3794c-.8369,.1016-1.4531,.0122-1.8486-.2666-.3955-.2793-.624-.6792-.6875-1.1997-.0615-.5088,.0635-.9458,.375-1.3105s.835-.5913,1.5703-.6807l-.7939-6.5659c-.0918-.7573-.3623-1.2871-.8115-1.5884-.5869-.3882-1.4121-.5181-2.4746-.3896-.8037,.0972-1.4883,.3379-2.0557,.7222-.5684,.3843-1.2549,1.1362-2.0605,2.2549l.7822,6.4639c.8936-.1079,1.4805-.0928,1.7617,.0454,.5947,.272,.9326,.7363,1.0117,1.3921,.0615,.5093-.0664,.9463-.3838,1.312-.3174,.3652-.8945,.5986-1.7314,.6997l-3.9531,.4785c-.8369,.1011-1.4531,.0122-1.8486-.2671-.3945-.2793-.624-.6792-.6865-1.1992-.0771-.6333,.1348-1.1582,.6357-1.5747,.251-.2026,.8223-.3579,1.7168-.4658l-1.0225-8.4492c-.7354,.0889-1.2979-.0093-1.6885-.2949s-.6162-.6831-.6777-1.1919,.0664-.9463,.3838-1.3115c.3174-.3657,.8945-.5991,1.7314-.7002l3.3086-.4004Z"/><path d="M971.3174,11.2812c.2588-.2593,.5264-.4429,.8027-.5498,.2754-.1069,.5596-.1382,.8525-.0928,.5068,.0786,.8936,.3174,1.1602,.7158,.2676,.3989,.3359,1.0151,.207,1.8481l-.4561,2.9385c-.1289,.8335-.3818,1.4023-.7568,1.707-.376,.3052-.8174,.418-1.3242,.3394-.4619-.0713-.8135-.2583-1.0547-.561-.2412-.3022-.374-.8188-.3994-1.5493-.0059-.4849-.1064-.875-.3027-1.1709-.3828-.5781-.9648-1.0835-1.7451-1.5156-.7803-.4326-1.5869-.7129-2.4199-.8423-1.0361-.1606-2.0225-.0825-2.959,.2329-.9375,.3159-1.8164,.9292-2.6377,1.8394-.8213,.9106-1.3398,2.064-1.5566,3.46l-.3477,2.2461c-.2588,1.666,.1309,3.1504,1.1689,4.4526,1.0371,1.3022,2.6309,2.1201,4.7812,2.4536,1.2842,.1987,2.3975,.1929,3.3408-.0186,.5488-.1221,1.1631-.436,1.8408-.9424,.416-.3042,.7334-.4941,.9531-.5698,.2188-.0757,.458-.0933,.7178-.0532,.4609,.0718,.8389,.3091,1.1348,.7119,.2939,.4033,.4053,.8413,.332,1.314-.0732,.4731-.3887,.9429-.9453,1.4102-.8086,.6816-1.7881,1.1641-2.9395,1.4468-1.5459,.3828-3.1982,.438-4.9541,.1655-2.0498-.3174-3.8301-1.0259-5.3428-2.125-1.2246-.8818-2.1904-2.1235-2.8984-3.7266-.709-1.603-.9297-3.2656-.6621-4.9883l.3643-2.3477c.2783-1.8013,.959-3.4165,2.0391-4.8457,1.0801-1.4297,2.4297-2.4512,4.0469-3.0654,1.6172-.6138,3.2578-.7915,4.9248-.5332,1.002,.1553,1.9209,.416,2.7578,.7822,.8369,.3657,1.5957,.8438,2.2773,1.4336Z"/><path d="M994.3408,30.3232c-.4004,1.2837-1.1436,2.4155-2.2305,3.3955-1.0869,.9805-2.4453,1.6074-4.0762,1.8809s-3.2129,.1719-4.7461-.3062c-1.5234-.4741-2.8721-1.2788-4.0459-2.4141-1.1738-1.1357-1.9365-2.4204-2.2891-3.855-.3535-1.4346-.3242-2.8096,.0859-4.126,.416-1.3379,1.1953-2.5361,2.3369-3.5947,1.1406-1.0586,2.5195-1.7417,4.1377-2.0493,1.6172-.3076,3.1816-.2261,4.6934,.2446,1.5234,.4746,2.8711,1.3091,4.0439,2.5039,1.1738,1.1948,1.9199,2.543,2.2402,4.0444,.3193,1.502,.2695,2.9272-.1504,4.2759Zm-3.3506-1.0254c.3359-1.0767,.2578-2.187-.2334-3.3306-.6758-1.5469-1.873-2.5879-3.5918-3.123-1.5117-.4712-2.9238-.3799-4.2373,.2729-1.3135,.6533-2.168,1.6157-2.5645,2.8887-.3252,1.0439-.1182,2.1797,.6211,3.4062,.7402,1.2271,1.8545,2.0723,3.3447,2.5366,1.502,.4678,2.9043,.4062,4.21-.1836,1.3057-.5894,2.123-1.4121,2.4512-2.4673Z"/><path d="M1006.582,26.9971l-.5098,1.063c.8115-.2168,1.623-.2822,2.4346-.1958,.8125,.0864,1.623,.3242,2.4346,.7139,1.8691,.8975,3.0703,2.188,3.6016,3.8711,.4189,1.3389,.2686,2.7578-.4512,4.2573l-2.8184,5.8696c.667,.3203,1.0898,.7036,1.2676,1.1494,.1777,.4453,.1533,.9048-.0732,1.377-.2217,.4619-.5645,.7617-1.0293,.8994-.4639,.1372-1.0762,.0234-1.8359-.3413l-2.8496-1.3687c-.7607-.3647-1.2324-.7715-1.415-1.2192-.1826-.4482-.1611-.9082,.0654-1.3809,.2227-.4624,.5625-.7632,1.0215-.9033,.459-.1396,1.0225-.0493,1.6904,.2715l2.8623-5.9624c.3301-.688,.3867-1.2803,.1699-1.7759-.2852-.6426-.9111-1.1958-1.876-1.6592-.7295-.3506-1.4365-.5161-2.1221-.4976-.6846,.019-1.668,.2827-2.9492,.7925l-2.8174,5.8696c.8105,.3896,1.2979,.7183,1.46,.9858,.3555,.5498,.3896,1.1226,.1045,1.7183-.2227,.4619-.5654,.7617-1.0293,.8994-.4639,.1372-1.0762,.0234-1.8359-.3413l-3.5898-1.7236c-.7607-.3652-1.2314-.7715-1.415-1.2192-.1826-.4482-.1611-.9082,.0664-1.3809,.2754-.5752,.7373-.9038,1.3828-.9854,.3203-.0356,.8867,.1411,1.6973,.5308l3.6846-7.6724c-.668-.3203-1.0898-.7061-1.2646-1.1567-.1758-.4507-.1523-.9072,.0693-1.3696,.2217-.4619,.5654-.7617,1.0293-.8989,.4639-.1377,1.0762-.0239,1.8359,.3413l3.0039,1.4424Z"/><path d="M1030.9629,45.0459c-.3027-.5981-.6758-1.1357-1.1182-1.6123-.4434-.4771-.957-.8936-1.541-1.249-1.1572-.7061-2.1924-1.0762-3.1045-1.1118-.4023-.0186-.6631,.0698-.7812,.2642-.1367,.2236-.0654,.5674,.2129,1.0303,.2158,.3452,.8193,.9199,1.8105,1.7241,1.8184,1.4819,3.0342,2.5962,3.6465,3.3433,.8018,.9824,1.2637,1.998,1.3857,3.0459,.1221,1.0483-.0576,1.9663-.5381,2.7544-.6523,1.0703-1.6689,1.6777-3.0518,1.8223-1.9863,.2168-4.0596-.333-6.2197-1.6489-.8662-.5278-1.6201-1.0913-2.2627-1.6895-.6426-.5986-1.1816-1.2305-1.6162-1.896-.2236,.0381-.4385,.0405-.6455,.0073-.207-.0327-.3975-.1021-.5723-.209-.4678-.2847-.7461-.6646-.8369-1.1401-.0898-.4756,.084-1.0728,.5225-1.793l.6143-1.0068c.4385-.7197,.8896-1.1489,1.3535-1.2861,.4648-.1377,.9199-.0698,1.3682,.2026,.3594,.2192,.6006,.5034,.7217,.8506,.1221,.3477,.1025,.8066-.0576,1.376,.2197,.668,.5908,1.2974,1.1113,1.8877,.5205,.5908,1.1982,1.1411,2.0352,1.6509,1.3721,.8364,2.5674,1.2715,3.5879,1.3057,.4902,.0059,.8066-.1084,.9492-.3418,.2363-.3892,.1748-.8672-.1865-1.4346-.3623-.5674-1.2969-1.4307-2.8047-2.5898-2.249-1.7178-3.5576-3.1821-3.9268-4.3945-.375-1.2021-.2451-2.3237,.3896-3.3647,.6523-1.0703,1.6475-1.6846,2.9854-1.8438,1.8184-.2256,3.7197,.2661,5.7051,1.4756,.6904,.4214,1.3145,.8916,1.8711,1.4111,.5576,.5195,1.0449,1.0938,1.4629,1.7217,.2676-.0234,.5029-.02,.7051,.0093,.2012,.0303,.3711,.0864,.5068,.1694,.4092,.249,.6562,.6099,.7412,1.082,.0859,.4727-.0908,1.0688-.5293,1.7886l-.4443,.73c-.3975,.6519-.7451,1.0469-1.043,1.1855-.585,.2578-1.1445,.2236-1.6787-.1025-.3604-.2192-.6084-.5239-.7441-.9136-.1367-.3896-.1309-.7935,.0166-1.2104Z"/><path d="M1045.9775,53.9858l-3.8184,5.8955c-.4082,.6309-.5488,1.1309-.4209,1.4985,.1973,.5757,.8125,1.1982,1.8447,1.8672,1.502,.9722,3.0957,1.5498,4.7822,1.7329,.6494,.0674,1.1123,.1904,1.3896,.3701,.3818,.2476,.6221,.6064,.7178,1.0762,.0967,.4692,.0117,.9102-.2549,1.3213-.248,.3823-.6143,.6133-1.0996,.6924-.7598,.146-1.9531-.0396-3.5791-.5571-1.627-.5171-2.9131-1.082-3.8604-1.6953-1.8262-1.1831-2.9404-2.4648-3.3428-3.8452s-.2324-2.644,.5107-3.792l4.1904-6.4692-1.0615-.687c-.708-.4585-1.124-.9214-1.249-1.3892-.124-.4678-.0439-.9214,.2402-1.3613,.2793-.4302,.6572-.6841,1.1348-.7617,.4785-.0771,1.0703,.1128,1.7783,.5713l1.0615,.6875,1.7188-2.6538c.458-.7075,.9209-1.1235,1.3887-1.2485,.4678-.1245,.9219-.0444,1.3613,.2407,.4307,.2783,.6846,.6567,.7617,1.1343,.0771,.478-.1133,1.0708-.5713,1.7783l-1.7188,2.6538,5.4365,3.521c.708,.458,1.124,.9209,1.249,1.3887,.124,.4678,.0439,.9214-.2402,1.3613-.2793,.4302-.6572,.6841-1.1348,.7617-.4785,.0771-1.0713-.1133-1.7783-.5713l-5.4365-3.521Z"/><path d="M1066.3721,62.6304l-1.1084,1.8862c1.8047-.1694,3.1611-.1914,4.0723-.0664s1.6855,.375,2.3242,.75c.9824,.5771,1.7217,1.5,2.2188,2.7695,.3398,.8604,.3604,1.5464,.0605,2.0571-.2539,.4321-.6182,.71-1.0938,.834-.4766,.1235-.9248,.0615-1.3477-.1865-.373-.2192-.6562-.6367-.8496-1.2524-.1943-.6157-.4521-1.0186-.7764-1.209-.4229-.248-1.21-.3535-2.3613-.3159-1.1514,.0371-2.668,.2168-4.5488,.5396l-2.6738,4.5542,4.3037,2.5264c.7266,.4272,1.1631,.8716,1.3086,1.333,.1445,.4619,.084,.9189-.1807,1.3706-.2598,.4419-.627,.7124-1.1006,.8105s-1.0742-.0659-1.8008-.4927l-9.123-5.3564c-.7266-.4272-1.1631-.8711-1.3076-1.333-.1455-.4619-.085-.9185,.1797-1.3706,.2598-.4419,.627-.7124,1.1006-.8105s1.0742,.0659,1.8018,.4932l1.7979,1.0557,4.3096-7.3394-1.0908-.6401c-.7275-.4272-1.1631-.8716-1.3086-1.333-.1445-.4619-.085-.9185,.1807-1.3706,.2598-.4419,.626-.7124,1.1006-.8105,.4736-.0981,1.0742,.0659,1.8008,.4927l4.1123,2.4146Z"/><path d="M1093.0283,76.3335l-5.0693,10.8921c.6709,.3125,1.0967,.6929,1.2773,1.1416s.1631,.9053-.0527,1.3701c-.2168,.4648-.5557,.7686-1.0186,.9116-.4619,.1426-1.0762,.0361-1.8398-.3193l-3.0215-1.4067,.3389-.728c-1.1016-.0098-2.1133-.104-3.0352-.2822-.9229-.1782-1.7559-.4399-2.499-.7861-1.0439-.4858-1.8457-1.126-2.4053-1.9209-.5605-.7944-.8818-1.6826-.9648-2.6641-.0615-.707,.1035-1.4785,.4932-2.3154l3.1807-6.8325-.543-.2524c-.7637-.356-1.2402-.7563-1.4287-1.2021s-.1719-.9062,.0498-1.3818c.2158-.4648,.5557-.7686,1.0176-.9116,.4629-.1426,1.0762-.0361,1.8398,.3193l3.7188,1.731-4.3994,9.4512c-.3125,.6714-.3799,1.2402-.2012,1.707,.1787,.4663,.6045,.856,1.2754,1.1685,.6406,.2979,1.3887,.4927,2.2451,.583,.8564,.0908,1.9805,.0581,3.373-.0981l3.0146-6.4761-1.1465-.5337c-.7646-.356-1.2402-.7568-1.4287-1.2026s-.1719-.9062,.0488-1.3813c.2168-.4648,.5557-.7686,1.0186-.9116,.4619-.1431,1.0752-.0366,1.8398,.3193l4.3223,2.0122Z"/><path d="M1111.4805,83.5688c.5264-.2451,1-.2974,1.4219-.1572,.4746,.1587,.8105,.4595,1.0049,.9023,.1943,.4434,.1602,1.0596-.1025,1.8486l-.7129,2.1401c-.2666,.7998-.6094,1.3159-1.0293,1.5483s-.8789,.2656-1.376,.1001c-.4531-.1514-.7939-.4087-1.0215-.7725-.1621-.2705-.208-.7271-.1377-1.3701s-.0947-1.1934-.4941-1.6509c-.7031-.8105-1.7354-1.4429-3.0977-1.8965-1.5674-.5225-2.9766-.4814-4.2285,.1221s-2.1123,1.6084-2.5801,3.0132c-.4326,1.2969-.3193,2.4727,.3379,3.5264,.6582,1.0537,2.041,1.9316,4.1484,2.6338,1.3838,.4609,2.5596,.6973,3.5293,.7075,.5762,0,1.166-.1304,1.7695-.3921,.6035-.2612,1.0938-.3286,1.4727-.2026,.4541,.1514,.79,.4492,1.0078,.894,.2178,.4453,.252,.8945,.1006,1.3486-.2451,.7349-.9805,1.2646-2.2051,1.5889-1.8193,.4868-4.167,.251-7.042-.707-2.583-.8608-4.415-2.0654-5.4961-3.6147-1.4668-2.0854-1.7842-4.377-.9521-6.874,.7891-2.3672,2.2305-4.0635,4.3252-5.0884,2.0947-1.0254,4.4121-1.1152,6.9531-.2686,.918,.3062,1.7432,.6772,2.4746,1.1128,.7314,.436,1.375,.9385,1.9297,1.5078Z"/><path d="M1125.9688,90.2119l-1.4629,6.8701c-.1562,.7354-.1084,1.252,.1426,1.5503,.3896,.4673,1.1865,.8291,2.3896,1.085,1.749,.3726,3.4443,.3433,5.0859-.0884,.6299-.1685,1.1064-.2188,1.4297-.1499,.4453,.0947,.7969,.3442,1.0547,.7485s.3359,.8462,.2334,1.3252c-.0947,.4458-.3545,.7925-.7803,1.0396-.6572,.4077-1.8379,.6602-3.542,.7578-1.7041,.0972-3.1074,.0288-4.2109-.2061-2.1279-.4531-3.627-1.2524-4.4951-2.3979-.8691-1.146-1.1611-2.3877-.876-3.7246l1.6045-7.5391-1.2373-.2632c-.8252-.1753-1.3789-.4595-1.6621-.8516s-.3711-.8447-.2617-1.3574c.1064-.5015,.3691-.8735,.7881-1.1167,.4189-.2427,1.04-.2764,1.8652-.1011l1.2363,.2632,.6582-3.0923c.1758-.8242,.46-1.3784,.8516-1.6621,.3926-.2832,.8447-.3706,1.3574-.2612,.502,.1064,.874,.3691,1.1172,.7876,.2422,.4189,.2764,1.0405,.1006,1.8652l-.6582,3.0923,6.3359,1.3481c.8242,.1753,1.3779,.4595,1.6621,.8516,.2832,.3926,.3701,.8452,.2607,1.3574-.1064,.5015-.3691,.8735-.7881,1.1167-.418,.2427-1.04,.2764-1.8643,.1011l-6.335-1.3481Z"/><path d="M1150.7881,90.5015l-1.2129,11.9526,4.1826,.4243c.8389,.0854,1.4209,.3076,1.7451,.6665,.3242,.3594,.46,.7998,.4062,1.3213-.0518,.5103-.2725,.9087-.6621,1.1953s-1.0039,.3877-1.8428,.3027l-11.8506-1.2031c-.8389-.085-1.4209-.3071-1.7451-.6665s-.46-.7993-.4062-1.3208c.0518-.5103,.2725-.9087,.6621-1.1953,.3896-.2871,1.0039-.3877,1.8428-.3027l4.1826,.4243,.8594-8.4668-2.8057-.2852c-.8271-.084-1.4062-.3057-1.7363-.6655s-.4678-.8003-.415-1.3218c.0518-.5103,.2725-.9087,.6621-1.1953,.3896-.2871,1.0039-.3877,1.8428-.3027l6.291,.6387Zm.1953-6.6626l-.374,3.6895-4.1484-.4209,.374-3.6895,4.1484,.4209Z"/><path d="M1170.8691,102.6763l3.7793-7.7578c-.9346-.0005-1.5322-.0801-1.7949-.2397-.5693-.353-.8535-.8604-.8535-1.5215,0-.5127,.1797-.9312,.5381-1.2559,.3594-.3247,.96-.4868,1.8037-.4863l4.8018,.001c.8428,.0005,1.4443,.1626,1.8027,.4878,.3594,.3247,.5381,.7495,.5381,1.2729,0,.5127-.1797,.9316-.5381,1.2563-.3594,.3242-.9609,.4868-1.8037,.4863h-.5811l-5.8652,12.0127-3.6572-.001-5.8584-12.0156-.4951-.0005c-.8438,0-1.4443-.1626-1.8027-.4873-.3594-.3247-.5381-.749-.5381-1.2734,0-.5127,.1797-.9312,.5381-1.2559,.3594-.3247,.96-.4868,1.8037-.4868l4.6992,.0015c.832,0,1.4268,.1626,1.7861,.4873,.3584,.3247,.5381,.7495,.5381,1.2734,0,.6494-.2744,1.145-.8213,1.4868-.2734,.1704-.8828,.2559-1.8281,.2559l3.8086,7.7598Z"/><path d="M1194.3672,90.2524l1.0889,11.9648,4.1865-.3809c.8398-.0762,1.4531,.0308,1.8398,.3218s.6035,.6973,.6514,1.2192c.0459,.5107-.0947,.9438-.4229,1.2998s-.9111,.5718-1.751,.6484l-11.8633,1.0786c-.8398,.0762-1.4521-.0308-1.8389-.3218s-.6045-.6973-.6514-1.2192c-.0469-.5107,.0938-.9438,.4219-1.2998s.9121-.5718,1.752-.6484l4.1865-.3804-.7705-8.4761-2.8086,.2554c-.8281,.0757-1.4385-.0322-1.8311-.3223-.3926-.2905-.6123-.6963-.6602-1.2188-.0469-.5103,.0947-.9438,.4219-1.2993,.3281-.356,.9121-.5723,1.752-.6484l6.2969-.5728Zm-1.0781-6.5771l.3359,3.6929-4.1533,.3779-.3359-3.6934,4.1533-.3774Z"/><path d="M1218.6953,90.938c-.6211-.251-1.2559-.4097-1.9033-.4775-.6475-.0669-1.3086-.0425-1.9814,.0742-1.3359,.231-2.3594,.6338-3.0693,1.2075-.3154,.251-.4531,.4888-.4141,.7134,.0449,.2583,.3242,.4697,.8379,.6353,.3906,.1177,1.2236,.1528,2.499,.1055,2.3438-.0815,3.9922-.043,4.9453,.1157,1.251,.2114,2.2666,.6719,3.0488,1.3804,.7812,.709,1.251,1.5181,1.4082,2.4272,.2139,1.2354-.1523,2.3623-1.0977,3.3813-1.3525,1.4712-3.2754,2.4224-5.7676,2.8535-.999,.1729-1.9375,.2451-2.8154,.2178s-1.6992-.1479-2.4648-.3628c-.1426,.1753-.3027,.3188-.4805,.4302-.1777,.1118-.3672,.1851-.5693,.2197-.5381,.0933-.998-.0093-1.3799-.3076-.3809-.2983-.6436-.8623-.7871-1.6934l-.2012-1.1621c-.1436-.8306-.0859-1.4507,.1729-1.8594,.2588-.4092,.6465-.6582,1.1631-.7476,.415-.0718,.7832-.0171,1.1035,.1646s.6074,.5396,.8623,1.0737c.6055,.3579,1.2979,.5879,2.0791,.6895,.7803,.1021,1.6533,.0693,2.6191-.0977,1.583-.2734,2.7695-.7329,3.5596-1.3789,.373-.3184,.5361-.6128,.4893-.8823-.0771-.4487-.4395-.7676-1.085-.957-.6455-.189-1.917-.2231-3.8154-.103-2.8242,.188-4.7734-.0527-5.8486-.7227-1.0742-.6582-1.7139-1.5879-1.9219-2.7896-.2139-1.2344,.1309-2.3521,1.0332-3.3525,1.2197-1.3672,2.9756-2.249,5.2656-2.645,.7969-.1377,1.5762-.1948,2.3379-.1704,.7607,.0244,1.5059,.1357,2.2344,.3335,.1855-.1943,.3643-.3467,.5361-.457,.1719-.1108,.3359-.1797,.4932-.207,.4717-.0815,.8955,.0273,1.2705,.3267,.376,.2993,.6357,.8643,.7793,1.6948l.1455,.8423c.1299,.7524,.1289,1.2783-.0039,1.5791-.2705,.5786-.7139,.9209-1.3311,1.0278-.416,.0718-.8027,.0063-1.1621-.1978s-.6201-.5112-.7842-.9224Z"/><path d="M1230.4199,84.3311l.2373,.9619c.4189-.6782,.8281-1.1753,1.2246-1.4907,.3975-.3154,.8896-.5454,1.4756-.6904,.498-.123,1.0205-.1226,1.5674,0,.5459,.123,1.1123,.3706,1.6973,.7422,.4658-.6313,.9707-1.1401,1.5146-1.5273,.5439-.3867,1.1309-.6582,1.7617-.814,1.2607-.3115,2.3672-.2271,3.3193,.2534,1.2578,.6279,2.0654,1.6611,2.4209,3.0986l1.8818,7.6152c.708-.1753,1.2734-.1445,1.6953,.0913,.4219,.2363,.6943,.603,.8174,1.1006,.123,.498,.0518,.9468-.2129,1.3467s-.8066,.7012-1.625,.9033l-3.2354,.7998-2.6533-10.7344c-.1279-.5195-.3105-.856-.5479-1.0083-.2373-.1528-.5498-.1812-.9365-.0854-.376,.0928-.7002,.2783-.9717,.5566-.3408,.3779-.71,1.0205-1.1074,1.9287l1.6934,6.8521c.708-.1753,1.2725-.1445,1.6953,.0913,.4219,.2363,.6943,.603,.8174,1.1006,.123,.498,.0518,.9468-.2129,1.3467s-.8066,.7012-1.625,.9033l-3.2354,.7998-2.6533-10.7344c-.125-.5083-.3105-.8413-.5547-.998s-.5596-.1875-.9463-.0918c-.3984,.0986-.7607,.3198-1.0859,.6646-.3262,.3447-.668,.9546-1.0264,1.8291l1.6934,6.8521c.708-.1748,1.2754-.145,1.7031,.0894,.4277,.2349,.7031,.6011,.8262,1.0986s.0488,.9473-.2217,1.3486-.8145,.7031-1.6328,.9053l-3.0693,.7588c-.8184,.2021-1.4414,.189-1.8672-.04-.4268-.2295-.7021-.5981-.8281-1.1069-.123-.4976-.0518-.9468,.2129-1.3467s.7568-.6885,1.4756-.8662l-2.042-8.2622c-.7188,.1777-1.29,.1484-1.7119-.0874-.4219-.2363-.6943-.603-.8174-1.1006-.123-.498-.0498-.9473,.2207-1.3486s.8154-.7031,1.6338-.9058l3.2354-.7993Z"/></g></svg>