<?xml version="1.0" encoding="UTF-8"?><svg id="Layer_1" xmlns="http://www.w3.org/2000/svg" width="294" height="120.2781" viewBox="0 0 294 120.2781"><defs><style>.cls-1{fill:none;stroke:#000;stroke-linecap:round;stroke-linejoin:round;stroke-width:5px;}</style></defs><g><path class="cls-1" d="M163.5458,55.4637c-4.6666-3-9.3334-6-14-9l-27.9231,.1538v18.8462h-9.0769l9.0769,50.5993h82.9231V55.3172c-13.6666,.0488-27.3334,.0976-41,.1464Z"/><polyline class="cls-1" points="204.6227 116.063 195.5458 65.4637 121.6227 65.4637"/></g><g><path d="M66.0645,78.2158l1.4287,1.4219,.4072-.4102c.2725-.2734,.5186-.416,.7393-.4268,.2207-.0117,.417,.0664,.5859,.2354,.167,.165,.2441,.3584,.2344,.5801-.0107,.2207-.1523,.4678-.4238,.7412l-1.7129,1.7227c-.2725,.2734-.5186,.415-.7393,.4268-.2217,.0117-.417-.0664-.5869-.2354-.166-.166-.2432-.3594-.2305-.583,.0127-.2227,.1523-.4688,.4209-.7383l.1758-.1768-4.4424-4.4189-.1758,.1768c-.2725,.2734-.5186,.416-.7393,.4277s-.416-.0674-.5859-.2363-.25-.3633-.2393-.585c.0107-.2207,.1514-.4678,.4229-.7412l2.5625-2.5645c.7969-.8008,1.6133-1.2246,2.4492-1.2715,.8359-.0459,1.5381,.2129,2.1064,.7793,.3545,.3525,.5742,.7764,.6582,1.2715s.0312,1.0635-.1582,1.7041c.4492-.0303,.9736-.0186,1.5742,.0352,.3799,.0391,.9365,.1367,1.6699,.293,.2861-.2881,.5049-.4482,.6553-.4824,.2803-.0518,.5234,.0244,.7305,.2305,.166,.165,.2441,.3574,.2363,.5771-.0088,.2188-.1494,.4648-.4209,.7383l-.6445,.6484c-2.3359-.4951-3.9492-.583-4.8398-.2637l-1.1182,1.124Zm-1.1357-1.1289l.8809-.8867c.3271-.3281,.5693-.6719,.7266-1.0293,.2129-.4795,.3047-.8525,.2764-1.1191s-.1143-.4727-.2588-.6152c-.2139-.2129-.5264-.2959-.9365-.249-.4111,.0469-.835,.29-1.2715,.7295l-1.2949,1.3018,1.8779,1.8682Z"/><path d="M73.1836,64.2705l4.46,3.2061c.1973-.2754,.4053-.4336,.6221-.4766s.4199,.0039,.6104,.1406,.2979,.3145,.3223,.5342c.0254,.2207-.0752,.4863-.2998,.7998l-.8896,1.2373-.2979-.2148c-.0986,.4941-.2266,.9404-.3857,1.3398-.1582,.3984-.3467,.751-.5654,1.0547-.3076,.4277-.6631,.7334-1.0674,.917-.4053,.1836-.8311,.252-1.2793,.2061-.3223-.0332-.6553-.1729-.998-.4189l-2.7979-2.0107-.1592,.2217c-.2246,.3135-.4453,.4932-.6621,.54-.2158,.0459-.4209,0-.6162-.1406-.1904-.1367-.2979-.3145-.3223-.5342s.0752-.4863,.2998-.7998l1.0947-1.5225,3.8701,2.7812c.2744,.1982,.5244,.2764,.749,.2363,.2246-.041,.4355-.1982,.6338-.4736,.1885-.2617,.3389-.5811,.4531-.958,.1133-.377,.1943-.8848,.2432-1.5234l-2.6514-1.9062-.3379,.4697c-.2246,.3125-.4453,.4922-.6621,.5391-.2158,.0469-.4209,0-.6162-.1396-.1895-.1367-.2979-.3154-.3223-.5352s.0752-.4863,.3008-.7988l1.2715-1.7705Z"/><path d="M78.7256,57.7324c-.2588,.1641-.4873,.3574-.6846,.5801-.1982,.2227-.3652,.4736-.501,.7549-.2705,.5576-.3945,1.0449-.3701,1.4619,.0088,.1836,.0605,.2988,.1543,.3438,.1074,.0527,.2607,.0049,.459-.1416,.1484-.1133,.3828-.4131,.7061-.8994,.5947-.8926,1.0479-1.4941,1.3613-1.8057,.4121-.4082,.8535-.6631,1.3252-.7646,.4717-.1006,.8975-.0596,1.2773,.124,.5156,.25,.8359,.6865,.9629,1.3096,.1855,.8945,.0264,1.8623-.4785,2.9023-.2021,.417-.4258,.7852-.6699,1.1035s-.5078,.5918-.791,.8184c.0264,.1006,.0371,.1982,.0312,.2939-.0059,.0947-.0293,.1846-.0703,.2695-.1084,.2246-.2695,.3682-.4824,.4307-.2119,.0615-.4912,.0088-.8379-.1592l-.4854-.2354c-.3467-.168-.5615-.3545-.6445-.5596-.083-.2061-.0723-.416,.0322-.6318,.084-.1729,.2021-.2949,.3555-.3652,.1533-.0713,.3623-.082,.6289-.0342,.2939-.1299,.5645-.3252,.8096-.5889,.2461-.2627,.4668-.5947,.6621-.998,.3203-.6611,.4668-1.2246,.4375-1.6895-.0195-.2236-.085-.3623-.1973-.417-.1875-.0908-.4023-.042-.6445,.1475s-.5947,.6523-1.0557,1.3896c-.6836,1.0986-1.292,1.7588-1.8281,1.9795-.5303,.2227-1.0459,.2129-1.5479-.0303-.5156-.25-.8389-.6758-.9697-1.2773-.1826-.8174-.042-1.7051,.4219-2.6611,.1611-.332,.3477-.6367,.5596-.9131,.2129-.2764,.4521-.5234,.7197-.7412-.0225-.1201-.0312-.2275-.0264-.3213,.0049-.0928,.0225-.1719,.0547-.2383,.0957-.1963,.249-.3242,.46-.3848,.2109-.0596,.4902-.0049,.8369,.1631l.3516,.1699c.3145,.1523,.5088,.2939,.585,.4229,.1436,.2549,.1523,.5107,.0273,.7686-.084,.1738-.2119,.2998-.3838,.3789-.1709,.0791-.3545,.0938-.5508,.0449Z"/><path d="M82.418,48.2383c-.2402,.1904-.4463,.4062-.6191,.6484-.1729,.2432-.3125,.5107-.418,.8047-.209,.584-.2803,1.0811-.2119,1.4932,.0283,.1816,.0918,.29,.1895,.3252,.1133,.041,.2607-.0225,.4424-.1895,.1348-.1289,.3359-.4521,.6055-.9697,.4961-.9502,.8838-1.5977,1.1621-1.9404,.3662-.4492,.7783-.749,1.2363-.9004,.458-.1504,.8857-.1543,1.2832-.0117,.5391,.1934,.9043,.5928,1.0967,1.1992,.2793,.8691,.2236,1.8486-.167,2.9365-.1572,.4365-.3398,.8262-.5488,1.1689s-.4424,.6416-.7002,.8975c.0371,.0967,.0576,.1924,.0625,.2881,.0039,.0957-.0098,.1875-.041,.2764-.085,.2354-.2295,.3945-.4336,.4785-.2051,.085-.4883,.0615-.8516-.0684l-.5068-.1826c-.3623-.1299-.5967-.293-.7002-.4883-.1045-.1953-.1162-.4053-.0352-.6309,.0654-.1816,.1699-.3154,.3145-.4014,.1445-.0869,.3516-.1201,.6211-.1006,.2793-.1602,.5273-.3838,.7441-.6709,.2168-.2881,.4004-.6426,.5518-1.0635,.248-.6914,.333-1.2666,.2549-1.7266-.042-.2197-.123-.3516-.2402-.3936-.1963-.0703-.4043,.001-.625,.2148-.2207,.2148-.5215,.7119-.9023,1.4941-.5625,1.165-1.0977,1.8857-1.6064,2.1621-.5039,.2783-1.0186,.3232-1.543,.1348-.5391-.1934-.9062-.583-1.0996-1.167-.2686-.7939-.2227-1.6904,.1357-2.6904,.125-.3477,.2783-.6709,.46-.9678,.1816-.2979,.3936-.5684,.6367-.8135-.0352-.1172-.0557-.2227-.0605-.3164-.0049-.0928,.0049-.1738,.0293-.2422,.0742-.2061,.2129-.3506,.416-.4316,.2041-.082,.4873-.0576,.8496,.0723l.3682,.1328c.3281,.1172,.5371,.2373,.627,.3574,.1689,.2383,.2051,.4922,.1084,.7617-.0654,.1807-.1787,.3203-.3408,.417s-.3438,.1309-.5439,.1035Z"/><path d="M80.9053,38.0537l1.5771,.623-.7002,1.7725-1.5771-.6221,.7002-1.7734Zm2.9072,.9131l5.1084,2.0176,.7061-1.7881c.1416-.3584,.3115-.5859,.5098-.6846,.1982-.0977,.4082-.1025,.6318-.0146,.2178,.0859,.3652,.2324,.4434,.4395s.0459,.4902-.0957,.8486l-2,5.0645c-.1416,.3584-.3115,.5869-.5098,.6846-.1982,.0986-.4092,.1035-.6318,.0156-.2178-.0869-.3662-.2334-.4443-.4404-.0771-.207-.0459-.4893,.0957-.8477l.7061-1.7881-3.6182-1.4287-.4736,1.1982c-.1396,.3545-.3096,.5811-.5088,.6816s-.4102,.1064-.6328,.0186c-.2178-.0859-.3662-.2324-.4434-.4395-.0781-.207-.0459-.4902,.0957-.8486l1.0615-2.6885Z"/><path d="M95.0762,32.5273l-.3174-.1982c-.0312,.4531-.1299,.9131-.2959,1.3809-.165,.4678-.3525,.8691-.5625,1.2051-.4551,.7295-1.0176,1.2012-1.6875,1.415-.6709,.2139-1.2402,.1748-1.709-.1172-.5703-.3555-.918-.9766-1.0439-1.8623-.126-.8848,.1309-1.8408,.7705-2.8662,.2559-.4111,.5967-.8584,1.0215-1.3428l-.3252-.2021c-.2031-.127-.4238-.1426-.6602-.0479-.2373,.0947-.5088,.3867-.8145,.877-.251,.4023-.4971,.9736-.7373,1.7139-.0918,.2744-.1787,.4775-.2607,.6104-.1133,.1816-.2744,.2939-.4834,.3389s-.415,.0039-.6182-.123c-.1152-.0713-.2002-.1562-.2568-.2529-.0566-.0957-.085-.2002-.0869-.3115-.001-.1113,.042-.3145,.1279-.6104,.1172-.3936,.2568-.7822,.4189-1.166s.332-.7168,.5078-1c.5264-.8438,1.1182-1.3857,1.7734-1.624,.6553-.2393,1.2988-.1611,1.9307,.2324l2.7979,1.7451,.1445-.2324c.2041-.3271,.4121-.5205,.625-.582,.2129-.0605,.4209-.0273,.624,.0996,.1992,.124,.3174,.2949,.3574,.5127,.0391,.2178-.0439,.4902-.248,.8174l-.9922,1.5908Zm-2.4326-1.5176c-.4453,.4775-.8105,.9463-1.0977,1.4062-.3447,.5518-.5059,1.1113-.4844,1.6768,.0186,.3555,.1152,.5879,.292,.6982,.1289,.0801,.2695,.085,.4238,.0156,.2832-.1299,.5449-.3877,.7852-.7725,.2041-.3262,.3701-.7363,.5-1.2295s.1846-.9707,.1641-1.4307l-.583-.3643Z"/><path d="M94.1523,22.4678l.373,.3896c.0381-.3818,.1406-.7402,.3086-1.0732,.167-.333,.3994-.6426,.6973-.9268,.6846-.6553,1.4307-.9609,2.2363-.917,.6396,.0361,1.2227,.3291,1.748,.8789l2.0576,2.1514c.2451-.2344,.4766-.3535,.6963-.3574,.2188-.0049,.4111,.0801,.5771,.2529,.1621,.1689,.2354,.3643,.2188,.585-.0156,.2207-.1631,.4639-.4414,.7305l-1.0449,.999c-.2783,.2666-.5283,.4023-.749,.4092-.2217,.0059-.415-.0781-.5801-.251-.1621-.1689-.2363-.3633-.2217-.582,.0137-.2188,.1426-.4453,.3877-.6797l-2.0898-2.1846c-.2412-.252-.4854-.3721-.7324-.3594-.3213,.0186-.6582,.1973-1.0117,.5361-.2676,.2549-.4521,.5312-.5547,.8271s-.1475,.7598-.1357,1.3896l2.0576,2.1514c.2969-.2852,.5156-.4404,.6562-.4668,.293-.0635,.543,.0146,.752,.2324,.1621,.1699,.2354,.3643,.2188,.585-.0156,.2207-.1631,.4648-.4414,.7305l-1.3154,1.2588c-.2783,.2666-.5283,.4023-.75,.4082-.2207,.0068-.4141-.0771-.5801-.25-.2012-.2109-.2676-.4609-.1982-.751,.0361-.1426,.2031-.3564,.5-.6406l-2.6885-2.8115c-.2451,.2344-.4775,.3525-.6992,.3545-.2207,.0029-.4121-.0811-.5742-.25-.1621-.1699-.2354-.3643-.2188-.585,.0156-.2207,.1631-.4648,.4414-.7314l1.1006-1.0527Z"/><path d="M115.4941,7.2305c.0459-.1611,.1123-.2939,.1982-.3984s.1924-.1807,.3193-.2275c.2197-.082,.4277-.0723,.623,.0273s.3604,.3301,.4941,.6904l.4736,1.2744c.1348,.3613,.1611,.6445,.0791,.8506-.082,.2051-.2334,.3486-.4521,.4307-.2012,.0742-.3828,.0781-.5459,.0107-.1641-.0664-.333-.2432-.5059-.5283-.1104-.1924-.2373-.3262-.3818-.4004-.2822-.1445-.627-.2168-1.0342-.2148-.4082,.001-.793,.0693-1.1533,.2041-.4492,.167-.8262,.418-1.1289,.7529-.3037,.335-.5176,.7754-.6426,1.3223-.124,.5459-.0742,1.1221,.1514,1.7275l.3613,.9736c.2695,.7227,.7559,1.2275,1.46,1.5156,.7051,.2891,1.5234,.2598,2.4561-.0869,.5557-.207,.999-.458,1.3281-.7529,.1924-.1709,.3672-.4336,.5244-.7871,.0986-.2139,.1826-.3604,.2529-.4395,.0713-.0791,.1621-.1396,.2744-.1816,.2002-.0742,.4043-.0635,.6123,.0312,.207,.0947,.3496,.2451,.4258,.4502s.0547,.4629-.0625,.7734c-.1709,.4521-.4541,.8633-.8506,1.2324-.5312,.498-1.1787,.8887-1.9395,1.1719-.8887,.3301-1.7578,.4453-2.6064,.3438-.6846-.0791-1.3477-.3584-1.9883-.8398-.6396-.4824-1.0986-1.0967-1.377-1.8428l-.3779-1.0186c-.29-.7803-.3799-1.5771-.2676-2.3887,.1123-.8105,.4229-1.5195,.9307-2.125,.5088-.6064,1.124-1.043,1.8467-1.3115,.4346-.1621,.8594-.2627,1.2754-.3037,.415-.04,.8242-.0186,1.2275,.0645Z"/><path d="M128.9961,9.8916c.1162,.6035,.0615,1.2197-.1641,1.8496-.2266,.6299-.6387,1.1758-1.2363,1.6387s-1.2568,.7637-1.9775,.9023c-.7158,.1387-1.4336,.1055-2.1514-.0977-.7188-.2041-1.3037-.5566-1.7559-1.0586-.4521-.501-.7373-1.0615-.8574-1.6797-.1211-.6299-.0664-1.2803,.165-1.9541,.2305-.6729,.6387-1.2461,1.2236-1.7197s1.2324-.7783,1.9434-.916c.7158-.1377,1.4395-.0928,2.1709,.1348,.7305,.2275,1.3223,.6094,1.7764,1.1455,.4531,.5352,.7412,1.1201,.8633,1.7549Zm-1.5713,.3105c-.0977-.5059-.3691-.9365-.8135-1.291-.6074-.4766-1.3145-.6377-2.1221-.4814-.7109,.1367-1.2607,.4785-1.6484,1.0254s-.5234,1.1201-.4082,1.7178c.0947,.4912,.4238,.9043,.9863,1.2383,.5635,.334,1.1953,.4336,1.8955,.2988,.7061-.1357,1.2578-.4639,1.6562-.9844,.3984-.5195,.5498-1.0273,.4541-1.5234Z"/><path d="M133.1318,5.876l.0303,.5381c.2773-.2656,.5879-.4717,.9316-.6162s.7217-.2275,1.1318-.251c.9463-.0537,1.7119,.1982,2.2959,.7549,.4639,.4434,.7168,1.0449,.7588,1.8037l.168,2.9717c.3379-.0186,.5918,.041,.7607,.1807,.1699,.1387,.2617,.3281,.2744,.5674,.0137,.2344-.0576,.4297-.2129,.5869-.1553,.1582-.4258,.2471-.8105,.2686l-1.4434,.0811c-.3848,.0225-.6631-.0361-.835-.1758-.1729-.1387-.2656-.3281-.2783-.5674-.0137-.2334,.0566-.4297,.209-.5869,.1533-.1572,.3984-.2451,.7363-.2637l-.1699-3.0195c-.0195-.3477-.127-.5977-.3232-.748-.2568-.1943-.6289-.2773-1.1172-.25-.3701,.0205-.6895,.1104-.96,.2686-.2695,.1592-.6055,.4814-1.0049,.9688l.167,2.9717c.4102-.0234,.6777,.001,.8018,.0723,.2637,.1416,.4043,.3633,.4209,.665,.0137,.2334-.0576,.4297-.2129,.5869-.1562,.1572-.4258,.2471-.8105,.2686l-1.8174,.1025c-.3857,.0215-.6641-.0371-.8359-.1758-.1719-.1396-.2646-.3281-.2783-.5674-.0166-.292,.0957-.5244,.3359-.7002,.1211-.085,.3867-.1387,.7969-.1621l-.2178-3.8848c-.3389,.0195-.5928-.042-.7617-.1836-.1699-.1416-.2617-.3301-.2744-.5635-.0137-.2344,.0576-.4297,.2129-.5869,.1562-.1582,.4258-.2471,.8105-.2695l1.5215-.085Z"/><path d="M146.9053,7.7412c-.252-.1748-.5186-.3096-.7998-.4053-.2822-.0947-.5791-.1504-.8916-.167-.6191-.0312-1.1152,.0449-1.4902,.2285-.166,.0801-.251,.1719-.2568,.2764-.0059,.1191,.0977,.2422,.3096,.3682,.1621,.0918,.5303,.1914,1.1035,.2988,1.0537,.2002,1.7842,.3848,2.1934,.5518,.5361,.2207,.9424,.5283,1.2197,.9229,.2764,.3955,.4043,.8037,.3828,1.2246-.0293,.5723-.3066,1.0381-.8311,1.3965-.752,.5195-1.7051,.749-2.8594,.6895-.4629-.0234-.8887-.0859-1.2773-.1865-.3887-.1016-.7432-.2383-1.0625-.4111-.0811,.0635-.167,.1113-.2578,.1436-.0898,.0312-.1816,.0449-.2754,.04-.25-.0127-.4443-.1045-.585-.2764-.1396-.1719-.1992-.4492-.1797-.835l.0283-.5381c.0195-.3848,.1074-.6553,.2646-.8115,.1562-.1562,.3545-.2285,.5938-.2158,.1924,.0098,.3506,.0713,.4756,.1846,.124,.1133,.2168,.3027,.2754,.5664,.2344,.2207,.5195,.3926,.8574,.5176,.3379,.124,.7305,.1973,1.1777,.2207,.7334,.0381,1.3096-.0469,1.7266-.2549,.1982-.1045,.3008-.2197,.3076-.3447,.0107-.208-.1191-.3867-.3877-.5361s-.832-.293-1.6904-.4307c-1.2783-.2021-2.123-.5059-2.5342-.9131-.4131-.4023-.6045-.8818-.5752-1.4385,.0293-.5713,.2959-1.0352,.7988-1.3896,.6826-.4863,1.5537-.7021,2.6152-.6475,.3691,.0186,.7217,.0723,1.0596,.1602,.3369,.0879,.6572,.2119,.9619,.374,.1025-.0674,.1982-.1172,.2861-.1494,.0869-.0322,.167-.0459,.2402-.043,.2188,.0117,.3965,.1035,.5332,.2744,.1377,.1709,.1963,.4492,.1768,.834l-.0205,.3906c-.0176,.3486-.0723,.583-.1611,.7031-.1787,.2314-.4111,.3389-.6973,.3242-.1924-.0098-.3584-.0781-.498-.2061-.1396-.127-.2256-.29-.2568-.4902Z"/><path d="M155.0381,8.3145l-.4414,3.1797c-.0469,.3408-.0088,.5752,.1162,.7021,.1924,.2012,.5674,.3398,1.125,.417,.8096,.1123,1.582,.043,2.3164-.207,.2812-.0977,.4971-.1357,.6465-.1152,.2061,.0283,.375,.1309,.5059,.3066s.1807,.375,.1494,.5967c-.0283,.2061-.1357,.373-.3213,.5-.2871,.207-.8164,.3604-1.5908,.4609-.7734,.1006-1.416,.1152-1.9268,.0439-.9854-.1367-1.6943-.4521-2.1279-.9463-.4336-.4932-.6074-1.0498-.5215-1.6689l.4844-3.4902-.5723-.0791c-.3818-.0537-.6445-.165-.7861-.334-.1426-.1699-.1963-.373-.1641-.6104,.0322-.2324,.1396-.4111,.3232-.5352,.1826-.124,.4648-.1602,.8467-.1074l.5723,.0801,.1992-1.4316c.0527-.3818,.1641-.6436,.334-.7861,.1699-.1416,.373-.1963,.6104-.1641,.2324,.0322,.4102,.1406,.5352,.3232,.124,.1826,.1602,.4648,.1064,.8467l-.1982,1.4316,2.9326,.4072c.3818,.0527,.6436,.1641,.7861,.334,.1416,.1699,.1963,.373,.1631,.6104-.0322,.2324-.1396,.4102-.3223,.5352-.1826,.124-.4648,.1602-.8467,.1064l-2.9336-.4062Z"/><path d="M165.4932,8.502l-.207,.9785c.7578-.335,1.3428-.542,1.7559-.6191,.4131-.0781,.7852-.082,1.1162-.0127,.5098,.1084,.9639,.4014,1.3633,.8789,.2725,.3242,.3809,.6182,.3252,.8828-.0479,.2246-.165,.3984-.3535,.5205-.1885,.123-.3916,.1611-.6113,.1143-.1934-.04-.377-.1807-.5498-.4189-.1738-.2393-.3438-.376-.5117-.4121-.2197-.0459-.5762,.0225-1.0703,.2061-.4932,.1826-1.124,.4805-1.8926,.8936l-.499,2.3623,2.2324,.4707c.377,.0801,.6299,.209,.7598,.3887,.1299,.1787,.1709,.3857,.1211,.6201-.0488,.2295-.168,.3994-.3594,.5107s-.4756,.127-.8525,.0479l-4.7314-.999c-.377-.0791-.6309-.209-.7607-.3877-.1299-.1797-.1699-.3857-.1201-.6211,.0479-.2285,.168-.3994,.3594-.5107,.1904-.1113,.4746-.127,.8516-.0479l.9326,.1973,.8037-3.8066-.5654-.1191c-.377-.0801-.6309-.209-.7607-.3887-.1299-.1787-.1699-.3857-.1201-.6201,.0479-.2295,.168-.3994,.3594-.5107s.4756-.1279,.8525-.0479l2.1328,.4502Z"/><path d="M179.124,11.8965l-1.4443,5.2988c.3262,.0889,.5479,.2275,.6631,.416,.1162,.1875,.1436,.3955,.082,.6211-.0615,.2266-.1914,.3896-.3887,.4893-.1973,.1006-.4814,.0996-.8535-.002l-1.4697-.4004,.0967-.3545c-.4971,.0801-.96,.1162-1.3896,.1064-.4297-.0088-.8252-.0625-1.1865-.1611-.5078-.1387-.9189-.3652-1.2324-.6797-.3135-.3154-.5264-.6904-.6396-1.127-.082-.3135-.0674-.6738,.043-1.0811l.9072-3.3242-.2646-.0713c-.3711-.1016-.6172-.2451-.7363-.4316s-.1475-.3955-.084-.626c.0615-.2266,.1914-.3896,.3887-.4893,.1973-.1006,.4814-.0996,.8535,.002l1.8086,.4932-1.2539,4.5977c-.0889,.3262-.0752,.5879,.042,.7842,.1162,.1963,.3379,.3389,.6641,.4287,.3115,.085,.6641,.1143,1.0566,.0898,.3926-.0254,.8975-.127,1.5127-.3047l.8584-3.1504-.5576-.1523c-.3721-.1016-.6172-.2451-.7363-.4316s-.1475-.3955-.084-.626c.0615-.2266,.1904-.3896,.3877-.4893,.1982-.1006,.4824-.0996,.8545,.002l2.1025,.5732Z"/><path d="M187.9248,14.9834c.2393-.1133,.4561-.1387,.6494-.0762,.2178,.0713,.3721,.207,.4619,.4092,.0908,.2021,.0771,.4844-.041,.8457l-.3184,.9805c-.1191,.3662-.2744,.6035-.4658,.7109s-.4004,.125-.6279,.0508c-.208-.0684-.3652-.1846-.4697-.3506-.0752-.1221-.0977-.3311-.0674-.625,.0293-.2949-.0479-.5459-.2314-.7529-.3242-.3691-.7979-.6543-1.4219-.8574-.7188-.2334-1.3633-.21-1.9336,.0703-.5703,.2793-.96,.7412-1.1689,1.3857-.1934,.5938-.1377,1.1309,.166,1.6104s.9395,.877,1.9053,1.1904c.6338,.2061,1.1719,.3105,1.6152,.3125,.2637-.002,.5322-.0635,.8076-.1855,.2754-.1211,.499-.1543,.6729-.0977,.208,.0684,.3623,.2031,.4639,.4053,.1006,.2031,.1172,.4082,.0498,.6162-.1094,.3369-.4434,.582-1.0029,.7344-.8301,.2275-1.9033,.1279-3.2207-.3008-1.1846-.3848-2.0254-.9297-2.5244-1.6338-.6777-.9492-.8301-1.9951-.458-3.1396,.3525-1.085,1.0059-1.8643,1.96-2.3398,.9551-.4756,2.0137-.5244,3.1777-.1455,.4209,.1367,.7998,.3037,1.1348,.5,.3359,.1973,.6318,.4248,.8877,.6826Z"/><path d="M194.3701,18.6611l-1.1104,3.0127c-.1182,.3223-.1309,.5596-.0371,.7109,.1465,.2363,.4834,.4521,1.0107,.6465,.7676,.2832,1.5361,.3799,2.3066,.292,.2969-.0352,.5156-.0264,.6572,.0254,.1953,.0723,.3379,.208,.4287,.4082,.0898,.1992,.0957,.4043,.0186,.6143-.0723,.1963-.2119,.3359-.4209,.4199-.3242,.1416-.875,.1787-1.6523,.1113s-1.4072-.1895-1.8916-.3682c-.9336-.3438-1.5596-.8037-1.877-1.3779-.3184-.5752-.3691-1.1562-.1533-1.7432l1.2178-3.3057-.542-.2002c-.3623-.1328-.5938-.2979-.6973-.4941-.1025-.1953-.1123-.4062-.0293-.6309,.0811-.2197,.2246-.3711,.4297-.4541,.2051-.082,.4883-.0566,.8506,.0762l.542,.2002,.5-1.3564c.1328-.3613,.2979-.5938,.4932-.6963,.1963-.1025,.4062-.1123,.6318-.0293,.2197,.0811,.3711,.2236,.4531,.4287,.083,.2051,.0576,.4893-.0752,.8506l-.5,1.3564,2.7783,1.0234c.3613,.1328,.5938,.2979,.6963,.4941,.1025,.1953,.1123,.4062,.0303,.6309-.0811,.2197-.2246,.3711-.4297,.4541-.2051,.082-.4893,.0566-.8506-.0762l-2.7783-1.0234Z"/><path d="M205.5625,21.2656l-2.0957,5.0771,1.7764,.7334c.3564,.1465,.582,.3203,.6777,.5195,.0947,.2002,.0967,.4111,.0049,.6318-.0889,.2168-.2383,.3623-.4463,.4375-.208,.0742-.4912,.0381-.8467-.1094l-5.0332-2.0771c-.3564-.1475-.582-.3203-.6777-.5205-.0947-.2002-.0967-.4102-.0049-.6318,.0898-.2168,.2383-.3623,.4463-.4375,.209-.0742,.4912-.0381,.8467,.1094l1.7764,.7334,1.4854-3.5967-1.1914-.4912c-.3516-.1455-.5762-.3184-.6738-.5195-.0977-.2002-.1006-.4121-.0088-.6328,.0898-.2168,.2383-.3623,.4463-.4375,.209-.0742,.4912-.0381,.8467,.1094l2.6719,1.1025Zm.958-2.8926l-.6475,1.5674-1.7617-.7275,.6475-1.5674,1.7617,.7275Z"/><path d="M211.9648,29.8516l3.1182-2.416c-.3828-.1885-.6123-.3428-.6875-.4609-.1621-.2598-.1758-.5254-.042-.7969,.1035-.21,.2617-.3447,.4746-.4053s.4922-.0059,.8379,.165l1.9678,.9717c.3457,.1709,.5596,.3584,.6406,.5645,.082,.2061,.0693,.416-.0371,.6309-.1035,.21-.2617,.3457-.4746,.4062s-.4922,.0049-.8379-.165l-.2383-.1182-4.834,3.7393-1.499-.7402,.0283-6.1113-.2031-.1006c-.3457-.1699-.5586-.3584-.6406-.5645-.0811-.2051-.0684-.416,.0371-.6309,.1035-.21,.2627-.3447,.4746-.4053,.2129-.0605,.4922-.0059,.8379,.165l1.9268,.9512c.3408,.168,.5518,.3545,.6338,.5605,.0811,.2061,.0684,.416-.0371,.6309-.1318,.2666-.3438,.4141-.6377,.4434-.1465,.0146-.4131-.0732-.8008-.2646l-.0078,3.9512Z"/><path d="M224,30.4512l-2.7217,4.7705,1.6699,.9521c.334,.1904,.5361,.3916,.6055,.6016,.0684,.21,.0439,.4199-.0752,.6279-.1162,.2031-.2822,.3291-.498,.376-.2158,.0479-.4912-.0234-.8262-.2148l-4.7305-2.6973c-.334-.1914-.5361-.3916-.6055-.6025-.0684-.21-.0439-.4189,.0752-.627,.1162-.2041,.2822-.3291,.498-.377s.4912,.0234,.8262,.2148l1.6699,.9521,1.9268-3.3789-1.1191-.6387c-.3301-.1885-.5312-.3887-.6025-.6006-.0713-.2109-.0469-.4209,.0713-.6289,.1162-.2041,.2822-.3291,.498-.377,.2168-.0479,.4922,.0234,.8262,.2148l2.5117,1.4326Zm1.3154-2.749l-.8398,1.4727-1.6562-.9443,.8398-1.4727,1.6562,.9443Z"/><path d="M232.5303,37.9268c-.1299-.2773-.2939-.5273-.4902-.751s-.4248-.4209-.6875-.5908c-.5195-.3379-.9883-.5205-1.4043-.5488-.1836-.0127-.3037,.0234-.3604,.1113-.0654,.1006-.0371,.2578,.084,.4736,.0938,.1602,.3623,.4307,.8047,.8115,.8125,.7002,1.3525,1.2256,1.623,1.5742,.3535,.46,.5518,.9297,.5938,1.4102s-.0518,.8975-.2812,1.252c-.3125,.4805-.7852,.7451-1.4189,.793-.9102,.0732-1.8506-.2051-2.8203-.835-.3887-.252-.7266-.5195-1.0117-.8008-.2861-.2822-.5244-.5781-.7148-.8877-.1025,.0146-.2002,.0127-.2939-.0049-.0947-.0176-.1807-.0518-.2598-.1025-.21-.1367-.332-.3135-.3672-.5322s.0518-.4893,.2617-.8125l.2939-.4521c.21-.3232,.4219-.5137,.6357-.5703s.4209-.0195,.6221,.1104c.1611,.1055,.2676,.2383,.3193,.3984,.0508,.1602,.0361,.3701-.0449,.6279,.0918,.3076,.2529,.6006,.4834,.877s.5332,.5371,.9092,.7812c.6152,.3994,1.1562,.6143,1.6221,.6426,.2236,.0088,.3701-.0391,.4375-.1436,.1133-.1748,.0918-.3945-.0664-.6582-.1572-.2637-.5732-.6699-1.248-1.2197-1.0049-.8145-1.584-1.5-1.7363-2.0586-.1562-.5547-.082-1.0654,.2217-1.5332,.3115-.4805,.7744-.748,1.3877-.8037,.834-.0791,1.6963,.1699,2.5879,.749,.3096,.2012,.5889,.4238,.8369,.6689,.248,.2441,.4629,.5137,.6455,.8057,.123-.0068,.2305-.0029,.3223,.0137,.0918,.0156,.168,.0439,.2295,.084,.1836,.1191,.292,.2871,.3252,.5039,.0322,.2168-.0557,.4873-.2656,.8105l-.2129,.3271c-.1895,.293-.3535,.4688-.4922,.5283-.2695,.1104-.5254,.0879-.7656-.0684-.1611-.1055-.2705-.2471-.3281-.4277-.0566-.1797-.0488-.3633,.0234-.5527Z"/><path d="M238.5771,39.7969l-.2686,.3662c.3613-.0527,.6553-.0547,.8828-.0078,.2266,.0469,.4512,.1523,.6738,.3154,.1895,.1387,.3428,.3213,.46,.5488,.1172,.2285,.1953,.499,.2363,.8135,.3584-.0215,.6855,.0059,.9805,.084,.2949,.0771,.5625,.2041,.8018,.3789,.4785,.3516,.7734,.7637,.8838,1.2393,.1484,.625,.0234,1.2109-.377,1.7568l-2.1201,2.8926c.2695,.1973,.4238,.4043,.4648,.6221,.041,.2168-.0078,.4199-.1465,.6094-.1377,.1885-.3164,.2949-.5342,.3193s-.4824-.0771-.7939-.3047l-1.2285-.9004,2.9883-4.0771c.1445-.1982,.209-.3604,.1924-.4883-.0156-.1279-.0977-.2461-.2441-.3535-.1426-.1045-.3027-.1641-.4805-.1777-.2324-.0088-.5654,.0498-1.001,.1768l-1.9072,2.6025c.2686,.1973,.4238,.4043,.4648,.6211,.041,.2178-.0078,.4209-.1465,.6094-.1387,.1895-.3164,.2959-.5352,.3203-.2178,.0244-.4824-.0771-.793-.3057l-1.2285-.9004,2.9873-4.0771c.1416-.1924,.2041-.3555,.1875-.4873-.0166-.1309-.0977-.251-.2451-.3584-.1514-.1113-.335-.1729-.5508-.1865-.2168-.0127-.5312,.0459-.9434,.1768l-1.9072,2.6025c.2695,.1963,.4248,.4043,.4678,.623s-.0039,.4229-.1426,.6123c-.1387,.1885-.3184,.2949-.5381,.3174s-.4854-.0801-.7969-.3076l-1.165-.8545c-.3115-.2275-.4893-.4502-.5332-.666-.0449-.2168,.0039-.4219,.1455-.6152,.1387-.1895,.3164-.2959,.5342-.3203s.4639,.0635,.7373,.2637l2.2988-3.1377c-.2725-.2002-.4297-.4092-.4707-.626-.041-.2178,.0078-.4209,.1465-.6094,.1387-.1895,.3174-.2959,.5381-.3184,.2197-.0225,.4854,.0801,.7959,.3076l1.2295,.9004Z"/></g></svg>