<?xml version="1.0" encoding="UTF-8"?><svg id="Layer_1" xmlns="http://www.w3.org/2000/svg" width="294" height="114.9714" viewBox="0 0 294 114.9714"><defs><style>.cls-1{fill:none;stroke:#000;stroke-linecap:round;stroke-linejoin:round;stroke-width:5px;}</style></defs><g><path class="cls-1" d="M163.5458,50.157c-4.6666-3-9.3334-6-14-9l-27.9231,.1538v18.8462h-9.0769l9.0769,50.5993h82.9231V50.0106c-13.6666,.0488-27.3334,.0976-41,.1464Z"/><polyline class="cls-1" points="204.6227 110.7563 195.5458 60.157 121.6227 60.157"/></g><g><path d="M175.5283,12.5329c-.1816,.1206-.3203,.1909-.416,.2114-.0957,.021-.2041,.0137-.3242-.0215-.2344-.0693-.3994-.2031-.4961-.4023-.0957-.1997-.0908-.4814,.0166-.8462l.3047-1.0347c.1084-.3696,.2568-.6123,.4453-.7275,.1895-.1157,.4004-.1392,.6357-.0698,.1797,.0527,.3174,.145,.4111,.2759,.0947,.1309,.1416,.3169,.1416,.5586-.001,.2412,.0225,.4121,.0693,.5127,.0986,.1978,.3096,.4307,.6328,.6992,.3223,.2686,.7041,.4678,1.1436,.5967,.6846,.2017,1.2939,.207,1.8271,.0161,.3379-.1123,.5479-.311,.6318-.5962,.0557-.1895,.041-.3882-.0449-.5952s-.2646-.4102-.5371-.6099c-.1777-.1338-.5947-.3677-1.251-.7017-.7939-.4019-1.374-.7759-1.7393-1.1221s-.6133-.7559-.7461-1.229c-.1318-.4731-.1299-.9424,.0068-1.4067,.2158-.7349,.7119-1.2876,1.4893-1.6592,.7773-.3711,1.6572-.4126,2.6416-.123,.3955,.1162,.748,.2676,1.0596,.4541s.5791,.4102,.8008,.6709c.2568-.1362,.4854-.1748,.6855-.1162,.2246,.0664,.3848,.1992,.4814,.3984,.0957,.1992,.0908,.481-.0166,.8457l-.3398,1.1543c-.1084,.3701-.2568,.6128-.4463,.728-.1885,.1157-.3945,.1401-.6201,.0742-.1895-.0557-.3379-.1616-.4434-.3179-.085-.1172-.1182-.3115-.0977-.5825,.0195-.271,.0029-.4736-.0488-.6089-.0898-.2324-.2598-.4561-.5117-.6714-.251-.2148-.5674-.3784-.9463-.4902-.5547-.1631-1.0312-.1631-1.4297-.0005-.3975,.1626-.6377,.3838-.7197,.6636-.0566,.1899-.0439,.3931,.0361,.6094s.2334,.4116,.459,.5869c.1494,.1196,.5947,.373,1.3359,.7593s1.2959,.7339,1.6641,1.043c.3682,.3086,.6338,.7017,.7979,1.1787,.1631,.4771,.165,.9883,.0049,1.5327-.2236,.7598-.6689,1.2881-1.3369,1.5854-.8867,.3911-1.8789,.4248-2.9785,.1016-.4248-.1245-.8232-.2974-1.1953-.5181s-.7178-.4893-1.0371-.8062Z"/><path d="M192.1348,14.7165c-.1992,.5815-.5547,1.0889-1.0635,1.5225-.5098,.4336-1.1387,.7021-1.8877,.8057s-1.4707,.0361-2.165-.2021c-.6895-.2368-1.2949-.6226-1.8164-1.1567s-.8535-1.1313-.9961-1.7915c-.1416-.6602-.1104-1.2881,.0938-1.8843,.208-.6055,.5801-1.1431,1.1152-1.6118s1.1748-.7627,1.918-.8823c.7432-.1191,1.457-.061,2.1416,.1738,.6895,.2368,1.2939,.6357,1.8145,1.1973s.8438,1.1875,.9707,1.8774c.126,.6909,.085,1.3413-.125,1.9521Zm-1.5176-.5127c.168-.4878,.1465-.9961-.0625-1.5249-.2891-.7158-.8223-1.2075-1.6006-1.4746-.6846-.2349-1.3311-.2119-1.9395,.0693-.6094,.2812-1.0127,.71-1.21,1.2861-.1621,.4731-.083,.9946,.2393,1.5649,.3213,.5703,.8203,.9712,1.4951,1.2026,.6797,.2334,1.3213,.2241,1.9258-.0283s.9883-.6172,1.1523-1.0952Z"/><path d="M200.792,10.8064l-3.0322,7.9741,1.7969,.6831c.3604,.1367,.5908,.3037,.6914,.501s.1084,.4077,.0234,.6313c-.084,.2192-.2285,.3691-.4346,.4492-.2061,.0806-.4893,.0522-.8496-.0845l-5.0898-1.9351c-.3604-.1367-.5908-.3037-.6914-.501-.1006-.1968-.1084-.4072-.0234-.6313,.084-.2192,.2285-.3687,.4346-.4492s.4893-.0522,.8496,.0845l1.7959,.6831,2.4629-6.4775-1.2051-.458c-.3555-.1353-.585-.3018-.6875-.4995-.1035-.1982-.1123-.4092-.0273-.6328,.084-.2192,.2285-.3691,.4346-.4497,.2061-.0801,.4893-.0522,.8496,.085l2.7021,1.0273Z"/><path d="M211.6055,18.6145l-2.2334,5.0181c.3096,.1377,.5068,.3081,.5938,.5117,.0859,.2036,.0811,.4126-.0146,.6265-.0947,.2144-.248,.356-.458,.4248s-.4912,.0249-.8438-.1318l-1.3916-.6191,.1494-.3354c-.5039,.0039-.9668-.0312-1.3896-.1055s-.8057-.1875-1.1484-.3398c-.4805-.2144-.8525-.5005-1.1143-.8594s-.416-.7622-.4619-1.2104c-.0332-.3228,.0361-.6768,.208-1.062l1.4004-3.1475-.25-.1113c-.3525-.1567-.5732-.3364-.6621-.5386-.0898-.2021-.0859-.4131,.0117-.6318,.0947-.2139,.248-.3555,.458-.4243,.21-.0693,.4912-.0254,.8438,.1313l1.7129,.7622-1.9375,4.354c-.1377,.3096-.1641,.5703-.0781,.7817,.085,.2119,.2822,.3867,.5918,.5244,.2949,.1313,.6387,.2144,1.0303,.249,.3926,.0352,.9062,.0112,1.541-.0708l1.3281-2.9839-.5283-.2349c-.3525-.1567-.5732-.3364-.6631-.5386-.0889-.2021-.085-.4126,.0117-.6318,.0957-.2139,.248-.3555,.459-.4243,.21-.0688,.4912-.0254,.8438,.1313l1.9912,.8862Z"/><path d="M216.6826,22.9597l-1.4883,2.8452c-.1592,.3047-.2021,.5376-.1289,.6997,.1143,.2539,.4209,.5112,.9189,.772,.7246,.3789,1.4746,.5747,2.25,.5869,.2988,.0029,.5146,.0396,.6484,.1099,.1846,.0962,.3086,.2495,.3721,.4595,.0635,.2095,.0439,.4136-.0605,.6118-.0957,.1846-.2529,.3052-.4707,.3618-.3398,.0986-.8906,.0645-1.6533-.1021-.7617-.167-1.3711-.3696-1.8281-.6089-.8818-.4614-1.4434-.9976-1.6846-1.6089s-.2168-1.1938,.0723-1.7476l1.6338-3.1216-.5117-.2681c-.3418-.1787-.5508-.3721-.627-.5796-.0771-.2075-.0596-.4175,.0518-.6299,.1084-.2075,.2695-.3394,.4844-.3945,.2139-.0557,.4912,.0059,.833,.1846l.5127,.2681,.6699-1.2803c.1787-.3413,.3721-.5508,.5791-.627,.208-.0767,.418-.0596,.6299,.0518,.208,.1084,.3398,.27,.3945,.4844,.0557,.2139-.0059,.4917-.1846,.8335l-.6699,1.2803,2.623,1.373c.3418,.1787,.5508,.3721,.627,.5796,.0771,.2075,.0596,.4175-.0518,.6299-.1084,.2075-.2695,.3389-.4844,.3945-.2139,.0552-.4922-.0063-.833-.1851l-2.624-1.373Z"/><path d="M227.4287,27.1716l-2.8271,4.7085,1.6475,.9897c.3301,.1982,.5283,.4033,.5918,.6152,.0645,.2114,.0352,.4199-.0879,.6255-.1211,.2007-.29,.3228-.5068,.3657-.2168,.0425-.4912-.0352-.8213-.2334l-4.668-2.8032c-.3311-.1987-.5283-.4038-.5928-.6152-.0635-.2119-.0342-.4204,.0889-.626,.1211-.2007,.29-.3228,.5068-.3652,.2168-.043,.4902,.0347,.8213,.2334l1.6475,.9893,2.0029-3.3354-1.1055-.6636c-.3262-.1958-.5215-.4004-.5889-.6133-.0664-.2129-.0381-.4224,.0859-.6274,.1201-.2012,.2891-.3232,.5068-.3657,.2168-.043,.4902,.0347,.8213,.2334l2.4775,1.4878Zm1.377-2.7178l-.873,1.4531-1.6338-.981,.873-1.4536,1.6338,.9814Z"/><path d="M236.7861,37.696c-.3457,.5078-.8213,.9038-1.4277,1.1875-.6055,.2837-1.2832,.377-2.0322,.2793-.75-.0977-1.4277-.353-2.0352-.7666-.6025-.4102-1.085-.9419-1.4473-1.5947s-.5244-1.3164-.4873-1.9907c.0361-.6743,.2324-1.272,.5869-1.793,.3604-.5293,.8613-.9497,1.501-1.2603,.6406-.311,1.334-.4258,2.083-.3452,.748,.0811,1.4209,.3252,2.0195,.7329,.6025,.4102,1.0811,.9551,1.4346,1.6338,.3545,.6787,.501,1.3677,.4404,2.0669-.0605,.6997-.2715,1.3159-.6357,1.8501Zm-1.3281-.895c.29-.4263,.4043-.9219,.3418-1.4873-.0889-.7666-.4736-1.3813-1.1543-1.8447-.5986-.4072-1.2285-.5557-1.8896-.4453-.6611,.1108-1.1631,.418-1.5059,.9214-.2812,.4136-.3428,.9375-.1826,1.5728,.1602,.6348,.5352,1.1533,1.125,1.5547,.5938,.4043,1.2158,.5649,1.8652,.481s1.1162-.335,1.4004-.7524Z"/><path d="M242.4658,37.3518l-.3281,.4277c.3838-.0205,.7529,.0264,1.1084,.1411s.6953,.2974,1.0225,.5479c.752,.5767,1.168,1.2666,1.248,2.0698,.0615,.6382-.1387,1.2588-.6016,1.8623l-1.8115,2.3618c.2686,.2061,.4219,.417,.46,.6333,.0371,.2158-.0166,.4189-.1621,.6089-.1426,.186-.3242,.2881-.5449,.3062-.2207,.0176-.4834-.0903-.79-.3252l-1.1465-.8794c-.3057-.2349-.4785-.4609-.5186-.6782-.04-.2178,.0137-.4214,.1592-.6118,.1426-.186,.3232-.2886,.542-.3081,.2178-.0195,.4619,.0737,.7305,.2798l1.8398-2.3989c.2119-.2769,.293-.5366,.2432-.7788-.0684-.3145-.2959-.6206-.6846-.9185-.293-.2251-.5938-.3657-.9023-.4214-.3086-.0562-.7734-.0303-1.3936,.0776l-1.8115,2.3623c.3262,.25,.5127,.4429,.5605,.5776,.1074,.2793,.0693,.5391-.1143,.7788-.1426,.1855-.3242,.2876-.5449,.3057s-.4834-.0903-.79-.3252l-1.4443-1.1074c-.3057-.2349-.4785-.4609-.5186-.6782-.0391-.2178,.0137-.4219,.1592-.6118,.1777-.2314,.415-.335,.7119-.311,.1465,.0142,.3828,.146,.709,.3965l2.3682-3.0869c-.2686-.2061-.4209-.418-.457-.6362s.0166-.4204,.1592-.606c.1426-.186,.3242-.2881,.5449-.3062s.4834,.0903,.79,.3252l1.208,.9268Z"/></g></svg>