<?xml version="1.0" encoding="UTF-8"?><svg id="Layer_1" xmlns="http://www.w3.org/2000/svg" width="1347.4716" height="130.8604" viewBox="0 0 1347.4716 130.8604"><defs><style>.cls-1{fill:none;stroke:#000;stroke-linecap:round;stroke-linejoin:round;stroke-width:5px;}</style></defs><g><path class="cls-1" d="M636.794,56.5467c-4.6666-3-9.3334-6-14-9l-27.9231,.1538v18.8462h-9.0769l9.0769,50.5993h82.9231V56.4003c-13.6666,.0488-27.3334,.0976-41,.1464Z"/><polyline class="cls-1" points="677.8709 117.146 668.794 66.5467 594.8709 66.5467"/></g><g><path d="M304.8223,78.564c-.4414,.1797-.7695,.2715-.9834,.2754-.2148,.0039-.4424-.0576-.6846-.1846-.4746-.248-.7725-.6064-.8936-1.0752s.0107-1.0713,.3965-1.8086l1.0938-2.0889c.3906-.7471,.8135-1.2041,1.2676-1.3721,.4541-.167,.918-.127,1.3926,.1221,.3633,.1904,.6182,.4453,.7656,.7666,.1465,.3213,.168,.7412,.0645,1.2588-.1035,.5186-.1279,.8945-.0703,1.1299,.1289,.4668,.4824,1.0566,1.0596,1.7705,.5781,.7139,1.3115,1.3037,2.1992,1.7686,1.3828,.7236,2.6875,.9951,3.9141,.8145,.7715-.0977,1.3076-.4346,1.6094-1.0098,.2002-.3838,.2529-.8154,.1572-1.2969-.0957-.4805-.3926-.9932-.8926-1.5381-.3242-.3623-1.1191-1.042-2.3848-2.0391-1.5322-1.2002-2.6162-2.25-3.252-3.1484s-.9941-1.8838-1.0762-2.9551c-.082-1.0723,.123-2.0771,.6143-3.0166,.7764-1.4834,2.0781-2.458,3.9033-2.9238,1.8252-.4648,3.7324-.1777,5.7207,.8633,.7979,.418,1.4902,.8936,2.0791,1.4268s1.0664,1.126,1.4316,1.7803c.6094-.1826,1.1162-.168,1.5195,.0439,.4551,.2373,.7422,.5908,.8633,1.0596s-.0107,1.0713-.3965,1.8076l-1.2207,2.332c-.3906,.7471-.8135,1.2041-1.2676,1.3711-.4541,.168-.9082,.1328-1.3623-.1055-.3838-.2012-.6562-.4912-.8174-.8711-.1318-.2881-.1191-.7188,.04-1.291,.1582-.5732,.209-1.0156,.1543-1.3271-.0918-.5371-.3623-1.0898-.8105-1.6592-.4473-.5684-1.0557-1.0537-1.8223-1.4551-1.1201-.5869-2.1426-.79-3.0654-.6113s-1.5332,.5508-1.8291,1.1162c-.2002,.3838-.2607,.8252-.1807,1.3232,.0791,.498,.3242,.9834,.7334,1.4541,.2686,.3213,1.1162,1.0547,2.543,2.1992,1.4258,1.1455,2.4668,2.1279,3.125,2.9473,.6572,.8203,1.0596,1.7773,1.208,2.8701,.1475,1.0938-.0664,2.1904-.6426,3.29-.8027,1.5352-1.9854,2.4785-3.5459,2.832-2.0674,.4609-4.2109,.1094-6.4316-1.0527-.8584-.4492-1.6396-.9902-2.3438-1.6221s-1.332-1.3555-1.8818-2.1709Z"/><path d="M341.5117,87.8472c-.4893,1.252-1.3105,2.3281-2.4639,3.2295s-2.5527,1.4307-4.1982,1.5889-3.2168-.0547-4.7129-.6396c-1.4863-.5801-2.7744-1.4785-3.8652-2.6934s-1.7617-2.5508-2.0127-4.0068c-.251-1.4551-.125-2.8252,.377-4.1094,.5098-1.3047,1.3711-2.4453,2.584-3.4209s2.6367-1.5596,4.2715-1.7529,3.1904-.002,4.665,.5752c1.4863,.5801,2.7715,1.5078,3.8584,2.7822,1.0859,1.2744,1.7354,2.6719,1.9482,4.1924,.2139,1.5205,.0635,2.9385-.4512,4.2549Zm-3.2695-1.2598c.4111-1.0498,.4111-2.1631,.002-3.3379-.5654-1.5908-1.6855-2.7139-3.3623-3.3691-1.4756-.5762-2.8906-.585-4.2471-.0264-1.3555,.5596-2.2764,1.459-2.7607,2.7012-.3984,1.0186-.2715,2.166,.3799,3.4414,.6504,1.2764,1.7031,2.1982,3.1572,2.7666,1.4648,.5713,2.8691,.6094,4.2129,.1133,1.3428-.4961,2.2158-1.2588,2.6182-2.2891Z"/><path d="M360.0732,77.817l-4.7812,18.04,4.0635,1.0771c.8154,.2158,1.3545,.5264,1.6182,.9326,.2637,.4053,.3281,.8623,.1943,1.3682-.1318,.4961-.4121,.8545-.8428,1.0762-.4297,.2217-1.0527,.2246-1.8672,.0088l-11.5137-3.0518c-.8154-.2158-1.3545-.5264-1.6182-.9326-.2637-.4053-.3291-.8613-.1943-1.3682,.1309-.4961,.4121-.8545,.8418-1.0762,.4307-.2227,1.0527-.2256,1.8682-.0088l4.0635,1.0771,3.8838-14.6533-2.7256-.7227c-.8047-.2129-1.3408-.5234-1.6104-.9307s-.3359-.8633-.2021-1.3701c.1318-.4961,.4121-.8545,.8418-1.0762,.4307-.2227,1.0527-.2256,1.8682-.0088l6.1123,1.6191Z"/><path d="M385.3584,89.2974l-1.7783,11.8818c.7314,.1094,1.248,.3535,1.5488,.7324,.2998,.3789,.4131,.8223,.3369,1.3291s-.3154,.8945-.7188,1.1631c-.4023,.2676-1.0215,.3389-1.8545,.2148l-3.2959-.4932,.1182-.7949c-1.0586,.3027-2.0557,.499-2.9912,.5889-.9346,.0908-1.8076,.0752-2.6191-.0459-1.1387-.1709-2.0889-.5576-2.8506-1.1611s-1.3223-1.3643-1.6797-2.2822c-.2588-.6602-.3193-1.4473-.1826-2.3604l1.1152-7.4531-.5918-.0889c-.834-.124-1.4043-.374-1.7109-.748s-.4209-.8203-.3438-1.3389c.0762-.5068,.3154-.8945,.7188-1.1631,.4023-.2676,1.0205-.3389,1.8545-.2148l4.0566,.6074-1.543,10.3096c-.1094,.7334-.0127,1.2979,.291,1.6943s.8213,.6494,1.5537,.7598c.6982,.1045,1.4707,.0791,2.3184-.0771,.8467-.1553,1.916-.5049,3.207-1.0488l1.0576-7.0645-1.251-.1875c-.834-.125-1.4043-.374-1.7109-.749-.3066-.374-.4219-.8203-.3438-1.3389,.0752-.5068,.3145-.8945,.7178-1.1621,.4033-.2686,1.0215-.3398,1.8555-.2148l4.7158,.7061Z"/><path d="M398.6748,93.7359l-.3076,7.0176c-.0332,.751,.0986,1.2529,.3955,1.5059,.4619,.3965,1.3066,.6211,2.5361,.6758,1.7871,.0781,3.4541-.2305,5.002-.9268,.5928-.2705,1.0547-.3984,1.3848-.3838,.4551,.0195,.8438,.208,1.1641,.5645,.3213,.3564,.4707,.7793,.4492,1.2686-.0195,.4551-.2197,.8398-.5977,1.1533-.582,.5107-1.7051,.9551-3.3691,1.332s-3.0596,.541-4.1865,.4922c-2.1748-.0957-3.7842-.6367-4.8301-1.624-1.0459-.9863-1.5381-2.1631-1.4785-3.5283l.3379-7.7002-1.2627-.0557c-.8428-.0371-1.4355-.2256-1.7803-.5654-.3447-.3408-.5049-.7725-.4824-1.2959,.0225-.5127,.2207-.9229,.5938-1.2314,.3721-.3086,.9795-.4443,1.8223-.4072l1.2637,.0557,.1387-3.1592c.0371-.8418,.2256-1.4355,.5654-1.7793,.3398-.3447,.7725-.5049,1.2959-.4824,.5117,.0225,.9229,.2207,1.2314,.5928,.3086,.373,.4443,.9805,.4072,1.8232l-.1387,3.1582,6.4707,.2842c.8418,.0371,1.4355,.2256,1.7793,.5654,.3447,.3408,.5059,.7725,.4824,1.2959-.0225,.5127-.2197,.9229-.5928,1.2314s-.9805,.4443-1.8232,.4072l-6.4707-.2842Z"/><path d="M423.2305,90.0826l.6191,11.998,4.1992-.2168c.8418-.043,1.4502,.0879,1.8252,.3936s.5762,.7207,.6035,1.2441c.0264,.5117-.1309,.9385-.4727,1.2812-.3418,.3438-.9336,.5361-1.7754,.5801l-11.8965,.6143c-.8418,.043-1.4502-.0879-1.8252-.3936s-.5762-.7207-.6035-1.2441c-.0264-.5117,.1309-.9395,.4727-1.2822s.9336-.5361,1.7754-.5791l4.1992-.2168-.4395-8.499-2.8154,.1445c-.8311,.043-1.4365-.0879-1.8174-.3936s-.585-.7197-.6123-1.2432c-.0264-.5117,.1318-.9395,.4736-1.2822,.3408-.3428,.9326-.5361,1.7754-.5791l6.3145-.3262Zm-.8203-6.6143l.1914,3.7031-4.165,.2148-.1914-3.7031,4.165-.2148Z"/><path d="M453.3477,94.8326c.1836,1.332-.0088,2.6719-.5762,4.0205-.5674,1.3496-1.5312,2.4941-2.8916,3.4346-1.3594,.9404-2.835,1.5205-4.4268,1.7393-1.5801,.2178-3.1426,.0615-4.6875-.4668-1.5449-.5293-2.7822-1.3682-3.7109-2.5176-.9287-1.1484-1.4863-2.4053-1.6748-3.7715-.1904-1.3877,.0049-2.8037,.5889-4.2471,.583-1.4434,1.542-2.6475,2.875-3.6133,1.333-.9648,2.7842-1.5557,4.3535-1.7725,1.5801-.2168,3.1543-.0342,4.7246,.5488,1.5693,.584,2.8184,1.4873,3.7451,2.7109,.9277,1.2236,1.4883,2.5352,1.6807,3.9346Zm-3.4688,.4941c-.1533-1.1172-.6953-2.0889-1.626-2.915-1.2686-1.1133-2.7949-1.5479-4.5781-1.3027-1.5693,.2168-2.8086,.8994-3.7207,2.0479-.9111,1.1494-1.2754,2.3838-1.0938,3.7041,.1484,1.084,.8184,2.0244,2.0098,2.8203,1.1904,.7969,2.5586,1.0879,4.1055,.875,1.5576-.2139,2.8018-.8652,3.7334-1.9541,.9307-1.0879,1.3213-2.1797,1.1699-3.2754Z"/><path d="M461.2705,85.0396l.248,1.1533c.5088-.6689,1.1104-1.2178,1.8047-1.6475,.6943-.4287,1.4814-.7383,2.3613-.9277,2.0264-.4355,3.7666-.1514,5.2178,.8525,1.1514,.8018,1.9014,2.0156,2.252,3.6416l1.3691,6.3652c.7236-.1553,1.293-.1123,1.707,.1309,.4131,.2432,.6748,.6211,.7852,1.1338,.1084,.501,.0205,.9482-.2617,1.3408-.2832,.3936-.8359,.6787-1.6602,.8555l-3.0908,.665c-.8252,.1777-1.4463,.1455-1.8652-.0967s-.6836-.6191-.7939-1.1318c-.1084-.501-.0234-.9473,.2529-1.3389,.2773-.3916,.7773-.666,1.502-.8213l-1.3916-6.4658c-.1602-.7461-.4785-1.249-.9531-1.5078-.6201-.333-1.4531-.3867-2.5-.1621-.791,.1709-1.4512,.4727-1.9814,.9072-.5293,.4346-1.1445,1.2461-1.8447,2.4336l1.3701,6.3652c.8789-.1885,1.4658-.2275,1.7578-.1152,.6172,.2158,.9961,.6475,1.1348,1.2939,.1084,.501,.0205,.9482-.2617,1.3408-.2832,.3926-.8359,.6777-1.6602,.8555l-3.8936,.8379c-.8242,.1768-1.4453,.1445-1.8643-.0977-.4199-.2412-.6846-.6182-.7949-1.1309-.1338-.624,.0293-1.166,.4893-1.626,.2314-.2246,.7871-.4316,1.667-.6211l-1.79-8.3203c-.7236,.1553-1.293,.1094-1.708-.1396-.415-.248-.6758-.624-.7842-1.125-.1074-.501-.0205-.9482,.2627-1.3408,.2822-.3936,.835-.6777,1.6602-.8555l3.2578-.7012Z"/></g><g><path d="M824.4893,65.8004c-.0674,.4717-.1533,.8008-.2588,.9873s-.2734,.3525-.5049,.498c-.4551,.2832-.9141,.3594-1.3799,.2266-.4658-.1318-.9189-.5508-1.3594-1.2559l-1.25-2c-.4473-.7148-.6279-1.3105-.543-1.7871,.0859-.4766,.3545-.8564,.8096-1.1406,.3477-.2168,.6973-.3076,1.0488-.2725,.3506,.0361,.7236,.2295,1.1182,.5811s.707,.5625,.9395,.6318c.4668,.125,1.1553,.1182,2.0635-.0195s1.7871-.4727,2.6377-1.0039c1.3232-.8271,2.2168-1.8154,2.6807-2.9648,.3057-.7158,.2861-1.3486-.0576-1.8994-.2295-.3662-.5762-.6309-1.0391-.791-.4629-.1611-1.0557-.1631-1.7783-.0078-.4766,.0967-1.4658,.4395-2.9648,1.0273-1.8105,.7148-3.2637,1.1201-4.3604,1.2139-1.0967,.0947-2.1279-.0938-3.0947-.5654-.9658-.4707-1.7295-1.1553-2.291-2.0547-.8877-1.4199-1.0713-3.0352-.5498-4.8457,.5215-1.8096,1.7334-3.3096,3.6367-4.499,.7627-.4775,1.5234-.835,2.2812-1.0732,.7578-.2393,1.5117-.3506,2.2598-.335,.1514-.6182,.4199-1.0479,.8066-1.2891,.4346-.2725,.8848-.3418,1.3506-.21,.4648,.1328,.9189,.5518,1.3594,1.2568l1.3945,2.2314c.4473,.7148,.6279,1.3105,.543,1.7871s-.3457,.8506-.7803,1.1221c-.3672,.2295-.7549,.3184-1.165,.2646-.3145-.0312-.6797-.2598-1.0938-.6865-.4141-.4258-.7695-.6943-1.0674-.8047-.5098-.1914-1.123-.2383-1.8398-.1387-.7178,.0986-1.4434,.3779-2.1777,.8369-1.0723,.6699-1.7646,1.4482-2.0771,2.3359-.3115,.8867-.2988,1.6006,.0391,2.1416,.2295,.3672,.5791,.6426,1.0498,.8252,.4707,.1836,1.0127,.2168,1.626,.1025,.4131-.0703,1.4736-.4307,3.1826-1.082s3.083-1.0537,4.123-1.207c1.04-.1523,2.0684-.0166,3.0869,.4092,1.0176,.4248,1.8564,1.1641,2.5146,2.2168,.918,1.4688,1.1348,2.9658,.6504,4.4912-.6475,2.0166-2.0342,3.6895-4.1602,5.0176-.8213,.5137-1.6826,.9141-2.584,1.2021s-1.8428,.4629-2.8252,.5264Z"/><path d="M852.5059,42.2066c.6289,1.1885,.9082,2.5137,.8379,3.9756s-.582,2.8672-1.5371,4.2178c-.9551,1.3496-2.1416,2.4004-3.5615,3.1523-1.4102,.7461-2.9307,1.1357-4.5635,1.1689s-3.082-.3301-4.3486-1.0908-2.2217-1.75-2.8672-2.9678c-.6562-1.2393-.958-2.6357-.9043-4.1914,.0527-1.5557,.54-3.0156,1.4609-4.3809,.9209-1.3643,2.0811-2.417,3.4814-3.1582,1.4092-.7461,2.9512-1.1143,4.626-1.1055,1.6738,.0098,3.1572,.4297,4.4482,1.2607s2.2666,1.8711,2.9277,3.1191Zm-3.0879,1.6553c-.5283-.9971-1.3701-1.7236-2.5283-2.1807-1.5732-.6104-3.1562-.4951-4.7471,.3477-1.3994,.7412-2.3301,1.8076-2.792,3.1992-.4619,1.3926-.3809,2.6768,.2432,3.8555,.5117,.9658,1.4639,1.6191,2.8555,1.959s2.7764,.1445,4.1562-.5869c1.3896-.7354,2.335-1.7744,2.8359-3.1162,.502-1.3418,.4941-2.501-.0234-3.4775Z"/><path d="M860.2451,22.7203l7.3252,17.1641,3.8672-1.6504c.7754-.3311,1.3916-.417,1.8486-.2598,.458,.1582,.79,.4785,.9951,.96,.2012,.4717,.2012,.9268-.002,1.3662-.2021,.4404-.6914,.8252-1.4668,1.1562l-10.9561,4.6758c-.7754,.3311-1.3916,.418-1.8486,.2598-.458-.1582-.79-.4775-.9951-.96-.2012-.4717-.2012-.9268,.002-1.3662,.2021-.4395,.6914-.8252,1.4668-1.1562l3.8672-1.6494-5.9512-13.9424-2.5928,1.1064c-.7656,.3271-1.3789,.4121-1.8418,.2568s-.7969-.4746-1.0029-.9561c-.2012-.4717-.2002-.9277,.002-1.3672,.2031-.4395,.6914-.8242,1.4668-1.1553l5.8164-2.4824Z"/><path d="M889.8066,19.2994l3.6211,11.4551c.7061-.2227,1.2773-.2305,1.7139-.0215s.7314,.5566,.8867,1.0459c.1543,.4893,.1094,.9424-.1348,1.3604-.2451,.417-.7686,.7529-1.5723,1.0078l-3.1777,1.0039-.2422-.7656c-.8184,.7363-1.6279,1.3516-2.4287,1.8428-.8008,.4922-1.5918,.8623-2.374,1.1094-1.0967,.3467-2.1201,.416-3.0703,.209-.9502-.208-1.7871-.6455-2.5117-1.3125-.5225-.4805-.9229-1.1602-1.2002-2.04l-2.2715-7.1865-.5703,.1807c-.8047,.2539-1.4268,.2803-1.8662,.0791-.4404-.2012-.7393-.5518-.8975-1.0518-.1543-.4893-.1094-.9424,.1348-1.3604,.2441-.417,.7686-.7529,1.5723-1.0078l3.9111-1.2363,3.1416,9.9404c.2236,.7061,.5586,1.1709,1.0059,1.3936,.4463,.2236,1.0234,.2236,1.7295,0,.6729-.2129,1.3564-.5752,2.0488-1.0869s1.5-1.2949,2.4209-2.3506l-2.1533-6.8115-1.2061,.3809c-.8037,.2539-1.4258,.2803-1.8662,.0791-.4395-.2012-.7393-.5518-.8965-1.0518-.1553-.4893-.1104-.9424,.1348-1.3604,.2441-.417,.7676-.7529,1.5723-1.0078l4.5459-1.4365Z"/><path d="M904.8604,19.4127l1.3564,6.8926c.1455,.7373,.3916,1.1943,.7402,1.3691,.542,.2764,1.417,.2959,2.624,.0586,1.7549-.3457,3.3018-1.0391,4.6416-2.0811,.5127-.4023,.9307-.6367,1.2559-.7002,.4463-.0879,.8682,.0029,1.2637,.2734s.6416,.6465,.7363,1.127c.0879,.4473-.0156,.8682-.3096,1.2627-.4443,.6338-1.4307,1.3301-2.959,2.0889-1.5283,.7598-2.8457,1.249-3.9521,1.4668-2.1357,.4199-3.8271,.2744-5.0762-.4385-1.25-.7119-2.0059-1.7383-2.2705-3.0801l-1.4883-7.5625-1.2412,.2451c-.8271,.1621-1.4482,.1191-1.8633-.1299-.4141-.249-.6729-.6309-.7734-1.1455-.0996-.5029-.0039-.9482,.2852-1.3359,.29-.3887,.8477-.6641,1.6748-.8262l1.2412-.2451-.6104-3.1016c-.1631-.8271-.1201-1.4482,.1289-1.8633,.25-.415,.6309-.6729,1.1455-.7744,.5029-.0986,.9482-.0039,1.3369,.2861,.3877,.2891,.6631,.8477,.8252,1.6748l.6113,3.1025,6.3545-1.252c.8271-.1621,1.4482-.1191,1.8633,.1299s.6729,.6309,.7744,1.1455c.0986,.5029,.0039,.9482-.2852,1.3359-.29,.3887-.8486,.6641-1.6758,.8262l-6.3545,1.251Z"/><path d="M929.7461,12.6246l.8262,11.9854,4.1943-.2891c.8408-.0576,1.4512,.0635,1.832,.3623,.3799,.2998,.5889,.7109,.624,1.2334,.0352,.5117-.1143,.9414-.4502,1.29s-.9248,.5518-1.7656,.6094l-11.8828,.8193c-.8418,.0576-1.4521-.0635-1.833-.3623-.3799-.2998-.5879-.71-.624-1.2334-.0352-.5117,.1152-.9414,.4502-1.29,.3359-.3486,.9248-.5518,1.7656-.6094l4.1943-.2891-.585-8.4912-2.8135,.1943c-.8291,.0566-1.4375-.0635-1.8232-.3633-.3867-.2988-.5977-.709-.6328-1.2324-.0352-.5117,.1143-.9414,.4502-1.29s.9238-.5518,1.7656-.6094l6.3076-.4346Zm-.9336-6.5996l.2549,3.7002-4.1602,.2861-.2549-3.7002,4.1602-.2861Z"/><path d="M959.8115,21.3482c-.0898,1.3418-.5498,2.6162-1.3779,3.8223-.8291,1.2061-2.0039,2.1318-3.5264,2.7773-1.5225,.6465-3.084,.916-4.6875,.8086-1.5918-.1074-3.0898-.5762-4.4961-1.4062-1.4062-.8311-2.4473-1.9033-3.124-3.2158-.6777-1.3125-.9697-2.6572-.877-4.0322,.0928-1.3984,.5713-2.7451,1.4355-4.041,.8623-1.2949,2.0449-2.2803,3.5459-2.9561,1.502-.6758,3.042-.9609,4.6221-.8555,1.5918,.1074,3.0967,.6045,4.5166,1.4932,1.4189,.8896,2.459,2.0264,3.1191,3.4121,.6611,1.3867,.9443,2.7842,.8496,4.1934Zm-3.4971-.2168c.0762-1.125-.2588-2.1865-1.002-3.1846-1.0176-1.3467-2.4248-2.0811-4.2207-2.2012-1.5801-.1064-2.9326,.3115-4.0576,1.252-1.125,.9414-1.7314,2.0762-1.8213,3.4062-.0732,1.0918,.3926,2.1484,1.3975,3.1689s2.2861,1.583,3.8438,1.6875c1.5693,.1055,2.9189-.2812,4.0518-1.1582,1.1318-.8779,1.7354-1.8682,1.8086-2.9707Z"/><path d="M970.958,15.1744l-.2451,1.1533c.7373-.4023,1.5107-.6572,2.3203-.7637,.8086-.1074,1.6533-.0674,2.5342,.1201,2.0273,.4316,3.498,1.4033,4.4111,2.9141,.7227,1.2021,.9111,2.6162,.5645,4.2432l-1.3564,6.3691c.7246,.1543,1.2256,.4268,1.5029,.8174,.2783,.3916,.3623,.8438,.2529,1.3564-.1064,.501-.3691,.873-.7881,1.1162-.418,.2422-1.04,.2764-1.8643,.1006l-3.0928-.6582c-.8242-.1758-1.3779-.46-1.6621-.8525-.2832-.3916-.3701-.8447-.2607-1.3574,.1064-.501,.3662-.874,.7793-1.1182s.9814-.2891,1.7061-.1348l1.3779-6.4688c.1592-.7461,.0742-1.335-.2529-1.7656-.4287-.5576-1.167-.9473-2.2148-1.1709-.791-.168-1.5176-.1631-2.1787,.0166s-1.5547,.668-2.6797,1.4648l-1.3555,6.3682c.8799,.1875,1.4307,.3926,1.6514,.6143,.4746,.4502,.6436,.999,.5059,1.6455-.1074,.501-.3701,.873-.7881,1.1162-.4189,.2432-1.041,.2764-1.8652,.1006l-3.8945-.8291c-.8252-.1758-1.3789-.46-1.6621-.8516-.2832-.3926-.3701-.8447-.2617-1.3574,.1328-.624,.5039-1.0518,1.1123-1.2832,.3027-.1104,.8945-.0723,1.7754,.1152l1.7725-8.3242c-.7246-.1543-1.2246-.4297-1.501-.8262-.2773-.3965-.3623-.8457-.2549-1.3477,.1064-.501,.3691-.873,.7881-1.1162,.418-.2422,1.04-.2764,1.8643-.1006l3.2598,.6943Z"/></g></svg>