<?xml version="1.0" encoding="UTF-8"?><svg id="Layer_1" xmlns="http://www.w3.org/2000/svg" width="294" height="120.2761" viewBox="0 0 294 120.2761"><defs><style>.cls-1{fill:none;stroke:#000;stroke-linecap:round;stroke-linejoin:round;stroke-width:5px;}</style></defs><g><path class="cls-1" d="M163.5458,55.4617c-4.6666-3-9.3334-6-14-9l-27.9231,.1538v18.8462h-9.0769l9.0769,50.5993h82.9231V55.3153c-13.6666,.0488-27.3334,.0976-41,.1464Z"/><polyline class="cls-1" points="204.6227 116.061 195.5458 65.4617 121.6227 65.4617"/></g><g><path d="M56.917,86.9005l-3.2822,2.0898,.1953,1.0332,.3291-.21c.3252-.207,.5967-.292,.8154-.2549,.2178,.0371,.3916,.1572,.5195,.3594,.126,.1973,.1592,.4033,.1006,.6162-.0586,.2139-.25,.4238-.5752,.6309l-1.8193,1.1572c-.3252,.207-.5967,.292-.8145,.2549-.2188-.0371-.3916-.1562-.5205-.3584s-.1611-.4131-.0967-.6328c.0635-.2197,.2656-.4316,.6045-.6357l-1.2422-6.6357-.8828,.5615c-.3252,.207-.5967,.292-.8154,.2549-.2178-.0371-.3916-.1562-.5195-.3584-.1289-.2021-.1641-.4102-.1055-.623,.0586-.2139,.251-.4238,.5762-.6309l2.9238-1.8516,6.9131,4.9248c.3164-.2012,.5479-.2988,.6934-.293,.2939,.0166,.5176,.1426,.668,.3799,.126,.1982,.1611,.4033,.1045,.6152s-.248,.4209-.5723,.6279l-1.8193,1.1582c-.3252,.207-.5967,.292-.8145,.2549-.2188-.0381-.3916-.1572-.5205-.3594-.126-.1973-.1592-.4033-.1006-.6162,.0586-.2139,.25-.4238,.5752-.6309l.3301-.21-.8477-.6182Zm-1.4199-.9941l-2.791-1.9834,.6094,3.3721,2.1816-1.3887Z"/><path d="M70.4521,71.1222c-.293,.0918-.5635,.2197-.8115,.3838s-.4746,.3643-.6787,.6006c-.4053,.4697-.6494,.9082-.7344,1.3174-.0381,.1797-.0186,.3037,.0605,.3721,.0908,.0781,.251,.0723,.4805-.0186,.1719-.0723,.4766-.3008,.9131-.6875,.8057-.709,1.3984-1.1738,1.7812-1.3936,.5039-.2881,.9961-.4199,1.4775-.3965,.4824,.0234,.8828,.1738,1.2021,.4492,.4336,.374,.6309,.8789,.5928,1.5127-.0518,.9121-.4551,1.8057-1.21,2.6816-.3037,.3506-.6143,.6484-.9316,.8936-.3184,.2441-.6436,.4404-.9766,.5859,0,.1035-.0146,.2012-.0449,.292s-.0762,.1719-.1377,.2422c-.1631,.1895-.3555,.2871-.5762,.292-.2217,.0049-.4775-.1182-.7695-.3701l-.4082-.3525c-.292-.252-.4512-.4873-.4785-.707s.0381-.4199,.1943-.6016c.126-.1455,.2715-.2324,.4375-.2617,.166-.0283,.3711,.0146,.6162,.1289,.3174-.0488,.6289-.1689,.9346-.3594s.6045-.4551,.8975-.7939c.4795-.5557,.7656-1.0625,.8574-1.5195,.0391-.2207,.0117-.3721-.083-.4541-.1572-.1357-.3779-.1436-.6611-.0234-.2822,.1211-.7422,.4775-1.3779,1.0703-.9434,.8857-1.7021,1.3662-2.2764,1.4414-.5703,.0791-1.0664-.0645-1.4883-.4287-.4336-.374-.6357-.8682-.6064-1.4834,.0342-.8379,.3984-1.6582,1.0928-2.4619,.2422-.2803,.501-.5264,.7773-.7383,.2754-.2129,.5713-.3896,.8857-.5303,.0098-.123,.0283-.2285,.0566-.3174,.0293-.0889,.0674-.1611,.1152-.2158,.1426-.166,.3232-.25,.543-.2539,.2197-.0029,.4756,.1211,.7666,.373l.2959,.2559c.2646,.2275,.416,.4141,.457,.5586,.0723,.2832,.0146,.5332-.1729,.75-.126,.1455-.2812,.2344-.4678,.2666-.1855,.0322-.3672-.001-.5439-.0986Z"/><path d="M74.9189,64.3214l2.752,1.6543c.2949,.1768,.5254,.2334,.6914,.1699,.2598-.0996,.5352-.3896,.8252-.8721,.4209-.7012,.6602-1.4375,.7178-2.2119,.0215-.2969,.0703-.5107,.1484-.6396,.1074-.1787,.2676-.2939,.4805-.3447s.416-.0195,.6074,.0957c.1787,.1074,.29,.2715,.333,.4922,.0791,.3447,.0117,.8936-.1992,1.6445-.2119,.751-.4502,1.3467-.7158,1.7891-.5127,.8525-1.0811,1.3818-1.7051,1.5859-.625,.2051-1.2051,.1465-1.7402-.1748l-3.0205-1.8154-.2979,.4951c-.1982,.3311-.4033,.5273-.6152,.5918s-.4199,.0352-.626-.0889c-.2002-.1211-.3223-.2891-.3652-.5068-.042-.2168,.0352-.4902,.2344-.8213l.2979-.4951-1.2393-.7441c-.3301-.1992-.5273-.4043-.5918-.6162-.0635-.2119-.0342-.4199,.0889-.625,.1211-.2012,.29-.3232,.5068-.3652,.2178-.043,.4912,.0352,.8213,.2334l1.2393,.7441,1.5254-2.5371c.1982-.3311,.4033-.5283,.6152-.5918,.2119-.0645,.4199-.0352,.625,.0889,.2012,.1201,.3232,.2891,.3662,.5068,.042,.2168-.0352,.4902-.2344,.8213l-1.5254,2.5371Z"/><path d="M83.1367,51.7999c.5693,.2324,1.0557,.6162,1.459,1.1494,.4033,.5342,.6348,1.1777,.6953,1.9307,.0605,.7539-.0488,1.4697-.3262,2.1494-.2764,.6748-.6963,1.2578-1.2598,1.7471-.5635,.4902-1.1787,.7871-1.8457,.8906-.667,.1045-1.293,.0371-1.876-.2021-.5928-.2422-1.1074-.6445-1.5449-1.2061s-.6934-1.2158-.7705-1.9648c-.0762-.749,.0234-1.458,.2969-2.1279,.2764-.6748,.71-1.2559,1.2998-1.7432,.5908-.4873,1.2344-.7744,1.9307-.8604,.6973-.0869,1.3438-.0078,1.9414,.2373Zm-.5986,1.4854c-.4775-.1953-.9863-.2041-1.5264-.0254-.7314,.2471-1.2529,.751-1.5645,1.5127-.2744,.6699-.2881,1.3164-.043,1.9404,.2461,.624,.6504,1.0508,1.2148,1.2822,.4629,.1895,.9883,.1396,1.5762-.1484,.5879-.2891,1.0166-.7627,1.2871-1.4238,.2715-.665,.2998-1.3066,.082-1.9248-.2168-.6172-.5586-1.0215-1.0264-1.2129Z"/><path d="M81.4814,45.2345l.9434,.333c-.2334-.7949-.3604-1.4023-.3838-1.8213-.0225-.4199,.0225-.7891,.1348-1.1084,.1738-.4912,.5244-.9033,1.0508-1.2363,.3564-.2275,.6631-.2959,.918-.2061,.2158,.0771,.3721,.2158,.4697,.4189,.0967,.2031,.1074,.4102,.0332,.6211-.0664,.1865-.2295,.3496-.4883,.4902-.2598,.1396-.418,.291-.4756,.4531-.0752,.2109-.0537,.5732,.0625,1.0869,.1172,.5137,.3291,1.1787,.6377,1.9951l2.2754,.8047,.7607-2.1514c.1289-.3633,.29-.5977,.4854-.7021,.1943-.1055,.4043-.1182,.6309-.0381,.2207,.0781,.374,.2188,.459,.4229,.085,.2051,.0635,.4883-.0654,.8516l-1.6123,4.5596c-.1279,.3633-.29,.5977-.4844,.7031-.1943,.1045-.4043,.1172-.6309,.0371-.2207-.0781-.374-.2188-.459-.4229s-.0635-.4883,.0645-.8516l.3184-.8984-3.668-1.2969-.1934,.5449c-.1279,.3633-.29,.5977-.4844,.7031-.1943,.1045-.4053,.1172-.6309,.0371-.2207-.0781-.374-.2188-.459-.4229-.0859-.2041-.0645-.4883,.0645-.8516l.7266-2.0547Z"/><path d="M91.4551,38.9913l-6.1016,.1689c-.1406,.2217-.3057,.3623-.4951,.4219s-.3789,.0449-.5674-.0449c-.2158-.1025-.3564-.2607-.4199-.4727s-.0117-.4912,.1533-.8398l.6279-1.3193c.165-.3477,.3506-.5635,.5547-.6484,.2051-.084,.415-.0752,.6318,.0283,.2109,.1006,.3486,.2568,.4121,.4688,.0645,.2119,.0195,.4775-.1328,.7979l4.1357-.127-2.5176-3.2734c-.1475,.3096-.3242,.5078-.5283,.5918-.2051,.084-.415,.0752-.6318-.0283-.2109-.1006-.3486-.2568-.4121-.4688s-.0127-.4912,.1523-.8398l.6484-1.3613c.1631-.3438,.3467-.5576,.5518-.6416,.2041-.084,.415-.0752,.6309,.0273,.1934,.0918,.3262,.2334,.3994,.4238,.0742,.1914,.0615,.416-.0391,.6738l4.9561,6.4238c.1719-.3623,.3203-.583,.4443-.6621,.2529-.1562,.5137-.1709,.7822-.0439,.2119,.1006,.3486,.2578,.4131,.4697,.0635,.2119,.0117,.4912-.1533,.8398l-1.5,3.1533c-.166,.3477-.3506,.5645-.5557,.6484-.2041,.084-.4121,.0762-.624-.0244-.2168-.1025-.3564-.2607-.4199-.4727s-.0127-.4912,.1533-.8398l.6846-1.4385-1.2334-1.5908Z"/><path d="M101.7256,21.297l.9385,3.0117-1.1895,.9258-4.4336-3.5078c-.2402,.167-.4639,.2373-.6729,.2109-.208-.0264-.3809-.127-.5186-.3037-.1436-.1855-.1963-.3867-.1582-.6045s.209-.4453,.5137-.6816l1.1777-.917c.3037-.2363,.5664-.3467,.7871-.3311,.2207,.0166,.4043,.1191,.5518,.3086,.1465,.1895,.1973,.4072,.1523,.6533-.0342,.1855-.2139,.4043-.5391,.6572l2.041,1.6289-.8154-2.6621,1.1221-.873,2.3867,1.4385-1.0664-2.3877c-.3115,.2432-.541,.3721-.6885,.3877-.2959,.0254-.5352-.0781-.7178-.3125-.1436-.1846-.1963-.3867-.1582-.6045s.209-.4453,.5137-.6816l1.1895-.9268c.3037-.2363,.5664-.3467,.7871-.3301s.4043,.1191,.5518,.3076c.1309,.1689,.1855,.3555,.1641,.5605s-.1377,.4023-.3467,.5918l2.3379,5.1396-1.1709,.9121-2.7393-1.6104Z"/><path d="M109.1846,11.8985l2.4219,4.9297,1.7246-.8467c.3457-.1699,.625-.2246,.8379-.1641,.2129,.0615,.3721,.1992,.4775,.4141,.1035,.2109,.1143,.4189,.0322,.624-.082,.2061-.2959,.3936-.6416,.5635l-4.8877,2.4004c-.3457,.1699-.625,.2246-.8379,.1631-.2129-.0605-.3721-.1992-.4775-.4141-.1035-.21-.1143-.418-.0322-.624,.082-.2051,.2959-.3926,.6416-.5625l1.7246-.8477-1.7148-3.4922-1.1572,.5684c-.3408,.168-.6191,.2217-.834,.1621-.2148-.0605-.375-.1973-.4814-.4131-.1025-.21-.1133-.418-.0322-.623,.082-.2061,.2959-.3936,.6426-.5635l2.5938-1.2744Zm-1.5352-2.6309l.7471,1.5215-1.7109,.8398-.748-1.5215,1.7119-.8398Z"/><path d="M118.665,10.0392l.8721,3.0898c.0938,.3311,.2227,.5293,.3877,.5967,.2578,.1055,.6572,.082,1.1982-.0703,.7871-.2227,1.4658-.5957,2.0381-1.1191,.2188-.2031,.4004-.3242,.5459-.3662,.2002-.0566,.3965-.0303,.5869,.0781,.1895,.1094,.3154,.2715,.376,.4863,.0566,.2012,.0254,.3965-.0938,.5869-.1787,.3047-.6025,.6592-1.2715,1.0615-.668,.4023-1.25,.6738-1.7461,.8135-.958,.2705-1.7344,.2666-2.3291-.0117-.5957-.2783-.9785-.7188-1.1484-1.3193l-.958-3.3916-.5557,.1572c-.3711,.1055-.6562,.1084-.8545,.0098-.1982-.0977-.3291-.2627-.3945-.4932-.0635-.2256-.0371-.4316,.0811-.6191,.1172-.1875,.3613-.334,.7324-.4385l.5566-.1572-.3936-1.3906c-.1045-.3711-.1074-.6553-.0098-.8535,.0986-.1982,.2627-.3301,.4941-.3955,.2256-.0635,.4316-.0371,.6191,.0811,.1875,.1172,.333,.3613,.4385,.7324l.3926,1.3906,2.8496-.8047c.3711-.1045,.6553-.1074,.8535-.0098,.1982,.0986,.3301,.2627,.3945,.4932,.0645,.2256,.0371,.4326-.0801,.6201-.1182,.1875-.3623,.333-.7324,.4385l-2.8496,.8047Z"/><path d="M127.0771,3.4815l.4238,3.3877c.3066-.2383,.623-.4258,.9492-.5645,.3262-.1377,.6631-.2285,1.0088-.2715,.5479-.0684,1.0479-.0371,1.501,.0957,.4521,.1318,.8438,.3809,1.1758,.7461s.5361,.8525,.6123,1.4629l.373,2.9844c.4033-.0508,.6719-.0449,.8057,.0176,.2686,.1289,.4209,.3408,.457,.6348,.0293,.2334-.0264,.4326-.1689,.6006-.1416,.167-.4033,.2744-.7861,.3223l-1.8135,.2275c-.3779,.0469-.6562,.0068-.8379-.1201s-.2871-.3086-.3164-.5469c-.0361-.2891,.0596-.5293,.2871-.7207,.1191-.0986,.3779-.1709,.7764-.2148l-.3604-2.876c-.0508-.4082-.1797-.6836-.3867-.8262-.2705-.1914-.6436-.2578-1.1191-.1982-.3516,.0439-.6543,.1514-.9082,.3223s-.583,.5127-.9854,1.0254l.3721,2.9766c.4082-.0508,.6768-.0459,.8057,.0176,.2734,.1279,.4287,.3398,.4648,.6338,.0293,.2334-.0283,.4336-.1729,.6006-.1445,.168-.4072,.2754-.79,.3232l-1.8057,.2266c-.3828,.0479-.665,.0078-.8457-.1191-.1816-.126-.2871-.3086-.3164-.5469-.0361-.2891,.0615-.5293,.2949-.7217,.1143-.0977,.373-.1699,.7764-.2148l-.8613-6.876-.2705,.0332c-.3828,.0479-.665,.0088-.8457-.1182-.1816-.127-.2871-.3096-.3164-.5469-.0293-.2324,.0283-.4326,.1729-.6006,.1436-.167,.4072-.2754,.79-.3232l1.8604-.2324Z"/><path d="M143.8213,9.3067c.002,.6143-.167,1.21-.5059,1.7861-.3398,.5771-.8457,1.0371-1.5195,1.3799-.6729,.3438-1.377,.5166-2.1113,.5186-.7295,.002-1.4277-.1631-2.0957-.4971s-1.1768-.7891-1.5273-1.3662c-.3516-.5771-.5273-1.1807-.5293-1.8105-.002-.6406,.1729-1.2705,.5254-1.8887,.3516-.6182,.8594-1.1055,1.5225-1.4619s1.3564-.5352,2.0801-.5381c.7295-.002,1.4316,.1768,2.1074,.5361,.6758,.3604,1.1865,.8457,1.5322,1.4561,.3457,.6113,.5195,1.2393,.5215,1.8857Zm-1.6016,.0127c-.002-.5156-.1885-.9893-.5596-1.4199-.5068-.582-1.1719-.8721-1.9951-.8691-.7236,.002-1.3271,.2363-1.8096,.7012-.4834,.4648-.7236,1.002-.7217,1.6113,.002,.5,.248,.9668,.7393,1.4004,.4902,.4336,1.0928,.6484,1.8066,.6465,.7188-.002,1.3223-.2217,1.8096-.6582,.4883-.4365,.7324-.9072,.7305-1.4121Z"/><path d="M153.4883,6.4503l-.5146,5.4688c.3369,.0312,.5781,.1299,.7256,.2959,.1465,.165,.209,.3643,.1865,.5977-.0215,.2334-.1211,.417-.2988,.5488-.1768,.1328-.458,.1807-.8418,.1445l-1.5166-.1426,.0342-.3662c-.4756,.165-.9258,.2793-1.3506,.3438-.4238,.0654-.8232,.0801-1.1963,.0449-.5244-.0498-.9678-.2021-1.3301-.459-.3633-.2568-.6377-.5898-.8242-1-.1348-.2949-.1816-.6523-.1426-1.0723l.3232-3.4307-.2725-.0254c-.3838-.0361-.6504-.1357-.7998-.2988s-.2129-.3643-.1904-.6025c.0225-.2334,.1221-.416,.2988-.5488,.1777-.1318,.458-.1807,.8418-.1445l1.8662,.1758-.4463,4.7451c-.0312,.3369,.0264,.5918,.1748,.7656s.3916,.2764,.7285,.3076c.3213,.0303,.6738,0,1.0566-.0928,.3828-.0918,.8613-.2783,1.4375-.5586l.3057-3.251-.5752-.0547c-.3838-.0361-.6504-.1357-.7998-.2988s-.2129-.3643-.1904-.6025c.0215-.2334,.1211-.416,.2988-.5488,.1768-.1318,.458-.1807,.8418-.1445l2.1699,.2041Z"/><path d="M159.7383,9.0333l-.5498,3.1641c-.0596,.3389-.0293,.5732,.0908,.7051,.1865,.207,.5566,.3594,1.1104,.4551,.8057,.1406,1.5801,.0977,2.3223-.127,.2842-.0879,.501-.1191,.6504-.0928,.2051,.0352,.3701,.1436,.4941,.3232,.125,.1807,.168,.3809,.1299,.6016-.0361,.2051-.1484,.3682-.3389,.4883-.293,.1973-.8281,.333-1.6055,.4072-.7764,.0732-1.4189,.0654-1.9268-.0225-.9805-.1709-1.6787-.5098-2.0947-1.0186s-.5713-1.0713-.4639-1.6865l.6045-3.4717-.5703-.0986c-.3799-.0664-.6377-.1865-.7734-.3604-.1367-.1748-.1836-.3799-.1426-.6162,.04-.2305,.1533-.4053,.3408-.5234,.1865-.1182,.4697-.1445,.8496-.0781l.5703,.0996,.2471-1.4248c.0664-.3789,.1865-.6377,.3613-.7734,.1738-.1357,.3789-.1836,.6152-.1426,.2305,.04,.4053,.1533,.5234,.3408s.1445,.4707,.0781,.8506l-.248,1.4238,2.917,.5068c.3799,.0664,.6377,.1865,.7744,.3613,.1357,.1738,.1836,.3789,.1426,.6152-.04,.2305-.1533,.4053-.3408,.5234s-.4707,.1445-.8506,.0781l-2.917-.5078Z"/><path d="M179.2363,16.2755l-1.9072,2.5127-1.4453-.4307,.2812-5.6475c-.2744-.0977-.4619-.2393-.5625-.4238-.0996-.1846-.1172-.3848-.0537-.5996,.0674-.2246,.2002-.3848,.4004-.4795,.1992-.0957,.4834-.0879,.8535,.0215l1.4297,.4268c.3691,.1104,.6113,.2598,.7266,.4492,.1143,.1885,.1377,.3984,.0693,.6279s-.2158,.3975-.4434,.5029c-.1709,.0801-.4531,.0605-.8477-.0566l-.1406,2.6074,1.6934-2.21,1.3633,.4062,.2148,2.7793,1.3242-2.2549c-.3799-.1133-.6182-.2246-.7148-.3359-.1943-.2256-.248-.4814-.1631-.7656,.0664-.2246,.2002-.3848,.3994-.4795,.2002-.0957,.4844-.0889,.8535,.0215l1.4453,.4307c.3691,.1104,.6113,.2598,.7256,.4492,.1152,.1885,.1387,.3984,.0703,.6279-.0615,.2051-.1816,.3574-.3613,.459s-.4072,.1221-.6826,.0615l-2.8271,4.8887-1.4219-.4248-.2793-3.1641Z"/><path d="M192.876,20.2911c-.2012,.5811-.5576,1.0869-1.0684,1.5195-.5107,.4316-1.1406,.6982-1.8896,.7998-.749,.1006-1.4707,.0312-2.165-.209-.6885-.2393-1.293-.626-1.8125-1.1621s-.8496-1.1338-.9902-1.7949c-.1406-.6602-.1074-1.2881,.0996-1.8838,.21-.6055,.583-1.1416,1.1201-1.6084,.5361-.4668,1.1768-.7588,1.9199-.876,.7441-.1172,1.457-.0576,2.1416,.1797,.6885,.2393,1.292,.6406,1.8115,1.2031,.5186,.5635,.8398,1.1904,.9639,1.8809s.0811,1.3418-.1309,1.9512Zm-1.5156-.5176c.1689-.4863,.1494-.9951-.0586-1.5244-.2861-.7168-.8174-1.21-1.5957-1.4795-.6836-.2373-1.3301-.2168-1.9395,.0625-.6104,.2793-1.0146,.707-1.2139,1.2832-.1641,.4717-.0859,.9941,.2344,1.5654,.3193,.5713,.8164,.9736,1.4912,1.207,.6787,.2363,1.3213,.2285,1.9258-.0225,.6055-.25,.9902-.6143,1.1562-1.0918Z"/><path d="M199.4014,18.8341l-.3564,.9336c.7998-.2129,1.4102-.3252,1.8301-.3379,.4199-.0117,.7891,.042,1.1045,.1631,.4873,.1855,.8906,.5459,1.21,1.0801,.2188,.3623,.2793,.6699,.1836,.9229-.082,.2139-.2256,.3672-.4307,.459s-.4121,.0977-.6211,.0176c-.1855-.0703-.3447-.2373-.4785-.5s-.2812-.4248-.4414-.4863c-.209-.0801-.5723-.0684-1.0879,.0361-.5166,.1035-1.1865,.2998-2.0098,.5869l-.8613,2.2559,2.1309,.8135c.3604,.1377,.5908,.3047,.6914,.502,.0996,.1973,.1074,.4082,.0215,.6318-.083,.2188-.2285,.3682-.4346,.4482s-.4893,.0518-.8496-.0859l-4.5176-1.7246c-.3604-.1377-.5898-.3047-.6904-.502s-.1074-.4082-.0225-.6318c.084-.2188,.2285-.3682,.4346-.4482s.4893-.0518,.8496,.0859l.8906,.3398,1.3877-3.6348-.54-.2061c-.3604-.1377-.5908-.3047-.6904-.502-.1006-.1973-.1084-.4082-.0225-.6318,.083-.2188,.2285-.3682,.4346-.4482,.2061-.0811,.4893-.0518,.8496,.0859l2.0361,.7773Z"/><path d="M213.8145,21.5978l-3.5088,7.7764,.25,.1123c.3457,.1572,.5645,.3369,.6562,.541,.0908,.2031,.0869,.415-.0117,.6328-.0967,.2139-.25,.3545-.4609,.4229-.21,.0674-.4912,.0225-.8428-.1367l-1.709-.7705,.1611-.3564c-.4209,.0449-.835,.0352-1.2432-.0293s-.8066-.1836-1.1963-.3594c-1.0967-.4951-1.8359-1.21-2.2197-2.1465-.3838-.9355-.3623-1.876,.0645-2.8203,.4453-.9873,1.1768-1.6719,2.1943-2.0527s2.0322-.3428,3.043,.1133c.3799,.1709,.7266,.3975,1.0391,.6787,.3135,.2812,.5957,.6191,.8467,1.0117l.8193-1.8154-.249-.1123c-.3516-.1592-.5713-.3398-.6602-.542-.0879-.2031-.084-.4111,.0117-.625,.0986-.2188,.2529-.3613,.4639-.4297,.2109-.0674,.4912-.0225,.8428,.1367l1.709,.7705Zm-4.2549,5.5371c.2715-.6025,.291-1.209,.0566-1.8174-.2334-.6084-.6572-1.0508-1.2695-1.3271-.6074-.2734-1.2168-.2969-1.8281-.0703-.6104,.2275-1.0488,.6348-1.3145,1.2236-.2422,.5371-.251,1.0625-.0264,1.5781s.6826,.9297,1.376,1.2422c.6885,.3105,1.3027,.3809,1.8428,.21s.9277-.5166,1.1631-1.0391Z"/><path d="M219.1396,29.8702c-.1543-.2646-.3398-.499-.5547-.7051-.2158-.2051-.4619-.3809-.7383-.5273-.5479-.2891-1.0303-.4297-1.4473-.4209-.1836,.0029-.3008,.0498-.3486,.1426-.0566,.1055-.0146,.2598,.125,.4639,.1084,.1514,.3994,.3975,.874,.7363,.8711,.626,1.4561,1.1006,1.7568,1.4248,.3926,.4258,.6318,.877,.7158,1.3516,.085,.4746,.0283,.8984-.1689,1.2715-.2676,.5068-.7158,.8115-1.3418,.916-.9014,.1543-1.8623-.0391-2.8838-.5801-.4102-.2168-.7695-.4531-1.0791-.708-.3105-.2559-.5732-.5293-.79-.8203-.1016,.0225-.1992,.0303-.2939,.0205-.0957-.0088-.1846-.0352-.2676-.0791-.2207-.1172-.3584-.2832-.4131-.4971-.0547-.2148,.0078-.4922,.1885-.833l.252-.4766c.1807-.3408,.375-.5488,.583-.624s.417-.0576,.6289,.0547c.1709,.0898,.2881,.2129,.3535,.3682s.0693,.3652,.0117,.6289c.1191,.2988,.3047,.5762,.5586,.8311s.5791,.4873,.9756,.6973c.6484,.3438,1.2061,.5088,1.6729,.4961,.2236-.0107,.3652-.0713,.4229-.1816,.0977-.1846,.0566-.4014-.124-.6494-.1807-.249-.6318-.6172-1.3516-1.1045-1.0742-.7217-1.7119-1.3535-1.9131-1.8965-.2041-.5381-.1758-1.0537,.085-1.5469,.2676-.5059,.7041-.8135,1.3105-.9229,.8232-.1533,1.7051,.0186,2.6445,.5146,.3262,.1738,.624,.3711,.8926,.5928s.5068,.4697,.7148,.7451c.1221-.0186,.2295-.0234,.3223-.0156s.1719,.0293,.2363,.0635c.1934,.1025,.3154,.2598,.3682,.4736,.0518,.2129-.0127,.4902-.1924,.8301l-.1826,.3457c-.1631,.3086-.3115,.498-.4434,.5693-.2598,.1338-.5156,.1338-.7686,0-.1709-.0898-.292-.2217-.3652-.3965-.0723-.1738-.0811-.3584-.0254-.5527Z"/></g></svg>