<?xml version="1.0" encoding="UTF-8"?><svg id="Layer_2" xmlns="http://www.w3.org/2000/svg" width="1363.2719" height="128.0571" viewBox="0 0 1363.2719 128.0571"><defs><style>.cls-1{fill:none;stroke:#000;stroke-linecap:round;stroke-linejoin:round;stroke-width:5px;}</style></defs><g id="Layer_1-2"><g><g><path class="cls-1" d="M652.5943,52.2333c-4.6666-3-9.3334-6-14-9l-27.9231,.1538v18.8462h-9.0769l9.0769,50.5993h82.9231V52.0868c-13.6666,.0488-27.3334,.0976-41,.1464Z"/><polyline class="cls-1" points="693.6712 112.8326 684.5943 62.2333 610.6712 62.2333"/></g><g><path d="M16.9082,103.4805l2.0205,2.2007,2.1592-1.9829c.5146-.4722,.9727-.71,1.373-.7129,.4014-.0034,.749,.1553,1.042,.4751,.2881,.313,.4131,.6689,.376,1.0684s-.3125,.835-.8271,1.3076l-4.6309,4.2524c-.5146,.4727-.9727,.7104-1.373,.7134-.4014,.0029-.748-.1553-1.042-.4751-.2881-.313-.4111-.6704-.3701-1.0732,.04-.4023,.3145-.8364,.8213-1.3027l.334-.3066-7.6816-8.3643-.334,.3066c-.5146,.4727-.9717,.71-1.373,.7134-.4004,.0029-.748-.1558-1.042-.4756s-.4219-.6792-.3848-1.0786,.3125-.835,.8271-1.3076l4.9326-4.5107c1.4453-1.3276,2.9541-1.9854,4.5234-1.9722,1.5693,.0137,2.874,.5869,3.915,1.7202,.5752,.6255,.9746,1.3477,1.2012,2.1655,.167,.6152,.1855,1.3574,.0557,2.2271-.1309,.8701-.3643,1.6484-.7012,2.3354-.3369,.6875-.9355,1.4268-1.7979,2.2188l-2.0234,1.8579Zm-1.9639-2.1382l1.9814-1.8198c.9316-.8555,1.4775-1.7441,1.6367-2.666,.1602-.9219-.0312-1.6782-.5742-2.2695-.46-.5005-1.083-.7358-1.8691-.7056-.7871,.0298-1.5898,.4219-2.4102,1.1748l-2.4619,2.2607,3.6973,4.0254Z"/><path d="M26.7783,85.3501l1.1787,1.3765c.3535-1.459,.7021-2.5283,1.0459-3.2085,.3438-.6797,.748-1.2192,1.2139-1.6187,.7168-.6143,1.6396-.9448,2.7676-.9917,.7666-.0347,1.3096,.1343,1.6289,.5068,.2695,.3154,.3896,.6763,.3584,1.082-.0312,.4062-.2012,.7412-.5098,1.0054-.2725,.2334-.6758,.3428-1.21,.3286-.5342-.0146-.9199,.0796-1.1562,.2822-.3086,.2642-.6035,.8525-.8848,1.7646-.2812,.9126-.5488,2.1489-.8027,3.709l2.8477,3.3228,3.1396-2.6904c.5303-.4546,.9961-.6768,1.3965-.666,.4014,.0107,.7432,.1812,1.0254,.5107,.2764,.3228,.3887,.6831,.3379,1.0806-.0498,.3979-.3408,.8242-.8711,1.2788l-6.6562,5.7036c-.5303,.4546-.9951,.6763-1.3965,.6655-.4004-.0107-.7422-.1812-1.0254-.5107-.2764-.3228-.3887-.6826-.3379-1.0806s.3408-.8237,.8711-1.2783l1.3115-1.1245-4.5879-5.3545-.7959,.6821c-.5303,.4546-.9961,.6763-1.3975,.6655-.4004-.0107-.7422-.1812-1.0244-.5107-.2764-.3228-.3896-.6831-.3389-1.0806,.0508-.3979,.3408-.8237,.8721-1.2788l3-2.5708Z"/><path d="M52.1377,74.853l-9.3359,7.3926c.7051,.4048,1.5029,.5493,2.3936,.4341,.8906-.1147,1.8496-.5796,2.8789-1.394,.8438-.668,1.8213-1.7373,2.9326-3.2075,.46-.605,.8008-.9956,1.0234-1.1714,.3027-.2402,.6436-.335,1.0205-.2842,.377,.0503,.6953,.2383,.9531,.564,.2344,.2964,.3223,.6357,.2646,1.0186-.0791,.5083-.5947,1.3408-1.5459,2.4971-.9502,1.1562-1.9551,2.1533-3.0137,2.9912-1.8203,1.4414-3.6836,2.0801-5.5898,1.916-1.9062-.1646-3.4541-.998-4.6436-2.5005-1.2656-1.5986-1.7061-3.3662-1.3193-5.3042,.3867-1.9375,1.3496-3.5156,2.8887-4.7344,.9248-.7324,1.9033-1.2422,2.9346-1.5288s1.8848-.3911,2.5615-.3125c.9668,.126,1.9434,.4546,2.9297,.9854,.6816,.3755,1.3164,.9326,1.9023,1.6729l.7646,.9658Zm-4.3223-.2803c-.8633-.376-1.7041-.502-2.5215-.3789-.8174,.1235-1.6143,.4927-2.3916,1.1079-.7695,.6099-1.3086,1.2983-1.6152,2.0654-.3076,.7671-.3818,1.6172-.2207,2.5498l6.749-5.3442Z"/><path d="M64.7158,63.2402l-9.8232,7.1011-1.5518-2.146,9.8232-7.1011,1.5518,2.146Z"/><path d="M74.7373,62.8672l2.5928,3.9888,1.46-.9492c.5859-.3804,1.0771-.5391,1.4727-.4756,.3965,.0635,.7119,.2773,.9492,.6411,.2314,.3564,.2959,.7285,.1934,1.1157-.1035,.3877-.4473,.772-1.0332,1.1528l-4.3096,2.8013c-.5859,.3809-1.0762,.5396-1.4727,.4761-.3955-.064-.709-.2734-.9404-.6299-.2373-.3643-.3018-.7412-.1953-1.1313s.4482-.7729,1.0264-1.1484l.416-.2705-7.1465-10.9937-.416,.27c-.585,.3809-1.0762,.5396-1.4717,.4761-.3965-.0635-.7129-.2773-.9492-.6416-.2314-.356-.2959-.728-.1934-1.1157s.4473-.7715,1.0322-1.1523l2.8496-1.8521,.54,.8311c.3184-.7583,.7197-1.4307,1.2061-2.0166,.4854-.5864,1.0498-1.0879,1.6904-1.5044,1.6621-1.0806,3.4453-1.4375,5.3506-1.0708,1.9043,.3662,3.3301,1.2778,4.2764,2.7339,1.0449,1.6069,1.2139,3.3828,.5078,5.3276-.5898,1.6221-1.6094,2.9038-3.0576,3.8452-.625,.4062-1.3018,.7168-2.0293,.9307-.7275,.2144-1.5107,.335-2.3486,.3618Zm4.502-8.8716c-.2217-.3398-.6377-.686-1.249-1.0376-.6113-.3511-1.3105-.5215-2.0977-.5112-.7861,.0107-1.5557,.2603-2.3076,.749-1.2109,.7871-1.877,1.8672-1.998,3.2407-.0762,.939,.0732,1.6973,.4492,2.2754,.4219,.6489,1.1777,1.0552,2.2695,1.2183,1.0908,.1631,2.1475-.0869,3.168-.751,1.0293-.6685,1.6904-1.5312,1.9824-2.5889,.293-1.0566,.2197-1.9219-.2168-2.5947Z"/><path d="M87.0107,42.0352l.9004,1.5728c.6211-1.3667,1.1631-2.3521,1.6279-2.9556s.9639-1.0576,1.4961-1.3628c.8193-.4688,1.7871-.6211,2.9043-.4561,.7588,.1099,1.2607,.3774,1.5049,.8032,.2061,.3604,.2559,.7373,.1494,1.1299-.1074,.3931-.3369,.6904-.6885,.8921-.3115,.1782-.7285,.2104-1.251,.0962-.5215-.1143-.918-.0942-1.1885,.0605-.3525,.2021-.752,.7246-1.1992,1.5679-.4473,.8438-.9414,2.0083-1.4834,3.4932l2.1748,3.7969,3.5879-2.0547c.6064-.3472,1.1055-.478,1.4971-.3926,.3916,.0859,.6953,.3174,.9111,.6938,.2109,.3687,.2549,.7437,.1299,1.125-.124,.3813-.4893,.7456-1.0957,1.0928l-7.6055,4.356c-.6064,.3472-1.1055,.478-1.4971,.3921-.3916-.0854-.6953-.3169-.9111-.6938-.2119-.3687-.2549-.7432-.1309-1.1245,.125-.3813,.4902-.7456,1.0957-1.0928l1.499-.8584-3.5039-6.1191-.9092,.5205c-.6064,.3472-1.1055,.478-1.4971,.3921-.3916-.0854-.6953-.3169-.9111-.6934-.2119-.3687-.2549-.7437-.1309-1.125,.125-.3813,.4902-.7456,1.0957-1.0928l3.4287-1.9634Z"/><path d="M113.7637,35.6147c.4902,1,.6875,2.105,.5918,3.3135-.0957,1.209-.5557,2.3604-1.3809,3.4536s-1.8359,1.9336-3.0303,2.5195c-1.1865,.5825-2.457,.8662-3.8096,.8516-1.3535-.0142-2.5439-.3525-3.5732-1.0151-1.0293-.6621-1.7959-1.5059-2.2988-2.5312-.5117-1.0425-.7256-2.207-.6416-3.4941,.083-1.2871,.5244-2.4839,1.3223-3.5903s1.7852-1.9487,2.9639-2.5264c1.1865-.582,2.4727-.8477,3.8594-.7974,1.3867,.0508,2.6035,.4365,3.6514,1.1582,1.0479,.7212,1.8301,1.6074,2.3457,2.6582Zm-2.6006,1.2915c-.4111-.8394-1.0908-1.4629-2.0371-1.8711-1.2881-.5459-2.6016-.4902-3.9404,.1665-1.1777,.5781-1.9766,1.4375-2.3945,2.5781-.418,1.1411-.3838,2.2075,.1025,3.1992,.3994,.8135,1.1709,1.3789,2.3145,1.6953,1.1436,.3174,2.2959,.1909,3.458-.3789,1.1689-.5737,1.9785-1.4097,2.4277-2.5083,.4502-1.0986,.4727-2.0591,.0693-2.8809Z"/><path d="M125.3262,17.6807l5.7822,14.3413,.46-.1855c.6387-.2573,1.1484-.3179,1.5293-.1816,.3809,.1367,.6523,.4067,.8145,.8091,.1592,.394,.1514,.7715-.0244,1.1323-.1748,.3604-.5869,.6714-1.2344,.9326l-3.1523,1.271-.2646-.6567c-.4678,.606-1,1.1357-1.5957,1.5898s-1.252,.8257-1.9697,1.1152c-2.0225,.8149-3.8867,.8872-5.5928,.2163-1.7061-.6714-2.9102-1.8779-3.6123-3.6201-.7344-1.8213-.7129-3.6367,.0645-5.4463,.7764-1.8091,2.0977-3.0898,3.9629-3.8418,.7002-.2822,1.4307-.4521,2.1914-.5093s1.5557-.0039,2.3848,.1602l-1.3496-3.3486-.46,.1851c-.6475,.2612-1.1602,.3228-1.5361,.1846-.377-.1387-.6445-.4048-.8027-.7988-.1631-.4023-.1562-.7842,.0186-1.145,.1758-.3608,.5869-.6714,1.2354-.9326l3.1514-1.271Zm1.9141,12.5112c-.4482-1.1118-1.2168-1.896-2.3066-2.3525-1.0898-.4561-2.2002-.4565-3.3291-.0015-1.1211,.4521-1.915,1.2202-2.3838,2.3047-.4688,1.085-.4844,2.1699-.0469,3.2554,.3994,.9897,1.0762,1.6606,2.0332,2.0127,.9561,.3525,2.0732,.271,3.3516-.2446,1.2695-.5117,2.1309-1.2275,2.584-2.1484,.4541-.9209,.4863-1.8623,.0977-2.8257Z"/><path d="M144.8652,17.1138l2.9482,9.5083c.5859-.1821,1.0586-.1855,1.4199-.0107,.3604,.1753,.6035,.4653,.7295,.8711s.0859,.7812-.1182,1.126c-.2041,.3452-.6396,.6211-1.3076,.8281l-2.6367,.8179-.1973-.6357c-.6816,.6064-1.3555,1.1118-2.0205,1.5161-.666,.4038-1.3232,.7065-1.9717,.9077-.9111,.2822-1.7598,.3354-2.5449,.1592-.7871-.1763-1.4785-.5425-2.0752-1.0986-.4307-.4004-.7598-.9653-.9863-1.6958l-1.8486-5.9644-.4736,.1465c-.667,.207-1.1826,.2261-1.5469,.0571-.3633-.1689-.6094-.4604-.7383-.8755-.126-.4058-.0859-.7812,.1182-1.126,.2041-.3452,.6396-.6211,1.3076-.8281l3.2451-1.0063,2.5586,8.25c.1816,.5864,.457,.9727,.8262,1.1597,.3701,.187,.8477,.1895,1.4336,.0078,.5586-.1733,1.126-.4702,1.7031-.8911,.5752-.4209,1.248-1.0669,2.0156-1.9375l-1.7529-5.6533-1.001,.3105c-.667,.207-1.1826,.2256-1.5459,.0566-.3643-.1689-.6104-.4604-.7393-.8755-.126-.4058-.0859-.7808,.1182-1.126s.6396-.6211,1.3076-.8281l3.7734-1.1699Z"/><path d="M161.8262,13.7412c.2734-.3955,.5898-.6313,.9502-.7075,.4062-.0854,.7725-.0107,1.0967,.2246,.3252,.2354,.5586,.6904,.7002,1.3643l.3867,1.8291c.1436,.6836,.1143,1.1963-.0879,1.5381-.2031,.3418-.5166,.5576-.9414,.6475-.3887,.0815-.7393,.04-1.0547-.125-.2285-.1255-.4531-.4326-.6719-.9219s-.5674-.8135-1.0449-.9731c-.8418-.2856-1.8447-.3057-3.0078-.0601-1.3398,.2827-2.3301,.9023-2.9727,1.8579s-.8369,2.0337-.584,3.2344c.2344,1.1084,.8066,1.9019,1.7178,2.3799,.9121,.4785,2.2676,.5273,4.0693,.147,1.1816-.2495,2.1221-.5732,2.8193-.9712,.4121-.2412,.7793-.582,1.1016-1.0215,.3223-.439,.6445-.6929,.9678-.7612,.3877-.082,.7529-.0093,1.0957,.2173,.3418,.2271,.5537,.5342,.6357,.9224,.1328,.6279-.1709,1.3145-.9111,2.0591-1.0977,1.1094-2.875,1.9238-5.3311,2.4424-2.208,.4658-4.0225,.3716-5.4443-.2837-1.9219-.8774-3.1074-2.3833-3.5576-4.5171-.4277-2.0225-.1064-3.8389,.9619-5.4492,1.0693-1.6099,2.6885-2.644,4.8594-3.1025,.7852-.1655,1.5303-.2456,2.2363-.2402,.7051,.0059,1.375,.0957,2.0107,.2705Z"/><path d="M175.6943,14.1387l.6123,5.7871c.0654,.6196,.2354,1.0146,.5098,1.1851,.4277,.2681,1.1475,.3486,2.1621,.2412,1.4736-.1558,2.8018-.6143,3.9834-1.3755,.4531-.2944,.8154-.4565,1.0879-.4854,.375-.0396,.7168,.0669,1.0234,.3188,.3066,.2524,.4814,.5806,.5244,.9844,.0391,.3755-.0771,.7153-.3486,1.019-.4131,.4902-1.2783,.9922-2.5957,1.5063s-2.4404,.8208-3.3701,.9189c-1.793,.1899-3.1787-.0552-4.1572-.7349s-1.5273-1.583-1.6465-2.7095l-.6719-6.3506-1.042,.1104c-.6943,.0732-1.2041-.0083-1.5273-.2441-.3242-.2363-.5098-.5703-.5547-1.0024-.0449-.4224,.0664-.7832,.334-1.082s.748-.4849,1.4434-.5581l1.042-.1104-.2764-2.605c-.0732-.6948,.0088-1.2041,.2441-1.5283,.2363-.3237,.5703-.5088,1.0029-.5547,.4219-.0444,.7832,.0669,1.082,.3345,.2988,.2671,.4844,.7485,.5576,1.4429l.2764,2.6055,5.3369-.5649c.6943-.0732,1.2041,.0078,1.5273,.2441,.3242,.2363,.5088,.5708,.5547,1.0024,.0449,.4224-.0664,.7832-.334,1.082s-.748,.4849-1.4434,.5581l-5.3369,.5649Z"/><path d="M196.5889,10.2183l-.0518,9.9541,3.4834,.0181c.6982,.0039,1.1963,.1406,1.4922,.4116,.2959,.2705,.4424,.623,.4404,1.0571-.002,.4248-.1523,.771-.4512,1.0381-.2988,.2676-.7979,.3999-1.4961,.396l-9.8701-.0508c-.6982-.0039-1.1953-.1406-1.4912-.4116-.2959-.2705-.4434-.6226-.4404-1.0571,.002-.4248,.1523-.771,.4512-1.0386,.2988-.2671,.7969-.3994,1.4961-.3955l3.4834,.0181,.0361-7.0518-2.3359-.0122c-.6895-.0034-1.1846-.1406-1.4854-.4111s-.4492-.623-.4473-1.0571c.002-.4248,.1523-.771,.4512-1.0386s.7969-.3994,1.4961-.396l5.2393,.0273Zm-.3682-5.5103l-.0156,3.0728-3.4551-.0181,.0156-3.0728,3.4551,.0181Z"/><path d="M220.9258,18.9414c-.1338,1.106-.5713,2.1392-1.3105,3.1001-.7402,.9609-1.7539,1.6748-3.042,2.1406-1.2881,.4663-2.5928,.6196-3.9141,.459-1.3125-.1597-2.5312-.6143-3.6572-1.3643-1.126-.7505-1.9395-1.6836-2.4414-2.8003-.501-1.1167-.6826-2.2417-.5449-3.3755,.1396-1.1528,.5957-2.2456,1.3682-3.2788,.7725-1.0327,1.7939-1.7954,3.0664-2.2876,1.2725-.4917,2.5596-.6587,3.8623-.5005,1.3125,.1592,2.5352,.6387,3.6699,1.437,1.1338,.7988,1.9434,1.7866,2.4287,2.9629,.4844,1.1763,.6562,2.3452,.5146,3.5073Zm-2.8828-.3359c.1123-.9282-.1162-1.8208-.6875-2.6797-.7812-1.1602-1.9121-1.8301-3.3926-2.0103-1.3027-.1582-2.4404,.127-3.4141,.855-.9727,.7285-1.5254,1.6406-1.6582,2.7368-.1094,.8999,.2285,1.7944,1.0146,2.6836,.7852,.8896,1.8203,1.4126,3.1045,1.5684,1.293,.1572,2.4277-.1021,3.4033-.7773s1.5195-1.4678,1.6299-2.3765Z"/><path d="M230.2637,14.1572l-.2354,.9482c.6221-.3125,1.2695-.502,1.9424-.5688,.6738-.0664,1.3721-.0098,2.0957,.1699,1.668,.4131,2.8584,1.2583,3.5732,2.5342,.5654,1.0156,.6816,2.1924,.3496,3.5303l-1.2979,5.2363c.5957,.1475,1.0029,.3872,1.2217,.7188,.2197,.3315,.2773,.708,.1729,1.1294-.1025,.4126-.3301,.7134-.6836,.9028-.3535,.1899-.8691,.2002-1.5469,.0322l-2.543-.6304c-.6777-.1685-1.1289-.4185-1.3525-.7515-.2246-.3325-.2842-.7095-.1797-1.1313,.1025-.4121,.3281-.7139,.6768-.9043,.3486-.1909,.8213-.2124,1.417-.0645l1.3184-5.3188c.1523-.6138,.0986-1.104-.1602-1.4697-.3398-.4731-.9404-.8169-1.8018-1.0303-.6504-.1611-1.2529-.1768-1.8047-.0464-.5527,.1304-1.3066,.5103-2.2598,1.1392l-1.2988,5.2368c.7246,.1792,1.1748,.3638,1.3516,.5537,.3799,.3862,.5049,.8452,.373,1.3765-.1025,.4121-.3301,.7134-.6836,.9028s-.8691,.2002-1.5469,.0322l-3.2021-.7944c-.6787-.168-1.1289-.4185-1.3525-.751-.2246-.333-.2842-.71-.1797-1.1313,.1279-.5132,.4463-.8574,.9561-1.0322,.2539-.083,.7432-.0347,1.4668,.145l1.6973-6.8447c-.5957-.1475-1.002-.3892-1.2207-.7256-.2178-.3359-.2754-.7104-.1738-1.1226,.1025-.4126,.3301-.7134,.6836-.9028,.3535-.1899,.8691-.2007,1.5479-.0322l2.6797,.6646Z"/><path d="M260.3926,36.9268l-2.208,4.2144,1.543,.8086c.6191,.3242,.9971,.6743,1.1357,1.0508s.1074,.7568-.0938,1.1416c-.1973,.376-.4902,.6143-.8789,.7148-.3877,.1001-.8916-.0117-1.5098-.3359l-4.5537-2.3857c-.6191-.3242-.9971-.6743-1.1357-1.0508-.1387-.376-.1094-.7524,.0879-1.1289,.2012-.3843,.498-.626,.8906-.7241s.8945,.0127,1.5049,.3325l.4385,.23,6.085-11.6147-.4385-.23c-.6191-.3242-.9971-.6743-1.1357-1.0508-.1387-.376-.1074-.7563,.0938-1.1411,.1973-.3765,.4902-.6147,.8789-.7148,.3877-.1006,.8916,.0112,1.5098,.3354l3.0107,1.5771-.46,.8784c.8164-.0942,1.5996-.0732,2.3486,.0635,.749,.1362,1.4619,.3823,2.1396,.7373,1.7559,.9199,2.9404,2.2998,3.5537,4.1396s.5166,3.5293-.2891,5.0679c-.8896,1.6978-2.3555,2.7148-4.3965,3.0518-1.7031,.2803-3.3193,.0195-4.8496-.7822-.6611-.3462-1.2627-.7837-1.8057-1.3135s-1.0322-1.1533-1.4658-1.8711Zm9.9395-.4194c.1885-.3594,.2861-.8921,.293-1.5972,.0068-.7046-.1865-1.3979-.5811-2.0786-.3945-.6812-.9893-1.2295-1.7832-1.646-1.2793-.6704-2.5479-.7217-3.8037-.1543-.8564,.3936-1.4443,.8955-1.7646,1.5059-.3584,.6855-.3428,1.5439,.0498,2.5752,.3916,1.0317,1.1279,1.8301,2.2061,2.395,1.0869,.5693,2.1631,.7231,3.2275,.46,1.0654-.2622,1.7842-.749,2.1562-1.46Z"/><path d="M280.5264,50.3013l.3574-.5776c-.8213-.0537-1.6562-.2295-2.5049-.5273-.8477-.2979-1.5771-.6357-2.1865-1.0137-1.3242-.8203-2.1826-1.8374-2.5742-3.0518-.3916-1.2139-.3242-2.2466,.2031-3.0972,.6416-1.0352,1.7646-1.6694,3.3691-1.9023s3.3379,.2271,5.1992,1.3804c.7471,.4624,1.5596,1.0771,2.4395,1.8438l.3652-.5898c.2285-.3687,.2568-.7681,.084-1.1973s-.7051-.9194-1.5957-1.4712c-.7305-.4526-1.7666-.8945-3.1094-1.3267-.498-.1641-.8672-.3208-1.1084-.4697-.3291-.2041-.5342-.4951-.6162-.8735s-.0088-.752,.2197-1.1211c.1289-.209,.2812-.3647,.4561-.4673s.3633-.1553,.5645-.1582,.5713,.0732,1.1084,.228c.7139,.2095,1.4189,.4604,2.1152,.7524,.6963,.2925,1.3008,.5977,1.8145,.916,1.5332,.9497,2.5176,2.0176,2.9541,3.2041s.2988,2.3535-.4111,3.501l-3.1475,5.0801,.4219,.2612c.5938,.3677,.9463,.7441,1.0566,1.1294,.1113,.3853,.0527,.7627-.1758,1.1318-.2236,.3613-.5332,.5776-.9277,.6499s-.8887-.0757-1.4824-.4438l-2.8887-1.7896Zm2.7363-4.4175c-.8672-.8042-1.7188-1.4648-2.5537-1.9819-1.0029-.6216-2.0176-.9106-3.043-.8687-.6426,.0342-1.0645,.2124-1.2627,.5332-.1445,.2329-.1523,.4883-.0254,.7671,.2373,.5132,.7051,.9863,1.4033,1.4189,.5938,.3677,1.3379,.668,2.2324,.8999s1.7588,.3291,2.5928,.2905l.6562-1.0591Z"/><path d="M300.0264,47.5586l-.9863,1.5205c1.499-.0742,2.624-.0425,3.373,.0942,.749,.1372,1.3809,.3726,1.8965,.7065,.792,.5132,1.3701,1.3047,1.7344,2.3735,.25,.7246,.2422,1.293-.0244,1.7051-.2266,.3486-.5381,.5649-.9365,.6499s-.7676,.0171-1.1084-.2036c-.3008-.1953-.5205-.5508-.6582-1.0679-.1377-.5166-.3369-.8599-.5977-1.0293-.3408-.2207-.9883-.3369-1.9434-.3481-.9541-.0112-2.2158,.082-3.7842,.2803l-2.3809,3.6714,3.4697,2.2495c.5859,.3799,.9307,.7637,1.0342,1.1514,.1035,.3872,.0361,.7632-.1992,1.1274-.2314,.3564-.5449,.5669-.9404,.6309-.3965,.064-.8877-.0942-1.4736-.4741l-7.3545-4.7681c-.5859-.3799-.9307-.7637-1.0342-1.1514-.1035-.3872-.0361-.7632,.1992-1.1279,.2314-.3564,.5449-.5664,.9404-.6304,.3965-.064,.8877,.0938,1.4736,.4741l1.4492,.9395,3.8359-5.917-.8789-.5698c-.5859-.3804-.9307-.7642-1.0342-1.1514-.1025-.3877-.0361-.7637,.2002-1.1279,.2305-.3564,.5439-.5669,.9404-.6309,.3955-.064,.8867,.0942,1.4727,.4741l3.3154,2.1494Z"/><path d="M313.5312,59.5698l-3.0254,4.9722c-.3232,.5322-.4277,.9492-.3135,1.251,.1768,.4722,.7012,.9731,1.5713,1.5034,1.2666,.77,2.6006,1.2114,4.002,1.3237,.5391,.0405,.9248,.1318,1.1592,.2744,.3223,.1958,.5293,.4873,.6201,.874,.0898,.3867,.0303,.7539-.1807,1.1006-.1963,.3223-.4951,.522-.8955,.5991-.625,.1387-1.6182,.0127-2.9766-.3779-1.3594-.3906-2.4385-.8286-3.2373-1.314-1.54-.9375-2.4932-1.9731-2.8584-3.1069s-.2539-2.1846,.335-3.1523l3.3193-5.4561-.8945-.5444c-.5977-.3633-.9531-.7368-1.0674-1.1211-.1133-.3848-.0576-.7622,.168-1.1333,.2207-.3628,.5283-.582,.9219-.6572s.8887,.0684,1.4863,.4316l.8945,.5444,1.3613-2.2378c.3633-.5967,.7373-.9521,1.1221-1.0664,.3838-.1143,.7617-.0586,1.1328,.167,.3623,.2207,.582,.5283,.6572,.9219,.0752,.394-.0684,.8896-.4316,1.4863l-1.3613,2.2378,4.585,2.7896c.5967,.3628,.9521,.7368,1.0664,1.1211s.0576,.7622-.168,1.1333c-.2207,.3628-.5273,.582-.9219,.6572-.3936,.0752-.8887-.0688-1.4854-.4316l-4.585-2.7896Z"/><path d="M341.4941,82.1733l5.8818,2.4136c.4307-.1294,.79-.1348,1.0781-.0166,.4102,.1685,.6797,.4375,.8096,.8066,.1289,.3691,.0586,.8813-.21,1.5361l-.5264,1.2842-12.2354-5.021,1.166-2.8428c6.4756-2.0059,10.4512-3.3745,11.9248-4.1064,.7461-.3774,1.2275-.8281,1.4424-1.3521,.2686-.6548,.2207-1.3511-.1455-2.0879s-1.0254-1.3008-1.9766-1.6914c-.9609-.394-1.875-.4424-2.7422-.145-.4531,.1606-.9004,.4927-1.3418,.9951-.2725,.3164-.5479,.5098-.8271,.5791-.2783,.0693-.5742,.0396-.8887-.0894-.3672-.1509-.6299-.4116-.7891-.7827-.1582-.3716-.166-.7319-.0225-1.0811,.2148-.5239,.7256-1.0796,1.5332-1.667,.8066-.5869,1.7725-.9253,2.8965-1.0151,1.123-.0903,2.2305,.0889,3.3223,.5366,1.6943,.6953,2.8721,1.7783,3.5342,3.249s.6934,2.9351,.0957,4.3936c-.3047,.7422-.7422,1.3662-1.3125,1.8721-.5693,.5063-1.6729,1.0762-3.3105,1.7104-1.2881,.502-3.7402,1.3428-7.3564,2.522Z"/><path d="M363.5352,91.6484c-.1621,.5229-.4834,.9023-.9619,1.1392-.4795,.2363-1.043,.2539-1.6924,.0518-.6484-.2017-1.1035-.5361-1.3633-1.0024-.2607-.4668-.3086-.9614-.1465-1.4844,.1631-.5225,.4834-.9023,.9629-1.1387,.4785-.2368,1.043-.2539,1.6914-.0522,.6494,.2021,1.1035,.5361,1.3643,1.0029,.2598,.4663,.3086,.9614,.1455,1.4839Zm2.7969-9.0806c-.1631,.5225-.4844,.9023-.9629,1.1387-.4795,.2368-1.043,.2539-1.6924,.0522-.6484-.2021-1.1035-.5366-1.3633-1.0029-.2607-.4668-.3086-.9609-.1465-1.4839,.1631-.5229,.4834-.9028,.9629-1.1392,.4785-.2363,1.043-.2539,1.6914-.0518,.6494,.2017,1.1035,.5361,1.3643,1.0024,.2598,.4668,.3086,.9614,.1465,1.4844Z"/><path d="M394.54,98.959c-.2881,.2705-.5146,.439-.6787,.5054-.165,.0664-.3594,.0869-.584,.0605-.4414-.0513-.7783-.2397-1.0107-.5659-.2334-.3267-.3105-.832-.2305-1.5166l.2246-1.9409c.0811-.6938,.2715-1.1733,.5732-1.4375,.3018-.2646,.6729-.3711,1.1133-.3198,.3379,.0391,.6113,.1611,.8203,.3657,.209,.2051,.3506,.5229,.4238,.9546,.0732,.4312,.167,.7295,.2812,.895,.2383,.3223,.6865,.6733,1.3457,1.0542,.6592,.3804,1.4014,.6187,2.2266,.7144,1.2842,.1489,2.374-.0288,3.2695-.5332,.5674-.3047,.8818-.7246,.9443-1.2593,.041-.356-.0469-.7061-.2637-1.0493-.2168-.3438-.5996-.6519-1.1475-.9243-.3584-.1841-1.1758-.4736-2.4502-.8687-1.542-.4736-2.6924-.9634-3.4512-1.4697-.7588-.5059-1.3281-1.1611-1.71-1.9658s-.5225-1.6431-.4209-2.5151c.1592-1.3784,.876-2.5186,2.1494-3.4209s2.834-1.2466,4.6816-1.0322c.7402,.0854,1.418,.2476,2.0322,.4849,.6143,.2378,1.1592,.5552,1.6357,.9526,.417-.3223,.8135-.4619,1.1885-.4185,.4229,.0493,.75,.2368,.9824,.563,.2334,.3267,.3105,.832,.2305,1.5166l-.251,2.166c-.0801,.6943-.2715,1.1733-.5732,1.4375-.3008,.2646-.6631,.3721-1.085,.3232-.3564-.0415-.6533-.1851-.8906-.4312-.1885-.1831-.3057-.52-.3535-1.0103s-.1396-.8477-.2744-1.0728c-.2314-.3877-.6045-.7349-1.1191-1.042-.5156-.3066-1.1299-.5015-1.8428-.5845-1.041-.1206-1.8916,.0254-2.5527,.438-.6611,.4131-1.0215,.8818-1.082,1.4072-.042,.3564,.042,.7153,.252,1.0771,.21,.3613,.5439,.6641,1,.9067,.3037,.1685,1.1768,.4839,2.6201,.9453,1.4434,.4624,2.541,.9126,3.293,1.3516s1.3477,1.0591,1.7871,1.8608,.5996,1.7139,.4814,2.7358c-.166,1.4253-.7998,2.5063-1.9023,3.2432-1.4619,.9707-3.2246,1.3369-5.2871,1.0977-.7969-.0928-1.5625-.2788-2.2949-.5586s-1.4326-.6533-2.1006-1.1201Z"/><path d="M417.3672,91.6021l-.1816,5.8169c-.0195,.6226,.0957,1.0371,.3438,1.2432,.3867,.3237,1.0898,.5015,2.1084,.5332,1.4814,.0464,2.8594-.2271,4.1338-.8198,.4893-.2305,.8701-.3413,1.1445-.3325,.377,.0117,.7002,.1636,.9697,.4551,.2695,.292,.3984,.6406,.3857,1.0464-.0117,.3774-.1729,.6982-.4834,.9624-.4766,.4292-1.4023,.8086-2.7773,1.1387s-2.5293,.4805-3.4639,.4512c-1.8018-.0562-3.1416-.4873-4.0186-1.2939-.876-.8066-1.2969-1.7764-1.2617-2.9082l.1992-6.3833-1.0469-.0327c-.6982-.022-1.1924-.1719-1.4805-.4502-.2891-.2778-.4268-.6343-.4131-1.0684,.0127-.4243,.1729-.7666,.4785-1.0264,.3057-.2593,.8066-.3784,1.5059-.3564l1.0469,.0327,.082-2.6187c.0215-.6978,.1719-1.1914,.4502-1.4805,.2773-.2886,.6338-.4263,1.0684-.4126,.4238,.0132,.7666,.1724,1.0254,.478,.2598,.3057,.3789,.8076,.3574,1.5059l-.082,2.6182,5.3643,.168c.6982,.0215,1.1914,.1714,1.4805,.4497s.4268,.6348,.4131,1.0684c-.0137,.4248-.1729,.7666-.4785,1.0264s-.8076,.3784-1.5059,.3569l-5.3643-.1675Z"/><path d="M444.1025,94.8828c.0527,1.1128-.2061,2.2046-.7754,3.2754-.5684,1.0708-1.4492,1.9438-2.6416,2.6187-1.1924,.6743-2.4531,1.043-3.7822,1.105-1.3203,.062-2.5986-.1831-3.834-.7349s-2.1934-1.3364-2.874-2.3535-1.0479-2.0962-1.1016-3.2373c-.0537-1.1597,.2129-2.3135,.8027-3.4609,.5889-1.1475,1.4688-2.0693,2.6416-2.7671,1.1719-.6973,2.4141-1.0767,3.7246-1.1382,1.3203-.0615,2.6055,.2065,3.8574,.8047,1.252,.5986,2.2148,1.437,2.8896,2.5156,.6738,1.0791,1.0381,2.2031,1.0928,3.3726Zm-2.8984,.1499c-.0439-.9336-.4189-1.7759-1.125-2.5273-.9639-1.0137-2.1914-1.4854-3.6807-1.4155-1.3115,.061-2.3848,.5317-3.2227,1.4121s-1.2314,1.8721-1.1797,2.9756c.043,.9053,.5254,1.731,1.4482,2.4766,.9238,.7461,2.0312,1.0889,3.3232,1.0283,1.3008-.061,2.376-.5059,3.2256-1.3345s1.2539-1.7007,1.2109-2.6152Z"/><path d="M453.6904,87.1465l.2129,1.7998c1.1064-1.0151,1.9912-1.709,2.6553-2.0825,.6641-.373,1.3008-.5962,1.9102-.668,.9375-.1113,1.8877,.1279,2.8506,.7173,.6553,.3979,1.0127,.8408,1.0703,1.3281,.0488,.4126-.0527,.7783-.3047,1.0981-.2529,.3198-.5801,.5034-.9834,.5513-.3564,.042-.752-.0913-1.1885-.4014-.4355-.3096-.8076-.4458-1.1172-.4092-.4033,.0479-.9756,.3721-1.7178,.9731-.7412,.6011-1.6523,1.479-2.7324,2.6333l.5146,4.3452,4.1064-.4858c.6934-.082,1.2041-.0073,1.5303,.2251,.3271,.2319,.5166,.564,.5674,.9951,.0498,.4219-.0566,.7837-.3203,1.0859s-.7432,.4941-1.4365,.5762l-8.7041,1.0308c-.6943,.082-1.2041,.0068-1.5312-.2251-.3271-.2324-.5156-.564-.5664-.9951-.0508-.4219,.0566-.7842,.3203-1.0864,.2637-.3018,.7422-.4941,1.4355-.5762l1.7158-.2031-.8291-7.0029-1.04,.123c-.6943,.0825-1.2041,.0073-1.5312-.2251-.3271-.2319-.5156-.5635-.5674-.9951-.0498-.4219,.0576-.7837,.3213-1.0859s.7422-.4941,1.4355-.5762l3.9238-.4644Z"/><path d="M472.8906,97.2036l-6.7285-8.7822c-.4746,.0298-.8564-.063-1.1455-.2788-.2891-.2153-.4678-.5088-.5361-.8804-.0791-.4268,.0039-.7998,.2471-1.1182,.2441-.3184,.709-.541,1.3965-.6675l2.6035-.4795c.6875-.1265,1.2012-.0845,1.543,.1265,.3408,.2109,.5508,.5298,.6299,.9565,.0762,.418-.0068,.7861-.251,1.1045-.2432,.3184-.6807,.5356-1.3125,.6519l4.5781,5.939,2.1348-7.1748c-.6133,.1128-1.0898,.064-1.4307-.147-.3418-.2104-.5518-.5293-.6299-.9565-.0771-.418,.0059-.7861,.25-1.1045,.2432-.3184,.709-.5405,1.3965-.6675l2.6875-.4946c.6777-.125,1.1865-.082,1.5283,.1289,.3408,.2109,.5508,.5298,.6299,.9565,.0693,.3809,.0039,.7266-.1982,1.0371-.2021,.311-.5459,.5303-1.0303,.6577l-4.1709,14.1011c.7148-.1318,1.1963-.1484,1.4443-.0503,.499,.2056,.7969,.5732,.8945,1.1025,.0771,.4175-.0068,.7856-.25,1.104-.2441,.3188-.71,.541-1.3965,.6675l-6.2246,1.1465c-.6875,.1265-1.2012,.084-1.543-.1265-.3408-.2109-.5498-.5249-.627-.9429-.0781-.4272,.0039-.7998,.248-1.1182,.2432-.3184,.709-.541,1.3955-.6675l2.8408-.5229,1.0264-3.5005Z"/><path d="M485.0234,76.0781l1.5479,6.3271c.5781-.6177,1.1953-1.1255,1.8506-1.5244,.6553-.3984,1.3457-.6865,2.0703-.8638,1.9531-.4775,3.7725-.209,5.46,.8071,1.6865,1.0156,2.7637,2.4775,3.2305,4.3848,.4463,1.8247,.1729,3.5073-.8203,5.0479s-2.5488,2.5698-4.667,3.0879c-.752,.1841-1.5,.2651-2.2441,.2432s-1.4873-.1411-2.2305-.3579l.168,.6875-3.3008,.8076c-.6787,.1665-1.1943,.1538-1.5469-.0366-.3535-.1909-.5811-.4971-.6846-.9189-.1006-.4126-.0361-.7852,.1934-1.1187,.2295-.333,.6787-.5815,1.3477-.7451l.4814-.1177-2.9854-12.2002-.4814,.1177c-.6787,.166-1.1943,.1538-1.5469-.0371-.3525-.1904-.5811-.4966-.6836-.9185-.1016-.4126-.0391-.7852,.1855-1.1172s.6768-.5811,1.3555-.7471l3.3008-.8076Zm11.3594,9.9033c-.2852-1.1646-.9336-2.0503-1.9473-2.6577-1.0137-.6069-2.1123-.7661-3.2949-.4766-1.1738,.2871-2.0703,.9341-2.6885,1.9404-.6191,1.0068-.7891,2.0786-.5107,3.2158,.2539,1.0361,.8281,1.7969,1.7246,2.2817,.8965,.4858,2.0137,.5645,3.3525,.2368s2.2959-.9141,2.8711-1.7598c.5762-.8452,.7402-1.772,.4932-2.7808Z"/><path d="M516.5234,79.9995c.3203,1.0669,.335,2.189,.043,3.3657-.292,1.1772-.9336,2.2378-1.9268,3.1816-.9922,.9438-2.126,1.6079-3.4004,1.9907-1.2666,.3809-2.5654,.4531-3.8975,.2183-1.333-.2354-2.4531-.7637-3.3604-1.585s-1.5254-1.7793-1.8535-2.873c-.335-1.1118-.3555-2.2959-.0625-3.5522,.292-1.2559,.9229-2.3647,1.8906-3.3257,.9678-.9614,2.0801-1.6309,3.3369-2.0088,1.2656-.3804,2.5781-.4326,3.9375-.1562s2.4971,.856,3.4131,1.7388c.916,.8833,1.543,1.8853,1.8799,3.0059Zm-2.7754,.8491c-.2695-.895-.8379-1.6206-1.7051-2.1782-1.1816-.749-2.4863-.9087-3.915-.4795-1.2559,.3779-2.1836,1.0957-2.7832,2.1528-.5986,1.0576-.7393,2.1147-.4209,3.1729,.2607,.8677,.9297,1.5513,2.0068,2.0508,1.0762,.4995,2.2334,.563,3.4727,.1904,1.2471-.375,2.1826-1.0674,2.8057-2.0781,.6221-1.0103,.8027-1.9536,.5391-2.8311Z"/><path d="M531.3516,81.4097l-.2256-.6411c-.5576,.6069-1.2178,1.1475-1.9814,1.6216s-1.4844,.8306-2.1602,1.0688c-1.4697,.5176-2.7998,.5488-3.9912,.0928-1.1914-.4556-1.9541-1.1558-2.2861-2.0996-.4053-1.1484-.1953-2.4209,.6289-3.8174,.8242-1.396,2.2686-2.4585,4.335-3.1865,.8271-.2915,1.8164-.5396,2.9648-.7446l-.2305-.6543c-.1445-.4097-.4375-.6812-.8809-.8159-.4424-.1338-1.1582-.0273-2.1465,.3213-.8096,.2852-1.8037,.8159-2.9824,1.5913-.4395,.2852-.793,.4746-1.0605,.5688-.3652,.1289-.7207,.1064-1.0664-.0669-.3467-.1729-.5918-.4644-.7363-.874-.0811-.2314-.1074-.4473-.0781-.6479s.1064-.3804,.2305-.5391c.124-.1592,.415-.3989,.8721-.7207,.6104-.4253,1.248-.8174,1.9121-1.1768,.6641-.3589,1.2812-.6392,1.8516-.8398,1.7002-.5991,3.1494-.6973,4.3477-.2935,1.1982,.4033,2.0215,1.2417,2.4707,2.5151l1.9854,5.6357,.4678-.1646c.6592-.2324,1.1729-.271,1.543-.1162,.3701,.1553,.627,.4375,.7715,.8467,.1416,.4009,.1162,.7773-.0742,1.1299-.1914,.3525-.6162,.645-1.2754,.8774l-3.2051,1.1294Zm-1.7275-4.9014c-1.1699,.1724-2.2188,.4214-3.1445,.7476-1.1133,.3926-1.9746,1.0015-2.584,1.8267-.377,.5229-.502,.9629-.376,1.3188,.0908,.2583,.2852,.4248,.582,.5005,.5479,.1367,1.21,.0688,1.9844-.2041,.6592-.2319,1.3594-.624,2.1006-1.1758,.7412-.5513,1.3584-1.1641,1.8516-1.8384l-.4141-1.1753Z"/><path d="M540.9062,64.0308l.6729,1.6826c.8047-1.2676,1.4795-2.1675,2.0234-2.7007,.5439-.5327,1.1006-.9136,1.6709-1.1416,.876-.3506,1.8564-.3662,2.9395-.0474,.7363,.2139,1.1963,.5483,1.3779,1.0039,.1543,.3857,.1514,.7656-.0088,1.1401s-.4287,.6367-.8057,.7876c-.333,.1333-.75,.1069-1.252-.0786-.501-.186-.8965-.2207-1.1855-.105-.377,.1509-.8457,.6128-1.4053,1.3857-.5605,.7729-1.2119,1.8574-1.9551,3.2529l1.626,4.0625,3.8389-1.5361c.6484-.2598,1.1611-.3198,1.5371-.1807,.376,.1396,.6445,.4106,.8057,.814,.1582,.394,.1484,.7715-.0273,1.1318s-.5889,.6704-1.2373,.9297l-8.1377,3.2563c-.6484,.2598-1.1611,.3198-1.5371,.1807-.376-.1396-.6445-.4106-.8057-.814-.1582-.3945-.1484-.7715,.0273-1.1318s.5889-.6704,1.2373-.9297l1.6035-.6421-2.6201-6.5469-.9727,.3892c-.6484,.2598-1.1602,.3198-1.5371,.1807-.376-.1396-.6445-.4106-.8057-.814-.1582-.394-.1484-.7715,.0273-1.1318,.1768-.3604,.5889-.6699,1.2373-.9297l3.668-1.4678Z"/><path d="M561.4922,49.2446l6.2705,14.1343,.4531-.2012c.6299-.2793,1.1377-.3574,1.5234-.2339,.3848,.1235,.666,.3838,.8418,.7808,.1719,.3882,.1768,.7656,.0146,1.1323-.1631,.3662-.5635,.6914-1.2021,.9746l-3.1064,1.3779-.2871-.647c-.4473,.6216-.9609,1.1694-1.54,1.6436-.5801,.4741-1.2236,.8682-1.9316,1.1821-1.9932,.8843-3.8535,1.02-5.5811,.4082-1.7285-.6123-2.9727-1.7769-3.7344-3.4941-.7969-1.7949-.8379-3.6099-.123-5.4448,.7139-1.835,1.9902-3.1606,3.8281-3.9756,.6904-.3066,1.415-.501,2.1729-.5845,.7588-.0835,1.5547-.0571,2.3896,.0786l-1.4639-3.3008-.4531,.2007c-.6387,.2837-1.1484,.3623-1.5293,.2373-.3809-.1255-.6572-.3823-.8301-.7705-.1758-.397-.1826-.7788-.0195-1.1455,.1621-.3662,.5625-.6914,1.2012-.9746l3.1064-1.3779Zm2.3428,12.438c-.4863-1.0957-1.2822-1.853-2.3867-2.272-1.1045-.4185-2.2139-.3809-3.3271,.1128-1.1045,.4902-1.8721,1.2852-2.3027,2.3853-.4316,1.1001-.4102,2.1851,.0645,3.2549,.4326,.9756,1.1328,1.6226,2.1016,1.9419,.9678,.3193,2.0811,.1997,3.3408-.3594,1.251-.5552,2.0879-1.3003,2.5088-2.2363,.4219-.9355,.4219-1.8779,.001-2.8271Z"/></g><g><path d="M778.3809,103.9492l2.0205,2.2007,2.1592-1.9829c.5146-.4722,.9727-.71,1.373-.7129,.4014-.0034,.749,.1553,1.042,.4751,.2881,.313,.4131,.6689,.376,1.0684s-.3125,.835-.8271,1.3076l-4.6309,4.2524c-.5146,.4727-.9727,.7104-1.373,.7134-.4014,.0029-.748-.1553-1.042-.4751-.2881-.313-.4111-.6704-.3701-1.0732,.04-.4023,.3145-.8364,.8213-1.3027l.334-.3066-7.6816-8.3643-.334,.3066c-.5146,.4727-.9717,.71-1.373,.7134-.4004,.0029-.748-.1558-1.042-.4756s-.4219-.6792-.3848-1.0786,.3125-.835,.8271-1.3076l4.9326-4.5107c1.4453-1.3276,2.9541-1.9854,4.5234-1.9722,1.5693,.0137,2.874,.5869,3.915,1.7202,.5752,.6255,.9746,1.3477,1.2012,2.1655,.167,.6152,.1855,1.3574,.0557,2.2271-.1309,.8701-.3643,1.6484-.7012,2.3354-.3369,.6875-.9355,1.4268-1.7979,2.2188l-2.0234,1.8579Zm-1.9639-2.1382l1.9814-1.8198c.9316-.8555,1.4775-1.7441,1.6367-2.666,.1602-.9219-.0312-1.6782-.5742-2.2695-.46-.5005-1.083-.7358-1.8691-.7056-.7871,.0298-1.5898,.4219-2.4102,1.1748l-2.4619,2.2607,3.6973,4.0254Z"/><path d="M788.251,85.8188l1.1787,1.3765c.3535-1.459,.7021-2.5283,1.0459-3.2085,.3438-.6797,.748-1.2192,1.2139-1.6187,.7168-.6143,1.6396-.9448,2.7676-.9917,.7666-.0347,1.3096,.1343,1.6289,.5068,.2695,.3154,.3896,.6763,.3584,1.082-.0312,.4062-.2012,.7412-.5098,1.0054-.2725,.2334-.6758,.3428-1.21,.3286-.5342-.0146-.9199,.0796-1.1562,.2822-.3086,.2642-.6035,.8525-.8848,1.7646-.2812,.9126-.5488,2.1489-.8027,3.709l2.8477,3.3228,3.1396-2.6904c.5303-.4546,.9961-.6768,1.3965-.666,.4014,.0107,.7432,.1812,1.0254,.5107,.2764,.3228,.3887,.6831,.3379,1.0806-.0498,.3979-.3408,.8242-.8711,1.2788l-6.6562,5.7036c-.5303,.4546-.9951,.6763-1.3965,.6655-.4004-.0107-.7422-.1812-1.0254-.5107-.2764-.3228-.3887-.6826-.3379-1.0806s.3408-.8237,.8711-1.2783l1.3115-1.1245-4.5879-5.3545-.7959,.6821c-.5303,.4546-.9961,.6763-1.3975,.6655-.4004-.0107-.7422-.1812-1.0244-.5107-.2764-.3228-.3896-.6831-.3389-1.0806,.0508-.3979,.3408-.8237,.8721-1.2788l3-2.5708Z"/><path d="M813.6104,75.3218l-9.3359,7.3926c.7051,.4048,1.5029,.5493,2.3936,.4341,.8906-.1147,1.8496-.5796,2.8789-1.394,.8438-.668,1.8213-1.7373,2.9326-3.2075,.46-.605,.8008-.9956,1.0234-1.1714,.3027-.2402,.6436-.335,1.0205-.2842,.377,.0503,.6953,.2383,.9531,.564,.2344,.2964,.3223,.6357,.2646,1.0186-.0791,.5083-.5947,1.3408-1.5459,2.4971-.9502,1.1562-1.9551,2.1533-3.0137,2.9912-1.8203,1.4414-3.6836,2.0801-5.5898,1.916-1.9062-.1646-3.4541-.998-4.6436-2.5005-1.2656-1.5986-1.7061-3.3662-1.3193-5.3042,.3867-1.9375,1.3496-3.5156,2.8887-4.7344,.9248-.7324,1.9033-1.2422,2.9346-1.5288s1.8848-.3911,2.5615-.3125c.9668,.126,1.9434,.4546,2.9297,.9854,.6816,.3755,1.3164,.9326,1.9023,1.6729l.7646,.9658Zm-4.3223-.2803c-.8633-.376-1.7041-.502-2.5215-.3789-.8174,.1235-1.6143,.4927-2.3916,1.1079-.7695,.6099-1.3086,1.2983-1.6152,2.0654-.3076,.7671-.3818,1.6172-.2207,2.5498l6.749-5.3442Z"/><path d="M826.1885,63.709l-9.8232,7.1011-1.5518-2.146,9.8232-7.1011,1.5518,2.146Z"/><path d="M836.21,63.3359l2.5928,3.9888,1.46-.9492c.5859-.3804,1.0771-.5391,1.4727-.4756,.3965,.0635,.7119,.2773,.9492,.6411,.2314,.3564,.2959,.7285,.1934,1.1157-.1035,.3877-.4473,.772-1.0332,1.1528l-4.3096,2.8013c-.5859,.3809-1.0762,.5396-1.4727,.4761-.3955-.064-.709-.2734-.9404-.6299-.2373-.3643-.3018-.7412-.1953-1.1313s.4482-.7729,1.0264-1.1484l.416-.2705-7.1465-10.9937-.416,.27c-.585,.3809-1.0762,.5396-1.4717,.4761-.3965-.0635-.7129-.2773-.9492-.6416-.2314-.356-.2959-.728-.1934-1.1157s.4473-.7715,1.0322-1.1523l2.8496-1.8521,.54,.8311c.3184-.7583,.7197-1.4307,1.2061-2.0166,.4854-.5864,1.0498-1.0879,1.6904-1.5044,1.6621-1.0806,3.4453-1.4375,5.3506-1.0708,1.9043,.3662,3.3301,1.2778,4.2764,2.7339,1.0449,1.6069,1.2139,3.3828,.5078,5.3276-.5898,1.6221-1.6094,2.9038-3.0576,3.8452-.625,.4062-1.3018,.7168-2.0293,.9307-.7275,.2144-1.5107,.335-2.3486,.3618Zm4.502-8.8716c-.2217-.3398-.6377-.686-1.249-1.0376-.6113-.3511-1.3105-.5215-2.0977-.5112-.7861,.0107-1.5557,.2603-2.3076,.749-1.2109,.7871-1.877,1.8672-1.998,3.2407-.0762,.939,.0732,1.6973,.4492,2.2754,.4219,.6489,1.1777,1.0552,2.2695,1.2183,1.0908,.1631,2.1475-.0869,3.168-.751,1.0293-.6685,1.6904-1.5312,1.9824-2.5889,.293-1.0566,.2197-1.9219-.2168-2.5947Z"/><path d="M848.4834,42.5039l.9004,1.5728c.6211-1.3667,1.1631-2.3521,1.6279-2.9556s.9639-1.0576,1.4961-1.3628c.8193-.4688,1.7871-.6211,2.9043-.4561,.7588,.1099,1.2607,.3774,1.5049,.8032,.2061,.3604,.2559,.7373,.1494,1.1299-.1074,.3931-.3369,.6904-.6885,.8921-.3115,.1782-.7285,.2104-1.251,.0962-.5215-.1143-.918-.0942-1.1885,.0605-.3525,.2021-.752,.7246-1.1992,1.5679-.4473,.8438-.9414,2.0083-1.4834,3.4932l2.1748,3.7969,3.5879-2.0547c.6064-.3472,1.1055-.478,1.4971-.3926,.3916,.0859,.6953,.3174,.9111,.6938,.2109,.3687,.2549,.7437,.1299,1.125-.124,.3813-.4893,.7456-1.0957,1.0928l-7.6055,4.356c-.6064,.3472-1.1055,.478-1.4971,.3921-.3916-.0854-.6953-.3169-.9111-.6938-.2119-.3687-.2549-.7432-.1309-1.1245,.125-.3813,.4902-.7456,1.0957-1.0928l1.499-.8584-3.5039-6.1191-.9092,.5205c-.6064,.3472-1.1055,.478-1.4971,.3921-.3916-.0854-.6953-.3169-.9111-.6934-.2119-.3687-.2549-.7437-.1309-1.125,.125-.3813,.4902-.7456,1.0957-1.0928l3.4287-1.9634Z"/><path d="M875.2363,36.0835c.4902,1,.6875,2.105,.5918,3.3135-.0957,1.209-.5557,2.3604-1.3809,3.4536s-1.8359,1.9336-3.0303,2.5195c-1.1865,.5825-2.457,.8662-3.8096,.8516-1.3535-.0142-2.5439-.3525-3.5732-1.0151-1.0293-.6621-1.7959-1.5059-2.2988-2.5312-.5117-1.0425-.7256-2.207-.6416-3.4941,.083-1.2871,.5244-2.4839,1.3223-3.5903s1.7852-1.9487,2.9639-2.5264c1.1865-.582,2.4727-.8477,3.8594-.7974,1.3867,.0508,2.6035,.4365,3.6514,1.1582,1.0479,.7212,1.8301,1.6074,2.3457,2.6582Zm-2.6006,1.2915c-.4111-.8394-1.0908-1.4629-2.0371-1.8711-1.2881-.5459-2.6016-.4902-3.9404,.1665-1.1777,.5781-1.9766,1.4375-2.3945,2.5781-.418,1.1411-.3838,2.2075,.1025,3.1992,.3994,.8135,1.1709,1.3789,2.3145,1.6953,1.1436,.3174,2.2959,.1909,3.458-.3789,1.1689-.5737,1.9785-1.4097,2.4277-2.5083,.4502-1.0986,.4727-2.0591,.0693-2.8809Z"/><path d="M886.7988,18.1494l5.7822,14.3413,.46-.1855c.6387-.2573,1.1484-.3179,1.5293-.1816,.3809,.1367,.6523,.4067,.8145,.8091,.1592,.394,.1514,.7715-.0244,1.1323-.1748,.3604-.5869,.6714-1.2344,.9326l-3.1523,1.271-.2646-.6567c-.4678,.606-1,1.1357-1.5957,1.5898s-1.252,.8257-1.9697,1.1152c-2.0225,.8149-3.8867,.8872-5.5928,.2163-1.7061-.6714-2.9102-1.8779-3.6123-3.6201-.7344-1.8213-.7129-3.6367,.0645-5.4463,.7764-1.8091,2.0977-3.0898,3.9629-3.8418,.7002-.2822,1.4307-.4521,2.1914-.5093s1.5557-.0039,2.3848,.1602l-1.3496-3.3486-.46,.1851c-.6475,.2612-1.1602,.3228-1.5361,.1846-.377-.1387-.6445-.4048-.8027-.7988-.1631-.4023-.1562-.7842,.0186-1.145,.1758-.3608,.5869-.6714,1.2354-.9326l3.1514-1.271Zm1.9141,12.5112c-.4482-1.1118-1.2168-1.896-2.3066-2.3525-1.0898-.4561-2.2002-.4565-3.3291-.0015-1.1211,.4521-1.915,1.2202-2.3838,2.3047-.4688,1.085-.4844,2.1699-.0469,3.2554,.3994,.9897,1.0762,1.6606,2.0332,2.0127,.9561,.3525,2.0732,.271,3.3516-.2446,1.2695-.5117,2.1309-1.2275,2.584-2.1484,.4541-.9209,.4863-1.8623,.0977-2.8257Z"/><path d="M906.3379,17.5825l2.9482,9.5083c.5859-.1821,1.0586-.1855,1.4199-.0107,.3604,.1753,.6035,.4653,.7295,.8711s.0859,.7812-.1182,1.126c-.2041,.3452-.6396,.6211-1.3076,.8281l-2.6367,.8179-.1973-.6357c-.6816,.6064-1.3555,1.1118-2.0205,1.5161-.666,.4038-1.3232,.7065-1.9717,.9077-.9111,.2822-1.7598,.3354-2.5449,.1592-.7871-.1763-1.4785-.5425-2.0752-1.0986-.4307-.4004-.7598-.9653-.9863-1.6958l-1.8486-5.9644-.4736,.1465c-.667,.207-1.1826,.2261-1.5469,.0571-.3633-.1689-.6094-.4604-.7383-.8755-.126-.4058-.0859-.7812,.1182-1.126,.2041-.3452,.6396-.6211,1.3076-.8281l3.2451-1.0063,2.5586,8.25c.1816,.5864,.457,.9727,.8262,1.1597,.3701,.187,.8477,.1895,1.4336,.0078,.5586-.1733,1.126-.4702,1.7031-.8911,.5752-.4209,1.248-1.0669,2.0156-1.9375l-1.7529-5.6533-1.001,.3105c-.667,.207-1.1826,.2256-1.5459,.0566-.3643-.1689-.6104-.4604-.7393-.8755-.126-.4058-.0859-.7808,.1182-1.126s.6396-.6211,1.3076-.8281l3.7734-1.1699Z"/><path d="M923.2988,14.21c.2734-.3955,.5898-.6313,.9502-.7075,.4062-.0854,.7725-.0107,1.0967,.2246,.3252,.2354,.5586,.6904,.7002,1.3643l.3867,1.8291c.1436,.6836,.1143,1.1963-.0879,1.5381-.2031,.3418-.5166,.5576-.9414,.6475-.3887,.0815-.7393,.04-1.0547-.125-.2285-.1255-.4531-.4326-.6719-.9219s-.5674-.8135-1.0449-.9731c-.8418-.2856-1.8447-.3057-3.0078-.0601-1.3398,.2827-2.3301,.9023-2.9727,1.8579s-.8369,2.0337-.584,3.2344c.2344,1.1084,.8066,1.9019,1.7178,2.3799,.9121,.4785,2.2676,.5273,4.0693,.147,1.1816-.2495,2.1221-.5732,2.8193-.9712,.4121-.2412,.7793-.582,1.1016-1.0215,.3223-.439,.6445-.6929,.9678-.7612,.3877-.082,.7529-.0093,1.0957,.2173,.3418,.2271,.5537,.5342,.6357,.9224,.1328,.6279-.1709,1.3145-.9111,2.0591-1.0977,1.1094-2.875,1.9238-5.3311,2.4424-2.208,.4658-4.0225,.3716-5.4443-.2837-1.9219-.8774-3.1074-2.3833-3.5576-4.5171-.4277-2.0225-.1064-3.8389,.9619-5.4492,1.0693-1.6099,2.6885-2.644,4.8594-3.1025,.7852-.1655,1.5303-.2456,2.2363-.2402,.7051,.0059,1.375,.0957,2.0107,.2705Z"/><path d="M937.167,14.6074l.6123,5.7871c.0654,.6196,.2354,1.0146,.5098,1.1851,.4277,.2681,1.1475,.3486,2.1621,.2412,1.4736-.1558,2.8018-.6143,3.9834-1.3755,.4531-.2944,.8154-.4565,1.0879-.4854,.375-.0396,.7168,.0669,1.0234,.3188,.3066,.2524,.4814,.5806,.5244,.9844,.0391,.3755-.0771,.7153-.3486,1.019-.4131,.4902-1.2783,.9922-2.5957,1.5063s-2.4404,.8208-3.3701,.9189c-1.793,.1899-3.1787-.0552-4.1572-.7349s-1.5273-1.583-1.6465-2.7095l-.6719-6.3506-1.042,.1104c-.6943,.0732-1.2041-.0083-1.5273-.2441-.3242-.2363-.5098-.5703-.5547-1.0024-.0449-.4224,.0664-.7832,.334-1.082s.748-.4849,1.4434-.5581l1.042-.1104-.2764-2.605c-.0732-.6948,.0088-1.2041,.2441-1.5283,.2363-.3237,.5703-.5088,1.0029-.5547,.4219-.0444,.7832,.0669,1.082,.3345,.2988,.2671,.4844,.7485,.5576,1.4429l.2764,2.6055,5.3369-.5649c.6943-.0732,1.2041,.0078,1.5273,.2441,.3242,.2363,.5088,.5708,.5547,1.0024,.0449,.4224-.0664,.7832-.334,1.082s-.748,.4849-1.4434,.5581l-5.3369,.5649Z"/><path d="M958.0615,10.687l-.0518,9.9541,3.4834,.0181c.6982,.0039,1.1963,.1406,1.4922,.4116,.2959,.2705,.4424,.623,.4404,1.0571-.002,.4248-.1523,.771-.4512,1.0381-.2988,.2676-.7979,.3999-1.4961,.396l-9.8701-.0508c-.6982-.0039-1.1953-.1406-1.4912-.4116-.2959-.2705-.4434-.6226-.4404-1.0571,.002-.4248,.1523-.771,.4512-1.0386,.2988-.2671,.7969-.3994,1.4961-.3955l3.4834,.0181,.0361-7.0518-2.3359-.0122c-.6895-.0034-1.1846-.1406-1.4854-.4111s-.4492-.623-.4473-1.0571c.002-.4248,.1523-.771,.4512-1.0386s.7969-.3994,1.4961-.396l5.2393,.0273Zm-.3682-5.5103l-.0156,3.0728-3.4551-.0181,.0156-3.0728,3.4551,.0181Z"/><path d="M982.3984,19.4102c-.1338,1.106-.5713,2.1392-1.3105,3.1001-.7402,.9609-1.7539,1.6748-3.042,2.1406-1.2881,.4663-2.5928,.6196-3.9141,.459-1.3125-.1597-2.5312-.6143-3.6572-1.3643-1.126-.7505-1.9395-1.6836-2.4414-2.8003-.501-1.1167-.6826-2.2417-.5449-3.3755,.1396-1.1528,.5957-2.2456,1.3682-3.2788,.7725-1.0327,1.7939-1.7954,3.0664-2.2876,1.2725-.4917,2.5596-.6587,3.8623-.5005,1.3125,.1592,2.5352,.6387,3.6699,1.437,1.1338,.7988,1.9434,1.7866,2.4287,2.9629,.4844,1.1763,.6562,2.3452,.5146,3.5073Zm-2.8828-.3359c.1123-.9282-.1162-1.8208-.6875-2.6797-.7812-1.1602-1.9121-1.8301-3.3926-2.0103-1.3027-.1582-2.4404,.127-3.4141,.855-.9727,.7285-1.5254,1.6406-1.6582,2.7368-.1094,.8999,.2285,1.7944,1.0146,2.6836,.7852,.8896,1.8203,1.4126,3.1045,1.5684,1.293,.1572,2.4277-.1021,3.4033-.7773s1.5195-1.4678,1.6299-2.3765Z"/><path d="M991.7363,14.626l-.2354,.9482c.6221-.3125,1.2695-.502,1.9424-.5688,.6738-.0664,1.3721-.0098,2.0957,.1699,1.668,.4131,2.8584,1.2583,3.5732,2.5342,.5654,1.0156,.6816,2.1924,.3496,3.5303l-1.2979,5.2363c.5957,.1475,1.0029,.3872,1.2217,.7188,.2197,.3315,.2773,.708,.1729,1.1294-.1025,.4126-.3301,.7134-.6836,.9028-.3535,.1899-.8691,.2002-1.5469,.0322l-2.543-.6304c-.6777-.1685-1.1289-.4185-1.3525-.7515-.2246-.3325-.2842-.7095-.1797-1.1313,.1025-.4121,.3281-.7139,.6768-.9043,.3486-.1909,.8213-.2124,1.417-.0645l1.3184-5.3188c.1523-.6138,.0986-1.104-.1602-1.4697-.3398-.4731-.9404-.8169-1.8018-1.0303-.6504-.1611-1.2529-.1768-1.8047-.0464-.5527,.1304-1.3066,.5103-2.2598,1.1392l-1.2988,5.2368c.7246,.1792,1.1748,.3638,1.3516,.5537,.3799,.3862,.5049,.8452,.373,1.3765-.1025,.4121-.3301,.7134-.6836,.9028s-.8691,.2002-1.5469,.0322l-3.2021-.7944c-.6787-.168-1.1289-.4185-1.3525-.751-.2246-.333-.2842-.71-.1797-1.1313,.1279-.5132,.4463-.8574,.9561-1.0322,.2539-.083,.7432-.0347,1.4668,.145l1.6973-6.8447c-.5957-.1475-1.002-.3892-1.2207-.7256-.2178-.3359-.2754-.7104-.1738-1.1226,.1025-.4126,.3301-.7134,.6836-.9028,.3535-.1899,.8691-.2007,1.5479-.0322l2.6797,.6646Z"/><path d="M1021.8652,37.3955l-2.208,4.2144,1.543,.8086c.6191,.3242,.9971,.6743,1.1357,1.0508s.1074,.7568-.0938,1.1416c-.1973,.376-.4902,.6143-.8789,.7148-.3877,.1001-.8916-.0117-1.5098-.3359l-4.5537-2.3857c-.6191-.3242-.9971-.6743-1.1357-1.0508-.1387-.376-.1094-.7524,.0879-1.1289,.2012-.3843,.498-.626,.8906-.7241s.8945,.0127,1.5049,.3325l.4385,.23,6.085-11.6147-.4385-.23c-.6191-.3242-.9971-.6743-1.1357-1.0508-.1387-.376-.1074-.7563,.0938-1.1411,.1973-.3765,.4902-.6147,.8789-.7148,.3877-.1006,.8916,.0112,1.5098,.3354l3.0107,1.5771-.46,.8784c.8164-.0942,1.5996-.0732,2.3486,.0635,.749,.1362,1.4619,.3823,2.1396,.7373,1.7559,.9199,2.9404,2.2998,3.5537,4.1396s.5166,3.5293-.2891,5.0679c-.8896,1.6978-2.3555,2.7148-4.3965,3.0518-1.7031,.2803-3.3193,.0195-4.8496-.7822-.6611-.3462-1.2627-.7837-1.8057-1.3135s-1.0322-1.1533-1.4658-1.8711Zm9.9395-.4194c.1885-.3594,.2861-.8921,.293-1.5972,.0068-.7046-.1865-1.3979-.5811-2.0786-.3945-.6812-.9893-1.2295-1.7832-1.646-1.2793-.6704-2.5479-.7217-3.8037-.1543-.8564,.3936-1.4443,.8955-1.7646,1.5059-.3584,.6855-.3428,1.5439,.0498,2.5752,.3916,1.0317,1.1279,1.8301,2.2061,2.395,1.0869,.5693,2.1631,.7231,3.2275,.46,1.0654-.2622,1.7842-.749,2.1562-1.46Z"/><path d="M1041.999,50.77l.3574-.5776c-.8213-.0537-1.6562-.2295-2.5049-.5273-.8477-.2979-1.5771-.6357-2.1865-1.0137-1.3242-.8203-2.1826-1.8374-2.5742-3.0518-.3916-1.2139-.3242-2.2466,.2031-3.0972,.6416-1.0352,1.7646-1.6694,3.3691-1.9023s3.3379,.2271,5.1992,1.3804c.7471,.4624,1.5596,1.0771,2.4395,1.8438l.3652-.5898c.2285-.3687,.2568-.7681,.084-1.1973s-.7051-.9194-1.5957-1.4712c-.7305-.4526-1.7666-.8945-3.1094-1.3267-.498-.1641-.8672-.3208-1.1084-.4697-.3291-.2041-.5342-.4951-.6162-.8735s-.0088-.752,.2197-1.1211c.1289-.209,.2812-.3647,.4561-.4673s.3633-.1553,.5645-.1582,.5713,.0732,1.1084,.228c.7139,.2095,1.4189,.4604,2.1152,.7524,.6963,.2925,1.3008,.5977,1.8145,.916,1.5332,.9497,2.5176,2.0176,2.9541,3.2041s.2988,2.3535-.4111,3.501l-3.1475,5.0801,.4219,.2612c.5938,.3677,.9463,.7441,1.0566,1.1294,.1113,.3853,.0527,.7627-.1758,1.1318-.2236,.3613-.5332,.5776-.9277,.6499s-.8887-.0757-1.4824-.4438l-2.8887-1.7896Zm2.7363-4.4175c-.8672-.8042-1.7188-1.4648-2.5537-1.9819-1.0029-.6216-2.0176-.9106-3.043-.8687-.6426,.0342-1.0645,.2124-1.2627,.5332-.1445,.2329-.1523,.4883-.0254,.7671,.2373,.5132,.7051,.9863,1.4033,1.4189,.5938,.3677,1.3379,.668,2.2324,.8999s1.7588,.3291,2.5928,.2905l.6562-1.0591Z"/><path d="M1061.499,48.0273l-.9863,1.5205c1.499-.0742,2.624-.0425,3.373,.0942,.749,.1372,1.3809,.3726,1.8965,.7065,.792,.5132,1.3701,1.3047,1.7344,2.3735,.25,.7246,.2422,1.293-.0244,1.7051-.2266,.3486-.5381,.5649-.9365,.6499s-.7676,.0171-1.1084-.2036c-.3008-.1953-.5205-.5508-.6582-1.0679-.1377-.5166-.3369-.8599-.5977-1.0293-.3408-.2207-.9883-.3369-1.9434-.3481-.9541-.0112-2.2158,.082-3.7842,.2803l-2.3809,3.6714,3.4697,2.2495c.5859,.3799,.9307,.7637,1.0342,1.1514,.1035,.3872,.0361,.7632-.1992,1.1274-.2314,.3564-.5449,.5669-.9404,.6309-.3965,.064-.8877-.0942-1.4736-.4741l-7.3545-4.7681c-.5859-.3799-.9307-.7637-1.0342-1.1514-.1035-.3872-.0361-.7632,.1992-1.1279,.2314-.3564,.5449-.5664,.9404-.6304,.3965-.064,.8877,.0938,1.4736,.4741l1.4492,.9395,3.8359-5.917-.8789-.5698c-.5859-.3804-.9307-.7642-1.0342-1.1514-.1025-.3877-.0361-.7637,.2002-1.1279,.2305-.3564,.5439-.5669,.9404-.6309,.3955-.064,.8867,.0942,1.4727,.4741l3.3154,2.1494Z"/><path d="M1075.0039,60.0386l-3.0254,4.9722c-.3232,.5322-.4277,.9492-.3135,1.251,.1768,.4722,.7012,.9731,1.5713,1.5034,1.2666,.77,2.6006,1.2114,4.002,1.3237,.5391,.0405,.9248,.1318,1.1592,.2744,.3223,.1958,.5293,.4873,.6201,.874,.0898,.3867,.0303,.7539-.1807,1.1006-.1963,.3223-.4951,.522-.8955,.5991-.625,.1387-1.6182,.0127-2.9766-.3779-1.3594-.3906-2.4385-.8286-3.2373-1.314-1.54-.9375-2.4932-1.9731-2.8584-3.1069s-.2539-2.1846,.335-3.1523l3.3193-5.4561-.8945-.5444c-.5977-.3633-.9531-.7368-1.0674-1.1211-.1133-.3848-.0576-.7622,.168-1.1333,.2207-.3628,.5283-.582,.9219-.6572s.8887,.0684,1.4863,.4316l.8945,.5444,1.3613-2.2378c.3633-.5967,.7373-.9521,1.1221-1.0664,.3838-.1143,.7617-.0586,1.1328,.167,.3623,.2207,.582,.5283,.6572,.9219,.0752,.394-.0684,.8896-.4316,1.4863l-1.3613,2.2378,4.585,2.7896c.5967,.3628,.9521,.7368,1.0664,1.1211s.0576,.7622-.168,1.1333c-.2207,.3628-.5273,.582-.9219,.6572-.3936,.0752-.8887-.0688-1.4854-.4316l-4.585-2.7896Z"/><path d="M1102.9668,82.6421l5.8818,2.4136c.4307-.1294,.79-.1348,1.0781-.0166,.4102,.1685,.6797,.4375,.8096,.8066,.1289,.3691,.0586,.8813-.21,1.5361l-.5264,1.2842-12.2354-5.021,1.166-2.8428c6.4756-2.0059,10.4512-3.3745,11.9248-4.1064,.7461-.3774,1.2275-.8281,1.4424-1.3521,.2686-.6548,.2207-1.3511-.1455-2.0879s-1.0254-1.3008-1.9766-1.6914c-.9609-.394-1.875-.4424-2.7422-.145-.4531,.1606-.9004,.4927-1.3418,.9951-.2725,.3164-.5479,.5098-.8271,.5791-.2783,.0693-.5742,.0396-.8887-.0894-.3672-.1509-.6299-.4116-.7891-.7827-.1582-.3716-.166-.7319-.0225-1.0811,.2148-.5239,.7256-1.0796,1.5332-1.667,.8066-.5869,1.7725-.9253,2.8965-1.0151,1.123-.0903,2.2305,.0889,3.3223,.5366,1.6943,.6953,2.8721,1.7783,3.5342,3.249s.6934,2.9351,.0957,4.3936c-.3047,.7422-.7422,1.3662-1.3125,1.8721-.5693,.5063-1.6729,1.0762-3.3105,1.7104-1.2881,.502-3.7402,1.3428-7.3564,2.522Z"/><path d="M1125.0078,92.1172c-.1621,.5229-.4834,.9023-.9619,1.1392-.4795,.2363-1.043,.2539-1.6924,.0518-.6484-.2017-1.1035-.5361-1.3633-1.0024-.2607-.4668-.3086-.9614-.1465-1.4844,.1631-.5225,.4834-.9023,.9629-1.1387,.4785-.2368,1.043-.2539,1.6914-.0522,.6494,.2021,1.1035,.5361,1.3643,1.0029,.2598,.4663,.3086,.9614,.1455,1.4839Zm2.7969-9.0806c-.1631,.5225-.4844,.9023-.9629,1.1387-.4795,.2368-1.043,.2539-1.6924,.0522-.6484-.2021-1.1035-.5366-1.3633-1.0029-.2607-.4668-.3086-.9609-.1465-1.4839,.1631-.5229,.4834-.9028,.9629-1.1392,.4785-.2363,1.043-.2539,1.6914-.0518,.6494,.2017,1.1035,.5361,1.3643,1.0024,.2598,.4668,.3086,.9614,.1465,1.4844Z"/><path d="M1156.0127,99.4277c-.2881,.2705-.5146,.439-.6787,.5054-.165,.0664-.3594,.0869-.584,.0605-.4414-.0513-.7783-.2397-1.0107-.5659-.2334-.3267-.3105-.832-.2305-1.5166l.2246-1.9409c.0811-.6938,.2715-1.1733,.5732-1.4375,.3018-.2646,.6729-.3711,1.1133-.3198,.3379,.0391,.6113,.1611,.8203,.3657,.209,.2051,.3506,.5229,.4238,.9546,.0732,.4312,.167,.7295,.2812,.895,.2383,.3223,.6865,.6733,1.3457,1.0542,.6592,.3804,1.4014,.6187,2.2266,.7144,1.2842,.1489,2.374-.0288,3.2695-.5332,.5674-.3047,.8818-.7246,.9443-1.2593,.041-.356-.0469-.7061-.2637-1.0493-.2168-.3438-.5996-.6519-1.1475-.9243-.3584-.1841-1.1758-.4736-2.4502-.8687-1.542-.4736-2.6924-.9634-3.4512-1.4697-.7588-.5059-1.3281-1.1611-1.71-1.9658s-.5225-1.6431-.4209-2.5151c.1592-1.3784,.876-2.5186,2.1494-3.4209s2.834-1.2466,4.6816-1.0322c.7402,.0854,1.418,.2476,2.0322,.4849,.6143,.2378,1.1592,.5552,1.6357,.9526,.417-.3223,.8135-.4619,1.1885-.4185,.4229,.0493,.75,.2368,.9824,.563,.2334,.3267,.3105,.832,.2305,1.5166l-.251,2.166c-.0801,.6943-.2715,1.1733-.5732,1.4375-.3008,.2646-.6631,.3721-1.085,.3232-.3564-.0415-.6533-.1851-.8906-.4312-.1885-.1831-.3057-.52-.3535-1.0103s-.1396-.8477-.2744-1.0728c-.2314-.3877-.6045-.7349-1.1191-1.042-.5156-.3066-1.1299-.5015-1.8428-.5845-1.041-.1206-1.8916,.0254-2.5527,.438-.6611,.4131-1.0215,.8818-1.082,1.4072-.042,.3564,.042,.7153,.252,1.0771,.21,.3613,.5439,.6641,1,.9067,.3037,.1685,1.1768,.4839,2.6201,.9453,1.4434,.4624,2.541,.9126,3.293,1.3516s1.3477,1.0591,1.7871,1.8608,.5996,1.7139,.4814,2.7358c-.166,1.4253-.7998,2.5063-1.9023,3.2432-1.4619,.9707-3.2246,1.3369-5.2871,1.0977-.7969-.0928-1.5625-.2788-2.2949-.5586s-1.4326-.6533-2.1006-1.1201Z"/><path d="M1178.8398,92.0708l-.1816,5.8169c-.0195,.6226,.0957,1.0371,.3438,1.2432,.3867,.3237,1.0898,.5015,2.1084,.5332,1.4814,.0464,2.8594-.2271,4.1338-.8198,.4893-.2305,.8701-.3413,1.1445-.3325,.377,.0117,.7002,.1636,.9697,.4551,.2695,.292,.3984,.6406,.3857,1.0464-.0117,.3774-.1729,.6982-.4834,.9624-.4766,.4292-1.4023,.8086-2.7773,1.1387s-2.5293,.4805-3.4639,.4512c-1.8018-.0562-3.1416-.4873-4.0186-1.2939-.876-.8066-1.2969-1.7764-1.2617-2.9082l.1992-6.3833-1.0469-.0327c-.6982-.022-1.1924-.1719-1.4805-.4502-.2891-.2778-.4268-.6343-.4131-1.0684,.0127-.4243,.1729-.7666,.4785-1.0264,.3057-.2593,.8066-.3784,1.5059-.3564l1.0469,.0327,.082-2.6187c.0215-.6978,.1719-1.1914,.4502-1.4805,.2773-.2886,.6338-.4263,1.0684-.4126,.4238,.0132,.7666,.1724,1.0254,.478,.2598,.3057,.3789,.8076,.3574,1.5059l-.082,2.6182,5.3643,.168c.6982,.0215,1.1914,.1714,1.4805,.4497s.4268,.6348,.4131,1.0684c-.0137,.4248-.1729,.7666-.4785,1.0264s-.8076,.3784-1.5059,.3569l-5.3643-.1675Z"/><path d="M1205.5752,95.3516c.0527,1.1128-.2061,2.2046-.7754,3.2754-.5684,1.0708-1.4492,1.9438-2.6416,2.6187-1.1924,.6743-2.4531,1.043-3.7822,1.105-1.3203,.062-2.5986-.1831-3.834-.7349s-2.1934-1.3364-2.874-2.3535-1.0479-2.0962-1.1016-3.2373c-.0537-1.1597,.2129-2.3135,.8027-3.4609,.5889-1.1475,1.4688-2.0693,2.6416-2.7671,1.1719-.6973,2.4141-1.0767,3.7246-1.1382,1.3203-.0615,2.6055,.2065,3.8574,.8047,1.252,.5986,2.2148,1.437,2.8896,2.5156,.6738,1.0791,1.0381,2.2031,1.0928,3.3726Zm-2.8984,.1499c-.0439-.9336-.4189-1.7759-1.125-2.5273-.9639-1.0137-2.1914-1.4854-3.6807-1.4155-1.3115,.061-2.3848,.5317-3.2227,1.4121s-1.2314,1.8721-1.1797,2.9756c.043,.9053,.5254,1.731,1.4482,2.4766,.9238,.7461,2.0312,1.0889,3.3232,1.0283,1.3008-.061,2.376-.5059,3.2256-1.3345s1.2539-1.7007,1.2109-2.6152Z"/><path d="M1215.1631,87.6152l.2129,1.7998c1.1064-1.0151,1.9912-1.709,2.6553-2.0825,.6641-.373,1.3008-.5962,1.9102-.668,.9375-.1113,1.8877,.1279,2.8506,.7173,.6553,.3979,1.0127,.8408,1.0703,1.3281,.0488,.4126-.0527,.7783-.3047,1.0981-.2529,.3198-.5801,.5034-.9834,.5513-.3564,.042-.752-.0913-1.1885-.4014-.4355-.3096-.8076-.4458-1.1172-.4092-.4033,.0479-.9756,.3721-1.7178,.9731-.7412,.6011-1.6523,1.479-2.7324,2.6333l.5146,4.3452,4.1064-.4858c.6934-.082,1.2041-.0073,1.5303,.2251,.3271,.2319,.5166,.564,.5674,.9951,.0498,.4219-.0566,.7837-.3203,1.0859s-.7432,.4941-1.4365,.5762l-8.7041,1.0308c-.6943,.082-1.2041,.0068-1.5312-.2251-.3271-.2324-.5156-.564-.5664-.9951-.0508-.4219,.0566-.7842,.3203-1.0864,.2637-.3018,.7422-.4941,1.4355-.5762l1.7158-.2031-.8291-7.0029-1.04,.123c-.6943,.0825-1.2041,.0073-1.5312-.2251-.3271-.2319-.5156-.5635-.5674-.9951-.0498-.4219,.0576-.7837,.3213-1.0859s.7422-.4941,1.4355-.5762l3.9238-.4644Z"/><path d="M1234.3633,97.6724l-6.7285-8.7822c-.4746,.0298-.8564-.063-1.1455-.2788-.2891-.2153-.4678-.5088-.5361-.8804-.0791-.4268,.0039-.7998,.2471-1.1182,.2441-.3184,.709-.541,1.3965-.6675l2.6035-.4795c.6875-.1265,1.2012-.0845,1.543,.1265,.3408,.2109,.5508,.5298,.6299,.9565,.0762,.418-.0068,.7861-.251,1.1045-.2432,.3184-.6807,.5356-1.3125,.6519l4.5781,5.939,2.1348-7.1748c-.6133,.1128-1.0898,.064-1.4307-.147-.3418-.2104-.5518-.5293-.6299-.9565-.0771-.418,.0059-.7861,.25-1.1045,.2432-.3184,.709-.5405,1.3965-.6675l2.6875-.4946c.6777-.125,1.1865-.082,1.5283,.1289,.3408,.2109,.5508,.5298,.6299,.9565,.0693,.3809,.0039,.7266-.1982,1.0371-.2021,.311-.5459,.5303-1.0303,.6577l-4.1709,14.1011c.7148-.1318,1.1963-.1484,1.4443-.0503,.499,.2056,.7969,.5732,.8945,1.1025,.0771,.4175-.0068,.7856-.25,1.104-.2441,.3188-.71,.541-1.3965,.6675l-6.2246,1.1465c-.6875,.1265-1.2012,.084-1.543-.1265-.3408-.2109-.5498-.5249-.627-.9429-.0781-.4272,.0039-.7998,.248-1.1182,.2432-.3184,.709-.541,1.3955-.6675l2.8408-.5229,1.0264-3.5005Z"/><path d="M1246.4961,76.5469l1.5479,6.3271c.5781-.6177,1.1953-1.1255,1.8506-1.5244,.6553-.3984,1.3457-.6865,2.0703-.8638,1.9531-.4775,3.7725-.209,5.46,.8071,1.6865,1.0156,2.7637,2.4775,3.2305,4.3848,.4463,1.8247,.1729,3.5073-.8203,5.0479s-2.5488,2.5698-4.667,3.0879c-.752,.1841-1.5,.2651-2.2441,.2432s-1.4873-.1411-2.2305-.3579l.168,.6875-3.3008,.8076c-.6787,.1665-1.1943,.1538-1.5469-.0366-.3535-.1909-.5811-.4971-.6846-.9189-.1006-.4126-.0361-.7852,.1934-1.1187,.2295-.333,.6787-.5815,1.3477-.7451l.4814-.1177-2.9854-12.2002-.4814,.1177c-.6787,.166-1.1943,.1538-1.5469-.0371-.3525-.1904-.5811-.4966-.6836-.9185-.1016-.4126-.0391-.7852,.1855-1.1172s.6768-.5811,1.3555-.7471l3.3008-.8076Zm11.3594,9.9033c-.2852-1.1646-.9336-2.0503-1.9473-2.6577-1.0137-.6069-2.1123-.7661-3.2949-.4766-1.1738,.2871-2.0703,.9341-2.6885,1.9404-.6191,1.0068-.7891,2.0786-.5107,3.2158,.2539,1.0361,.8281,1.7969,1.7246,2.2817,.8965,.4858,2.0137,.5645,3.3525,.2368s2.2959-.9141,2.8711-1.7598c.5762-.8452,.7402-1.772,.4932-2.7808Z"/><path d="M1277.9961,80.4683c.3203,1.0669,.335,2.189,.043,3.3657-.292,1.1772-.9336,2.2378-1.9268,3.1816-.9922,.9438-2.126,1.6079-3.4004,1.9907-1.2666,.3809-2.5654,.4531-3.8975,.2183-1.333-.2354-2.4531-.7637-3.3604-1.585s-1.5254-1.7793-1.8535-2.873c-.335-1.1118-.3555-2.2959-.0625-3.5522,.292-1.2559,.9229-2.3647,1.8906-3.3257,.9678-.9614,2.0801-1.6309,3.3369-2.0088,1.2656-.3804,2.5781-.4326,3.9375-.1562s2.4971,.856,3.4131,1.7388c.916,.8833,1.543,1.8853,1.8799,3.0059Zm-2.7754,.8491c-.2695-.895-.8379-1.6206-1.7051-2.1782-1.1816-.749-2.4863-.9087-3.915-.4795-1.2559,.3779-2.1836,1.0957-2.7832,2.1528-.5986,1.0576-.7393,2.1147-.4209,3.1729,.2607,.8677,.9297,1.5513,2.0068,2.0508,1.0762,.4995,2.2334,.563,3.4727,.1904,1.2471-.375,2.1826-1.0674,2.8057-2.0781,.6221-1.0103,.8027-1.9536,.5391-2.8311Z"/><path d="M1292.8242,81.8784l-.2256-.6411c-.5576,.6069-1.2178,1.1475-1.9814,1.6216s-1.4844,.8306-2.1602,1.0688c-1.4697,.5176-2.7998,.5488-3.9912,.0928-1.1914-.4556-1.9541-1.1558-2.2861-2.0996-.4053-1.1484-.1953-2.4209,.6289-3.8174,.8242-1.396,2.2686-2.4585,4.335-3.1865,.8271-.2915,1.8164-.5396,2.9648-.7446l-.2305-.6543c-.1445-.4097-.4375-.6812-.8809-.8159-.4424-.1338-1.1582-.0273-2.1465,.3213-.8096,.2852-1.8037,.8159-2.9824,1.5913-.4395,.2852-.793,.4746-1.0605,.5688-.3652,.1289-.7207,.1064-1.0664-.0669-.3467-.1729-.5918-.4644-.7363-.874-.0811-.2314-.1074-.4473-.0781-.6479s.1064-.3804,.2305-.5391c.124-.1592,.415-.3989,.8721-.7207,.6104-.4253,1.248-.8174,1.9121-1.1768,.6641-.3589,1.2812-.6392,1.8516-.8398,1.7002-.5991,3.1494-.6973,4.3477-.2935,1.1982,.4033,2.0215,1.2417,2.4707,2.5151l1.9854,5.6357,.4678-.1646c.6592-.2324,1.1729-.271,1.543-.1162,.3701,.1553,.627,.4375,.7715,.8467,.1416,.4009,.1162,.7773-.0742,1.1299-.1914,.3525-.6162,.645-1.2754,.8774l-3.2051,1.1294Zm-1.7275-4.9014c-1.1699,.1724-2.2188,.4214-3.1445,.7476-1.1133,.3926-1.9746,1.0015-2.584,1.8267-.377,.5229-.502,.9629-.376,1.3188,.0908,.2583,.2852,.4248,.582,.5005,.5479,.1367,1.21,.0688,1.9844-.2041,.6592-.2319,1.3594-.624,2.1006-1.1758,.7412-.5513,1.3584-1.1641,1.8516-1.8384l-.4141-1.1753Z"/><path d="M1302.3789,64.4995l.6729,1.6826c.8047-1.2676,1.4795-2.1675,2.0234-2.7007,.5439-.5327,1.1006-.9136,1.6709-1.1416,.876-.3506,1.8564-.3662,2.9395-.0474,.7363,.2139,1.1963,.5483,1.3779,1.0039,.1543,.3857,.1514,.7656-.0088,1.1401s-.4287,.6367-.8057,.7876c-.333,.1333-.75,.1069-1.252-.0786-.501-.186-.8965-.2207-1.1855-.105-.377,.1509-.8457,.6128-1.4053,1.3857-.5605,.7729-1.2119,1.8574-1.9551,3.2529l1.626,4.0625,3.8389-1.5361c.6484-.2598,1.1611-.3198,1.5371-.1807,.376,.1396,.6445,.4106,.8057,.814,.1582,.394,.1484,.7715-.0273,1.1318s-.5889,.6704-1.2373,.9297l-8.1377,3.2563c-.6484,.2598-1.1611,.3198-1.5371,.1807-.376-.1396-.6445-.4106-.8057-.814-.1582-.3945-.1484-.7715,.0273-1.1318s.5889-.6704,1.2373-.9297l1.6035-.6421-2.6201-6.5469-.9727,.3892c-.6484,.2598-1.1602,.3198-1.5371,.1807-.376-.1396-.6445-.4106-.8057-.814-.1582-.394-.1484-.7715,.0273-1.1318,.1768-.3604,.5889-.6699,1.2373-.9297l3.668-1.4678Z"/><path d="M1322.9648,49.7134l6.2705,14.1343,.4531-.2012c.6299-.2793,1.1377-.3574,1.5234-.2339,.3848,.1235,.666,.3838,.8418,.7808,.1719,.3882,.1768,.7656,.0146,1.1323-.1631,.3662-.5635,.6914-1.2021,.9746l-3.1064,1.3779-.2871-.647c-.4473,.6216-.9609,1.1694-1.54,1.6436-.5801,.4741-1.2236,.8682-1.9316,1.1821-1.9932,.8843-3.8535,1.02-5.5811,.4082-1.7285-.6123-2.9727-1.7769-3.7344-3.4941-.7969-1.7949-.8379-3.6099-.123-5.4448,.7139-1.835,1.9902-3.1606,3.8281-3.9756,.6904-.3066,1.415-.501,2.1729-.5845,.7588-.0835,1.5547-.0571,2.3896,.0786l-1.4639-3.3008-.4531,.2007c-.6387,.2837-1.1484,.3623-1.5293,.2373-.3809-.1255-.6572-.3823-.8301-.7705-.1758-.397-.1826-.7788-.0195-1.1455,.1621-.3662,.5625-.6914,1.2012-.9746l3.1064-1.3779Zm2.3428,12.438c-.4863-1.0957-1.2822-1.853-2.3867-2.272-1.1045-.4185-2.2139-.3809-3.3271,.1128-1.1045,.4902-1.8721,1.2852-2.3027,2.3853-.4316,1.1001-.4102,2.1851,.0645,3.2549,.4326,.9756,1.1328,1.6226,2.1016,1.9419,.9678,.3193,2.0811,.1997,3.3408-.3594,1.251-.5552,2.0879-1.3003,2.5088-2.2363,.4219-.9355,.4219-1.8779,.001-2.8271Z"/></g></g></g></svg>