<?xml version="1.0" encoding="UTF-8"?><svg id="Layer_1" xmlns="http://www.w3.org/2000/svg" width="1347.4716" height="131.7832" viewBox="0 0 1347.4716 131.7832"><defs><style>.cls-1{fill:none;stroke:#000;stroke-linecap:round;stroke-linejoin:round;stroke-width:5px;}</style></defs><g><path class="cls-1" d="M627.6644,58.1168c-4.6666-3-9.3334-6-14-9l-27.9231,.1538v18.8462h-9.0769l9.0769,50.5993h82.9231V57.9704c-13.6666,.0488-27.3334,.0976-41,.1464Z"/><polyline class="cls-1" points="668.7413 118.7161 659.6644 68.1168 585.7413 68.1168"/></g><g><path d="M66.9893,53.3927l-7.3389,4.3096,.3447,2.2749,.7373-.4331c.7266-.4268,1.3271-.5908,1.8008-.4927s.8438,.3735,1.1094,.8252c.2598,.4419,.3164,.894,.1719,1.356-.1455,.4614-.5811,.9058-1.3086,1.333l-4.0674,2.3882c-.7266,.4272-1.3271,.5913-1.8008,.4932-.4746-.0981-.8438-.3735-1.1094-.8252-.2656-.4521-.3193-.9155-.1631-1.3911,.1572-.4751,.6152-.9224,1.373-1.3413l-2.1953-14.605-1.9746,1.1592c-.7275,.4272-1.3271,.5913-1.8018,.4932-.4736-.0981-.8428-.373-1.1084-.8252-.2656-.4517-.3262-.9087-.1807-1.3706,.1455-.4614,.5811-.9058,1.3076-1.333l6.5371-3.8188,14.7275,11.3091c.707-.4155,1.2197-.6108,1.5381-.5864,.6426,.0591,1.1191,.3535,1.4307,.8843,.2598,.4419,.3193,.8926,.1797,1.3511-.1406,.459-.5742,.9019-1.3008,1.3286l-4.0674,2.3887c-.7266,.4272-1.3271,.5913-1.8008,.4932-.4746-.0986-.8438-.3735-1.1094-.8252-.2598-.4424-.3174-.894-.1719-1.356s.5811-.9058,1.3076-1.333l.7373-.4326-1.8037-1.418Zm-3.0264-2.2856l-5.9453-4.5552,1.0674,7.4194,4.8779-2.8643Z"/><path d="M104.1875,29.6378c-.6592-.1255-1.3125-.1587-1.96-.0996-.6484,.0591-1.292,.2109-1.9307,.4556-1.2656,.4854-2.1914,1.0781-2.7773,1.7783-.2607,.3071-.3496,.5674-.2686,.7798,.0938,.2451,.4092,.3989,.9453,.4614,.4062,.04,1.2295-.0869,2.4717-.3799,2.2842-.5337,3.9092-.8145,4.875-.8428,1.2676-.0342,2.3535,.2207,3.2578,.7646,.9043,.5444,1.5205,1.2476,1.8516,2.1094,.4482,1.1704,.3066,2.3467-.4229,3.5293-1.043,1.7051-2.7451,3.0098-5.1074,3.915-.9463,.3628-1.8535,.6157-2.7197,.7583-.8662,.1431-1.6953,.1836-2.4883,.1211-.1064,.1997-.2363,.3711-.3887,.5146-.1523,.144-.3242,.2524-.5156,.3257-.5107,.1958-.9814,.1841-1.4131-.0347-.4316-.2192-.7988-.7222-1.1006-1.5093l-.4219-1.1011c-.3008-.7876-.3643-1.4067-.1895-1.8579,.1748-.4517,.5059-.771,.9961-.9585,.3936-.1509,.7646-.168,1.1143-.0518s.7012,.4116,1.0537,.8862c.6631,.2344,1.3877,.3257,2.1729,.2749,.7861-.0513,1.6367-.252,2.5518-.6025,1.5-.5747,2.5752-1.2549,3.2256-2.0415,.3037-.3843,.4072-.7046,.3096-.96-.1631-.4258-.5801-.6685-1.25-.7295-.6699-.0601-1.9248,.1519-3.7637,.6372-2.7344,.7305-4.6934,.8711-5.8779,.4219-1.1807-.438-1.9893-1.2261-2.4248-2.3647-.4492-1.1704-.3271-2.3335,.3643-3.4893,.9336-1.5771,2.4854-2.7822,4.6553-3.6138,.7549-.2891,1.5088-.4956,2.2607-.6191s1.5039-.1582,2.2568-.105c.1445-.2266,.291-.4106,.4375-.5522,.1475-.1416,.2949-.2412,.4443-.2983,.4473-.1714,.8838-.1465,1.3096,.0747,.4268,.2212,.79,.7251,1.0918,1.5122l.3057,.7979c.2734,.7129,.374,1.23,.3018,1.5503-.1533,.6201-.5225,1.042-1.1074,1.2661-.3936,.1509-.7861,.1611-1.1777,.0303-.3916-.1304-.708-.3813-.9473-.7534Z"/><path d="M121.0947,23.6431l1.8242,6.7827c.1953,.7261,.4727,1.165,.832,1.3159,.5596,.2388,1.4336,.1982,2.6221-.1216,1.7275-.4644,3.2236-1.2622,4.4883-2.3931,.4844-.437,.8857-.6982,1.2051-.7842,.4395-.1187,.8662-.0562,1.2803,.1865,.4131,.2427,.6836,.6006,.8105,1.0737,.1191,.4399,.0449,.8672-.2217,1.2808-.3994,.6621-1.3359,1.4243-2.8086,2.2866-1.4736,.8623-2.7539,1.4399-3.8438,1.7329-2.1016,.5654-3.7998,.5356-5.0938-.0894-1.2959-.625-2.1201-1.5977-2.4756-2.918l-2.0029-7.4429-1.2207,.3286c-.8145,.2192-1.4365,.2188-1.8682-.002-.4307-.2202-.7139-.583-.8506-1.0894-.1328-.4951-.0684-.9463,.1943-1.353,.2617-.4067,.7998-.7197,1.6143-.9385l1.2207-.3286-.8213-3.0532c-.2188-.814-.2178-1.4365,.002-1.8677,.2207-.4307,.584-.7144,1.0898-.8506,.4951-.1333,.9463-.0688,1.3525,.1934,.4072,.2622,.7197,.8008,.9385,1.6147l.8223,3.0532,6.2539-1.6831c.8145-.2188,1.4375-.2183,1.8682,.002s.7139,.584,.8506,1.0898c.1328,.4951,.0684,.9458-.1934,1.3525-.2627,.4067-.8008,.7197-1.6152,.939l-6.2539,1.6826Z"/><path d="M153.8066,21.9761c.1953,1.3306,.0137,2.6724-.542,4.0259-.5566,1.354-1.5107,2.5068-2.8623,3.4585s-2.8223,1.5439-4.4121,1.7769c-1.5781,.2305-3.1416,.0879-4.6914-.4282s-2.793-1.3442-3.7314-2.4854c-.9385-1.1406-1.5068-2.3931-1.707-3.7573-.2021-1.3867-.0186-2.8037,.5527-4.252,.5713-1.4478,1.5195-2.6602,2.8447-3.6372,1.3252-.9766,2.7715-1.5796,4.3379-1.8091,1.5781-.231,3.1553-.061,4.7295,.5088,1.5742,.5703,2.8311,1.4629,3.7686,2.6787s1.5088,2.5225,1.7129,3.9204Zm-3.4639,.5239c-.1631-1.1162-.7139-2.083-1.6504-2.9019-1.2783-1.1025-2.8086-1.5239-4.5889-1.2632-1.5674,.229-2.8018,.9219-3.7031,2.0786s-1.2559,2.3945-1.0635,3.7134c.1582,1.0825,.8359,2.0166,2.0332,2.8027,1.1973,.7866,2.5684,1.0669,4.1133,.8408,1.5557-.2275,2.7939-.8892,3.7168-1.9858,.9219-1.0962,1.3027-2.1909,1.1426-3.2847Z"/><path d="M166.0537,13.4615l.0322,2.1875c1.4541-1.0815,2.6025-1.8052,3.4463-2.1709,.8428-.3657,1.6348-.5547,2.375-.5654,1.1396-.0171,2.251,.3877,3.334,1.2148,.7383,.5586,1.1113,1.1343,1.1201,1.7266,.0078,.501-.1602,.9282-.502,1.2808-.3428,.3525-.7588,.5327-1.248,.54-.4336,.0063-.8916-.2031-1.377-.6289s-.915-.6357-1.291-.6304c-.4902,.0073-1.2178,.3262-2.1826,.9561-.9648,.6294-2.167,1.5703-3.6064,2.8228l.0791,5.2803,4.9902-.0752c.8428-.0122,1.4463,.1411,1.8096,.4604,.3633,.3188,.5498,.7407,.5576,1.2646,.0078,.5127-.166,.9341-.5195,1.2642-.3545,.3301-.9531,.5015-1.7959,.5142l-10.5771,.1582c-.8428,.0127-1.4463-.1406-1.8105-.46-.3633-.3188-.5488-.7407-.5566-1.2646-.0078-.5127,.165-.9341,.5195-1.2642,.3535-.3301,.9521-.5015,1.7949-.5142l2.085-.0312-.1279-8.5098-1.2637,.019c-.8438,.0127-1.4473-.1406-1.8105-.46s-.5498-.7407-.5576-1.2651c-.0078-.5127,.166-.9336,.5195-1.2637,.3545-.3301,.9521-.5015,1.7959-.5142l4.7676-.0718Z"/><path d="M186.2393,29.7476l-4.5537-12.5522c-.5566-.1377-.9629-.3833-1.2178-.7363-.2539-.353-.3535-.7559-.2969-1.208,.0645-.52,.2949-.9194,.6904-1.1973,.3965-.2778,1.0127-.3652,1.8496-.2612l3.1719,.394c.8359,.104,1.4131,.3394,1.7285,.7056,.3164,.3667,.4424,.8101,.3779,1.3301-.0635,.5088-.293,.9023-.6895,1.1802s-.9785,.3691-1.7471,.2734l3.1113,8.498,5.0625-7.4824c-.7461-.0928-1.2773-.3223-1.5938-.6885-.3154-.3667-.4414-.8101-.377-1.3301,.0635-.5088,.293-.9019,.6895-1.1802,.3955-.2778,1.0117-.3647,1.8486-.2607l3.2734,.4062c.8252,.1025,1.3965,.3374,1.7119,.7036,.3164,.3667,.4424,.8101,.3779,1.3301-.0576,.4639-.2598,.8374-.6045,1.1216-.3457,.2842-.8203,.4121-1.4258,.3828l-9.9219,14.7139c.8711,.1084,1.4316,.2642,1.6816,.4673,.499,.418,.709,.9492,.6289,1.5938-.0635,.5088-.293,.9019-.6895,1.1802-.3965,.2778-1.0127,.3647-1.8496,.2607l-7.5811-.9419c-.8359-.1035-1.4121-.3389-1.7285-.7056-.3164-.3662-.4424-.8042-.3799-1.3125,.0654-.5205,.2949-.9194,.6914-1.1973s1.0127-.3652,1.8496-.2612l3.46,.4302,2.4512-3.6562Z"/><path d="M231.3262,35.5137l-4.8555,4.9028-3.0098-1.3486,2.2295-12.166c-.5684-.292-.9346-.6523-1.0977-1.0815-.1641-.4292-.1455-.8672,.0547-1.314,.21-.4683,.5449-.7769,1.0049-.9263,.4609-.1499,1.0752-.0522,1.8447,.2925l2.9785,1.3345c.7695,.3447,1.252,.7388,1.4463,1.1816,.1953,.4434,.1855,.9043-.0293,1.3823-.2139,.478-.583,.7998-1.1064,.9648-.3926,.1235-.999,.0015-1.8203-.3662l-1.0547,5.6138,4.3076-4.3062,2.8379,1.2715-.3301,6.0879,3.5186-4.5098c-.79-.354-1.2754-.6646-1.4551-.9326-.3545-.5454-.3984-1.1152-.1338-1.7075,.21-.4683,.5449-.7769,1.0049-.9263,.4609-.1499,1.0752-.0522,1.8447,.2925l3.0098,1.3486c.7695,.3447,1.252,.7388,1.4463,1.1816,.1953,.4434,.1855,.9038-.0293,1.3818-.1904,.4268-.4951,.7236-.9141,.8921-.4189,.168-.918,.1475-1.498-.0625l-7.5322,9.79-2.9639-1.3276,.3018-6.9434Z"/><path d="M256.9307,38.7989l-6.1045,10.3477,3.6211,2.1362c.7256,.4287,1.1611,.8735,1.3047,1.3359,.1445,.4619,.083,.9189-.1826,1.3701-.2607,.4414-.6279,.7109-1.1025,.8081-.4736,.0972-1.0742-.0684-1.7998-.4966l-10.2598-6.0522c-.7256-.4287-1.1611-.8735-1.3047-1.3359-.1445-.4619-.084-.9185,.1826-1.3701,.2607-.4414,.6279-.7109,1.1025-.8081,.4736-.0972,1.0732,.0679,1.7998,.4966l3.6211,2.1362,4.3242-7.3306-2.4287-1.4326c-.7158-.4224-1.1494-.8662-1.2979-1.3311-.1494-.4653-.0908-.9233,.1758-1.3745,.2607-.4419,.6279-.7109,1.1016-.8086,.4746-.0972,1.0742,.0684,1.8008,.4966l5.4463,3.2129Zm2.9658-5.9688l-1.8848,3.1938-3.5908-2.1187,1.8838-3.1938,3.5918,2.1187Z"/><path d="M271.7627,52.2847l-3.8223,5.8931c-.4092,.6309-.5498,1.1304-.4219,1.4985,.1973,.5757,.8115,1.1982,1.8447,1.8677,1.5,.9731,3.0938,1.5522,4.7803,1.7363,.6494,.0674,1.1123,.1914,1.3896,.3711,.3818,.248,.6211,.6069,.7168,1.0762,.0967,.4697,.0107,.9102-.2559,1.3213-.248,.3823-.6143,.6128-1.0996,.6919-.7607,.1455-1.9531-.041-3.5791-.5591-1.626-.5186-2.9121-1.0845-3.8594-1.6982-1.8252-1.1841-2.9395-2.4663-3.3398-3.8472-.4023-1.3804-.2305-2.6445,.5137-3.7915l4.1934-6.4668-1.0605-.688c-.708-.459-1.124-.9219-1.248-1.3896s-.0439-.9214,.2412-1.3613c.2793-.4297,.6572-.6836,1.1348-.7607,.4785-.0771,1.0703,.1138,1.7783,.5723l1.0605,.6885,1.7207-2.6528c.459-.707,.9219-1.123,1.3896-1.2476s.9209-.0439,1.3613,.2412c.4297,.2788,.6836,.6572,.7607,1.1353,.0771,.4775-.1133,1.0703-.5723,1.7773l-1.7207,2.6528,5.4346,3.5244c.707,.4585,1.123,.9219,1.2471,1.3896,.125,.4678,.0439,.9214-.2402,1.3608-.2793,.4302-.6582,.6841-1.1357,.7612s-1.0703-.1138-1.7773-.5723l-5.4346-3.5244Z"/><path d="M293.0557,53.8775l-3.8682,6.3882c.8477,.0073,1.6455,.1143,2.3926,.3203,.748,.2065,1.4482,.5073,2.1006,.9028,1.0332,.6255,1.8477,1.3584,2.4443,2.1992s.9316,1.7998,1.0059,2.8765c.0732,1.0771-.2383,2.1904-.9346,3.3403l-3.4082,5.6279c.7598,.4604,1.2129,.8345,1.3584,1.1226,.2842,.5854,.2588,1.1558-.0771,1.7114-.2656,.4385-.6338,.7051-1.1045,.7998-.4697,.0947-1.0664-.0762-1.7871-.5132l-3.4209-2.0713c-.7109-.4312-1.1357-.8779-1.2754-1.3418-.1387-.4639-.0723-.9194,.1992-1.3677,.3311-.5459,.8213-.8281,1.4727-.8472,.3369-.0083,.8789,.2197,1.623,.6836l3.2852-5.4233c.4658-.7695,.6182-1.4165,.4561-1.9409-.2041-.6968-.7549-1.3164-1.6514-1.8594-.6631-.4014-1.3281-.6274-1.9961-.6792s-1.6953,.0889-3.082,.4209l-3.3994,5.6133c.7695,.4663,1.2227,.8403,1.3584,1.1226,.2939,.5913,.2734,1.1646-.0635,1.7202-.2646,.4385-.6357,.7036-1.1104,.7954-.4756,.0918-1.0742-.0806-1.7949-.5176l-3.4062-2.0625c-.7207-.437-1.1504-.8867-1.29-1.3506-.1387-.4639-.0723-.9194,.1992-1.3677,.3311-.5459,.8262-.8252,1.4863-.8384,.3291-.0142,.8701,.2139,1.624,.6841l7.8525-12.9663-.5117-.3101c-.7207-.437-1.1504-.8867-1.29-1.3506-.1387-.4639-.0723-.9194,.1992-1.3677,.2656-.439,.6357-.7041,1.1113-.7959s1.0732,.0806,1.7949,.5176l3.5078,2.1245Z"/><path d="M316.4131,83.2154c-.5928,1.2061-1.5029,2.21-2.7275,3.0103-1.2256,.8003-2.665,1.21-4.3174,1.2285-1.6533,.0181-3.2012-.3267-4.6426-1.0356-1.4316-.7036-2.6396-1.707-3.624-3.0103-.9844-1.3027-1.54-2.6904-1.667-4.1616-.127-1.4722,.1143-2.8262,.7227-4.0635,.6182-1.2573,1.5723-2.3213,2.8633-3.1909s2.7598-1.3315,4.4053-1.3857,3.1787,.2681,4.5996,.9668c1.4316,.7041,2.6338,1.7368,3.6094,3.0981,.9736,1.3618,1.5039,2.8091,1.5879,4.3423s-.1865,2.9336-.8096,4.2017Zm-3.1514-1.5308c.498-1.0122,.5918-2.1211,.2842-3.3267-.4297-1.6328-1.4512-2.8462-3.0664-3.6406-1.4209-.6987-2.8311-.8271-4.2295-.3848s-2.3916,1.2617-2.9795,2.458c-.4824,.9814-.4531,2.1353,.0879,3.4614,.541,1.3267,1.5117,2.334,2.9131,3.0229,1.4111,.6938,2.8066,.8501,4.1875,.4688,1.3809-.3809,2.3154-1.0674,2.8027-2.0591Z"/><path d="M338.8584,82.9971l-4.0527,11.3096c.6973,.25,1.1562,.5898,1.377,1.02,.2207,.4307,.2451,.8867,.0723,1.3696-.1729,.4824-.4834,.8159-.9307,1.0005s-1.0674,.1348-1.8613-.1494l-3.1367-1.1245,.2705-.7559c-1.0977,.0908-2.1143,.0894-3.0488-.0034-.9346-.0933-1.7881-.2778-2.5605-.5547-1.083-.3882-1.9404-.9526-2.5703-1.6924-.6309-.7402-1.0322-1.5957-1.2051-2.5649-.125-.6987-.0312-1.4819,.2803-2.3506l2.542-7.0952-.5635-.2017c-.793-.2842-1.3037-.6396-1.5322-1.0664s-.2539-.8867-.0771-1.3804c.1729-.4824,.4824-.8164,.9297-1.001,.4482-.1846,1.0684-.1348,1.8623,.1499l3.8613,1.3838-3.5176,9.8135c-.25,.6973-.2646,1.27-.0439,1.7183s.6797,.7969,1.377,1.0469c.665,.2383,1.4277,.3638,2.2891,.3755,.8613,.0122,1.9775-.1235,3.3496-.4062l2.4102-6.7246-1.1904-.4268c-.7939-.2847-1.3047-.6401-1.5332-1.0669s-.2539-.8867-.0771-1.3799c.1729-.4829,.4834-.8164,.9307-1.001s1.0674-.1348,1.8613,.1499l4.4883,1.6084Z"/><path d="M351.0938,89.8751l-1.6123,6.8364c-.1729,.7314-.1367,1.2495,.1074,1.5527,.3789,.4761,1.168,.855,2.3652,1.1377,1.7412,.4106,3.4365,.4185,5.0869,.0234,.6338-.1548,1.1104-.1943,1.4326-.1187,.4434,.1045,.7891,.3618,1.0381,.772,.249,.4097,.3164,.853,.2041,1.3296-.1045,.4438-.3721,.7847-.8027,1.0225-.667,.3931-1.8525,.6196-3.5576,.6792-1.7061,.0601-3.1074-.0396-4.2061-.2983-2.1182-.4995-3.5986-1.332-4.4414-2.4966s-1.1074-2.4121-.7939-3.7427l1.7695-7.502-1.2305-.29c-.8203-.1938-1.3682-.4897-1.6426-.8882-.2754-.3984-.3525-.8525-.2324-1.3628,.1182-.499,.3887-.8652,.8125-1.0991,.4238-.2334,1.0459-.2534,1.8672-.0601l1.2305,.2905,.7266-3.0771c.1934-.8203,.4893-1.3682,.8877-1.6431,.3984-.2744,.8525-.3521,1.3623-.2314,.499,.1177,.8652,.3887,1.0996,.8125,.2334,.4238,.2529,1.0459,.0596,1.8667l-.7256,3.0771,6.3037,1.4868c.8203,.1938,1.3682,.4897,1.6436,.8882,.2744,.3984,.3516,.853,.2314,1.3628-.1182,.499-.3887,.8652-.8125,1.0991-.4238,.2334-1.0459,.2534-1.8672,.0601l-6.3037-1.4873Z"/><path d="M395.793,101.0704l-2.5518,6.4116-3.2969-.064-2.7061-12.0688c-.6377-.0469-1.1152-.2354-1.4336-.5664s-.4727-.7412-.4629-1.231c.0098-.5127,.1973-.9277,.5625-1.2456s.9688-.4683,1.8115-.4521l3.2637,.0635c.8428,.0161,1.4404,.1904,1.793,.522s.5244,.7598,.5137,1.2832c-.0098,.5244-.2236,.9644-.6406,1.3208-.3125,.2676-.9199,.3926-1.8193,.375l1.2256,5.5791,2.2803-5.6479,3.1094,.0605,2.0771,5.7324,1.4746-5.5269c-.8662-.0166-1.4336-.1133-1.7041-.2896-.54-.3633-.8037-.8701-.791-1.5195,.0098-.5122,.1973-.9277,.5625-1.2451,.3652-.3179,.9688-.4683,1.8125-.4521l3.2979,.064c.8428,.0166,1.4404,.1904,1.793,.522s.5234,.7598,.5137,1.2832c-.0098,.4673-.1738,.8599-.4932,1.1787-.3193,.3184-.7871,.4946-1.4033,.5283l-3.1035,11.9561-3.2471-.063-2.4375-6.5083Z"/><path d="M427.4033,98.7637c.0996,1.3408-.1777,2.6665-.8291,3.9766-.6514,1.3105-1.6855,2.3921-3.1025,3.2446s-2.9258,1.3379-4.5283,1.4561c-1.5908,.1172-3.1396-.1372-4.6484-.7627-1.5088-.626-2.6895-1.5415-3.5439-2.7466s-1.332-2.4951-1.4326-3.8701c-.1035-1.3975,.1816-2.7979,.8555-4.2012,.6729-1.4033,1.7061-2.5444,3.0977-3.4243,1.3916-.8789,2.877-1.377,4.457-1.4932,1.5908-.1172,3.1504,.1646,4.6807,.8457,1.5293,.6816,2.7178,1.6621,3.5664,2.9419,.8486,1.2803,1.3242,2.6245,1.4277,4.0332Zm-3.4922,.2744c-.083-1.125-.5625-2.1289-1.4385-3.0127-1.1963-1.1914-2.6914-1.7212-4.4873-1.5889-1.5791,.1162-2.8594,.7192-3.8418,1.8081-.9824,1.0894-1.4248,2.2983-1.3271,3.6279,.0811,1.0908,.6895,2.0713,1.8281,2.9414,1.1377,.8701,2.4854,1.2476,4.042,1.1328,1.5674-.1152,2.8506-.6865,3.8486-1.7144,.998-1.0273,1.457-2.0923,1.376-3.1943Z"/><path d="M438.7188,88.9947l.3408,2.1606c1.2871-1.2754,2.3223-2.1533,3.1055-2.6348,.7832-.4805,1.541-.7788,2.2725-.894,1.125-.1772,2.2822,.0674,3.4717,.7334,.8086,.4492,1.2598,.9663,1.3516,1.5518,.0781,.4951-.0273,.9414-.3164,1.3384-.2891,.3979-.6758,.6343-1.1602,.7104-.4277,.0674-.9111-.0752-1.4512-.4287-.54-.353-.9961-.5005-1.3672-.4419-.4844,.0762-1.1592,.4941-2.0254,1.2534-.8672,.7593-1.9248,1.8604-3.1738,3.3027l.8223,5.2163,4.9287-.7769c.833-.1309,1.4521-.064,1.8574,.2007,.4053,.2651,.6484,.6562,.7295,1.1738,.0801,.5063-.0322,.9482-.3359,1.3247s-.8721,.6304-1.7051,.7617l-10.4502,1.6465c-.833,.1309-1.4512,.064-1.8564-.2007-.4053-.2651-.6484-.6562-.7305-1.1738-.0791-.5068,.0332-.9482,.3369-1.3247s.8721-.6304,1.7051-.7617l2.0596-.3247-1.3242-8.4067-1.25,.1968c-.833,.1313-1.4512,.0645-1.8564-.2007-.4053-.2646-.6484-.6562-.7295-1.1738-.0801-.5063,.0322-.9478,.3359-1.3247,.3037-.3765,.8721-.6304,1.7051-.7617l4.71-.7417Z"/><path d="M467.1729,76.3883l4.2363,18.1748,.582-.1357c.8096-.1885,1.4297-.1665,1.8584,.0669,.4287,.2339,.7031,.606,.8213,1.1162,.1162,.499,.0371,.9478-.2393,1.3452-.2754,.3979-.8242,.6924-1.6455,.8838l-3.9941,.9307-.1943-.832c-.6699,.6362-1.4023,1.1694-2.1973,1.6001-.7949,.4312-1.6475,.7524-2.5566,.9644-2.5635,.5972-4.7998,.3379-6.709-.7788-1.9102-1.1167-3.1221-2.7793-3.6367-4.9873-.5381-2.3076-.1758-4.4688,1.0859-6.4824,1.2617-2.0142,3.0752-3.2964,5.4385-3.8472,.8877-.207,1.79-.2739,2.708-.2012s1.8564,.2842,2.8154,.6338l-.9893-4.2441-.583,.1357c-.8213,.1914-1.4434,.1694-1.8662-.0654-.4229-.2344-.6934-.6016-.8096-1.1011-.1191-.5103-.04-.9644,.2354-1.3618,.2764-.3979,.8242-.6924,1.6455-.8838l3.9941-.9307Zm-.0371,15.2749c-.3281-1.4087-1.1006-2.4868-2.3154-3.2329s-2.5381-.9526-3.9697-.6191c-1.4199,.3311-2.5098,1.1001-3.2705,2.3062-.7598,1.207-.9795,2.498-.6582,3.874,.292,1.2539,.9756,2.1797,2.0508,2.7769,1.0752,.5981,2.4229,.708,4.043,.3301,1.6084-.375,2.7686-1.0693,3.4795-2.083,.7119-1.0142,.9248-2.1313,.6406-3.3521Z"/><path d="M486.7891,81.8643c-.6475-.1733-1.2969-.2544-1.9473-.2427-.6514,.0117-1.3037,.1162-1.958,.3135-1.2988,.3916-2.2646,.915-2.9004,1.5708-.2822,.2876-.3906,.5405-.3242,.7583,.0752,.251,.3789,.4277,.9092,.5293,.4014,.0693,1.2324,.0029,2.4922-.1982,2.3174-.3657,3.959-.5273,4.9238-.4854,1.2666,.0586,2.3311,.3921,3.1934,1.001,.8613,.6089,1.4258,1.355,1.6924,2.2383,.3613,1.2002,.1348,2.3633-.6797,3.4893-1.1641,1.6245-2.957,2.8018-5.3789,3.5317-.9707,.293-1.8936,.479-2.7676,.5581-.875,.0791-1.7051,.0591-2.4912-.061-.1201,.1914-.2617,.353-.4248,.4849-.1621,.1328-.3418,.228-.5381,.2876-.5234,.1577-.9922,.1118-1.4072-.1382-.4141-.25-.7432-.7783-.9863-1.5854l-.3408-1.1289c-.2432-.8071-.2617-1.4297-.0537-1.8672,.207-.437,.5615-.7314,1.0635-.8828,.4033-.1216,.7754-.1118,1.1152,.0298,.3398,.1411,.6689,.4619,.9863,.9609,.6436,.2817,1.3594,.4258,2.1475,.4321,.7871,.0068,1.6494-.1313,2.5879-.4146,1.5381-.4634,2.6602-1.0635,3.3662-1.8003,.3311-.3613,.457-.6733,.3789-.9351-.1318-.436-.5293-.709-1.1934-.8184s-1.9307,.0107-3.8008,.3604c-2.7793,.5288-4.7441,.5264-5.8926-.0078-1.1455-.5229-1.8936-1.3687-2.2461-2.5356-.3613-1.1997-.1553-2.3511,.6191-3.4531,1.0449-1.5054,2.6807-2.5938,4.9062-3.2646,.7744-.2334,1.541-.3843,2.2998-.4526,.7588-.0679,1.5117-.0479,2.2578,.0601,.1611-.2153,.3203-.3882,.4775-.519,.1572-.1304,.3115-.2188,.4648-.2646,.458-.1382,.8916-.0815,1.3008,.1699,.4082,.2515,.7344,.7808,.9785,1.5879l.2461,.8184c.2207,.731,.2832,1.2534,.1875,1.5679-.1982,.6069-.5967,1.001-1.1963,1.1816-.4043,.1221-.7959,.1035-1.1777-.0557-.3809-.1587-.6777-.4321-.8896-.8203Z"/></g><g><path d="M799.9258,72.1134l-6.8877,4.999,.5635,2.231,.6914-.502c.6826-.4951,1.2646-.7168,1.7461-.665,.4805,.0522,.875,.2905,1.1826,.7144,.3018,.415,.4023,.8594,.3027,1.333-.0996,.4731-.4912,.958-1.1729,1.4531l-3.8174,2.7705c-.6826,.4956-1.2646,.7168-1.7451,.665-.4814-.0522-.876-.29-1.1836-.7144-.3076-.4238-.4072-.8799-.2969-1.3687,.1104-.4878,.5225-.9771,1.2363-1.4673l-3.5977-14.3247-1.8525,1.3452c-.6826,.4951-1.2646,.7168-1.7451,.6646-.4814-.0518-.876-.2896-1.1836-.7139-.3086-.4243-.4121-.873-.3125-1.3467s.4902-.958,1.1729-1.4531l6.1367-4.4336,15.752,9.832c.6641-.4819,1.1553-.7261,1.4746-.7324,.6455-.0034,1.1484,.2437,1.5098,.7412,.3008,.415,.4043,.8579,.3096,1.3281-.0957,.4702-.4844,.9526-1.167,1.4482l-3.8164,2.7705c-.6826,.4951-1.2646,.7168-1.7461,.665-.4805-.0522-.875-.29-1.1836-.7144-.3008-.415-.4014-.8594-.3018-1.3325,.0996-.4736,.4902-.958,1.1729-1.4536l.6914-.502-1.9326-1.2368Zm-3.2334-1.9819l-6.3574-3.959,1.7793,7.2817,4.5781-3.3228Z"/><path d="M834.0576,44.2178c-.6699-.0381-1.3213,.0146-1.9561,.1582-.6348,.144-1.2529,.3794-1.8535,.7056-1.1914,.6475-2.0312,1.3564-2.5205,2.1274-.2178,.3394-.2725,.6084-.1631,.8086,.125,.2305,.458,.3413,.998,.333,.4072-.0137,1.207-.2476,2.3994-.7012,2.1953-.8291,3.7686-1.3208,4.7217-1.4756,1.2529-.2007,2.3633-.0908,3.3301,.3301,.9678,.4209,1.6719,1.0366,2.1133,1.8477,.5977,1.1011,.6123,2.2861,.0439,3.5542-.8096,1.8276-2.3252,3.3447-4.5479,4.5522-.8916,.4839-1.7568,.8535-2.5967,1.1089-.8408,.2554-1.6572,.4043-2.4512,.4468-.0791,.2119-.1855,.3989-.3174,.5615s-.2881,.2925-.4688,.3906c-.4805,.2612-.9492,.3115-1.4053,.1509-.457-.1602-.8867-.6108-1.2891-1.3516l-.5625-1.0361c-.4023-.7407-.5469-1.3467-.4326-1.8169,.1133-.4702,.4004-.8306,.8613-1.0806,.3701-.2012,.7363-.2671,1.0986-.1982,.3613,.0693,.748,.3164,1.1602,.7407,.6885,.145,1.4189,.1401,2.1904-.0137,.7725-.1533,1.5889-.4644,2.4502-.9321,1.4111-.7666,2.3887-1.5825,2.9297-2.4473,.251-.4214,.3105-.7524,.1807-.9927-.2178-.4004-.6631-.5864-1.335-.5586s-1.8877,.4033-3.6475,1.126c-2.6143,1.083-4.5381,1.48-5.7715,1.1904-1.2275-.2793-2.1328-.9546-2.7148-2.0259-.5977-1.1011-.6299-2.27-.0967-3.5068,.7178-1.6865,2.0977-3.0845,4.1396-4.1938,.7109-.3862,1.4316-.6899,2.1602-.9111,.7295-.2207,1.4707-.3545,2.2236-.4004,.1133-.2437,.2344-.4453,.3613-.605s.2607-.2778,.4014-.354c.4199-.2285,.8564-.2612,1.3076-.0981,.4521,.1631,.8789,.6152,1.2812,1.356l.4082,.7505c.3643,.6709,.5312,1.1699,.502,1.4971-.0703,.6348-.3809,1.1016-.9307,1.4009-.3711,.2012-.7588,.2632-1.1641,.1846-.4053-.0776-.752-.2852-1.0381-.6221Z"/><path d="M849.8086,35.9185l2.8369,6.4253c.3037,.688,.6445,1.0791,1.0234,1.1738,.5889,.1504,1.4473-.0225,2.5723-.52,1.6357-.7222,2.9932-1.7388,4.0713-3.0493,.4121-.5059,.7686-.8252,1.0713-.959,.416-.1841,.8477-.1875,1.293-.0107s.7676,.4897,.9658,.9375c.1836,.417,.1758,.8501-.0244,1.2998-.2939,.7153-1.1035,1.6113-2.4277,2.688s-2.502,1.8433-3.5342,2.2988c-1.9902,.8794-3.6729,1.1084-5.0479,.6885-1.375-.4204-2.3389-1.2559-2.8916-2.5063l-3.1133-7.0508-1.1572,.5107c-.7715,.3408-1.3867,.4351-1.8457,.2832-.46-.1523-.7949-.4678-1.0068-.9473-.207-.4692-.2119-.9243-.0156-1.3667,.1973-.4419,.6816-.833,1.4531-1.1738l1.1562-.5107-1.2764-2.8921c-.3408-.7715-.4355-1.3867-.2832-1.8462s.4678-.7949,.9473-1.0068c.4688-.207,.9238-.2124,1.3662-.0151s.833,.6816,1.1738,1.4526l1.2773,2.8921,5.9248-2.6167c.7715-.3408,1.3867-.4351,1.8467-.2827,.459,.1519,.7949,.4678,1.0068,.9473,.207,.4688,.2119,.9243,.0146,1.3662s-.6816,.8335-1.4521,1.1738l-5.9248,2.6167Z"/><path d="M881.6934,28.8746c.4238,1.2764,.4795,2.6294,.1689,4.0591-.3115,1.4302-1.0498,2.7319-2.2148,3.9048-1.165,1.1733-2.5098,2.0132-4.0342,2.5195-1.5146,.5024-3.0791,.6353-4.6943,.3975-1.6162-.2378-2.9854-.8364-4.1084-1.7964-1.123-.9595-1.9014-2.0933-2.3359-3.4019-.4414-1.3296-.5078-2.7573-.1982-4.2827s1.0322-2.8848,2.166-4.0781c1.1348-1.1929,2.4531-2.0391,3.9561-2.5381,1.5137-.5029,3.0957-.6108,4.7451-.3247,1.6504,.2866,3.043,.9463,4.1787,1.98s1.9258,2.2207,2.3711,3.561Zm-3.3193,1.1206c-.3555-1.0703-1.0664-1.9268-2.1318-2.5693-1.4512-.8623-3.0312-1.0103-4.7393-.4429-1.5029,.499-2.5977,1.397-3.2832,2.6929-.6865,1.2969-.8193,2.5771-.3984,3.8423,.3447,1.0381,1.1748,1.8398,2.4912,2.4048,1.3154,.5654,2.7148,.6021,4.1963,.1099,1.4922-.4956,2.5967-1.3633,3.3125-2.6035,.7168-1.2402,.9014-2.3853,.5527-3.4341Z"/><path d="M892.04,18.1778l.457,2.1387c1.2158-1.3433,2.2012-2.2769,2.958-2.7998,.7559-.5225,1.4961-.8618,2.2197-1.0166,1.1143-.2388,2.2832-.0576,3.5068,.5425,.832,.4048,1.3105,.897,1.4346,1.4761,.1045,.4902,.0234,.9414-.2432,1.354-.2676,.4126-.6406,.6699-1.1191,.7725-.4238,.0908-.915-.0254-1.4727-.3491-.5586-.3228-1.0225-.4453-1.3896-.3667-.4795,.1025-1.1309,.5566-1.9541,1.3618-.8242,.8057-1.8203,1.9624-2.9893,3.4707l1.1055,5.1641,4.8799-1.0444c.8242-.1763,1.4453-.1431,1.8643,.0991,.4189,.2427,.6836,.6201,.793,1.1323,.1074,.5015,.0195,.9487-.2637,1.3413-.2822,.3926-.8369,.6768-1.6611,.8535l-10.3438,2.2134c-.8252,.1763-1.4463,.1431-1.8652-.0991-.4189-.2427-.6836-.6196-.793-1.1323-.1074-.5015-.0195-.9482,.2637-1.3408s.8369-.6772,1.6611-.8535l2.0391-.4365-1.7812-8.3223-1.2363,.2646c-.8252,.1763-1.4463,.1436-1.8652-.0991-.4189-.2422-.6826-.6196-.793-1.1323-.1074-.5015-.0195-.9482,.2637-1.3408s.8369-.6772,1.6611-.8535l4.6631-.9976Z"/><path d="M915.0254,30.0772l-7.0791-11.3213c-.5732-.0186-1.0215-.1738-1.3438-.4658-.3232-.292-.5049-.665-.5439-1.1191-.0459-.522,.0957-.9604,.4248-1.3154,.3301-.3545,.9141-.5684,1.7539-.6421l3.1836-.2778c.8398-.0732,1.4531,.0361,1.8389,.3281,.3857,.2925,.6016,.6997,.6475,1.2217,.0439,.5107-.0977,.9434-.4277,1.2983-.3291,.3545-.8799,.5654-1.6514,.6328l4.8203,7.6592,3.3857-8.376c-.749,.0654-1.3164-.0479-1.7021-.3398-.3857-.2925-.6016-.6997-.6475-1.2217-.0439-.5107,.0977-.9434,.4277-1.2983,.3291-.3545,.9131-.5688,1.7539-.6421l3.2852-.2871c.8281-.0723,1.4355,.0376,1.8213,.3301,.3857,.292,.6016,.6997,.6475,1.2217,.041,.4653-.0781,.873-.3564,1.2231s-.7158,.5747-1.3135,.6724l-6.625,16.4639c.874-.0762,1.4551-.041,1.7422,.1055,.5752,.3042,.8916,.7798,.9482,1.4268,.0439,.5107-.0977,.9434-.4277,1.2983-.3291,.3545-.9131,.5684-1.7529,.6421l-7.6104,.6646c-.8398,.0732-1.4531-.0361-1.8389-.3281-.3857-.2925-.6006-.6938-.6455-1.2046-.0459-.5225,.0967-.9604,.4258-1.3154,.3291-.3545,.9131-.5688,1.7539-.6421l3.4727-.3032,1.6328-4.0884Z"/><path d="M960.4033,25.7335l-3.5967,5.8896-3.2393-.6196-.6309-12.3525c-.6201-.1533-1.0596-.4199-1.3174-.7998s-.3408-.8105-.249-1.2915c.0967-.5039,.3516-.8813,.7646-1.1328s1.0342-.2983,1.8623-.1396l3.2061,.6128c.8281,.1582,1.3877,.4307,1.6797,.8169,.291,.3862,.3877,.8369,.29,1.3516-.0986,.5151-.3838,.9131-.8555,1.1938-.3535,.2109-.9717,.2319-1.8555,.063l.2656,5.7056,3.2002-5.1821,3.0557,.584,1.0801,6.0005,2.3857-5.1987c-.8506-.1626-1.3945-.3535-1.6309-.5728-.4707-.4492-.6455-.9932-.5234-1.6309,.0967-.5039,.3516-.8813,.7646-1.1328,.4141-.2515,1.0342-.2983,1.8623-.1396l3.2402,.6191c.8281,.1582,1.3877,.4307,1.6797,.8169,.291,.3867,.3877,.8374,.2891,1.3521-.0879,.459-.3154,.8179-.6846,1.0781s-.8594,.355-1.4727,.2842l-5.0762,11.2612-3.1895-.6099-1.3047-6.8267Z"/><path d="M986.3398,23.5552l-4.0283,11.3188,3.96,1.4097c.7949,.2827,1.3066,.6372,1.5352,1.0635,.2295,.4258,.2568,.8862,.0811,1.3799-.1719,.4829-.4814,.8174-.9287,1.0029s-1.0674,.1367-1.8623-.146l-11.2217-3.9937c-.7939-.2827-1.3057-.6372-1.5352-1.0635s-.2559-.8862-.0801-1.3799c.1719-.4829,.4814-.8174,.9277-1.0029,.4473-.1855,1.0674-.1372,1.8623,.1455l3.9609,1.4097,2.8535-8.0181-2.6572-.9453c-.7832-.2788-1.292-.6323-1.5264-1.0605-.2354-.4282-.2646-.8892-.0889-1.3828,.1719-.4834,.4814-.8174,.9287-1.0029,.4463-.1855,1.0674-.1372,1.8613,.1455l5.958,2.1201Zm1.7773-6.4233l-1.2432,3.4937-3.9287-1.3979,1.2441-3.4941,3.9277,1.3984Z"/><path d="M1003.6289,35.0333l-3.2402,6.2319c-.3467,.6675-.4385,1.1782-.2764,1.5322,.252,.5542,.9229,1.1152,2.0146,1.6826,1.5869,.8252,3.2285,1.2485,4.9258,1.27,.6523,.0054,1.125,.084,1.418,.2363,.4043,.21,.6768,.5444,.8174,1.0029,.1406,.458,.0977,.9048-.1279,1.3394-.21,.4043-.5537,.6689-1.0293,.7939-.7422,.2178-1.9473,.1465-3.6162-.2134-1.668-.3604-3.0029-.8003-4.0029-1.3203-1.9316-1.0039-3.1631-2.1738-3.6943-3.5093-.5322-1.3359-.4824-2.6104,.1475-3.8237l3.5557-6.8384-1.123-.5835c-.748-.3892-1.2061-.8101-1.375-1.2637-.168-.4536-.1318-.9131,.1104-1.3779,.2363-.4551,.5879-.7437,1.0566-.8662,.4678-.1226,1.0762,.0103,1.8242,.3994l1.1221,.583,1.458-2.8052c.3887-.748,.8105-1.2065,1.2637-1.375,.4541-.1689,.9131-.1323,1.3779,.1094,.4551,.2368,.7441,.5889,.8662,1.0571,.123,.4683-.0098,1.0762-.3994,1.8242l-1.458,2.8057,5.7471,2.9873c.748,.3887,1.207,.8101,1.375,1.2637,.1689,.4536,.1328,.9131-.1094,1.3779-.2363,.4546-.5889,.7437-1.0566,.8662-.4688,.1226-1.0762-.0107-1.8242-.3994l-5.7471-2.9873Z"/><path d="M1026.1738,36.2032l-3.9785,6.3203c.8477,.022,1.6436,.1431,2.3867,.3618,.7441,.2192,1.4395,.5322,2.085,.939,1.0225,.6431,1.8242,1.3901,2.4062,2.2412,.5811,.8506,.8994,1.8154,.9551,2.8931,.0547,1.0781-.2754,2.186-.9912,3.3237l-3.5049,5.5684c.752,.4736,1.1982,.8555,1.3379,1.1455,.2754,.5903,.2393,1.1602-.1064,1.71-.2734,.4336-.6455,.6938-1.1172,.7808-.4727,.0864-1.0654-.0947-1.7783-.5439l-3.3848-2.1299c-.7041-.4434-1.1211-.8979-1.252-1.3638s-.0566-.9209,.2227-1.3643c.3398-.54,.8359-.8135,1.4863-.8213,.3379-.0024,.875,.2349,1.6123,.7114l3.377-5.3657c.4795-.7617,.6426-1.4058,.4902-1.9331-.1924-.6997-.7324-1.3291-1.6191-1.8872-.6553-.4131-1.3174-.6504-1.9844-.7139-.667-.063-1.6963,.0596-3.0889,.3677l-3.4951,5.5542c.7607,.479,1.207,.8608,1.3379,1.1455,.2842,.5962,.2539,1.1689-.0918,1.7188-.2734,.4341-.6484,.6924-1.125,.7764-.4766,.0835-1.0723-.0991-1.7852-.5483l-3.3701-2.1211c-.7139-.4492-1.1357-.9067-1.2666-1.373-.1309-.4658-.0566-.9204,.2227-1.3643,.3398-.5396,.8398-.8105,1.501-.812,.3281-.0083,.8662,.2285,1.6123,.7114l8.0742-12.8286-.5059-.3184c-.7139-.4492-1.1357-.9067-1.2666-1.373-.1309-.4658-.0566-.9204,.2227-1.3643,.2734-.4336,.6484-.6924,1.125-.7764,.4766-.0835,1.0713,.0991,1.7852,.5483l3.4717,2.1851Z"/><path d="M1047.4863,67.3341c-.7256,1.1318-1.7422,2.0269-3.0488,2.6841-1.3076,.6577-2.7842,.9028-4.4287,.7354-1.6445-.168-3.1436-.6846-4.4961-1.5513-1.3438-.8604-2.4307-1.9932-3.2627-3.3984-.8311-1.4058-1.2275-2.8467-1.1875-4.3232,.0391-1.4766,.4307-2.7954,1.1738-3.9561,.7559-1.1802,1.8242-2.1299,3.2051-2.8486s2.8916-1.0127,4.5322-.8813c1.6416,.1309,3.1289,.6235,4.4619,1.478,1.3438,.8604,2.4229,2.022,3.2383,3.4844,.8145,1.4629,1.1777,2.9604,1.0889,4.4932-.0889,1.5332-.5146,2.8945-1.2764,4.084Zm-2.959-1.8755c.6084-.9497,.8271-2.041,.6562-3.2734-.2432-1.6709-1.1221-2.9917-2.6377-3.9629-1.333-.854-2.7197-1.1401-4.1592-.8579-1.4385,.2827-2.5176,.9849-3.2373,2.1074-.5898,.9209-.6904,2.0708-.3018,3.4497,.3887,1.3784,1.2402,2.4888,2.5547,3.3311,1.3242,.8477,2.6934,1.1602,4.1084,.937,1.4141-.2236,2.4199-.8003,3.0166-1.731Z"/><path d="M1069.2764,70.5592l-5.8633,10.4858c.6455,.3618,1.042,.7729,1.1895,1.2334,.1465,.4609,.0957,.915-.1543,1.3623-.251,.4478-.6113,.7256-1.083,.834-.4717,.1079-1.0762-.0435-1.8115-.4551l-2.9092-1.6265,.3926-.7012c-1.0977-.0918-2.0996-.2603-3.0068-.5063-.9062-.2466-1.7178-.5693-2.4336-.9697-1.0049-.562-1.7568-1.2598-2.2559-2.0938-.5-.834-.7549-1.7437-.7646-2.7285-.0088-.7095,.2129-1.4668,.6631-2.2725l3.6787-6.5776-.5215-.292c-.7363-.4116-1.1816-.8467-1.3359-1.3052-.1553-.4585-.1045-.9165,.1514-1.374,.25-.4473,.6113-.7251,1.083-.8335s1.0752,.0435,1.8115,.4551l3.5791,2.002-5.0879,9.0986c-.3613,.6465-.4707,1.209-.3271,1.687,.1436,.4785,.5391,.8984,1.1855,1.2598,.6162,.3452,1.3477,.5947,2.1953,.7485,.8467,.1538,1.9707,.2046,3.3711,.1523l3.4863-6.2349-1.1035-.6177c-.7363-.4116-1.1816-.8462-1.3359-1.3047-.1543-.459-.1045-.9165,.1514-1.374,.25-.4478,.6113-.7256,1.083-.834,.4717-.1079,1.0752,.0435,1.8115,.4551l4.1611,2.3271Z"/><path d="M1080.1367,79.4923l-2.7783,6.4512c-.2969,.6904-.3516,1.2065-.1641,1.5483,.291,.5342,1.001,1.0449,2.1318,1.5317,1.6426,.707,3.3105,1.0103,5.0049,.9082,.6504-.042,1.1279,.002,1.4307,.1328,.4189,.1802,.7148,.4937,.8887,.9404,.1729,.4468,.1631,.8955-.0303,1.3452-.1807,.4185-.5029,.7075-.9688,.8667-.7246,.2715-1.9316,.2876-3.6221,.0498s-3.0527-.5796-4.0889-1.0254c-1.999-.8608-3.3125-1.938-3.9395-3.2314-.6279-1.2939-.6709-2.5684-.1309-3.8242l3.0488-7.0791-1.1621-.5c-.7744-.3335-1.2617-.7202-1.4629-1.1606-.2012-.4399-.1982-.9009,.0088-1.3823,.2031-.4707,.5332-.7842,.9912-.9404s1.0742-.0679,1.8486,.2656l1.1621,.5,1.25-2.9038c.333-.7744,.7197-1.2622,1.1602-1.4634s.9014-.1982,1.3828,.0093c.4707,.2026,.7842,.5332,.9404,.9912s.0674,1.0742-.2656,1.8486l-1.25,2.9038,5.9482,2.5615c.7744,.3335,1.2627,.7202,1.4639,1.1602,.2012,.4404,.1982,.9014-.0088,1.3823-.2031,.4712-.5332,.7847-.9912,.9409-.459,.1562-1.0752,.0679-1.8486-.2656l-5.9492-2.5615Z"/><path d="M1122.3535,98.087l-3.5498,5.9175-3.2451-.5938-.7285-12.3467c-.6221-.1489-1.0625-.4116-1.3242-.7896-.2607-.3779-.3467-.8076-.2588-1.2896,.0928-.5044,.3438-.8843,.7559-1.1387,.4111-.2549,1.0312-.3066,1.8613-.1548l3.2109,.5874c.8291,.1519,1.3906,.4199,1.6855,.8037,.2949,.3843,.3945,.834,.2998,1.3491-.0938,.5156-.376,.916-.8447,1.2007-.3516,.2139-.9707,.2393-1.8555,.0776l.3115,5.7031,3.1592-5.207,3.0596,.5596,1.127,5.9917,2.3447-5.2173c-.8516-.1558-1.3965-.3423-1.6348-.5596-.4746-.4458-.6533-.9883-.5361-1.627,.0918-.5044,.3438-.8843,.7559-1.1392,.4111-.2544,1.0312-.3062,1.8613-.1543l3.2441,.5938c.8291,.1519,1.3916,.4194,1.6855,.8037,.2949,.3838,.3945,.834,.3008,1.3491-.084,.4595-.3096,.8208-.6768,1.084-.3662,.2627-.8564,.3613-1.4697,.2954l-4.9863,11.3013-3.1943-.5845-1.3584-6.8159Z"/><path d="M1154.0557,100.6319c-.0996,1.3408-.5684,2.6118-1.4062,3.8115-.8369,1.2007-2.0195,2.1182-3.5459,2.7529s-3.0908,.8931-4.6924,.7744c-1.5908-.1182-3.0859-.5977-4.4863-1.4385s-2.4336-1.9199-3.1016-3.2378c-.667-1.3174-.9502-2.6636-.8477-4.0386,.1035-1.3975,.5908-2.7407,1.4639-4.0298,.8721-1.2891,2.0615-2.2661,3.5684-2.9312,1.5059-.665,3.0479-.939,4.6279-.8218,1.5898,.1177,3.0918,.6265,4.5049,1.5254,1.4121,.8989,2.4443,2.0435,3.0947,3.4341,.6514,1.3911,.9248,2.7905,.8203,4.1992Zm-3.4951-.2422c.083-1.1245-.2441-2.1885-.9805-3.1914-1.0078-1.3545-2.4092-2.0981-4.2041-2.2314-1.5791-.1172-2.9346,.2905-4.0664,1.2231-1.1318,.9331-1.7471,2.064-1.8457,3.3936-.0811,1.0908,.377,2.1499,1.375,3.1777,.9971,1.0283,2.2744,1.6001,3.8311,1.7153,1.5684,.1167,2.9209-.2598,4.0596-1.1294,1.1387-.8691,1.749-1.855,1.8311-2.9575Z"/><path d="M1166.6348,92.4747l.0527,2.1865c1.4434-1.0947,2.585-1.8291,3.4258-2.2026,.8389-.3735,1.6299-.5693,2.3701-.5874,1.1387-.0278,2.2539,.3672,3.3447,1.1836,.7432,.5522,1.1221,1.124,1.1357,1.7163,.0127,.5015-.1514,.9297-.4902,1.2856s-.7529,.5396-1.2432,.5513c-.4326,.0107-.8936-.1948-1.3818-.6162-.4893-.4209-.9219-.627-1.2979-.6177-.4893,.0117-1.2139,.3369-2.1729,.9756s-2.1523,1.5908-3.5801,2.8564l.1279,5.2788,4.9893-.1206c.8428-.0205,1.4473,.127,1.8135,.4429,.3672,.3159,.5566,.7363,.5693,1.2598,.0127,.5127-.1572,.9355-.5078,1.269-.3506,.333-.9473,.5103-1.79,.5303l-10.5762,.2568c-.8428,.0205-1.4473-.1274-1.8145-.4434-.3662-.3159-.5557-.7354-.5684-1.2598-.0127-.5122,.1562-.9351,.5078-1.2686,.3506-.3335,.9473-.5103,1.79-.5308l2.085-.0503-.207-8.5083-1.2637,.0303c-.8438,.0205-1.4482-.127-1.8145-.4429-.3672-.3159-.5566-.7358-.5693-1.2598-.0127-.5127,.1572-.9355,.5078-1.269,.3506-.333,.9473-.5103,1.791-.5303l4.7666-.1157Z"/><path d="M1196.375,83.4366l2.0957,18.5439,.5947-.0669c.8262-.0933,1.4385,.0005,1.8379,.2822,.3984,.2817,.6279,.6831,.6865,1.2041,.0576,.5093-.0742,.9453-.3936,1.3086-.3203,.3628-.8994,.5918-1.7373,.6865l-4.0752,.4604-.0967-.8491c-.7402,.5537-1.5293,.9985-2.3682,1.334-.8398,.3354-1.7236,.5562-2.6514,.6606-2.6152,.2959-4.8066-.2217-6.5732-1.5527-1.7676-1.3311-2.7783-3.123-3.0332-5.376-.2656-2.3545,.3447-4.459,1.832-6.3125s3.4365-2.9165,5.8486-3.189c.9053-.1025,1.8096-.0645,2.7129,.1143,.9033,.1792,1.8105,.498,2.7227,.9565l-.4902-4.3301-.5938,.0669c-.8379,.0947-1.4531,.001-1.8467-.2812-.3926-.2822-.6182-.6782-.6758-1.188-.0586-.5205,.0713-.9624,.3916-1.3252,.3203-.3633,.8994-.5918,1.7373-.6865l4.0752-.4609Zm-1.8115,15.1675c-.1621-1.4375-.8037-2.5977-1.9238-3.48s-2.4102-1.2412-3.8711-1.0762c-1.4492,.1641-2.6211,.8013-3.5156,1.9111-.8955,1.1104-1.2637,2.3672-1.1045,3.771,.1445,1.2793,.7158,2.2783,1.7148,2.9966,.998,.7183,2.3232,.9839,3.9766,.7974,1.6416-.1855,2.874-.7402,3.6992-1.665,.8242-.9243,1.165-2.0093,1.0244-3.2549Z"/><path d="M1215.2158,90.94c-.626-.2388-1.2637-.3857-1.9121-.4404-.6494-.0547-1.3086-.0171-1.9805,.1123-1.3311,.2568-2.3467,.6787-3.0449,1.2661-.3105,.2573-.4434,.498-.4004,.7217,.0498,.2573,.333,.4634,.8506,.6187,.3926,.1104,1.2256,.1294,2.5,.0576,2.3428-.1274,3.9912-.1206,4.9463,.02,1.2549,.187,2.2803,.6274,3.0752,1.3213,.7949,.6934,1.2803,1.4932,1.4551,2.3994,.2373,1.231-.1064,2.3647-1.0322,3.4019-1.3242,1.4971-3.2275,2.4849-5.7109,2.9644-.9961,.1919-1.9326,.2827-2.8105,.2725-.8779-.0107-1.7021-.1152-2.4717-.3149-.1396,.1777-.2969,.3242-.4717,.439-.1758,.1152-.3633,.1919-.5645,.231-.5371,.1035-.999,.0098-1.3857-.2808-.3877-.291-.6602-.8501-.8203-1.6782l-.2236-1.1577c-.1592-.8276-.1143-1.4487,.1367-1.8628,.251-.4136,.6338-.6704,1.1484-.7695,.4141-.0801,.7822-.0322,1.1064,.1431s.6182,.5278,.8828,1.0566c.6123,.3462,1.3096,.5625,2.0918,.6494,.7832,.0869,1.6553,.0376,2.6172-.1484,1.5771-.3042,2.7549-.7866,3.5322-1.4473,.3662-.3257,.5244-.623,.4727-.8916-.0869-.4473-.4541-.7593-1.1035-.936-.6494-.1763-1.9219-.186-3.8174-.0293-2.8193,.2427-4.7734,.0396-5.8613-.6094-1.0859-.6372-1.7441-1.5542-1.9756-2.7515-.2373-1.2305,.085-2.3545,.9678-3.3721,1.1943-1.3906,2.9316-2.3062,5.2139-2.7466,.7939-.1533,1.5723-.2251,2.334-.2153s1.5088,.1064,2.2402,.29c.1826-.1978,.3584-.3535,.5283-.4673,.1689-.1138,.332-.186,.4893-.2163,.4697-.0908,.8945,.0098,1.2764,.3018,.3809,.292,.6514,.8521,.8115,1.6797l.1621,.8389c.1445,.7495,.1533,1.2759,.0254,1.5791-.2588,.5835-.6953,.9346-1.3105,1.0532-.4141,.0801-.8027,.022-1.165-.1753-.3633-.1968-.6299-.499-.8018-.9067Z"/></g></svg>