<?xml version="1.0" encoding="UTF-8"?><svg id="Layer_1" xmlns="http://www.w3.org/2000/svg" width="294.8086" height="120.2552" viewBox="0 0 294.8086 120.2552"><defs><style>.cls-1{fill:none;stroke:#000;stroke-linecap:round;stroke-linejoin:round;stroke-width:5px;}</style></defs><g><path class="cls-1" d="M164.3545,55.4408c-4.6666-3-9.3334-6-14-9l-27.9231,.1538v18.8462h-9.0769l9.0769,50.5993h82.9231V55.2944c-13.6666,.0488-27.3334,.0976-41,.1464Z"/><polyline class="cls-1" points="205.4314 116.0401 196.3545 65.4408 122.4314 65.4408"/></g><g><path d="M4.5195,102.7347l.1436,1.6426,1.6113-.1416c.3838-.0332,.6641,.0166,.8408,.1494,.1758,.1338,.2754,.3203,.2959,.5586,.0205,.2334-.0449,.4316-.1953,.5938s-.417,.2598-.8018,.2939l-3.4551,.3027c-.3838,.0342-.6641-.0156-.8408-.1494-.1758-.1338-.2744-.3193-.2959-.5586-.0205-.2334,.0459-.4316,.1992-.5938s.4189-.2607,.7979-.2939l.249-.0215-.5479-6.2412-.249,.0215c-.3838,.0332-.6641-.0166-.8408-.1494-.1758-.1338-.2744-.3203-.2959-.5586-.0205-.2383,.0439-.4395,.1943-.6016s.418-.2598,.8018-.2939l3.6738-.3145c1.0791-.0947,1.96,.125,2.6426,.6582,.6816,.5342,1.0596,1.2236,1.1338,2.0693,.041,.4668-.0264,.917-.2031,1.3506-.1338,.3262-.375,.6572-.7246,.9932-.3496,.3369-.7129,.5986-1.0918,.7861-.3779,.1875-.8887,.3096-1.5322,.3662l-1.5098,.1318Zm-.1396-1.5957l1.4785-.1289c.6953-.0615,1.2324-.2666,1.6123-.6162s.5508-.7451,.5117-1.1865c-.0332-.373-.2266-.6855-.5801-.9365-.3545-.252-.8379-.3506-1.4492-.2969l-1.8369,.1611,.2637,3.0039Z"/><path d="M14.7119,97.6888l.1514,.9883c.5908-.5801,1.0664-.9795,1.4248-1.1982,.3594-.2188,.7061-.3535,1.041-.4043,.5146-.0791,1.043,.0352,1.5859,.3418,.3682,.207,.5732,.4443,.6143,.7119,.0352,.2266-.0137,.4297-.1465,.6113-.1338,.1807-.3105,.2881-.5322,.3223-.1953,.0303-.416-.0361-.6621-.1982-.2471-.1631-.4551-.2314-.625-.2051-.2207,.0342-.5303,.2236-.9277,.5693s-.8838,.8467-1.457,1.5039l.3662,2.3857,2.2549-.3457c.3809-.0586,.6631-.0264,.8477,.0957,.1855,.1211,.2959,.3008,.332,.5381,.0352,.2314-.0166,.4326-.1562,.6045s-.4004,.2861-.7812,.3447l-4.7803,.7334c-.3809,.0586-.6631,.0264-.8477-.0957-.1855-.1221-.2959-.3008-.332-.5381-.0352-.2314,.0166-.4326,.1562-.6045s.4004-.2871,.7812-.3447l.9424-.1445-.5898-3.8457-.5713,.0869c-.3818,.0586-.6641,.0273-.8486-.0947s-.2949-.3008-.332-.5381c-.0352-.2314,.0166-.4336,.1562-.6045,.1396-.1719,.4004-.2871,.7812-.3457l2.1543-.3301Z"/><path d="M29.7637,99.0911l-6.3994,1.4893c.2568,.3682,.6211,.6289,1.0928,.7812,.4707,.1523,1.0586,.1465,1.7646-.0176,.5781-.1348,1.3174-.4385,2.2188-.9102,.3721-.1934,.6338-.3076,.7861-.3438,.208-.0479,.3994-.0146,.5762,.0986,.1758,.1143,.29,.2832,.3428,.5059,.0469,.2031,.0107,.3936-.1084,.5713-.1592,.2344-.6123,.5283-1.3584,.8818-.7471,.3525-1.4834,.6133-2.209,.7822-1.2471,.29-2.3271,.1699-3.2402-.3604-.9121-.5312-1.4883-1.3115-1.7275-2.3418-.2549-1.0957-.0586-2.0811,.5908-2.957,.6494-.875,1.501-1.4355,2.5566-1.6816,.6338-.1475,1.2422-.1719,1.8242-.0713,.582,.0996,1.0322,.249,1.3516,.4473,.4521,.29,.8623,.6846,1.2295,1.1816,.252,.3477,.4365,.7754,.5547,1.2822l.1543,.6621Zm-2.0898-1.1582c-.3428-.3906-.7324-.6514-1.1689-.7822-.4375-.1309-.9219-.1348-1.4541-.0107-.5283,.123-.959,.3398-1.293,.6504s-.5713,.7168-.7109,1.2197l4.627-1.0771Z"/><path d="M38.6768,95.1351l-6.3506,2.0977-.458-1.3867,6.3496-2.0986,.459,1.3877Z"/><path d="M44.5127,95.9329l1.085,2.3906,.875-.3975c.3506-.1592,.6318-.2051,.8428-.1377,.21,.0674,.3652,.2109,.4639,.4287,.0967,.2139,.1016,.4219,.0137,.625s-.3076,.3838-.6592,.543l-2.582,1.1709c-.3516,.1602-.6318,.2051-.8428,.1377s-.3643-.207-.4619-.4209c-.0986-.2178-.1025-.4297-.0127-.6328,.0908-.2041,.3096-.3848,.6553-.542l.249-.1133-2.9883-6.5879-.249,.1123c-.3506,.1592-.6318,.2051-.8428,.1377-.21-.0674-.3652-.21-.4639-.4277-.0967-.2139-.1016-.4219-.0137-.625,.0889-.2031,.3076-.3838,.6592-.543l1.707-.7744,.2266,.498c.2363-.3877,.5107-.7207,.8242-1,.3135-.2803,.6621-.5068,1.0469-.6807,.9961-.4521,1.998-.499,3.0068-.1416s1.7109,.9727,2.1064,1.8457c.4365,.9629,.3818,1.9453-.1641,2.9473-.4561,.8369-1.1172,1.4512-1.9854,1.8447-.375,.1699-.7695,.2832-1.1846,.3398s-.8516,.0576-1.3115,.0029Zm3.1904-4.4668c-.0928-.2041-.291-.4268-.5957-.6689-.3037-.2422-.6709-.3936-1.1016-.4531-.4297-.0586-.8701,.0137-1.3213,.2178-.7256,.3291-1.1777,.8633-1.3574,1.6025-.1191,.5059-.1006,.9316,.0566,1.2783,.1768,.3887,.5557,.6729,1.1367,.8525,.582,.1797,1.1787,.1299,1.791-.1475,.6162-.2793,1.0488-.6953,1.2949-1.248,.2471-.5527,.2793-1.0303,.0967-1.4336Z"/><path d="M52.2998,84.9622l.5225,.8525c.3203-.7646,.6025-1.3164,.8496-1.6572,.2461-.3408,.5137-.5996,.8027-.7764,.4434-.2715,.9746-.3721,1.5938-.2988,.4199,.0479,.7012,.1865,.8428,.418,.1201,.1953,.1533,.4023,.1016,.6201-.0527,.2188-.1748,.3867-.3652,.5039-.1689,.1035-.3984,.1279-.6885,.0732-.2891-.0547-.5078-.0361-.6543,.0537-.1914,.1162-.4023,.4111-.6357,.8838-.2324,.4727-.4854,1.123-.7598,1.9512l1.2617,2.0576,1.9443-1.1924c.3291-.2012,.6016-.2812,.8193-.2412,.2178,.041,.3887,.1641,.5137,.3682,.123,.1992,.1533,.4053,.0908,.6182-.0625,.2119-.2578,.4189-.5859,.6201l-4.123,2.5283c-.3291,.2012-.6016,.2812-.8193,.2412-.2168-.041-.3887-.1641-.5137-.3682-.123-.1992-.1523-.4053-.0908-.6182,.0625-.2119,.2578-.4189,.5869-.6201l.8125-.499-2.0342-3.3164-.4922,.3018c-.3291,.2021-.6016,.2822-.8193,.2412-.2178-.04-.3887-.1631-.5137-.3672-.123-.2002-.1533-.4062-.0908-.6182s.2578-.4189,.5859-.6211l1.8584-1.1387Z"/><path d="M66.2217,79.2259c.3906,.4746,.6377,1.042,.7402,1.7031s.0029,1.3379-.3008,2.0303-.7393,1.2715-1.3057,1.7393c-.5625,.4629-1.208,.7773-1.9365,.9424-.7275,.165-1.4102,.1348-2.0479-.0898-.6367-.2236-1.1553-.5791-1.5566-1.0654-.4072-.4941-.6699-1.0928-.7891-1.7939s-.0352-1.4004,.252-2.0957,.71-1.2734,1.2686-1.7344c.5625-.4639,1.2197-.7705,1.9707-.9199,.75-.1494,1.4531-.0977,2.1074,.1562s1.1875,.6299,1.5977,1.1279Zm-1.2305,1.0244c-.3281-.3975-.7725-.6455-1.333-.7441-.7607-.1289-1.459,.0684-2.0938,.5918-.5586,.46-.877,1.0234-.9561,1.6895-.0791,.665,.0752,1.2334,.4619,1.7041,.3184,.3857,.8047,.5908,1.459,.6152s1.2568-.1904,1.8076-.6445c.5547-.457,.8828-1.0088,.9844-1.6562,.1006-.6465-.0088-1.165-.3301-1.5557Z"/><path d="M67.9922,67.43l6.374,5.6709,.1816-.2041c.2529-.2842,.4902-.4395,.7119-.4648,.2217-.0264,.4219,.041,.6006,.2002,.1758,.1553,.2637,.3438,.2656,.5654,.002,.2207-.125,.4756-.3818,.7637l-1.2461,1.4004-.292-.2588c-.082,.4141-.2148,.8066-.3984,1.1768-.1826,.3701-.417,.7148-.7002,1.0342-.7998,.8984-1.7031,1.3916-2.7109,1.4785-1.0078,.0859-1.8984-.2148-2.6729-.9043-.8096-.7197-1.2441-1.6221-1.3037-2.707s.2793-2.042,1.0166-2.8701c.2764-.3115,.5957-.5742,.958-.79,.3623-.2139,.7676-.3828,1.2178-.5049l-1.4883-1.3242-.1816,.2041c-.2559,.2881-.4941,.4443-.7139,.4678-.2197,.0244-.418-.042-.5928-.1973-.1787-.1592-.2695-.3496-.2715-.5713-.002-.2207,.125-.4756,.3818-.7637l1.2461-1.4014Zm4.0137,5.7148c-.4941-.4395-1.0664-.6387-1.7168-.5967-.6504,.041-1.1992,.3135-1.6455,.8154-.4434,.498-.6475,1.0723-.6133,1.7236,.0342,.6504,.293,1.1904,.7754,1.6201,.4395,.3916,.9385,.5566,1.498,.4961,.5586-.0605,1.0908-.374,1.5967-.9424,.502-.5645,.752-1.1299,.75-1.6963-.002-.5654-.2168-1.0391-.6445-1.4199Z"/><path d="M75.707,61.348l4.6426,2.9346c.1807-.2861,.3779-.457,.5918-.5127,.2148-.0557,.4199-.0205,.6182,.1045s.3164,.2969,.3545,.5146c.0371,.2188-.0469,.4902-.2529,.8154l-.8135,1.2881-.3105-.1963c-.0693,.499-.1709,.9521-.3057,1.3604-.1348,.4072-.3018,.7695-.502,1.0869-.2812,.4443-.6182,.7705-1.0117,.9785-.3926,.207-.8145,.3008-1.2646,.2812-.3232-.0137-.6641-.1328-1.0205-.3584l-2.9121-1.8418-.1465,.2314c-.2061,.3262-.415,.5186-.6279,.5781-.2139,.0586-.4209,.0244-.624-.1035-.1982-.125-.3154-.2969-.3535-.5146s.0459-.4902,.252-.8154l1.002-1.585,4.0283,2.5469c.2861,.1807,.54,.2441,.7617,.1904,.2227-.0537,.4238-.2236,.6045-.5098,.1729-.2734,.3047-.6006,.3955-.9844,.0918-.3828,.1426-.8945,.1533-1.5342l-2.7607-1.7461-.3086,.4893c-.2061,.3262-.416,.5186-.6289,.5771-.2129,.0596-.4209,.0254-.623-.1025-.1982-.125-.3164-.2969-.3545-.5146-.0371-.2188,.0469-.4902,.2529-.8164l1.1641-1.8418Z"/><path d="M79.7217,53.2249c-.0918-.249-.0977-.4668-.0176-.6533,.0898-.2109,.2393-.3525,.4482-.4248,.209-.0713,.4893-.0332,.8389,.1162l.9482,.4053c.3545,.1514,.5762,.3271,.666,.5273,.0908,.2002,.0889,.4102-.0059,.6299-.0859,.2012-.2158,.3467-.3896,.4365-.1299,.0645-.3389,.0674-.6299,.0117-.29-.0557-.5469-.002-.7705,.1631-.3955,.29-.7227,.7363-.9805,1.3398-.2969,.6943-.3311,1.3389-.1025,1.9316,.2275,.5928,.6533,1.0225,1.2754,1.2881,.5752,.2461,1.1152,.2383,1.6191-.0215,.5049-.2598,.957-.8574,1.3564-1.791,.2617-.6133,.4131-1.1396,.4541-1.5811,.0225-.2627-.0156-.5361-.1123-.8213-.0957-.2842-.1084-.5107-.0371-.6787,.0859-.2012,.2344-.3428,.4453-.4258,.2109-.082,.417-.0811,.6182,.0049,.3262,.1396,.54,.4941,.6416,1.0645,.1533,.8467-.042,1.9082-.5859,3.1816-.4893,1.1445-1.1074,1.9346-1.8535,2.3691-1.0049,.5898-2.0615,.6484-3.168,.1758-1.0488-.4482-1.7676-1.1689-2.1562-2.1621-.3877-.9932-.3418-2.0518,.1387-3.1777,.1738-.4072,.374-.7686,.6006-1.0859,.2256-.3164,.4785-.5908,.7588-.8223Z"/><path d="M83.3555,47.0091l3.0293,1.0645c.3242,.1143,.5615,.123,.7109,.0264,.2344-.1484,.4453-.4893,.6318-1.0195,.2715-.7715,.3574-1.542,.2578-2.3105-.0391-.2959-.0342-.5146,.0156-.6572,.0693-.1963,.2031-.3418,.4014-.4346s.4033-.1025,.6143-.0283c.1973,.0693,.3389,.207,.4258,.415,.1465,.3213,.1914,.8721,.1357,1.6494-.0547,.7783-.168,1.4111-.3398,1.8975-.3301,.9385-.7793,1.5713-1.3496,1.8975-.5713,.3271-1.1504,.3867-1.7402,.1797l-3.3242-1.1689-.1914,.5449c-.1279,.3643-.2891,.5986-.4834,.7041s-.4053,.1182-.6309,.0391c-.2217-.0781-.375-.2188-.46-.4229-.0859-.2041-.0645-.4873,.0635-.8516l.1914-.5449-1.3633-.4795c-.3643-.1279-.5986-.2891-.7041-.4834s-.1182-.4053-.0391-.6309c.0781-.2207,.2188-.374,.4229-.46s.4873-.0645,.8516,.0635l1.3633,.4795,.9824-2.7939c.1279-.3633,.2891-.5977,.4834-.7031s.4043-.1191,.6309-.0391c.2207,.0771,.374,.2188,.46,.4229,.085,.2031,.0645,.4873-.0635,.8506l-.9824,2.7939Z"/><path d="M83.1768,34.6224l1.5459,.6943-.7803,1.7393-1.5469-.6943,.7812-1.7393Zm2.8613,1.0459l5.0107,2.25,.7871-1.7539c.1582-.3516,.3379-.5713,.541-.6602,.2021-.0889,.4131-.084,.6318,.0137,.2139,.0957,.3545,.249,.4229,.46,.0684,.21,.0234,.4912-.1348,.8428l-2.2305,4.9678c-.1582,.3516-.3389,.5713-.541,.6602-.2031,.0889-.4131,.085-.6318-.0137-.2139-.0957-.3545-.249-.4229-.46-.0684-.21-.0234-.4912,.1338-.8428l.7881-1.7529-3.5498-1.5947-.5273,1.1768c-.1562,.3467-.3359,.5654-.5391,.6562-.2041,.0918-.415,.0879-.6338-.0098-.2139-.0957-.3545-.249-.4229-.46-.0684-.21-.0234-.4912,.1348-.8428l1.1836-2.6367Z"/><path d="M96.6514,25.7415c.4922,.3672,.8682,.8604,1.125,1.4775,.2578,.6172,.3213,1.2988,.1924,2.043-.1299,.7451-.4141,1.4111-.8535,2-.4355,.585-.9873,1.0439-1.6553,1.3779-.668,.333-1.3379,.4678-2.0098,.4014-.6719-.0654-1.2607-.2871-1.7656-.6641-.5137-.3828-.9121-.9004-1.1953-1.5527-.2832-.6533-.3682-1.3516-.2549-2.0957,.1123-.7441,.3857-1.4062,.8184-1.9863,.4355-.585,1-1.0391,1.6934-1.3643,.6934-.3242,1.3887-.4414,2.084-.3506,.6963,.0898,1.3037,.3281,1.8213,.7139Zm-.9512,1.2891c-.4131-.3086-.9033-.4434-1.4717-.4053-.7695,.0566-1.4004,.4141-1.8916,1.0742-.4336,.5801-.6084,1.2031-.5264,1.8682,.082,.666,.3672,1.1807,.8564,1.5449,.4004,.2988,.9219,.3818,1.5625,.249,.6416-.1318,1.1758-.4844,1.6016-1.0566,.4297-.5762,.6172-1.1904,.5605-1.8428-.0557-.6523-.2861-1.1299-.6914-1.4316Z"/><path d="M97.6602,19.8939l.3418,.417c.0674-.3779,.1973-.7266,.3906-1.0459,.1924-.3193,.4482-.6094,.7666-.8701,.7334-.6006,1.5-.8477,2.3008-.7422,.6348,.0859,1.1934,.4229,1.6748,1.0117l1.8857,2.3037c.2617-.2148,.502-.3154,.7217-.3027,.2188,.0127,.4043,.1113,.5557,.2969,.1484,.1816,.2061,.3818,.1729,.6006-.0322,.2188-.1982,.4502-.4961,.6943l-1.1191,.915c-.2979,.2441-.5576,.3604-.7783,.3496-.2217-.0107-.4072-.1094-.5596-.2949-.1484-.1807-.207-.3799-.1758-.5977,.0303-.2168,.1768-.4326,.4395-.6475l-1.915-2.3398c-.2207-.2695-.4551-.4082-.7031-.4141-.3213-.0059-.6709,.1455-1.0498,.4561-.2861,.2344-.4922,.4951-.6172,.7822s-.2051,.7451-.2422,1.375l1.8848,2.3027c.3184-.2598,.5488-.3984,.6914-.4131,.2959-.041,.54,.0557,.7314,.2891,.1484,.1816,.2061,.3818,.1729,.6006s-.1982,.4502-.4971,.6943l-1.4082,1.1523c-.2988,.2441-.5576,.3613-.7793,.3496-.2207-.0107-.4072-.1084-.5586-.2939-.1846-.2256-.2314-.4805-.1406-.7637,.0479-.1396,.2305-.3398,.5488-.6006l-2.4639-3.0107c-.2627,.2148-.5039,.3145-.7236,.2998-.2207-.0146-.4053-.1133-.5537-.2939-.1484-.1816-.2061-.3818-.1738-.6006,.0332-.2188,.1992-.4502,.4971-.6943l1.1787-.9648Z"/><path d="M118.0039,15.2816l.7676,2.5107,.9189-.2812c.3682-.1133,.6533-.1221,.8535-.0283s.335,.2549,.4053,.4844c.0684,.2246,.0459,.4316-.0674,.6211-.1133,.1904-.3545,.3418-.7227,.4541l-2.7119,.8301c-.3691,.1123-.6533,.1221-.8535,.0273-.2002-.0938-.335-.2529-.4033-.4766-.0703-.2295-.0469-.4395,.0684-.6299,.1162-.1904,.3564-.3418,.7197-.4531l.2617-.0801-2.1172-6.917-.2607,.0791c-.3691,.1133-.6533,.123-.8535,.0283-.2002-.0938-.3359-.2549-.4053-.4844-.0693-.2236-.0469-.4307,.0674-.6211,.1133-.1895,.3535-.3408,.7227-.4541l1.793-.5479,.1602,.5225c.2832-.3535,.5986-.6494,.9463-.8857,.3467-.2373,.7217-.417,1.125-.541,1.0459-.3193,2.0459-.2373,3,.2471,.9551,.4844,1.5723,1.1846,1.8525,2.1006,.3096,1.0107,.1289,1.9785-.542,2.9023-.5596,.7705-1.2949,1.2949-2.2061,1.5742-.3936,.1201-.7998,.1816-1.2188,.1846-.418,.0029-.8516-.0527-1.2998-.166Zm3.7373-4.0195c-.0654-.2139-.2334-.46-.5039-.7402-.2715-.2793-.6162-.4756-1.0352-.5898s-.8643-.0996-1.3379,.0459c-.7617,.2324-1.2793,.7041-1.5527,1.4141-.1836,.4863-.2188,.9121-.1084,1.2754,.125,.4082,.4648,.7393,1.0186,.9912,.5537,.2529,1.1523,.2812,1.7949,.084,.6475-.1982,1.1289-.5547,1.4443-1.0713,.3164-.5156,.4102-.9854,.2803-1.4092Z"/><path d="M131.0029,13.2679l-.0537-.3711c-.3662,.2676-.7822,.4893-1.2461,.6631-.4648,.1738-.8926,.2891-1.2852,.3457-.8506,.1211-1.5732-.0059-2.1689-.3809s-.9326-.8359-1.0107-1.3828c-.0947-.665,.1562-1.3311,.7529-1.998,.5967-.666,1.4932-1.085,2.6895-1.2559,.4795-.0684,1.041-.0957,1.6846-.083l-.0537-.3789c-.0342-.2373-.1641-.416-.3887-.5361-.2256-.1201-.624-.1396-1.1963-.0586-.4688,.0674-1.0645,.2471-1.7852,.54-.2686,.1064-.4805,.1709-.6357,.1934-.2109,.0293-.4014-.0205-.5693-.1514-.1689-.1318-.2705-.3154-.3047-.5527-.0186-.1338-.0098-.2539,.0283-.3594,.0371-.1055,.0986-.1943,.1826-.2666s.2676-.1709,.5498-.2959c.376-.1641,.7637-.3076,1.1611-.4297,.3984-.123,.7627-.208,1.0928-.2549,.9844-.1406,1.7793-.0371,2.3838,.3105,.6055,.3477,.96,.8896,1.0654,1.627l.4658,3.2637,.2715-.0381c.3809-.0547,.6631-.0205,.8467,.1035s.292,.3047,.3262,.542c.0332,.2314-.0205,.4326-.1621,.6025s-.4033,.2822-.7852,.3369l-1.8555,.2656Zm-.4053-2.8389c-.6523-.0332-1.2461-.0107-1.7822,.0654-.6445,.0918-1.1768,.3291-1.5957,.709-.2598,.2432-.375,.4668-.3457,.6729,.0215,.1504,.1084,.2607,.2607,.334,.2822,.1338,.6475,.168,1.0957,.1035,.3818-.0537,.8027-.1904,1.2637-.4092,.4609-.2178,.8604-.4834,1.2002-.7949l-.0967-.6807Z"/><path d="M138.793,5.638l.0176,1c.6631-.4961,1.1875-.8281,1.5732-.9961,.3848-.168,.7471-.2549,1.085-.2607,.5205-.0088,1.0293,.1748,1.5254,.5518,.3379,.2549,.5088,.5176,.5137,.7891,.0039,.2285-.0723,.4238-.2285,.5859-.1562,.1611-.3457,.2441-.5703,.248-.1973,.0029-.4072-.0928-.6299-.2861-.2217-.1943-.4189-.29-.5908-.2871-.2236,.0039-.5557,.1504-.9961,.4385-.4404,.2891-.9893,.7207-1.6465,1.2939l.041,2.4141,2.2812-.0391c.3857-.0068,.6611,.0625,.8281,.209,.166,.1455,.252,.3379,.2559,.5771,.0039,.2344-.0752,.4277-.2363,.5781-.1611,.1514-.4346,.2305-.8203,.2373l-4.835,.082c-.3857,.0068-.6611-.0625-.8281-.208s-.252-.3389-.2559-.5781c-.0039-.2344,.0742-.4268,.2363-.5781,.1611-.1514,.4346-.2305,.8203-.2363l.9531-.0166-.0664-3.8906-.5781,.0107c-.3857,.0059-.6621-.0635-.8281-.209-.167-.1455-.252-.3379-.2559-.5781-.0039-.2344,.0742-.4268,.2363-.5781,.1611-.1514,.4346-.2295,.8203-.2363l2.1787-.0371Z"/><path d="M149.0752,7.5589l-.2646,3.2002c-.0283,.3428,.0225,.5742,.1533,.6943,.2041,.1895,.5859,.3076,1.1465,.3545,.8154,.0674,1.582-.0439,2.3018-.335,.2754-.1133,.4893-.1631,.6396-.1504,.207,.0166,.3809,.1094,.5215,.2783,.1406,.168,.2012,.3643,.1826,.5869-.0176,.208-.1152,.3799-.2939,.5166-.2744,.2236-.7949,.4062-1.5625,.5488-.7666,.1426-1.4072,.1934-1.9209,.1504-.9912-.082-1.7178-.3584-2.1777-.8271-.46-.4697-.6641-1.0156-.6123-1.6387l.291-3.5117-.5762-.0479c-.3838-.0312-.6514-.1279-.8027-.29-.1514-.1611-.2168-.3613-.1973-.5996,.0195-.2334,.1172-.418,.293-.5518,.1758-.1348,.4551-.1865,.8398-.1543l.5762,.0479,.1191-1.4404c.0322-.3838,.1289-.6514,.29-.8027s.3613-.2168,.6006-.1973c.2334,.0195,.417,.1172,.5518,.293s.1855,.4551,.1533,.8398l-.1191,1.4404,2.9512,.2441c.3838,.0322,.6514,.1289,.8027,.29,.1514,.1621,.2168,.3623,.1973,.6006-.0195,.2334-.1172,.418-.293,.5518-.1758,.1348-.4561,.1855-.8398,.1543l-2.9512-.2451Z"/><path d="M167.334,14.3148l3.416,.7959c.2236-.1084,.4189-.1426,.5859-.1045,.2383,.0557,.4092,.1787,.5117,.3682,.1025,.1904,.1104,.4746,.0215,.8555l-.1738,.7461-7.1064-1.6562,.3848-1.6514c3.3506-1.6631,5.3945-2.7588,6.1328-3.2871,.373-.2715,.5957-.5596,.666-.8643,.0889-.3799,.001-.7549-.2627-1.124-.2646-.3691-.6738-.6182-1.2266-.7471-.5576-.1299-1.0596-.0752-1.5059,.1631-.2324,.127-.4473,.3477-.6426,.6602-.1211,.1963-.2539,.3262-.3994,.3877-.1455,.0625-.3096,.0723-.4922,.0303-.2129-.0498-.3799-.1689-.499-.3574-.1191-.1875-.1553-.3828-.1074-.5859,.0703-.3047,.2998-.6523,.6885-1.043,.3877-.3916,.8838-.6602,1.4873-.8086,.6045-.1484,1.2236-.1484,1.8574,0,.9844,.2285,1.7207,.7148,2.2109,1.457,.4902,.7432,.6367,1.5381,.4395,2.3848-.1006,.4316-.2842,.8096-.5498,1.1357-.2656,.3252-.8164,.7334-1.6523,1.2227-.6572,.3877-1.9189,1.0615-3.7842,2.0225Z"/><path d="M179.3809,18.3187c-.085,.29-.2578,.5029-.5195,.6377-.2627,.1357-.5732,.1504-.9336,.0459-.3594-.1055-.6133-.2852-.7617-.54-.1484-.2539-.1807-.5264-.0957-.8164,.084-.29,.2578-.5029,.5195-.6387,.2617-.1348,.5723-.1504,.9326-.0449,.3604,.1045,.6143,.2842,.7627,.5391,.1475,.2549,.1797,.5273,.0957,.8174Zm1.4512-5.0371c-.085,.29-.2578,.502-.5195,.6377-.2627,.1348-.5732,.1504-.9336,.0459-.3594-.1055-.6133-.2852-.7617-.54s-.1807-.5273-.0957-.8174c.084-.29,.2578-.502,.5195-.6377,.2617-.1348,.5723-.1504,.9326-.0459,.3604,.1055,.6143,.2852,.7627,.54,.1475,.2549,.1797,.5273,.0957,.8174Z"/><path d="M194.7373,23.89c-.1904,.1064-.334,.166-.4316,.1797-.0967,.0127-.2041-.0029-.3203-.0469-.2295-.0869-.3838-.2334-.4648-.4395-.0801-.2061-.0537-.4863,.0811-.8418l.3818-1.0078c.1367-.3604,.3037-.5918,.501-.6924,.1963-.1006,.4092-.1074,.6387-.0215,.1748,.0674,.3047,.1689,.3896,.3066,.084,.1377,.1162,.3271,.0977,.5674-.0186,.2412-.0088,.4131,.0303,.5176,.084,.2041,.2764,.4521,.5781,.7451,.3008,.292,.666,.5195,1.0947,.6826,.667,.252,1.2734,.3037,1.8203,.1553,.3447-.0869,.5703-.2695,.6748-.5469,.0703-.1846,.0703-.3838,.001-.5967s-.2324-.4297-.4893-.6494c-.167-.1465-.5654-.4121-1.1943-.7949-.7607-.4609-1.3105-.8779-1.6475-1.251-.3379-.373-.5547-.8008-.6504-1.2822-.0957-.4824-.0586-.9492,.1133-1.4023,.2715-.7158,.8086-1.2295,1.6113-1.541,.8037-.3105,1.6846-.2852,2.6436,.0791,.3848,.1455,.7256,.3232,1.0225,.5332,.2959,.21,.5449,.4531,.7471,.7295,.2666-.1162,.4971-.1367,.6924-.0635,.2188,.083,.3691,.2275,.4492,.4336,.0811,.2061,.0537,.4873-.0811,.8428l-.4258,1.125c-.1367,.3604-.3037,.5908-.501,.6914-.1963,.1016-.4043,.1104-.624,.0273-.1846-.0703-.3242-.1875-.418-.3516-.0762-.123-.0938-.3193-.0527-.5879,.04-.2686,.0391-.4717-.0029-.6104-.0713-.2393-.2236-.4746-.458-.709-.2354-.2334-.5371-.4199-.9072-.5605-.541-.2051-1.0156-.2412-1.4248-.1094s-.665,.334-.7686,.6064c-.0703,.1855-.0742,.3887-.0098,.6104,.0635,.2217,.2002,.4287,.4121,.6201,.1396,.1309,.5645,.417,1.2744,.8584,.71,.4424,1.2363,.8311,1.5801,1.167,.3428,.3359,.5781,.748,.7051,1.2363s.0898,.998-.1113,1.5283c-.2803,.7412-.7656,1.2334-1.4541,1.4795-.9131,.3223-1.9062,.2803-2.9775-.126-.4141-.1562-.7979-.3594-1.1523-.6074-.3535-.248-.6787-.543-.9727-.8828Z"/><path d="M207.8125,23.6068l-1.2949,2.9375c-.1387,.3145-.166,.5508-.0811,.707,.1309,.2461,.4531,.4824,.9678,.709,.748,.3301,1.5098,.4746,2.2842,.4346,.2979-.0166,.5156,.0059,.6543,.0664,.1904,.084,.3242,.2285,.4023,.4336,.0771,.2051,.0713,.4102-.0195,.6152-.084,.1904-.2324,.3213-.4463,.3926-.332,.1211-.8838,.123-1.6553,.0078-.7725-.1152-1.3936-.2764-1.8652-.4844-.9102-.4014-1.5068-.8994-1.7881-1.4932-.2822-.5938-.2969-1.1768-.0449-1.748l1.4219-3.2246-.5293-.2334c-.3525-.1553-.5742-.334-.6641-.5361-.0908-.2021-.0869-.4121,.0098-.6318,.0938-.2139,.2461-.3564,.4561-.4258s.4912-.0264,.8447,.1289l.5283,.2334,.583-1.3232c.1553-.3525,.335-.5742,.5361-.6641,.2021-.0898,.4131-.0869,.6318,.0098,.2148,.0947,.3564,.2471,.4268,.457,.0693,.21,.0264,.4912-.1289,.8438l-.583,1.3223,2.709,1.1943c.3525,.1553,.5742,.334,.665,.5361,.0898,.2021,.0869,.4131-.0098,.6318-.0947,.2148-.2471,.3564-.457,.4268-.21,.0693-.4912,.0264-.8438-.1289l-2.71-1.1943Z"/><path d="M220.127,31.9564c-.2832,.5449-.709,.9941-1.2764,1.3477-.5684,.3535-1.2305,.5264-1.9863,.5186-.7559-.0088-1.459-.1816-2.1113-.5205-.6465-.3359-1.1885-.8066-1.625-1.4121-.4375-.6055-.6768-1.2451-.7197-1.9189-.0439-.6748,.0801-1.291,.3711-1.8506,.2949-.5684,.7422-1.0449,1.3408-1.4287,.5986-.3848,1.2744-.5811,2.0273-.5889,.752-.0088,1.4502,.1543,2.0918,.4883,.6475,.3359,1.1865,.8203,1.6182,1.4521,.4316,.6328,.6592,1.2988,.6826,2.001,.0225,.7012-.1152,1.3389-.4131,1.9121Zm-1.4248-.7314c.2383-.458,.292-.9639,.1641-1.5176-.1797-.751-.6348-1.3154-1.3652-1.6953-.6426-.334-1.2852-.4062-1.9287-.2188-.6436,.1885-1.1055,.5527-1.3867,1.0938-.2305,.4434-.2285,.9717,.0049,1.583,.2344,.6113,.668,1.082,1.3008,1.4111,.6387,.3311,1.2744,.417,1.9092,.2559,.6348-.1602,1.0693-.4639,1.3018-.9121Z"/><path d="M226.835,31.6156l-.5117,.8584c.8252-.0713,1.4453-.0771,1.8613-.0176,.416,.0605,.7695,.1777,1.0605,.3506,.4473,.2666,.7822,.6914,1.0049,1.2734,.1523,.3945,.1602,.708,.0215,.9404-.1182,.1963-.2852,.3223-.5029,.3779-.2178,.0547-.4229,.0244-.6152-.0898-.1699-.1016-.2988-.293-.3848-.5752-.0869-.2822-.2031-.4668-.3516-.5547-.1924-.1152-.5518-.166-1.0781-.1523s-1.2197,.0908-2.0801,.2324l-1.2373,2.0732,1.959,1.1689c.3311,.1973,.5293,.4014,.5938,.6133,.0654,.2109,.0361,.4199-.0869,.626-.1201,.2012-.2881,.3232-.5049,.3672-.2178,.043-.4912-.0342-.8223-.2314l-4.1533-2.4775c-.3311-.1973-.5283-.4023-.5938-.6133-.0645-.2119-.0361-.4209,.0869-.626,.1201-.2012,.2891-.3242,.5059-.3672,.2168-.0439,.4902,.0332,.8213,.2305l.8193,.4893,1.9932-3.3418-.4971-.2959c-.3311-.1973-.5283-.4023-.5938-.6133-.0645-.2119-.0352-.4209,.0869-.626,.1201-.2012,.2891-.3242,.5059-.3672,.2168-.0439,.4912,.0332,.8223,.2305l1.8711,1.1172Z"/><path d="M231.1035,42.6263l.75-6.0576c-.1982-.1719-.3125-.3555-.3428-.5527-.0303-.1963,.0127-.3809,.1299-.5537,.1338-.1982,.3105-.3135,.5293-.3438,.2197-.0312,.4883,.0615,.8076,.2773l1.21,.8184c.3193,.2158,.5059,.4316,.5586,.6465,.0518,.2148,.0117,.4219-.123,.6201-.1309,.1943-.3066,.3066-.5254,.3379-.2188,.0303-.4756-.0527-.7686-.252l-.4961,4.1074,3.6152-1.9971c-.2852-.1924-.4541-.3965-.5068-.6113s-.0117-.4209,.123-.6201c.1309-.1934,.3066-.3066,.5254-.3369,.2188-.0312,.4883,.0605,.8076,.2773l1.249,.8447c.3145,.2129,.498,.4268,.5508,.6416s.0117,.4219-.1221,.6201c-.1201,.1768-.2793,.2871-.4795,.3311-.1992,.0449-.4189-.002-.6592-.1396l-7.0957,3.9346c.332,.2246,.5283,.4043,.5879,.5391,.1172,.2734,.0918,.5332-.0742,.7793-.1318,.1943-.3066,.3066-.5254,.3379-.2197,.0312-.4883-.0615-.8076-.2773l-2.8926-1.957c-.3193-.2158-.5049-.4316-.5576-.6465s-.0137-.4189,.1172-.6133c.1348-.1982,.3115-.3135,.5303-.3438,.2188-.0312,.4883,.0615,.8076,.2773l1.3203,.8926,1.7568-.9805Z"/><path d="M244.3936,39.6712l-2.1787,2.8584c.4648,.0332,.8975,.1221,1.2959,.2656,.3975,.1436,.7607,.3398,1.0879,.5889,.8818,.6729,1.3975,1.5469,1.5459,2.624,.1494,1.0762-.1055,2.0449-.7617,2.9062-.6289,.8242-1.4453,1.29-2.4512,1.3975s-1.9873-.2031-2.9434-.9326c-.3398-.2598-.6338-.5527-.8818-.8789-.249-.3271-.4551-.6875-.6201-1.082l-.2363,.3105-1.4912-1.1367c-.3066-.2334-.4805-.459-.5205-.6768s.0117-.4219,.1572-.6123c.1426-.1865,.3242-.2881,.5469-.3047,.2227-.0176,.4854,.0898,.7871,.3203l.2178,.166,4.2021-5.5107-.2178-.166c-.3066-.2334-.4795-.459-.5205-.6768-.04-.2178,.0127-.4209,.1572-.6123,.1426-.1855,.3232-.2881,.5439-.3066s.4844,.0889,.791,.3223l1.4902,1.1367Zm-.3125,8.3096c.4004-.5264,.5557-1.1123,.4648-1.7578s-.4023-1.1719-.9375-1.5791c-.5293-.4043-1.1182-.5645-1.7646-.4814s-1.165,.3818-1.5566,.8955c-.3574,.4678-.4844,.9785-.3818,1.5312,.1016,.5527,.4551,1.0596,1.0605,1.5205,.6045,.4619,1.1875,.6689,1.75,.623s1.0176-.2969,1.3652-.752Z"/><path d="M252.9189,55.2757c-.4004,.4668-.917,.8076-1.5498,1.0234-.6338,.2148-1.3174,.2324-2.0518,.0537-.7344-.1797-1.3799-.5088-1.9385-.9863-.5537-.4746-.9746-1.0557-1.2617-1.7441-.2881-.6895-.377-1.3662-.2656-2.0332,.1104-.666,.3711-1.2383,.7812-1.7168,.417-.4863,.96-.8486,1.6309-1.0879,.6699-.2383,1.373-.2754,2.1074-.1133,.7344,.1631,1.377,.4805,1.9268,.9512,.5537,.4736,.9697,1.0684,1.2461,1.7812,.2773,.7139,.3467,1.415,.21,2.1035s-.415,1.2783-.835,1.7686Zm-1.2217-1.0361c.335-.3916,.5029-.8711,.5029-1.4404-.0039-.7715-.3184-1.4248-.9434-1.96-.5508-.4717-1.1602-.6885-1.8291-.6514-.6699,.0371-1.2021,.2871-1.5986,.75-.3252,.3799-.4434,.8945-.3545,1.543s.4043,1.2051,.9463,1.6689c.5459,.4678,1.1465,.6953,1.8008,.6836,.6553-.0117,1.1465-.21,1.4756-.5938Z"/><path d="M255.9033,62.806l.2598-.2705c-.4375-.124-.8672-.3145-1.291-.5732-.4229-.2588-.7773-.5254-1.0625-.7988-.6201-.5957-.9658-1.2432-1.0371-1.9434-.0713-.7012,.085-1.25,.4668-1.6484,.4658-.4844,1.1445-.6973,2.0371-.6377s1.7744,.5078,2.6465,1.3447c.3496,.335,.7168,.7607,1.1035,1.2764l.2646-.2764c.166-.1729,.2275-.3848,.1836-.6367-.0439-.251-.2744-.5771-.6914-.9775-.3418-.3281-.8496-.6865-1.5244-1.0742-.25-.1465-.4307-.2734-.5439-.3818-.1543-.1475-.2314-.3281-.2314-.542-.001-.2139,.082-.4062,.248-.5791,.0938-.0977,.1934-.165,.2998-.2002,.1055-.0352,.2139-.042,.3223-.0205,.1094,.0225,.2998,.1055,.5713,.251,.3613,.1953,.7129,.4121,1.0547,.6504s.6338,.4727,.874,.7031c.7168,.6895,1.125,1.3789,1.2236,2.0693,.0986,.6914-.1094,1.3047-.625,1.8418l-2.2842,2.3779,.1973,.1895c.2783,.2666,.4248,.5107,.4404,.7314s-.0596,.418-.2256,.5908c-.1631,.1689-.3545,.25-.5752,.2432-.2217-.0068-.4707-.1436-.749-.4102l-1.3525-1.2988Zm1.9863-2.0684c-.376-.5332-.7588-.9883-1.1494-1.3633-.4697-.4512-.9834-.7246-1.541-.8203-.3516-.0547-.5996-.0078-.7432,.1426-.1055,.1094-.1387,.2461-.1025,.4111,.0684,.3037,.2666,.6133,.5938,.9268,.2773,.2676,.6445,.5146,1.1006,.7432,.4551,.2285,.9111,.3809,1.3652,.4561l.4766-.4961Z"/><path d="M266.7637,63.7845l-.7324,.6797c.8115,.1631,1.4092,.332,1.791,.5059,.3828,.1748,.6885,.3867,.9189,.6348,.3545,.3809,.5566,.8828,.6074,1.5039,.0361,.4209-.0449,.7246-.2441,.9082-.168,.1562-.3643,.2295-.5879,.2217-.2246-.0088-.4131-.0947-.5654-.2588-.1348-.1455-.2041-.3652-.208-.6602s-.0645-.5049-.1807-.6309c-.1523-.165-.4834-.3145-.9922-.4492-.5098-.1348-1.1973-.2559-2.0625-.3613l-1.7695,1.6426,1.5518,1.6719c.2627,.2822,.3955,.5342,.3984,.7549,.002,.2217-.084,.4141-.2598,.5771-.1719,.1592-.3682,.2295-.5879,.21-.2207-.0195-.4619-.1699-.7246-.4521l-3.29-3.5449c-.2617-.2822-.3945-.5342-.3975-.7549-.0029-.2217,.084-.4141,.2598-.5771,.1719-.1592,.3672-.2295,.5879-.21s.4619,.1699,.7236,.4521l.6484,.6992,2.8516-2.6475-.3926-.4238c-.2627-.2822-.3955-.5342-.3984-.7549-.002-.2217,.084-.4131,.2598-.5762,.1719-.1602,.3672-.2295,.5879-.2109,.2207,.0195,.4619,.1699,.7236,.4531l1.4834,1.5977Z"/><path d="M278.4561,72.6634l-6.5752,5.4355,.1738,.2109c.2422,.293,.3594,.5508,.3516,.7734-.0088,.2236-.1055,.4111-.29,.5645-.1807,.1484-.3799,.208-.5986,.1758s-.4512-.1963-.6973-.4932l-1.1943-1.4453,.3008-.249c-.3965-.1445-.7646-.3359-1.1025-.5732s-.6436-.5205-.915-.8496c-.7666-.9277-1.1162-1.8955-1.0488-2.9043,.0684-1.0098,.502-1.8438,1.3008-2.5049,.835-.6895,1.793-.9824,2.874-.876s1.9756,.5869,2.6826,1.4424c.2646,.3203,.4766,.6768,.6338,1.0674,.1572,.3896,.2617,.8174,.3135,1.2803l1.5361-1.2686-.1748-.2109c-.2451-.2969-.3633-.5566-.3535-.7773s.1055-.4062,.2861-.5557c.1846-.1523,.3867-.2129,.6055-.1807,.2188,.0312,.4512,.1963,.6963,.4932l1.1953,1.4453Zm-6.2588,3.0957c.5098-.4209,.793-.9561,.8506-1.6055,.0586-.6494-.127-1.2334-.5547-1.751-.4248-.5137-.9619-.8037-1.6104-.8682-.6484-.0654-1.2217,.1074-1.7197,.5195-.4531,.375-.6934,.8428-.7188,1.4043-.0254,.5625,.2041,1.1357,.6885,1.7217,.4814,.582,1.002,.916,1.5615,1,.5605,.085,1.0605-.0557,1.5029-.4209Z"/></g></svg>