<?xml version="1.0" encoding="UTF-8"?><svg id="Layer_1" xmlns="http://www.w3.org/2000/svg" width="294.8088" height="120.2552" viewBox="0 0 294.8088 120.2552"><defs><style>.cls-1{fill:none;stroke:#000;stroke-linecap:round;stroke-linejoin:round;stroke-width:5px;}</style></defs><g><path class="cls-1" d="M164.3546,55.4408c-4.6666-3-9.3334-6-14-9l-27.9231,.1538v18.8462h-9.0769l9.0769,50.5993h82.9231V55.2944c-13.6666,.0488-27.3334,.0976-41,.1464Z"/><polyline class="cls-1" points="205.4316 116.0401 196.3546 65.4408 122.4316 65.4408"/></g><g><path d="M4.5195,102.7343l.1436,1.6426,1.6113-.1416c.3838-.0332,.6641,.0166,.8408,.1494,.1758,.1338,.2754,.3203,.2959,.5586,.0205,.2334-.0449,.4316-.1953,.5938s-.417,.2598-.8018,.2939l-3.4551,.3027c-.3838,.0342-.6641-.0156-.8408-.1494-.1758-.1338-.2744-.3193-.2959-.5586-.0205-.2334,.0459-.4316,.1992-.5938s.4189-.2607,.7979-.2939l.249-.0215-.5479-6.2412-.249,.0215c-.3838,.0332-.6641-.0166-.8408-.1494-.1758-.1338-.2744-.3203-.2959-.5586-.0205-.2383,.0439-.4395,.1943-.6016s.418-.2598,.8018-.2939l3.6738-.3145c1.0791-.0947,1.96,.125,2.6426,.6582,.6816,.5342,1.0596,1.2236,1.1338,2.0693,.041,.4668-.0264,.917-.2031,1.3506-.1338,.3262-.375,.6572-.7246,.9932-.3496,.3369-.7129,.5986-1.0918,.7861-.3779,.1875-.8887,.3096-1.5322,.3662l-1.5098,.1318Zm-.1396-1.5957l1.4785-.1289c.6953-.0615,1.2324-.2666,1.6123-.6162s.5508-.7451,.5117-1.1865c-.0332-.373-.2266-.6855-.5801-.9365-.3545-.252-.8379-.3506-1.4492-.2969l-1.8369,.1611,.2637,3.0039Z"/><path d="M14.7119,97.6884l.1514,.9883c.5908-.5801,1.0664-.9795,1.4248-1.1982,.3594-.2188,.7061-.3535,1.041-.4043,.5146-.0791,1.043,.0352,1.5859,.3418,.3682,.207,.5732,.4443,.6143,.7119,.0352,.2266-.0137,.4297-.1465,.6113-.1338,.1807-.3105,.2881-.5322,.3223-.1953,.0303-.416-.0361-.6621-.1982-.2471-.1631-.4551-.2314-.625-.2051-.2207,.0342-.5303,.2236-.9277,.5693s-.8838,.8467-1.457,1.5039l.3662,2.3857,2.2549-.3457c.3809-.0586,.6631-.0264,.8477,.0957,.1855,.1211,.2959,.3008,.332,.5381,.0352,.2314-.0166,.4326-.1562,.6045s-.4004,.2861-.7812,.3447l-4.7803,.7334c-.3809,.0586-.6631,.0264-.8477-.0957-.1855-.1221-.2959-.3008-.332-.5381-.0352-.2314,.0166-.4326,.1562-.6045s.4004-.2871,.7812-.3447l.9424-.1445-.5898-3.8457-.5713,.0869c-.3818,.0586-.6641,.0273-.8486-.0947s-.2949-.3008-.332-.5381c-.0352-.2314,.0166-.4336,.1562-.6045,.1396-.1719,.4004-.2871,.7812-.3457l2.1543-.3301Z"/><path d="M29.7637,99.0908l-6.3994,1.4893c.2568,.3682,.6211,.6289,1.0928,.7812,.4707,.1523,1.0586,.1465,1.7646-.0176,.5781-.1348,1.3174-.4385,2.2188-.9102,.3721-.1934,.6338-.3076,.7861-.3438,.208-.0479,.3994-.0146,.5762,.0986,.1758,.1143,.29,.2832,.3428,.5059,.0469,.2031,.0107,.3936-.1084,.5713-.1592,.2344-.6123,.5283-1.3584,.8818-.7471,.3525-1.4834,.6133-2.209,.7822-1.2471,.29-2.3271,.1699-3.2402-.3604-.9121-.5312-1.4883-1.3115-1.7275-2.3418-.2549-1.0957-.0586-2.0811,.5908-2.957,.6494-.875,1.501-1.4355,2.5566-1.6816,.6338-.1475,1.2422-.1719,1.8242-.0713,.582,.0996,1.0322,.249,1.3516,.4473,.4521,.29,.8623,.6846,1.2295,1.1816,.252,.3477,.4365,.7754,.5547,1.2822l.1543,.6621Zm-2.0898-1.1582c-.3428-.3906-.7324-.6514-1.1689-.7822-.4375-.1309-.9219-.1348-1.4541-.0107-.5283,.123-.959,.3398-1.293,.6504s-.5713,.7168-.7109,1.2197l4.627-1.0771Z"/><path d="M38.6768,95.1347l-6.3506,2.0977-.458-1.3867,6.3496-2.0986,.459,1.3877Z"/><path d="M44.5127,95.9326l1.085,2.3906,.875-.3975c.3506-.1592,.6318-.2051,.8428-.1377,.21,.0674,.3652,.2109,.4639,.4287,.0967,.2139,.1016,.4219,.0137,.625s-.3076,.3838-.6592,.543l-2.582,1.1709c-.3516,.1602-.6318,.2051-.8428,.1377s-.3643-.207-.4619-.4209c-.0986-.2178-.1025-.4297-.0127-.6328,.0908-.2041,.3096-.3848,.6553-.542l.249-.1133-2.9883-6.5879-.249,.1123c-.3506,.1592-.6318,.2051-.8428,.1377-.21-.0674-.3652-.21-.4639-.4277-.0967-.2139-.1016-.4219-.0137-.625,.0889-.2031,.3076-.3838,.6592-.543l1.707-.7744,.2266,.498c.2363-.3877,.5107-.7207,.8242-1,.3135-.2803,.6621-.5068,1.0469-.6807,.9961-.4521,1.998-.499,3.0068-.1416s1.7109,.9727,2.1064,1.8457c.4365,.9629,.3818,1.9453-.1641,2.9473-.4561,.8369-1.1172,1.4512-1.9854,1.8447-.375,.1699-.7695,.2832-1.1846,.3398s-.8516,.0576-1.3115,.0029Zm3.1904-4.4668c-.0928-.2041-.291-.4268-.5957-.6689-.3037-.2422-.6709-.3936-1.1016-.4531-.4297-.0586-.8701,.0137-1.3213,.2178-.7256,.3291-1.1777,.8633-1.3574,1.6025-.1191,.5059-.1006,.9316,.0566,1.2783,.1768,.3887,.5557,.6729,1.1367,.8525,.582,.1797,1.1787,.1299,1.791-.1475,.6162-.2793,1.0488-.6953,1.2949-1.248,.2471-.5527,.2793-1.0303,.0967-1.4336Z"/><path d="M52.2998,84.9619l.5225,.8525c.3203-.7646,.6025-1.3164,.8496-1.6572,.2461-.3408,.5137-.5996,.8027-.7764,.4434-.2715,.9746-.3721,1.5938-.2988,.4199,.0479,.7012,.1865,.8428,.418,.1201,.1953,.1533,.4023,.1016,.6201-.0527,.2188-.1748,.3867-.3652,.5039-.1689,.1035-.3984,.1279-.6885,.0732-.2891-.0547-.5078-.0361-.6543,.0537-.1914,.1162-.4023,.4111-.6357,.8838-.2324,.4727-.4854,1.123-.7598,1.9512l1.2617,2.0576,1.9443-1.1924c.3291-.2012,.6016-.2812,.8193-.2412,.2178,.041,.3887,.1641,.5137,.3682,.123,.1992,.1533,.4053,.0908,.6182-.0625,.2119-.2578,.4189-.5859,.6201l-4.123,2.5283c-.3291,.2012-.6016,.2812-.8193,.2412-.2168-.041-.3887-.1641-.5137-.3682-.123-.1992-.1523-.4053-.0908-.6182,.0625-.2119,.2578-.4189,.5869-.6201l.8125-.499-2.0342-3.3164-.4922,.3018c-.3291,.2021-.6016,.2822-.8193,.2412-.2178-.04-.3887-.1631-.5137-.3672-.123-.2002-.1533-.4062-.0908-.6182s.2578-.4189,.5859-.6211l1.8584-1.1387Z"/><path d="M66.2217,79.2256c.3906,.4746,.6377,1.042,.7402,1.7031s.0029,1.3379-.3008,2.0303-.7393,1.2715-1.3057,1.7393c-.5625,.4629-1.208,.7773-1.9365,.9424-.7275,.165-1.4102,.1348-2.0479-.0898-.6367-.2236-1.1553-.5791-1.5566-1.0654-.4072-.4941-.6699-1.0928-.7891-1.7939s-.0352-1.4004,.252-2.0957,.71-1.2734,1.2686-1.7344c.5625-.4639,1.2197-.7705,1.9707-.9199,.75-.1494,1.4531-.0977,2.1074,.1562s1.1875,.6299,1.5977,1.1279Zm-1.2305,1.0244c-.3281-.3975-.7725-.6455-1.333-.7441-.7607-.1289-1.459,.0684-2.0938,.5918-.5586,.46-.877,1.0234-.9561,1.6895-.0791,.665,.0752,1.2334,.4619,1.7041,.3184,.3857,.8047,.5908,1.459,.6152s1.2568-.1904,1.8076-.6445c.5547-.457,.8828-1.0088,.9844-1.6562,.1006-.6465-.0088-1.165-.3301-1.5557Z"/><path d="M67.9922,67.4297l6.374,5.6709,.1816-.2041c.2529-.2842,.4902-.4395,.7119-.4648,.2217-.0264,.4219,.041,.6006,.2002,.1758,.1553,.2637,.3438,.2656,.5654,.002,.2207-.125,.4756-.3818,.7637l-1.2461,1.4004-.292-.2588c-.082,.4141-.2148,.8066-.3984,1.1768-.1826,.3701-.417,.7148-.7002,1.0342-.7998,.8984-1.7031,1.3916-2.7109,1.4785-1.0078,.0859-1.8984-.2148-2.6729-.9043-.8096-.7197-1.2441-1.6221-1.3037-2.707s.2793-2.042,1.0166-2.8701c.2764-.3115,.5957-.5742,.958-.79,.3623-.2139,.7676-.3828,1.2178-.5049l-1.4883-1.3242-.1816,.2041c-.2559,.2881-.4941,.4443-.7139,.4678-.2197,.0244-.418-.042-.5928-.1973-.1787-.1592-.2695-.3496-.2715-.5713-.002-.2207,.125-.4756,.3818-.7637l1.2461-1.4014Zm4.0137,5.7148c-.4941-.4395-1.0664-.6387-1.7168-.5967-.6504,.041-1.1992,.3135-1.6455,.8154-.4434,.498-.6475,1.0723-.6133,1.7236,.0342,.6504,.293,1.1904,.7754,1.6201,.4395,.3916,.9385,.5566,1.498,.4961,.5586-.0605,1.0908-.374,1.5967-.9424,.502-.5645,.752-1.1299,.75-1.6963-.002-.5654-.2168-1.0391-.6445-1.4199Z"/><path d="M75.707,61.3476l4.6426,2.9346c.1807-.2861,.3779-.457,.5918-.5127,.2148-.0557,.4199-.0205,.6182,.1045s.3164,.2969,.3545,.5146c.0371,.2188-.0469,.4902-.2529,.8154l-.8135,1.2881-.3105-.1963c-.0693,.499-.1709,.9521-.3057,1.3604-.1348,.4072-.3018,.7695-.502,1.0869-.2812,.4443-.6182,.7705-1.0117,.9785-.3926,.207-.8145,.3008-1.2646,.2812-.3232-.0137-.6641-.1328-1.0205-.3584l-2.9121-1.8418-.1465,.2314c-.2061,.3262-.415,.5186-.6279,.5781-.2139,.0586-.4209,.0244-.624-.1035-.1982-.125-.3154-.2969-.3535-.5146s.0459-.4902,.252-.8154l1.002-1.585,4.0283,2.5469c.2861,.1807,.54,.2441,.7617,.1904,.2227-.0537,.4238-.2236,.6045-.5098,.1729-.2734,.3047-.6006,.3955-.9844,.0918-.3828,.1426-.8945,.1533-1.5342l-2.7607-1.7461-.3086,.4893c-.2061,.3262-.416,.5186-.6289,.5771-.2129,.0596-.4209,.0254-.623-.1025-.1982-.125-.3164-.2969-.3545-.5146-.0371-.2188,.0469-.4902,.2529-.8164l1.1641-1.8418Z"/><path d="M79.7217,53.2246c-.0918-.249-.0977-.4668-.0176-.6533,.0898-.2109,.2393-.3525,.4482-.4248,.209-.0713,.4893-.0332,.8389,.1162l.9482,.4053c.3545,.1514,.5762,.3271,.666,.5273,.0908,.2002,.0889,.4102-.0059,.6299-.0859,.2012-.2158,.3467-.3896,.4365-.1299,.0645-.3389,.0674-.6299,.0117-.29-.0557-.5469-.002-.7705,.1631-.3955,.29-.7227,.7363-.9805,1.3398-.2969,.6943-.3311,1.3389-.1025,1.9316,.2275,.5928,.6533,1.0225,1.2754,1.2881,.5752,.2461,1.1152,.2383,1.6191-.0215,.5049-.2598,.957-.8574,1.3564-1.791,.2617-.6133,.4131-1.1396,.4541-1.5811,.0225-.2627-.0156-.5361-.1123-.8213-.0957-.2842-.1084-.5107-.0371-.6787,.0859-.2012,.2344-.3428,.4453-.4258,.2109-.082,.417-.0811,.6182,.0049,.3262,.1396,.54,.4941,.6416,1.0645,.1533,.8467-.042,1.9082-.5859,3.1816-.4893,1.1445-1.1074,1.9346-1.8535,2.3691-1.0049,.5898-2.0615,.6484-3.168,.1758-1.0488-.4482-1.7676-1.1689-2.1562-2.1621-.3877-.9932-.3418-2.0518,.1387-3.1777,.1738-.4072,.374-.7686,.6006-1.0859,.2256-.3164,.4785-.5908,.7588-.8223Z"/><path d="M83.3555,47.0088l3.0293,1.0645c.3242,.1143,.5615,.123,.7109,.0264,.2344-.1484,.4453-.4893,.6318-1.0195,.2715-.7715,.3574-1.542,.2578-2.3105-.0391-.2959-.0342-.5146,.0156-.6572,.0693-.1963,.2031-.3418,.4014-.4346s.4033-.1025,.6143-.0283c.1973,.0693,.3389,.207,.4258,.415,.1465,.3213,.1914,.8721,.1357,1.6494-.0547,.7783-.168,1.4111-.3398,1.8975-.3301,.9385-.7793,1.5713-1.3496,1.8975-.5713,.3271-1.1504,.3867-1.7402,.1797l-3.3242-1.1689-.1914,.5449c-.1279,.3643-.2891,.5986-.4834,.7041s-.4053,.1182-.6309,.0391c-.2217-.0781-.375-.2188-.46-.4229-.0859-.2041-.0645-.4873,.0635-.8516l.1914-.5449-1.3633-.4795c-.3643-.1279-.5986-.2891-.7041-.4834s-.1182-.4053-.0391-.6309c.0781-.2207,.2188-.374,.4229-.46s.4873-.0645,.8516,.0635l1.3633,.4795,.9824-2.7939c.1279-.3633,.2891-.5977,.4834-.7031s.4043-.1191,.6309-.0391c.2207,.0771,.374,.2188,.46,.4229,.085,.2031,.0645,.4873-.0635,.8506l-.9824,2.7939Z"/><path d="M83.1768,34.622l1.5459,.6943-.7803,1.7393-1.5469-.6943,.7812-1.7393Zm2.8613,1.0459l5.0107,2.25,.7871-1.7539c.1582-.3516,.3379-.5713,.541-.6602,.2021-.0889,.4131-.084,.6318,.0137,.2139,.0957,.3545,.249,.4229,.46,.0684,.21,.0234,.4912-.1348,.8428l-2.2305,4.9678c-.1582,.3516-.3389,.5713-.541,.6602-.2031,.0889-.4131,.085-.6318-.0137-.2139-.0957-.3545-.249-.4229-.46-.0684-.21-.0234-.4912,.1338-.8428l.7881-1.7529-3.5498-1.5947-.5273,1.1768c-.1562,.3467-.3359,.5654-.5391,.6562-.2041,.0918-.415,.0879-.6338-.0098-.2139-.0957-.3545-.249-.4229-.46-.0684-.21-.0234-.4912,.1348-.8428l1.1836-2.6367Z"/><path d="M96.6514,25.7412c.4922,.3672,.8682,.8604,1.125,1.4775,.2578,.6172,.3213,1.2988,.1924,2.043-.1299,.7451-.4141,1.4111-.8535,2-.4355,.585-.9873,1.0439-1.6553,1.3779-.668,.333-1.3379,.4678-2.0098,.4014-.6719-.0654-1.2607-.2871-1.7656-.6641-.5137-.3828-.9121-.9004-1.1953-1.5527-.2832-.6533-.3682-1.3516-.2549-2.0957,.1123-.7441,.3857-1.4062,.8184-1.9863,.4355-.585,1-1.0391,1.6934-1.3643,.6934-.3242,1.3887-.4414,2.084-.3506,.6963,.0898,1.3037,.3281,1.8213,.7139Zm-.9512,1.2891c-.4131-.3086-.9033-.4434-1.4717-.4053-.7695,.0566-1.4004,.4141-1.8916,1.0742-.4336,.5801-.6084,1.2031-.5264,1.8682,.082,.666,.3672,1.1807,.8564,1.5449,.4004,.2988,.9219,.3818,1.5625,.249,.6416-.1318,1.1758-.4844,1.6016-1.0566,.4297-.5762,.6172-1.1904,.5605-1.8428-.0557-.6523-.2861-1.1299-.6914-1.4316Z"/><path d="M97.6602,19.8935l.3418,.417c.0674-.3779,.1973-.7266,.3906-1.0459,.1924-.3193,.4482-.6094,.7666-.8701,.7334-.6006,1.5-.8477,2.3008-.7422,.6348,.0859,1.1934,.4229,1.6748,1.0117l1.8857,2.3037c.2617-.2148,.502-.3154,.7217-.3027,.2188,.0127,.4043,.1113,.5557,.2969,.1484,.1816,.2061,.3818,.1729,.6006-.0322,.2188-.1982,.4502-.4961,.6943l-1.1191,.915c-.2979,.2441-.5576,.3604-.7783,.3496-.2217-.0107-.4072-.1094-.5596-.2949-.1484-.1807-.207-.3799-.1758-.5977,.0303-.2168,.1768-.4326,.4395-.6475l-1.915-2.3398c-.2207-.2695-.4551-.4082-.7031-.4141-.3213-.0059-.6709,.1455-1.0498,.4561-.2861,.2344-.4922,.4951-.6172,.7822s-.2051,.7451-.2422,1.375l1.8848,2.3027c.3184-.2598,.5488-.3984,.6914-.4131,.2959-.041,.54,.0557,.7314,.2891,.1484,.1816,.2061,.3818,.1729,.6006s-.1982,.4502-.4971,.6943l-1.4082,1.1523c-.2988,.2441-.5576,.3613-.7793,.3496-.2207-.0107-.4072-.1084-.5586-.2939-.1846-.2256-.2314-.4805-.1406-.7637,.0479-.1396,.2305-.3398,.5488-.6006l-2.4639-3.0107c-.2627,.2148-.5039,.3145-.7236,.2998-.2207-.0146-.4053-.1133-.5537-.2939-.1484-.1816-.2061-.3818-.1738-.6006,.0332-.2188,.1992-.4502,.4971-.6943l1.1787-.9648Z"/><path d="M118.0039,15.2812l.7676,2.5107,.9189-.2812c.3682-.1133,.6533-.1221,.8535-.0283s.335,.2549,.4053,.4844c.0684,.2246,.0459,.4316-.0674,.6211-.1133,.1904-.3545,.3418-.7227,.4541l-2.7119,.8301c-.3691,.1123-.6533,.1221-.8535,.0273-.2002-.0938-.335-.2529-.4033-.4766-.0703-.2295-.0469-.4395,.0684-.6299,.1162-.1904,.3564-.3418,.7197-.4531l.2617-.0801-2.1172-6.917-.2607,.0791c-.3691,.1133-.6533,.123-.8535,.0283-.2002-.0938-.3359-.2549-.4053-.4844-.0693-.2236-.0469-.4307,.0674-.6211,.1133-.1895,.3535-.3408,.7227-.4541l1.793-.5479,.1602,.5225c.2832-.3535,.5986-.6494,.9463-.8857,.3467-.2373,.7217-.417,1.125-.541,1.0459-.3193,2.0459-.2373,3,.2471,.9551,.4844,1.5723,1.1846,1.8525,2.1006,.3096,1.0107,.1289,1.9785-.542,2.9023-.5596,.7705-1.2949,1.2949-2.2061,1.5742-.3936,.1201-.7998,.1816-1.2188,.1846-.418,.0029-.8516-.0527-1.2998-.166Zm3.7373-4.0195c-.0654-.2139-.2334-.46-.5039-.7402-.2715-.2793-.6162-.4756-1.0352-.5898s-.8643-.0996-1.3379,.0459c-.7617,.2324-1.2793,.7041-1.5527,1.4141-.1836,.4863-.2188,.9121-.1084,1.2754,.125,.4082,.4648,.7393,1.0186,.9912,.5537,.2529,1.1523,.2812,1.7949,.084,.6475-.1982,1.1289-.5547,1.4443-1.0713,.3164-.5156,.4102-.9854,.2803-1.4092Z"/><path d="M131.0029,13.2676l-.0537-.3711c-.3662,.2676-.7822,.4893-1.2461,.6631-.4648,.1738-.8926,.2891-1.2852,.3457-.8506,.1211-1.5732-.0059-2.1689-.3809s-.9326-.8359-1.0107-1.3828c-.0947-.665,.1562-1.3311,.7529-1.998,.5967-.666,1.4932-1.085,2.6895-1.2559,.4795-.0684,1.041-.0957,1.6846-.083l-.0537-.3789c-.0342-.2373-.1641-.416-.3887-.5361-.2256-.1201-.624-.1396-1.1963-.0586-.4688,.0674-1.0645,.2471-1.7852,.54-.2686,.1064-.4805,.1709-.6357,.1934-.2109,.0293-.4014-.0205-.5693-.1514-.1689-.1318-.2705-.3154-.3047-.5527-.0186-.1338-.0098-.2539,.0283-.3594,.0371-.1055,.0986-.1943,.1826-.2666s.2676-.1709,.5498-.2959c.376-.1641,.7637-.3076,1.1611-.4297,.3984-.123,.7627-.208,1.0928-.2549,.9844-.1406,1.7793-.0371,2.3838,.3105,.6055,.3477,.96,.8896,1.0654,1.627l.4658,3.2637,.2715-.0381c.3809-.0547,.6631-.0205,.8467,.1035s.292,.3047,.3262,.542c.0332,.2314-.0205,.4326-.1621,.6025s-.4033,.2822-.7852,.3369l-1.8555,.2656Zm-.4053-2.8389c-.6523-.0332-1.2461-.0107-1.7822,.0654-.6445,.0918-1.1768,.3291-1.5957,.709-.2598,.2432-.375,.4668-.3457,.6729,.0215,.1504,.1084,.2607,.2607,.334,.2822,.1338,.6475,.168,1.0957,.1035,.3818-.0537,.8027-.1904,1.2637-.4092,.4609-.2178,.8604-.4834,1.2002-.7949l-.0967-.6807Z"/><path d="M138.793,5.6377l.0176,1c.6631-.4961,1.1875-.8281,1.5732-.9961,.3848-.168,.7471-.2549,1.085-.2607,.5205-.0088,1.0293,.1748,1.5254,.5518,.3379,.2549,.5088,.5176,.5137,.7891,.0039,.2285-.0723,.4238-.2285,.5859-.1562,.1611-.3457,.2441-.5703,.248-.1973,.0029-.4072-.0928-.6299-.2861-.2217-.1943-.4189-.29-.5908-.2871-.2236,.0039-.5557,.1504-.9961,.4385-.4404,.2891-.9893,.7207-1.6465,1.2939l.041,2.4141,2.2812-.0391c.3857-.0068,.6611,.0625,.8281,.209,.166,.1455,.252,.3379,.2559,.5771,.0039,.2344-.0752,.4277-.2363,.5781-.1611,.1514-.4346,.2305-.8203,.2373l-4.835,.082c-.3857,.0068-.6611-.0625-.8281-.208s-.252-.3389-.2559-.5781c-.0039-.2344,.0742-.4268,.2363-.5781,.1611-.1514,.4346-.2305,.8203-.2363l.9531-.0166-.0664-3.8906-.5781,.0107c-.3857,.0059-.6621-.0635-.8281-.209-.167-.1455-.252-.3379-.2559-.5781-.0039-.2344,.0742-.4268,.2363-.5781,.1611-.1514,.4346-.2295,.8203-.2363l2.1787-.0371Z"/><path d="M149.0752,7.5586l-.2646,3.2002c-.0283,.3428,.0225,.5742,.1533,.6943,.2041,.1895,.5859,.3076,1.1465,.3545,.8154,.0674,1.582-.0439,2.3018-.335,.2754-.1133,.4893-.1631,.6396-.1504,.207,.0166,.3809,.1094,.5215,.2783,.1406,.168,.2012,.3643,.1826,.5869-.0176,.208-.1152,.3799-.2939,.5166-.2744,.2236-.7949,.4062-1.5625,.5488-.7666,.1426-1.4072,.1934-1.9209,.1504-.9912-.082-1.7178-.3584-2.1777-.8271-.46-.4697-.6641-1.0156-.6123-1.6387l.291-3.5117-.5762-.0479c-.3838-.0312-.6514-.1279-.8027-.29-.1514-.1611-.2168-.3613-.1973-.5996,.0195-.2334,.1172-.418,.293-.5518,.1758-.1348,.4551-.1865,.8398-.1543l.5762,.0479,.1191-1.4404c.0322-.3838,.1289-.6514,.29-.8027s.3613-.2168,.6006-.1973c.2334,.0195,.417,.1172,.5518,.293s.1855,.4551,.1533,.8398l-.1191,1.4404,2.9512,.2441c.3838,.0322,.6514,.1289,.8027,.29,.1514,.1621,.2168,.3623,.1973,.6006-.0195,.2334-.1172,.418-.293,.5518-.1758,.1348-.4561,.1855-.8398,.1543l-2.9512-.2451Z"/><path d="M171.5752,6.3027l-1.9893,8.5361,1.5752,.3672c.375,.0879,.626,.2227,.752,.4043s.1621,.3896,.1074,.6221c-.0527,.2285-.1758,.3965-.3701,.5039-.1934,.1074-.4775,.1172-.8525,.0293l-4.71-1.0967c-.376-.0879-.626-.2227-.752-.4043s-.1621-.3896-.1074-.623c.0527-.2275,.1758-.3955,.3691-.5029s.4785-.1172,.8535-.0303l1.5752,.3672,1.5156-6.5049-1.4775,.04c-.2373,.0088-.4121,.001-.5234-.0254-.1973-.0459-.3506-.1641-.458-.3555-.1084-.1904-.1357-.4004-.083-.6289,.0488-.208,.1406-.3594,.2744-.4531,.1348-.0947,.3818-.1475,.7432-.1602l3.5576-.085Z"/><path d="M179.3809,18.3183c-.085,.29-.2578,.5029-.5195,.6377-.2627,.1357-.5732,.1504-.9336,.0459-.3594-.1055-.6133-.2852-.7617-.54-.1484-.2539-.1807-.5264-.0957-.8164,.084-.29,.2578-.5029,.5195-.6387,.2617-.1348,.5723-.1504,.9326-.0449,.3604,.1045,.6143,.2842,.7627,.5391,.1475,.2549,.1797,.5273,.0957,.8174Zm1.4512-5.0371c-.085,.29-.2578,.502-.5195,.6377-.2627,.1348-.5732,.1504-.9336,.0459-.3594-.1055-.6133-.2852-.7617-.54s-.1807-.5273-.0957-.8174c.084-.29,.2578-.502,.5195-.6377,.2617-.1348,.5723-.1504,.9326-.0459,.3604,.1055,.6143,.2852,.7627,.54,.1475,.2549,.1797,.5273,.0957,.8174Z"/><path d="M200.2959,18.0176l-2.2207,5.8594,1.0088,.3818c.3604,.1367,.5908,.3037,.6914,.5,.1016,.1973,.1094,.4072,.0244,.6318-.083,.2188-.2275,.3691-.4336,.4492-.2061,.0811-.4893,.0527-.8496-.083l-3.5068-1.3291c-.3604-.1367-.5908-.3037-.6924-.5-.1006-.1973-.1084-.4082-.0234-.6318,.083-.2197,.2275-.3691,.4336-.4502,.2061-.0801,.4893-.0527,.8496,.084l1.001,.3799,2.2197-5.8594-1.6211-.6143-.5371,1.417c-.1367,.3604-.3037,.5908-.501,.6914-.1963,.1016-.4072,.1094-.6309,.0244-.2197-.083-.3691-.2275-.4502-.4336-.0801-.2061-.0527-.4893,.084-.8496l1.1074-2.9229,7.7559,2.9473-1.1045,2.915c-.1367,.3604-.3037,.5918-.5,.6924-.1973,.1006-.4082,.1084-.6318,.0234-.2188-.083-.3691-.2275-.4502-.4336-.0801-.2061-.0527-.4893,.084-.8496l.5371-1.417-1.6436-.623Z"/><path d="M208.5156,22.166l-.4033,.915c.8105-.1719,1.4258-.2539,1.8457-.2451s.7852,.0811,1.0947,.2178c.4766,.21,.8613,.5908,1.1543,1.1406,.1992,.373,.2451,.6836,.1357,.9307-.0928,.21-.2432,.3555-.4531,.4365-.209,.0811-.416,.0771-.6211-.0137-.1816-.0801-.332-.2539-.4521-.5234s-.2588-.4385-.416-.5078c-.2051-.0908-.5684-.0967-1.0889-.0195-.5215,.0781-1.2002,.2393-2.0371,.4854l-.9736,2.209,2.0869,.9199c.3525,.1562,.5742,.335,.665,.5361,.0898,.2021,.0869,.4131-.0098,.6328-.0947,.2139-.2471,.3564-.457,.4258s-.4912,.0264-.8438-.1289l-4.4258-1.9512c-.3525-.1553-.5732-.334-.6641-.5361-.0898-.2021-.0869-.4121,.0098-.6318,.0947-.2139,.2471-.3564,.457-.4258s.4912-.0264,.8438,.1289l.8721,.3838,1.5693-3.5596-.5283-.2334c-.3535-.1553-.5742-.334-.665-.5361-.0898-.2021-.0869-.4121,.0098-.6318,.0947-.2139,.2471-.3564,.457-.4258,.21-.0703,.4912-.0273,.8438,.1289l1.9941,.8789Z"/><path d="M219.6895,32.4941l-5.8311-3.0293c-.0439,.4473,.0635,.8809,.3223,1.3037,.2598,.4219,.71,.7998,1.3525,1.1338,.5273,.2734,1.2861,.5244,2.2773,.751,.4082,.0947,.6816,.1787,.8203,.251,.1895,.0977,.3145,.248,.374,.4492s.0371,.4033-.0684,.6074c-.0967,.1846-.2471,.3057-.4531,.3633-.2734,.0742-.8096,.0029-1.6055-.2139-.7969-.2178-1.5264-.498-2.1875-.8408-1.1367-.5908-1.8789-1.3848-2.2266-2.3809-.3486-.9971-.2783-1.9639,.209-2.9023,.5186-.999,1.3086-1.6191,2.3711-1.8623s2.0752-.1152,3.0361,.3838c.5781,.2998,1.0557,.6777,1.4326,1.1318s.623,.8604,.7363,1.2188c.1543,.5146,.21,1.0801,.166,1.6973-.0352,.4277-.1729,.873-.4121,1.335l-.3135,.6035Zm-.8359-2.2393c-.0059-.5195-.1318-.9707-.3789-1.3545s-.6123-.7012-1.0977-.9531c-.4814-.25-.9492-.3652-1.4053-.3467-.4551,.0186-.8994,.1738-1.333,.4648l4.2148,2.1895Z"/><path d="M224.7236,38.6162l.1924-.3223c-.4541-.0225-.916-.1113-1.3867-.2676-.4707-.1572-.876-.3369-1.2158-.5391-.7383-.4404-1.2207-.9941-1.4482-1.6602-.2266-.666-.1992-1.2363,.084-1.71,.3438-.5771,.958-.9375,1.8408-1.0811s1.8428,.0947,2.8809,.7139c.416,.248,.8701,.5791,1.3623,.9941l.1963-.3281c.123-.2061,.1348-.4268,.0352-.6611-.0996-.2354-.3975-.501-.8936-.7979-.4072-.2422-.9824-.4766-1.7275-.7021-.2764-.0859-.4814-.1689-.6152-.249-.1836-.1104-.2998-.2686-.3486-.4766s-.0117-.415,.1113-.6201c.0693-.1172,.1514-.2041,.2471-.2627,.0947-.0576,.1982-.0889,.3096-.0918,.1113-.0039,.3154,.0352,.6133,.1152,.3965,.1084,.7871,.2412,1.1738,.3955,.3867,.1553,.7236,.3174,1.0098,.4883,.8545,.5098,1.4072,1.0898,1.6592,1.7402,.252,.6514,.1865,1.2959-.1943,1.9355l-1.6895,2.8311,.2344,.1406c.3311,.1973,.5293,.4014,.5938,.6133,.0654,.2119,.0361,.4199-.0859,.626-.1201,.2012-.2891,.3232-.5059,.3672-.2168,.043-.4912-.0342-.8223-.2314l-1.6104-.96Zm1.4697-2.4629c-.4863-.4355-.9619-.792-1.4277-1.0693-.5586-.334-1.1211-.4844-1.6865-.4512-.3545,.0244-.585,.127-.6914,.3057-.0781,.1299-.0801,.2705-.0068,.4238,.1348,.2803,.3975,.5371,.7871,.7695,.3301,.1973,.7441,.3555,1.2393,.4756,.4961,.1201,.9736,.165,1.4336,.1367l.3525-.5908Z"/><path d="M234.5654,38.4033l-1.7998,2.6592c-.1924,.2842-.2617,.5117-.2061,.6807,.085,.2656,.3604,.5557,.8262,.8701,.6768,.459,1.4004,.7373,2.1699,.8369,.2959,.0361,.5059,.0967,.6309,.1816,.1729,.1162,.2793,.2832,.3184,.498,.04,.2158-.0029,.416-.1279,.6016-.1172,.1729-.2871,.2744-.5098,.3066-.3486,.0596-.8916-.0361-1.6309-.2871-.7383-.252-1.3213-.5215-1.748-.8105-.8242-.5576-1.3213-1.1533-1.4932-1.7881-.1709-.6348-.0811-1.2109,.2686-1.7285l1.9746-2.918-.4785-.3242c-.3193-.2158-.5049-.4316-.5576-.6465s-.0127-.4219,.1221-.6201c.1309-.1943,.3066-.3066,.5254-.3379,.2188-.0303,.4883,.0615,.8076,.2783l.4785,.3232,.8105-1.1973c.2158-.3184,.4307-.5049,.6455-.5576s.4219-.0117,.6201,.1221c.1943,.1318,.3066,.3066,.3379,.5264,.0312,.2188-.0615,.4883-.2773,.8066l-.8096,1.1973,2.4521,1.6592c.3193,.2158,.5049,.4316,.5576,.6465s.0117,.4219-.1221,.6201c-.1318,.1943-.3066,.3066-.5254,.3379-.2197,.0303-.4883-.0615-.8076-.2773l-2.4521-1.6592Z"/><path d="M242.1904,41.8134l-.2744,.3604c.3613-.0449,.6562-.042,.8818,.0088,.2266,.0518,.4492,.1611,.6689,.3281,.1865,.1426,.3359,.3281,.4482,.5586,.1133,.2295,.1865,.502,.2217,.8174,.3584-.0146,.6846,.0195,.9785,.1025,.293,.083,.5586,.2139,.7939,.3945,.4727,.3594,.7588,.7783,.8604,1.2549,.1367,.6289,0,1.2119-.4102,1.75l-2.1748,2.8516c.2646,.2021,.416,.4121,.4531,.6299,.0361,.2188-.0166,.4209-.1582,.6064-.1426,.1865-.3223,.29-.541,.3105-.2188,.0195-.4805-.0869-.7871-.3203l-1.2119-.9238,3.0654-4.0195c.1484-.1943,.2158-.3564,.2021-.4844-.0137-.1289-.0928-.248-.2373-.3584-.1416-.1074-.2998-.1699-.4766-.1865-.2324-.0137-.5674,.0391-1.0049,.1572l-1.9561,2.5664c.2646,.2021,.416,.4121,.4521,.6299,.0371,.2178-.0156,.4199-.1582,.6064-.1416,.1865-.3223,.29-.54,.3096-.2188,.0205-.4814-.0859-.7871-.3203l-1.2119-.9238,3.0654-4.0195c.1445-.1904,.21-.3516,.1963-.4834s-.0938-.2529-.2383-.3633c-.1494-.1143-.332-.1797-.5479-.1963-.2158-.0176-.5312,.0352-.9453,.1572l-1.957,2.5664c.2656,.2021,.417,.4131,.4561,.6318,.0391,.2197-.0127,.4229-.1553,.6094-.1416,.1865-.3232,.2891-.5439,.3076-.2197,.0186-.4834-.0889-.79-.3232l-1.1494-.876c-.3066-.2334-.4795-.459-.5205-.6768-.04-.2178,.0127-.4219,.1572-.6123,.1426-.1865,.3232-.2891,.541-.3096,.2188-.0205,.4619,.0723,.7314,.2773l2.3594-3.0938c-.2695-.2051-.4229-.417-.459-.6348-.0371-.2178,.0156-.4199,.1582-.6064,.1416-.1865,.3232-.2891,.5439-.3076,.2197-.0186,.4834,.0889,.79,.3232l1.2109,.9238Z"/><path d="M252.3701,55.7002l-4.9912-4.2734c-.1445,.4248-.1387,.8721,.0186,1.3418,.1562,.4707,.5098,.9404,1.0596,1.4121,.4502,.3857,1.1328,.8018,2.0469,1.248,.376,.1855,.624,.3291,.7422,.4307,.1621,.1387,.25,.3125,.2627,.5225,.0117,.21-.0566,.4014-.2051,.5752-.1357,.1582-.3105,.2422-.5234,.251-.2842,.0117-.7891-.1797-1.5156-.5723s-1.373-.8311-1.9385-1.3154c-.9736-.833-1.5166-1.7744-1.6289-2.8242-.1133-1.0498,.1748-1.9756,.8623-2.7793,.7314-.8545,1.6426-1.2793,2.7324-1.2754,1.0898,.0049,2.0469,.3594,2.8701,1.0635,.4941,.4238,.873,.8994,1.1377,1.4277,.2646,.5273,.4111,.9795,.4404,1.3535,.0342,.5371-.041,1.1006-.2236,1.6904-.1309,.4092-.3662,.8115-.7051,1.207l-.4414,.5166Zm-.3057-2.3701c.1123-.5068,.0918-.9756-.0615-1.4053s-.4375-.8223-.8535-1.1777c-.4111-.3525-.8408-.5713-1.2891-.6562-.4482-.0859-.916-.0352-1.4043,.1494l3.6084,3.0898Z"/><path d="M258.6084,55.5683l-.373,.3887c.3828,.0215,.7451,.1094,1.085,.2627,.3408,.1533,.6592,.3721,.9561,.6572,.6836,.6562,1.0205,1.3887,1.0107,2.1953-.0088,.6406-.2773,1.2363-.8037,1.7842l-2.0615,2.1465c.2441,.2354,.373,.4619,.3867,.6807s-.0625,.415-.2285,.5879c-.1631,.1689-.3545,.25-.5752,.2432-.2217-.0068-.4707-.1436-.749-.4102l-1.042-1.001c-.2783-.2676-.4248-.5107-.4404-.7314s.0596-.418,.2256-.5908c.1621-.1689,.3525-.251,.5723-.2461,.2188,.0049,.4512,.124,.6953,.3584l2.0938-2.1807c.2422-.251,.3516-.5,.3281-.7461-.0322-.3203-.2256-.6494-.5781-.9893-.2666-.2559-.5508-.4287-.8506-.5186s-.7646-.1152-1.3936-.0771l-2.0625,2.1475c.2969,.2852,.4619,.4971,.4941,.6367,.0752,.2891,.0088,.543-.2002,.7607-.1621,.1689-.3545,.25-.5752,.2432-.2217-.0059-.4707-.1426-.749-.4102l-1.3125-1.2607c-.2783-.2666-.4248-.5107-.4404-.7314s.0596-.417,.2256-.5898c.2021-.2109,.4492-.2871,.7412-.2305,.1445,.0303,.3652,.1875,.6621,.4727l2.6943-2.8066c-.2441-.2344-.3721-.4619-.3838-.6826s.0635-.416,.2256-.585,.3545-.25,.5752-.2432c.2217,.0068,.4707,.1436,.749,.4102l1.0986,1.0557Z"/><path d="M265.5479,64.8271l-2.3535,2.1846c-.252,.2344-.3701,.4395-.3545,.6172,.0225,.2773,.2256,.6221,.6084,1.0342,.5557,.5996,1.1973,1.0342,1.9248,1.3047,.2793,.1025,.4707,.209,.5742,.3193,.1416,.1533,.207,.3389,.1973,.5576s-.0967,.4053-.2607,.5566c-.1533,.1426-.3418,.2031-.5654,.1836-.3535-.0205-.8613-.2363-1.5244-.6475-.6621-.4121-1.1689-.8066-1.5195-1.1846-.6777-.7295-1.0273-1.4219-1.0508-2.0791s.1934-1.1982,.6514-1.623l2.583-2.3975-.3936-.4229c-.2627-.2832-.3945-.5352-.3975-.7559-.0029-.2217,.083-.4131,.2588-.5762,.1719-.1602,.3682-.2295,.5889-.2109,.2197,.0195,.4609,.1699,.7236,.4531l.3936,.4238,1.0586-.9834c.2832-.2627,.5352-.3945,.7559-.3975,.2217-.0029,.4131,.083,.5762,.2588,.1602,.1719,.2295,.3682,.2109,.5879-.0195,.2207-.1709,.4619-.4531,.7246l-1.0596,.9834,2.0146,2.1699c.2627,.2822,.3945,.5342,.3975,.7549,.0029,.2217-.083,.4141-.2588,.5771-.1719,.1592-.3682,.2295-.5879,.21-.2207-.0195-.4619-.1699-.7246-.4521l-2.0137-2.1709Z"/></g></svg>