<?xml version="1.0" encoding="UTF-8"?><svg id="Layer_2" xmlns="http://www.w3.org/2000/svg" width="1363.2714" height="128.0571" viewBox="0 0 1363.2714 128.0571"><defs><style>.cls-1{fill:none;stroke:#000;stroke-linecap:round;stroke-linejoin:round;stroke-width:5px;}</style></defs><g id="Layer_1-2"><g><g><path class="cls-1" d="M652.5938,52.2331c-4.6666-3-9.3334-6-14-9l-27.9231,.1538v18.8462h-9.0769l9.0769,50.5993h82.9231V52.0867c-13.6666,.0488-27.3334,.0976-41,.1464Z"/><polyline class="cls-1" points="693.6707 112.8324 684.5938 62.2331 610.6707 62.2331"/></g><g><path d="M16.9082,103.4805l2.0205,2.2007,2.1592-1.9829c.5146-.4722,.9727-.71,1.373-.7129,.4014-.0034,.749,.1553,1.042,.4751,.2881,.313,.4131,.6689,.376,1.0684s-.3125,.835-.8271,1.3076l-4.6309,4.2524c-.5146,.4727-.9727,.7104-1.373,.7134-.4014,.0029-.748-.1553-1.042-.4751-.2881-.313-.4111-.6704-.3701-1.0732,.04-.4023,.3145-.8364,.8213-1.3027l.334-.3066-7.6816-8.3643-.334,.3066c-.5146,.4727-.9717,.71-1.373,.7134-.4004,.0029-.748-.1558-1.042-.4756s-.4219-.6792-.3848-1.0786,.3125-.835,.8271-1.3076l4.9326-4.5107c1.4453-1.3276,2.9541-1.9854,4.5234-1.9722,1.5693,.0137,2.874,.5869,3.915,1.7202,.5752,.6255,.9746,1.3477,1.2012,2.1655,.167,.6152,.1855,1.3574,.0557,2.2271-.1309,.8701-.3643,1.6484-.7012,2.3354-.3369,.6875-.9355,1.4268-1.7979,2.2188l-2.0234,1.8579Zm-1.9639-2.1382l1.9814-1.8198c.9316-.8555,1.4775-1.7441,1.6367-2.666,.1602-.9219-.0312-1.6782-.5742-2.2695-.46-.5005-1.083-.7358-1.8691-.7056-.7871,.0298-1.5898,.4219-2.4102,1.1748l-2.4619,2.2607,3.6973,4.0254Z"/><path d="M26.7783,85.3501l1.1787,1.3765c.3535-1.459,.7021-2.5283,1.0459-3.2085,.3438-.6797,.748-1.2192,1.2139-1.6187,.7168-.6143,1.6396-.9448,2.7676-.9917,.7666-.0347,1.3096,.1343,1.6289,.5068,.2695,.3154,.3896,.6763,.3584,1.082-.0312,.4062-.2012,.7412-.5098,1.0054-.2725,.2334-.6758,.3428-1.21,.3286-.5342-.0146-.9199,.0796-1.1562,.2822-.3086,.2642-.6035,.8525-.8848,1.7646-.2812,.9126-.5488,2.1489-.8027,3.709l2.8477,3.3228,3.1396-2.6904c.5303-.4546,.9961-.6768,1.3965-.666,.4014,.0107,.7432,.1812,1.0254,.5107,.2764,.3228,.3887,.6831,.3379,1.0806-.0498,.3979-.3408,.8242-.8711,1.2788l-6.6562,5.7036c-.5303,.4546-.9951,.6763-1.3965,.6655-.4004-.0107-.7422-.1812-1.0254-.5107-.2764-.3228-.3887-.6826-.3379-1.0806s.3408-.8237,.8711-1.2783l1.3115-1.1245-4.5879-5.3545-.7959,.6821c-.5303,.4546-.9961,.6763-1.3975,.6655-.4004-.0107-.7422-.1812-1.0244-.5107-.2764-.3228-.3896-.6831-.3389-1.0806,.0508-.3979,.3408-.8237,.8721-1.2788l3-2.5708Z"/><path d="M52.1377,74.853l-9.3359,7.3926c.7051,.4048,1.5029,.5493,2.3936,.4341,.8906-.1147,1.8496-.5796,2.8789-1.394,.8438-.668,1.8213-1.7373,2.9326-3.2075,.46-.605,.8008-.9956,1.0234-1.1714,.3027-.2402,.6436-.335,1.0205-.2842,.377,.0503,.6953,.2383,.9531,.564,.2344,.2964,.3223,.6357,.2646,1.0186-.0791,.5083-.5947,1.3408-1.5459,2.4971-.9502,1.1562-1.9551,2.1533-3.0137,2.9912-1.8203,1.4414-3.6836,2.0801-5.5898,1.916-1.9062-.1646-3.4541-.998-4.6436-2.5005-1.2656-1.5986-1.7061-3.3662-1.3193-5.3042,.3867-1.9375,1.3496-3.5156,2.8887-4.7344,.9248-.7324,1.9033-1.2422,2.9346-1.5288s1.8848-.3911,2.5615-.3125c.9668,.126,1.9434,.4546,2.9297,.9854,.6816,.3755,1.3164,.9326,1.9023,1.6729l.7646,.9658Zm-4.3223-.2803c-.8633-.376-1.7041-.502-2.5215-.3789-.8174,.1235-1.6143,.4927-2.3916,1.1079-.7695,.6099-1.3086,1.2983-1.6152,2.0654-.3076,.7671-.3818,1.6172-.2207,2.5498l6.749-5.3442Z"/><path d="M64.7158,63.2402l-9.8232,7.1011-1.5518-2.146,9.8232-7.1011,1.5518,2.146Z"/><path d="M74.7373,62.8672l2.5928,3.9888,1.46-.9492c.5859-.3804,1.0771-.5391,1.4727-.4756,.3965,.0635,.7119,.2773,.9492,.6411,.2314,.3564,.2959,.7285,.1934,1.1157-.1035,.3877-.4473,.772-1.0332,1.1528l-4.3096,2.8013c-.5859,.3809-1.0762,.5396-1.4727,.4761-.3955-.064-.709-.2734-.9404-.6299-.2373-.3643-.3018-.7412-.1953-1.1313s.4482-.7729,1.0264-1.1484l.416-.2705-7.1465-10.9937-.416,.27c-.585,.3809-1.0762,.5396-1.4717,.4761-.3965-.0635-.7129-.2773-.9492-.6416-.2314-.356-.2959-.728-.1934-1.1157s.4473-.7715,1.0322-1.1523l2.8496-1.8521,.54,.8311c.3184-.7583,.7197-1.4307,1.2061-2.0166,.4854-.5864,1.0498-1.0879,1.6904-1.5044,1.6621-1.0806,3.4453-1.4375,5.3506-1.0708,1.9043,.3662,3.3301,1.2778,4.2764,2.7339,1.0449,1.6069,1.2139,3.3828,.5078,5.3276-.5898,1.6221-1.6094,2.9038-3.0576,3.8452-.625,.4062-1.3018,.7168-2.0293,.9307-.7275,.2144-1.5107,.335-2.3486,.3618Zm4.502-8.8716c-.2217-.3398-.6377-.686-1.249-1.0376-.6113-.3511-1.3105-.5215-2.0977-.5112-.7861,.0107-1.5557,.2603-2.3076,.749-1.2109,.7871-1.877,1.8672-1.998,3.2407-.0762,.939,.0732,1.6973,.4492,2.2754,.4219,.6489,1.1777,1.0552,2.2695,1.2183,1.0908,.1631,2.1475-.0869,3.168-.751,1.0293-.6685,1.6904-1.5312,1.9824-2.5889,.293-1.0566,.2197-1.9219-.2168-2.5947Z"/><path d="M87.0107,42.0352l.9004,1.5728c.6211-1.3667,1.1631-2.3521,1.6279-2.9556s.9639-1.0576,1.4961-1.3628c.8193-.4688,1.7871-.6211,2.9043-.4561,.7588,.1099,1.2607,.3774,1.5049,.8032,.2061,.3604,.2559,.7373,.1494,1.1299-.1074,.3931-.3369,.6904-.6885,.8921-.3115,.1782-.7285,.2104-1.251,.0962-.5215-.1143-.918-.0942-1.1885,.0605-.3525,.2021-.752,.7246-1.1992,1.5679-.4473,.8438-.9414,2.0083-1.4834,3.4932l2.1748,3.7969,3.5879-2.0547c.6064-.3472,1.1055-.478,1.4971-.3926,.3916,.0859,.6953,.3174,.9111,.6938,.2109,.3687,.2549,.7437,.1299,1.125-.124,.3813-.4893,.7456-1.0957,1.0928l-7.6055,4.356c-.6064,.3472-1.1055,.478-1.4971,.3921-.3916-.0854-.6953-.3169-.9111-.6938-.2119-.3687-.2549-.7432-.1309-1.1245,.125-.3813,.4902-.7456,1.0957-1.0928l1.499-.8584-3.5039-6.1191-.9092,.5205c-.6064,.3472-1.1055,.478-1.4971,.3921-.3916-.0854-.6953-.3169-.9111-.6934-.2119-.3687-.2549-.7437-.1309-1.125,.125-.3813,.4902-.7456,1.0957-1.0928l3.4287-1.9634Z"/><path d="M113.7637,35.6147c.4902,1,.6875,2.105,.5918,3.3135-.0957,1.209-.5557,2.3604-1.3809,3.4536s-1.8359,1.9336-3.0303,2.5195c-1.1865,.5825-2.457,.8662-3.8096,.8516-1.3535-.0142-2.5439-.3525-3.5732-1.0151-1.0293-.6621-1.7959-1.5059-2.2988-2.5312-.5117-1.0425-.7256-2.207-.6416-3.4941,.083-1.2871,.5244-2.4839,1.3223-3.5903s1.7852-1.9487,2.9639-2.5264c1.1865-.582,2.4727-.8477,3.8594-.7974,1.3867,.0508,2.6035,.4365,3.6514,1.1582,1.0479,.7212,1.8301,1.6074,2.3457,2.6582Zm-2.6006,1.2915c-.4111-.8394-1.0908-1.4629-2.0371-1.8711-1.2881-.5459-2.6016-.4902-3.9404,.1665-1.1777,.5781-1.9766,1.4375-2.3945,2.5781-.418,1.1411-.3838,2.2075,.1025,3.1992,.3994,.8135,1.1709,1.3789,2.3145,1.6953,1.1436,.3174,2.2959,.1909,3.458-.3789,1.1689-.5737,1.9785-1.4097,2.4277-2.5083,.4502-1.0986,.4727-2.0591,.0693-2.8809Z"/><path d="M125.3262,17.6807l5.7822,14.3413,.46-.1855c.6387-.2573,1.1484-.3179,1.5293-.1816,.3809,.1367,.6523,.4067,.8145,.8091,.1592,.394,.1514,.7715-.0244,1.1323-.1748,.3604-.5869,.6714-1.2344,.9326l-3.1523,1.271-.2646-.6567c-.4678,.606-1,1.1357-1.5957,1.5898s-1.252,.8257-1.9697,1.1152c-2.0225,.8149-3.8867,.8872-5.5928,.2163-1.7061-.6714-2.9102-1.8779-3.6123-3.6201-.7344-1.8213-.7129-3.6367,.0645-5.4463,.7764-1.8091,2.0977-3.0898,3.9629-3.8418,.7002-.2822,1.4307-.4521,2.1914-.5093s1.5557-.0039,2.3848,.1602l-1.3496-3.3486-.46,.1851c-.6475,.2612-1.1602,.3228-1.5361,.1846-.377-.1387-.6445-.4048-.8027-.7988-.1631-.4023-.1562-.7842,.0186-1.145,.1758-.3608,.5869-.6714,1.2354-.9326l3.1514-1.271Zm1.9141,12.5112c-.4482-1.1118-1.2168-1.896-2.3066-2.3525-1.0898-.4561-2.2002-.4565-3.3291-.0015-1.1211,.4521-1.915,1.2202-2.3838,2.3047-.4688,1.085-.4844,2.1699-.0469,3.2554,.3994,.9897,1.0762,1.6606,2.0332,2.0127,.9561,.3525,2.0732,.271,3.3516-.2446,1.2695-.5117,2.1309-1.2275,2.584-2.1484,.4541-.9209,.4863-1.8623,.0977-2.8257Z"/><path d="M144.8652,17.1138l2.9482,9.5083c.5859-.1821,1.0586-.1855,1.4199-.0107,.3604,.1753,.6035,.4653,.7295,.8711s.0859,.7812-.1182,1.126c-.2041,.3452-.6396,.6211-1.3076,.8281l-2.6367,.8179-.1973-.6357c-.6816,.6064-1.3555,1.1118-2.0205,1.5161-.666,.4038-1.3232,.7065-1.9717,.9077-.9111,.2822-1.7598,.3354-2.5449,.1592-.7871-.1763-1.4785-.5425-2.0752-1.0986-.4307-.4004-.7598-.9653-.9863-1.6958l-1.8486-5.9644-.4736,.1465c-.667,.207-1.1826,.2261-1.5469,.0571-.3633-.1689-.6094-.4604-.7383-.8755-.126-.4058-.0859-.7812,.1182-1.126,.2041-.3452,.6396-.6211,1.3076-.8281l3.2451-1.0063,2.5586,8.25c.1816,.5864,.457,.9727,.8262,1.1597,.3701,.187,.8477,.1895,1.4336,.0078,.5586-.1733,1.126-.4702,1.7031-.8911,.5752-.4209,1.248-1.0669,2.0156-1.9375l-1.7529-5.6533-1.001,.3105c-.667,.207-1.1826,.2256-1.5459,.0566-.3643-.1689-.6104-.4604-.7393-.8755-.126-.4058-.0859-.7808,.1182-1.126s.6396-.6211,1.3076-.8281l3.7734-1.1699Z"/><path d="M161.8262,13.7412c.2734-.3955,.5898-.6313,.9502-.7075,.4062-.0854,.7725-.0107,1.0967,.2246,.3252,.2354,.5586,.6904,.7002,1.3643l.3867,1.8291c.1436,.6836,.1143,1.1963-.0879,1.5381-.2031,.3418-.5166,.5576-.9414,.6475-.3887,.0815-.7393,.04-1.0547-.125-.2285-.1255-.4531-.4326-.6719-.9219s-.5674-.8135-1.0449-.9731c-.8418-.2856-1.8447-.3057-3.0078-.0601-1.3398,.2827-2.3301,.9023-2.9727,1.8579s-.8369,2.0337-.584,3.2344c.2344,1.1084,.8066,1.9019,1.7178,2.3799,.9121,.4785,2.2676,.5273,4.0693,.147,1.1816-.2495,2.1221-.5732,2.8193-.9712,.4121-.2412,.7793-.582,1.1016-1.0215,.3223-.439,.6445-.6929,.9678-.7612,.3877-.082,.7529-.0093,1.0957,.2173,.3418,.2271,.5537,.5342,.6357,.9224,.1328,.6279-.1709,1.3145-.9111,2.0591-1.0977,1.1094-2.875,1.9238-5.3311,2.4424-2.208,.4658-4.0225,.3716-5.4443-.2837-1.9219-.8774-3.1074-2.3833-3.5576-4.5171-.4277-2.0225-.1064-3.8389,.9619-5.4492,1.0693-1.6099,2.6885-2.644,4.8594-3.1025,.7852-.1655,1.5303-.2456,2.2363-.2402,.7051,.0059,1.375,.0957,2.0107,.2705Z"/><path d="M175.6943,14.1387l.6123,5.7871c.0654,.6196,.2354,1.0146,.5098,1.1851,.4277,.2681,1.1475,.3486,2.1621,.2412,1.4736-.1558,2.8018-.6143,3.9834-1.3755,.4531-.2944,.8154-.4565,1.0879-.4854,.375-.0396,.7168,.0669,1.0234,.3188,.3066,.2524,.4814,.5806,.5244,.9844,.0391,.3755-.0771,.7153-.3486,1.019-.4131,.4902-1.2783,.9922-2.5957,1.5063s-2.4404,.8208-3.3701,.9189c-1.793,.1899-3.1787-.0552-4.1572-.7349s-1.5273-1.583-1.6465-2.7095l-.6719-6.3506-1.042,.1104c-.6943,.0732-1.2041-.0083-1.5273-.2441-.3242-.2363-.5098-.5703-.5547-1.0024-.0449-.4224,.0664-.7832,.334-1.082s.748-.4849,1.4434-.5581l1.042-.1104-.2764-2.605c-.0732-.6948,.0088-1.2041,.2441-1.5283,.2363-.3237,.5703-.5088,1.0029-.5547,.4219-.0444,.7832,.0669,1.082,.3345,.2988,.2671,.4844,.7485,.5576,1.4429l.2764,2.6055,5.3369-.5649c.6943-.0732,1.2041,.0078,1.5273,.2441,.3242,.2363,.5088,.5708,.5547,1.0024,.0449,.4224-.0664,.7832-.334,1.082s-.748,.4849-1.4434,.5581l-5.3369,.5649Z"/><path d="M196.5889,10.2183l-.0518,9.9541,3.4834,.0181c.6982,.0039,1.1963,.1406,1.4922,.4116,.2959,.2705,.4424,.623,.4404,1.0571-.002,.4248-.1523,.771-.4512,1.0381-.2988,.2676-.7979,.3999-1.4961,.396l-9.8701-.0508c-.6982-.0039-1.1953-.1406-1.4912-.4116-.2959-.2705-.4434-.6226-.4404-1.0571,.002-.4248,.1523-.771,.4512-1.0386,.2988-.2671,.7969-.3994,1.4961-.3955l3.4834,.0181,.0361-7.0518-2.3359-.0122c-.6895-.0034-1.1846-.1406-1.4854-.4111s-.4492-.623-.4473-1.0571c.002-.4248,.1523-.771,.4512-1.0386s.7969-.3994,1.4961-.396l5.2393,.0273Zm-.3682-5.5103l-.0156,3.0728-3.4551-.0181,.0156-3.0728,3.4551,.0181Z"/><path d="M220.9258,18.9414c-.1338,1.106-.5713,2.1392-1.3105,3.1001-.7402,.9609-1.7539,1.6748-3.042,2.1406-1.2881,.4663-2.5928,.6196-3.9141,.459-1.3125-.1597-2.5312-.6143-3.6572-1.3643-1.126-.7505-1.9395-1.6836-2.4414-2.8003-.501-1.1167-.6826-2.2417-.5449-3.3755,.1396-1.1528,.5957-2.2456,1.3682-3.2788,.7725-1.0327,1.7939-1.7954,3.0664-2.2876,1.2725-.4917,2.5596-.6587,3.8623-.5005,1.3125,.1592,2.5352,.6387,3.6699,1.437,1.1338,.7988,1.9434,1.7866,2.4287,2.9629,.4844,1.1763,.6562,2.3452,.5146,3.5073Zm-2.8828-.3359c.1123-.9282-.1162-1.8208-.6875-2.6797-.7812-1.1602-1.9121-1.8301-3.3926-2.0103-1.3027-.1582-2.4404,.127-3.4141,.855-.9727,.7285-1.5254,1.6406-1.6582,2.7368-.1094,.8999,.2285,1.7944,1.0146,2.6836,.7852,.8896,1.8203,1.4126,3.1045,1.5684,1.293,.1572,2.4277-.1021,3.4033-.7773s1.5195-1.4678,1.6299-2.3765Z"/><path d="M230.2637,14.1572l-.2354,.9482c.6221-.3125,1.2695-.502,1.9424-.5688,.6738-.0664,1.3721-.0098,2.0957,.1699,1.668,.4131,2.8584,1.2583,3.5732,2.5342,.5654,1.0156,.6816,2.1924,.3496,3.5303l-1.2979,5.2363c.5957,.1475,1.0029,.3872,1.2217,.7188,.2197,.3315,.2773,.708,.1729,1.1294-.1025,.4126-.3301,.7134-.6836,.9028-.3535,.1899-.8691,.2002-1.5469,.0322l-2.543-.6304c-.6777-.1685-1.1289-.4185-1.3525-.7515-.2246-.3325-.2842-.7095-.1797-1.1313,.1025-.4121,.3281-.7139,.6768-.9043,.3486-.1909,.8213-.2124,1.417-.0645l1.3184-5.3188c.1523-.6138,.0986-1.104-.1602-1.4697-.3398-.4731-.9404-.8169-1.8018-1.0303-.6504-.1611-1.2529-.1768-1.8047-.0464-.5527,.1304-1.3066,.5103-2.2598,1.1392l-1.2988,5.2368c.7246,.1792,1.1748,.3638,1.3516,.5537,.3799,.3862,.5049,.8452,.373,1.3765-.1025,.4121-.3301,.7134-.6836,.9028s-.8691,.2002-1.5469,.0322l-3.2021-.7944c-.6787-.168-1.1289-.4185-1.3525-.751-.2246-.333-.2842-.71-.1797-1.1313,.1279-.5132,.4463-.8574,.9561-1.0322,.2539-.083,.7432-.0347,1.4668,.145l1.6973-6.8447c-.5957-.1475-1.002-.3892-1.2207-.7256-.2178-.3359-.2754-.7104-.1738-1.1226,.1025-.4126,.3301-.7134,.6836-.9028,.3535-.1899,.8691-.2007,1.5479-.0322l2.6797,.6646Z"/><path d="M260.3926,36.9268l-2.208,4.2144,1.543,.8086c.6191,.3242,.9971,.6743,1.1357,1.0508s.1074,.7568-.0938,1.1416c-.1973,.376-.4902,.6143-.8789,.7148-.3877,.1001-.8916-.0117-1.5098-.3359l-4.5537-2.3857c-.6191-.3242-.9971-.6743-1.1357-1.0508-.1387-.376-.1094-.7524,.0879-1.1289,.2012-.3843,.498-.626,.8906-.7241s.8945,.0127,1.5049,.3325l.4385,.23,6.085-11.6147-.4385-.23c-.6191-.3242-.9971-.6743-1.1357-1.0508-.1387-.376-.1074-.7563,.0938-1.1411,.1973-.3765,.4902-.6147,.8789-.7148,.3877-.1006,.8916,.0112,1.5098,.3354l3.0107,1.5771-.46,.8784c.8164-.0942,1.5996-.0732,2.3486,.0635,.749,.1362,1.4619,.3823,2.1396,.7373,1.7559,.9199,2.9404,2.2998,3.5537,4.1396s.5166,3.5293-.2891,5.0679c-.8896,1.6978-2.3555,2.7148-4.3965,3.0518-1.7031,.2803-3.3193,.0195-4.8496-.7822-.6611-.3462-1.2627-.7837-1.8057-1.3135s-1.0322-1.1533-1.4658-1.8711Zm9.9395-.4194c.1885-.3594,.2861-.8921,.293-1.5972,.0068-.7046-.1865-1.3979-.5811-2.0786-.3945-.6812-.9893-1.2295-1.7832-1.646-1.2793-.6704-2.5479-.7217-3.8037-.1543-.8564,.3936-1.4443,.8955-1.7646,1.5059-.3584,.6855-.3428,1.5439,.0498,2.5752,.3916,1.0317,1.1279,1.8301,2.2061,2.395,1.0869,.5693,2.1631,.7231,3.2275,.46,1.0654-.2622,1.7842-.749,2.1562-1.46Z"/><path d="M280.5264,50.3013l.3574-.5776c-.8213-.0537-1.6562-.2295-2.5049-.5273-.8477-.2979-1.5771-.6357-2.1865-1.0137-1.3242-.8203-2.1826-1.8374-2.5742-3.0518-.3916-1.2139-.3242-2.2466,.2031-3.0972,.6416-1.0352,1.7646-1.6694,3.3691-1.9023s3.3379,.2271,5.1992,1.3804c.7471,.4624,1.5596,1.0771,2.4395,1.8438l.3652-.5898c.2285-.3687,.2568-.7681,.084-1.1973s-.7051-.9194-1.5957-1.4712c-.7305-.4526-1.7666-.8945-3.1094-1.3267-.498-.1641-.8672-.3208-1.1084-.4697-.3291-.2041-.5342-.4951-.6162-.8735s-.0088-.752,.2197-1.1211c.1289-.209,.2812-.3647,.4561-.4673s.3633-.1553,.5645-.1582,.5713,.0732,1.1084,.228c.7139,.2095,1.4189,.4604,2.1152,.7524,.6963,.2925,1.3008,.5977,1.8145,.916,1.5332,.9497,2.5176,2.0176,2.9541,3.2041s.2988,2.3535-.4111,3.501l-3.1475,5.0801,.4219,.2612c.5938,.3677,.9463,.7441,1.0566,1.1294,.1113,.3853,.0527,.7627-.1758,1.1318-.2236,.3613-.5332,.5776-.9277,.6499s-.8887-.0757-1.4824-.4438l-2.8887-1.7896Zm2.7363-4.4175c-.8672-.8042-1.7188-1.4648-2.5537-1.9819-1.0029-.6216-2.0176-.9106-3.043-.8687-.6426,.0342-1.0645,.2124-1.2627,.5332-.1445,.2329-.1523,.4883-.0254,.7671,.2373,.5132,.7051,.9863,1.4033,1.4189,.5938,.3677,1.3379,.668,2.2324,.8999s1.7588,.3291,2.5928,.2905l.6562-1.0591Z"/><path d="M300.0264,47.5586l-.9863,1.5205c1.499-.0742,2.624-.0425,3.373,.0942,.749,.1372,1.3809,.3726,1.8965,.7065,.792,.5132,1.3701,1.3047,1.7344,2.3735,.25,.7246,.2422,1.293-.0244,1.7051-.2266,.3486-.5381,.5649-.9365,.6499s-.7676,.0171-1.1084-.2036c-.3008-.1953-.5205-.5508-.6582-1.0679-.1377-.5166-.3369-.8599-.5977-1.0293-.3408-.2207-.9883-.3369-1.9434-.3481-.9541-.0112-2.2158,.082-3.7842,.2803l-2.3809,3.6714,3.4697,2.2495c.5859,.3799,.9307,.7637,1.0342,1.1514,.1035,.3872,.0361,.7632-.1992,1.1274-.2314,.3564-.5449,.5669-.9404,.6309-.3965,.064-.8877-.0942-1.4736-.4741l-7.3545-4.7681c-.5859-.3799-.9307-.7637-1.0342-1.1514-.1035-.3872-.0361-.7632,.1992-1.1279,.2314-.3564,.5449-.5664,.9404-.6304,.3965-.064,.8877,.0938,1.4736,.4741l1.4492,.9395,3.8359-5.917-.8789-.5698c-.5859-.3804-.9307-.7642-1.0342-1.1514-.1025-.3877-.0361-.7637,.2002-1.1279,.2305-.3564,.5439-.5669,.9404-.6309,.3955-.064,.8867,.0942,1.4727,.4741l3.3154,2.1494Z"/><path d="M313.5312,59.5698l-3.0254,4.9722c-.3232,.5322-.4277,.9492-.3135,1.251,.1768,.4722,.7012,.9731,1.5713,1.5034,1.2666,.77,2.6006,1.2114,4.002,1.3237,.5391,.0405,.9248,.1318,1.1592,.2744,.3223,.1958,.5293,.4873,.6201,.874,.0898,.3867,.0303,.7539-.1807,1.1006-.1963,.3223-.4951,.522-.8955,.5991-.625,.1387-1.6182,.0127-2.9766-.3779-1.3594-.3906-2.4385-.8286-3.2373-1.314-1.54-.9375-2.4932-1.9731-2.8584-3.1069s-.2539-2.1846,.335-3.1523l3.3193-5.4561-.8945-.5444c-.5977-.3633-.9531-.7368-1.0674-1.1211-.1133-.3848-.0576-.7622,.168-1.1333,.2207-.3628,.5283-.582,.9219-.6572s.8887,.0684,1.4863,.4316l.8945,.5444,1.3613-2.2378c.3633-.5967,.7373-.9521,1.1221-1.0664,.3838-.1143,.7617-.0586,1.1328,.167,.3623,.2207,.582,.5283,.6572,.9219,.0752,.394-.0684,.8896-.4316,1.4863l-1.3613,2.2378,4.585,2.7896c.5967,.3628,.9521,.7368,1.0664,1.1211s.0576,.7622-.168,1.1333c-.2207,.3628-.5273,.582-.9219,.6572-.3936,.0752-.8887-.0688-1.4854-.4316l-4.585-2.7896Z"/><path d="M351.4033,69.0659l-6.0322,14.6987,2.7119,1.1128c.6465,.2651,1.0566,.5786,1.2295,.9404s.1768,.7437,.0117,1.145c-.1611,.3931-.4307,.6577-.8076,.7935-.377,.1362-.8887,.0718-1.5352-.1934l-8.1094-3.3276c-.6465-.2651-1.0557-.5786-1.2285-.9404s-.1768-.7437-.0127-1.1455c.1621-.3931,.4307-.6572,.8086-.7935,.377-.1362,.8887-.0713,1.5352,.1938l2.7119,1.1128,4.5957-11.2007-2.6553-.355c-.4277-.0527-.7373-.1187-.9297-.1978-.3398-.1396-.5791-.396-.7168-.7686-.1387-.373-.126-.7559,.0352-1.1489,.1465-.3579,.3535-.6021,.6211-.7319s.7266-.1538,1.376-.0708l6.3906,.877Z"/><path d="M363.5352,91.6484c-.1621,.5229-.4834,.9023-.9619,1.1392-.4795,.2363-1.043,.2539-1.6924,.0518-.6484-.2017-1.1035-.5361-1.3633-1.0024-.2607-.4668-.3086-.9614-.1465-1.4844,.1631-.5225,.4834-.9023,.9629-1.1387,.4785-.2368,1.043-.2539,1.6914-.0522,.6494,.2021,1.1035,.5361,1.3643,1.0029,.2598,.4663,.3086,.9614,.1455,1.4839Zm2.7969-9.0806c-.1631,.5225-.4844,.9023-.9629,1.1387-.4795,.2368-1.043,.2539-1.6924,.0522-.6484-.2021-1.1035-.5366-1.3633-1.0029-.2607-.4668-.3086-.9609-.1465-1.4839,.1631-.5229,.4834-.9028,.9629-1.1392,.4785-.2363,1.043-.2539,1.6914-.0518,.6494,.2017,1.1035,.5361,1.3643,1.0024,.2598,.4668,.3086,.9614,.1465,1.4844Z"/><path d="M401.71,86.1768l-1.3076,11.2808,1.9404,.2251c.6943,.0806,1.1729,.2715,1.4375,.5732,.2646,.3013,.3721,.668,.3213,1.0991-.0488,.4219-.2363,.7495-.5625,.9824s-.8369,.3096-1.5303,.229l-6.752-.7832c-.6943-.0806-1.1729-.2715-1.4375-.5732-.2646-.3013-.3711-.6675-.3213-1.0991,.0488-.4219,.2363-.7495,.5625-.9824,.3271-.2329,.8369-.3091,1.5312-.2285l1.9268,.2231,1.3086-11.2808-3.123-.3623-.3164,2.729c-.0801,.6938-.2715,1.1729-.5732,1.4375-.3018,.2642-.668,.3716-1.0986,.3213-.4229-.0488-.75-.2363-.9824-.563-.2334-.3262-.3096-.8364-.2295-1.5303l.6533-5.6265,14.9355,1.7466-.6504,5.6123c-.0811,.6943-.2715,1.1733-.5732,1.4375-.3018,.2646-.668,.3716-1.0996,.3218-.4219-.0488-.749-.2368-.9824-.563-.2324-.3267-.3086-.8364-.2285-1.5308l.3164-2.7285-3.165-.3672Z"/><path d="M417.5713,88.7041l-.0566,1.8115c1.2441-.8394,2.2227-1.3945,2.9346-1.665s1.375-.3965,1.9883-.377c.9434,.0293,1.8477,.4072,2.7129,1.1328,.5898,.4907,.876,.9814,.8613,1.4722-.0127,.415-.168,.7622-.4648,1.041s-.6484,.4116-1.0537,.3989c-.3584-.0112-.7305-.2021-1.1152-.5732-.3857-.3706-.7334-.561-1.0449-.5708-.4062-.0127-1.0195,.2231-1.8428,.7075-.8223,.4844-1.8535,1.2168-3.0928,2.1982l-.1367,4.3735,4.1328,.1289c.6982,.022,1.1914,.1719,1.4805,.4502,.2891,.2778,.4258,.6343,.4131,1.0684-.0137,.4243-.1729,.7666-.4785,1.0264-.3057,.2593-.8076,.3784-1.5059,.3564l-8.7607-.2734c-.6982-.022-1.1924-.1719-1.4805-.4502-.2891-.2783-.4268-.6343-.4131-1.0684,.0127-.4243,.1729-.7666,.4785-1.0264,.3057-.2593,.8066-.3784,1.5059-.3564l1.7266,.0537,.2197-7.0483-1.0469-.0327c-.6982-.0215-1.1924-.1719-1.4805-.4497-.2891-.2783-.4268-.6343-.4131-1.0684,.0127-.4248,.1729-.7671,.4785-1.0264,.3047-.2598,.8066-.3789,1.5049-.3569l3.9492,.1235Z"/><path d="M443.9062,96.1255l-11.8965,.5562c.3369,.7402,.9004,1.3237,1.6914,1.7495,.79,.4263,1.8398,.6084,3.1514,.5474,1.0742-.0503,2.4922-.3481,4.2529-.8936,.7266-.2231,1.2314-.3413,1.5146-.3545,.3867-.0181,.7178,.1035,.9951,.3647,.2764,.2612,.4248,.5991,.4443,1.0137,.0176,.3774-.1084,.7046-.3799,.9819-.3604,.3667-1.2646,.7422-2.7109,1.126-1.4473,.3843-2.8447,.6079-4.1934,.6714-2.3193,.1084-4.2051-.4604-5.6572-1.7061-1.4531-1.2456-2.2236-2.8257-2.3135-4.7397-.0947-2.0371,.5791-3.7295,2.0244-5.0776,1.4434-1.3477,3.1465-2.0679,5.1084-2.1597,1.1787-.0552,2.2705,.1021,3.2754,.4707,1.0039,.3691,1.7588,.7822,2.2617,1.2407,.7119,.6665,1.3135,1.5029,1.8047,2.5098,.335,.7026,.5244,1.5254,.5693,2.4683l.0576,1.231Zm-3.3467-2.7495c-.4824-.8091-1.0918-1.4023-1.8271-1.7788-.7354-.377-1.5986-.542-2.5889-.4956-.9805,.0459-1.8203,.2905-2.5176,.7344s-1.2529,1.0913-1.667,1.9419l8.6006-.4019Z"/><path d="M458.3936,99.5366l-.0801-.6748c-.6758,.4697-1.4385,.8525-2.2881,1.1475-.8486,.2954-1.6299,.4854-2.3418,.5698-1.5469,.1831-2.8516-.0786-3.9141-.7842-1.0635-.7061-1.6533-1.5557-1.7705-2.5498-.1436-1.209,.3398-2.4048,1.4502-3.5864,1.1094-1.1816,2.752-1.9019,4.9277-2.1592,.8711-.103,1.8906-.1284,3.0566-.0767l-.082-.689c-.0508-.4312-.2773-.7607-.6807-.9888-.4023-.228-1.124-.2808-2.1641-.1572-.8535,.1006-1.9395,.4004-3.2588,.8989-.4922,.1816-.8779,.2891-1.1592,.3228-.3848,.0454-.7266-.0542-1.0264-.2993-.3008-.2446-.4756-.583-.5273-1.0142-.0283-.2437-.0068-.46,.0664-.6494,.0723-.189,.1865-.3477,.3428-.4756,.1562-.1274,.4922-.2983,1.0088-.5117,.6895-.2812,1.3975-.5239,2.124-.729,.7266-.2046,1.3896-.3428,1.9902-.4136,1.79-.2119,3.2256,.0103,4.3066,.6665,1.0801,.6562,1.7002,1.6548,1.8584,2.9951l.7031,5.9341,.4922-.0581c.6934-.082,1.2041-.0068,1.5303,.2251,.3271,.2324,.5166,.564,.5674,.9951,.0498,.4219-.0566,.7842-.3203,1.0859-.2637,.3022-.7432,.4946-1.4365,.5767l-3.375,.3994Zm-.6104-5.1606c-1.1797-.0884-2.2578-.0752-3.2324,.0405-1.1719,.1387-2.1455,.5439-2.9219,1.2153-.4814,.4277-.7002,.8296-.6562,1.2041,.0322,.272,.1855,.4775,.458,.6162,.5059,.2539,1.166,.3325,1.9814,.2358,.6943-.082,1.4629-.3105,2.3076-.6865,.8438-.3755,1.5811-.8384,2.21-1.3882l-.1465-1.2373Z"/><path d="M471.9971,87.3467l1.0537,5.7236c.1133,.6128,.3125,.9937,.5996,1.1426,.4463,.2344,1.1709,.2593,2.1729,.0747,1.458-.2681,2.7471-.8271,3.8672-1.6763,.4287-.3286,.7783-.5181,1.0469-.5674,.3721-.0684,.7197,.0112,1.0449,.2397,.3252,.228,.5244,.5415,.5986,.9409,.0684,.3711-.0215,.7188-.2695,1.043-.374,.52-1.1982,1.0869-2.4727,1.7007s-2.3701,1.0049-3.2891,1.1743c-1.7734,.3267-3.1738,.1885-4.2021-.4141-1.0273-.603-1.6436-1.4614-1.8486-2.5752l-1.1562-6.2808-1.0312,.1895c-.6865,.127-1.2012,.0845-1.542-.126-.3408-.2109-.5508-.5298-.6299-.957-.0771-.4175,.0068-.7856,.25-1.104,.2441-.3188,.709-.541,1.3965-.6675l1.0303-.1899-.4736-2.5762c-.127-.687-.085-1.2012,.126-1.5425s.5293-.5508,.957-.6294c.418-.0771,.7852,.0063,1.1045,.25,.3184,.2437,.54,.709,.667,1.396l.4746,2.5767,5.2773-.9722c.6875-.1265,1.2012-.084,1.543,.1265,.3408,.2109,.5508,.5298,.6289,.957,.0771,.4175-.0059,.7856-.25,1.104-.2432,.3184-.709,.541-1.3955,.6675l-5.2783,.9717Z"/><path d="M485.5352,81.624l.1953,.7974c.3486-.561,.6875-.9722,1.0176-1.2329,.3301-.2603,.7373-.4502,1.2236-.5688,.4121-.1011,.8447-.1001,1.2979,.0029s.9209,.3091,1.4053,.6182c.3867-.522,.8066-.9429,1.2578-1.2627,.4521-.3193,.9385-.543,1.4619-.6709,1.0449-.2559,1.9619-.1836,2.749,.2163,1.042,.5229,1.708,1.3804,2,2.5723l1.5449,6.313c.5869-.1436,1.0547-.1172,1.4043,.0791,.3496,.1968,.5742,.501,.6758,.9136,.1006,.4126,.041,.7847-.1797,1.1152-.2197,.3311-.6699,.5796-1.3477,.7456l-2.6826,.6562-2.1777-8.8989c-.1055-.4312-.2559-.71-.4521-.8369s-.4551-.1514-.7754-.0728c-.3125,.0762-.5811,.2295-.8066,.4595-.2832,.3125-.5898,.8442-.9209,1.5962l1.3896,5.6802c.5869-.1436,1.0547-.1167,1.4043,.0791,.3496,.1968,.5742,.501,.6758,.9136,.1006,.4126,.041,.7847-.1797,1.1152-.2197,.3311-.6699,.5796-1.3477,.7456l-2.6826,.6562-2.1777-8.8989c-.1025-.4219-.2559-.6978-.457-.8286-.2021-.1299-.4639-.1562-.7852-.0776-.3301,.0811-.6299,.2637-.9004,.5483-.2705,.2852-.5557,.79-.8545,1.5142l1.3906,5.6802c.5859-.1436,1.0566-.1177,1.4111,.0776,.3535,.1953,.5811,.499,.6816,.9116,.1016,.4126,.0391,.7852-.1855,1.1172s-.6768,.5811-1.3555,.7471l-2.5439,.6226c-.6787,.166-1.1943,.1538-1.5469-.0371-.3535-.1904-.5811-.4966-.6846-.9185-.1006-.4126-.041-.7847,.1787-1.1152,.2207-.3311,.6289-.5693,1.2246-.7153l-1.6758-6.8496c-.5957,.146-1.0684,.1211-1.418-.0757-.3496-.1963-.5742-.501-.6758-.9136-.1006-.4126-.0391-.7847,.1865-1.1167,.2246-.332,.6758-.5811,1.3545-.7471l2.6826-.6562Z"/><path d="M516.6338,81.2529l-11.4043,3.4282c.5068,.6367,1.1953,1.0654,2.0654,1.2866,.8691,.2217,1.9326,.1436,3.1895-.2344,1.0303-.3101,2.334-.9429,3.9092-1.8999,.6504-.3926,1.1123-.6299,1.3828-.7114,.3711-.1113,.7217-.0737,1.0537,.1123s.5586,.478,.6777,.8755c.1084,.3618,.0654,.71-.1299,1.0444-.2607,.4434-1.0469,1.0269-2.3564,1.751-1.3105,.7241-2.6123,1.2808-3.9043,1.6694-2.2246,.6685-4.1924,.5747-5.9033-.2808-1.7109-.856-2.8428-2.2012-3.3945-4.0366-.5869-1.9526-.3438-3.7583,.7305-5.417,1.0732-1.6582,2.5508-2.77,4.4307-3.3354,1.1299-.3398,2.2275-.4526,3.292-.3389,1.0635,.1138,1.8965,.332,2.4961,.6543,.8516,.4736,1.6377,1.1392,2.3594,1.9966,.4961,.6001,.8799,1.3521,1.1514,2.2559l.3545,1.1802Zm-3.9141-1.8545c-.6641-.668-1.3984-1.0952-2.2041-1.2822-.8047-.1865-1.6826-.1372-2.6318,.1484-.9395,.2827-1.6943,.7236-2.2627,1.3232-.5693,.6001-.9512,1.3633-1.1455,2.2891l8.2441-2.4785Z"/><path d="M521.8428,71.1279l.3252,.9214c.3477-.603,.7842-1.1172,1.3105-1.5425,.5254-.4258,1.1396-.7622,1.8428-1.0103,1.6211-.5708,3.0801-.5195,4.3789,.1538,1.0303,.5376,1.7744,1.4565,2.2324,2.7563l1.793,5.0884c.5781-.2036,1.0508-.2275,1.416-.0713,.3652,.1567,.6201,.4399,.7646,.8491,.1416,.4009,.1162,.7773-.0742,1.1299-.1914,.3525-.6162,.645-1.2754,.8774l-2.4707,.8706c-.6592,.2319-1.1729,.2705-1.543,.1157s-.627-.437-.7715-.8467c-.1406-.4009-.1182-.7764,.0684-1.1274s.5693-.6284,1.1475-.8325l-1.8213-5.1685c-.21-.5962-.5234-.9761-.9414-1.1392-.5439-.2085-1.2344-.1655-2.0713,.1294-.6328,.2227-1.1436,.5405-1.5332,.9531-.3906,.4126-.8115,1.144-1.2617,2.1934l1.793,5.0884c.7031-.2476,1.1807-.3408,1.4326-.2798,.5303,.1138,.8867,.4287,1.0684,.9448,.1416,.4004,.1172,.7773-.0742,1.1299s-.6162,.645-1.2754,.877l-3.1113,1.0967c-.6592,.2324-1.1729,.271-1.543,.1157-.3701-.1548-.627-.437-.7715-.8467-.1758-.4985-.0986-.9609,.2314-1.3877,.167-.209,.6016-.437,1.3057-.6851l-2.3438-6.6509c-.5791,.2041-1.0518,.2256-1.4189,.0645-.3672-.1606-.6211-.4419-.7627-.8423-.1406-.4009-.1162-.7773,.0752-1.1299s.6162-.645,1.2744-.877l2.6045-.918Z"/><path d="M541.8799,66.7681l2.1621,5.4028c.2314,.5786,.502,.9126,.8125,1.002,.4834,.1421,1.1992,.0234,2.1455-.3555,1.376-.5503,2.5293-1.3525,3.46-2.4062,.3555-.4067,.6602-.6611,.915-.7627,.3506-.1401,.708-.1309,1.0713,.0288s.6211,.4277,.7715,.8042c.1406,.3511,.1211,.7095-.0576,1.0757-.2646,.584-.9609,1.3022-2.0889,2.1553s-2.125,1.4531-2.9932,1.8003c-1.6738,.6699-3.0742,.8105-4.2002,.4224-1.127-.3877-1.9004-1.1079-2.3213-2.1597l-2.3721-5.9292-.9727,.3896c-.6494,.2593-1.1611,.3193-1.5371,.1802s-.6445-.4106-.8066-.814c-.1572-.394-.1484-.7715,.0283-1.1318,.1758-.3604,.5879-.6699,1.2363-.9297l.9727-.3892-.9727-2.4321c-.2598-.6484-.3203-1.1611-.1807-1.5371s.4102-.6445,.8135-.8062c.3945-.1577,.7725-.1484,1.1328,.0278,.3594,.1758,.6699,.5884,.9297,1.2368l.9727,2.4321,4.9824-1.9937c.6484-.2598,1.1611-.3198,1.5371-.1807,.376,.1396,.6445,.4106,.8057,.814,.1582,.3945,.1494,.7715-.0273,1.1318-.1758,.3604-.5879,.6704-1.2363,.9297l-4.9824,1.9941Z"/></g><g><path d="M778.3799,103.9492l2.0205,2.2007,2.1592-1.9829c.5146-.4722,.9727-.71,1.373-.7129,.4014-.0034,.749,.1553,1.042,.4751,.2881,.313,.4131,.6689,.376,1.0684s-.3125,.835-.8271,1.3076l-4.6309,4.2524c-.5146,.4727-.9727,.7104-1.373,.7134-.4014,.0029-.748-.1553-1.042-.4751-.2881-.313-.4111-.6704-.3701-1.0732,.04-.4023,.3145-.8364,.8213-1.3027l.334-.3066-7.6816-8.3643-.334,.3066c-.5146,.4727-.9717,.71-1.373,.7134-.4004,.0029-.748-.1558-1.042-.4756s-.4219-.6792-.3848-1.0786,.3125-.835,.8271-1.3076l4.9326-4.5107c1.4453-1.3276,2.9541-1.9854,4.5234-1.9722,1.5693,.0137,2.874,.5869,3.915,1.7202,.5752,.6255,.9746,1.3477,1.2012,2.1655,.167,.6152,.1855,1.3574,.0557,2.2271-.1309,.8701-.3643,1.6484-.7012,2.3354-.3369,.6875-.9355,1.4268-1.7979,2.2188l-2.0234,1.8579Zm-1.9639-2.1382l1.9814-1.8198c.9316-.8555,1.4775-1.7441,1.6367-2.666,.1602-.9219-.0312-1.6782-.5742-2.2695-.46-.5005-1.083-.7358-1.8691-.7056-.7871,.0298-1.5898,.4219-2.4102,1.1748l-2.4619,2.2607,3.6973,4.0254Z"/><path d="M788.25,85.8188l1.1787,1.3765c.3535-1.459,.7021-2.5283,1.0459-3.2085,.3438-.6797,.748-1.2192,1.2139-1.6187,.7168-.6143,1.6396-.9448,2.7676-.9917,.7666-.0347,1.3096,.1343,1.6289,.5068,.2695,.3154,.3896,.6763,.3584,1.082-.0312,.4062-.2012,.7412-.5098,1.0054-.2725,.2334-.6758,.3428-1.21,.3286-.5342-.0146-.9199,.0796-1.1562,.2822-.3086,.2642-.6035,.8525-.8848,1.7646-.2812,.9126-.5488,2.1489-.8027,3.709l2.8477,3.3228,3.1396-2.6904c.5303-.4546,.9961-.6768,1.3965-.666,.4014,.0107,.7432,.1812,1.0254,.5107,.2764,.3228,.3887,.6831,.3379,1.0806-.0498,.3979-.3408,.8242-.8711,1.2788l-6.6562,5.7036c-.5303,.4546-.9951,.6763-1.3965,.6655-.4004-.0107-.7422-.1812-1.0254-.5107-.2764-.3228-.3887-.6826-.3379-1.0806s.3408-.8237,.8711-1.2783l1.3115-1.1245-4.5879-5.3545-.7959,.6821c-.5303,.4546-.9961,.6763-1.3975,.6655-.4004-.0107-.7422-.1812-1.0244-.5107-.2764-.3228-.3896-.6831-.3389-1.0806,.0508-.3979,.3408-.8237,.8721-1.2788l3-2.5708Z"/><path d="M813.6094,75.3218l-9.3359,7.3926c.7051,.4048,1.5029,.5493,2.3936,.4341,.8906-.1147,1.8496-.5796,2.8789-1.394,.8438-.668,1.8213-1.7373,2.9326-3.2075,.46-.605,.8008-.9956,1.0234-1.1714,.3027-.2402,.6436-.335,1.0205-.2842,.377,.0503,.6953,.2383,.9531,.564,.2344,.2964,.3223,.6357,.2646,1.0186-.0791,.5083-.5947,1.3408-1.5459,2.4971-.9502,1.1562-1.9551,2.1533-3.0137,2.9912-1.8203,1.4414-3.6836,2.0801-5.5898,1.916-1.9062-.1646-3.4541-.998-4.6436-2.5005-1.2656-1.5986-1.7061-3.3662-1.3193-5.3042,.3867-1.9375,1.3496-3.5156,2.8887-4.7344,.9248-.7324,1.9033-1.2422,2.9346-1.5288s1.8848-.3911,2.5615-.3125c.9668,.126,1.9434,.4546,2.9297,.9854,.6816,.3755,1.3164,.9326,1.9023,1.6729l.7646,.9658Zm-4.3223-.2803c-.8633-.376-1.7041-.502-2.5215-.3789-.8174,.1235-1.6143,.4927-2.3916,1.1079-.7695,.6099-1.3086,1.2983-1.6152,2.0654-.3076,.7671-.3818,1.6172-.2207,2.5498l6.749-5.3442Z"/><path d="M826.1875,63.709l-9.8232,7.1011-1.5518-2.146,9.8232-7.1011,1.5518,2.146Z"/><path d="M836.209,63.3359l2.5928,3.9888,1.46-.9492c.5859-.3804,1.0771-.5391,1.4727-.4756,.3965,.0635,.7119,.2773,.9492,.6411,.2314,.3564,.2959,.7285,.1934,1.1157-.1035,.3877-.4473,.772-1.0332,1.1528l-4.3096,2.8013c-.5859,.3809-1.0762,.5396-1.4727,.4761-.3955-.064-.709-.2734-.9404-.6299-.2373-.3643-.3018-.7412-.1953-1.1313s.4482-.7729,1.0264-1.1484l.416-.2705-7.1465-10.9937-.416,.27c-.585,.3809-1.0762,.5396-1.4717,.4761-.3965-.0635-.7129-.2773-.9492-.6416-.2314-.356-.2959-.728-.1934-1.1157s.4473-.7715,1.0322-1.1523l2.8496-1.8521,.54,.8311c.3184-.7583,.7197-1.4307,1.2061-2.0166,.4854-.5864,1.0498-1.0879,1.6904-1.5044,1.6621-1.0806,3.4453-1.4375,5.3506-1.0708,1.9043,.3662,3.3301,1.2778,4.2764,2.7339,1.0449,1.6069,1.2139,3.3828,.5078,5.3276-.5898,1.6221-1.6094,2.9038-3.0576,3.8452-.625,.4062-1.3018,.7168-2.0293,.9307-.7275,.2144-1.5107,.335-2.3486,.3618Zm4.502-8.8716c-.2217-.3398-.6377-.686-1.249-1.0376-.6113-.3511-1.3105-.5215-2.0977-.5112-.7861,.0107-1.5557,.2603-2.3076,.749-1.2109,.7871-1.877,1.8672-1.998,3.2407-.0762,.939,.0732,1.6973,.4492,2.2754,.4219,.6489,1.1777,1.0552,2.2695,1.2183,1.0908,.1631,2.1475-.0869,3.168-.751,1.0293-.6685,1.6904-1.5312,1.9824-2.5889,.293-1.0566,.2197-1.9219-.2168-2.5947Z"/><path d="M848.4824,42.5039l.9004,1.5728c.6211-1.3667,1.1631-2.3521,1.6279-2.9556s.9639-1.0576,1.4961-1.3628c.8193-.4688,1.7871-.6211,2.9043-.4561,.7588,.1099,1.2607,.3774,1.5049,.8032,.2061,.3604,.2559,.7373,.1494,1.1299-.1074,.3931-.3369,.6904-.6885,.8921-.3115,.1782-.7285,.2104-1.251,.0962-.5215-.1143-.918-.0942-1.1885,.0605-.3525,.2021-.752,.7246-1.1992,1.5679-.4473,.8438-.9414,2.0083-1.4834,3.4932l2.1748,3.7969,3.5879-2.0547c.6064-.3472,1.1055-.478,1.4971-.3926,.3916,.0859,.6953,.3174,.9111,.6938,.2109,.3687,.2549,.7437,.1299,1.125-.124,.3813-.4893,.7456-1.0957,1.0928l-7.6055,4.356c-.6064,.3472-1.1055,.478-1.4971,.3921-.3916-.0854-.6953-.3169-.9111-.6938-.2119-.3687-.2549-.7432-.1309-1.1245,.125-.3813,.4902-.7456,1.0957-1.0928l1.499-.8584-3.5039-6.1191-.9092,.5205c-.6064,.3472-1.1055,.478-1.4971,.3921-.3916-.0854-.6953-.3169-.9111-.6934-.2119-.3687-.2549-.7437-.1309-1.125,.125-.3813,.4902-.7456,1.0957-1.0928l3.4287-1.9634Z"/><path d="M875.2354,36.0835c.4902,1,.6875,2.105,.5918,3.3135-.0957,1.209-.5557,2.3604-1.3809,3.4536s-1.8359,1.9336-3.0303,2.5195c-1.1865,.5825-2.457,.8662-3.8096,.8516-1.3535-.0142-2.5439-.3525-3.5732-1.0151-1.0293-.6621-1.7959-1.5059-2.2988-2.5312-.5117-1.0425-.7256-2.207-.6416-3.4941,.083-1.2871,.5244-2.4839,1.3223-3.5903s1.7852-1.9487,2.9639-2.5264c1.1865-.582,2.4727-.8477,3.8594-.7974,1.3867,.0508,2.6035,.4365,3.6514,1.1582,1.0479,.7212,1.8301,1.6074,2.3457,2.6582Zm-2.6006,1.2915c-.4111-.8394-1.0908-1.4629-2.0371-1.8711-1.2881-.5459-2.6016-.4902-3.9404,.1665-1.1777,.5781-1.9766,1.4375-2.3945,2.5781-.418,1.1411-.3838,2.2075,.1025,3.1992,.3994,.8135,1.1709,1.3789,2.3145,1.6953,1.1436,.3174,2.2959,.1909,3.458-.3789,1.1689-.5737,1.9785-1.4097,2.4277-2.5083,.4502-1.0986,.4727-2.0591,.0693-2.8809Z"/><path d="M886.7979,18.1494l5.7822,14.3413,.46-.1855c.6387-.2573,1.1484-.3179,1.5293-.1816,.3809,.1367,.6523,.4067,.8145,.8091,.1592,.394,.1514,.7715-.0244,1.1323-.1748,.3604-.5869,.6714-1.2344,.9326l-3.1523,1.271-.2646-.6567c-.4678,.606-1,1.1357-1.5957,1.5898s-1.252,.8257-1.9697,1.1152c-2.0225,.8149-3.8867,.8872-5.5928,.2163-1.7061-.6714-2.9102-1.8779-3.6123-3.6201-.7344-1.8213-.7129-3.6367,.0645-5.4463,.7764-1.8091,2.0977-3.0898,3.9629-3.8418,.7002-.2822,1.4307-.4521,2.1914-.5093s1.5557-.0039,2.3848,.1602l-1.3496-3.3486-.46,.1851c-.6475,.2612-1.1602,.3228-1.5361,.1846-.377-.1387-.6445-.4048-.8027-.7988-.1631-.4023-.1562-.7842,.0186-1.145,.1758-.3608,.5869-.6714,1.2354-.9326l3.1514-1.271Zm1.9141,12.5112c-.4482-1.1118-1.2168-1.896-2.3066-2.3525-1.0898-.4561-2.2002-.4565-3.3291-.0015-1.1211,.4521-1.915,1.2202-2.3838,2.3047-.4688,1.085-.4844,2.1699-.0469,3.2554,.3994,.9897,1.0762,1.6606,2.0332,2.0127,.9561,.3525,2.0732,.271,3.3516-.2446,1.2695-.5117,2.1309-1.2275,2.584-2.1484,.4541-.9209,.4863-1.8623,.0977-2.8257Z"/><path d="M906.3369,17.5825l2.9482,9.5083c.5859-.1821,1.0586-.1855,1.4199-.0107,.3604,.1753,.6035,.4653,.7295,.8711s.0859,.7812-.1182,1.126c-.2041,.3452-.6396,.6211-1.3076,.8281l-2.6367,.8179-.1973-.6357c-.6816,.6064-1.3555,1.1118-2.0205,1.5161-.666,.4038-1.3232,.7065-1.9717,.9077-.9111,.2822-1.7598,.3354-2.5449,.1592-.7871-.1763-1.4785-.5425-2.0752-1.0986-.4307-.4004-.7598-.9653-.9863-1.6958l-1.8486-5.9644-.4736,.1465c-.667,.207-1.1826,.2261-1.5469,.0571-.3633-.1689-.6094-.4604-.7383-.8755-.126-.4058-.0859-.7812,.1182-1.126,.2041-.3452,.6396-.6211,1.3076-.8281l3.2451-1.0063,2.5586,8.25c.1816,.5864,.457,.9727,.8262,1.1597,.3701,.187,.8477,.1895,1.4336,.0078,.5586-.1733,1.126-.4702,1.7031-.8911,.5752-.4209,1.248-1.0669,2.0156-1.9375l-1.7529-5.6533-1.001,.3105c-.667,.207-1.1826,.2256-1.5459,.0566-.3643-.1689-.6104-.4604-.7393-.8755-.126-.4058-.0859-.7808,.1182-1.126s.6396-.6211,1.3076-.8281l3.7734-1.1699Z"/><path d="M923.2979,14.21c.2734-.3955,.5898-.6313,.9502-.7075,.4062-.0854,.7725-.0107,1.0967,.2246,.3252,.2354,.5586,.6904,.7002,1.3643l.3867,1.8291c.1436,.6836,.1143,1.1963-.0879,1.5381-.2031,.3418-.5166,.5576-.9414,.6475-.3887,.0815-.7393,.04-1.0547-.125-.2285-.1255-.4531-.4326-.6719-.9219s-.5674-.8135-1.0449-.9731c-.8418-.2856-1.8447-.3057-3.0078-.0601-1.3398,.2827-2.3301,.9023-2.9727,1.8579s-.8369,2.0337-.584,3.2344c.2344,1.1084,.8066,1.9019,1.7178,2.3799,.9121,.4785,2.2676,.5273,4.0693,.147,1.1816-.2495,2.1221-.5732,2.8193-.9712,.4121-.2412,.7793-.582,1.1016-1.0215,.3223-.439,.6445-.6929,.9678-.7612,.3877-.082,.7529-.0093,1.0957,.2173,.3418,.2271,.5537,.5342,.6357,.9224,.1328,.6279-.1709,1.3145-.9111,2.0591-1.0977,1.1094-2.875,1.9238-5.3311,2.4424-2.208,.4658-4.0225,.3716-5.4443-.2837-1.9219-.8774-3.1074-2.3833-3.5576-4.5171-.4277-2.0225-.1064-3.8389,.9619-5.4492,1.0693-1.6099,2.6885-2.644,4.8594-3.1025,.7852-.1655,1.5303-.2456,2.2363-.2402,.7051,.0059,1.375,.0957,2.0107,.2705Z"/><path d="M937.166,14.6074l.6123,5.7871c.0654,.6196,.2354,1.0146,.5098,1.1851,.4277,.2681,1.1475,.3486,2.1621,.2412,1.4736-.1558,2.8018-.6143,3.9834-1.3755,.4531-.2944,.8154-.4565,1.0879-.4854,.375-.0396,.7168,.0669,1.0234,.3188,.3066,.2524,.4814,.5806,.5244,.9844,.0391,.3755-.0771,.7153-.3486,1.019-.4131,.4902-1.2783,.9922-2.5957,1.5063s-2.4404,.8208-3.3701,.9189c-1.793,.1899-3.1787-.0552-4.1572-.7349s-1.5273-1.583-1.6465-2.7095l-.6719-6.3506-1.042,.1104c-.6943,.0732-1.2041-.0083-1.5273-.2441-.3242-.2363-.5098-.5703-.5547-1.0024-.0449-.4224,.0664-.7832,.334-1.082s.748-.4849,1.4434-.5581l1.042-.1104-.2764-2.605c-.0732-.6948,.0088-1.2041,.2441-1.5283,.2363-.3237,.5703-.5088,1.0029-.5547,.4219-.0444,.7832,.0669,1.082,.3345,.2988,.2671,.4844,.7485,.5576,1.4429l.2764,2.6055,5.3369-.5649c.6943-.0732,1.2041,.0078,1.5273,.2441,.3242,.2363,.5088,.5708,.5547,1.0024,.0449,.4224-.0664,.7832-.334,1.082s-.748,.4849-1.4434,.5581l-5.3369,.5649Z"/><path d="M958.0605,10.687l-.0518,9.9541,3.4834,.0181c.6982,.0039,1.1963,.1406,1.4922,.4116,.2959,.2705,.4424,.623,.4404,1.0571-.002,.4248-.1523,.771-.4512,1.0381-.2988,.2676-.7979,.3999-1.4961,.396l-9.8701-.0508c-.6982-.0039-1.1953-.1406-1.4912-.4116-.2959-.2705-.4434-.6226-.4404-1.0571,.002-.4248,.1523-.771,.4512-1.0386,.2988-.2671,.7969-.3994,1.4961-.3955l3.4834,.0181,.0361-7.0518-2.3359-.0122c-.6895-.0034-1.1846-.1406-1.4854-.4111s-.4492-.623-.4473-1.0571c.002-.4248,.1523-.771,.4512-1.0386s.7969-.3994,1.4961-.396l5.2393,.0273Zm-.3682-5.5103l-.0156,3.0728-3.4551-.0181,.0156-3.0728,3.4551,.0181Z"/><path d="M982.3975,19.4102c-.1338,1.106-.5713,2.1392-1.3105,3.1001-.7402,.9609-1.7539,1.6748-3.042,2.1406-1.2881,.4663-2.5928,.6196-3.9141,.459-1.3125-.1597-2.5312-.6143-3.6572-1.3643-1.126-.7505-1.9395-1.6836-2.4414-2.8003-.501-1.1167-.6826-2.2417-.5449-3.3755,.1396-1.1528,.5957-2.2456,1.3682-3.2788,.7725-1.0327,1.7939-1.7954,3.0664-2.2876,1.2725-.4917,2.5596-.6587,3.8623-.5005,1.3125,.1592,2.5352,.6387,3.6699,1.437,1.1338,.7988,1.9434,1.7866,2.4287,2.9629,.4844,1.1763,.6562,2.3452,.5146,3.5073Zm-2.8828-.3359c.1123-.9282-.1162-1.8208-.6875-2.6797-.7812-1.1602-1.9121-1.8301-3.3926-2.0103-1.3027-.1582-2.4404,.127-3.4141,.855-.9727,.7285-1.5254,1.6406-1.6582,2.7368-.1094,.8999,.2285,1.7944,1.0146,2.6836,.7852,.8896,1.8203,1.4126,3.1045,1.5684,1.293,.1572,2.4277-.1021,3.4033-.7773s1.5195-1.4678,1.6299-2.3765Z"/><path d="M991.7354,14.626l-.2354,.9482c.6221-.3125,1.2695-.502,1.9424-.5688,.6738-.0664,1.3721-.0098,2.0957,.1699,1.668,.4131,2.8584,1.2583,3.5732,2.5342,.5654,1.0156,.6816,2.1924,.3496,3.5303l-1.2979,5.2363c.5957,.1475,1.0029,.3872,1.2217,.7188,.2197,.3315,.2773,.708,.1729,1.1294-.1025,.4126-.3301,.7134-.6836,.9028-.3535,.1899-.8691,.2002-1.5469,.0322l-2.543-.6304c-.6777-.1685-1.1289-.4185-1.3525-.7515-.2246-.3325-.2842-.7095-.1797-1.1313,.1025-.4121,.3281-.7139,.6768-.9043,.3486-.1909,.8213-.2124,1.417-.0645l1.3184-5.3188c.1523-.6138,.0986-1.104-.1602-1.4697-.3398-.4731-.9404-.8169-1.8018-1.0303-.6504-.1611-1.2529-.1768-1.8047-.0464-.5527,.1304-1.3066,.5103-2.2598,1.1392l-1.2988,5.2368c.7246,.1792,1.1748,.3638,1.3516,.5537,.3799,.3862,.5049,.8452,.373,1.3765-.1025,.4121-.3301,.7134-.6836,.9028s-.8691,.2002-1.5469,.0322l-3.2021-.7944c-.6787-.168-1.1289-.4185-1.3525-.751-.2246-.333-.2842-.71-.1797-1.1313,.1279-.5132,.4463-.8574,.9561-1.0322,.2539-.083,.7432-.0347,1.4668,.145l1.6973-6.8447c-.5957-.1475-1.002-.3892-1.2207-.7256-.2178-.3359-.2754-.7104-.1738-1.1226,.1025-.4126,.3301-.7134,.6836-.9028,.3535-.1899,.8691-.2007,1.5479-.0322l2.6797,.6646Z"/><path d="M1021.8643,37.3955l-2.208,4.2144,1.543,.8086c.6191,.3242,.9971,.6743,1.1357,1.0508s.1074,.7568-.0938,1.1416c-.1973,.376-.4902,.6143-.8789,.7148-.3877,.1001-.8916-.0117-1.5098-.3359l-4.5537-2.3857c-.6191-.3242-.9971-.6743-1.1357-1.0508-.1387-.376-.1094-.7524,.0879-1.1289,.2012-.3843,.498-.626,.8906-.7241s.8945,.0127,1.5049,.3325l.4385,.23,6.085-11.6147-.4385-.23c-.6191-.3242-.9971-.6743-1.1357-1.0508-.1387-.376-.1074-.7563,.0938-1.1411,.1973-.3765,.4902-.6147,.8789-.7148,.3877-.1006,.8916,.0112,1.5098,.3354l3.0107,1.5771-.46,.8784c.8164-.0942,1.5996-.0732,2.3486,.0635,.749,.1362,1.4619,.3823,2.1396,.7373,1.7559,.9199,2.9404,2.2998,3.5537,4.1396s.5166,3.5293-.2891,5.0679c-.8896,1.6978-2.3555,2.7148-4.3965,3.0518-1.7031,.2803-3.3193,.0195-4.8496-.7822-.6611-.3462-1.2627-.7837-1.8057-1.3135s-1.0322-1.1533-1.4658-1.8711Zm9.9395-.4194c.1885-.3594,.2861-.8921,.293-1.5972,.0068-.7046-.1865-1.3979-.5811-2.0786-.3945-.6812-.9893-1.2295-1.7832-1.646-1.2793-.6704-2.5479-.7217-3.8037-.1543-.8564,.3936-1.4443,.8955-1.7646,1.5059-.3584,.6855-.3428,1.5439,.0498,2.5752,.3916,1.0317,1.1279,1.8301,2.2061,2.395,1.0869,.5693,2.1631,.7231,3.2275,.46,1.0654-.2622,1.7842-.749,2.1562-1.46Z"/><path d="M1041.998,50.77l.3574-.5776c-.8213-.0537-1.6562-.2295-2.5049-.5273-.8477-.2979-1.5771-.6357-2.1865-1.0137-1.3242-.8203-2.1826-1.8374-2.5742-3.0518-.3916-1.2139-.3242-2.2466,.2031-3.0972,.6416-1.0352,1.7646-1.6694,3.3691-1.9023s3.3379,.2271,5.1992,1.3804c.7471,.4624,1.5596,1.0771,2.4395,1.8438l.3652-.5898c.2285-.3687,.2568-.7681,.084-1.1973s-.7051-.9194-1.5957-1.4712c-.7305-.4526-1.7666-.8945-3.1094-1.3267-.498-.1641-.8672-.3208-1.1084-.4697-.3291-.2041-.5342-.4951-.6162-.8735s-.0088-.752,.2197-1.1211c.1289-.209,.2812-.3647,.4561-.4673s.3633-.1553,.5645-.1582,.5713,.0732,1.1084,.228c.7139,.2095,1.4189,.4604,2.1152,.7524,.6963,.2925,1.3008,.5977,1.8145,.916,1.5332,.9497,2.5176,2.0176,2.9541,3.2041s.2988,2.3535-.4111,3.501l-3.1475,5.0801,.4219,.2612c.5938,.3677,.9463,.7441,1.0566,1.1294,.1113,.3853,.0527,.7627-.1758,1.1318-.2236,.3613-.5332,.5776-.9277,.6499s-.8887-.0757-1.4824-.4438l-2.8887-1.7896Zm2.7363-4.4175c-.8672-.8042-1.7188-1.4648-2.5537-1.9819-1.0029-.6216-2.0176-.9106-3.043-.8687-.6426,.0342-1.0645,.2124-1.2627,.5332-.1445,.2329-.1523,.4883-.0254,.7671,.2373,.5132,.7051,.9863,1.4033,1.4189,.5938,.3677,1.3379,.668,2.2324,.8999s1.7588,.3291,2.5928,.2905l.6562-1.0591Z"/><path d="M1061.498,48.0273l-.9863,1.5205c1.499-.0742,2.624-.0425,3.373,.0942,.749,.1372,1.3809,.3726,1.8965,.7065,.792,.5132,1.3701,1.3047,1.7344,2.3735,.25,.7246,.2422,1.293-.0244,1.7051-.2266,.3486-.5381,.5649-.9365,.6499s-.7676,.0171-1.1084-.2036c-.3008-.1953-.5205-.5508-.6582-1.0679-.1377-.5166-.3369-.8599-.5977-1.0293-.3408-.2207-.9883-.3369-1.9434-.3481-.9541-.0112-2.2158,.082-3.7842,.2803l-2.3809,3.6714,3.4697,2.2495c.5859,.3799,.9307,.7637,1.0342,1.1514,.1035,.3872,.0361,.7632-.1992,1.1274-.2314,.3564-.5449,.5669-.9404,.6309-.3965,.064-.8877-.0942-1.4736-.4741l-7.3545-4.7681c-.5859-.3799-.9307-.7637-1.0342-1.1514-.1035-.3872-.0361-.7632,.1992-1.1279,.2314-.3564,.5449-.5664,.9404-.6304,.3965-.064,.8877,.0938,1.4736,.4741l1.4492,.9395,3.8359-5.917-.8789-.5698c-.5859-.3804-.9307-.7642-1.0342-1.1514-.1025-.3877-.0361-.7637,.2002-1.1279,.2305-.3564,.5439-.5669,.9404-.6309,.3955-.064,.8867,.0942,1.4727,.4741l3.3154,2.1494Z"/><path d="M1075.0029,60.0386l-3.0254,4.9722c-.3232,.5322-.4277,.9492-.3135,1.251,.1768,.4722,.7012,.9731,1.5713,1.5034,1.2666,.77,2.6006,1.2114,4.002,1.3237,.5391,.0405,.9248,.1318,1.1592,.2744,.3223,.1958,.5293,.4873,.6201,.874,.0898,.3867,.0303,.7539-.1807,1.1006-.1963,.3223-.4951,.522-.8955,.5991-.625,.1387-1.6182,.0127-2.9766-.3779-1.3594-.3906-2.4385-.8286-3.2373-1.314-1.54-.9375-2.4932-1.9731-2.8584-3.1069s-.2539-2.1846,.335-3.1523l3.3193-5.4561-.8945-.5444c-.5977-.3633-.9531-.7368-1.0674-1.1211-.1133-.3848-.0576-.7622,.168-1.1333,.2207-.3628,.5283-.582,.9219-.6572s.8887,.0684,1.4863,.4316l.8945,.5444,1.3613-2.2378c.3633-.5967,.7373-.9521,1.1221-1.0664,.3838-.1143,.7617-.0586,1.1328,.167,.3623,.2207,.582,.5283,.6572,.9219,.0752,.394-.0684,.8896-.4316,1.4863l-1.3613,2.2378,4.585,2.7896c.5967,.3628,.9521,.7368,1.0664,1.1211s.0576,.7622-.168,1.1333c-.2207,.3628-.5273,.582-.9219,.6572-.3936,.0752-.8887-.0688-1.4854-.4316l-4.585-2.7896Z"/><path d="M1112.875,69.5347l-6.0322,14.6987,2.7119,1.1128c.6465,.2651,1.0566,.5786,1.2295,.9404s.1768,.7437,.0117,1.145c-.1611,.3931-.4307,.6577-.8076,.7935-.377,.1362-.8887,.0718-1.5352-.1934l-8.1094-3.3276c-.6465-.2651-1.0557-.5786-1.2285-.9404s-.1768-.7437-.0127-1.1455c.1621-.3931,.4307-.6572,.8086-.7935,.377-.1362,.8887-.0713,1.5352,.1938l2.7119,1.1128,4.5957-11.2007-2.6553-.355c-.4277-.0527-.7373-.1187-.9297-.1978-.3398-.1396-.5791-.396-.7168-.7686-.1387-.373-.126-.7559,.0352-1.1489,.1465-.3579,.3535-.6021,.6211-.7319s.7266-.1538,1.376-.0708l6.3906,.877Z"/><path d="M1125.0068,92.1172c-.1621,.5229-.4834,.9023-.9619,1.1392-.4795,.2363-1.043,.2539-1.6924,.0518-.6484-.2017-1.1035-.5361-1.3633-1.0024-.2607-.4668-.3086-.9614-.1465-1.4844,.1631-.5225,.4834-.9023,.9629-1.1387,.4785-.2368,1.043-.2539,1.6914-.0522,.6494,.2021,1.1035,.5361,1.3643,1.0029,.2598,.4663,.3086,.9614,.1455,1.4839Zm2.7969-9.0806c-.1631,.5225-.4844,.9023-.9629,1.1387-.4795,.2368-1.043,.2539-1.6924,.0522-.6484-.2021-1.1035-.5366-1.3633-1.0029-.2607-.4668-.3086-.9609-.1465-1.4839,.1631-.5229,.4834-.9028,.9629-1.1392,.4785-.2363,1.043-.2539,1.6914-.0518,.6494,.2017,1.1035,.5361,1.3643,1.0024,.2598,.4668,.3086,.9614,.1465,1.4844Z"/><path d="M1163.1816,86.6455l-1.3076,11.2808,1.9404,.2251c.6943,.0806,1.1729,.2715,1.4375,.5732,.2646,.3013,.3721,.668,.3213,1.0991-.0488,.4219-.2363,.7495-.5625,.9824s-.8369,.3096-1.5303,.229l-6.752-.7832c-.6943-.0806-1.1729-.2715-1.4375-.5732-.2646-.3013-.3711-.6675-.3213-1.0991,.0488-.4219,.2363-.7495,.5625-.9824,.3271-.2329,.8369-.3091,1.5312-.2285l1.9268,.2231,1.3086-11.2808-3.123-.3623-.3164,2.729c-.0801,.6938-.2715,1.1729-.5732,1.4375-.3018,.2642-.668,.3716-1.0986,.3213-.4229-.0488-.75-.2363-.9824-.563-.2334-.3262-.3096-.8364-.2295-1.5303l.6533-5.6265,14.9355,1.7466-.6504,5.6123c-.0811,.6943-.2715,1.1733-.5732,1.4375-.3018,.2646-.668,.3716-1.0996,.3218-.4219-.0488-.749-.2368-.9824-.563-.2324-.3267-.3086-.8364-.2285-1.5308l.3164-2.7285-3.165-.3672Z"/><path d="M1179.043,89.1729l-.0566,1.8115c1.2441-.8394,2.2227-1.3945,2.9346-1.665s1.375-.3965,1.9883-.377c.9434,.0293,1.8477,.4072,2.7129,1.1328,.5898,.4907,.876,.9814,.8613,1.4722-.0127,.415-.168,.7622-.4648,1.041s-.6484,.4116-1.0537,.3989c-.3584-.0112-.7305-.2021-1.1152-.5732-.3857-.3706-.7334-.561-1.0449-.5708-.4062-.0127-1.0195,.2231-1.8428,.7075-.8223,.4844-1.8535,1.2168-3.0928,2.1982l-.1367,4.3735,4.1328,.1289c.6982,.022,1.1914,.1719,1.4805,.4502,.2891,.2778,.4258,.6343,.4131,1.0684-.0137,.4243-.1729,.7666-.4785,1.0264-.3057,.2593-.8076,.3784-1.5059,.3564l-8.7607-.2734c-.6982-.022-1.1924-.1719-1.4805-.4502-.2891-.2783-.4268-.6343-.4131-1.0684,.0127-.4243,.1729-.7666,.4785-1.0264,.3057-.2593,.8066-.3784,1.5059-.3564l1.7266,.0537,.2197-7.0483-1.0469-.0327c-.6982-.0215-1.1924-.1719-1.4805-.4497-.2891-.2783-.4268-.6343-.4131-1.0684,.0127-.4248,.1729-.7671,.4785-1.0264,.3047-.2598,.8066-.3789,1.5049-.3569l3.9492,.1235Z"/><path d="M1205.3779,96.5942l-11.8965,.5562c.3369,.7402,.9004,1.3237,1.6914,1.7495,.79,.4263,1.8398,.6084,3.1514,.5474,1.0742-.0503,2.4922-.3481,4.2529-.8936,.7266-.2231,1.2314-.3413,1.5146-.3545,.3867-.0181,.7178,.1035,.9951,.3647,.2764,.2612,.4248,.5991,.4443,1.0137,.0176,.3774-.1084,.7046-.3799,.9819-.3604,.3667-1.2646,.7422-2.7109,1.126-1.4473,.3843-2.8447,.6079-4.1934,.6714-2.3193,.1084-4.2051-.4604-5.6572-1.7061-1.4531-1.2456-2.2236-2.8257-2.3135-4.7397-.0947-2.0371,.5791-3.7295,2.0244-5.0776,1.4434-1.3477,3.1465-2.0679,5.1084-2.1597,1.1787-.0552,2.2705,.1021,3.2754,.4707,1.0039,.3691,1.7588,.7822,2.2617,1.2407,.7119,.6665,1.3135,1.5029,1.8047,2.5098,.335,.7026,.5244,1.5254,.5693,2.4683l.0576,1.231Zm-3.3467-2.7495c-.4824-.8091-1.0918-1.4023-1.8271-1.7788-.7354-.377-1.5986-.542-2.5889-.4956-.9805,.0459-1.8203,.2905-2.5176,.7344s-1.2529,1.0913-1.667,1.9419l8.6006-.4019Z"/><path d="M1219.8652,100.0054l-.0801-.6748c-.6758,.4697-1.4385,.8525-2.2881,1.1475-.8486,.2954-1.6299,.4854-2.3418,.5698-1.5469,.1831-2.8516-.0786-3.9141-.7842-1.0635-.7061-1.6533-1.5557-1.7705-2.5498-.1436-1.209,.3398-2.4048,1.4502-3.5864,1.1094-1.1816,2.752-1.9019,4.9277-2.1592,.8711-.103,1.8906-.1284,3.0566-.0767l-.082-.689c-.0508-.4312-.2773-.7607-.6807-.9888-.4023-.228-1.124-.2808-2.1641-.1572-.8535,.1006-1.9395,.4004-3.2588,.8989-.4922,.1816-.8779,.2891-1.1592,.3228-.3848,.0454-.7266-.0542-1.0264-.2993-.3008-.2446-.4756-.583-.5273-1.0142-.0283-.2437-.0068-.46,.0664-.6494,.0723-.189,.1865-.3477,.3428-.4756,.1562-.1274,.4922-.2983,1.0088-.5117,.6895-.2812,1.3975-.5239,2.124-.729,.7266-.2046,1.3896-.3428,1.9902-.4136,1.79-.2119,3.2256,.0103,4.3066,.6665,1.0801,.6562,1.7002,1.6548,1.8584,2.9951l.7031,5.9341,.4922-.0581c.6934-.082,1.2041-.0068,1.5303,.2251,.3271,.2324,.5166,.564,.5674,.9951,.0498,.4219-.0566,.7842-.3203,1.0859-.2637,.3022-.7432,.4946-1.4365,.5767l-3.375,.3994Zm-.6104-5.1606c-1.1797-.0884-2.2578-.0752-3.2324,.0405-1.1719,.1387-2.1455,.5439-2.9219,1.2153-.4814,.4277-.7002,.8296-.6562,1.2041,.0322,.272,.1855,.4775,.458,.6162,.5059,.2539,1.166,.3325,1.9814,.2358,.6943-.082,1.4629-.3105,2.3076-.6865,.8438-.3755,1.5811-.8384,2.21-1.3882l-.1465-1.2373Z"/><path d="M1233.4688,87.8154l1.0537,5.7236c.1133,.6128,.3125,.9937,.5996,1.1426,.4463,.2344,1.1709,.2593,2.1729,.0747,1.458-.2681,2.7471-.8271,3.8672-1.6763,.4287-.3286,.7783-.5181,1.0469-.5674,.3721-.0684,.7197,.0112,1.0449,.2397,.3252,.228,.5244,.5415,.5986,.9409,.0684,.3711-.0215,.7188-.2695,1.043-.374,.52-1.1982,1.0869-2.4727,1.7007s-2.3701,1.0049-3.2891,1.1743c-1.7734,.3267-3.1738,.1885-4.2021-.4141-1.0273-.603-1.6436-1.4614-1.8486-2.5752l-1.1562-6.2808-1.0312,.1895c-.6865,.127-1.2012,.0845-1.542-.126-.3408-.2109-.5508-.5298-.6299-.957-.0771-.4175,.0068-.7856,.25-1.104,.2441-.3188,.709-.541,1.3965-.6675l1.0303-.1899-.4736-2.5762c-.127-.687-.085-1.2012,.126-1.5425s.5293-.5508,.957-.6294c.418-.0771,.7852,.0063,1.1045,.25,.3184,.2437,.54,.709,.667,1.396l.4746,2.5767,5.2773-.9722c.6875-.1265,1.2012-.084,1.543,.1265,.3408,.2109,.5508,.5298,.6289,.957,.0771,.4175-.0059,.7856-.25,1.104-.2432,.3184-.709,.541-1.3955,.6675l-5.2783,.9717Z"/><path d="M1247.0068,82.0928l.1953,.7974c.3486-.561,.6875-.9722,1.0176-1.2329,.3301-.2603,.7373-.4502,1.2236-.5688,.4121-.1011,.8447-.1001,1.2979,.0029s.9209,.3091,1.4053,.6182c.3867-.522,.8066-.9429,1.2578-1.2627,.4521-.3193,.9385-.543,1.4619-.6709,1.0449-.2559,1.9619-.1836,2.749,.2163,1.042,.5229,1.708,1.3804,2,2.5723l1.5449,6.313c.5869-.1436,1.0547-.1172,1.4043,.0791,.3496,.1968,.5742,.501,.6758,.9136,.1006,.4126,.041,.7847-.1797,1.1152-.2197,.3311-.6699,.5796-1.3477,.7456l-2.6826,.6562-2.1777-8.8989c-.1055-.4312-.2559-.71-.4521-.8369s-.4551-.1514-.7754-.0728c-.3125,.0762-.5811,.2295-.8066,.4595-.2832,.3125-.5898,.8442-.9209,1.5962l1.3896,5.6802c.5869-.1436,1.0547-.1167,1.4043,.0791,.3496,.1968,.5742,.501,.6758,.9136,.1006,.4126,.041,.7847-.1797,1.1152-.2197,.3311-.6699,.5796-1.3477,.7456l-2.6826,.6562-2.1777-8.8989c-.1025-.4219-.2559-.6978-.457-.8286-.2021-.1299-.4639-.1562-.7852-.0776-.3301,.0811-.6299,.2637-.9004,.5483-.2705,.2852-.5557,.79-.8545,1.5142l1.3906,5.6802c.5859-.1436,1.0566-.1177,1.4111,.0776,.3535,.1953,.5811,.499,.6816,.9116,.1016,.4126,.0391,.7852-.1855,1.1172s-.6768,.5811-1.3555,.7471l-2.5439,.6226c-.6787,.166-1.1943,.1538-1.5469-.0371-.3535-.1904-.5811-.4966-.6846-.9185-.1006-.4126-.041-.7847,.1787-1.1152,.2207-.3311,.6289-.5693,1.2246-.7153l-1.6758-6.8496c-.5957,.146-1.0684,.1211-1.418-.0757-.3496-.1963-.5742-.501-.6758-.9136-.1006-.4126-.0391-.7847,.1865-1.1167,.2246-.332,.6758-.5811,1.3545-.7471l2.6826-.6562Z"/><path d="M1278.1055,81.7217l-11.4043,3.4282c.5068,.6367,1.1953,1.0654,2.0654,1.2866,.8691,.2217,1.9326,.1436,3.1895-.2344,1.0303-.3101,2.334-.9429,3.9092-1.8999,.6504-.3926,1.1123-.6299,1.3828-.7114,.3711-.1113,.7217-.0737,1.0537,.1123s.5586,.478,.6777,.8755c.1084,.3618,.0654,.71-.1299,1.0444-.2607,.4434-1.0469,1.0269-2.3564,1.751-1.3105,.7241-2.6123,1.2808-3.9043,1.6694-2.2246,.6685-4.1924,.5747-5.9033-.2808-1.7109-.856-2.8428-2.2012-3.3945-4.0366-.5869-1.9526-.3438-3.7583,.7305-5.417,1.0732-1.6582,2.5508-2.77,4.4307-3.3354,1.1299-.3398,2.2275-.4526,3.292-.3389,1.0635,.1138,1.8965,.332,2.4961,.6543,.8516,.4736,1.6377,1.1392,2.3594,1.9966,.4961,.6001,.8799,1.3521,1.1514,2.2559l.3545,1.1802Zm-3.9141-1.8545c-.6641-.668-1.3984-1.0952-2.2041-1.2822-.8047-.1865-1.6826-.1372-2.6318,.1484-.9395,.2827-1.6943,.7236-2.2627,1.3232-.5693,.6001-.9512,1.3633-1.1455,2.2891l8.2441-2.4785Z"/><path d="M1283.3145,71.5967l.3252,.9214c.3477-.603,.7842-1.1172,1.3105-1.5425,.5254-.4258,1.1396-.7622,1.8428-1.0103,1.6211-.5708,3.0801-.5195,4.3789,.1538,1.0303,.5376,1.7744,1.4565,2.2324,2.7563l1.793,5.0884c.5781-.2036,1.0508-.2275,1.416-.0713,.3652,.1567,.6201,.4399,.7646,.8491,.1416,.4009,.1162,.7773-.0742,1.1299-.1914,.3525-.6162,.645-1.2754,.8774l-2.4707,.8706c-.6592,.2319-1.1729,.2705-1.543,.1157s-.627-.437-.7715-.8467c-.1406-.4009-.1182-.7764,.0684-1.1274s.5693-.6284,1.1475-.8325l-1.8213-5.1685c-.21-.5962-.5234-.9761-.9414-1.1392-.5439-.2085-1.2344-.1655-2.0713,.1294-.6328,.2227-1.1436,.5405-1.5332,.9531-.3906,.4126-.8115,1.144-1.2617,2.1934l1.793,5.0884c.7031-.2476,1.1807-.3408,1.4326-.2798,.5303,.1138,.8867,.4287,1.0684,.9448,.1416,.4004,.1172,.7773-.0742,1.1299s-.6162,.645-1.2754,.877l-3.1113,1.0967c-.6592,.2324-1.1729,.271-1.543,.1157-.3701-.1548-.627-.437-.7715-.8467-.1758-.4985-.0986-.9609,.2314-1.3877,.167-.209,.6016-.437,1.3057-.6851l-2.3438-6.6509c-.5791,.2041-1.0518,.2256-1.4189,.0645-.3672-.1606-.6211-.4419-.7627-.8423-.1406-.4009-.1162-.7773,.0752-1.1299s.6162-.645,1.2744-.877l2.6045-.918Z"/><path d="M1303.3516,67.2368l2.1621,5.4028c.2314,.5786,.502,.9126,.8125,1.002,.4834,.1421,1.1992,.0234,2.1455-.3555,1.376-.5503,2.5293-1.3525,3.46-2.4062,.3555-.4067,.6602-.6611,.915-.7627,.3506-.1401,.708-.1309,1.0713,.0288s.6211,.4277,.7715,.8042c.1406,.3511,.1211,.7095-.0576,1.0757-.2646,.584-.9609,1.3022-2.0889,2.1553s-2.125,1.4531-2.9932,1.8003c-1.6738,.6699-3.0742,.8105-4.2002,.4224-1.127-.3877-1.9004-1.1079-2.3213-2.1597l-2.3721-5.9292-.9727,.3896c-.6494,.2593-1.1611,.3193-1.5371,.1802s-.6445-.4106-.8066-.814c-.1572-.394-.1484-.7715,.0283-1.1318,.1758-.3604,.5879-.6699,1.2363-.9297l.9727-.3892-.9727-2.4321c-.2598-.6484-.3203-1.1611-.1807-1.5371s.4102-.6445,.8135-.8062c.3945-.1577,.7725-.1484,1.1328,.0278,.3594,.1758,.6699,.5884,.9297,1.2368l.9727,2.4321,4.9824-1.9937c.6484-.2598,1.1611-.3198,1.5371-.1807,.376,.1396,.6445,.4106,.8057,.814,.1582,.3945,.1494,.7715-.0273,1.1318-.1758,.3604-.5879,.6704-1.2363,.9297l-4.9824,1.9941Z"/></g></g></g></svg>