<?xml version="1.0" encoding="UTF-8"?><svg id="Layer_1" xmlns="http://www.w3.org/2000/svg" width="1347.4716" height="131.7949" viewBox="0 0 1347.4716 131.7949"><defs><style>.cls-1{fill:none;stroke:#000;stroke-linecap:round;stroke-linejoin:round;stroke-width:5px;}</style></defs><g><path class="cls-1" d="M636.794,57.004c-4.6666-3-9.3334-6-14-9l-27.9231,.1538v18.8462h-9.0769l9.0769,50.5993h82.9231V56.8576c-13.6666,.0488-27.3334,.0976-41,.1464Z"/><polyline class="cls-1" points="677.8709 117.6033 668.794 67.004 594.8709 67.004"/></g><g><path d="M76.1191,52.2799l-7.3389,4.3096,.3447,2.2749,.7373-.4331c.7266-.4268,1.3271-.5908,1.8008-.4927s.8438,.3735,1.1094,.8252c.2598,.4419,.3164,.894,.1719,1.356-.1455,.4614-.5811,.9058-1.3086,1.333l-4.0674,2.3882c-.7266,.4272-1.3271,.5913-1.8008,.4932-.4746-.0981-.8438-.3735-1.1094-.8252-.2656-.4521-.3193-.9155-.1631-1.3911,.1572-.4751,.6152-.9224,1.373-1.3413l-2.1953-14.605-1.9746,1.1592c-.7275,.4272-1.3271,.5913-1.8018,.4932-.4736-.0981-.8428-.373-1.1084-.8252-.2656-.4517-.3262-.9087-.1807-1.3706,.1455-.4614,.5811-.9058,1.3076-1.333l6.5371-3.8188,14.7275,11.3091c.707-.4155,1.2197-.6108,1.5381-.5864,.6426,.0591,1.1191,.3535,1.4307,.8843,.2598,.4419,.3193,.8926,.1797,1.3511-.1406,.459-.5742,.9019-1.3008,1.3286l-4.0674,2.3887c-.7266,.4272-1.3271,.5913-1.8008,.4932-.4746-.0986-.8438-.3735-1.1094-.8252-.2598-.4424-.3174-.894-.1719-1.356s.5811-.9058,1.3076-1.333l.7373-.4326-1.8037-1.418Zm-3.0264-2.2856l-5.9453-4.5552,1.0674,7.4194,4.8779-2.8643Z"/><path d="M111.6074,34.4884l.0439,6.9009-3.0801,1.1797-7.042-10.168c-.6084,.1963-1.1221,.2012-1.541,.0142-.4199-.1875-.7168-.5093-.8926-.9673-.1826-.4785-.165-.9336,.0537-1.3652s.7217-.7983,1.5098-1.0996l3.0479-1.168c.7871-.3013,1.4072-.3647,1.8584-.1899s.7705,.5073,.958,.9966,.1543,.9775-.0977,1.4648c-.1895,.3652-.7051,.709-1.5449,1.0308l3.2314,4.71-.0088-6.0908,2.9043-1.1123,4.0781,4.5317-.71-5.6758c-.8086,.3101-1.3711,.4341-1.6875,.3721-.6367-.1343-1.0713-.5044-1.3037-1.1108-.1836-.479-.166-.9341,.0537-1.3657,.2188-.4316,.7217-.7983,1.5088-1.0996l3.0801-1.1797c.7871-.3018,1.4072-.3652,1.8584-.1904s.7705,.5073,.958,.9966c.167,.4365,.1621,.8618-.0137,1.2773-.1768,.415-.5439,.7544-1.1025,1.0166l1.6162,12.2466-3.0322,1.1611-4.7041-5.1157Z"/><path d="M141.1162,25.8472l-13.8789,3.7344c.5889,.7856,1.4033,1.3271,2.4453,1.625s2.3271,.2407,3.8564-.1704c1.2539-.3374,2.8486-1.0557,4.7832-2.1543,.7988-.4507,1.3633-.7207,1.6934-.8096,.4512-.1211,.873-.064,1.2676,.1724,.3936,.2363,.6562,.5962,.7861,1.0801,.1182,.4404,.0537,.8589-.1934,1.2559-.3301,.5254-1.2988,1.2017-2.9053,2.0293-1.6064,.8271-3.1953,1.4526-4.7686,1.876-2.707,.728-5.0771,.5459-7.1113-.5469-2.0342-1.0923-3.3516-2.7554-3.9531-4.9893-.6387-2.3765-.2822-4.5459,1.0723-6.5088,1.3535-1.9629,3.1748-3.2524,5.4629-3.8682,1.375-.3696,2.7031-.4673,3.9824-.2925,1.2803,.1748,2.2764,.4668,2.9883,.877,1.0117,.6016,1.9365,1.4321,2.7764,2.4917,.5771,.7417,1.0137,1.6626,1.3096,2.7627l.3867,1.4355Zm-4.6562-2.375c-.7783-.8291-1.6494-1.3706-2.6143-1.624-.9648-.2539-2.0254-.2251-3.1797,.0859-1.1445,.3076-2.0703,.8135-2.7783,1.5171-.707,.7031-1.1943,1.6104-1.4619,2.7207l10.0342-2.6997Z"/><path d="M147.4336,8.2774l1.1387,7.7783c.7646-.6758,1.5635-1.2158,2.3965-1.6201,.833-.4038,1.6953-.6709,2.5859-.8013,2.4014-.3511,4.5566,.1797,6.4678,1.5928s3.0381,3.2925,3.3809,5.6372c.3281,2.2432-.1924,4.2339-1.5615,5.9712-1.3701,1.7373-3.3564,2.7969-5.9609,3.1777-.9238,.1353-1.832,.147-2.7236,.0356-.8916-.1118-1.7705-.3398-2.6387-.6851l.123,.8457-4.0576,.5933c-.835,.1221-1.4531,.0483-1.8545-.2207-.4023-.2695-.6416-.6631-.7178-1.1821-.0732-.5073,.0459-.9478,.3594-1.3218,.3145-.374,.8828-.6216,1.7051-.7417l.5918-.0864-2.1934-14.999-.5918,.0864c-.835,.1221-1.4521,.0483-1.8545-.2212-.4023-.269-.6416-.6631-.7168-1.1816-.0742-.5073,.043-.9478,.3506-1.3208,.3086-.3735,.8789-.6211,1.7139-.7432l4.0576-.5933Zm12.5176,13.1953c-.209-1.4316-.8877-2.5703-2.0361-3.4155s-2.4502-1.1616-3.9043-.9487c-1.4434,.2109-2.5938,.8862-3.4512,2.0244-.8584,1.1392-1.1855,2.4077-.9814,3.8052,.1865,1.2739,.79,2.2539,1.8115,2.939,1.0215,.6855,2.3555,.9077,4.001,.667,1.6465-.2407,2.8633-.8359,3.6514-1.7861,.7871-.9502,1.0908-2.0449,.9092-3.2852Z"/><path d="M179.7559,16.3824c-.5752-.3442-1.1768-.6001-1.8057-.7676-.6299-.167-1.2861-.2456-1.9697-.2354-1.3555,.02-2.4287,.2583-3.2197,.7148-.3496,.1992-.5234,.4121-.5195,.6401,.0039,.2622,.2471,.5146,.7285,.7583,.3672,.1768,1.1846,.3408,2.4521,.4927,2.3281,.2847,3.9512,.5791,4.8672,.8843,1.2021,.4038,2.1348,1.0166,2.7959,1.8384,.6621,.8218,1,1.6938,1.0137,2.6167,.0186,1.2534-.5176,2.3096-1.6104,3.1689-1.5654,1.2432-3.6123,1.8833-6.1416,1.9209-1.0137,.0156-1.9521-.0591-2.8145-.2227-.8633-.1636-1.6553-.4106-2.3779-.7417-.1689,.1504-.3496,.2671-.542,.3496-.1924,.083-.3916,.1255-.5967,.1289-.5469,.0078-.9854-.165-1.3154-.519-.3301-.3535-.501-.9521-.5137-1.7954l-.0176-1.1787c-.0127-.8433,.1406-1.4468,.46-1.8101,.3193-.3638,.7412-.5498,1.2646-.5576,.4219-.0063,.7764,.1055,1.0654,.3345,.2881,.2295,.5156,.6274,.6836,1.1948,.543,.4478,1.1914,.7827,1.9473,1.0049,.7549,.2222,1.6221,.3257,2.6025,.311,1.6055-.0239,2.8496-.293,3.7305-.8076,.418-.2568,.625-.5225,.6211-.7959-.0068-.4551-.3145-.8267-.9229-1.1143-.6084-.2866-1.8594-.519-3.7539-.6953-2.8184-.2539-4.7061-.7954-5.6641-1.6245-.959-.8174-1.4463-1.8354-1.4648-3.0547-.0186-1.2529,.4951-2.3032,1.542-3.1509,1.4189-1.1606,3.29-1.7583,5.6143-1.793,.8086-.0122,1.5869,.0527,2.3359,.1953,.748,.1426,1.4668,.3687,2.1543,.6772,.2139-.1626,.415-.2852,.6016-.3682,.1865-.082,.3594-.125,.5195-.1274,.4785-.0068,.8799,.1665,1.2041,.5205s.4932,.9526,.5059,1.7954l.0127,.8545c.0117,.7637-.0723,1.2832-.25,1.5591-.3574,.5298-.8486,.7988-1.4756,.8086-.4209,.0063-.793-.1191-1.1162-.3765s-.5332-.6016-.6309-1.0332Z"/><path d="M200.9316,13.8092l-1.4814,11.9229,4.1719,.5181c.8369,.104,1.4131,.3394,1.7295,.7056,.3154,.3667,.4414,.8101,.377,1.3301-.0635,.5088-.293,.9019-.6895,1.1802-.3955,.2778-1.0127,.3647-1.8486,.2607l-11.8213-1.4683c-.8369-.104-1.4131-.3394-1.7295-.7061-.3154-.3662-.4414-.8096-.377-1.3296,.0635-.5088,.293-.9023,.6895-1.1802,.3955-.2778,1.0127-.3652,1.8486-.2612l4.1729,.5186,1.0488-8.4458-2.7979-.3477c-.8262-.1025-1.3994-.3374-1.7207-.7046-.3223-.3672-.4512-.811-.3857-1.3311,.0625-.5088,.293-.9019,.6885-1.1802,.3965-.2778,1.0127-.3647,1.8496-.2607l6.2754,.7793Zm.3447-6.6562l-.458,3.6802-4.1377-.5142,.457-3.6802,4.1387,.5142Z"/><path d="M220.3477,21.2921l-1.8828,6.7666c-.2012,.7246-.1855,1.2432,.0469,1.5562,.3604,.4907,1.1328,.9009,2.3184,1.2305,1.7227,.4795,3.417,.5547,5.0811,.2251,.6396-.1294,1.1182-.1499,1.4365-.0615,.4395,.1221,.7744,.3931,1.0068,.812,.2324,.4194,.2832,.8652,.1514,1.3374-.1221,.439-.4033,.769-.8428,.9893-.6816,.3667-1.876,.5459-3.582,.5381-1.707-.0078-3.1035-.1626-4.1904-.4648-2.0967-.5835-3.543-1.4736-4.3389-2.6709-.7969-1.1973-1.0117-2.4541-.6445-3.7715l2.0654-7.4253-1.2188-.3389c-.8125-.2261-1.3477-.5435-1.6064-.9526s-.3174-.8657-.1768-1.3711c.1367-.4937,.4219-.8491,.8545-1.0659,.4336-.2163,1.0557-.2119,1.8682,.0142l1.2178,.3389,.8477-3.0459c.2256-.812,.5439-1.3477,.9521-1.6064,.4092-.2588,.8662-.3179,1.3711-.1772,.4941,.1372,.8496,.4224,1.0664,.855,.2158,.4331,.2119,1.0557-.0146,1.8677l-.8467,3.0459,6.2393,1.7358c.8125,.2261,1.3486,.5435,1.6074,.9526,.2578,.4092,.3174,.8662,.1768,1.3711-.1377,.4937-.4219,.8491-.8555,1.0659-.4326,.2163-1.0547,.2119-1.8672-.0142l-6.2402-1.7358Z"/><path d="M248.2617,38.4219l-13.1162-5.8765c-.04,.981,.249,1.916,.8682,2.8052s1.6514,1.6572,3.0967,2.3047c1.1855,.5312,2.875,.9824,5.0684,1.353,.9043,.1558,1.5117,.3032,1.8242,.4429,.4258,.1909,.7168,.5024,.873,.9346s.1318,.8765-.0732,1.334c-.1865,.416-.501,.6997-.9434,.8511-.5879,.1982-1.7656,.1104-3.5332-.2632-1.7676-.374-3.3955-.8936-4.8818-1.5601-2.5576-1.1455-4.2803-2.7847-5.166-4.917s-.8564-4.2539,.0898-6.3647c1.0059-2.2456,2.6533-3.7017,4.9434-4.3677,2.2891-.6655,4.5156-.5142,6.6787,.4546,1.2988,.5825,2.3896,1.3457,3.2715,2.29,.8809,.9443,1.4688,1.8003,1.7617,2.5684,.4033,1.105,.5957,2.3335,.5771,3.6855-.0215,.9395-.2656,1.9287-.7314,2.9683l-.6074,1.3569Zm-2.1084-4.7832c-.0781-1.1338-.4121-2.104-.999-2.9102-.5879-.8066-1.4268-1.4541-2.5186-1.9434-1.082-.4844-2.1191-.6777-3.1113-.5796-.9932,.0986-1.9443,.4937-2.8535,1.1846l9.4824,4.2485Z"/><path d="M278.6162,56.3155l-5.5518,4.0991-2.7666-1.7944,4.0713-11.6797c-.5176-.376-.8232-.7881-.9189-1.2373s-.0107-.8789,.2559-1.29c.2793-.4302,.6572-.6841,1.1357-.7612,.4775-.0771,1.0703,.1138,1.7773,.5728l2.7383,1.7759c.708,.459,1.124,.9219,1.248,1.3896s.0439,.9219-.2412,1.3613-.6992,.7007-1.2412,.7837c-.4072,.062-.9883-.1523-1.7432-.6416l-1.9043,5.3853,4.918-3.5938,2.6094,1.6924-1.2607,5.9648,4.1689-3.916c-.7266-.4712-1.1582-.8525-1.2939-1.145-.2676-.5938-.2236-1.1631,.1299-1.708,.2783-.4302,.6572-.6836,1.1348-.7607s1.0703,.1133,1.7783,.5723l2.7666,1.7949c.708,.4585,1.123,.9219,1.248,1.3896,.124,.4678,.0439,.9214-.2412,1.3608-.2539,.3921-.6016,.6392-1.041,.7407-.4395,.1021-.9297,.0049-1.4707-.2915l-8.9463,8.5176-2.7236-1.7671,1.3643-6.8145Z"/><path d="M303.3174,61.2222l-6.2236,10.2764,3.5967,2.1777c.7207,.437,1.1504,.8872,1.2891,1.3506,.1396,.4639,.0723,.9199-.1982,1.3682-.2656,.4385-.6367,.7036-1.1113,.7954-.4756,.0918-1.0732-.0806-1.7949-.5171l-10.1885-6.1704c-.7217-.437-1.1514-.8872-1.29-1.3506-.1387-.4639-.0723-.9199,.1992-1.3682,.2656-.4385,.6357-.7036,1.1113-.7954,.4746-.0918,1.0732,.0806,1.7939,.5171l3.5967,2.1777,4.4082-7.2798-2.4121-1.4604c-.7109-.4312-1.1387-.8799-1.2822-1.3462-.1436-.4668-.0801-.9238,.1914-1.3726,.2656-.4385,.6357-.7036,1.1113-.7954s1.0732,.0806,1.7949,.5176l5.4082,3.2754Zm3.0342-5.9346l-1.9209,3.1724-3.5664-2.1602,1.9209-3.1724,3.5664,2.1602Z"/><path d="M318.6084,73.6265l-3.0996,6.3032c-.332,.6748-.4121,1.187-.2422,1.5376,.2637,.5483,.9473,1.0942,2.0518,1.6372,1.6045,.7896,3.2559,1.1758,4.9521,1.1597,.6523-.0093,1.127,.0586,1.4238,.2046,.4082,.2007,.6885,.5288,.8389,.9839,.1514,.4551,.1182,.9028-.0977,1.3423-.2012,.4087-.5381,.6812-1.0107,.8169-.7383,.2344-1.9443,.1899-3.6201-.1328s-3.0205-.7329-4.0322-1.2305c-1.9531-.9604-3.21-2.1025-3.7715-3.4258-.5615-1.3237-.541-2.5991,.0625-3.8257l3.4004-6.9165-1.1348-.5581c-.7559-.3721-1.2236-.7832-1.4023-1.2329s-.1533-.9097,.0781-1.3799c.2266-.46,.5723-.7568,1.0381-.8896,.4648-.1333,1.0762-.0137,1.832,.3584l1.1357,.5581,1.3945-2.8369c.3721-.7568,.7832-1.2246,1.2324-1.4033,.4502-.1787,.9102-.1523,1.3809,.0786,.46,.2266,.7559,.5723,.8896,1.0376,.1328,.4653,.0127,1.0762-.3584,1.833l-1.3955,2.8369,5.8125,2.8584c.7559,.3721,1.2236,.7827,1.4023,1.2324s.1533,.9102-.0781,1.3804c-.2266,.46-.5723,.7563-1.0371,.8896-.4658,.1328-1.0771,.0132-1.833-.3589l-5.8125-2.8579Z"/><path d="M339.8223,71.8961l-2.5195,7.0303c.833-.1616,1.6357-.2158,2.4092-.1626,.7734,.0537,1.5195,.209,2.2383,.4663,1.1367,.4077,2.0811,.9639,2.833,1.6689s1.2715,1.5781,1.5576,2.6187c.2871,1.041,.2031,2.1943-.25,3.4595l-2.2197,6.1938c.8369,.2998,1.3545,.5762,1.5547,.8296,.3955,.5171,.4844,1.0811,.2646,1.6924-.1729,.4824-.4805,.8169-.9219,1.0039-.4424,.1865-1.0605,.1372-1.8535-.147l-3.7646-1.3491c-.7832-.2808-1.2891-.6343-1.5176-1.061-.2275-.4268-.2539-.8867-.0771-1.3804,.2158-.6001,.6396-.9746,1.2744-1.1226,.3291-.0757,.9053,.04,1.7275,.3467l2.1387-5.9688c.3037-.8472,.3232-1.5117,.0605-1.9932-.3389-.6421-1.002-1.1396-1.9883-1.4932-.7295-.2617-1.4268-.3506-2.0918-.2686-.665,.0825-1.6436,.4248-2.9365,1.0264l-2.2139,6.1777c.8477,.3037,1.3652,.5801,1.5547,.8296,.4062,.5205,.5,1.0869,.2812,1.6982-.1729,.4824-.4834,.8159-.9307,1.0005s-1.0684,.1348-1.8613-.1494l-3.749-1.3433c-.7939-.2847-1.3047-.6401-1.5332-1.0669-.2275-.4268-.2539-.8867-.0771-1.3804,.2158-.6006,.6455-.9727,1.29-1.1172,.3193-.0791,.8945,.0366,1.7275,.3467l5.1143-14.27-.5635-.2017c-.7939-.2842-1.3047-.6401-1.5332-1.0669-.2275-.4268-.2539-.8867-.0771-1.3799,.1729-.4829,.4834-.8164,.9307-1.001s1.0674-.1348,1.8613,.1499l3.8613,1.3838Z"/><path d="M408.9062,92.0181l.0195-1.0425,4.1016,.0796c.8428,.0166,1.4404,.1904,1.793,.522s.5234,.7598,.5137,1.2837c-.0098,.5122-.1973,.9277-.5625,1.2451-.3652,.3179-.9697,.4683-1.8125,.4521l-.5977-.0117-.248,12.7466c-.0234,1.2305-.3037,2.2988-.8398,3.2061-.5361,.9067-1.3457,1.6802-2.4287,2.3198-1.084,.6401-2.2979,.9473-3.6416,.9209l-3.9648-.0767c-.8428-.0166-1.4404-.1904-1.793-.522s-.5234-.7539-.5137-1.2666c.0098-.5239,.1973-.9448,.5625-1.2622,.3652-.3179,.9697-.4688,1.8125-.4521l3.8613,.0747c1.0703,.021,1.9082-.2534,2.5117-.8228s.9141-1.2983,.9316-2.187l.0332-1.7085c-.7852,.4863-1.5811,.8467-2.3887,1.0815s-1.6338,.3442-2.4766,.3281c-2.3809-.0464-4.3584-.8794-5.9336-2.4995s-2.3408-3.5981-2.2949-5.9331c.0449-2.3467,.8867-4.2988,2.5234-5.8569,1.6367-1.5576,3.6455-2.3135,6.0264-2.2676,.8887,.0176,1.7314,.1621,2.5303,.4336,.7979,.272,1.5566,.6772,2.2754,1.2153Zm-.1475,6.7148c.0244-1.2871-.4297-2.4126-1.3623-3.377-.9326-.9639-2.0654-1.4585-3.3984-1.4844-1.332-.0259-2.4834,.4248-3.4531,1.3516-.9697,.9272-1.4668,2.0342-1.4912,3.3213-.0254,1.2983,.4287,2.4268,1.3613,3.3853,.9326,.958,2.0654,1.4502,3.3984,1.4761s2.4834-.4219,3.4531-1.3433,1.4668-2.0312,1.4922-3.3296Z"/><path d="M431.1514,105.5362l-.0605-.8184c-.8408,.5308-1.7803,.9512-2.8203,1.2617-1.0391,.3105-1.9912,.498-2.8545,.5615-1.875,.1382-3.4346-.2471-4.6777-1.1548-1.2432-.9082-1.9092-1.9644-1.998-3.1685-.1084-1.4658,.5381-2.8813,1.9404-4.2471,1.4014-1.3657,3.4199-2.1455,6.0566-2.3398,1.0566-.0781,2.2861-.0542,3.6895,.0708l-.0615-.835c-.0391-.5225-.2949-.9321-.7676-1.229-.4736-.2959-1.3398-.3979-2.6016-.3052-1.0342,.0762-2.3594,.3794-3.9766,.9102-.6035,.1929-1.0752,.3018-1.416,.3267-.4658,.0347-.873-.104-1.2217-.4155-.3477-.311-.542-.728-.5801-1.251-.0215-.2954,.0156-.5552,.1143-.7793,.0977-.2241,.2441-.4092,.4385-.5552,.1953-.1455,.6094-.333,1.2441-.563,.8457-.3022,1.7119-.5571,2.5996-.7651,.8867-.2085,1.6943-.3394,2.4209-.3926,2.1709-.1602,3.8896,.1846,5.1572,1.0337s1.9619,2.0859,2.0811,3.7109l.5303,7.1924,.5967-.0439c.8408-.062,1.4521,.0557,1.834,.353,.3818,.2979,.5918,.708,.6299,1.2305,.0381,.5112-.1104,.9419-.4443,1.292-.334,.3506-.9219,.5566-1.7627,.6182l-4.0898,.3018Zm-.4609-6.2554c-1.418-.1694-2.7178-.2109-3.8994-.124-1.4199,.105-2.6162,.5415-3.5879,1.3096-.6035,.4902-.8887,.9624-.8545,1.417,.0234,.3296,.1973,.585,.5186,.7671,.5957,.333,1.3877,.4634,2.377,.3906,.8408-.062,1.7803-.2969,2.8184-.7046s1.9502-.9263,2.7383-1.5557l-.1104-1.5Z"/><path d="M443.2236,88.6104l.1543,.979c.4756-.6396,.9248-1.1001,1.3477-1.3799,.4229-.2803,.9326-.4673,1.5293-.561,.5068-.0801,1.0264-.0347,1.5615,.1348,.5342,.1694,1.0762,.4648,1.627,.8853,.5186-.5889,1.0654-1.0527,1.6406-1.3916,.5752-.3384,1.1836-.5586,1.8252-.6597,1.2832-.2021,2.3779-.0225,3.2852,.5381,1.1992,.7339,1.915,1.832,2.1455,3.2949l1.2207,7.7485c.7197-.1133,1.2803-.0342,1.6807,.2373s.6406,.6602,.7207,1.1665c.0791,.5063-.0303,.9478-.3281,1.3232-.2988,.376-.8643,.6294-1.6973,.7603l-3.292,.519-1.7207-10.9229c-.083-.5288-.2363-.8794-.459-1.0518-.2236-.1724-.5322-.2275-.9258-.1655-.3828,.0601-.7217,.2173-1.0156,.4712-.373,.3472-.7959,.9556-1.2695,1.8262l1.0977,6.9722c.7207-.1133,1.2812-.0342,1.6816,.2368,.3994,.272,.6396,.6606,.7197,1.167s-.0293,.9478-.3281,1.3232c-.2979,.3755-.8633,.6289-1.6963,.7603l-3.292,.5186-1.7207-10.9224c-.082-.5176-.2373-.8647-.4668-1.042-.2305-.1772-.542-.2349-.9355-.1729-.4053,.064-.7852,.2534-1.1387,.5688-.3545,.3149-.748,.8936-1.1807,1.7339l1.0986,6.9722c.7207-.1133,1.2832-.0347,1.6895,.2358s.6484,.6587,.7285,1.1655c.0801,.5063-.0322,.9478-.3359,1.3242-.3047,.377-.873,.6309-1.7051,.7617l-3.123,.4922c-.833,.1313-1.4521,.0645-1.8574-.2007-.4053-.2646-.6484-.6558-.7295-1.1738-.0801-.5063,.0293-.9473,.3271-1.3232,.2988-.3755,.8135-.6211,1.5449-.7363l-1.3242-8.4072c-.7314,.1152-1.2979,.0376-1.6973-.2344-.4004-.271-.6406-.6602-.7207-1.1665s.0322-.9482,.3369-1.3247c.3037-.3765,.8721-.6304,1.7051-.7617l3.292-.5186Z"/><path d="M480.709,90.8663l-13.998,3.2622c.5625,.8052,1.3584,1.374,2.3896,1.7065,1.0312,.333,2.3174,.3198,3.8604-.0396,1.2646-.2949,2.8828-.9585,4.8525-1.9907,.8145-.4238,1.3877-.6743,1.7197-.752,.4551-.106,.876-.0342,1.2617,.2148,.3848,.25,.6348,.6187,.749,1.1064,.1035,.4438,.0244,.8604-.2354,1.2485-.3486,.5137-1.3389,1.1572-2.9727,1.9297-1.6328,.7725-3.2432,1.3438-4.8301,1.7134-2.7295,.6362-5.0918,.374-7.0879-.7871-1.9961-1.1606-3.2568-2.8677-3.7822-5.1201-.5586-2.397-.1279-4.5527,1.292-6.4692,1.4189-1.9155,3.2822-3.1426,5.5908-3.6807,1.3867-.3232,2.7168-.3755,3.9902-.1577,1.2734,.2183,2.2588,.5439,2.957,.978,.9902,.6353,1.8867,1.4966,2.6904,2.584,.5508,.7607,.9561,1.6958,1.2148,2.8052l.3379,1.4482Zm-4.5732-2.5312c-.75-.855-1.6016-1.4258-2.5576-1.7119s-2.0166-.2935-3.1816-.022c-1.1533,.269-2.0957,.7432-2.8271,1.4224-.7305,.6792-1.248,1.5693-1.5537,2.6694l10.1201-2.3579Z"/></g><g><path d="M817.6953,65.0518l-7.0225,4.8076,.501,2.2451,.7051-.4824c.6963-.4761,1.2842-.6816,1.7637-.6167,.4795,.0654,.8672,.3145,1.1631,.7466,.29,.4233,.3779,.8701,.2656,1.3408-.1133,.4707-.5176,.9438-1.2129,1.4204l-3.8926,2.6641c-.6953,.4761-1.2832,.6816-1.7627,.6167-.4795-.0654-.8672-.3145-1.1631-.7466-.2959-.4326-.3828-.8911-.2588-1.3765,.123-.4849,.5488-.9624,1.2764-1.4331l-3.2012-14.4185-1.8896,1.2935c-.6953,.4766-1.2832,.6816-1.7627,.6167-.4795-.0654-.8672-.314-1.1631-.7466s-.3877-.8843-.2754-1.355c.1133-.4702,.5166-.9438,1.2129-1.4199l6.2568-4.2622,15.4746,10.2627c.6768-.4634,1.1748-.6938,1.4941-.6914,.6445,.0142,1.1416,.2749,1.4883,.7827,.29,.4233,.3809,.8687,.2725,1.3359-.1074,.4673-.5098,.9395-1.2051,1.4155l-3.8926,2.6641c-.6963,.4766-1.2832,.6816-1.7627,.6167-.4795-.0654-.8672-.314-1.1641-.7466-.2891-.4233-.3779-.8701-.2646-1.3408,.1123-.4707,.5166-.9438,1.2129-1.4204l.7051-.4824-1.8984-1.29Zm-3.1768-2.0703l-6.2461-4.1328,1.5781,7.3281,4.668-3.1953Z"/><path d="M851.5625,44.4161l.6953,6.8657-2.9551,1.4653-7.9697-9.4585c-.5869,.2529-1.0986,.3057-1.5332,.1592-.4355-.147-.7617-.4395-.9795-.8784-.2275-.4595-.2529-.9146-.0752-1.3647,.1768-.4502,.6436-.8628,1.3984-1.2373l2.9248-1.4497c.7559-.3745,1.3662-.4961,1.832-.3643,.4658,.1313,.8145,.4321,1.0479,.9014,.2324,.4697,.2461,.959,.041,1.4678-.1543,.3813-.6348,.7725-1.4414,1.1719l3.6611,4.3843-.583-6.063,2.7871-1.3813,4.4873,4.127-1.2422-5.5835c-.7754,.3848-1.3242,.561-1.6445,.5298-.6475-.0737-1.1152-.4014-1.4033-.9834-.2275-.459-.2529-.9141-.0752-1.3643,.1768-.4507,.6436-.8628,1.3984-1.2373l2.9551-1.4648c.7559-.3745,1.3662-.4961,1.832-.3647s.8154,.4321,1.0479,.9019c.207,.4185,.2432,.8428,.1064,1.2729-.1367,.4297-.4697,.8022-1.001,1.1162l2.7637,12.0391-2.9092,1.4424-5.166-4.6494Z"/><path d="M880.0479,32.7457l-13.3887,5.2261c.6709,.7168,1.54,1.1665,2.6084,1.3486,1.0674,.1821,2.3398-.0146,3.8145-.5903,1.21-.4722,2.7168-1.3599,4.5195-2.6631,.7451-.5352,1.2764-.8652,1.5947-.9897,.4355-.1694,.8613-.1587,1.2793,.0332,.417,.1919,.7168,.521,.8994,.9883,.165,.4243,.1475,.8477-.0557,1.2686-.2705,.5586-1.1592,1.3369-2.666,2.3345-1.5059,.9976-3.0186,1.7925-4.5361,2.3853-2.6104,1.019-4.9863,1.0967-7.1279,.2324s-3.6328-2.3735-4.4736-4.5283c-.8945-2.2925-.7764-4.4878,.3545-6.5869,1.1318-2.0986,2.8018-3.5791,5.0088-4.4409,1.3271-.5176,2.6357-.7598,3.9277-.7256,1.291,.0342,2.3125,.2158,3.0654,.5459,1.0713,.4873,2.0811,1.2119,3.0312,2.1738,.6553,.6743,1.1895,1.542,1.6035,2.603l.541,1.3853Zm-4.8877-1.853c-.8643-.7393-1.7891-1.1821-2.7754-1.3291-.9873-.147-2.0381-.0029-3.1523,.4321-1.1035,.4312-1.9688,1.0347-2.5947,1.811-.627,.7769-1.0127,1.7314-1.1572,2.8643l9.6797-3.7783Z"/><path d="M884.1309,14.5601l2.0977,7.5767c.6748-.7661,1.4004-1.4014,2.1768-1.9058s1.5986-.877,2.4658-1.1172c2.3389-.6475,4.5439-.3887,6.6162,.7754,2.0713,1.1646,3.4238,2.8887,4.0557,5.1724,.6055,2.1851,.3359,4.2251-.8066,6.1191-1.1426,1.8945-2.9814,3.1929-5.5186,3.895-.9004,.249-1.7998,.374-2.6973,.374-.8984,.0005-1.7998-.1162-2.7041-.3506l.2275,.8232-3.9531,1.0942c-.8125,.2251-1.4346,.2285-1.8672,.0117-.4326-.2173-.7188-.5786-.8584-1.0835-.1367-.4941-.0723-.9463,.1924-1.3564s.7979-.7266,1.5986-.9482l.5771-.1597-4.0439-14.6094-.5762,.1597c-.8135,.2251-1.4355,.2285-1.8682,.0117-.4326-.2173-.7188-.5786-.8584-1.0835-.1367-.4941-.0752-.9458,.1836-1.3545,.2598-.4087,.7949-.7251,1.6084-.9502l3.9521-1.0942Zm14.0635,11.5347c-.3867-1.394-1.2021-2.4395-2.4463-3.1353-1.2451-.6953-2.5752-.8477-3.9922-.4556-1.4053,.3892-2.4629,1.2021-3.1729,2.4385-.71,1.2373-.876,2.5361-.499,3.8979,.3438,1.2407,1.0645,2.1377,2.1631,2.6904,1.0986,.5532,2.4492,.6074,4.0527,.1636,1.6035-.4434,2.7363-1.1855,3.4004-2.2266,.6631-1.0405,.8281-2.165,.4941-3.373Z"/><path d="M917.0986,18.3873c-.6172-.2617-1.249-.4321-1.8945-.5112-.6465-.0786-1.3076-.0659-1.9834,.0386-1.3398,.207-2.3701,.5913-3.0898,1.1519-.3193,.2456-.4619,.481-.4268,.7061,.04,.2593,.3154,.4761,.8271,.6504,.3877,.1245,1.2197,.1743,2.4961,.1499,2.3457-.0396,3.9932,.0288,4.9424,.2046,1.2471,.2339,2.2549,.7119,3.0234,1.4346s1.2236,1.54,1.3643,2.4521c.1924,1.2388-.1943,2.3589-1.1572,3.3608-1.3789,1.4468-3.3184,2.3633-5.8174,2.75-1.0029,.1548-1.9424,.2104-2.8193,.1675s-1.6963-.1787-2.458-.4067c-.1455,.1729-.3086,.313-.4883,.4214-.1787,.1084-.3701,.1782-.5723,.2095-.541,.084-.999-.0269-1.375-.332-.375-.3052-.6279-.874-.7568-1.7075l-.1797-1.165c-.1289-.8335-.0605-1.4521,.2061-1.8564,.2656-.4043,.6582-.6465,1.1758-.7266,.416-.0645,.7832-.0029,1.1006,.1846,.3174,.187,.5977,.5503,.8428,1.0889,.5986,.3687,1.2881,.6108,2.0664,.7266,.7793,.1157,1.6523,.0991,2.6211-.0508,1.5869-.2456,2.7822-.6836,3.584-1.3149,.3779-.312,.5459-.6035,.5039-.8735-.0693-.4502-.4248-.7754-1.0674-.9761-.6416-.2007-1.9131-.2578-3.8135-.1714-2.8262,.1372-4.7715-.1382-5.834-.8271-1.0625-.6772-1.6855-1.6187-1.8721-2.8232-.1914-1.2388,.1729-2.3501,1.0928-3.334,1.2441-1.3447,3.0156-2.1953,5.3125-2.5503,.7988-.1235,1.5791-.1665,2.3408-.1284,.7607,.0381,1.5029,.1626,2.2275,.373,.1895-.1904,.3711-.3398,.5449-.4473s.3389-.1733,.4971-.1978c.4727-.0732,.8936,.043,1.2637,.3491,.3701,.3057,.6201,.8755,.749,1.7085l.1299,.8447c.1172,.7544,.1064,1.2803-.0322,1.5786-.2803,.5737-.7305,.9082-1.3496,1.0039-.416,.0645-.8027-.0083-1.1572-.2188-.3555-.21-.6113-.522-.7676-.936Z"/><path d="M937.5645,12.7955l.2881,12.0107,4.2031-.1011c.8428-.02,1.4473,.1279,1.8145,.4438,.3662,.3159,.5557,.7358,.5684,1.2598,.0127,.5127-.1572,.9355-.5078,1.2686-.3516,.3335-.9482,.5103-1.791,.5303l-11.9082,.2856c-.8428,.0205-1.4473-.1274-1.8145-.4434-.3662-.3159-.5557-.7358-.5684-1.2598-.0117-.5127,.1572-.9355,.5078-1.269,.3516-.333,.9482-.5098,1.791-.5303l4.2031-.1006-.2041-8.5083-2.8193,.0674c-.8311,.02-1.4336-.1279-1.8057-.4438-.3721-.3154-.5645-.7354-.5771-1.2593-.0127-.5127,.1572-.9355,.5078-1.269,.3516-.333,.9482-.5098,1.791-.5298l6.3213-.1519Zm-.6377-6.6348l.0889,3.7075-4.1689,.1001-.0889-3.7075,4.1689-.1001Z"/><path d="M957.873,17.2613l-.8008,6.978c-.0859,.7471,.0107,1.2568,.2891,1.5298,.4326,.4282,1.2598,.7124,2.4824,.8525,1.7773,.2036,3.4619,.0132,5.0547-.5728,.6104-.228,1.0801-.3232,1.4082-.2856,.4531,.0518,.8271,.2666,1.1221,.6445s.4141,.8105,.3584,1.2969c-.0518,.4531-.2773,.8228-.6777,1.1094-.6152,.4683-1.7666,.8325-3.4541,1.0918-1.6865,.2593-3.0898,.3247-4.2109,.1963-2.1621-.248-3.7295-.9009-4.7031-1.9585-.9746-1.0581-1.3828-2.2661-1.2275-3.6245l.8789-7.6572-1.2568-.144c-.8379-.0962-1.416-.3257-1.7354-.6895-.3203-.3633-.4502-.8052-.3896-1.3262,.0576-.5093,.2842-.9048,.6777-1.1865s1.0088-.3745,1.8467-.2783l1.2559,.144,.3604-3.1411c.0967-.8374,.3262-1.416,.6895-1.7358,.3643-.3193,.8057-.4492,1.3262-.3896,.5098,.0586,.9053,.2847,1.1865,.6782,.2822,.3936,.375,1.0093,.2793,1.8467l-.3604,3.1411,6.4346,.7378c.8369,.0962,1.416,.3262,1.7354,.6895,.3193,.3638,.4492,.8057,.3896,1.3262-.0586,.5098-.2842,.9053-.6777,1.1865-.3936,.2817-1.0088,.3745-1.8467,.2788l-6.4346-.7383Z"/><path d="M988.1523,29.6993l-13.8848-3.7129c.1172,.9746,.5518,1.8516,1.3047,2.6309s1.8936,1.3735,3.4238,1.7822c1.2549,.3359,2.9941,.5122,5.2188,.5288,.917,.0098,1.541,.0586,1.8711,.147,.4512,.1206,.7891,.3818,1.0117,.7832,.2227,.4019,.2695,.8447,.1396,1.3291-.1172,.4399-.3828,.7705-.7949,.9902-.5498,.2896-1.7266,.3901-3.5312,.3027s-3.4941-.3418-5.0674-.7627c-2.708-.7241-4.6689-2.0679-5.8828-4.0322-1.2148-1.9639-1.5234-4.063-.9258-6.2974,.6357-2.3774,2.0312-4.0767,4.1855-5.0991,2.1543-1.0215,4.376-1.2266,6.665-.6143,1.376,.3677,2.5742,.9478,3.5947,1.7397s1.7373,1.5435,2.1484,2.2549c.5742,1.0264,.96,2.2085,1.1562,3.5464,.1289,.9312,.0459,1.9468-.249,3.0474l-.3838,1.436Zm-2.8428-4.3867c-.2578-1.1064-.7412-2.0117-1.4502-2.7139-.708-.7026-1.6406-1.2085-2.7959-1.5176-1.1445-.3062-2.1992-.3315-3.1641-.0762-.9639,.2549-1.8398,.7964-2.6279,1.6235l10.0381,2.6841Z"/><path d="M1020.1963,44.3482l-5.3486,4.3604-2.8496-1.6602,3.5078-11.8608c-.5342-.3506-.8594-.748-.9766-1.1919-.1172-.4443-.0527-.8779,.1943-1.3013,.2578-.4429,.624-.7144,1.0967-.8145,.4736-.0996,1.0752,.0625,1.8037,.4868l2.8203,1.6431c.7285,.4243,1.166,.8672,1.3125,1.3286,.1465,.4609,.0879,.9185-.1758,1.3711s-.6641,.7334-1.2021,.8423c-.4033,.0811-.9941-.1045-1.7725-.5576l-1.6436,5.4702,4.7402-3.8247,2.6875,1.5654-.9746,6.0186,3.9775-4.1108c-.749-.436-1.1982-.7964-1.3477-1.082-.2949-.5801-.2793-1.1514,.0479-1.7124,.2578-.4429,.624-.7144,1.0977-.8145,.4736-.0996,1.0742,.0625,1.8027,.4868l2.8496,1.6606c.7285,.4243,1.167,.8672,1.3135,1.3281,.1465,.4614,.0879,.9185-.1758,1.3711-.2354,.4038-.5703,.667-1.0039,.7896-.4346,.123-.9287,.0493-1.4834-.2212l-8.5283,8.936-2.8057-1.6343,1.0361-6.8726Z"/><path d="M1045.2148,49.3121l-6.5332,10.083,3.5283,2.2861c.708,.4585,1.124,.9214,1.249,1.3892,.124,.4673,.0439,.9214-.2412,1.3613-.2783,.4302-.6562,.6841-1.1348,.7612-.4775,.0771-1.0703-.1133-1.7773-.5718l-9.9971-6.4771c-.708-.4585-1.124-.9214-1.248-1.3892-.125-.4673-.0449-.9209,.2402-1.3608,.2783-.4307,.6572-.6841,1.1348-.7617,.4775-.0771,1.0703,.1133,1.7783,.5718l3.5283,2.2861,4.627-7.1426-2.3662-1.5337c-.6982-.4521-1.1113-.9136-1.2412-1.3843-.1289-.4707-.0518-.9263,.2334-1.3657,.2793-.4307,.6572-.6841,1.1348-.7617,.4775-.0771,1.0703,.1133,1.7783,.5718l5.3066,3.438Zm3.2129-5.8394l-2.0166,3.1123-3.499-2.2671,2.0166-3.1123,3.499,2.2671Z"/><path d="M1059.4961,62.5738l-3.6641,5.9927c-.3916,.6416-.5186,1.145-.3809,1.5093,.2119,.5703,.8428,1.1768,1.8926,1.8184,1.5264,.9326,3.1348,1.4688,4.8262,1.6079,.6494,.0503,1.1162,.1616,1.3975,.334,.3887,.2373,.6377,.5898,.7461,1.0566s.0352,.9097-.2197,1.3276c-.2383,.3887-.5986,.6289-1.082,.7207-.7559,.166-1.9531,.0112-3.5928-.4634s-2.9404-1.0059-3.9023-1.5942c-1.8564-1.1353-3.0039-2.3872-3.4424-3.7568-.4385-1.3691-.3008-2.6372,.4121-3.8037l4.0205-6.5762-1.0791-.6597c-.7197-.4399-1.1475-.8916-1.2842-1.356-.1377-.4644-.0693-.9199,.2041-1.3672,.2676-.4375,.6387-.7012,1.1143-.791s1.0732,.085,1.793,.5249l1.0791,.6597,1.6484-2.6978c.4395-.7192,.8916-1.1475,1.3564-1.2842,.4639-.1367,.9199-.0688,1.3672,.2046,.4375,.2676,.7002,.6387,.791,1.1143,.0898,.4756-.0859,1.0732-.5254,1.7925l-1.6484,2.6978,5.5264,3.3779c.7188,.4399,1.1475,.8916,1.2842,1.356s.0684,.9199-.2051,1.3672c-.2676,.4375-.6387,.7012-1.1143,.791s-1.0732-.0854-1.792-.5249l-5.5264-3.3779Z"/><path d="M1080.8379,63.1212l-3.3418,6.6787c.8447-.061,1.6494-.0186,2.4111,.127,.7607,.1455,1.4834,.3892,2.166,.731,1.0801,.54,1.9512,1.2056,2.6133,1.9956s1.0732,1.7188,1.2334,2.7861c.1602,1.0679-.0615,2.2026-.6631,3.4048l-2.9443,5.8838c.7949,.3979,1.2764,.7344,1.4443,1.0093,.3311,.561,.3506,1.1313,.0605,1.7124-.2295,.4585-.5752,.7534-1.0361,.8857-.4619,.1323-1.0693,.0098-1.8232-.3672l-3.5762-1.79c-.7432-.3721-1.2031-.7837-1.3789-1.2349s-.1455-.9106,.0889-1.3794c.2852-.5703,.752-.8911,1.3984-.9624,.3369-.0356,.8945,.1479,1.6738,.5508l2.8379-5.6699c.4023-.8047,.502-1.4619,.2988-1.9717-.2598-.6777-.8584-1.251-1.7959-1.7202-.6924-.3467-1.374-.519-2.0439-.5166s-1.6826,.2246-3.0381,.6675l-2.9375,5.8687c.8047,.4023,1.2861,.7393,1.4443,1.0093,.3408,.5654,.3662,1.1387,.0762,1.7197-.2295,.4585-.5781,.7524-1.0439,.8823s-1.0762,.0059-1.8301-.3716l-3.5615-1.7822c-.7539-.3774-1.2178-.7915-1.3936-1.2422-.1758-.4512-.1465-.9111,.0879-1.3799,.2861-.5703,.7568-.8887,1.4141-.9546,.3262-.0405,.8848,.1431,1.6738,.5508l6.7852-13.5557-.5352-.2676c-.7539-.3774-1.2188-.7915-1.3945-1.2427-.1758-.4507-.1465-.9106,.0889-1.3794,.2295-.4585,.5771-.7524,1.043-.8823,.4668-.1299,1.0762-.0059,1.8301,.3716l3.668,1.8354Z"/><path d="M1121.3115,101.503l.1943-.7969c-.9639,.2461-1.9873,.3569-3.0723,.3325-1.084-.0239-2.0479-.1387-2.8887-.3433-1.8262-.4453-3.1914-1.2915-4.0957-2.5381-.9043-1.2461-1.2129-2.4561-.9268-3.6294,.3477-1.4282,1.3994-2.5762,3.1523-3.4443,1.7539-.8682,3.915-.9893,6.4834-.3633,1.0293,.251,2.1924,.6519,3.4883,1.2021l.1982-.8135c.124-.5088,.0068-.9775-.3516-1.4053-.3594-.4272-1.1533-.791-2.3818-1.0903-1.0068-.2456-2.3623-.3647-4.0645-.3579-.6328-.0015-1.1152-.043-1.4473-.124-.4541-.1108-.7988-.3677-1.0342-.771-.2363-.4033-.292-.8599-.168-1.3691,.0703-.2876,.1865-.5234,.3486-.7065s.3584-.3145,.5879-.3931c.2305-.0786,.6826-.1299,1.3574-.1528,.8975-.0278,1.8008-.0039,2.709,.0708,.9072,.0752,1.7158,.1987,2.4248,.3716,2.1143,.5151,3.6436,1.3721,4.5889,2.5698s1.2246,2.5884,.8389,4.1714l-1.708,7.0063,.5811,.1416c.8193,.1997,1.3643,.5,1.6357,.9004,.2725,.4004,.3457,.8555,.2217,1.3647-.1211,.498-.3945,.8623-.8203,1.0928s-1.0479,.2456-1.8672,.0459l-3.9844-.9712Zm1.4854-6.0938c-1.2969-.5977-2.5205-1.0366-3.6719-1.3174-1.3838-.3374-2.6562-.2896-3.8164,.1426-.7256,.2808-1.1426,.6426-1.25,1.085-.0781,.3213,.0078,.6177,.2578,.8896,.4648,.5005,1.1787,.8677,2.1416,1.1025,.8184,.1997,1.7852,.2656,2.8984,.1968s2.1406-.2812,3.084-.6377l.3564-1.4614Z"/><path d="M1168.918,92.4786l.0264-1.042,4.1006,.1064c.8428,.0215,1.4395,.1997,1.79,.5337,.3496,.3335,.5186,.7627,.5049,1.2866-.0137,.5127-.2041,.9263-.5713,1.2417s-.9717,.4619-1.8145,.4399l-.5977-.0156-.3311,12.7451c-.0322,1.23-.3193,2.2964-.8613,3.2002-.542,.9028-1.3564,1.6714-2.4443,2.3042-1.0879,.6323-2.3037,.9316-3.6475,.897l-3.9639-.103c-.8428-.022-1.4395-.1997-1.79-.5337-.3496-.334-.5186-.7573-.5049-1.2695,.0137-.5244,.2041-.9438,.5713-1.2588,.3672-.3154,.9717-.4624,1.8145-.4404l3.8613,.1001c1.0703,.0278,1.9092-.2407,2.5166-.8062s.9229-1.2925,.9463-2.1812l.0439-1.708c-.7881,.481-1.5859,.8364-2.3955,1.0659s-1.6357,.3335-2.4785,.312c-2.3809-.062-4.3525-.9082-5.917-2.5386-1.5654-1.6304-2.3174-3.6133-2.2568-5.9482,.0615-2.3462,.915-4.293,2.5625-5.8398,1.6475-1.5474,3.6611-2.29,6.041-2.228,.8887,.0229,1.7305,.1733,2.5273,.4502,.7959,.2773,1.5518,.6875,2.2676,1.23Zm-.1914,6.7134c.0332-1.2866-.4131-2.415-1.3398-3.3853s-2.0557-1.4722-3.3887-1.5068c-1.332-.0347-2.4863,.4082-3.4619,1.3291-.9756,.9204-1.4805,2.0244-1.5137,3.311-.0332,1.2988,.4131,2.4302,1.3398,3.3945,.9258,.9639,2.0557,1.4634,3.3887,1.498,1.332,.0347,2.4863-.4053,3.4619-1.3203,.9746-.915,1.4795-2.0215,1.5137-3.3203Z"/><path d="M1191.085,106.1324l-.0557-.8184c-.8438,.5254-1.7861,.9404-2.8281,1.2451-1.041,.3042-1.9941,.4863-2.8574,.5449-1.876,.127-3.4326-.2671-4.6709-1.1826-1.2383-.915-1.8984-1.9751-1.9795-3.1802-.0996-1.4663,.5557-2.8779,1.9648-4.2354,1.4102-1.3574,3.4336-2.1255,6.0703-2.3042,1.0576-.0718,2.2871-.041,3.6895,.0923l-.0566-.8354c-.0361-.5225-.2891-.9336-.7607-1.2329-.4707-.2993-1.3379-.4062-2.5996-.3208-1.0342,.0703-2.3613,.3657-3.9824,.8867-.6035,.1895-1.0762,.2954-1.417,.3188-.4658,.0312-.8721-.1094-1.2188-.4229-.3467-.313-.5381-.7314-.5732-1.2544-.0205-.2954,.0195-.5552,.1182-.7788s.2461-.4077,.4424-.5522c.1953-.1445,.6113-.3301,1.2471-.5557,.8477-.2974,1.7158-.5474,2.6045-.7505,.8877-.2026,1.6953-.3291,2.4238-.3784,2.1709-.147,3.8877,.2075,5.1504,1.064,1.2627,.8569,1.9492,2.0977,2.0596,3.7231l.4873,7.1953,.5967-.04c.8418-.0571,1.4521,.064,1.832,.3638s.5879,.7114,.623,1.2339c.0352,.5117-.1162,.9414-.4521,1.2896s-.9248,.5508-1.7656,.6079l-4.0918,.2773Zm-.4248-6.2573c-1.416-.1782-2.7158-.2271-3.8984-.147-1.4209,.0962-2.6191,.5259-3.5947,1.2886-.6074,.4863-.8945,.957-.8643,1.4116,.0225,.3296,.1943,.5864,.5146,.77,.5938,.3364,1.3857,.4717,2.375,.4043,.8408-.0566,1.7812-.2861,2.8223-.688,1.04-.4014,1.9561-.9146,2.7471-1.5396l-.1016-1.5Z"/><path d="M1203.25,89.2745l.1484,.98c.4795-.6372,.9316-1.0952,1.3555-1.373,.4248-.2778,.9355-.4619,1.5322-.5532,.5068-.0771,1.0273-.0293,1.5605,.1431s1.0742,.4702,1.6221,.894c.5215-.5864,1.0713-1.0474,1.6484-1.3833,.5771-.3354,1.1865-.5522,1.8281-.6499,1.2842-.1953,2.3779-.0103,3.2832,.5547,1.1953,.7402,1.9053,1.8423,2.1279,3.3066l1.1807,7.7549c.7197-.1099,1.2803-.0278,1.6787,.2456,.3994,.2734,.6377,.6636,.7148,1.1704s-.0352,.9473-.335,1.3213c-.3008,.3745-.8672,.625-1.7012,.752l-3.2939,.5015-1.6641-10.9316c-.0811-.5293-.2324-.8809-.4541-1.0542-.2227-.1738-.5312-.2305-.9248-.1704-.3838,.0581-.7227,.2139-1.0186,.4663-.374,.3447-.7998,.9512-1.2783,1.8193l1.0615,6.978c.7207-.1099,1.2803-.0278,1.6797,.2456,.3984,.2734,.6367,.6636,.7139,1.1704s-.0342,.9473-.335,1.3213c-.2998,.3745-.8672,.625-1.7002,.7515l-3.2949,.5015-1.6641-10.9312c-.0781-.5176-.2324-.8662-.4609-1.0444-.2295-.1782-.541-.2378-.9346-.1777-.4053,.0615-.7861,.2495-1.1416,.563-.3564,.3135-.752,.8896-1.1895,1.728l1.0625,6.9775c.7207-.1094,1.2832-.0283,1.6875,.2446,.4053,.2725,.6455,.6621,.7227,1.1689s-.0371,.9478-.3428,1.3228-.876,.626-1.709,.7529l-3.126,.4761c-.834,.1265-1.4521,.0566-1.8555-.2104-.4043-.2671-.6455-.6597-.7236-1.1777-.0771-.5068,.0342-.9473,.334-1.3213,.3008-.3745,.8164-.6172,1.5488-.7285l-1.2803-8.4141c-.7324,.1118-1.2979,.0308-1.6973-.2427-.3984-.2734-.6367-.6641-.7139-1.1709s.0371-.9478,.3438-1.3228c.3057-.375,.875-.626,1.709-.7529l3.2949-.5015Z"/><path d="M1240.7441,91.7076l-14.0127,3.1992c.5586,.8076,1.3525,1.3799,2.3818,1.7173,1.0293,.3379,2.3164,.3306,3.8604-.022,1.2666-.2891,2.8867-.9453,4.8623-1.9692,.8154-.4199,1.3896-.668,1.7227-.7437,.4561-.104,.876-.0303,1.2607,.2207,.3838,.251,.6318,.6211,.7441,1.1094,.1006,.4448,.0205,.8604-.2412,1.2471-.3506,.5127-1.3447,1.1514-2.9814,1.9165s-3.249,1.3291-4.8369,1.6919c-2.7324,.6235-5.0947,.3506-7.085-.8193-1.9912-1.1699-3.2441-2.8823-3.7588-5.1372-.5479-2.3989-.1074-4.5532,1.3203-6.4629s3.2979-3.1279,5.6074-3.6558c1.3887-.3169,2.7188-.3633,3.9912-.1396,1.2725,.2241,2.2568,.5542,2.9521,.9912,.9873,.6396,1.8809,1.5054,2.6787,2.5967,.5488,.7632,.9492,1.6997,1.2031,2.8105l.3311,1.4492Zm-4.5625-2.5518c-.7451-.8584-1.5947-1.4326-2.5488-1.7231-.9551-.2905-2.0156-.3027-3.1816-.0361-1.1553,.2637-2.0996,.7334-2.833,1.4092-.7344,.6758-1.2559,1.5635-1.5664,2.6626l10.1299-2.3125Z"/></g></svg>