<?xml version="1.0" encoding="UTF-8"?><svg id="Layer_1" xmlns="http://www.w3.org/2000/svg" width="294" height="120.2744" viewBox="0 0 294 120.2744"><defs><style>.cls-1{fill:none;stroke:#000;stroke-linecap:round;stroke-linejoin:round;stroke-width:5px;}</style></defs><g><path class="cls-1" d="M163.5458,55.46c-4.6666-3-9.3334-6-14-9l-27.9231,.1538v18.8462h-9.0769l9.0769,50.5993h82.9231V55.3135c-13.6666,.0488-27.3334,.0976-41,.1464Z"/><polyline class="cls-1" points="204.6227 116.0593 195.5458 65.46 121.6227 65.46"/></g><g><path d="M42.8301,94.4796l-3.6104,1.4492,.002,1.0518,.3623-.1455c.3574-.1436,.6396-.1768,.8477-.1006,.207,.0771,.3555,.2266,.4453,.4482,.0869,.2178,.082,.4258-.0146,.625s-.3242,.3701-.6816,.5137l-2.001,.8037c-.3584,.1436-.6406,.1768-.8486,.0996-.207-.0762-.3555-.2256-.4443-.4482-.0898-.2217-.083-.4355,.0205-.6396s.3408-.375,.7119-.5127v-6.752l-.9717,.3896c-.3574,.1436-.6396,.1777-.8477,.1006-.207-.0762-.3555-.2256-.4453-.4482-.0889-.2227-.085-.4336,.0117-.6318,.0967-.1992,.3242-.3701,.6816-.5137l3.2148-1.2822,5.8887,6.1133c.3486-.1396,.5938-.1924,.7354-.1602,.2871,.0703,.4824,.2354,.5869,.4971,.0879,.2168,.084,.4248-.0107,.623-.0947,.1973-.3203,.3682-.6777,.5117l-2.002,.8037c-.3574,.1436-.6396,.1768-.8477,.1006-.207-.0771-.3555-.2266-.4453-.4492-.0869-.2168-.082-.4248,.0146-.624,.0977-.1992,.3242-.3701,.6826-.5137l.3623-.1455-.7197-.7637Zm-1.2129-1.2393l-2.3779-2.4629-.0215,3.4268,2.3994-.9639Z"/><path d="M59.251,84.7696l.8535,3.0361-1.2158,.8926-4.333-3.6328c-.2441,.1602-.4697,.2246-.6777,.1924-.207-.0312-.377-.1377-.5098-.3184-.1387-.1885-.1855-.3916-.1416-.6084,.0449-.2168,.2217-.4395,.5332-.667l1.2021-.8828c.3115-.2285,.5762-.3311,.7969-.3086,.2197,.0225,.4004,.1309,.543,.3232,.1416,.1934,.1855,.4131,.1338,.6582-.04,.1836-.2256,.3975-.5566,.6406l1.9932,1.6865-.7393-2.6846,1.1465-.8408,2.3447,1.5059-.998-2.417c-.3193,.2344-.5527,.3564-.6992,.3682-.2969,.0176-.5332-.0938-.709-.333-.1387-.1885-.1855-.3916-.1416-.6084,.0449-.2168,.2217-.4395,.5332-.667l1.2148-.8926c.3105-.2275,.5762-.3301,.7969-.3076,.2197,.0225,.4004,.1299,.542,.3232,.127,.1719,.1758,.3604,.1484,.5645-.0273,.2051-.1484,.3984-.3633,.582l2.1914,5.2041-1.1963,.8779-2.6924-1.6865Z"/><path d="M70.2812,75.2696l-4.6738,4.6182c.4111,.1797,.8574,.2109,1.3389,.0938s.9795-.4297,1.4941-.9385c.4229-.417,.8945-1.0625,1.415-1.9365,.2158-.3594,.3789-.5938,.4902-.7041,.1523-.1494,.333-.2227,.543-.2178s.3955,.0889,.5566,.252c.1465,.1484,.2148,.3291,.2061,.543-.0127,.2832-.2441,.7715-.6963,1.4629-.4512,.6914-.9424,1.2988-1.4717,1.8223-.9121,.9004-1.8945,1.3633-2.9502,1.3887-1.0557,.0244-1.9541-.3389-2.6982-1.0908-.79-.8008-1.1387-1.7432-1.043-2.8291,.0947-1.0859,.5273-2.0098,1.2979-2.7715,.4629-.457,.9688-.7959,1.5166-1.0156,.5488-.2197,1.0107-.3281,1.3857-.3262,.5381,.0107,1.0938,.1318,1.667,.3643,.3965,.1641,.7783,.4316,1.1436,.8018l.4785,.4834Zm-2.3877,.1074c-.4961-.1533-.9648-.1719-1.4053-.0557-.4414,.1172-.8564,.3682-1.2451,.7529-.3848,.3809-.6387,.79-.7617,1.2295-.1221,.4395-.1104,.9102,.0332,1.4121l3.3789-3.3389Z"/><path d="M67.2295,67.3077l2.8984,2.126c.0254-.4658,.1055-.8994,.2412-1.3008,.1357-.4004,.3252-.7676,.5693-1.0986,.6562-.8945,1.5205-1.4268,2.5938-1.5957,1.0732-.168,2.0469,.0674,2.9199,.708,.8359,.6133,1.3174,1.4209,1.4434,2.4248,.126,1.0029-.166,1.9902-.8779,2.96-.252,.3447-.54,.6445-.8623,.8984-.3223,.2549-.6787,.4678-1.0693,.6396l.3145,.2314-1.1084,1.5117c-.2285,.3105-.4502,.4883-.667,.5332-.2168,.0439-.4219-.0039-.6152-.1465-.1885-.1387-.2939-.3184-.3154-.541-.0205-.2217,.0811-.4863,.3057-.793l.1621-.2207-5.5879-4.0977-.1621,.2197c-.2275,.3115-.4502,.4893-.667,.5332-.2168,.0449-.4209-.0039-.6143-.1455-.1895-.1387-.2949-.3184-.3174-.5381-.0234-.2197,.0791-.4854,.3076-.7969l1.1084-1.5117Zm8.3135,.1582c-.5332-.3916-1.1221-.5352-1.7656-.4326s-1.1641,.4248-1.5615,.9668c-.3945,.5371-.5439,1.1289-.4482,1.7734,.0957,.6455,.4033,1.1582,.9238,1.54,.4746,.3486,.9873,.4658,1.5391,.3535,.5508-.1123,1.0508-.4756,1.501-1.0889,.4492-.6133,.6455-1.2002,.5889-1.7617-.0557-.5615-.3154-1.0117-.7773-1.3506Z"/><path d="M78.4756,58.2716c-.2598,.1611-.4902,.3525-.6895,.5732-.2002,.2207-.3691,.4707-.5078,.751-.2754,.5547-.4033,1.041-.3838,1.458,.0078,.1836,.0586,.2988,.1514,.3457,.1074,.0527,.2607,.0068,.4609-.1377,.1484-.1123,.3867-.4102,.7139-.8936,.6025-.8867,1.0615-1.4844,1.3779-1.793,.415-.4043,.8594-.6553,1.332-.752s.8975-.0518,1.2754,.1357c.5137,.2549,.8301,.6943,.9512,1.3174,.1777,.8965,.0088,1.8623-.5049,2.8984-.2061,.415-.4326,.7812-.6797,1.0977s-.5137,.5869-.7988,.8105c.0254,.1006,.0352,.1982,.0283,.2939s-.0303,.1855-.0723,.2695c-.1113,.2236-.2734,.3652-.4863,.4258-.2129,.0596-.4912,.0039-.8369-.167l-.4834-.2393c-.3447-.1719-.5576-.3604-.6387-.5664s-.0684-.416,.0381-.6309c.085-.1719,.2051-.293,.3584-.3623s.3633-.0781,.6289-.0283c.2959-.127,.5674-.3203,.8154-.5811,.249-.2598,.4727-.5908,.6719-.9922,.3262-.6582,.4775-1.2197,.4521-1.6855-.0166-.2236-.0811-.3633-.1934-.4189-.1865-.0918-.4023-.0449-.6455,.1426-.2441,.1865-.6006,.6465-1.0684,1.3799-.6934,1.0918-1.3086,1.7461-1.8457,1.9619-.5332,.2188-1.0488,.2031-1.5479-.0439-.5137-.2549-.833-.6836-.958-1.2861-.1748-.8193-.0264-1.7051,.4453-2.6572,.165-.3311,.3545-.6338,.5684-.9082,.2148-.2744,.457-.5195,.7266-.7344-.0215-.1211-.0293-.2285-.0234-.3213s.0244-.1729,.0566-.2373c.0977-.1963,.252-.3232,.4639-.3809s.4902-.001,.835,.1699l.3506,.1738c.3125,.1553,.5059,.2979,.5811,.4277,.1406,.2559,.1475,.5127,.0195,.7686-.085,.1729-.2139,.2979-.3867,.375-.1719,.0781-.3555,.0908-.5518,.041Z"/><path d="M77.207,48.2061l1.5938,.5781-.6494,1.792-1.5938-.5781,.6494-1.792Zm2.9316,.8301l5.1631,1.8721,.6553-1.8066c.1318-.3623,.2949-.5957,.4902-.6992s.4062-.1152,.6309-.0332c.2207,.0801,.373,.2227,.4561,.4268,.084,.2051,.0605,.4893-.0713,.8516l-1.8555,5.1191c-.1318,.3623-.2949,.5947-.4902,.6982-.1963,.1045-.4062,.1152-.6318,.0332-.2197-.0801-.3721-.2217-.4561-.4268-.083-.2051-.0596-.4883,.0723-.8506l.6553-1.8066-3.6582-1.3262-.4395,1.2119c-.1299,.3574-.292,.5889-.4883,.6953-.1973,.1055-.4072,.1182-.6328,.0361-.2207-.0801-.3721-.2217-.4561-.4268s-.0596-.4883,.0713-.8506l.9854-2.7178Z"/><path d="M84.6572,41.1973l2.9932,1.1611c.3213,.125,.5576,.1406,.71,.0498,.2402-.1416,.4609-.4756,.665-1,.2959-.7617,.4062-1.5293,.3311-2.3008-.0303-.2969-.0176-.5156,.0371-.6562,.0752-.1943,.2139-.335,.415-.4219,.2012-.0859,.4062-.0889,.6152-.0078,.1934,.0752,.3311,.2178,.4121,.4277,.1357,.3262,.1631,.8779,.083,1.6533-.0811,.7764-.2139,1.4043-.4004,1.8857-.3604,.9268-.8301,1.5449-1.4111,1.8535-.5801,.3076-1.1621,.3486-1.7451,.123l-3.2842-1.2744-.209,.5391c-.1396,.3594-.3086,.5879-.5059,.6875-.1982,.0996-.4082,.1055-.6318,.0186-.2188-.084-.3672-.2305-.4463-.4365-.0791-.207-.0488-.4902,.0908-.8496l.209-.5391-1.3477-.5225c-.3594-.1396-.5889-.3076-.6875-.5059-.0996-.1973-.1055-.4082-.0195-.6318,.085-.2178,.2314-.3672,.4375-.4463,.207-.0791,.4902-.0488,.8486,.0908l1.3477,.5234,1.0713-2.7607c.1396-.3594,.3076-.5889,.5059-.6875,.1973-.0996,.4082-.1064,.6318-.0195,.2178,.085,.3672,.2305,.4463,.4375,.0791,.2061,.0488,.4893-.0908,.8486l-1.0713,2.7607Z"/><path d="M93.7793,29.3409l-3.4023,5.6211c.4424,.0732,.8828-.0059,1.3213-.2373,.4385-.2305,.8447-.6553,1.2197-1.2754,.3076-.5078,.6074-1.249,.8984-2.2227,.1211-.4014,.2227-.6689,.3037-.8027,.1104-.1826,.2676-.2969,.4727-.3438s.4053-.0107,.6016,.1084c.1777,.1074,.2891,.2666,.333,.4756,.0566,.2773-.0488,.8076-.3184,1.5879-.2686,.7812-.5957,1.4902-.9814,2.127-.6641,1.0967-1.5039,1.7861-2.5215,2.0674-1.0166,.2832-1.9775,.1504-2.8818-.3975-.9629-.583-1.5303-1.4121-1.7041-2.4883s.0205-2.0771,.5811-3.0039c.3369-.5576,.7451-1.0088,1.2227-1.3564,.4785-.3467,.8994-.5645,1.2646-.6543,.5234-.1211,1.0918-.1396,1.7041-.0547,.4248,.0625,.8604,.2285,1.3057,.498l.5811,.3516Zm-2.2881,.6875c-.5186-.0273-.9775,.0693-1.376,.29-.3994,.2217-.7402,.5664-1.0234,1.0342-.2803,.4629-.4268,.9229-.4375,1.3789-.0117,.4561,.1143,.9092,.377,1.3604l2.46-4.0635Z"/><path d="M105.7266,18.5059l.6279,3.0908-1.2773,.8008-4.0547-3.9404c-.2559,.1416-.4854,.1895-.6904,.1416-.2051-.0469-.3662-.165-.4854-.3545-.124-.1992-.1562-.4043-.0967-.6172,.0605-.2129,.2539-.4219,.5811-.627l1.2637-.792c.3271-.2041,.5986-.2871,.8174-.249,.2178,.0391,.3896,.1602,.5176,.3623,.127,.2031,.1553,.4248,.085,.666-.0527,.1807-.2539,.3799-.6025,.5986l1.8652,1.8281-.541-2.7314,1.2051-.7549,2.2285,1.6738-.8184-2.4834c-.3359,.21-.5771,.3145-.7246,.3154-.2979-.0039-.5254-.1318-.6826-.3838-.125-.1982-.1562-.4043-.0967-.6172,.0605-.2129,.2539-.4219,.5801-.626l1.2783-.8008c.3262-.2051,.5986-.2881,.8164-.249,.2178,.0381,.3906,.1592,.5176,.3623,.1133,.1807,.1484,.3721,.1064,.5742-.043,.2021-.1777,.3867-.4053,.5527l1.8047,5.3516-1.2578,.7881-2.5615-1.8799Z"/><path d="M114.0107,9.8731l1.9648,5.1279,1.7949-.6875c.3594-.1377,.6426-.167,.8486-.0869,.207,.0801,.3525,.2314,.4385,.4561,.084,.2188,.0762,.4268-.0244,.624-.0996,.1973-.3301,.3643-.6895,.5029l-5.085,1.9482c-.3604,.1377-.6436,.167-.8496,.0869s-.3525-.2314-.4385-.4561c-.083-.2188-.0752-.4268,.0244-.624,.1006-.1973,.3301-.3643,.6904-.5029l1.7949-.6875-1.3926-3.6328-1.2031,.4609c-.3555,.1357-.6377,.165-.8457,.0859-.209-.0791-.3564-.2305-.4424-.4541-.084-.2188-.0752-.4268,.0244-.624,.1006-.1973,.3301-.3652,.6904-.5029l2.6992-1.0342Zm-1.292-2.7598l.6064,1.583-1.7803,.6816-.6064-1.583,1.7803-.6816Z"/><path d="M123.541,8.8292l.6357,3.1475c.0674,.3369,.1816,.5449,.3408,.625,.248,.125,.6484,.1318,1.2002,.0205,.8008-.1621,1.5068-.4824,2.1172-.9609,.2334-.1855,.4238-.293,.5723-.3232,.2041-.041,.3965,0,.5781,.1221,.1816,.123,.2949,.2939,.3389,.5137,.041,.2041-.0049,.3975-.1377,.5781-.2021,.29-.6514,.6113-1.3486,.9609-.6973,.3506-1.2979,.5771-1.8037,.6797-.9756,.1963-1.749,.1338-2.3213-.1895-.5732-.3223-.9209-.79-1.0449-1.4033l-.6963-3.4531-.5674,.1143c-.3779,.0762-.6611,.0576-.8516-.0557-.1904-.1123-.3096-.2871-.3564-.5215-.0469-.2295-.0039-.4336,.1279-.6113,.1309-.1787,.3857-.3057,.7637-.3818l.5664-.1143-.2861-1.417c-.0762-.377-.0576-.6611,.0557-.8516,.1123-.1904,.2871-.3086,.5215-.3564,.2295-.0459,.4336-.0039,.6113,.1279,.1787,.1309,.3057,.3857,.3818,.7637l.2861,1.417,2.9023-.5859c.377-.0762,.6611-.0576,.8516,.0547,.1904,.1133,.3096,.2871,.3564,.5225,.0469,.2295,.0039,.4336-.1279,.6113-.1309,.1777-.3857,.3047-.7637,.3809l-2.9023,.5859Z"/><path d="M132.3301,2.8858l.2148,3.4072c.3193-.2178,.6475-.3857,.9814-.5039,.334-.1172,.6758-.1875,1.0244-.209,.5508-.0352,1.0479,.0283,1.4912,.1875,.4434,.1602,.8193,.4326,1.1279,.8174,.3086,.3857,.4824,.8848,.5205,1.498l.1885,3.002c.4062-.0254,.6738-.0029,.8027,.0664,.2598,.1455,.3994,.3672,.418,.6631,.0146,.2334-.0537,.4297-.2061,.5879-.1514,.1582-.4199,.25-.8047,.2744l-1.8242,.1143c-.3799,.0244-.6562-.0332-.8291-.1709s-.2666-.3262-.2822-.5654c-.0176-.291,.0928-.5244,.332-.7021,.125-.0908,.3867-.1465,.7881-.167l-.1826-2.8926c-.0254-.4102-.1377-.6934-.335-.8477-.2588-.208-.627-.2969-1.1045-.2666-.3535,.0215-.6631,.1104-.9268,.2656-.2646,.1543-.6133,.4756-1.0469,.9619l.1885,2.9941c.4102-.0254,.6777-.0039,.8027,.0674,.2646,.1445,.4062,.3652,.4248,.6621,.0146,.2334-.0547,.4297-.21,.5879-.1543,.1582-.4238,.25-.8086,.2744l-1.8164,.1143c-.3848,.0244-.6631-.0332-.8369-.1709-.1729-.1377-.2666-.3262-.2812-.5654-.0186-.291,.0947-.5254,.3389-.7021,.1191-.0908,.3818-.1465,.7881-.167l-.4355-6.916-.2725,.0176c-.3848,.0234-.6641-.0332-.8369-.1709s-.2666-.3262-.2822-.5654c-.0146-.2334,.0557-.4297,.21-.5889,.1543-.1582,.4238-.249,.8086-.2734l1.8711-.1182Z"/><path d="M155.5479,13.92l.0498-.3711c-.4258,.1582-.8857,.2578-1.3799,.2988-.4941,.042-.9375,.0361-1.3301-.0166-.8516-.1143-1.5127-.4326-1.9844-.9561-.4707-.5234-.6699-1.0586-.5957-1.6055,.0889-.666,.5117-1.2383,1.2666-1.7178,.7559-.4795,1.7324-.6387,2.9297-.4775,.4805,.0645,1.0283,.1904,1.6436,.3779l.0518-.3789c.0312-.2373-.0449-.4443-.2285-.6221-.1836-.1768-.5615-.3037-1.1348-.3809-.4697-.0635-1.0918-.0518-1.8652,.0332-.2871,.0303-.5088,.0342-.6641,.0137-.2109-.0283-.3799-.1289-.5068-.3008s-.1738-.377-.1426-.6143c.0186-.1338,.0596-.2471,.124-.3379,.0654-.0908,.1484-.1602,.249-.207s.3037-.0918,.6094-.1348c.4062-.0557,.8184-.0889,1.2344-.0986,.417-.0098,.79,.0078,1.1211,.0518,.9854,.1328,1.7217,.4482,2.21,.9473,.4873,.499,.6816,1.1172,.582,1.8555l-.4385,3.2676,.2705,.0371c.3818,.0508,.6445,.1611,.7871,.3301,.1436,.1689,.1992,.3721,.167,.6094-.0312,.2324-.1377,.4111-.3203,.5361-.1826,.126-.4648,.1621-.8467,.1113l-1.8584-.25Zm.3818-2.8408c-.6182-.21-1.1963-.3506-1.7324-.4219-.6455-.0869-1.2217-.0039-1.7285,.248-.3164,.1631-.4883,.3477-.5156,.5537-.0205,.1494,.0332,.2803,.1602,.3916,.2354,.2051,.5771,.3379,1.0264,.3984,.3818,.0508,.8242,.0342,1.3271-.0508s.96-.2305,1.3711-.4385l.0918-.6807Z"/><path d="M176.8535,11.7628l.124-.46,1.8105,.4883c.3721,.0996,.6182,.2432,.7383,.4287,.1201,.1865,.1484,.3955,.0859,.626-.0605,.2266-.1895,.3906-.3867,.4912s-.4814,.1006-.8535,0l-.2646-.0713-1.5156,5.6279c-.1465,.543-.3887,.9863-.7266,1.3291-.3379,.3438-.7832,.5967-1.334,.7617-.5518,.1641-1.124,.166-1.7168,.0068l-1.75-.4717c-.373-.1006-.6182-.2441-.7383-.4297-.1201-.1865-.1494-.3926-.0879-.6182,.0615-.2314,.1914-.3975,.3887-.498s.4814-.1016,.8535-.001l1.7051,.46c.4727,.127,.874,.0977,1.2051-.0889,.3301-.1855,.5488-.4746,.6543-.8672l.2031-.7539c-.4014,.1289-.7939,.2012-1.1787,.2158-.3848,.0156-.7627-.0273-1.1348-.1279-1.0508-.2832-1.8369-.8711-2.3564-1.7637-.5205-.8926-.6416-1.8535-.3633-2.8848,.2783-1.0361,.8672-1.8096,1.7656-2.3193,.8984-.5107,1.8721-.625,2.9238-.3418,.3916,.1064,.75,.2637,1.0742,.4717,.3242,.209,.6162,.4727,.875,.79Zm-.8057,2.9629c.1533-.5684,.0752-1.1172-.2314-1.6484-.3076-.5303-.7559-.875-1.3438-1.0332-.5889-.1592-1.1494-.0859-1.6816,.2188-.5322,.3037-.875,.7402-1.0283,1.3086-.1543,.5732-.0771,1.124,.2305,1.6523,.3086,.5273,.7568,.8711,1.3447,1.0293,.5889,.1582,1.1484,.0869,1.6807-.2148,.5312-.3018,.875-.7393,1.0293-1.3125Z"/><path d="M184.292,20.9512l.1152-.3564c-.4473,.0801-.917,.0967-1.4111,.0498-.4941-.0479-.9287-.1318-1.3057-.2529-.8184-.2637-1.4121-.6953-1.7832-1.2939-.3701-.5977-.4707-1.1602-.3018-1.6855,.2061-.6396,.7236-1.1279,1.5518-1.4648,.8291-.3379,1.8184-.3213,2.9678,.0498,.4609,.1484,.9785,.3701,1.5508,.6641l.1182-.3643c.0732-.2285,.0352-.4453-.1143-.6523s-.499-.3994-1.0498-.5771c-.4512-.1445-1.0645-.2441-1.8408-.2979-.2881-.0215-.5068-.0566-.6553-.1045-.2041-.0654-.3525-.1943-.4463-.3857-.0947-.1924-.1045-.4023-.0312-.6299,.042-.1289,.1025-.2324,.1826-.3105s.1738-.1318,.2812-.1602,.3154-.0361,.623-.0244c.4111,.0176,.8213,.0586,1.2334,.123,.4111,.0635,.7754,.1475,1.0928,.249,.9473,.3057,1.6162,.7471,2.0068,1.3252,.3916,.5771,.4727,1.2207,.2441,1.9297l-1.0117,3.1377,.2598,.084c.3672,.1182,.6055,.2725,.7158,.4648,.1113,.1914,.1299,.4014,.0557,.6289-.0713,.2236-.208,.3799-.4102,.4717-.2021,.0908-.4863,.0771-.8525-.042l-1.7852-.5752Zm.8809-2.7285c-.5713-.3154-1.1152-.5566-1.6309-.7227-.6191-.2002-1.2012-.2207-1.7451-.0625-.3398,.1045-.541,.2549-.6055,.4531-.0459,.1445-.0166,.2822,.0879,.4141,.1953,.2441,.5088,.4355,.9395,.5742,.3672,.1182,.8057,.1807,1.3154,.1865,.5098,.0049,.9854-.0576,1.4277-.1885l.2109-.6543Z"/><path d="M192.4189,16.2364l-.1562,.4258c.333-.1504,.6143-.2344,.8457-.252,.2314-.0186,.4766,.0205,.7354,.1152,.2207,.0801,.418,.2139,.5938,.4004s.3271,.4248,.4541,.7148c.3379-.1201,.6592-.1836,.9639-.1914,.3057-.0068,.5977,.04,.876,.1416,.5576,.2051,.9551,.5195,1.1934,.9453,.3164,.5596,.3584,1.1572,.125,1.793l-1.2334,3.3672c.3135,.1143,.5195,.2705,.6191,.4678s.1094,.4062,.0283,.626c-.0801,.2207-.2217,.3721-.4248,.4561-.2021,.084-.4844,.0596-.8467-.0732l-1.4307-.5234,1.7393-4.7461c.084-.2305,.1006-.4043,.0498-.5234-.0508-.1182-.1621-.209-.333-.2715-.167-.0605-.3369-.0732-.5107-.0371-.2256,.0557-.5303,.2051-.9131,.4482l-1.1094,3.0293c.3125,.1143,.5186,.2705,.6191,.4678,.0996,.1973,.1084,.4062,.0283,.626-.0811,.2207-.2227,.3721-.4248,.4561-.2031,.084-.4854,.0596-.8467-.0732l-1.4307-.5234,1.7383-4.7461c.082-.2256,.0977-.3984,.0449-.5205s-.1641-.2139-.335-.2764c-.1768-.0654-.3701-.0732-.582-.0264-.2109,.0479-.4971,.1914-.8564,.4307l-1.1094,3.0303c.3125,.1143,.5205,.2705,.6221,.4688,.1025,.1982,.1133,.4082,.0322,.6279-.0801,.2197-.2236,.3711-.4287,.4541s-.4883,.0586-.8506-.0742l-1.3564-.4971c-.3623-.1328-.5947-.2969-.6973-.4922-.1035-.1963-.1133-.4062-.0312-.6318,.0811-.2197,.2227-.3711,.4248-.4551,.2031-.084,.4629-.0684,.7812,.0488l1.3379-3.6533c-.3184-.1162-.5264-.2734-.626-.4707s-.1094-.4062-.0293-.626c.0811-.2207,.2236-.3721,.4287-.4551s.4883-.0576,.8506,.0742l1.4307,.5244Z"/><path d="M206.3428,26.2833l-6.084-2.4805c-.0039,.4482,.1436,.8711,.4404,1.2676s.7803,.7314,1.4502,1.0049c.5498,.2246,1.3291,.4043,2.3369,.5391,.415,.0566,.6953,.1152,.8398,.1738,.1982,.0811,.3359,.2188,.4141,.4131,.0781,.1953,.0732,.3984-.0127,.6113-.0791,.1924-.2178,.3271-.418,.4033-.2656,.0996-.8047,.0781-1.6182-.0654-.8135-.1426-1.5654-.3555-2.2549-.6367-1.1865-.4834-1.999-1.2051-2.4365-2.166-.4385-.96-.458-1.9297-.0586-2.9092,.4248-1.041,1.1543-1.7324,2.1904-2.0723s2.0547-.3057,3.0586,.1035c.6025,.2461,1.1123,.5781,1.5303,.9951,.417,.418,.6992,.7998,.8447,1.1465,.2021,.498,.3086,1.0566,.3213,1.6748,.0049,.4287-.0908,.8848-.2881,1.3672l-.2559,.6299Zm-1.0381-2.1533c-.0537-.5166-.2207-.9541-.502-1.3135s-.6748-.6426-1.1807-.8486c-.502-.2051-.9785-.2764-1.4307-.2158-.4521,.0596-.8809,.2549-1.2852,.585l4.3984,1.793Z"/></g></svg>