<?xml version="1.0" encoding="utf-8"?>
<!-- Generator: Adobe Illustrator 26.1.0, SVG Export Plug-In . SVG Version: 6.00 Build 0)  -->
<svg version="1.1" id="Layer_1" xmlns="http://www.w3.org/2000/svg" xmlns:xlink="http://www.w3.org/1999/xlink" x="0px" y="0px"
	 viewBox="0 0 1920 1080" style="enable-background:new 0 0 1920 1080;" xml:space="preserve">
<style type="text/css">
	.st0{fill:#FFFFFF;stroke:#000000;stroke-width:2;stroke-miterlimit:10;}
	.st1{fill:none;stroke:#000000;stroke-miterlimit:10;}
	.st2{fill:#FFFFFF;stroke:#FFFFFF;stroke-miterlimit:10;}
	.st3{fill:none;stroke:#FFFFFF;stroke-miterlimit:10;}
</style>
<g>
	<path d="M762.86,560.57c0,6.9-3.72,13.8-13.08,13.8c-10.44,0-18.42-7.02-18.42-17.28c0-9.36,8.16-17.1,19.26-17.1
		c7.26,0,11.82,4.8,11.82,9.72c0,4.5-3.24,7.08-6.96,7.08c-4.2,0-7.26-3-7.26-6.54c0-3.48,2.7-6.42,6.54-6.42
		c1.68,0,2.64,0.6,2.82,0.6s0.18-0.24,0.18-0.48c0-0.66-2.28-3.3-6.6-3.3c-3.66,0-6.6,3.24-6.6,17.52c0,12.18,2.22,15.3,6.6,15.3
		c6.36,0,11.04-5.64,11.04-12.96L762.86,560.57z"/>
	<path d="M789.44,553.43c-2.76,0-5.82-2.28-5.82-5.58c0-3.6,2.64-6,5.58-6c2.16,0,3.12,0.9,3.48,0.9c0.12,0,0.3-0.12,0.3-0.3
		c0-0.96-1.74-2.46-4.26-2.46c-2.58,0-6.54,1.98-6.54,8.7v21.18c0,1.92,0.78,2.7,1.74,2.7h2.28v0.72h-21.54v-0.72h2.04
		c1.74,0,3.06-0.96,3.06-2.58v-25.62c0-1.62-0.84-2.76-2.22-2.76h-2.04v-0.78h16.02l0.3,3.72c0.72-1.56,2.7-5.22,7.08-5.22
		c3.6,0,6.66,3,6.66,7.32C795.56,550.97,792.56,553.43,789.44,553.43z"/>
	<path d="M826.88,556.49h-16.92c0,0.66-0.06,1.32-0.06,1.98c0,12.12,1.92,14.7,6.06,14.7c6.54,0,11.52-6.06,11.52-11.76h0.84
		c0,5.76-4.62,12.78-13.68,12.78c-10.32,0-17.22-6.66-17.22-16.74c0-10.08,7.8-17.4,16.38-17.4c9.66,0,14.7,7.68,14.7,15
		C828.5,556.25,827.96,556.49,826.88,556.49z M814.1,540.89c-2.76,0-3.96,3.78-4.14,14.76h5.52c0.78,0,1.44,0.18,1.44-1.08
		C816.92,543.59,817.1,540.89,814.1,540.89z"/>
	<path d="M865.82,564.65c0,5.88-1.2,9.54-7.56,9.54c-7.74,0-8.94-6.54-9.12-6.54c-0.24,0-0.6,1.62-1.68,3.18
		c-1.08,1.62-2.46,3.18-6.78,3.18c-6.3,0-10.44-3.48-10.44-8.58c0-7.92,8.16-8.28,11.46-9.12c3.3-0.84,7.56-1.74,7.56-9.24
		c0-5.4-1.74-6.42-4.5-6.42s-5.76,1.56-5.76,2.46c0,0.3,0.12,0.36,0.24,0.36c0.18,0,0.42-0.06,0.66-0.06c3,0,5.22,2.52,5.22,5.4
		c0,3.42-2.82,6.3-6.12,6.3c-3.24,0-6.3-2.46-6.3-6.42c0-4.44,4.5-8.7,14.28-8.7c8.28,0,13.98,3.24,13.98,9.66v20.58
		c0,1.56,0.54,2.16,1.26,2.16c1.26,0,2.82-2.76,2.82-6.9c0-0.3,0-0.54,0-0.84H865.82z M848.84,553.01c-0.12,0-0.96,1.08-2.22,2.04
		c-1.08,0.84-3.9,1.92-3.9,9.96c0,6.84,0.24,7.44,1.74,7.44c1.86,0,4.56-4.8,4.56-8.82v-10.26c0,0,0,0,0-0.06
		C849.02,553.13,849.02,553.01,848.84,553.01z"/>
	<path d="M888.26,562.43c0,8.94-3.54,11.88-9.18,11.88c-5.16,0-9.18-2.1-9.18-6.9v-25.74h-3.3v-0.9h2.04
		c6.06,0,13.26-5.22,13.26-11.82l0.78,0.06v11.76h5.52v0.9h-5.52v27.18c0,2.28,0.66,2.58,1.5,2.58c1.62,0,3.36-3.12,3.36-9H888.26z"
		/>
	<path d="M911.6,573.29h-21.12v-0.78h1.8c1.74,0,2.88-1.2,2.88-2.82v-25.44c0-1.62-0.84-2.64-2.46-2.64h-1.62v-0.78h16.62v28.86
		c0,1.62,0.72,2.82,2.16,2.82h1.74V573.29z M901.1,538.67c-3.9,0-7.02-2.7-7.02-6.12c0-3.36,3.12-6.06,7.02-6.06
		c3.84,0,6.96,2.7,6.96,6.06C908.06,535.98,904.94,538.67,901.1,538.67z"/>
	<path d="M950.6,541.62h-1.02c-2.46,0-5.52,3.18-7.26,9.12l-6.72,22.56h-8.88l-10.92-29.7c-0.48-1.32-1.02-1.98-2.28-1.98h-1.68
		v-0.84h21.18v0.84h-1.26c-1.14,0-1.8,0.48-1.8,1.32c0,0.24,0,0.48,0.12,0.72l7.14,21.54l4.44-14.94c0.42-1.26,0.54-2.4,0.54-3.36
		c0-3.36-1.8-5.28-3.66-5.28h-1.74v-0.84h13.8V541.62z"/>
	<path d="M972.14,573.29h-21.12v-0.78h1.8c1.74,0,2.88-1.2,2.88-2.82v-25.44c0-1.62-0.84-2.64-2.46-2.64h-1.62v-0.78h16.62v28.86
		c0,1.62,0.72,2.82,2.16,2.82h1.74V573.29z M961.64,538.67c-3.9,0-7.02-2.7-7.02-6.12c0-3.36,3.12-6.06,7.02-6.06
		c3.84,0,6.96,2.7,6.96,6.06C968.6,535.98,965.48,538.67,961.64,538.67z"/>
	<path class="st0" d="M1020.5,545.88h-0.6v-2.16c0-7.2-7.68-17.64-13.92-17.64h-0.9v42.78c0,2.22,1.2,3.66,2.64,3.66h3.72v0.78
		h-27.72v-0.78h4.68c1.44,0,2.52-1.62,2.52-3.54v-42.9h-0.72c-5.34,0-14.28,9.78-14.28,18v1.8h-0.66V525.3h45.24V545.88z"/>
	<path class="st0" d="M1065.44,573.29h-44.04v-0.78h4.14c2.58,0,4.02-1.2,4.02-4.92v-37.38c0-3.24-0.96-4.14-3.42-4.14h-2.7v-0.72
		h39.72v18.54h-0.54l-0.12-1.62c-0.6-7.26-7.2-16.2-16.14-16.2h-3.24v21.18h2.34c4.2,0,8.88-4.44,8.88-10.02v-1.68h0.72v25.44h-0.72
		v-1.86c0-5.52-3.9-10.92-8.7-10.92h-2.52v22.44c0,0.72,0.96,1.86,2.34,1.86h4.92c6.48,0,14.04-12.54,14.4-18.3l0.12-2.22h0.54
		V573.29z"/>
	<path class="st0" d="M1111.46,573.29h-44.04v-0.78h4.14c2.58,0,4.02-1.2,4.02-4.92v-37.38c0-3.24-0.96-4.14-3.42-4.14h-2.7v-0.72
		h39.72v18.54h-0.54l-0.12-1.62c-0.6-7.26-7.2-16.2-16.14-16.2h-3.24v21.18h2.34c4.2,0,8.88-4.44,8.88-10.02v-1.68h0.72v25.44h-0.72
		v-1.86c0-5.52-3.9-10.92-8.7-10.92h-2.52v22.44c0,0.72,0.96,1.86,2.34,1.86h4.92c6.48,0,14.04-12.54,14.4-18.3l0.12-2.22h0.54
		V573.29z"/>
</g>
<polyline class="st1" points="981.54,513.91 981.54,499.13 1166.54,499.13 1166.54,597.13 981.54,597.13 981.54,587.89 "/>
<path d="M1189.69,469.92c0,0.67,0,1.2,0,1.72c0,15.5,0,31,0,46.5c0,2.54-0.55,3.09-3.07,3.09c-15.75,0-31.5,0-47.25,0
	c-2.51,0-3.06-0.56-3.06-3.1c0-15.58,0-31.17,0-46.75c0-0.44,0-0.89,0-1.49c-2.62,0.77-5.05,1.49-7.48,2.2
	c-1.99,0.59-2.6,0.34-3.51-1.46c-2.28-4.49-4.56-8.99-6.82-13.49c-0.91-1.81-0.59-2.76,1.22-3.59c5.36-2.49,10.65-5.18,16.14-7.36
	c3.69-1.46,7.66-2.22,11.53-3.19c1.4-0.35,2.13,0.35,2.59,2.01c1.65,5.96,6.89,10.01,12.96,10.02c6.11,0.01,11.41-4.01,13.06-9.9
	c0.57-2.05,1.25-2.38,3.37-2.04c7.56,1.21,14.32,4.58,21.14,7.78c2,0.94,4.01,1.84,6.01,2.79c1.52,0.72,1.87,1.74,1.11,3.26
	c-2.37,4.73-4.77,9.44-7.17,14.15c-0.62,1.21-1.45,1.55-2.8,1.16c-2.12-0.6-4.23-1.25-6.35-1.88
	C1190.83,470.22,1190.35,470.1,1189.69,469.92z"/>
<polyline class="st1" points="995.51,499.12 995.51,484.34 1180.51,484.34 1180.51,582.34 995.51,582.34 995.51,573.1 "/>
<line class="st2" x1="1135" y1="484" x2="1181" y2="484"/>
<line class="st3" x1="1180.5" y1="484.5" x2="1180.5" y2="521.5"/>
<line class="st3" x1="1135.5" y1="499.5" x2="1166.5" y2="499.5"/>
<line class="st3" x1="1166.5" y1="521.5" x2="1166.5" y2="499.5"/>
</svg>
